<?plantuml 1.2026.1?><svg xmlns="http://www.w3.org/2000/svg" xmlns:xlink="http://www.w3.org/1999/xlink" contentStyleType="text/css" data-diagram-type="CLASS" height="265px" preserveAspectRatio="none" style="width:858px;height:265px;background:#FFFFFF;" version="1.1" viewBox="0 0 858 265" width="858px" zoomAndPan="magnify"><defs/><g><!--class exception--><g class="entity" data-qualified-name="exception" data-source-line="2" id="ent0002"><rect fill="#F1F1F1" height="43.6094" rx="2.5" ry="2.5" style="stroke:#181818;stroke-width:0.5;" width="65.9307" x="355.5" y="7"/><text fill="#000000" font-family="sans-serif" font-size="14" lengthAdjust="spacing" textLength="59.9307" x="358.5" y="26.5332">exception</text><line style="stroke:#181818;stroke-width:0.5;" x1="356.5" x2="420.4307" y1="34.6094" y2="34.6094"/><line style="stroke:#181818;stroke-width:0.5;" x1="356.5" x2="420.4307" y1="42.6094" y2="42.6094"/></g><!--class runtime_error--><g class="entity" data-qualified-name="runtime_error" data-source-line="2" id="ent0003"><rect fill="#F1F1F1" height="43.6094" rx="2.5" ry="2.5" style="stroke:#181818;stroke-width:0.5;" width="90.0273" x="76.5" y="111"/><text fill="#000000" font-family="sans-serif" font-size="14" lengthAdjust="spacing" textLength="84.0273" x="79.5" y="130.5332">runtime_error</text><line style="stroke:#181818;stroke-width:0.5;" x1="77.5" x2="165.5273" y1="138.6094" y2="138.6094"/><line style="stroke:#181818;stroke-width:0.5;" x1="77.5" x2="165.5273" y1="146.6094" y2="146.6094"/></g><!--class bad_alloc--><g class="entity" data-qualified-name="bad_alloc" data-source-line="3" id="ent0005"><rect fill="#F1F1F1" height="43.6094" rx="2.5" ry="2.5" style="stroke:#181818;stroke-width:0.5;" width="65.9375" x="201.5" y="111"/><text fill="#000000" font-family="sans-serif" font-size="14" lengthAdjust="spacing" textLength="59.9375" x="204.5" y="130.5332">bad_alloc</text><line style="stroke:#181818;stroke-width:0.5;" x1="202.5" x2="266.4375" y1="138.6094" y2="138.6094"/><line style="stroke:#181818;stroke-width:0.5;" x1="202.5" x2="266.4375" y1="146.6094" y2="146.6094"/></g><!--class bad_cast--><g class="entity" data-qualified-name="bad_cast" data-source-line="4" id="ent0007"><rect fill="#F1F1F1" height="43.6094" rx="2.5" ry="2.5" style="stroke:#181818;stroke-width:0.5;" width="62.8203" x="303" y="111"/><text fill="#000000" font-family="sans-serif" font-size="14" lengthAdjust="spacing" textLength="56.8203" x="306" y="130.5332">bad_cast</text><line style="stroke:#181818;stroke-width:0.5;" x1="304" x2="364.8203" y1="138.6094" y2="138.6094"/><line style="stroke:#181818;stroke-width:0.5;" x1="304" x2="364.8203" y1="146.6094" y2="146.6094"/></g><!--class bad_type_id--><g class="entity" data-qualified-name="bad_type_id" data-source-line="5" id="ent0009"><rect fill="#F1F1F1" height="43.6094" rx="2.5" ry="2.5" style="stroke:#181818;stroke-width:0.5;" width="82.2891" x="401.5" y="111"/><text fill="#000000" font-family="sans-serif" font-size="14" lengthAdjust="spacing" textLength="76.2891" x="404.5" y="130.5332">bad_type_id</text><line style="stroke:#181818;stroke-width:0.5;" x1="402.5" x2="482.7891" y1="138.6094" y2="138.6094"/><line style="stroke:#181818;stroke-width:0.5;" x1="402.5" x2="482.7891" y1="146.6094" y2="146.6094"/></g><!--class bad_exception--><g class="entity" data-qualified-name="bad_exception" data-source-line="6" id="ent0011"><rect fill="#F1F1F1" height="43.6094" rx="2.5" ry="2.5" style="stroke:#181818;stroke-width:0.5;" width="97.0752" x="519" y="111"/><text fill="#000000" font-family="sans-serif" font-size="14" lengthAdjust="spacing" textLength="91.0752" x="522" y="130.5332">bad_exception</text><line style="stroke:#181818;stroke-width:0.5;" x1="520" x2="615.0752" y1="138.6094" y2="138.6094"/><line style="stroke:#181818;stroke-width:0.5;" x1="520" x2="615.0752" y1="146.6094" y2="146.6094"/></g><!--class logic_error--><g class="entity" data-qualified-name="logic_error" data-source-line="7" id="ent0013"><rect fill="#F1F1F1" height="43.6094" rx="2.5" ry="2.5" style="stroke:#181818;stroke-width:0.5;" width="72.1377" x="651.5" y="111"/><text fill="#000000" font-family="sans-serif" font-size="14" lengthAdjust="spacing" textLength="66.1377" x="654.5" y="130.5332">logic_error</text><line style="stroke:#181818;stroke-width:0.5;" x1="652.5" x2="722.6377" y1="138.6094" y2="138.6094"/><line style="stroke:#181818;stroke-width:0.5;" x1="652.5" x2="722.6377" y1="146.6094" y2="146.6094"/></g><!--class overflow_error--><g class="entity" data-qualified-name="overflow_error" data-source-line="8" id="ent0015"><rect fill="#F1F1F1" height="43.6094" rx="2.5" ry="2.5" style="stroke:#181818;stroke-width:0.5;" width="95.4756" x="7" y="215"/><text fill="#000000" font-family="sans-serif" font-size="14" lengthAdjust="spacing" textLength="89.4756" x="10" y="234.5332">overflow_error</text><line style="stroke:#181818;stroke-width:0.5;" x1="8" x2="101.4756" y1="242.6094" y2="242.6094"/><line style="stroke:#181818;stroke-width:0.5;" x1="8" x2="101.4756" y1="250.6094" y2="250.6094"/></g><!--class underflow_error--><g class="entity" data-qualified-name="underflow_error" data-source-line="9" id="ent0017"><rect fill="#F1F1F1" height="43.6094" rx="2.5" ry="2.5" style="stroke:#181818;stroke-width:0.5;" width="104.0479" x="137.5" y="215"/><text fill="#000000" font-family="sans-serif" font-size="14" lengthAdjust="spacing" textLength="98.0479" x="140.5" y="234.5332">underflow_error</text><line style="stroke:#181818;stroke-width:0.5;" x1="138.5" x2="240.5479" y1="242.6094" y2="242.6094"/><line style="stroke:#181818;stroke-width:0.5;" x1="138.5" x2="240.5479" y1="250.6094" y2="250.6094"/></g><!--class invalid_argument--><g class="entity" data-qualified-name="invalid_argument" data-source-line="10" id="ent0019"><rect fill="#F1F1F1" height="43.6094" rx="2.5" ry="2.5" style="stroke:#181818;stroke-width:0.5;" width="112.6201" x="499" y="215"/><text fill="#000000" font-family="sans-serif" font-size="14" lengthAdjust="spacing" textLength="106.6201" x="502" y="234.5332">invalid_argument</text><line style="stroke:#181818;stroke-width:0.5;" x1="500" x2="610.6201" y1="242.6094" y2="242.6094"/><line style="stroke:#181818;stroke-width:0.5;" x1="500" x2="610.6201" y1="250.6094" y2="250.6094"/></g><!--class length_error--><g class="entity" data-qualified-name="length_error" data-source-line="11" id="ent0021"><rect fill="#F1F1F1" height="43.6094" rx="2.5" ry="2.5" style="stroke:#181818;stroke-width:0.5;" width="81.4893" x="647" y="215"/><text fill="#000000" font-family="sans-serif" font-size="14" lengthAdjust="spacing" textLength="75.4893" x="650" y="234.5332">length_error</text><line style="stroke:#181818;stroke-width:0.5;" x1="648" x2="727.4893" y1="242.6094" y2="242.6094"/><line style="stroke:#181818;stroke-width:0.5;" x1="648" x2="727.4893" y1="250.6094" y2="250.6094"/></g><!--class out_of_range--><g class="entity" data-qualified-name="out_of_range" data-source-line="12" id="ent0023"><rect fill="#F1F1F1" height="43.6094" rx="2.5" ry="2.5" style="stroke:#181818;stroke-width:0.5;" width="88.5166" x="763" y="215"/><text fill="#000000" font-family="sans-serif" font-size="14" lengthAdjust="spacing" textLength="82.5166" x="766" y="234.5332">out_of_range</text><line style="stroke:#181818;stroke-width:0.5;" x1="764" x2="850.5166" y1="242.6094" y2="242.6094"/><line style="stroke:#181818;stroke-width:0.5;" x1="764" x2="850.5166" y1="250.6094" y2="250.6094"/></g><!--reverse link exception to runtime_error--><g class="link" data-entity-1="ent0002" data-entity-2="ent0003" data-link-type="extension" data-source-line="2" id="lnk4"><path codeLine="2" d="M338.6748,49.0327 C291.2348,67.1527 220.43,94.2 166.92,114.65" fill="none" id="exception-backto-runtime_error" style="stroke:#181818;stroke-width:1;"/><polygon fill="none" points="355.49,42.61,336.534,43.4276,340.8157,54.6377,355.49,42.61" style="stroke:#181818;stroke-width:1;"/></g><!--reverse link exception to bad_alloc--><g class="link" data-entity-1="ent0002" data-entity-2="ent0005" data-link-type="extension" data-source-line="3" id="lnk6"><path codeLine="3" d="M341.5843,61.0713 C315.1543,78.5813 292.79,93.39 266.37,110.89" fill="none" id="exception-backto-bad_alloc" style="stroke:#181818;stroke-width:1;"/><polygon fill="none" points="356.59,51.13,338.2706,56.0694,344.8981,66.0732,356.59,51.13" style="stroke:#181818;stroke-width:1;"/></g><!--reverse link exception to bad_cast--><g class="link" data-entity-1="ent0002" data-entity-2="ent0007" data-link-type="extension" data-source-line="4" id="lnk8"><path codeLine="4" d="M368.888,67.0382 C359.618,84.5482 354.94,93.39 345.67,110.89" fill="none" id="exception-backto-bad_cast" style="stroke:#181818;stroke-width:1;"/><polygon fill="none" points="377.31,51.13,363.5853,64.2309,374.1907,69.8455,377.31,51.13" style="stroke:#181818;stroke-width:1;"/></g><!--reverse link exception to bad_type_id--><g class="link" data-entity-1="ent0002" data-entity-2="ent0009" data-link-type="extension" data-source-line="5" id="lnk10"><path codeLine="5" d="M408.112,67.0382 C417.382,84.5482 422.06,93.39 431.33,110.89" fill="none" id="exception-backto-bad_type_id" style="stroke:#181818;stroke-width:1;"/><polygon fill="none" points="399.69,51.13,402.8093,69.8455,413.4147,64.2309,399.69,51.13" style="stroke:#181818;stroke-width:1;"/></g><!--reverse link exception to bad_exception--><g class="link" data-entity-1="ent0002" data-entity-2="ent0011" data-link-type="extension" data-source-line="6" id="lnk12"><path codeLine="6" d="M437.3899,57.8603 C468.2299,75.4303 498.41,92.63 530.41,110.87" fill="none" id="exception-backto-bad_exception" style="stroke:#181818;stroke-width:1;"/><polygon fill="none" points="421.75,48.95,434.4198,63.0736,440.36,52.647,421.75,48.95" style="stroke:#181818;stroke-width:1;"/></g><!--reverse link exception to logic_error--><g class="link" data-entity-1="ent0002" data-entity-2="ent0013" data-link-type="extension" data-source-line="7" id="lnk14"><path codeLine="7" d="M438.7464,45.7545 C485.9864,60.6545 558.25,83.95 633.5,111 C639.27,113.08 645.36,115.35 651.29,117.62" fill="none" id="exception-backto-logic_error" style="stroke:#181818;stroke-width:1;"/><polygon fill="none" points="421.58,40.34,436.9415,51.4766,440.5512,40.0323,421.58,40.34" style="stroke:#181818;stroke-width:1;"/></g><!--reverse link runtime_error to overflow_error--><g class="link" data-entity-1="ent0003" data-entity-2="ent0015" data-link-type="extension" data-source-line="8" id="lnk16"><path codeLine="8" d="M97.7387,170.1753 C86.2387,187.6853 79.86,197.39 68.36,214.89" fill="none" id="runtime_error-backto-overflow_error" style="stroke:#181818;stroke-width:1;"/><polygon fill="none" points="107.62,155.13,92.7236,166.8815,102.7538,173.469,107.62,155.13" style="stroke:#181818;stroke-width:1;"/></g><!--reverse link runtime_error to underflow_error--><g class="link" data-entity-1="ent0003" data-entity-2="ent0017" data-link-type="extension" data-source-line="9" id="lnk18"><path codeLine="9" d="M145.5726,170.1082 C157.2426,187.6182 163.76,197.39 175.43,214.89" fill="none" id="runtime_error-backto-underflow_error" style="stroke:#181818;stroke-width:1;"/><polygon fill="none" points="135.59,155.13,140.5799,173.4358,150.5654,166.7807,135.59,155.13" style="stroke:#181818;stroke-width:1;"/></g><!--reverse link logic_error to invalid_argument--><g class="link" data-entity-1="ent0013" data-entity-2="ent0019" data-link-type="extension" data-source-line="10" id="lnk20"><path codeLine="10" d="M645.9092,166.1391 C623.2592,183.6491 605.46,197.39 582.82,214.89" fill="none" id="logic_error-backto-invalid_argument" style="stroke:#181818;stroke-width:1;"/><polygon fill="none" points="660.15,155.13,642.2395,161.3922,649.5789,170.886,660.15,155.13" style="stroke:#181818;stroke-width:1;"/></g><!--reverse link logic_error to length_error--><g class="link" data-entity-1="ent0013" data-entity-2="ent0021" data-link-type="extension" data-source-line="11" id="lnk22"><path codeLine="11" d="M687.5,173.13 C687.5,190.64 687.5,197.39 687.5,214.89" fill="none" id="logic_error-backto-length_error" style="stroke:#181818;stroke-width:1;"/><polygon fill="none" points="687.5,155.13,681.5,173.13,693.5,173.13,687.5,155.13" style="stroke:#181818;stroke-width:1;"/></g><!--reverse link logic_error to out_of_range--><g class="link" data-entity-1="ent0013" data-entity-2="ent0023" data-link-type="extension" data-source-line="12" id="lnk24"><path codeLine="12" d="M726.0749,166.7877 C746.6749,184.2977 762.08,197.39 782.67,214.89" fill="none" id="logic_error-backto-out_of_range" style="stroke:#181818;stroke-width:1;"/><polygon fill="none" points="712.36,155.13,722.189,171.3593,729.9608,162.216,712.36,155.13" style="stroke:#181818;stroke-width:1;"/></g><?plantuml-src TOzB3i8m34Jtd28Nw0suInGSDxNasfLn2aWS7gGYr4-wdVV66W-KCG0PC5xm2JWvgOJhk-k2LN4QCQAPsXxUKew9MQ458DszbVjhmaYvXVxH7h8MWj-6pQ85wupMipxEZIfvewmEBWB9d9Y-xrYf8ueV3KOfFfprjNhKFbgIWXy0?></g></svg>