<?plantuml 1.2026.1?><svg xmlns="http://www.w3.org/2000/svg" xmlns:xlink="http://www.w3.org/1999/xlink" contentStyleType="text/css" data-diagram-type="CLASS" height="80.5px" preserveAspectRatio="none" style="width:86px;height:80px;background:#FFFFFF;" version="1.1" viewBox="0 0 86 80" width="86.5px" zoomAndPan="magnify"><defs/><g><!--class Base--><g class="entity" data-qualified-name="Base" data-source-line="3" id="ent0002"><rect fill="#F1F1F1" height="21.8047" rx="1.25" ry="1.25" style="stroke:#181818;stroke-width:0.25;" width="18.9551" x="33.5" y="3.5"/><text fill="#000000" font-family="sans-serif" font-size="7" lengthAdjust="spacing" textLength="15.9551" x="35" y="13.2666">Base</text><line style="stroke:#181818;stroke-width:0.25;" x1="34" x2="51.9551" y1="17.3047" y2="17.3047"/><line style="stroke:#181818;stroke-width:0.25;" x1="34" x2="51.9551" y1="21.3047" y2="21.3047"/></g><!--class Derived1--><g class="entity" data-qualified-name="Derived1" data-source-line="3" id="ent0003"><rect fill="#F1F1F1" height="21.8047" rx="1.25" ry="1.25" style="stroke:#181818;stroke-width:0.25;" width="31.0137" x="3.5" y="55.5"/><text fill="#000000" font-family="sans-serif" font-size="7" lengthAdjust="spacing" textLength="28.0137" x="5" y="65.2666">Derived1</text><line style="stroke:#181818;stroke-width:0.25;" x1="4" x2="34.0137" y1="69.3047" y2="69.3047"/><line style="stroke:#181818;stroke-width:0.25;" x1="4" x2="34.0137" y1="73.3047" y2="73.3047"/></g><!--class Derived2--><g class="entity" data-qualified-name="Derived2" data-source-line="4" id="ent0005"><rect fill="#F1F1F1" height="21.8047" rx="1.25" ry="1.25" style="stroke:#181818;stroke-width:0.25;" width="31.0137" x="52" y="55.5"/><text fill="#000000" font-family="sans-serif" font-size="7" lengthAdjust="spacing" textLength="28.0137" x="53.5" y="65.2666">Derived2</text><line style="stroke:#181818;stroke-width:0.25;" x1="52.5" x2="82.5137" y1="69.3047" y2="69.3047"/><line style="stroke:#181818;stroke-width:0.25;" x1="52.5" x2="82.5137" y1="73.3047" y2="73.3047"/></g><!--reverse link Base to Derived1--><g class="link" data-entity-1="ent0002" data-entity-2="ent0003" data-link-type="extension" data-source-line="3" id="lnk4"><path codeLine="3" d="M34.1966,33.7102 C30.0816,42.4652 28.085,46.695 23.965,55.445" fill="none" id="Base-backto-Derived1" style="stroke:#181818;stroke-width:0.5;"/><polygon fill="none" points="38.025,25.565,31.4816,32.434,36.9117,34.9863,38.025,25.565" style="stroke:#181818;stroke-width:0.5;"/></g><!--reverse link Base to Derived2--><g class="link" data-entity-1="ent0002" data-entity-2="ent0005" data-link-type="extension" data-source-line="4" id="lnk6"><path codeLine="4" d="M51.9715,33.6778 C56.1765,42.4328 58.225,46.695 62.43,55.445" fill="none" id="Base-backto-Derived2" style="stroke:#181818;stroke-width:0.5;"/><polygon fill="none" points="48.075,25.565,49.2673,34.9766,54.6758,32.3789,48.075,25.565" style="stroke:#181818;stroke-width:0.5;"/></g><?plantuml-src AqvEp4bLCD0pvSh8J4bLICuiIiv9vN9AB4vLiAdHrLLmIItAB4jDCSGKCW80?></g></svg>