<?plantuml 1.2026.1?><svg xmlns="http://www.w3.org/2000/svg" xmlns:xlink="http://www.w3.org/1999/xlink" contentStyleType="text/css" data-diagram-type="CLASS" height="106px" preserveAspectRatio="none" style="width:26px;height:106px;background:#FFFFFF;" version="1.1" viewBox="0 0 26 106" width="26px" zoomAndPan="magnify"><defs/><g><!--class ClassA--><g class="entity" data-qualified-name="ClassA" data-source-line="3" id="ent0002"><rect fill="#F1F1F1" height="17.4438" rx="1" ry="1" style="stroke:#181818;stroke-width:0.2;" width="20.1379" x="3" y="2.8"/><text fill="#000000" font-family="sans-serif" font-size="5.6" lengthAdjust="spacing" textLength="17.7379" x="4.2" y="10.6133">ClassA</text><line style="stroke:#181818;stroke-width:0.2;" x1="3.4" x2="22.7379" y1="13.8438" y2="13.8438"/><line style="stroke:#181818;stroke-width:0.2;" x1="3.4" x2="22.7379" y1="17.0438" y2="17.0438"/></g><!--class ClassB--><g class="entity" data-qualified-name="ClassB" data-source-line="3" id="ent0003"><rect fill="#F1F1F1" height="17.4438" rx="1" ry="1" style="stroke:#181818;stroke-width:0.2;" width="20.1379" x="3" y="44.4"/><text fill="#000000" font-family="sans-serif" font-size="5.6" lengthAdjust="spacing" textLength="17.7379" x="4.2" y="52.2133">ClassB</text><line style="stroke:#181818;stroke-width:0.2;" x1="3.4" x2="22.7379" y1="55.4438" y2="55.4438"/><line style="stroke:#181818;stroke-width:0.2;" x1="3.4" x2="22.7379" y1="58.6438" y2="58.6438"/></g><!--class ClassC--><g class="entity" data-qualified-name="ClassC" data-source-line="4" id="ent0005"><rect fill="#F1F1F1" height="17.4438" rx="1" ry="1" style="stroke:#181818;stroke-width:0.2;" width="20.4469" x="2.8" y="86"/><text fill="#000000" font-family="sans-serif" font-size="5.6" lengthAdjust="spacing" textLength="18.0469" x="4" y="93.8133">ClassC</text><line style="stroke:#181818;stroke-width:0.2;" x1="3.2" x2="22.8469" y1="97.0438" y2="97.0438"/><line style="stroke:#181818;stroke-width:0.2;" x1="3.2" x2="22.8469" y1="100.2438" y2="100.2438"/></g><!--reverse link ClassA to ClassB--><g class="link" data-entity-1="ent0002" data-entity-2="ent0003" data-link-type="extension" data-source-line="3" id="lnk4"><path codeLine="3" d="M13,27.652 C13,34.656 13,37.356 13,44.356" fill="none" id="ClassA-backto-ClassB" style="stroke:#181818;stroke-width:0.4;"/><polygon fill="none" points="13,20.452,10.6,27.652,15.4,27.652,13,20.452" style="stroke:#181818;stroke-width:0.4;"/></g><!--reverse link ClassB to ClassC--><g class="link" data-entity-1="ent0003" data-entity-2="ent0005" data-link-type="extension" data-source-line="4" id="lnk6"><path codeLine="4" d="M13,69.252 C13,76.256 13,78.956 13,85.956" fill="none" id="ClassB-backto-ClassC" style="stroke:#181818;stroke-width:0.4;"/><polygon fill="none" points="13,62.052,10.6,69.252,15.4,69.252,13,62.052" style="stroke:#181818;stroke-width:0.4;"/></g><?plantuml-src AqvEp4bLCD0puSh8J4bLICuiIiv9vNBEIImkTbImgT7LLG2pdI12JaX2pW00?></g></svg>