<?plantuml 1.2026.1?><svg xmlns="http://www.w3.org/2000/svg" xmlns:xlink="http://www.w3.org/1999/xlink" contentStyleType="text/css" data-diagram-type="CLASS" height="473px" preserveAspectRatio="none" style="width:944px;height:473px;background:#FFFFFF;" version="1.1" viewBox="0 0 944 473" width="944px" zoomAndPan="magnify"><defs/><g><!--class Unit--><g class="entity" data-qualified-name="Unit" data-source-line="2" id="ent0002"><rect fill="#F1F1F1" height="43.6094" rx="2.5" ry="2.5" style="stroke:#181818;stroke-width:0.5;" width="30.8965" x="562.5" y="7"/><text fill="#000000" font-family="sans-serif" font-size="14" lengthAdjust="spacing" textLength="24.8965" x="565.5" y="26.5332">Unit</text><line style="stroke:#181818;stroke-width:0.5;" x1="563.5" x2="592.3965" y1="34.6094" y2="34.6094"/><line style="stroke:#181818;stroke-width:0.5;" x1="563.5" x2="592.3965" y1="42.6094" y2="42.6094"/></g><!--class GroundUnit--><g class="entity" data-qualified-name="GroundUnit" data-source-line="2" id="ent0003"><rect fill="#F1F1F1" height="43.6094" rx="2.5" ry="2.5" style="stroke:#181818;stroke-width:0.5;" width="77.5928" x="483" y="111"/><text fill="#000000" font-family="sans-serif" font-size="14" lengthAdjust="spacing" textLength="71.5928" x="486" y="130.5332">GroundUnit</text><line style="stroke:#181818;stroke-width:0.5;" x1="484" x2="559.5928" y1="138.6094" y2="138.6094"/><line style="stroke:#181818;stroke-width:0.5;" x1="484" x2="559.5928" y1="146.6094" y2="146.6094"/></g><!--class AirUnit--><g class="entity" data-qualified-name="AirUnit" data-source-line="3" id="ent0005"><rect fill="#F1F1F1" height="43.6094" rx="2.5" ry="2.5" style="stroke:#181818;stroke-width:0.5;" width="48.0068" x="611" y="111"/><text fill="#000000" font-family="sans-serif" font-size="14" lengthAdjust="spacing" textLength="42.0068" x="614" y="130.5332">AirUnit</text><line style="stroke:#181818;stroke-width:0.5;" x1="612" x2="658.0068" y1="138.6094" y2="138.6094"/><line style="stroke:#181818;stroke-width:0.5;" x1="612" x2="658.0068" y1="146.6094" y2="146.6094"/></g><!--class MachineUnit--><g class="entity" data-qualified-name="MachineUnit" data-source-line="4" id="ent0007"><rect fill="#F1F1F1" height="43.6094" rx="2.5" ry="2.5" style="stroke:#181818;stroke-width:0.5;" width="83.8135" x="201" y="215"/><text fill="#000000" font-family="sans-serif" font-size="14" lengthAdjust="spacing" textLength="77.8135" x="204" y="234.5332">MachineUnit</text><line style="stroke:#181818;stroke-width:0.5;" x1="202" x2="283.8135" y1="242.6094" y2="242.6094"/><line style="stroke:#181818;stroke-width:0.5;" x1="202" x2="283.8135" y1="250.6094" y2="250.6094"/></g><!--class OrganicUnit--><g class="entity" data-qualified-name="OrganicUnit" data-source-line="5" id="ent0009"><rect fill="#F1F1F1" height="43.6094" rx="2.5" ry="2.5" style="stroke:#181818;stroke-width:0.5;" width="79.917" x="482" y="215"/><text fill="#000000" font-family="sans-serif" font-size="14" lengthAdjust="spacing" textLength="73.917" x="485" y="234.5332">OrganicUnit</text><line style="stroke:#181818;stroke-width:0.5;" x1="483" x2="560.917" y1="242.6094" y2="242.6094"/><line style="stroke:#181818;stroke-width:0.5;" x1="483" x2="560.917" y1="250.6094" y2="250.6094"/></g><!--class MeleeUnit--><g class="entity" data-qualified-name="MeleeUnit" data-source-line="6" id="ent0011"><rect fill="#F1F1F1" height="43.6094" rx="2.5" ry="2.5" style="stroke:#181818;stroke-width:0.5;" width="69.0273" x="377.5" y="319"/><text fill="#000000" font-family="sans-serif" font-size="14" lengthAdjust="spacing" textLength="63.0273" x="380.5" y="338.5332">MeleeUnit</text><line style="stroke:#181818;stroke-width:0.5;" x1="378.5" x2="445.5273" y1="346.6094" y2="346.6094"/><line style="stroke:#181818;stroke-width:0.5;" x1="378.5" x2="445.5273" y1="354.6094" y2="354.6094"/></g><!--class LongRangedUnit--><g class="entity" data-qualified-name="LongRangedUnit" data-source-line="7" id="ent0013"><rect fill="#F1F1F1" height="43.6094" rx="2.5" ry="2.5" style="stroke:#181818;stroke-width:0.5;" width="111.082" x="557.5" y="319"/><text fill="#000000" font-family="sans-serif" font-size="14" lengthAdjust="spacing" textLength="105.082" x="560.5" y="338.5332">LongRangedUnit</text><line style="stroke:#181818;stroke-width:0.5;" x1="558.5" x2="667.582" y1="346.6094" y2="346.6094"/><line style="stroke:#181818;stroke-width:0.5;" x1="558.5" x2="667.582" y1="354.6094" y2="354.6094"/></g><!--class SupportUnit--><g class="entity" data-qualified-name="SupportUnit" data-source-line="8" id="ent0015"><rect fill="#F1F1F1" height="43.6094" rx="2.5" ry="2.5" style="stroke:#181818;stroke-width:0.5;" width="79.9307" x="796" y="319"/><text fill="#000000" font-family="sans-serif" font-size="14" lengthAdjust="spacing" textLength="73.9307" x="799" y="338.5332">SupportUnit</text><line style="stroke:#181818;stroke-width:0.5;" x1="797" x2="874.9307" y1="346.6094" y2="346.6094"/><line style="stroke:#181818;stroke-width:0.5;" x1="797" x2="874.9307" y1="354.6094" y2="354.6094"/></g><!--class Gyrocopter--><g class="entity" data-qualified-name="Gyrocopter" data-source-line="9" id="ent0017"><rect fill="#F1F1F1" height="43.6094" rx="2.5" ry="2.5" style="stroke:#181818;stroke-width:0.5;" width="75.248" x="597.5" y="215"/><text fill="#000000" font-family="sans-serif" font-size="14" lengthAdjust="spacing" textLength="69.248" x="600.5" y="234.5332">Gyrocopter</text><line style="stroke:#181818;stroke-width:0.5;" x1="598.5" x2="671.748" y1="242.6094" y2="242.6094"/><line style="stroke:#181818;stroke-width:0.5;" x1="598.5" x2="671.748" y1="250.6094" y2="250.6094"/></g><!--class Balloon--><g class="entity" data-qualified-name="Balloon" data-source-line="10" id="ent0019"><rect fill="#F1F1F1" height="43.6094" rx="2.5" ry="2.5" style="stroke:#181818;stroke-width:0.5;" width="52.7031" x="707.5" y="215"/><text fill="#000000" font-family="sans-serif" font-size="14" lengthAdjust="spacing" textLength="46.7031" x="710.5" y="234.5332">Balloon</text><line style="stroke:#181818;stroke-width:0.5;" x1="708.5" x2="759.2031" y1="242.6094" y2="242.6094"/><line style="stroke:#181818;stroke-width:0.5;" x1="708.5" x2="759.2031" y1="250.6094" y2="250.6094"/></g><!--class SteamGiant--><g class="entity" data-qualified-name="SteamGiant" data-source-line="11" id="ent0021"><rect fill="#F1F1F1" height="43.6094" rx="2.5" ry="2.5" style="stroke:#181818;stroke-width:0.5;" width="79.9238" x="7" y="319"/><text fill="#000000" font-family="sans-serif" font-size="14" lengthAdjust="spacing" textLength="73.9238" x="10" y="338.5332">SteamGiant</text><line style="stroke:#181818;stroke-width:0.5;" x1="8" x2="85.9238" y1="346.6094" y2="346.6094"/><line style="stroke:#181818;stroke-width:0.5;" x1="8" x2="85.9238" y1="354.6094" y2="354.6094"/></g><!--class Catapult--><g class="entity" data-qualified-name="Catapult" data-source-line="12" id="ent0023"><rect fill="#F1F1F1" height="43.6094" rx="2.5" ry="2.5" style="stroke:#181818;stroke-width:0.5;" width="58.1445" x="122" y="319"/><text fill="#000000" font-family="sans-serif" font-size="14" lengthAdjust="spacing" textLength="52.1445" x="125" y="338.5332">Catapult</text><line style="stroke:#181818;stroke-width:0.5;" x1="123" x2="179.1445" y1="346.6094" y2="346.6094"/><line style="stroke:#181818;stroke-width:0.5;" x1="123" x2="179.1445" y1="354.6094" y2="354.6094"/></g><!--class Cannon--><g class="entity" data-qualified-name="Cannon" data-source-line="13" id="ent0025"><rect fill="#F1F1F1" height="43.6094" rx="2.5" ry="2.5" style="stroke:#181818;stroke-width:0.5;" width="55.041" x="215.5" y="319"/><text fill="#000000" font-family="sans-serif" font-size="14" lengthAdjust="spacing" textLength="49.041" x="218.5" y="338.5332">Cannon</text><line style="stroke:#181818;stroke-width:0.5;" x1="216.5" x2="269.541" y1="346.6094" y2="346.6094"/><line style="stroke:#181818;stroke-width:0.5;" x1="216.5" x2="269.541" y1="354.6094" y2="354.6094"/></g><!--class Ram--><g class="entity" data-qualified-name="Ram" data-source-line="14" id="ent0027"><rect fill="#F1F1F1" height="43.6094" rx="2.5" ry="2.5" style="stroke:#181818;stroke-width:0.5;" width="35.5586" x="306" y="319"/><text fill="#000000" font-family="sans-serif" font-size="14" lengthAdjust="spacing" textLength="29.5586" x="309" y="338.5332">Ram</text><line style="stroke:#181818;stroke-width:0.5;" x1="307" x2="340.5586" y1="346.6094" y2="346.6094"/><line style="stroke:#181818;stroke-width:0.5;" x1="307" x2="340.5586" y1="354.6094" y2="354.6094"/></g><!--class Spearman--><g class="entity" data-qualified-name="Spearman" data-source-line="15" id="ent0029"><rect fill="#F1F1F1" height="43.6094" rx="2.5" ry="2.5" style="stroke:#181818;stroke-width:0.5;" width="70.5928" x="60.5" y="423"/><text fill="#000000" font-family="sans-serif" font-size="14" lengthAdjust="spacing" textLength="64.5928" x="63.5" y="442.5332">Spearman</text><line style="stroke:#181818;stroke-width:0.5;" x1="61.5" x2="130.0928" y1="450.6094" y2="450.6094"/><line style="stroke:#181818;stroke-width:0.5;" x1="61.5" x2="130.0928" y1="458.6094" y2="458.6094"/></g><!--class Swordman--><g class="entity" data-qualified-name="Swordman" data-source-line="16" id="ent0031"><rect fill="#F1F1F1" height="43.6094" rx="2.5" ry="2.5" style="stroke:#181818;stroke-width:0.5;" width="72.917" x="166.5" y="423"/><text fill="#000000" font-family="sans-serif" font-size="14" lengthAdjust="spacing" textLength="66.917" x="169.5" y="442.5332">Swordman</text><line style="stroke:#181818;stroke-width:0.5;" x1="167.5" x2="238.417" y1="450.6094" y2="450.6094"/><line style="stroke:#181818;stroke-width:0.5;" x1="167.5" x2="238.417" y1="458.6094" y2="458.6094"/></g><!--class BarbarianAxeSwinger--><g class="entity" data-qualified-name="BarbarianAxeSwinger" data-source-line="17" id="ent0033"><rect fill="#F1F1F1" height="43.6094" rx="2.5" ry="2.5" style="stroke:#181818;stroke-width:0.5;" width="141.4063" x="274.5" y="423"/><text fill="#000000" font-family="sans-serif" font-size="14" lengthAdjust="spacing" textLength="135.4063" x="277.5" y="442.5332">BarbarianAxeSwinger</text><line style="stroke:#181818;stroke-width:0.5;" x1="275.5" x2="414.9063" y1="450.6094" y2="450.6094"/><line style="stroke:#181818;stroke-width:0.5;" x1="275.5" x2="414.9063" y1="458.6094" y2="458.6094"/></g><!--class Phalanx--><g class="entity" data-qualified-name="Phalanx" data-source-line="18" id="ent0035"><rect fill="#F1F1F1" height="43.6094" rx="2.5" ry="2.5" style="stroke:#181818;stroke-width:0.5;" width="56.5928" x="450.5" y="423"/><text fill="#000000" font-family="sans-serif" font-size="14" lengthAdjust="spacing" textLength="50.5928" x="453.5" y="442.5332">Phalanx</text><line style="stroke:#181818;stroke-width:0.5;" x1="451.5" x2="506.0928" y1="450.6094" y2="450.6094"/><line style="stroke:#181818;stroke-width:0.5;" x1="451.5" x2="506.0928" y1="458.6094" y2="458.6094"/></g><!--class Archer--><g class="entity" data-qualified-name="Archer" data-source-line="19" id="ent0037"><rect fill="#F1F1F1" height="43.6094" rx="2.5" ry="2.5" style="stroke:#181818;stroke-width:0.5;" width="47.2344" x="542.5" y="423"/><text fill="#000000" font-family="sans-serif" font-size="14" lengthAdjust="spacing" textLength="41.2344" x="545.5" y="442.5332">Archer</text><line style="stroke:#181818;stroke-width:0.5;" x1="543.5" x2="588.7344" y1="450.6094" y2="450.6094"/><line style="stroke:#181818;stroke-width:0.5;" x1="543.5" x2="588.7344" y1="458.6094" y2="458.6094"/></g><!--class Musketeer--><g class="entity" data-qualified-name="Musketeer" data-source-line="20" id="ent0039"><rect fill="#F1F1F1" height="43.6094" rx="2.5" ry="2.5" style="stroke:#181818;stroke-width:0.5;" width="71.3584" x="624.5" y="423"/><text fill="#000000" font-family="sans-serif" font-size="14" lengthAdjust="spacing" textLength="65.3584" x="627.5" y="442.5332">Musketeer</text><line style="stroke:#181818;stroke-width:0.5;" x1="625.5" x2="694.8584" y1="450.6094" y2="450.6094"/><line style="stroke:#181818;stroke-width:0.5;" x1="625.5" x2="694.8584" y1="458.6094" y2="458.6094"/></g><!--class Slinger--><g class="entity" data-qualified-name="Slinger" data-source-line="21" id="ent0041"><rect fill="#F1F1F1" height="43.6094" rx="2.5" ry="2.5" style="stroke:#181818;stroke-width:0.5;" width="49.5791" x="731" y="423"/><text fill="#000000" font-family="sans-serif" font-size="14" lengthAdjust="spacing" textLength="43.5791" x="734" y="442.5332">Slinger</text><line style="stroke:#181818;stroke-width:0.5;" x1="732" x2="779.5791" y1="450.6094" y2="450.6094"/><line style="stroke:#181818;stroke-width:0.5;" x1="732" x2="779.5791" y1="458.6094" y2="458.6094"/></g><!--class Cook--><g class="entity" data-qualified-name="Cook" data-source-line="22" id="ent0043"><rect fill="#F1F1F1" height="43.6094" rx="2.5" ry="2.5" style="stroke:#181818;stroke-width:0.5;" width="38.6826" x="816.5" y="423"/><text fill="#000000" font-family="sans-serif" font-size="14" lengthAdjust="spacing" textLength="32.6826" x="819.5" y="442.5332">Cook</text><line style="stroke:#181818;stroke-width:0.5;" x1="817.5" x2="854.1826" y1="450.6094" y2="450.6094"/><line style="stroke:#181818;stroke-width:0.5;" x1="817.5" x2="854.1826" y1="458.6094" y2="458.6094"/></g><!--class Doctor--><g class="entity" data-qualified-name="Doctor" data-source-line="23" id="ent0045"><rect fill="#F1F1F1" height="43.6094" rx="2.5" ry="2.5" style="stroke:#181818;stroke-width:0.5;" width="47.2344" x="890.5" y="423"/><text fill="#000000" font-family="sans-serif" font-size="14" lengthAdjust="spacing" textLength="41.2344" x="893.5" y="442.5332">Doctor</text><line style="stroke:#181818;stroke-width:0.5;" x1="891.5" x2="936.7344" y1="450.6094" y2="450.6094"/><line style="stroke:#181818;stroke-width:0.5;" x1="891.5" x2="936.7344" y1="458.6094" y2="458.6094"/></g><!--reverse link Unit to GroundUnit--><g class="link" data-entity-1="ent0002" data-entity-2="ent0003" data-link-type="extension" data-source-line="2" id="lnk4"><path codeLine="2" d="M557.7396,66.9097 C548.1296,84.4197 543.2,93.39 533.59,110.89" fill="none" id="Unit-backto-GroundUnit" style="stroke:#181818;stroke-width:1;"/><polygon fill="none" points="566.4,51.13,552.4798,64.0229,562.9995,69.7965,566.4,51.13" style="stroke:#181818;stroke-width:1;"/></g><!--reverse link Unit to AirUnit--><g class="link" data-entity-1="ent0002" data-entity-2="ent0005" data-link-type="extension" data-source-line="3" id="lnk6"><path codeLine="3" d="M598.5874,66.8449 C608.3674,84.3549 613.43,93.39 623.2,110.89" fill="none" id="Unit-backto-AirUnit" style="stroke:#181818;stroke-width:1;"/><polygon fill="none" points="589.81,51.13,593.3491,69.7707,603.8257,63.9191,589.81,51.13" style="stroke:#181818;stroke-width:1;"/></g><!--reverse link GroundUnit to MachineUnit--><g class="link" data-entity-1="ent0003" data-entity-2="ent0007" data-link-type="extension" data-source-line="4" id="lnk8"><path codeLine="4" d="M466.0043,154.4705 C413.8143,173.5505 338.64,201.03 285.01,220.64" fill="none" id="GroundUnit-backto-MachineUnit" style="stroke:#181818;stroke-width:1;"/><polygon fill="none" points="482.91,148.29,463.9442,148.8353,468.0645,160.1057,482.91,148.29" style="stroke:#181818;stroke-width:1;"/></g><!--reverse link GroundUnit to OrganicUnit--><g class="link" data-entity-1="ent0003" data-entity-2="ent0009" data-link-type="extension" data-source-line="5" id="lnk10"><path codeLine="5" d="M522,173.13 C522,190.64 522,197.39 522,214.89" fill="none" id="GroundUnit-backto-OrganicUnit" style="stroke:#181818;stroke-width:1;"/><polygon fill="none" points="522,155.13,516,173.13,528,173.13,522,155.13" style="stroke:#181818;stroke-width:1;"/></g><!--reverse link OrganicUnit to MeleeUnit--><g class="link" data-entity-1="ent0009" data-entity-2="ent0011" data-link-type="extension" data-source-line="6" id="lnk12"><path codeLine="6" d="M486.0123,271.3701 C467.1323,288.8801 453.63,301.39 434.76,318.89" fill="none" id="OrganicUnit-backto-MeleeUnit" style="stroke:#181818;stroke-width:1;"/><polygon fill="none" points="499.21,259.13,481.9322,266.9708,490.0923,275.7693,499.21,259.13" style="stroke:#181818;stroke-width:1;"/></g><!--reverse link OrganicUnit to LongRangedUnit--><g class="link" data-entity-1="ent0009" data-entity-2="ent0013" data-link-type="extension" data-source-line="7" id="lnk14"><path codeLine="7" d="M552.8381,272.566 C568.4481,290.076 578.56,301.39 594.17,318.89" fill="none" id="OrganicUnit-backto-LongRangedUnit" style="stroke:#181818;stroke-width:1;"/><polygon fill="none" points="540.86,259.13,548.3594,276.5587,557.3167,268.5733,540.86,259.13" style="stroke:#181818;stroke-width:1;"/></g><!--reverse link OrganicUnit to SupportUnit--><g class="link" data-entity-1="ent0009" data-entity-2="ent0015" data-link-type="extension" data-source-line="8" id="lnk16"><path codeLine="8" d="M579.1323,258.8134 C585.1023,260.9334 574.22,257.04 580,259 C655.93,284.75 745.39,312.46 795.93,327.88" fill="none" id="OrganicUnit-backto-SupportUnit" style="stroke:#181818;stroke-width:1;"/><polygon fill="none" points="562.17,252.79,577.1244,264.4675,581.1401,253.1594,562.17,252.79" style="stroke:#181818;stroke-width:1;"/></g><!--reverse link AirUnit to Gyrocopter--><g class="link" data-entity-1="ent0005" data-entity-2="ent0017" data-link-type="extension" data-source-line="9" id="lnk18"><path codeLine="9" d="M635,173.13 C635,190.64 635,197.39 635,214.89" fill="none" id="AirUnit-backto-Gyrocopter" style="stroke:#181818;stroke-width:1;"/><polygon fill="none" points="635,155.13,629,173.13,641,173.13,635,155.13" style="stroke:#181818;stroke-width:1;"/></g><!--reverse link AirUnit to Balloon--><g class="link" data-entity-1="ent0005" data-entity-2="ent0019" data-link-type="extension" data-source-line="10" id="lnk20"><path codeLine="10" d="M668.0447,168.0483 C685.0347,185.5583 696.53,197.39 713.51,214.89" fill="none" id="AirUnit-backto-Balloon" style="stroke:#181818;stroke-width:1;"/><polygon fill="none" points="655.51,155.13,663.7386,172.2265,672.3508,163.8701,655.51,155.13" style="stroke:#181818;stroke-width:1;"/></g><!--reverse link MachineUnit to SteamGiant--><g class="link" data-entity-1="ent0007" data-entity-2="ent0021" data-link-type="extension" data-source-line="11" id="lnk22"><path codeLine="11" d="M186.424,267.4418 C152.674,285.0118 120.87,301.56 87.22,319.07" fill="none" id="MachineUnit-backto-SteamGiant" style="stroke:#181818;stroke-width:1;"/><polygon fill="none" points="202.39,259.13,183.6534,262.1198,189.1946,272.7638,202.39,259.13" style="stroke:#181818;stroke-width:1;"/></g><!--reverse link MachineUnit to Catapult--><g class="link" data-entity-1="ent0007" data-entity-2="ent0023" data-link-type="extension" data-source-line="12" id="lnk24"><path codeLine="12" d="M211.8856,272.4975 C196.0956,290.0075 185.82,301.39 170.04,318.89" fill="none" id="MachineUnit-backto-Catapult" style="stroke:#181818;stroke-width:1;"/><polygon fill="none" points="223.94,259.13,207.4297,268.4794,216.3414,276.5157,223.94,259.13" style="stroke:#181818;stroke-width:1;"/></g><!--reverse link MachineUnit to Cannon--><g class="link" data-entity-1="ent0007" data-entity-2="ent0025" data-link-type="extension" data-source-line="13" id="lnk26"><path codeLine="13" d="M243,277.13 C243,294.64 243,301.39 243,318.89" fill="none" id="MachineUnit-backto-Cannon" style="stroke:#181818;stroke-width:1;"/><polygon fill="none" points="243,259.13,237,277.13,249,277.13,243,259.13" style="stroke:#181818;stroke-width:1;"/></g><!--reverse link MachineUnit to Ram--><g class="link" data-entity-1="ent0007" data-entity-2="ent0027" data-link-type="extension" data-source-line="14" id="lnk28"><path codeLine="14" d="M270.9714,273.228 C284.8714,290.738 293.34,301.39 307.24,318.89" fill="none" id="MachineUnit-backto-Ram" style="stroke:#181818;stroke-width:1;"/><polygon fill="none" points="259.78,259.13,266.2721,276.9584,275.6707,269.4975,259.78,259.13" style="stroke:#181818;stroke-width:1;"/></g><!--reverse link MeleeUnit to Spearman--><g class="link" data-entity-1="ent0011" data-entity-2="ent0029" data-link-type="extension" data-source-line="15" id="lnk30"><path codeLine="15" d="M360.6069,362.7601 C354.5169,365.1101 365,360.96 359,363 C267.1,394.25 240.9,391.75 149,423 C143.38,424.91 137.48,427.08 131.74,429.28" fill="none" id="MeleeUnit-backto-Spearman" style="stroke:#181818;stroke-width:1;"/><polygon fill="none" points="377.4,356.28,358.4469,357.1624,362.7669,368.3578,377.4,356.28" style="stroke:#181818;stroke-width:1;"/></g><!--reverse link MeleeUnit to Swordman--><g class="link" data-entity-1="ent0011" data-entity-2="ent0031" data-link-type="extension" data-source-line="16" id="lnk32"><path codeLine="16" d="M361.3136,366.7346 C323.2836,385.2946 278.54,407.13 239.67,426.1" fill="none" id="MeleeUnit-backto-Swordman" style="stroke:#181818;stroke-width:1;"/><polygon fill="none" points="377.49,358.84,358.6821,361.3425,363.9452,372.1268,377.49,358.84" style="stroke:#181818;stroke-width:1;"/></g><!--reverse link MeleeUnit to BarbarianAxeSwinger--><g class="link" data-entity-1="ent0011" data-entity-2="ent0033" data-link-type="extension" data-source-line="17" id="lnk34"><path codeLine="17" d="M388.2387,378.1753 C376.7387,395.6853 370.36,405.39 358.86,422.89" fill="none" id="MeleeUnit-backto-BarbarianAxeSwinger" style="stroke:#181818;stroke-width:1;"/><polygon fill="none" points="398.12,363.13,383.2236,374.8815,393.2538,381.469,398.12,363.13" style="stroke:#181818;stroke-width:1;"/></g><!--reverse link MeleeUnit to Phalanx--><g class="link" data-entity-1="ent0011" data-entity-2="ent0035" data-link-type="extension" data-source-line="18" id="lnk36"><path codeLine="18" d="M435.7613,378.1753 C447.2613,395.6853 453.64,405.39 465.14,422.89" fill="none" id="MeleeUnit-backto-Phalanx" style="stroke:#181818;stroke-width:1;"/><polygon fill="none" points="425.88,363.13,430.7462,381.469,440.7764,374.8815,425.88,363.13" style="stroke:#181818;stroke-width:1;"/></g><!--reverse link LongRangedUnit to Archer--><g class="link" data-entity-1="ent0013" data-entity-2="ent0037" data-link-type="extension" data-source-line="19" id="lnk38"><path codeLine="19" d="M595.7335,379.4809 C587.6735,396.9909 583.79,405.39 575.73,422.89" fill="none" id="LongRangedUnit-backto-Archer" style="stroke:#181818;stroke-width:1;"/><polygon fill="none" points="603.26,363.13,590.2832,376.9721,601.1838,381.9897,603.26,363.13" style="stroke:#181818;stroke-width:1;"/></g><!--reverse link LongRangedUnit to Musketeer--><g class="link" data-entity-1="ent0013" data-entity-2="ent0039" data-link-type="extension" data-source-line="20" id="lnk40"><path codeLine="20" d="M630.2665,379.4809 C638.3265,396.9909 642.21,405.39 650.27,422.89" fill="none" id="LongRangedUnit-backto-Musketeer" style="stroke:#181818;stroke-width:1;"/><polygon fill="none" points="622.74,363.13,624.8162,381.9897,635.7168,376.9721,622.74,363.13" style="stroke:#181818;stroke-width:1;"/></g><!--reverse link LongRangedUnit to Slinger--><g class="link" data-entity-1="ent0013" data-entity-2="ent0041" data-link-type="extension" data-source-line="21" id="lnk42"><path codeLine="21" d="M657.2821,373.5854 C683.2921,392.1454 706.08,408.39 730.71,425.96" fill="none" id="LongRangedUnit-backto-Slinger" style="stroke:#181818;stroke-width:1;"/><polygon fill="none" points="642.63,363.13,653.797,378.4694,660.7673,368.7013,642.63,363.13" style="stroke:#181818;stroke-width:1;"/></g><!--reverse link SupportUnit to Cook--><g class="link" data-entity-1="ent0015" data-entity-2="ent0043" data-link-type="extension" data-source-line="22" id="lnk44"><path codeLine="22" d="M836,381.13 C836,398.64 836,405.39 836,422.89" fill="none" id="SupportUnit-backto-Cook" style="stroke:#181818;stroke-width:1;"/><polygon fill="none" points="836,363.13,830,381.13,842,381.13,836,363.13" style="stroke:#181818;stroke-width:1;"/></g><!--reverse link SupportUnit to Doctor--><g class="link" data-entity-1="ent0015" data-entity-2="ent0045" data-link-type="extension" data-source-line="23" id="lnk46"><path codeLine="23" d="M863.0941,377.4284 C876.4841,394.9384 884.48,405.39 897.86,422.89" fill="none" id="SupportUnit-backto-Doctor" style="stroke:#181818;stroke-width:1;"/><polygon fill="none" points="852.16,363.13,858.328,381.0731,867.8602,373.7837,852.16,363.13" style="stroke:#181818;stroke-width:1;"/></g><?plantuml-src TP5H3e8m38RVEGKNy0Q-Y2QyQ3GG3r170mkZNUe8c7Xu4HO5cM_R_wtjtt-LBZ1MMfJ1w4hQnTldPXEdmYqLx_jCt6aPbI-Sz1EeIXC6sLbA8Ar6DZlxGZI8ONHaAZEW4eimprjhMTm8lI_l_26is3gKfPw0CSmKpSpwJWwXIJMGMxCzEB2j2HAYKBSCckYpbXzW4QG1MkaTIn7G4v0Ro61ersFUwI43-NrogS00zT4o9VzBeggX8eHExRr6XtzeRgPPisZzhiprMZsmSYml?></g></svg>