<?plantuml 1.2026.1?><svg xmlns="http://www.w3.org/2000/svg" xmlns:xlink="http://www.w3.org/1999/xlink" contentStyleType="text/css" data-diagram-type="CLASS" height="201px" preserveAspectRatio="none" style="width:320px;height:201px;background:#FFFFFF;" version="1.1" viewBox="0 0 320 201" width="320.4px" zoomAndPan="magnify"><defs/><g><!--class Security--><g class="entity" data-qualified-name="Security" data-source-line="3" id="ent0002"><rect fill="#F1F1F1" height="47.2969" rx="1.5" ry="1.5" style="stroke:#181818;stroke-width:0.3;" width="62.2963" x="129" y="4.2"/><text fill="#000000" font-family="sans-serif" font-size="8.4" lengthAdjust="spacing" textLength="30.3434" x="144.9765" y="15.9199">Security</text><line style="stroke:#181818;stroke-width:0.3;" x1="129.6" x2="190.6963" y1="20.7656" y2="20.7656"/><line style="stroke:#181818;stroke-width:0.3;" x1="129.6" x2="190.6963" y1="25.5656" y2="25.5656"/><text fill="#000000" font-family="sans-serif" font-size="8.4" font-style="italic" lengthAdjust="spacing" textLength="55.0963" x="132.6" y="36.6855">presentValue()</text><text fill="#000000" font-family="sans-serif" font-size="8.4" lengthAdjust="spacing" textLength="30.3352" x="132.6" y="47.2512">history()</text></g><!--class CashAccount--><g class="entity" data-qualified-name="CashAccount" data-source-line="3" id="ent0003"><rect fill="#F1F1F1" height="47.2969" rx="1.5" ry="1.5" style="stroke:#181818;stroke-width:0.3;" width="62.2963" x="4.2" y="87.6"/><text fill="#000000" font-family="sans-serif" font-size="8.4" lengthAdjust="spacing" textLength="49.9611" x="10.3676" y="99.3199">CashAccount</text><line style="stroke:#181818;stroke-width:0.3;" x1="4.8" x2="65.8963" y1="104.1656" y2="104.1656"/><text fill="#000000" font-family="sans-serif" font-size="8.4" lengthAdjust="spacing" textLength="45.2895" x="7.8" y="115.2855">interestRate</text><line style="stroke:#181818;stroke-width:0.3;" x1="4.8" x2="65.8963" y1="119.5313" y2="119.5313"/><text fill="#000000" font-family="sans-serif" font-size="8.4" lengthAdjust="spacing" textLength="55.0963" x="7.8" y="130.6512">presentValue()</text></g><!--class Stock--><g class="entity" data-qualified-name="Stock" data-source-line="4" id="ent0005"><rect fill="#F1F1F1" height="36.7312" rx="1.5" ry="1.5" style="stroke:#181818;stroke-width:0.3;" width="62.2963" x="87.6" y="93"/><text fill="#000000" font-family="sans-serif" font-size="8.4" lengthAdjust="spacing" textLength="21.0082" x="108.244" y="104.7199">Stock</text><line style="stroke:#181818;stroke-width:0.3;" x1="88.2" x2="149.2963" y1="109.5656" y2="109.5656"/><line style="stroke:#181818;stroke-width:0.3;" x1="88.2" x2="149.2963" y1="114.3656" y2="114.3656"/><text fill="#000000" font-family="sans-serif" font-size="8.4" lengthAdjust="spacing" textLength="55.0963" x="91.2" y="125.4855">presentValue()</text></g><!--class Bond--><g class="entity" data-qualified-name="Bond" data-source-line="5" id="ent0007"><rect fill="#F1F1F1" height="36.7312" rx="1.5" ry="1.5" style="stroke:#181818;stroke-width:0.3;" width="62.2963" x="171" y="93"/><text fill="#000000" font-family="sans-serif" font-size="8.4" lengthAdjust="spacing" textLength="19.6178" x="192.3393" y="104.7199">Bond</text><line style="stroke:#181818;stroke-width:0.3;" x1="171.6" x2="232.6963" y1="109.5656" y2="109.5656"/><line style="stroke:#181818;stroke-width:0.3;" x1="171.6" x2="232.6963" y1="114.3656" y2="114.3656"/><text fill="#000000" font-family="sans-serif" font-size="8.4" lengthAdjust="spacing" textLength="55.0963" x="174.6" y="125.4855">presentValue()</text></g><!--class Property--><g class="entity" data-qualified-name="Property" data-source-line="6" id="ent0009"><rect fill="#F1F1F1" height="47.2969" rx="1.5" ry="1.5" style="stroke:#181818;stroke-width:0.3;" width="62.2963" x="254.4" y="87.6"/><text fill="#000000" font-family="sans-serif" font-size="8.4" lengthAdjust="spacing" textLength="31.7461" x="269.6751" y="99.3199">Property</text><line style="stroke:#181818;stroke-width:0.3;" x1="255" x2="316.0963" y1="104.1656" y2="104.1656"/><text fill="#000000" font-family="sans-serif" font-size="8.4" lengthAdjust="spacing" textLength="49.0178" x="258" y="115.2855">assessments</text><line style="stroke:#181818;stroke-width:0.3;" x1="255" x2="316.0963" y1="119.5313" y2="119.5313"/><text fill="#000000" font-family="sans-serif" font-size="8.4" lengthAdjust="spacing" textLength="55.0963" x="258" y="130.6512">presentValue()</text></g><!--class SmallCapStock--><g class="entity" data-qualified-name="SmallCapStock" data-source-line="7" id="ent0011"><rect fill="#F1F1F1" height="26.1656" rx="1.5" ry="1.5" style="stroke:#181818;stroke-width:0.3;" width="61.0219" x="46.8" y="171"/><text fill="#000000" font-family="sans-serif" font-size="8.4" lengthAdjust="spacing" textLength="57.4219" x="48.6" y="182.7199">SmallCapStock</text><line style="stroke:#181818;stroke-width:0.3;" x1="47.4" x2="107.2219" y1="187.5656" y2="187.5656"/><line style="stroke:#181818;stroke-width:0.3;" x1="47.4" x2="107.2219" y1="192.3656" y2="192.3656"/></g><!--class LargeCapStock--><g class="entity" data-qualified-name="LargeCapStock" data-source-line="8" id="ent0013"><rect fill="#F1F1F1" height="26.1656" rx="1.5" ry="1.5" style="stroke:#181818;stroke-width:0.3;" width="61.5018" x="129.3" y="171"/><text fill="#000000" font-family="sans-serif" font-size="8.4" lengthAdjust="spacing" textLength="57.9018" x="131.1" y="182.7199">LargeCapStock</text><line style="stroke:#181818;stroke-width:0.3;" x1="129.9" x2="190.2018" y1="187.5656" y2="187.5656"/><line style="stroke:#181818;stroke-width:0.3;" x1="129.9" x2="190.2018" y1="192.3656" y2="192.3656"/></g><!--reverse link Security to CashAccount--><g class="link" data-entity-1="ent0002" data-entity-2="ent0003" data-link-type="extension" data-source-line="3" id="lnk4"><path codeLine="3" d="M119.8491,55.0754 C100.8591,67.5854 85.734,77.544 66.744,90.054" fill="none" id="Security-backto-CashAccount" style="stroke:#181818;stroke-width:0.6;"/><polygon fill="none" points="128.868,49.134,117.8687,52.0691,121.8296,58.0816,128.868,49.134" style="stroke:#181818;stroke-width:0.6;"/></g><!--reverse link Security to Stock--><g class="link" data-entity-1="ent0002" data-entity-2="ent0005" data-link-type="extension" data-source-line="4" id="lnk6"><path codeLine="4" d="M143.6983,61.2619 C137.0923,74.3659 133.824,80.868 127.734,92.964" fill="none" id="Security-backto-Stock" style="stroke:#181818;stroke-width:0.6;"/><polygon fill="none" points="148.56,51.618,140.4837,59.6413,146.9129,62.8824,148.56,51.618" style="stroke:#181818;stroke-width:0.6;"/></g><!--reverse link Security to Bond--><g class="link" data-entity-1="ent0002" data-entity-2="ent0007" data-link-type="extension" data-source-line="5" id="lnk8"><path codeLine="5" d="M176.9283,61.2352 C183.6243,74.3392 186.96,80.868 193.14,92.964" fill="none" id="Security-backto-Bond" style="stroke:#181818;stroke-width:0.6;"/><polygon fill="none" points="172.014,51.618,173.7225,62.8733,180.134,59.5971,172.014,51.618" style="stroke:#181818;stroke-width:0.6;"/></g><!--reverse link Security to Property--><g class="link" data-entity-1="ent0002" data-entity-2="ent0009" data-link-type="extension" data-source-line="6" id="lnk10"><path codeLine="6" d="M200.5529,54.952 C219.7049,67.504 235.086,77.586 254.244,90.144" fill="none" id="Security-backto-Property" style="stroke:#181818;stroke-width:0.6;"/><polygon fill="none" points="191.52,49.032,198.5795,57.963,202.5262,51.9411,191.52,49.032" style="stroke:#181818;stroke-width:0.6;"/></g><!--reverse link Stock to SmallCapStock--><g class="link" data-entity-1="ent0005" data-entity-2="ent0011" data-link-type="extension" data-source-line="7" id="lnk12"><path codeLine="7" d="M103.1646,138.9774 C95.7906,151.7514 91.41,159.336 84.786,170.802" fill="none" id="Stock-backto-SmallCapStock" style="stroke:#181818;stroke-width:0.6;"/><polygon fill="none" points="108.564,129.624,100.0468,137.1776,106.2824,140.7772,108.564,129.624" style="stroke:#181818;stroke-width:0.6;"/></g><!--reverse link Stock to LargeCapStock--><g class="link" data-entity-1="ent0005" data-entity-2="ent0013" data-link-type="extension" data-source-line="8" id="lnk14"><path codeLine="8" d="M134.4354,138.9774 C141.8094,151.7514 146.19,159.336 152.814,170.802" fill="none" id="Stock-backto-LargeCapStock" style="stroke:#181818;stroke-width:0.6;"/><polygon fill="none" points="129.036,129.624,131.3176,140.7772,137.5532,137.1776,129.036,129.624" style="stroke:#181818;stroke-width:0.6;"/></g><?plantuml-src ZP0z3u8m48PtVyMDEc2Sd5oKrS58uduU5o4MIdh7G93_Rf4QCC649XtwVZpf7G2041g6tNQ_WlvaUSf0kIF3Wv0mrIxN1WwlA88O9JiIsRhKEJjHIyyvusJBT4w_E5knqoPuVJsG2ZGcncfA7DqpkWV_k6HGP8It7x75kwX3qWugnyAbtj3KlDwiXb55hMl2gvjW9bC6KbugUu9UKOUzpF2cXE6lxP9elvfboU-oGjfBB5BuWlnj-_i6?></g></svg>