<?plantuml 1.2026.1?><svg xmlns="http://www.w3.org/2000/svg" xmlns:xlink="http://www.w3.org/1999/xlink" contentStyleType="text/css" data-diagram-type="CLASS" height="62px" preserveAspectRatio="none" style="width:345px;height:62px;background:#FFFFFF;" version="1.1" viewBox="0 0 345 62" width="345px" zoomAndPan="magnify"><defs/><g><!--class ProductPart--><g class="entity" data-qualified-name="ProductPart" data-source-line="2" id="ent0002"><rect fill="#F1F1F1" height="43.6094" rx="2.5" ry="2.5" style="stroke:#181818;stroke-width:0.5;" width="79.9238" x="7" y="11.8534"/><text fill="#000000" font-family="sans-serif" font-size="14" lengthAdjust="spacing" textLength="73.9238" x="10" y="31.3866">ProductPart</text><line style="stroke:#181818;stroke-width:0.5;" x1="8" x2="85.9238" y1="39.4628" y2="39.4628"/><line style="stroke:#181818;stroke-width:0.5;" x1="8" x2="85.9238" y1="47.4628" y2="47.4628"/></g><!--reverse link ProductPart to ProductPart--><g class="link" data-entity-1="ent0002" data-entity-2="ent0002" data-link-type="aggregation" data-source-line="2" id="lnk3"><path codeLine="2" d="M99.1066,25.1969 C117.7266,24.3169 122,27.5834 122,33.8534 C122,40.1234 105.74,42.8234 87.12,41.9434" fill="none" id="ProductPart-backto-ProductPart" style="stroke:#181818;stroke-width:1;"/><polygon fill="none" points="87.12,25.7634,93.3021,29.4757,99.1066,25.1969,92.9245,21.4846,87.12,25.7634" style="stroke:#181818;stroke-width:1;"/><path d="M127,12.8534 L127,54.8534 L338,54.8534 L338,22.8534 L328,12.8534 L127,12.8534" fill="#FEFFDD" style="stroke:#181818;stroke-width:0.5;"/><path d="M328,12.8534 L328,22.8534 L338,22.8534 L328,12.8534" fill="#FEFFDD" style="stroke:#181818;stroke-width:0.5;"/><text fill="#000000" font-family="sans-serif" font-size="13" lengthAdjust="spacing" textLength="187.1606" x="133" y="31.3485">One ProductPart object contains</text><text fill="#000000" font-family="sans-serif" font-size="13" lengthAdjust="spacing" textLength="190.7471" x="133" y="47.7001">zero or more ProductPart objects</text><text fill="#000000" font-family="sans-serif" font-size="13" lengthAdjust="spacing" textLength="21.6836" x="94.9294" y="20.8516">0..1</text><text fill="#000000" font-family="sans-serif" font-size="13" lengthAdjust="spacing" textLength="19.5127" x="95.0751" y="39.512">0..*</text></g><?plantuml-src ROin3eDG34DtJc7ziH88rbwY7825XaZy5c8ff0kdfp21X2TRxnduPyo3GhBBfCM-qJg7dqJRUo3LLTKai2oF-aXdUkZ6KD0mPVi-yJAz_Fd-g0I45dssfRDLdQ1Zfj-PomO0?></g></svg>