<?plantuml 1.2026.1?><svg xmlns="http://www.w3.org/2000/svg" xmlns:xlink="http://www.w3.org/1999/xlink" contentStyleType="text/css" data-diagram-type="CLASS" height="57px" preserveAspectRatio="none" style="width:294px;height:57px;background:#FFFFFF;" version="1.1" viewBox="0 0 294 57" width="294px" zoomAndPan="magnify"><defs/><g><!--class ClassA--><g class="entity" data-qualified-name="ClassA" data-source-line="2" id="ent0002"><rect fill="#F1F1F1" height="43.6094" rx="2.5" ry="2.5" style="stroke:#181818;stroke-width:0.5;" width="50.3447" x="7" y="7"/><text fill="#000000" font-family="sans-serif" font-size="14" lengthAdjust="spacing" textLength="44.3447" x="10" y="26.5332">ClassA</text><line style="stroke:#181818;stroke-width:0.5;" x1="8" x2="56.3447" y1="34.6094" y2="34.6094"/><line style="stroke:#181818;stroke-width:0.5;" x1="8" x2="56.3447" y1="42.6094" y2="42.6094"/></g><!--class ClassB--><g class="entity" data-qualified-name="ClassB" data-source-line="2" id="ent0003"><rect fill="#F1F1F1" height="43.6094" rx="2.5" ry="2.5" style="stroke:#181818;stroke-width:0.5;" width="50.3447" x="92" y="7"/><text fill="#000000" font-family="sans-serif" font-size="14" lengthAdjust="spacing" textLength="44.3447" x="95" y="26.5332">ClassB</text><line style="stroke:#181818;stroke-width:0.5;" x1="93" x2="141.3447" y1="34.6094" y2="34.6094"/><line style="stroke:#181818;stroke-width:0.5;" x1="93" x2="141.3447" y1="42.6094" y2="42.6094"/></g><!--class Car--><g class="entity" data-qualified-name="Car" data-source-line="3" id="ent0005"><rect fill="#F1F1F1" height="43.6094" rx="2.5" ry="2.5" style="stroke:#181818;stroke-width:0.5;" width="28.5586" x="177.5" y="7"/><text fill="#000000" font-family="sans-serif" font-size="14" lengthAdjust="spacing" textLength="22.5586" x="180.5" y="26.5332">Car</text><line style="stroke:#181818;stroke-width:0.5;" x1="178.5" x2="205.0586" y1="34.6094" y2="34.6094"/><line style="stroke:#181818;stroke-width:0.5;" x1="178.5" x2="205.0586" y1="42.6094" y2="42.6094"/></g><!--class Wheel--><g class="entity" data-qualified-name="Wheel" data-source-line="3" id="ent0006"><rect fill="#F1F1F1" height="43.6094" rx="2.5" ry="2.5" style="stroke:#181818;stroke-width:0.5;" width="45.6826" x="242" y="7"/><text fill="#000000" font-family="sans-serif" font-size="14" lengthAdjust="spacing" textLength="39.6826" x="245" y="26.5332">Wheel</text><line style="stroke:#181818;stroke-width:0.5;" x1="243" x2="286.6826" y1="34.6094" y2="34.6094"/><line style="stroke:#181818;stroke-width:0.5;" x1="243" x2="286.6826" y1="42.6094" y2="42.6094"/></g><!--reverse link ClassA to ClassB--><g class="link" data-entity-1="ent0002" data-entity-2="ent0003" data-link-type="aggregation" data-source-line="2" id="lnk4"><path codeLine="2" d="M69.23,29 C80.75,29 80.27,29 91.79,29" fill="none" id="ClassA-backto-ClassB" style="stroke:#181818;stroke-width:1;"/><polygon fill="none" points="57.23,29,63.23,33,69.23,29,63.23,25,57.23,29" style="stroke:#181818;stroke-width:1;"/></g><!--reverse link Car to Wheel--><g class="link" data-entity-1="ent0005" data-entity-2="ent0006" data-link-type="aggregation" data-source-line="3" id="lnk7"><path codeLine="3" d="M218.54,29 C230.26,29 229.99,29 241.71,29" fill="none" id="Car-backto-Wheel" style="stroke:#181818;stroke-width:1;"/><polygon fill="none" points="206.54,29,212.54,33,218.54,29,212.54,25,206.54,29" style="stroke:#181818;stroke-width:1;"/></g><?plantuml-src Kr00WepCb5I5vCoYv9nKBX1VmJadiRZOKI5V5y9oWeec5e64mZDIKtC0?></g></svg>