<?plantuml 1.2026.1?><svg xmlns="http://www.w3.org/2000/svg" xmlns:xlink="http://www.w3.org/1999/xlink" contentStyleType="text/css" data-diagram-type="CLASS" height="54.4px" preserveAspectRatio="none" style="width:361px;height:54px;background:#FFFFFF;" version="1.1" viewBox="0 0 361 54" width="361.6px" zoomAndPan="magnify"><defs/><g><!--class Cirriculum--><g class="entity" data-qualified-name="Cirriculum" data-source-line="3" id="ent0002"><rect fill="#F1F1F1" height="34.8875" rx="2" ry="2" style="stroke:#181818;stroke-width:0.4;" width="55.2" x="5.6" y="14.4"/><text fill="#000000" font-family="sans-serif" font-size="11.2" lengthAdjust="spacing" textLength="50.4" x="8" y="30.0266">Cirriculum</text><line style="stroke:#181818;stroke-width:0.4;" x1="6.4" x2="60" y1="36.4875" y2="36.4875"/><line style="stroke:#181818;stroke-width:0.4;" x1="6.4" x2="60" y1="42.8875" y2="42.8875"/></g><!--class Course--><g class="entity" data-qualified-name="Course" data-source-line="3" id="ent0003"><rect fill="#F1F1F1" height="34.8875" rx="2" ry="2" style="stroke:#181818;stroke-width:0.4;" width="40.9047" x="168" y="14.4"/><text fill="#000000" font-family="sans-serif" font-size="11.2" lengthAdjust="spacing" textLength="36.1047" x="170.4" y="30.0266">Course</text><line style="stroke:#181818;stroke-width:0.4;" x1="168.8" x2="208.1047" y1="36.4875" y2="36.4875"/><line style="stroke:#181818;stroke-width:0.4;" x1="168.8" x2="208.1047" y1="42.8875" y2="42.8875"/></g><!--class Student--><g class="entity" data-qualified-name="Student" data-source-line="5" id="ent0005"><rect fill="#F1F1F1" height="34.8875" rx="2" ry="2" style="stroke:#181818;stroke-width:0.4;" width="43.4094" x="313.2" y="14.4"/><text fill="#000000" font-family="sans-serif" font-size="11.2" lengthAdjust="spacing" textLength="38.6094" x="315.6" y="30.0266">Student</text><line style="stroke:#181818;stroke-width:0.4;" x1="314" x2="355.8094" y1="36.4875" y2="36.4875"/><line style="stroke:#181818;stroke-width:0.4;" x1="314" x2="355.8094" y1="42.8875" y2="42.8875"/></g><!--reverse link Cirriculum to Course--><g class="link" data-entity-1="ent0002" data-entity-2="ent0003" data-link-type="aggregation" data-source-line="3" id="lnk4"><path codeLine="3" d="M70.544,32 C101.24,32 140.368,32 167.832,32" fill="none" id="Cirriculum-backto-Course" style="stroke:#181818;stroke-width:0.8;"/><polygon fill="none" points="60.944,32,65.744,35.2,70.544,32,65.744,28.8,60.944,32" style="stroke:#181818;stroke-width:0.8;"/><path d="M78.8,4.8 L78.8,25.6 L150,25.6 L150,12.8 L142,4.8 L78.8,4.8" fill="#FEFFDD" style="stroke:#181818;stroke-width:0.4;"/><path d="M142,4.8 L142,12.8 L150,12.8 L142,4.8" fill="#FEFFDD" style="stroke:#181818;stroke-width:0.4;"/><text fill="#000000" font-family="sans-serif" font-size="10.4" lengthAdjust="spacing" textLength="54.9352" x="83.6" y="19.5961">aggregation</text><text fill="#000000" font-family="sans-serif" font-size="10.4" lengthAdjust="spacing" textLength="5.784" x="67.2627" y="28.7373">1</text><text fill="#000000" font-family="sans-serif" font-size="10.4" lengthAdjust="spacing" textLength="15.6102" x="146.1535" y="44.3447">1..*</text></g><!--link Course to Student--><g class="link" data-entity-1="ent0003" data-entity-2="ent0005" data-link-type="association" data-source-line="5" id="lnk6"><path codeLine="5" d="M209.064,32 C236.576,32 285,32 313.048,32" fill="none" id="Course-Student" style="stroke:#181818;stroke-width:0.8;"/><path d="M226.6,4.8 L226.6,25.6 L295.4,25.6 L295.4,12.8 L287.4,4.8 L226.6,4.8" fill="#FEFFDD" style="stroke:#181818;stroke-width:0.4;"/><path d="M287.4,4.8 L287.4,12.8 L295.4,12.8 L287.4,4.8" fill="#FEFFDD" style="stroke:#181818;stroke-width:0.4;"/><text fill="#000000" font-family="sans-serif" font-size="10.4" lengthAdjust="spacing" textLength="52.0305" x="231.4" y="19.5961">association</text><text fill="#000000" font-family="sans-serif" font-size="10.4" lengthAdjust="spacing" textLength="15.6102" x="215.2802" y="44.261">0..*</text><text fill="#000000" font-family="sans-serif" font-size="10.4" lengthAdjust="spacing" textLength="23.1309" x="283.4968" y="44.261">3..10</text></g><?plantuml-src ROnB2iCm44FtFONmCb3Za4tfDaVe2SnaS8UwC-3F_PlOsseZaFG409LYPWJ_kE7IMmu6IQ7CCzYb5A6U-nTkTR3xQTul3hlrKkT8hJ5CaKK_JyIK2gVOn7IqSmWN1dRoc_ThS7YrVh2sVm-r6ibu-040?></g></svg>