<?plantuml 1.2026.1?><svg xmlns="http://www.w3.org/2000/svg" xmlns:xlink="http://www.w3.org/1999/xlink" contentStyleType="text/css" data-diagram-type="CLASS" height="184.5px" preserveAspectRatio="none" style="width:219px;height:184px;background:#FFFFFF;" version="1.1" viewBox="0 0 219 184" width="219.5px" zoomAndPan="magnify"><defs/><g><!--class Car--><g class="entity" data-qualified-name="Car" data-source-line="3" id="ent0002"><rect fill="#F1F1F1" height="21.8047" rx="1.25" ry="1.25" style="stroke:#181818;stroke-width:0.25;" width="14.2793" x="119.75" y="3.5"/><text fill="#000000" font-family="sans-serif" font-size="7" lengthAdjust="spacing" textLength="11.2793" x="121.25" y="13.2666">Car</text><line style="stroke:#181818;stroke-width:0.25;" x1="120.25" x2="133.5293" y1="17.3047" y2="17.3047"/><line style="stroke:#181818;stroke-width:0.25;" x1="120.25" x2="133.5293" y1="21.3047" y2="21.3047"/></g><!--class Engine--><g class="entity" data-qualified-name="Engine" data-source-line="3" id="ent0003"><rect fill="#F1F1F1" height="21.8047" rx="1.25" ry="1.25" style="stroke:#181818;stroke-width:0.25;" width="24.7964" x="54" y="55.5"/><text fill="#000000" font-family="sans-serif" font-size="7" lengthAdjust="spacing" textLength="21.7964" x="55.5" y="65.2666">Engine</text><line style="stroke:#181818;stroke-width:0.25;" x1="54.5" x2="78.2964" y1="69.3047" y2="69.3047"/><line style="stroke:#181818;stroke-width:0.25;" x1="54.5" x2="78.2964" y1="73.3047" y2="73.3047"/></g><!--class Stereo--><g class="entity" data-qualified-name="Stereo" data-source-line="4" id="ent0005"><rect fill="#F1F1F1" height="21.8047" rx="1.25" ry="1.25" style="stroke:#181818;stroke-width:0.25;" width="23.624" x="115.25" y="55.5"/><text fill="#000000" font-family="sans-serif" font-size="7" lengthAdjust="spacing" textLength="20.624" x="116.75" y="65.2666">Stereo</text><line style="stroke:#181818;stroke-width:0.25;" x1="115.75" x2="138.374" y1="69.3047" y2="69.3047"/><line style="stroke:#181818;stroke-width:0.25;" x1="115.75" x2="138.374" y1="73.3047" y2="73.3047"/></g><!--class Door--><g class="entity" data-qualified-name="Door" data-source-line="5" id="ent0007"><rect fill="#F1F1F1" height="21.8047" rx="1.25" ry="1.25" style="stroke:#181818;stroke-width:0.25;" width="18.1724" x="181.5" y="55.5"/><text fill="#000000" font-family="sans-serif" font-size="7" lengthAdjust="spacing" textLength="15.1724" x="183" y="65.2666">Door</text><line style="stroke:#181818;stroke-width:0.25;" x1="182" x2="199.1724" y1="69.3047" y2="69.3047"/><line style="stroke:#181818;stroke-width:0.25;" x1="182" x2="199.1724" y1="73.3047" y2="73.3047"/></g><!--class Pistons--><g class="entity" data-qualified-name="Pistons" data-source-line="6" id="ent0009"><rect fill="#F1F1F1" height="21.8047" rx="1.25" ry="1.25" style="stroke:#181818;stroke-width:0.25;" width="25.9551" x="3.5" y="107.5"/><text fill="#000000" font-family="sans-serif" font-size="7" lengthAdjust="spacing" textLength="22.9551" x="5" y="117.2666">Pistons</text><line style="stroke:#181818;stroke-width:0.25;" x1="4" x2="28.9551" y1="121.3047" y2="121.3047"/><line style="stroke:#181818;stroke-width:0.25;" x1="4" x2="28.9551" y1="125.3047" y2="125.3047"/></g><!--class SparkPlugs--><g class="entity" data-qualified-name="SparkPlugs" data-source-line="7" id="ent0011"><rect fill="#F1F1F1" height="21.8047" rx="1.25" ry="1.25" style="stroke:#181818;stroke-width:0.25;" width="38.7964" x="47" y="107.5"/><text fill="#000000" font-family="sans-serif" font-size="7" lengthAdjust="spacing" textLength="35.7964" x="48.5" y="117.2666">SparkPlugs</text><line style="stroke:#181818;stroke-width:0.25;" x1="47.5" x2="85.2964" y1="121.3047" y2="121.3047"/><line style="stroke:#181818;stroke-width:0.25;" x1="47.5" x2="85.2964" y1="125.3047" y2="125.3047"/></g><!--class Radio--><g class="entity" data-qualified-name="Radio" data-source-line="8" id="ent0013"><rect fill="#F1F1F1" height="21.8047" rx="1.25" ry="1.25" style="stroke:#181818;stroke-width:0.25;" width="21.2896" x="103.75" y="107.5"/><text fill="#000000" font-family="sans-serif" font-size="7" lengthAdjust="spacing" textLength="18.2896" x="105.25" y="117.2666">Radio</text><line style="stroke:#181818;stroke-width:0.25;" x1="104.25" x2="124.5396" y1="121.3047" y2="121.3047"/><line style="stroke:#181818;stroke-width:0.25;" x1="104.25" x2="124.5396" y1="125.3047" y2="125.3047"/></g><!--class Cassette--><g class="entity" data-qualified-name="Cassette" data-source-line="9" id="ent0015"><rect fill="#F1F1F1" height="21.8047" rx="1.25" ry="1.25" style="stroke:#181818;stroke-width:0.25;" width="30.624" x="142.75" y="107.5"/><text fill="#000000" font-family="sans-serif" font-size="7" lengthAdjust="spacing" textLength="27.624" x="144.25" y="117.2666">Cassette</text><line style="stroke:#181818;stroke-width:0.25;" x1="143.25" x2="172.874" y1="121.3047" y2="121.3047"/><line style="stroke:#181818;stroke-width:0.25;" x1="143.25" x2="172.874" y1="125.3047" y2="125.3047"/></g><!--class Handle--><g class="entity" data-qualified-name="Handle" data-source-line="10" id="ent0017"><rect fill="#F1F1F1" height="21.8047" rx="1.25" ry="1.25" style="stroke:#181818;stroke-width:0.25;" width="25.1826" x="191" y="107.5"/><text fill="#000000" font-family="sans-serif" font-size="7" lengthAdjust="spacing" textLength="22.1826" x="192.5" y="117.2666">Handle</text><line style="stroke:#181818;stroke-width:0.25;" x1="191.5" x2="215.6826" y1="121.3047" y2="121.3047"/><line style="stroke:#181818;stroke-width:0.25;" x1="191.5" x2="215.6826" y1="125.3047" y2="125.3047"/></g><!--class Tuner--><g class="entity" data-qualified-name="Tuner" data-source-line="11" id="ent0019"><rect fill="#F1F1F1" height="21.8047" rx="1.25" ry="1.25" style="stroke:#181818;stroke-width:0.25;" width="21.2861" x="103.75" y="159.5"/><text fill="#000000" font-family="sans-serif" font-size="7" lengthAdjust="spacing" textLength="18.2861" x="105.25" y="169.2666">Tuner</text><line style="stroke:#181818;stroke-width:0.25;" x1="104.25" x2="124.5361" y1="173.3047" y2="173.3047"/><line style="stroke:#181818;stroke-width:0.25;" x1="104.25" x2="124.5361" y1="177.3047" y2="177.3047"/></g><!--reverse link Car to Engine--><g class="link" data-entity-1="ent0002" data-entity-2="ent0003" data-link-type="aggregation" data-source-line="3" id="lnk4"><path codeLine="3" d="M114.9925,25.1222 C104.8975,33.6322 91.275,45.115 79.035,55.435" fill="none" id="Car-backto-Engine" style="stroke:#181818;stroke-width:0.5;"/><polygon fill="none" points="119.58,21.255,115.9972,21.6594,114.9925,25.1222,118.5753,24.7178,119.58,21.255" style="stroke:#181818;stroke-width:0.5;"/></g><!--reverse link Car to Stereo--><g class="link" data-entity-1="ent0002" data-entity-2="ent0005" data-link-type="aggregation" data-source-line="4" id="lnk6"><path codeLine="4" d="M127,31.565 C127,40.32 127,46.695 127,55.445" fill="none" id="Car-backto-Stereo" style="stroke:#181818;stroke-width:0.5;"/><polygon fill="none" points="127,25.565,125,28.565,127,31.565,129,28.565,127,25.565" style="stroke:#181818;stroke-width:0.5;"/></g><!--reverse link Car to Door--><g class="link" data-entity-1="ent0002" data-entity-2="ent0007" data-link-type="aggregation" data-source-line="5" id="lnk8"><path codeLine="5" d="M138.963,24.6072 C150.623,33.9722 168.785,48.56 181.465,58.745" fill="none" id="Car-backto-Door" style="stroke:#181818;stroke-width:0.5;"/><polygon fill="none" points="134.285,20.85,135.3716,24.2879,138.963,24.6072,137.8764,21.1693,134.285,20.85" style="stroke:#181818;stroke-width:0.5;"/></g><!--reverse link Engine to Pistons--><g class="link" data-entity-1="ent0003" data-entity-2="ent0009" data-link-type="aggregation" data-source-line="6" id="lnk10"><path codeLine="6" d="M51.9404,81.8503 C43.3604,90.6053 35.425,98.695 26.845,107.445" fill="none" id="Engine-backto-Pistons" style="stroke:#181818;stroke-width:0.5;"/><polygon fill="none" points="56.14,77.565,52.6118,78.3078,51.9404,81.8503,55.4686,81.1075,56.14,77.565" style="stroke:#181818;stroke-width:0.5;"/></g><!--reverse link Engine to SparkPlugs--><g class="link" data-entity-1="ent0003" data-entity-2="ent0011" data-link-type="aggregation" data-source-line="7" id="lnk12"><path codeLine="7" d="M66.5,83.565 C66.5,92.32 66.5,98.695 66.5,107.445" fill="none" id="Engine-backto-SparkPlugs" style="stroke:#181818;stroke-width:0.5;"/><polygon fill="none" points="66.5,77.565,64.5,80.565,66.5,83.565,68.5,80.565,66.5,77.565" style="stroke:#181818;stroke-width:0.5;"/></g><!--reverse link Stereo to Radio--><g class="link" data-entity-1="ent0005" data-entity-2="ent0013" data-link-type="aggregation" data-source-line="8" id="lnk14"><path codeLine="8" d="M122.9822,83.3926 C120.8372,92.1476 119.23,98.695 117.085,107.445" fill="none" id="Stereo-backto-Radio" style="stroke:#181818;stroke-width:0.5;"/><polygon fill="none" points="124.41,77.565,121.7536,80.0029,122.9822,83.3926,125.6387,80.9548,124.41,77.565" style="stroke:#181818;stroke-width:0.5;"/></g><!--reverse link Stereo to Cassette--><g class="link" data-entity-1="ent0005" data-entity-2="ent0015" data-link-type="aggregation" data-source-line="9" id="lnk16"><path codeLine="9" d="M136.5408,82.6926 C141.8608,91.4476 146.265,98.695 151.585,107.445" fill="none" id="Stereo-backto-Cassette" style="stroke:#181818;stroke-width:0.5;"/><polygon fill="none" points="133.425,77.565,133.2737,81.1674,136.5408,82.6926,136.6921,79.0902,133.425,77.565" style="stroke:#181818;stroke-width:0.5;"/></g><!--reverse link Door to Handle--><g class="link" data-entity-1="ent0007" data-entity-2="ent0017" data-link-type="aggregation" data-source-line="10" id="lnk18"><path codeLine="10" d="M194.676,83.3794 C196.906,92.1344 198.58,98.695 200.81,107.445" fill="none" id="Door-backto-Handle" style="stroke:#181818;stroke-width:0.5;"/><polygon fill="none" points="193.195,77.565,191.9974,80.9658,194.676,83.3794,195.8736,79.9785,193.195,77.565" style="stroke:#181818;stroke-width:0.5;"/></g><!--reverse link Radio to Tuner--><g class="link" data-entity-1="ent0013" data-entity-2="ent0019" data-link-type="aggregation" data-source-line="11" id="lnk20"><path codeLine="11" d="M114.5,135.565 C114.5,144.32 114.5,150.695 114.5,159.445" fill="none" id="Radio-backto-Tuner" style="stroke:#181818;stroke-width:0.5;"/><polygon fill="none" points="114.5,129.565,112.5,132.565,114.5,135.565,116.5,132.565,114.5,129.565" style="stroke:#181818;stroke-width:0.5;"/></g><?plantuml-src PSun3eCm30NGlQVm1QXOE06jr14rNC1AB6eriYidtB_2WQ75uxE-_G40GiHCq5-72sppuaGGsMAc1YCQQDV1NHQMFmkLZFJNRghMf2KS9ovLfPmyVD3UKrwNVTKE-kg9YVMa8vP2jUuzjb_E3vHq5FQWwxmAsHS0?></g></svg>