<?plantuml 1.2026.1?><svg xmlns="http://www.w3.org/2000/svg" xmlns:xlink="http://www.w3.org/1999/xlink" contentStyleType="text/css" data-diagram-type="CLASS" height="57px" preserveAspectRatio="none" style="width:401px;height:57px;background:#FFFFFF;" version="1.1" viewBox="0 0 401 57" width="401px" zoomAndPan="magnify"><defs/><g><!--class ClassA--><g class="entity" data-qualified-name="ClassA" data-source-line="2" id="ent0002"><rect fill="#F1F1F1" height="43.6094" rx="2.5" ry="2.5" style="stroke:#181818;stroke-width:0.5;" width="50.3447" x="7" y="7"/><text fill="#000000" font-family="sans-serif" font-size="14" lengthAdjust="spacing" textLength="44.3447" x="10" y="26.5332">ClassA</text><line style="stroke:#181818;stroke-width:0.5;" x1="8" x2="56.3447" y1="34.6094" y2="34.6094"/><line style="stroke:#181818;stroke-width:0.5;" x1="8" x2="56.3447" y1="42.6094" y2="42.6094"/></g><!--class ClassB--><g class="entity" data-qualified-name="ClassB" data-source-line="2" id="ent0003"><rect fill="#F1F1F1" height="43.6094" rx="2.5" ry="2.5" style="stroke:#181818;stroke-width:0.5;" width="50.3447" x="92" y="7"/><text fill="#000000" font-family="sans-serif" font-size="14" lengthAdjust="spacing" textLength="44.3447" x="95" y="26.5332">ClassB</text><line style="stroke:#181818;stroke-width:0.5;" x1="93" x2="141.3447" y1="34.6094" y2="34.6094"/><line style="stroke:#181818;stroke-width:0.5;" x1="93" x2="141.3447" y1="42.6094" y2="42.6094"/></g><!--class Person--><g class="entity" data-qualified-name="Person" data-source-line="3" id="ent0005"><rect fill="#F1F1F1" height="43.6094" rx="2.5" ry="2.5" style="stroke:#181818;stroke-width:0.5;" width="50.3584" x="177" y="7"/><text fill="#000000" font-family="sans-serif" font-size="14" lengthAdjust="spacing" textLength="44.3584" x="180" y="26.5332">Person</text><line style="stroke:#181818;stroke-width:0.5;" x1="178" x2="226.3584" y1="34.6094" y2="34.6094"/><line style="stroke:#181818;stroke-width:0.5;" x1="178" x2="226.3584" y1="42.6094" y2="42.6094"/></g><!--class Company--><g class="entity" data-qualified-name="Company" data-source-line="3" id="ent0006"><rect fill="#F1F1F1" height="43.6094" rx="2.5" ry="2.5" style="stroke:#181818;stroke-width:0.5;" width="65.917" x="329" y="7"/><text fill="#000000" font-family="sans-serif" font-size="14" lengthAdjust="spacing" textLength="59.917" x="332" y="26.5332">Company</text><line style="stroke:#181818;stroke-width:0.5;" x1="330" x2="393.917" y1="34.6094" y2="34.6094"/><line style="stroke:#181818;stroke-width:0.5;" x1="330" x2="393.917" y1="42.6094" y2="42.6094"/></g><!--link ClassA to ClassB--><g class="link" data-entity-1="ent0002" data-entity-2="ent0003" data-link-type="association" data-source-line="2" id="lnk4"><path codeLine="2" d="M57.23,29 C68.75,29 80.27,29 91.79,29" fill="none" id="ClassA-ClassB" style="stroke:#181818;stroke-width:1;"/></g><!--link Person to Company--><g class="link" data-entity-1="ent0005" data-entity-2="ent0006" data-link-type="association" data-source-line="3" id="lnk7"><path codeLine="3" d="M227.35,29 C254.84,29 298.83,29 329,29" fill="none" id="Person-Company" style="stroke:#181818;stroke-width:1;"/><polygon fill="#000000" points="254.5,17.1758,245.4549,14.2369,245.4549,20.1147,254.5,17.1758" style="stroke:#000000;stroke-width:1;"/><text fill="#000000" font-family="sans-serif" font-size="13" lengthAdjust="spacing" textLength="52.73" x="258.5" y="22.4951">works for</text><text fill="#000000" font-family="sans-serif" font-size="13" lengthAdjust="spacing" textLength="19.5127" x="235.4269" y="44.4309">1..*</text><text fill="#000000" font-family="sans-serif" font-size="13" lengthAdjust="spacing" textLength="7.23" x="313.5956" y="24.7309">1</text></g><?plantuml-src Kr00WepCb5I5vCoYv9nKBX1VmJadiRZOKK4Nmd2220Qa5XNdvoae6UhfQIa1vPGCbHISytCB4lCghHJAyukoYnNIyeiKx000?></g></svg>