<svg xmlns="http://www.w3.org/2000/svg" xmlns:xlink="http://www.w3.org/1999/xlink" xmlns:inkscape="http://www.inkscape.org/namespaces/inkscape" version="1.1" width="473.03999" height="196.08" viewBox="0 0 473.03999 196.08">
<defs>
<clipPath id="clip_1">
<path transform="matrix(.24,0,0,.24,0,0)" d="M0 0H1970.8334V814.691H0Z" clip-rule="evenodd"/>
</clipPath>
<clipPath id="clip_2">
<path transform="matrix(.24,0,0,.24,0,0)" d="M197.6824 62.898939H850.6688V751.79208H197.6824Z" clip-rule="evenodd"/>
</clipPath>
<clipPath id="clip_3">
<path transform="matrix(.24,0,0,.24,0,0)" d="M721.6305 230.74925H1781.9437V676.91238H721.6305Z" clip-rule="evenodd"/>
</clipPath>
<clipPath id="clip_4">
<path transform="matrix(.24,0,0,.24,0,0)" d="M0 0H1970.8334V814.691H0Z" clip-rule="evenodd"/>
</clipPath>
<path id="font_5_38" d="M.5307617 .26367188 .67089846 .21972656C.64941409 .1411031 .6136882 .082707729 .5637207 .044540407 .51375326 .0063832604 .45035807-.0126953129 .37353517-.0126953129 .27848307-.0126953129 .20035808 .01981608 .13916016 .08483887 .07796224 .14987183 .04736328 .23877461 .04736328 .35154725 .04736328 .47085063 .078125 .563502 .13964844 .62950137 .20117188 .69551089 .2820638 .7285156 .38232423 .7285156 .4698893 .7285156 .5410156 .7025757 .5957031 .6506958 .6282552 .62002566 .65266928 .5759786 .6689453 .5185547L.5258789 .484375C.51741537 .5214844 .49975587 .55078127 .4729004 .5722656 .44604493 .59375 .41341148 .6044922 .375 .6044922 .3219401 .6044922 .27888999 .5854492 .24584961 .5473633 .21280925 .50927737 .19628906 .44759117 .19628906 .3623047 .19628906 .2718099 .21256511 .20735677 .24511719 .16894531 .27766929 .13053386 .31998698 .111328128 .3720703 .111328128 .41048179 .111328128 .44352214 .12357076 .4711914 .14805603 .4988607 .17255147 .51871749 .21109009 .5307617 .26367188Z"/>
<path id="font_5_82" d="M.040039064 .26660157C.040039064 .31217448 .05126953 .35628257 .07373047 .39892579 .096191409 .441569 .12801107 .4741211 .16918946 .49658204 .21036785 .51904299 .25634767 .53027346 .3071289 .53027346 .38557945 .53027346 .44986979 .50480148 .5 .45385743 .5501302 .40291343 .5751953 .33854167 .5751953 .2607422 .5751953 .18229167 .54988607 .11726888 .49926759 .06567383 .44864909 .014078776 .38492839-.01171875 .30810548-.01171875 .26057945-.01171875 .21525066-.0009765625 .17211914 .020507813 .12898763 .041992189 .096191409 .07348633 .07373047 .114990238 .05126953 .15649414 .040039064 .20703125 .040039064 .26660157M.18066406 .25927735C.18066406 .20800781 .1928711 .16874187 .21728516 .14147949 .24169922 .114217128 .2718099 .10058594 .3076172 .10058594 .34342448 .10058594 .37345378 .114217128 .39770509 .14147949 .4219564 .16874187 .43408204 .20833333 .43408204 .2602539 .43408204 .3108724 .4219564 .34981285 .39770509 .3770752 .37345378 .40433757 .34342448 .41796876 .3076172 .41796876 .2718099 .41796876 .24169922 .40433757 .21728516 .3770752 .1928711 .34981285 .18066406 .31054688 .18066406 .25927735Z"/>
<path id="font_5_81" d="M.54345706 0H.40625V.26434327C.40625 .32027183 .4033203 .3564453 .39746095 .37286378 .39160157 .38928224 .38208009 .40204368 .36889649 .41114808 .3557129 .42025248 .33984376 .4248047 .32128907 .4248047 .29752604 .4248047 .27620445 .41829936 .25732423 .4052887 .23844402 .3922882 .22550456 .37505595 .21850586 .35359193 .21150716 .33213807 .20800781 .2924703 .20800781 .23458863V0H.07080078V.5185547H.19824219V.4423828C.24348958 .50097659 .30045573 .53027346 .36914063 .53027346 .39941407 .53027346 .42708335 .524821 .45214845 .513916 .47721354 .50301107 .49617515 .48909507 .5090332 .47216798 .5218913 .45524089 .5308431 .43603517 .5358887 .41455079 .54093429 .3930664 .54345706 .3623047 .54345706 .32226563V0Z"/>
<path id="font_5_86" d="M.0234375 .14746094 .16113281 .16894531C.16699219 .14241536 .1788737 .122273769 .19677735 .10852051 .21468099 .09476725 .2397461 .087890628 .27197267 .087890628 .30745445 .087890628 .33414714 .09439087 .35205079 .10739136 .36409507 .116495769 .3701172 .12868755 .3701172 .14396668 .3701172 .15437317 .36686198 .1629893 .36035157 .16981507 .35351563 .17631531 .33821617 .18232727 .31445313 .18785095 .20377605 .21222432 .1336263 .23449199 .104003909 .25465394 .06298828 .2826284 .04248047 .32149253 .04248047 .37124635 .04248047 .41612754 .060221357 .45385234 .095703128 .48442079 .13118489 .5149892 .18619792 .53027346 .2607422 .53027346 .33170573 .53027346 .3844401 .5187581 .4189453 .49572755 .45345054 .47269694 .47721354 .4386393 .49023438 .3935547L.36083985 .36914063C.355306 .3893229 .34480796 .40478517 .3293457 .41552735 .31388346 .42626954 .29182945 .43164063 .2631836 .43164063 .22705078 .43164063 .20117188 .42660014 .18554688 .41651917 .1751302 .40937806 .16992188 .40011598 .16992188 .3887329 .16992188 .37898765 .17447917 .37070213 .18359375 .36387635 .19596355 .35477195 .23868816 .3419291 .31176759 .3253479 .38484703 .3087667 .4358724 .28842674 .46484376 .264328 .4934896 .2398936 .5078125 .20585633 .5078125 .16221619 .5078125 .11465963 .48795573 .073781337 .4482422 .0395813 .40852867 .005381266 .34977214-.01171875 .27197267-.01171875 .20133464-.01171875 .14542644 .0025583904 .10424805 .03111267 .063069667 .059677125 .036132814 .09845988 .0234375 .14746094Z"/>
<path id="font_5_87" d="M.3095703 .5185547V.4091797H.21582031V.200531C.21582031 .15827434 .2167155 .13365174 .21850586 .12666321 .22029622 .11968485 .22436524 .11391703 .23071289 .10935974 .23706055 .10481262 .24479167 .10253906 .25390626 .10253906 .26660157 .10253906 .2849935 .106933597 .30908204 .115722659L.32080079 .008880615C.28889976-.004852295 .25276695-.01171875 .21240235-.01171875 .18766277-.01171875 .16536458-.0075683596 .14550781 .0007324219 .12565105 .009033203 .111083988 .01977539 .10180664 .032958986 .0925293 .046142579 .08610026 .063964847 .08251953 .08642578 .079589847 .102376308 .078125 .13460286 .078125 .18310547V.4091797H.015136719V.5185547H.078125V.6220703L.21582031 .703125V.5185547H.3095703Z"/>
<path id="font_5_85" d="M.203125 0H.06591797V.5185547H.19335938V.44482423C.21516927 .47965495 .2347819 .5026042 .25219728 .5136719 .26961265 .52473959 .28938804 .53027346 .31152345 .53027346 .34277345 .53027346 .37288413 .52164718 .40185548 .50439456L.359375 .38476563C.33626304 .3997396 .31477867 .40722657 .29492188 .40722657 .27571617 .40722657 .2594401 .40193687 .24609375 .39135743 .23274739 .38077799 .22224935 .36165367 .21459961 .33398438 .20694988 .3063151 .203125 .24837239 .203125 .16015625V0Z"/>
<path id="font_5_88" d="M.41308595 0V.07763672C.39420573 .04996745 .36938478 .028157553 .33862306 .012207031 .30786134-.0037434896 .27539063-.01171875 .24121094-.01171875 .2063802-.01171875 .1751302-.0040690104 .14746094 .011230469 .119791667 .026529948 .09977213 .048014326 .087402347 .075683597 .075032558 .10335287 .068847659 .14160156 .068847659 .19042969V.5185547H.20605469V.28082276C.20605469 .20806885 .20857747 .16349285 .21362305 .14709473 .21866863 .13069661 .22786458 .1177063 .24121094 .10812378 .25455729 .09854126 .27148438 .09375 .2919922 .09375 .3154297 .09375 .33642579 .10016378 .35498048 .11299133 .37353517 .1258189 .38623048 .14173381 .3930664 .16073609 .39990235 .17973836 .4033203 .2262624 .4033203 .30030824V.5185547H.54052737V0H.41308595Z"/>
<path id="font_5_70" d="M.5239258 .36523438 .38867188 .3408203C.3841146 .36767579 .3737793 .38789878 .35766603 .40148927 .34155274 .41507975 .32063804 .421875 .29492188 .421875 .2607422 .421875 .23347982 .41011048 .21313477 .38658143 .19278972 .36305238 .18261719 .32370506 .18261719 .26853944 .18261719 .2071991 .19295247 .16386922 .21362305 .1385498 .23429363 .11324056 .26204429 .10058594 .296875 .10058594 .32291667 .10058594 .34423829 .10799154 .36083985 .122802738 .3774414 .13761394 .38916017 .16308594 .3959961 .19921875L.5307617 .17578125C.51676437 .11393229 .48990885 .067220058 .4501953 .03564453 .41048179 .0040690104 .35725913-.01171875 .29052735-.01171875 .21468099-.01171875 .1542155 .012207031 .10913086 .060058595 .06404623 .107910159 .041503908 .17415364 .041503908 .25878907 .041503908 .34440104 .0641276 .41105143 .109375 .45874024 .15462239 .506429 .21582031 .53027346 .29296876 .53027346 .35611979 .53027346 .4063314 .5166829 .44360353 .48950196 .48087565 .46232096 .5076497 .42089845 .5239258 .36523438Z"/>
<path id="font_5_39" d="M.072265628 .7158203H.33642579C.3959961 .7158203 .44140626 .711263 .47265626 .70214846 .51464846 .6897786 .55061849 .66780599 .5805664 .63623049 .61051437 .60465499 .6333008 .5659993 .6489258 .5202637 .6645508 .47452799 .6723633 .4181315 .6723633 .35107423 .6723633 .29215495 .66503909 .2413737 .6503906 .19873047 .632487 .14664714 .6069336 .10449219 .57373049 .072265628 .54866537 .047851564 .5148112 .028808594 .47216798 .015136719 .44026695 .0050455729 .3976237 0 .34423829 0H.072265628V.7158203M.21679688 .59472659V.12109375H.32470704C.36507163 .12109375 .39420573 .1233724 .41210938 .12792969 .43554688 .13377889 .45499674 .14369202 .47045899 .15766907 .48592124 .1716563 .49853517 .19466655 .5083008 .22669983 .5180664 .25873313 .5229492 .30238853 .5229492 .35766603 .5229492 .4129435 .5180664 .4553782 .5083008 .4849701 .49853517 .51456198 .48486329 .5376485 .46728517 .55422976 .44970704 .5708211 .42740885 .58204147 .40039063 .5878906 .38020835 .59244796 .34065757 .59472659 .28173829 .59472659H.21679688Z"/>
<path id="font_5_72" d="M.3720703 .16503906 .50878909 .14160156C.49121095 .09163412 .4634603 .053588869 .4255371 .02746582 .38761393 .0013427734 .34016929-.01171875 .28320313-.01171875 .19303386-.01171875 .12630208 .017740885 .08300781 .076660159 .048828126 .12386068 .03173828 .18343099 .03173828 .2553711 .03173828 .3413086 .05419922 .40861003 .099121097 .4572754 .14404297 .50594076 .20084636 .53027346 .26953126 .53027346 .3466797 .53027346 .4075521 .50480148 .45214845 .45385743 .49674479 .40291343 .5180664 .32486979 .5161133 .21972656H.17236328C.17333985 .17903646 .18440755 .14737956 .2055664 .12475586 .22672527 .102132167 .25309245 .09082031 .28466798 .09082031 .30615235 .09082031 .32421876 .09667969 .3388672 .10839844 .35351563 .12011719 .36458335 .13899739 .3720703 .16503906M.3798828 .30371095C.37890626 .34326173 .36865235 .3733317 .3491211 .3939209 .32958985 .4145101 .3058268 .4248047 .27783204 .4248047 .24788411 .4248047 .22314453 .41394554 .20361328 .39222718 .18408203 .37049867 .17447917 .34099327 .17480469 .30371095H.3798828Z"/>
</defs>
<g clip-path="url(#clip_1)">
<path transform="matrix(.718845,0,0,.718845,0,0)" d="M0 0H658V272H0Z" fill="#ffffff"/>
</g>
<g clip-path="url(#clip_2)">
<path transform="matrix(.24794466,0,0,.24830437,79.96213,-147.16101)" stroke-width="2.23503" stroke-linecap="butt" stroke-miterlimit="4" stroke-linejoin="miter" fill="none" stroke="#c7ab04" d="M51.393915 681.9599 70.197628 656.82778V1188.4467H51.393915V681.9599Z"/>
<path transform="matrix(.24794466,0,0,.24830437,79.96213,-147.16101)" stroke-width="2.23503" stroke-linecap="butt" stroke-miterlimit="4" stroke-linejoin="miter" fill="none" stroke="#c7ab04" d="M51.6924 1086.144 69.60071 1063.9685H51.393915"/>
<path transform="matrix(.24794466,0,0,.24830437,79.96213,-147.16101)" stroke-width="2.23503" stroke-linecap="butt" stroke-miterlimit="4" stroke-linejoin="miter" fill="none" stroke="#c7ab04" d="M51.841615 1109.0587 69.74992 1086.8832H51.54315"/>
<path transform="matrix(.24794466,0,0,.24830437,79.96213,-147.16101)" stroke-width="2.23503" stroke-linecap="butt" stroke-miterlimit="4" stroke-linejoin="miter" fill="none" stroke="#c7ab04" d="M52.1401 1131.2341 70.0484 1109.0587H51.841627"/>
<path transform="matrix(.24794466,0,0,.24830437,79.96213,-147.16101)" stroke-width="2.23503" stroke-linecap="butt" stroke-miterlimit="4" stroke-linejoin="miter" fill="none" stroke="#c7ab04" d="M52.1401 1153.7053 70.0484 1131.5298H51.841627"/>
<path transform="matrix(.24794466,0,0,.24830437,79.96213,-147.16101)" stroke-width="2.23503" stroke-linecap="butt" stroke-miterlimit="4" stroke-linejoin="miter" fill="none" stroke="#c7ab04" d="M51.841627 1176.7677 69.74994 1154.5923H51.543165"/>
<path transform="matrix(.24794466,0,0,.24830437,79.96213,-147.16101)" stroke-width="2.23503" stroke-linecap="butt" stroke-miterlimit="4" stroke-linejoin="miter" fill="none" stroke="#c7ab04" d="M51.841627 1041.054 69.74994 1018.8786H51.543165"/>
<path transform="matrix(.24794466,0,0,.24830437,79.96213,-147.16101)" stroke-width="2.23503" stroke-linecap="butt" stroke-miterlimit="4" stroke-linejoin="miter" fill="none" stroke="#c7ab04" d="M51.543165 1018.5829 69.451457 996.40756H51.24468"/>
<path transform="matrix(.24794466,0,0,.24830437,79.96213,-147.16101)" stroke-width="2.23503" stroke-linecap="butt" stroke-miterlimit="4" stroke-linejoin="miter" fill="none" stroke="#c7ab04" d="M51.841627 995.81619 69.74994 973.6407H51.543165"/>
<path transform="matrix(.24794466,0,0,.24830437,79.96213,-147.16101)" stroke-width="2.23503" stroke-linecap="butt" stroke-miterlimit="4" stroke-linejoin="miter" fill="none" stroke="#c7ab04" d="M51.841627 972.75369 69.74994 950.5782H51.543165"/>
<path transform="matrix(.24794466,0,0,.24830437,79.96213,-147.16101)" stroke-width="2.23503" stroke-linecap="butt" stroke-miterlimit="4" stroke-linejoin="miter" fill="none" stroke="#c7ab04" d="M51.543165 949.98696 69.451457 927.81149H51.24468"/>
<path transform="matrix(.24794466,0,0,.24830437,79.96213,-147.16101)" stroke-width="2.23503" stroke-linecap="butt" stroke-miterlimit="4" stroke-linejoin="miter" fill="none" stroke="#c7ab04" d="M51.543165 927.2201 69.451457 905.04476H51.24468"/>
<path transform="matrix(.24794466,0,0,.24830437,79.96213,-147.16101)" stroke-width="2.23503" stroke-linecap="butt" stroke-miterlimit="4" stroke-linejoin="miter" fill="none" stroke="#c7ab04" d="M51.543176 904.45339 69.45147 882.2779H51.24469"/>
<path transform="matrix(.24794466,0,0,.24830437,79.96213,-147.16101)" stroke-width="2.23503" stroke-linecap="butt" stroke-miterlimit="4" stroke-linejoin="miter" fill="none" stroke="#c7ab04" d="M51.543165 881.9823 69.451457 859.8068H51.24468"/>
<path transform="matrix(.24794466,0,0,.24830437,79.96213,-147.16101)" stroke-width="2.23503" stroke-linecap="butt" stroke-miterlimit="4" stroke-linejoin="miter" fill="none" stroke="#c7ab04" d="M51.841627 859.51119 69.74994 837.3357H51.543165"/>
<path transform="matrix(.24794466,0,0,.24830437,79.96213,-147.16101)" stroke-width="2.23503" stroke-linecap="butt" stroke-miterlimit="4" stroke-linejoin="miter" fill="none" stroke="#c7ab04" d="M51.841627 836.74447 69.74994 814.569H51.543165"/>
<path transform="matrix(.24794466,0,0,.24830437,79.96213,-147.16101)" stroke-width="2.23503" stroke-linecap="butt" stroke-miterlimit="4" stroke-linejoin="miter" fill="none" stroke="#c7ab04" d="M52.1401 814.2733 70.0484 792.09786H51.841627"/>
<path transform="matrix(.24794466,0,0,.24830437,79.96213,-147.16101)" stroke-width="2.23503" stroke-linecap="butt" stroke-miterlimit="4" stroke-linejoin="miter" fill="none" stroke="#c7ab04" d="M51.841627 791.80227 69.74994 769.6268H51.543165"/>
<path transform="matrix(.24794466,0,0,.24830437,79.96213,-147.16101)" stroke-width="2.23503" stroke-linecap="butt" stroke-miterlimit="4" stroke-linejoin="miter" fill="none" stroke="#c7ab04" d="M51.24468 701.9178 69.152988 679.7424H53.035524"/>
<path transform="matrix(.24794466,0,0,.24830437,79.96213,-147.16101)" stroke-width="2.23503" stroke-linecap="butt" stroke-miterlimit="4" stroke-linejoin="miter" fill="none" stroke="#c7ab04" d="M51.543165 724.0932 69.451457 701.9178H51.24468"/>
<path transform="matrix(.24794466,0,0,.24830437,79.96213,-147.16101)" stroke-width="2.23503" stroke-linecap="butt" stroke-miterlimit="4" stroke-linejoin="miter" fill="none" stroke="#c7ab04" d="M51.54315 747.15567 69.45145 724.9802H51.244668"/>
<path transform="matrix(.24794466,0,0,.24830437,79.96213,-147.16101)" stroke-width="2.23503" stroke-linecap="butt" stroke-miterlimit="4" stroke-linejoin="miter" fill="none" stroke="#c7ab04" d="M51.841627 769.3311 69.74994 747.15567H51.543165"/>
<path transform="matrix(.24794466,0,0,.24830437,79.96213,-147.16101)" stroke-width="2.23503" stroke-linecap="butt" stroke-miterlimit="4" stroke-linejoin="miter" fill="none" stroke="#c7ab04" d="M-69.35468 738.729V718.91897H478.50688L497.90754 738.4333-69.35468 738.729Z"/>
<path transform="matrix(.24794466,0,0,.24830437,79.96213,-147.16101)" stroke-width="2.23503" stroke-linecap="butt" stroke-miterlimit="4" stroke-linejoin="miter" fill="none" stroke="#c7ab04" d="M-69.188648 738.4333-49.63875 719.0668-30.088839 738.4333"/>
<path transform="matrix(.24794466,0,0,.24830437,79.96213,-147.16101)" stroke-width="2.23503" stroke-linecap="butt" stroke-miterlimit="4" stroke-linejoin="miter" fill="none" stroke="#c7ab04" d="M-29.939612 738.0638-10.389726 718.6972 9.160171 738.0638"/>
<path transform="matrix(.24794466,0,0,.24830437,79.96213,-147.16101)" stroke-width="2.23503" stroke-linecap="butt" stroke-miterlimit="4" stroke-linejoin="miter" fill="none" stroke="#c7ab04" d="M9.458644 738.35946 29.008542 718.9929 48.558439 738.35946"/>
<path transform="matrix(.24794466,0,0,.24830437,79.96213,-147.16101)" stroke-width="2.23503" stroke-linecap="butt" stroke-miterlimit="4" stroke-linejoin="miter" fill="none" stroke="#c7ab04" d="M70.9438 738.06369 90.4937 718.6972 110.043598 738.06369"/>
<path transform="matrix(.24794466,0,0,.24830437,79.96213,-147.16101)" stroke-width="2.23503" stroke-linecap="butt" stroke-miterlimit="4" stroke-linejoin="miter" fill="none" stroke="#c7ab04" d="M109.74512 738.655 129.29502 719.2885 148.84491 738.655"/>
<path transform="matrix(.24794466,0,0,.24830437,79.96213,-147.16101)" stroke-width="2.23503" stroke-linecap="butt" stroke-miterlimit="4" stroke-linejoin="miter" fill="none" stroke="#c7ab04" d="M148.24796 738.655 167.79785 719.2885 187.34775 738.655"/>
<path transform="matrix(.24794466,0,0,.24830437,79.96213,-147.16101)" stroke-width="2.23503" stroke-linecap="butt" stroke-miterlimit="4" stroke-linejoin="miter" fill="none" stroke="#c7ab04" d="M186.75081 738.35946 206.3007 718.9929 225.8506 738.35946"/>
<path transform="matrix(.24794466,0,0,.24830437,79.96213,-147.16101)" stroke-width="2.23503" stroke-linecap="butt" stroke-miterlimit="4" stroke-linejoin="miter" fill="none" stroke="#c7ab04" d="M225.8506 738.655 245.4005 719.2885 264.9504 738.655"/>
<path transform="matrix(.24794466,0,0,.24830437,79.96213,-147.16101)" stroke-width="2.23503" stroke-linecap="butt" stroke-miterlimit="4" stroke-linejoin="miter" fill="none" stroke="#c7ab04" d="M264.35346 738.9508 283.90333 719.5842 303.45323 738.9508"/>
<path transform="matrix(.24794466,0,0,.24830437,79.96213,-147.16101)" stroke-width="2.23503" stroke-linecap="butt" stroke-miterlimit="4" stroke-linejoin="miter" fill="none" stroke="#c7ab04" d="M303.1548 738.0638 322.70469 718.6972 342.25459 738.0638"/>
<path transform="matrix(.24794466,0,0,.24830437,79.96213,-147.16101)" stroke-width="2.23503" stroke-linecap="butt" stroke-miterlimit="4" stroke-linejoin="miter" fill="none" stroke="#c7ab04" d="M341.65763 738.06369 361.20753 718.6972 380.75743 738.06369"/>
<path transform="matrix(.24794466,0,0,.24830437,79.96213,-147.16101)" stroke-width="2.23503" stroke-linecap="butt" stroke-miterlimit="4" stroke-linejoin="miter" fill="none" stroke="#c7ab04" d="M380.16047 738.0638 399.71037 718.6972 419.26026 738.0638"/>
<path transform="matrix(.24794466,0,0,.24830437,79.96213,-147.16101)" stroke-width="2.23503" stroke-linecap="butt" stroke-miterlimit="4" stroke-linejoin="miter" fill="none" stroke="#c7ab04" d="M418.9618 738.35946 438.5117 718.9929 458.06159 738.35946"/>
<path transform="matrix(.24794466,0,0,.24830437,79.96213,-147.16101)" stroke-width="2.23503" stroke-linecap="butt" stroke-miterlimit="4" stroke-linejoin="miter" fill="none" stroke="#c7ab04" d="M458.6585 738.655 478.2084 719.2885"/>
<path transform="matrix(.24794466,0,0,.24830437,79.96213,-147.16101)" stroke-width="2.23503" stroke-linecap="butt" stroke-miterlimit="4" stroke-linejoin="miter" fill="none" stroke="#c7ab04" d="M51.841627 1063.8207 69.74994 1041.6454H51.543165"/>
<path transform="matrix(.24794466,0,0,.24830437,79.96213,-147.16101)" stroke-width="2.35266" stroke-linecap="butt" stroke-miterlimit="4" stroke-linejoin="miter" fill="none" stroke="#000000" d="M184.51229 1057.7595H214.95639V1134.6344H185.10923L184.51229 1057.7595Z"/>
<path transform="matrix(.24794466,0,0,.24830437,79.96213,-147.16101)" stroke-width="2.35266" stroke-linecap="butt" stroke-miterlimit="4" stroke-linejoin="miter" fill="none" stroke="#000000" d="M185.70618 1058.3508 214.35944 1135.2258"/>
<path transform="matrix(.24794466,0,0,.24830437,79.96213,-147.16101)" stroke-width="2.35266" stroke-linecap="butt" stroke-miterlimit="4" stroke-linejoin="miter" fill="none" stroke="#000000" d="M185.70618 1134.043 214.35944 1058.3508"/>
<path transform="matrix(.24794466,0,0,.24830437,79.96213,-147.16101)" stroke-width="2.35266" stroke-linecap="butt" stroke-miterlimit="4" stroke-linejoin="miter" fill="none" stroke="#000000" d="M188.09394 1057.7595 199.6886 1038.2982 211.11692 1057.8278"/>
<path transform="matrix(.24794466,0,0,.24830437,79.96213,-147.16101)" stroke-width="2.35266" stroke-linecap="butt" stroke-miterlimit="4" stroke-linejoin="miter" fill="none" stroke="#000000" d="M-68.38685 717.73629 70.49612 657.4191 323.6001 718.32766"/>
<path transform="matrix(.24794466,0,0,.24830437,79.96213,-147.16101)" stroke-width="2.35266" stroke-linecap="butt" stroke-miterlimit="4" stroke-linejoin="miter" fill="none" stroke="#000000" d="M68.70527 658.01046 177.34894 719.5103"/>
<path transform="matrix(.24794466,0,0,.24830437,79.96213,-147.16101)" d="M46.58837 776.178H74.644718L95.537738 755.4809V792.1442H45.991426L46.58837 776.178Z" fill="#f5c610" fill-rule="evenodd"/>
<path transform="matrix(.24794466,0,0,.24830437,79.96213,-147.16101)" stroke-width="1.17633" stroke-linecap="butt" stroke-miterlimit="4" stroke-linejoin="miter" fill="none" stroke="#000000" d="M46.58837 776.178H74.644718L95.537738 755.4809V792.1442H45.991426L46.58837 776.178Z"/>
<path transform="matrix(.24794466,0,0,.24830437,79.96213,-147.16101)" stroke-width="1.19468" stroke-linecap="butt" stroke-miterlimit="4" stroke-linejoin="miter" fill="none" stroke="#000000" d="M95.383678 756.0631V743.24496H70.33048"/>
<path transform="matrix(.24794466,0,0,.24830437,79.96213,-147.16101)" stroke-width="1.17633" stroke-linecap="butt" stroke-miterlimit="4" stroke-linejoin="miter" fill="none" stroke="#000000" d="M184.81078 740.2074H214.06099"/>
<path transform="matrix(.24794466,0,0,.24830437,79.96213,-147.16101)" stroke-width="1.17633" stroke-linecap="butt" stroke-miterlimit="4" stroke-linejoin="miter" fill="none" stroke="#000000" d="M186.00464 733.9983H213.46404"/>
<path transform="matrix(.23333179,0,0,.2336703,127.80764,35.327653)" d="M-2.5-1C-2.5 1.76-4.74 4-7.5 4-10.26 4-12.5 1.76-12.5-1-12.5-3.76-10.26-6-7.5-6-4.74-6-2.5-3.76-2.5-1Z" fill-rule="evenodd"/>
<path transform="matrix(.23333179,0,0,.2336703,127.80764,35.327653)" stroke-width="1.3333334" stroke-linecap="butt" stroke-miterlimit="4" stroke-linejoin="miter" fill="none" stroke="#000000" d="M-2.5-1C-2.5 1.76-4.74 4-7.5 4-10.26 4-12.5 1.76-12.5-1-12.5-3.76-10.26-6-7.5-6-4.74-6-2.5-3.76-2.5-1Z"/>
<path transform="matrix(.23333179,0,0,.2336703,134.61605,35.327653)" d="M-2.5-1C-2.5 1.76-4.74 4-7.5 4-10.26 4-12.5 1.76-12.5-1-12.5-3.76-10.26-6-7.5-6-4.74-6-2.5-3.76-2.5-1Z" fill-rule="evenodd"/>
<path transform="matrix(.23333179,0,0,.2336703,134.61605,35.327653)" stroke-width="1.3333334" stroke-linecap="butt" stroke-miterlimit="4" stroke-linejoin="miter" fill="none" stroke="#000000" d="M-2.5-1C-2.5 1.76-4.74 4-7.5 4-10.26 4-12.5 1.76-12.5-1-12.5-3.76-10.26-6-7.5-6-4.74-6-2.5-3.76-2.5-1Z"/>
<path transform="matrix(.24794466,0,0,.24830437,79.96213,-147.16101)" stroke-width="2.35266" stroke-linecap="butt" stroke-miterlimit="4" stroke-linejoin="miter" fill="none" stroke="#000000" d="M199.73433 1038.8366V740.79867"/>
<path transform="matrix(.24794466,0,0,.24830437,79.96213,-147.16101)" stroke-width="2.35266" stroke-linecap="butt" stroke-miterlimit="4" stroke-linejoin="miter" fill="none" stroke="#000000" d="M29.836169 1103.5505H90.61895V1116.0949H30.258269L29.836169 1103.5505Z"/>
<path transform="matrix(.24794466,0,0,.24830437,79.96213,-147.16101)" stroke-width="2.35266" stroke-linecap="butt" stroke-miterlimit="4" stroke-linejoin="miter" fill="none" stroke="#000000" d="M37.856115 1116.9312V1224.8121H82.599V1115.2584"/>
<path transform="matrix(.24794466,0,0,.24830437,79.96213,-147.16101)" stroke-width="2.35266" stroke-linecap="butt" stroke-miterlimit="4" stroke-linejoin="miter" fill="none" stroke="#000000" d="M39.122426 1135.7476H83.44321"/>
<path transform="matrix(.24794466,0,0,.24830437,79.96213,-147.16101)" stroke-width="2.35266" stroke-linecap="butt" stroke-miterlimit="4" stroke-linejoin="miter" fill="none" stroke="#000000" d="M39.122426 1162.0907H83.44321"/>
<path transform="matrix(.24794466,0,0,.24830437,79.96213,-147.16101)" stroke-width="2.35266" stroke-linecap="butt" stroke-miterlimit="4" stroke-linejoin="miter" fill="none" stroke="#000000" d="M12.529956 1223.5578V1186.761H110.87987V1224.394L12.529956 1223.5578Z"/>
<path transform="matrix(.24794466,0,0,.24830437,79.96213,-147.16101)" stroke-width="2.35266" stroke-linecap="butt" stroke-miterlimit="4" stroke-linejoin="miter" fill="none" stroke="#000000" d="M12.107857 1196.3784H110.87987"/>
<path transform="matrix(.24794466,0,0,.24830437,79.96213,-147.16101)" stroke-width="2.35266" stroke-linecap="butt" stroke-miterlimit="4" stroke-linejoin="miter" fill="none" stroke="#000000" d="M12.952055 1205.5776H109.61358"/>
<path transform="matrix(.24794466,0,0,.24830437,79.96213,-147.16101)" stroke-width="2.35266" stroke-linecap="butt" stroke-miterlimit="4" stroke-linejoin="miter" fill="none" stroke="#000000" d="M12.952055 1214.7769H110.87987"/>
<path transform="matrix(.24794466,0,0,.24830437,79.96213,-147.16101)" stroke-width="2.94083" stroke-linecap="butt" stroke-miterlimit="4" stroke-linejoin="miter" fill="none" stroke="#000000" d="M-1.8215268 1238.1928H49.25289"/>
<path transform="matrix(.24794466,0,0,.24830437,79.96213,-147.16101)" stroke-width="1.17633" stroke-linecap="butt" stroke-miterlimit="4" stroke-linejoin="miter" fill="none" stroke="#000000" d="M-1.3994274 1238.1928V1244.0469"/>
<path transform="matrix(.24794466,0,0,.24830437,79.96213,-147.16101)" stroke-width="1.17633" stroke-linecap="butt" stroke-miterlimit="4" stroke-linejoin="miter" fill="none" stroke="#000000" d="M48.83078 1238.1928V1243.6288"/>
<path transform="matrix(.24794466,0,0,.24830437,79.96213,-147.16101)" stroke-width="3.529" stroke-linecap="butt" stroke-miterlimit="4" stroke-linejoin="miter" fill="none" stroke="#000000" d="M26.45935 1237.3565 51.78551 1187.1793"/>
<path transform="matrix(.24794466,0,0,.24830437,79.96213,-147.16101)" stroke-width="3.529" stroke-linecap="butt" stroke-miterlimit="4" stroke-linejoin="miter" fill="none" stroke="#000000" d="M69.09172 1187.1793 95.26208 1237.7747"/>
<path transform="matrix(.24794466,0,0,.24830437,79.96213,-147.16101)" stroke-width="2.94083" stroke-linecap="butt" stroke-miterlimit="4" stroke-linejoin="miter" fill="none" stroke="#000000" d="M69.72487 1238.2138H120.79931"/>
<path transform="matrix(.24794466,0,0,.24830437,79.96213,-147.16101)" stroke-width="1.17633" stroke-linecap="butt" stroke-miterlimit="4" stroke-linejoin="miter" fill="none" stroke="#000000" d="M70.14697 1238.2138V1244.0679"/>
<path transform="matrix(.24794466,0,0,.24830437,79.96213,-147.16101)" stroke-width="1.17633" stroke-linecap="butt" stroke-miterlimit="4" stroke-linejoin="miter" fill="none" stroke="#000000" d="M120.3772 1238.2138V1243.6497"/>
<path transform="matrix(.24794466,0,0,.24830437,79.96213,-147.16101)" stroke-width="2.35266" stroke-linecap="butt" stroke-miterlimit="4" stroke-linejoin="miter" fill="none" stroke="#000000" d="M-129.64597 706.205H-69.354679V751.1472H-129.64597Z"/>
<path transform="matrix(.24794466,0,0,.24830437,79.96213,-147.16101)" stroke-width="2.35266" stroke-linecap="butt" stroke-miterlimit="4" stroke-linejoin="miter" fill="none" stroke="#000000" d="M-114.42391 706.50076V751.1473"/>
<path transform="matrix(.24794466,0,0,.24830437,79.96213,-147.16101)" stroke-width="2.35266" stroke-linecap="butt" stroke-miterlimit="4" stroke-linejoin="miter" fill="none" stroke="#000000" d="M-100.09727 706.205V751.1472"/>
<path transform="matrix(.24794466,0,0,.24830437,79.96213,-147.16101)" stroke-width="2.35266" stroke-linecap="butt" stroke-miterlimit="4" stroke-linejoin="miter" fill="none" stroke="#000000" d="M-86.0691 705.90939V750.8515"/>
<path transform="matrix(.24794466,0,0,.24830437,79.96213,-147.16101)" stroke-width="1.17633" stroke-linecap="butt" stroke-miterlimit="4" stroke-linejoin="miter" fill="none" stroke="#000000" d="M-116.21137 1243.2106H374.27195"/>
<path transform="matrix(.24794466,0,0,.24830437,79.96213,-147.16101)" d="M-114.52295 1244.8832C-116.1133 1249.8633-112.20462 1258.8314-109.45771 1264.954-107.25377 1269.8665-88.98447 1280.9837-84.13155 1284.1887-70.69639 1293.0615-54.665765 1297.7582-38.544466 1301.7507-23.931786 1305.3698-9.172882 1309.4982 5.354206 1314.295 17.526337 1318.3145 30.48773 1319.3128 43.343465 1319.3128 56.247194 1319.3128 69.08385 1315.1314 82.176898 1315.1314 97.08636 1315.1314 109.85057 1314.6663 124.38718 1311.7861 139.95334 1308.7022 155.93244 1307.319 171.66268 1303.4234 191.68982 1298.4634 212.16187 1297.931 232.44547 1295.0604 246.91526 1293.0126 262.25074 1289.3516 276.34416 1285.8613 279.6653 1285.0388 283.09779 1284.7462 286.4746 1284.1887 306.8794 1280.8198 328.00736 1278.2935 348.1016 1273.3169 350.3528 1272.7594 352.60404 1272.2019 354.85523 1271.6443 361.35066 1270.0358 368.1603 1270.0217 375.11619 1268.2992 381.99095 1266.5966 391.54154 1263.5087 397.06553 1260.7726 403.60725 1257.5324 400.0052 1256.9944 397.06553 1254.0823 394.3717 1251.4138 389.22279 1250.1978 385.24665 1248.2283 383.51249 1247.3694 378.5156 1246.1432 376.8046 1245.7195V1244.0469L-114.52295 1244.8832Z" fill="#cccccc" fill-rule="evenodd"/>
</g>
<g clip-path="url(#clip_3)">
<path transform="matrix(.24851091,0,0,.24884659,173.68834,-99.44005)" d="M210 627.3622H810V1052.3622H210Z" fill="#faebd7"/>
<path transform="matrix(.24851091,0,0,.24884659,173.68834,-99.44005)" d="M210 912.3622H810V942.3622H210Z" fill="#f4a460"/>
<path transform="matrix(.24851091,0,0,.24884659,173.68834,-99.44005)" d="M0 652.36227H250V1052.3623H0Z" fill="#dcdcdc"/>
<path transform="matrix(.24851091,0,0,.24884659,173.68834,-99.44005)" d="M0 1042.3622H250V1052.3622H0Z" fill="#8b4513"/>
<path transform="matrix(.24851091,0,0,.24884659,173.68834,-99.44005)" d="M39 946.3622H211V1052.3622H39Z" fill="#696969"/>
<path transform="matrix(.24851091,0,0,.24884659,173.68834,-99.44005)" d="M770 652.36227H1020V1052.3623H770Z" fill="#dcdcdc"/>
<path transform="matrix(.24851091,0,0,.24884659,173.68834,-99.44005)" d="M770 1042.3622H1020V1052.3622H770Z" fill="#8b4513"/>
<path transform="matrix(.24851091,0,0,.24884659,173.68834,-99.44005)" d="M809 946.3622H981V1052.3622H809Z" fill="#696969"/>
<path transform="matrix(.24851091,0,0,.24884659,173.68834,-99.44005)" d="M-2 647.3622H252V652.3622H-2Z" fill="#8b4513"/>
<path transform="matrix(.24851091,0,0,.24884659,173.68834,-99.44005)" d="M768 647.3622H1022V652.3622H768Z" fill="#8b4513"/>
<path transform="matrix(.24851091,0,0,.24884659,173.68834,-99.44005)" d="M0 675.3622H250V677.3622H0Z" fill="#8b4513"/>
<path transform="matrix(.24851091,0,0,.24884659,173.68834,-99.44005)" d="M0 705.3622H250V707.3622H0Z" fill="#8b4513"/>
<path transform="matrix(.24851091,0,0,.24884659,173.68834,-99.44005)" d="M770 675.3622H1020V677.3622H770Z" fill="#8b4513"/>
<path transform="matrix(.24851091,0,0,.24884659,173.68834,-99.44005)" d="M770 705.3622H1020V707.3622H770Z" fill="#8b4513"/>
<path transform="matrix(.24851091,0,0,.24884659,173.68834,-99.44005)" d="M250 675.3622H430V707.3622H250Z" fill="#8b4513"/>
<path transform="matrix(.24851091,0,0,.24884659,173.68834,-99.44005)" d="M590 675.3622H770V707.3622H590Z" fill="#8b4513"/>
<path transform="matrix(.24851091,0,0,.24884659,173.68834,-99.44005)" d="M45 952.3622H205V1052.3622H45Z" fill="#b0c4de"/>
<path transform="matrix(.24851091,0,0,.24884659,173.68834,-99.44005)" d="M815 952.3622H975V1052.3622H815Z" fill="#b0c4de"/>
<path transform="matrix(.24851091,0,0,.24884659,173.68834,-99.44005)" d="M75 846.3622H115V906.3622H75Z" fill="#b0c4de"/>
<path transform="matrix(.24851091,0,0,.24884659,173.68834,-99.44005)" d="M165 846.3622H205V906.3622H165Z" fill="#b0c4de"/>
<path transform="matrix(.24851091,0,0,.24884659,173.68834,-99.44005)" d="M75 744.3622H115V804.3622H75Z" fill="#b0c4de"/>
<path transform="matrix(.24851091,0,0,.24884659,173.68834,-99.44005)" d="M165 744.3622H205V804.3622H165Z" fill="#b0c4de"/>
<path transform="matrix(.24851091,0,0,.24884659,173.68834,-99.44005)" d="M75 714.3622H115V744.3622H75Z" fill="#8b4513"/>
<path transform="matrix(.24851091,0,0,.24884659,173.68834,-99.44005)" d="M165 714.3622H205V744.3622H165Z" fill="#8b4513"/>
<path transform="matrix(.24851091,0,0,.24884659,173.68834,-99.44005)" d="M815 846.3622H855V906.3622H815Z" fill="#b0c4de"/>
<path transform="matrix(.24851091,0,0,.24884659,173.68834,-99.44005)" d="M905 846.3622H945V906.3622H905Z" fill="#b0c4de"/>
<path transform="matrix(.24851091,0,0,.24884659,173.68834,-99.44005)" d="M815 744.3622H855V804.3622H815Z" fill="#b0c4de"/>
<path transform="matrix(.24851091,0,0,.24884659,173.68834,-99.44005)" d="M905 744.3622H945V804.3622H905Z" fill="#b0c4de"/>
<path transform="matrix(.24851091,0,0,.24884659,173.68834,-99.44005)" d="M815 714.3622H855V744.3622H815Z" fill="#8b4513"/>
<path transform="matrix(.24851091,0,0,.24884659,173.68834,-99.44005)" d="M905 714.3622H945V744.3622H905Z" fill="#8b4513"/>
<path transform="matrix(.24851091,0,0,.24884659,173.68834,-99.44005)" d="M45 1022.3622H205V1027.3622H45Z"/>
<path transform="matrix(.24851091,0,0,.24884659,173.68834,-99.44005)" d="M45 977.3622H205V982.3622H45Z"/>
<path transform="matrix(.24851091,0,0,.24884659,173.68834,-99.44005)" d="M90 952.3622H95V1052.3622H90Z"/>
<path transform="matrix(.24851091,0,0,.24884659,173.68834,-99.44005)" d="M155 952.3622H160V1052.3622H155Z"/>
<path transform="matrix(.24851091,0,0,.24884659,173.68834,-99.44005)" d="M815 1022.3622H975V1027.3622H815Z"/>
<path transform="matrix(.24851091,0,0,.24884659,173.68834,-99.44005)" d="M815 977.3622H975V982.3622H815Z"/>
<path transform="matrix(.24851091,0,0,.24884659,173.68834,-99.44005)" d="M860 952.3622H865V1052.3622H860Z"/>
<path transform="matrix(.24851091,0,0,.24884659,173.68834,-99.44005)" d="M925 952.3622H930V1052.3622H925Z"/>
<path transform="matrix(.24851091,0,0,.24884659,173.68834,-99.44005)" d="M250 1032.3622H770V1052.3622H250Z" fill="#8b4513"/>
<path transform="matrix(.24851091,0,0,.24884659,173.68834,-99.44005)" d="M110 917.3622H140V942.3622H110Z" fill="#8b4513"/>
<path transform="matrix(.24851091,0,0,.24884659,173.68834,-99.44005)" d="M880 917.3622H910V942.3622H880Z" fill="#8b4513"/>
<path transform="matrix(.24851091,0,0,.24884659,173.68834,-99.44005)" d="M300 744.3622H340V804.3622H300Z" fill="#b0c4de"/>
<path transform="matrix(.24851091,0,0,.24884659,173.68834,-99.44005)" d="M390 744.3622H430V804.3622H390Z" fill="#b0c4de"/>
<path transform="matrix(.24851091,0,0,.24884659,173.68834,-99.44005)" d="M300 846.3622H340V906.3622H300Z" fill="#b0c4de"/>
<path transform="matrix(.24851091,0,0,.24884659,173.68834,-99.44005)" d="M390 846.3622H430V906.3622H390Z" fill="#b0c4de"/>
<path transform="matrix(.24851091,0,0,.24884659,173.68834,-99.44005)" d="M590 744.3622H630V804.3622H590Z" fill="#b0c4de"/>
<path transform="matrix(.24851091,0,0,.24884659,173.68834,-99.44005)" d="M680 744.3622H720V804.3622H680Z" fill="#b0c4de"/>
<path transform="matrix(.24851091,0,0,.24884659,173.68834,-99.44005)" d="M590 846.3622H630V906.3622H590Z" fill="#b0c4de"/>
<path transform="matrix(.24851091,0,0,.24884659,173.68834,-99.44005)" d="M680 846.3622H720V906.3622H680Z" fill="#b0c4de"/>
<path transform="matrix(.24851091,0,0,.24884659,173.68834,-99.44005)" d="M208 622.3622H812V627.3622H208Z" fill="#8b4513"/>
<path transform="matrix(.24851091,0,0,.24884659,173.68834,-99.44005)" d="M260 917.3622H760V937.3622H260Z" fill="#8b4513"/>
<path transform="matrix(.24851091,0,0,.24884659,173.68834,-99.44005)" d="M300 952.3622H340V1012.3622H300Z" fill="#b0c4de"/>
<path transform="matrix(.24851091,0,0,.24884659,173.68834,-99.44005)" d="M680 952.3622H720V1012.3622H680Z" fill="#b0c4de"/>
<path transform="matrix(.24851091,0,0,.24884659,173.68834,-99.44005)" d="M406 942.3622H614V1052.3622H406Z" fill="#696969"/>
<path transform="matrix(.24851091,0,0,.24884659,173.68834,-99.44005)" d="M410 946.3622H610V1052.3622H410Z" fill="#b0c4de"/>
<path transform="matrix(.24851091,0,0,.24884659,173.68834,-99.44005)" d="M460 946.3622H470V1052.3622H460Z" fill="#696969"/>
<path transform="matrix(.24851091,0,0,.24884659,173.68834,-99.44005)" d="M550 946.3622H560V1052.3622H550Z" fill="#696969"/>
<path transform="matrix(.24851091,0,0,.24884659,173.68834,-99.44005)" d="M410 959.3622H610V964.3622H410Z" fill="#696969"/>
<path transform="matrix(.24851091,0,0,.24884659,173.68834,-99.44005)" d="M510 747.36227C507.37358 747.3623 504.77235 747.6185 502.19636 748.1309 499.6204 748.6433 497.11918 749.40206 494.69267 750.4071 492.2661 751.4122 489.96098 752.6443 487.77717 754.10348 485.59336 755.5626 483.57289 757.22079 481.71574 759.078 479.85856 760.9351 478.20039 762.9556 476.74119 765.13949 475.282 767.32327 474.0499 769.6284 473.04484 772.0549 472.03974 774.4814 471.28099 776.9826 470.7686 779.5586 470.2562 782.1346 470 784.7358 470 787.36227 469.99998 789.98867 470.25617 792.58987 470.76856 795.1658 471.2809 797.74179 472.03968 800.24307 473.04478 802.66958 474.04988 805.096 475.28199 807.4012 476.74116 809.58499 478.20036 811.7688 479.85853 813.7893 481.7157 815.6465 483.57289 817.5036 485.59336 819.16177 487.77714 820.6209 489.96095 822.0801 492.26609 823.31228 494.6926 824.3174 497.11915 825.32247 499.6204 826.0812 502.19636 826.59359 504.77235 827.10598 507.37358 827.3622 510 827.36227 518.2278 827.34756 525.73629 825.0162 532.5254 820.3681 528.79629 821.68399 524.95449 822.34866 521 822.36227 518.70187 822.3622 516.4258 822.138 514.1718 821.68966 511.91783 821.24136 509.72923 820.5774 507.606 819.69796 505.48283 818.8185 503.46583 817.74038 501.55497 816.46359 499.64418 815.18679 497.87629 813.7359 496.25126 812.11099 494.62623 810.4859 493.1753 808.71798 491.89854 806.8071 490.62178 804.89627 489.54365 802.8792 488.66419 800.75607 487.78474 798.6328 487.12083 796.4443 486.6725 794.19039 486.22416 791.9364 485.99998 789.66036 486 787.36227 485.99998 785.0641 486.22416 782.7881 486.67253 780.5341 487.12086 778.28018 487.78477 776.09158 488.66426 773.9684 489.54368 771.84518 490.6218 769.82809 491.89857 767.91726 493.17533 766.0064 494.62626 764.2385 496.25129 762.6135 497.8763 760.98849 499.64424 759.5376 501.55503 758.2608 503.46589 756.984 505.48289 755.90597 507.60609 755.0265 509.72926 754.14706 511.91783 753.48318 514.1718 753.0348 516.4258 752.5864 518.70187 752.36227 521 752.36227 525.00436 752.3768 528.8917 753.0584 532.6621 754.40719 525.8318 749.7105 518.2778 747.3622 510 747.36227Z" fill="#ff0000"/>
<path transform="matrix(.21131365,0,0,.21159911,220.62267,41.19844)" d="M348.8875 328.03727 350.0125 329.83726H351.6625V341.01225H353.5875V329.83726H356.0625V341.01225H357.9875V323.41224H356.0625V328.03724H353.5875V323.41224H351.6625V328.03724H348.8875V328.03727Z"/>
<path transform="matrix(.21131365,0,0,.21159911,220.62267,41.19844)" d="M360.1793 338.38728C360.1793 338.9206 360.27098 339.38728 360.45429 339.78727 360.65428 340.1706 360.90428 340.48728 361.20429 340.73728 361.5043 340.98728 361.84596 341.1706 362.22929 341.28727 362.6126 341.40394 362.99595 341.46226 363.37928 341.46226 363.59596 341.46226 363.87928 341.4206 364.22929 341.33726 364.57929 341.27058 364.92094 341.1289 365.25428 340.91227 365.60429 340.67893 365.89595 340.36225 366.12928 339.96226 366.37928 339.56227 366.50428 339.03724 366.50428 338.38725V326.03724C366.50428 325.68724 366.4376 325.33726 366.30427 324.98725 366.1876 324.62059 365.99595 324.28727 365.72926 323.98725 365.47926 323.68724 365.15425 323.44557 364.75425 323.26225 364.35426 323.06227 363.87925 322.96226 363.32926 322.96226 362.94593 322.96226 362.5626 323.02894 362.17927 323.16227 361.8126 323.27894 361.47929 323.47059 361.17927 323.73728 360.87925 323.98728 360.63758 324.30397 360.45426 324.6873 360.27095 325.07063 360.17927 325.52064 360.17927 326.0373V338.3873L360.1793 338.38728ZM362.10429 326.51228C362.10429 326.37895 362.1126 326.22059 362.12928 326.03727 362.14595 325.85395 362.1876 325.67893 362.25428 325.51228 362.33763 325.32896 362.46263 325.17893 362.62928 325.06227 362.79594 324.9456 363.0376 324.88728 363.35429 324.88728 363.6543 324.88728 363.88764 324.9456 364.0543 325.06227 364.22096 325.17893 364.33763 325.3206 364.4043 325.48725 364.48765 325.6539 364.53764 325.83726 364.5543 326.03724 364.57096 326.22056 364.57929 326.3789 364.57929 326.51225V337.86225C364.57929 337.99559 364.57096 338.16227 364.5543 338.36225 364.53764 338.54557 364.48765 338.72059 364.4043 338.88725 364.33763 339.0539 364.22096 339.19557 364.0543 339.31224 363.9043 339.4289 363.6793 339.4872 363.3793 339.4872 363.06263 339.4872 362.81263 339.43724 362.6293 339.33723 362.46266 339.22056 362.33766 339.0789 362.2543 338.91224 362.18763 338.74559 362.14598 338.57057 362.1293 338.38725 362.11265 338.18727 362.1043 338.01225 362.1043 337.86225V326.51225L362.10429 326.51228Z"/>
<path transform="matrix(.21131365,0,0,.21159911,220.62267,41.19844)" d="M370.8086 341.01228C371.25859 340.21226 371.5586 339.42893 371.7086 338.66227 371.85859 337.87895 371.9336 337.2206 371.9336 336.68727 371.9336 336.3539 371.9086 336.0456 371.85859 335.76228 371.82527 335.46226 371.75859 335.16227 371.65858 334.86228 371.57524 334.5456 371.45857 334.20396 371.30857 333.83729 371.15858 333.4706 370.97523 333.05397 370.75859 332.58729 370.5586 332.1373 370.3919 331.75398 370.25859 331.4373 370.1419 331.10395 370.05027 330.8123 369.98359 330.5623 369.93357 330.29563 369.90025 330.05397 369.88359 329.83729 369.8669 329.60395 369.85859 329.3706 369.85859 329.13728 369.85859 327.98728 370.0836 326.92893 370.53358 325.96229 371.00025 324.97895 371.60859 324.12895 372.35859 323.4123H369.73359C369.13359 324.24565 368.67527 325.14564 368.35859 326.1123 368.05857 327.0623 367.90858 328.0623 367.90858 329.1123 367.90858 329.8623 367.9919 330.54563 368.15858 331.1623 368.32524 331.7623 368.57524 332.42897 368.90858 333.1623 369.10856 333.5956 369.27525 333.9706 369.40858 334.2873 369.55857 334.60398 369.67524 334.89564 369.75859 335.1623 369.84193 335.42897 369.90025 335.69563 369.93357 335.96229 369.98359 336.21229 370.00859 336.4956 370.00859 336.8123 370.00859 337.5623 369.85026 338.30397 369.53358 339.0373 369.23356 339.77064 368.8419 340.42897 368.35859 341.0123H370.8086V341.01228Z"/>
<path transform="matrix(.21131365,0,0,.21159911,220.62267,41.19844)" d="M375.70469 341.01228V337.68727C375.988 337.53727 376.338 337.32893 376.75468 337.06227 377.17134 336.77894 377.62135 336.3706 378.10469 335.83726 378.738 335.13728 379.22969 334.33726 379.57969 333.43727 379.9297 332.53727 380.10469 331.5706 380.10469 330.53727 380.10469 329.63728 379.963 328.77894 379.6797 327.96226 379.41304 327.14558 379.01304 326.39558 378.47969 325.71226 377.94636 325.02894 377.2797 324.42893 376.47969 323.91227 375.69636 323.37895 374.79637 322.95396 373.77967 322.63728V341.01228H375.70466 375.70469ZM375.70469 325.73728C376.2547 326.15394 376.68803 326.60395 377.00468 327.08729 377.338 327.55397 377.588 328.02064 377.75468 328.48728 377.938 328.95396 378.05467 329.38728 378.10469 329.78727 378.1547 330.18727 378.1797 330.51228 378.1797 330.76228 378.1797 331.11228 378.13804 331.4956 378.0547 331.91227 377.988 332.32893 377.85469 332.7456 377.6547 333.16227 377.47138 333.57893 377.22138 333.98728 376.9047 334.38728 376.588 334.78727 376.18803 335.16227 375.70469 335.51228V325.73728Z"/>
<path transform="matrix(.21131365,0,0,.21159911,220.62267,41.19844)" d="M381.29924 341.01228H383.2242V323.41227H381.29924V341.01228Z"/>
<path transform="matrix(.21131365,0,0,.21159911,220.62267,41.19844)" d="M388.7043 341.01228V325.33729H390.80433V323.4123H384.65434V325.33729H386.75434V341.01228H388.70436 388.7043Z"/>
<path transform="matrix(.21131365,0,0,.21159911,220.62267,41.19844)" d="M393.64924 322.18727 390.02424 341.01228H391.99925L393.64924 331.48728 395.32423 341.01228H397.27424L393.64924 322.18727Z"/>
<path transform="matrix(.21131365,0,0,.21159911,220.62267,41.19844)" d="M403.8094 339.08729H401.6594C401.37608 339.08729 401.1594 339.07063 401.0094 339.0373 400.8594 338.98728 400.75108 338.9123 400.6844 338.8123 400.6177 338.71229 400.57606 338.57063 400.5594 338.3873 400.54273 338.20399 400.5344 337.97065 400.5344 337.6873V323.4123H398.58439V337.6873C398.58439 338.1873 398.63438 338.64564 398.73439 339.0623 398.83439 339.46229 399.00105 339.8123 399.23439 340.11228 399.48439 340.3956 399.80107 340.6206 400.1844 340.78727 400.58439 340.93727 401.07606 341.01228 401.6594 341.01228H403.8094V339.08729Z"/>
<path transform="matrix(.21131365,0,0,.21159911,220.62267,41.19844)" d="M348.96134 373.03727 346.93635 366.78727C347.703 366.03727 348.21968 365.18727 348.48634 364.23728 348.753 363.2706 348.88633 362.2956 348.88633 361.3123V354.6623H346.9363V361.3123C346.9363 361.69563 346.90299 362.17063 346.8363 362.73728 346.76963 363.30397 346.54466 363.9706 346.16133 364.73728 345.89466 365.2706 345.57798 365.70393 345.2113 366.03727 344.84465 366.3706 344.54466 366.62895 344.3113 366.81227L348.9613 373.03727H348.96134ZM342.38633 372.26228H344.3113V369.06227 366.26228 354.66227H342.38633V372.26228Z"/>
<path transform="matrix(.21131365,0,0,.21159911,220.62267,41.19844)" d="M350.92814 372.26228H352.85313V354.66227H350.92814V372.26228Z"/>
<path transform="matrix(.21131365,0,0,.21159911,220.62267,41.19844)" d="M365.4332 372.26228H363.4332L361.8582 362.96229 359.9332 373.0373 358.0832 362.96229 356.4582 372.26228H354.38319L358.0832 353.43727 359.9082 363.51228 361.9332 353.43727 365.4332 372.26228Z"/>
<path transform="matrix(.21131365,0,0,.21159911,220.62267,41.19844)" d="M370.44377 354.66227H368.11875V359.28727H365.34376L366.46876 361.08726H368.11875V372.78727C370.18544 372.20393 371.75209 371.31227 372.81877 370.11228 373.9021 368.8956 374.44377 367.45393 374.44377 365.78727 374.44377 364.83729 374.26878 363.94563 373.91877 363.11228 373.56877 362.27894 373.0771 361.53727 372.44377 360.88728 372.39375 360.83726 372.34376 360.7956 372.29377 360.76228 372.24375 360.71226 372.2021 360.66227 372.16877 360.61228 372.63545 360.31227 372.9771 359.9206 373.19377 359.4373 373.41044 358.9373 373.51878 358.42063 373.51878 357.8873 373.51878 357.67063 373.4771 357.37898 373.39378 357.0123 373.3271 356.64564 373.1771 356.2873 372.94377 355.9373 372.72709 355.58729 372.41877 355.2873 372.01878 355.0373 371.61878 354.7873 371.09376 354.6623 370.44377 354.6623V354.66227ZM370.04377 369.93727V361.18727C370.5271 361.50395 370.9271 361.8539 371.24378 362.23725 371.56047 362.6039 371.81047 362.98725 371.99378 363.38725 372.19377 363.77058 372.3271 364.1539 372.39378 364.53724 372.4771 364.9039 372.51878 365.25389 372.51878 365.58723 372.51878 365.82057 372.49378 366.10389 372.44377 366.43724 372.39375 366.77058 372.27708 367.13725 372.09376 367.53724 371.9271 367.93724 371.6771 368.34559 371.34376 368.76225 371.02708 369.1789 370.59376 369.57057 370.04377 369.93724V369.93727ZM370.04377 356.56227C370.19377 356.56227 370.3521 356.58726 370.51878 356.63728 370.7021 356.6706 370.86878 356.73728 371.01878 356.83729 371.18544 356.92063 371.31877 357.05397 371.41877 357.23728 371.53544 357.40394 371.59376 357.6206 371.59376 357.88728 371.59376 358.4373 371.4271 358.80397 371.09376 358.98728 370.77708 359.1706 370.4271 359.2706 370.04377 359.28727V356.56227Z"/>
<path transform="matrix(.21131365,0,0,.21159911,220.62267,41.19844)" d="M374.57228 359.28727 375.69728 361.08726H377.34727V369.33726C377.34727 369.55393 377.36393 369.82893 377.39726 370.16227 377.43058 370.4956 377.53059 370.8206 377.69725 371.13728 377.88056 371.4373 378.14723 371.70396 378.49723 371.93727 378.84724 372.15394 379.34724 372.26228 379.99723 372.26228H382.84724V370.33729H379.99723C379.63056 370.33729 379.4139 370.25395 379.34724 370.08729 379.2972 369.90397 379.27223 369.65397 379.27223 369.33729V361.08729H382.84724V359.2873H379.27223V356.58729H382.84724V354.6623H377.34724V359.2873H374.57225L374.57228 359.28727Z"/>
<path transform="matrix(.21131365,0,0,.21159911,220.62267,41.19844)" d="M386.64805 356.98728C387.19807 357.40394 387.63139 357.85395 387.94804 358.33729 388.28138 358.82063 388.53138 359.29563 388.69804 359.76228 388.88136 360.22895 388.99803 360.66227 389.04804 361.06227 389.09806 361.4456 389.12306 361.76228 389.12306 362.01228 389.12306 362.37895 389.0814 362.7706 388.99806 363.18727 388.9147 363.6039 388.78138 364.02894 388.59806 364.46226 388.41474 364.8789 388.1564 365.2956 387.82307 365.71226 387.50639 366.11225 387.11473 366.4789 386.64808 366.81227L391.34809 373.03727 389.0481 366.81227C389.16477 366.67893 389.33143 366.4789 389.5481 366.21226 389.78144 365.92893 390.00645 365.57893 390.22309 365.16227 390.45643 364.7456 390.6481 364.26228 390.7981 363.71226 390.96476 363.14558 391.0481 362.5039 391.0481 361.78727 391.0481 361.03727 390.93144 360.2706 390.6981 359.48728 390.46476 358.68727 390.08976 357.92893 389.5731 357.21229 389.0731 356.47895 388.4231 355.82063 387.62309 355.23728 386.82307 354.65394 385.8564 354.20396 384.72309 353.88728V372.26228H386.64808V367.91227 366.06227 356.98725L386.64805 356.98728Z"/>
<path transform="matrix(.21131365,0,0,.21159911,220.62267,41.19844)" d="M397.99885 370.33729H395.84886C395.56553 370.33729 395.34886 370.32063 395.19886 370.2873 395.04887 370.23728 394.94053 370.1623 394.87385 370.0623 394.80717 369.96229 394.7655 369.82063 394.74885 369.6373 394.73219 369.45399 394.72386 369.22065 394.72386 368.9373V354.6623H392.77384V368.9373C392.77384 369.4373 392.82383 369.89564 392.92384 370.3123 393.02384 370.71229 393.1905 371.0623 393.42384 371.36228 393.67384 371.6456 393.9905 371.8706 394.37385 372.03727 394.77384 372.18727 395.2655 372.26228 395.84886 372.26228H397.99885V370.33729Z"/>
<path transform="matrix(.21131365,0,0,.21159911,220.62267,41.19844)" d="M396.44728 359.28727 397.57228 361.08726H399.22227V369.33726C399.22227 369.55393 399.23893 369.82893 399.27226 370.16227 399.30558 370.4956 399.40559 370.8206 399.57225 371.13728 399.75556 371.4373 400.02223 371.70396 400.37223 371.93727 400.72224 372.15394 401.22224 372.26228 401.87223 372.26228H404.72224V370.33729H401.87223C401.50556 370.33729 401.2889 370.25395 401.22224 370.08729 401.1722 369.90397 401.14723 369.65397 401.14723 369.33729V361.08729H404.72224V359.2873H401.14723V356.58729H404.72224V354.6623H399.22224V359.2873H396.44725L396.44728 359.28727Z"/>
<path transform="matrix(.21131365,0,0,.21159911,220.62267,41.19844)" d="M408.34806 372.26228H410.27305V361.21229L412.94804 354.6623H410.97303L409.32304 359.1873 407.64805 354.6623H405.69804L408.34803 361.21229V372.26228H408.34806Z"/>
<path transform="matrix(.02920371,0,0,.029243159,256.60777,40.05488)" d="M1710.8032 942.828C1710.8032 1058.958 1616.6642 1153.098 1500.5332 1153.098 1384.4022 1153.098 1290.2632 1058.957 1290.2632 942.828 1290.2632 826.699 1384.4022 732.558 1500.5332 732.558 1616.6642 732.558 1710.8032 826.699 1710.8032 942.828Z" fill="#ffffff"/>
<path transform="matrix(.02920371,0,0,.029243159,256.60777,40.05488)" stroke-width="4.9383" stroke-linecap="butt" stroke-miterlimit="4" stroke-linejoin="miter" fill="none" stroke="#000000" d="M1710.8032 942.828C1710.8032 1058.958 1616.6642 1153.098 1500.5332 1153.098 1384.4022 1153.098 1290.2632 1058.957 1290.2632 942.828 1290.2632 826.699 1384.4022 732.558 1500.5332 732.558 1616.6642 732.558 1710.8032 826.699 1710.8032 942.828Z"/>
<path transform="matrix(.02920371,0,0,.029243159,256.60777,40.05488)" stroke-width="4.9383" stroke-linecap="butt" stroke-miterlimit="4" stroke-linejoin="miter" fill="none" stroke="#000000" d="M1392.7332 866.708 1327.4552 859.6505"/>
<path transform="matrix(.02920371,0,0,.029243159,256.60777,40.05488)" stroke-width="4.9383" stroke-linecap="butt" stroke-miterlimit="4" stroke-linejoin="miter" fill="none" stroke="#000000" d="M1379.4732 889.678 1340.7232 836.678"/>
<path transform="matrix(.02920371,0,0,.029243159,256.60777,40.05488)" stroke-width="4.9383" stroke-linecap="butt" stroke-miterlimit="4" stroke-linejoin="miter" fill="none" stroke="#000000" d="M1385.9932 1096.448 1417.9631 1045.012"/>
<path transform="matrix(.02920371,0,0,.029243159,256.60777,40.05488)" stroke-width="4.9383" stroke-linecap="butt" stroke-miterlimit="4" stroke-linejoin="miter" fill="none" stroke="#000000" d="M1395.9533 1103.888 1427.9242 1052.4519"/>
<path transform="matrix(.02920371,0,0,.029243159,256.60777,40.05488)" stroke-width="4.9383" stroke-linecap="butt" stroke-miterlimit="4" stroke-linejoin="miter" fill="none" stroke="#000000" d="M1443.6032 1062.778 1425.5602 1120.937"/>
<path transform="matrix(.02920371,0,0,.029243159,256.60777,40.05488)" stroke-width="4.9383" stroke-linecap="butt" stroke-miterlimit="4" stroke-linejoin="miter" fill="none" stroke="#000000" d="M1443.5032 1062.718 1402.7642 1108.114"/>
<path transform="matrix(.02920371,0,0,.029243159,256.60777,40.05488)" stroke-width="4.9383" stroke-linecap="butt" stroke-miterlimit="4" stroke-linejoin="miter" fill="none" stroke="#000000" d="M1324.6832 1015.018 1376.6232 983.878"/>
<path transform="matrix(.02920371,0,0,.029243159,256.60777,40.05488)" stroke-width="4.9383" stroke-linecap="butt" stroke-miterlimit="4" stroke-linejoin="miter" fill="none" stroke="#000000" d="M1328.7732 1027.008 1380.7131 995.86807"/>
<path transform="matrix(.02920371,0,0,.029243159,256.60777,40.05488)" stroke-width="4.9383" stroke-linecap="butt" stroke-miterlimit="4" stroke-linejoin="miter" fill="none" stroke="#000000" d="M1334.2332 1038.178 1386.1731 1007.03799"/>
<path transform="matrix(.02920371,0,0,.029243159,256.60777,40.05488)" stroke-width="4.9383" stroke-linecap="butt" stroke-miterlimit="4" stroke-linejoin="miter" fill="none" stroke="#000000" d="M1396.0833 1022.718 1352.6753 1067.1221"/>
<path transform="matrix(.02920371,0,0,.029243159,256.60777,40.05488)" stroke-width="4.9383" stroke-linecap="butt" stroke-miterlimit="4" stroke-linejoin="miter" fill="none" stroke="#000000" d="M1395.3333 1023.288 1338.3502 1045.048"/>
<path transform="matrix(.02920371,0,0,.029243159,256.60777,40.05488)" stroke-width="4.9383" stroke-linecap="butt" stroke-miterlimit="4" stroke-linejoin="miter" fill="none" stroke="#000000" d="M1421.2232 767.308 1451.5042 819.756"/>
<path transform="matrix(.02920371,0,0,.029243159,256.60777,40.05488)" stroke-width="4.9383" stroke-linecap="butt" stroke-miterlimit="4" stroke-linejoin="miter" fill="none" stroke="#000000" d="M1419.8832 837.438 1412.8257 772.16"/>
<path transform="matrix(.02920371,0,0,.029243159,256.60777,40.05488)" stroke-width="4.9383" stroke-linecap="butt" stroke-miterlimit="4" stroke-linejoin="miter" fill="none" stroke="#000000" d="M1442.8532 824.178 1389.8532 785.428"/>
<path transform="matrix(.02920371,0,0,.029243159,256.60777,40.05488)" stroke-width="4.9383" stroke-linecap="butt" stroke-miterlimit="4" stroke-linejoin="miter" fill="none" stroke="#000000" d="M1309.1532 961.428H1369.7152"/>
<path transform="matrix(.02920371,0,0,.029243159,256.60777,40.05488)" stroke-width="4.9383" stroke-linecap="butt" stroke-miterlimit="4" stroke-linejoin="miter" fill="none" stroke="#000000" d="M1369.2133 925.198 1309.1513 951.725"/>
<path transform="matrix(.02920371,0,0,.029243159,256.60777,40.05488)" stroke-width="4.9383" stroke-linecap="butt" stroke-miterlimit="4" stroke-linejoin="miter" fill="none" stroke="#000000" d="M1369.2133 951.72799 1309.1532 925.19796"/>
<path transform="matrix(.02920371,0,0,.029243159,256.60777,40.05488)" stroke-width="4.9383" stroke-linecap="butt" stroke-miterlimit="4" stroke-linejoin="miter" fill="none" stroke="#000000" d="M1673.5532 1027.348 1620.7432 997.698"/>
<path transform="matrix(.02920371,0,0,.029243159,256.60777,40.05488)" stroke-width="4.9383" stroke-linecap="butt" stroke-miterlimit="4" stroke-linejoin="miter" fill="none" stroke="#000000" d="M1611.9932 1014.308 1656.2892 1057.02"/>
<path transform="matrix(.02920371,0,0,.029243159,256.60777,40.05488)" stroke-width="4.9383" stroke-linecap="butt" stroke-miterlimit="4" stroke-linejoin="miter" fill="none" stroke="#000000" d="M1612.0532 1014.198 1669.6332 1034.324"/>
<path transform="matrix(.02920371,0,0,.029243159,256.60777,40.05488)" stroke-width="4.9383" stroke-linecap="butt" stroke-miterlimit="4" stroke-linejoin="miter" fill="none" stroke="#000000" d="M1567.1432 1057.318 1607.8322 1103.261"/>
<path transform="matrix(.02920371,0,0,.029243159,256.60777,40.05488)" stroke-width="4.9383" stroke-linecap="butt" stroke-miterlimit="4" stroke-linejoin="miter" fill="none" stroke="#000000" d="M1567.0232 1057.368 1584.6732 1115.755"/>
<path transform="matrix(.02920371,0,0,.029243159,256.60777,40.05488)" stroke-width="4.9383" stroke-linecap="butt" stroke-miterlimit="4" stroke-linejoin="miter" fill="none" stroke="#000000" d="M1483.4533 1134.028V1074.906"/>
<path transform="matrix(.02920371,0,0,.029243159,256.60777,40.05488)" stroke-width="4.9383" stroke-linecap="butt" stroke-miterlimit="4" stroke-linejoin="miter" fill="none" stroke="#000000" d="M1502.0432 1074.878 1517.8092 1134.9401"/>
<path transform="matrix(.02920371,0,0,.029243159,256.60777,40.05488)" stroke-width="4.9383" stroke-linecap="butt" stroke-miterlimit="4" stroke-linejoin="miter" fill="none" stroke="#000000" d="M1502.0932 1075.408 1491.4572 1135.47"/>
<path transform="matrix(.02920371,0,0,.029243159,256.60777,40.05488)" stroke-width="4.9383" stroke-linecap="butt" stroke-miterlimit="4" stroke-linejoin="miter" fill="none" stroke="#000000" d="M1612.1032 874.888 1663.4082 842.746 1612.1032 874.88796V874.888Z"/>
<path transform="matrix(.02920371,0,0,.029243159,256.60777,40.05488)" stroke-width="4.9383" stroke-linecap="butt" stroke-miterlimit="4" stroke-linejoin="miter" fill="none" stroke="#000000" d="M1618.6732 885.388 1669.9783 853.246 1618.6732 885.38796V885.388Z"/>
<path transform="matrix(.02920371,0,0,.029243159,256.60777,40.05488)" stroke-width="4.9383" stroke-linecap="butt" stroke-miterlimit="4" stroke-linejoin="miter" fill="none" stroke="#000000" d="M1566.3333 830.928 1596.3373 778.344 1566.3333 830.928Z"/>
<path transform="matrix(.02920371,0,0,.029243159,256.60777,40.05488)" stroke-width="4.9383" stroke-linecap="butt" stroke-miterlimit="4" stroke-linejoin="miter" fill="none" stroke="#000000" d="M1631.2232 931.47799H1691.7962 1631.2232Z"/>
<path transform="matrix(.02920371,0,0,.029243159,256.60777,40.05488)" stroke-width="4.9383" stroke-linecap="butt" stroke-miterlimit="4" stroke-linejoin="miter" fill="none" stroke="#000000" d="M1631.9232 943.988H1692.4652 1631.9232Z"/>
<path transform="matrix(.02920371,0,0,.029243159,256.60777,40.05488)" stroke-width="4.9383" stroke-linecap="butt" stroke-miterlimit="4" stroke-linejoin="miter" fill="none" stroke="#000000" d="M1631.9232 956.378H1691.7963 1631.9232Z"/>
<path transform="matrix(.02920371,0,0,.029243159,256.60777,40.05488)" stroke-width="4.9383" stroke-linecap="butt" stroke-miterlimit="4" stroke-linejoin="miter" fill="none" stroke="#000000" d="M1524.0032 751.258V811.82"/>
<path transform="matrix(.02920371,0,0,.029243159,256.60777,40.05488)" stroke-width="4.9383" stroke-linecap="butt" stroke-miterlimit="4" stroke-linejoin="miter" fill="none" stroke="#000000" d="M1511.6132 751.258V811.82"/>
<path transform="matrix(.02920371,0,0,.029243159,256.60777,40.05488)" stroke-width="4.9383" stroke-linecap="butt" stroke-miterlimit="4" stroke-linejoin="miter" fill="none" stroke="#000000" d="M1503.6032 811.318 1477.2031 751.618"/>
<path transform="matrix(.02920371,0,0,.029243159,256.60777,40.05488)" stroke-width="4.9383" stroke-linecap="butt" stroke-miterlimit="4" stroke-linejoin="miter" fill="none" stroke="#000000" d="M1476.8432 812.03799 1503.6022 751.256"/>
<path transform="matrix(.02920371,0,0,.029243159,256.60777,40.05488)" stroke-width="4.9383" stroke-linecap="butt" stroke-miterlimit="4" stroke-linejoin="miter" fill="none" stroke="#000000" d="M1632.4332 942.828C1632.4332 1015.674 1573.3793 1074.728 1500.5332 1074.728 1427.6873 1074.728 1368.6332 1015.674 1368.6332 942.828 1368.6332 869.982 1427.6871 810.928 1500.5332 810.928 1573.3792 810.928 1632.4332 869.98098 1632.4332 942.828Z"/>
<path transform="matrix(.02920371,0,0,.029243159,256.60777,40.05488)" stroke-width="4.9383" stroke-linecap="butt" stroke-miterlimit="4" stroke-linejoin="miter" fill="none" stroke="#000000" d="M1691.5532 942.828C1691.5532 1048.328 1606.0322 1133.848 1500.5332 1133.848 1395.0342 1133.848 1309.5132 1048.327 1309.5132 942.828 1309.5132 837.329 1395.0342 751.808 1500.5332 751.808 1606.0322 751.808 1691.5532 837.329 1691.5532 942.828Z"/>
<path transform="matrix(.02920371,0,0,.029243159,256.60777,40.05488)" d="M1450.9605 826.2512 1453.5243 846.17526 1452.5046 867.5597 1490.6432 948.44888C1493.4268 953.37167 1498.3027 955.7705 1503.2479 953.7554 1508.1935 951.7402 1510.0043 946.61666 1508.5546 941.15066L1479.2566 856.6596 1463.5919 842.07339 1451.5319 826.0186C1451.3328 826.0995 1451.1505 826.1739 1450.9602 826.2516L1450.9605 826.2512Z" fill="#ffffff"/>
<path transform="matrix(.02920371,0,0,.029243159,256.60777,40.05488)" stroke-width="3.2922" stroke-linecap="butt" stroke-miterlimit="4" stroke-linejoin="miter" fill="none" stroke="#000000" d="M1450.9605 826.2512 1453.5243 846.17526 1452.5046 867.5597 1490.6432 948.44888C1493.4268 953.37167 1498.3027 955.7705 1503.2479 953.7554 1508.1935 951.7402 1510.0043 946.61666 1508.5546 941.15066L1479.2566 856.6596 1463.5919 842.07339 1451.5319 826.0186C1451.3328 826.0995 1451.1505 826.1739 1450.9602 826.2516L1450.9605 826.2512Z"/>
<path transform="matrix(.02920371,0,0,.029243159,256.60777,40.05488)" d="M1659.7432 833.178 1640.8181 839.9156 1619.7051 843.4616 1494.525 935.0996C1490.3057 938.8654 1488.9974 944.13986 1492.017 948.5446 1495.0368 952.9492 1500.4281 953.6303 1505.4619 951.0525L1636.0419 867.2885 1646.9679 848.8835 1660.0939 833.6885C1659.9722 833.51119 1659.8611 833.349 1659.7448 833.1793L1659.7432 833.178Z" fill="#ffffff"/>
<path transform="matrix(.02920371,0,0,.029243159,256.60777,40.05488)" stroke-width="3.2922" stroke-linecap="butt" stroke-miterlimit="4" stroke-linejoin="miter" fill="none" stroke="#000000" d="M1659.7432 833.178 1640.8181 839.9156 1619.7051 843.4616 1494.525 935.0996C1490.3057 938.8654 1488.9974 944.13986 1492.017 948.5446 1495.0368 952.9492 1500.4281 953.6303 1505.4619 951.0525L1636.0419 867.2885 1646.9679 848.8835 1660.0939 833.6885C1659.9722 833.51119 1659.8611 833.349 1659.7448 833.1793L1659.7432 833.178Z"/>
<path transform="matrix(.02920371,0,0,.029243159,256.60777,40.05488)" stroke-width="3.2922" stroke-linecap="butt" stroke-miterlimit="4" stroke-linejoin="miter" fill="none" stroke="#000000" d="M1503.1232 942.828C1503.1232 944.2591 1501.9631 945.4191 1500.532 945.4191 1499.1008 945.4191 1497.9409 944.25918 1497.9409 942.828 1497.9409 941.3968 1499.101 940.2368 1500.532 940.2368 1501.9631 940.2368 1503.1232 941.3968 1503.1232 942.828Z"/>
</g>
<g clip-path="url(#clip_4)">
<path transform="matrix(.718845,0,0,.718845,.3594225,.3594225)" stroke-width="1" stroke-linecap="butt" stroke-miterlimit="10" stroke-linejoin="miter" fill="none" stroke="#0000ff" d="M46 231V37.37"/>
<path transform="matrix(.718845,0,0,.718845,.3594225,.3594225)" d="M46 32.12 49.5 39.12 46 37.37 42.5 39.12 46 32.12Z" fill="#0000ff"/>
<path transform="matrix(.718845,0,0,.718845,.3594225,.3594225)" stroke-width="1" stroke-linecap="butt" stroke-miterlimit="10" stroke-linejoin="miter" fill="none" stroke="#0000ff" d="M46 32.12 49.5 39.12 46 37.37 42.5 39.12 46 32.12Z"/>
<path transform="matrix(.718845,0,0,.718845,.3594225,.3594225)" stroke-width="1" stroke-linecap="butt" stroke-miterlimit="10" stroke-linejoin="miter" fill="none" stroke="#0000ff" d="M616 31V224.63"/>
<path transform="matrix(.718845,0,0,.718845,.3594225,.3594225)" d="M616 229.88 612.5 222.88 616 224.63 619.5 222.88 616 229.88Z" fill="#0000ff"/>
<path transform="matrix(.718845,0,0,.718845,.3594225,.3594225)" stroke-width="1" stroke-linecap="butt" stroke-miterlimit="10" stroke-linejoin="miter" fill="none" stroke="#0000ff" d="M616 229.88 612.5 222.88 616 224.63 619.5 222.88 616 229.88Z"/>
<use data-text="C" xlink:href="#font_5_38" transform="matrix(8.626141,0,0,-8.626141,6.3460538,191.21277)"/>
<use data-text="o" xlink:href="#font_5_82" transform="matrix(8.626141,0,0,-8.626141,12.574128,191.21277)"/>
<use data-text="n" xlink:href="#font_5_81" transform="matrix(8.626141,0,0,-8.626141,17.8447,191.21277)"/>
<use data-text="s" xlink:href="#font_5_86" transform="matrix(8.626141,0,0,-8.626141,23.115273,191.21277)"/>
<use data-text="t" xlink:href="#font_5_87" transform="matrix(8.626141,0,0,-8.626141,27.911408,191.21277)"/>
<use data-text="r" xlink:href="#font_5_85" transform="matrix(8.626141,0,0,-8.626141,30.78391,191.21277)"/>
<use data-text="u" xlink:href="#font_5_88" transform="matrix(8.626141,0,0,-8.626141,34.139478,191.21277)"/>
<use data-text="c" xlink:href="#font_5_70" transform="matrix(8.626141,0,0,-8.626141,39.41005,191.21277)"/>
<use data-text="t" xlink:href="#font_5_87" transform="matrix(8.626141,0,0,-8.626141,44.206186,191.21277)"/>
<use data-text="o" xlink:href="#font_5_82" transform="matrix(8.626141,0,0,-8.626141,47.07869,191.21277)"/>
<use data-text="r" xlink:href="#font_5_85" transform="matrix(8.626141,0,0,-8.626141,52.349264,191.21277)"/>
<use data-text="s" xlink:href="#font_5_86" transform="matrix(8.626141,0,0,-8.626141,55.70483,191.21277)"/>
<use data-text="D" xlink:href="#font_5_39" transform="matrix(8.626141,0,0,-8.626141,418.9631,11.50152)"/>
<use data-text="e" xlink:href="#font_5_72" transform="matrix(8.626141,0,0,-8.626141,425.19117,11.50152)"/>
<use data-text="s" xlink:href="#font_5_86" transform="matrix(8.626141,0,0,-8.626141,429.9873,11.50152)"/>
<use data-text="t" xlink:href="#font_5_87" transform="matrix(8.626141,0,0,-8.626141,434.78343,11.50152)"/>
<use data-text="r" xlink:href="#font_5_85" transform="matrix(8.626141,0,0,-8.626141,437.6559,11.50152)"/>
<use data-text="u" xlink:href="#font_5_88" transform="matrix(8.626141,0,0,-8.626141,441.0115,11.50152)"/>
<use data-text="c" xlink:href="#font_5_70" transform="matrix(8.626141,0,0,-8.626141,446.28205,11.50152)"/>
<use data-text="t" xlink:href="#font_5_87" transform="matrix(8.626141,0,0,-8.626141,451.0782,11.50152)"/>
<use data-text="o" xlink:href="#font_5_82" transform="matrix(8.626141,0,0,-8.626141,453.95066,11.50152)"/>
<use data-text="r" xlink:href="#font_5_85" transform="matrix(8.626141,0,0,-8.626141,459.22123,11.50152)"/>
<use data-text="s" xlink:href="#font_5_86" transform="matrix(8.626141,0,0,-8.626141,462.5768,11.50152)"/>
<path transform="matrix(.718845,0,0,.718845,.3594225,.3594225)" stroke-width="1" stroke-linecap="butt" stroke-miterlimit="10" stroke-linejoin="miter" fill="none" stroke="#0000ff" d="M36 231H56"/>
<path transform="matrix(.718845,0,0,.718845,.3594225,.3594225)" stroke-width="1" stroke-linecap="butt" stroke-miterlimit="10" stroke-linejoin="miter" fill="none" stroke="#0000ff" d="M36 191H56"/>
<path transform="matrix(.718845,0,0,.718845,.3594225,.3594225)" stroke-width="1" stroke-linecap="butt" stroke-miterlimit="10" stroke-linejoin="miter" fill="none" stroke="#0000ff" d="M36 151H56"/>
<path transform="matrix(.718845,0,0,.718845,.3594225,.3594225)" stroke-width="1" stroke-linecap="butt" stroke-miterlimit="10" stroke-linejoin="miter" fill="none" stroke="#0000ff" d="M36 111H56"/>
<path transform="matrix(.718845,0,0,.718845,.3594225,.3594225)" stroke-width="1" stroke-linecap="butt" stroke-miterlimit="10" stroke-linejoin="miter" fill="none" stroke="#0000ff" d="M36 71H56"/>
<path transform="matrix(.718845,0,0,.718845,.3594225,.3594225)" stroke-width="1" stroke-linecap="butt" stroke-miterlimit="10" stroke-linejoin="miter" fill="none" stroke="#0000ff" d="M606 191H626"/>
<path transform="matrix(.718845,0,0,.718845,.3594225,.3594225)" stroke-width="1" stroke-linecap="butt" stroke-miterlimit="10" stroke-linejoin="miter" fill="none" stroke="#0000ff" d="M606 151H626"/>
<path transform="matrix(.718845,0,0,.718845,.3594225,.3594225)" stroke-width="1" stroke-linecap="butt" stroke-miterlimit="10" stroke-linejoin="miter" fill="none" stroke="#0000ff" d="M606 111H626"/>
<path transform="matrix(.718845,0,0,.718845,.3594225,.3594225)" stroke-width="1" stroke-linecap="butt" stroke-miterlimit="10" stroke-linejoin="miter" fill="none" stroke="#0000ff" d="M606 71H626"/>
<path transform="matrix(.718845,0,0,.718845,.3594225,.3594225)" stroke-width="1" stroke-linecap="butt" stroke-miterlimit="10" stroke-linejoin="miter" fill="none" stroke="#0000ff" d="M606 31H626"/>
</g>
</svg>
