<svg xmlns="http://www.w3.org/2000/svg" xmlns:xlink="http://www.w3.org/1999/xlink" xmlns:inkscape="http://www.inkscape.org/namespaces/inkscape" version="1.1" width="318" height="204" viewBox="0 0 318 204">
<defs>
<clipPath id="clip_1">
<path transform="matrix(.24,0,0,.24,0,0)" d="M0 0H1325V849.43569H0Z" clip-rule="evenodd"/>
</clipPath>
<clipPath id="clip_2">
<path transform="matrix(.24,0,0,.24,0,0)" d="M0 0H1325V843.45376H0Z" clip-rule="evenodd"/>
</clipPath>
<path id="font_3_36" d="M.7182617 0H.56103518L.49853517 .16308594H.21240235L.15332031 0H0L.2788086 .7158203H.43164063L.7182617 0M.45214845 .2841797 .35351563 .5488281 .25683595 .2841797H.45214845Z"/>
<path id="font_3_81" d="M.54345706 0H.40625V.26434327C.40625 .32027183 .4033203 .3564453 .39746095 .37286378 .39160157 .38928224 .38208009 .40204368 .36889649 .41114808 .3557129 .42025248 .33984376 .4248047 .32128907 .4248047 .29752604 .4248047 .27620445 .41829936 .25732423 .4052887 .23844402 .3922882 .22550456 .37505595 .21850586 .35359193 .21150716 .33213807 .20800781 .2924703 .20800781 .23458863V0H.07080078V.5185547H.19824219V.4423828C.24348958 .50097659 .30045573 .53027346 .36914063 .53027346 .39941407 .53027346 .42708335 .524821 .45214845 .513916 .47721354 .50301107 .49617515 .48909507 .5090332 .47216798 .5218913 .45524089 .5308431 .43603517 .5358887 .41455079 .54093429 .3930664 .54345706 .3623047 .54345706 .32226563V0Z"/>
<path id="font_3_76" d="M.071777347 .5888672V.7158203H.20898438V.5888672H.071777347M.071777347 0V.5185547H.20898438V0H.071777347Z"/>
<path id="font_3_80" d="M.061523439 .5185547H.18798828V.4477539C.23323567 .5027669 .28710938 .53027346 .34960938 .53027346 .3828125 .53027346 .4116211 .523407 .43603517 .5096741 .46044923 .49594117 .48046876 .47517396 .49609376 .44737245 .5188802 .47517396 .54345706 .49594117 .5698242 .5096741 .5961914 .523407 .62434896 .53027346 .6542969 .53027346 .6923828 .53027346 .7246094 .5225423 .75097659 .5070801 .77734377 .49161784 .7970378 .46891276 .8100586 .43896485 .8194987 .41682945 .82421877 .38102214 .82421877 .33154298V0H.6870117V.29605104C.6870117 .34742228 .6822917 .38058473 .67285159 .39553834 .66015627 .41504923 .640625 .4248047 .6142578 .4248047 .59505209 .4248047 .57698568 .4189504 .5600586 .40724183 .54313156 .39554344 .5309245 .37839256 .5234375 .35578919 .5159505 .333196 .51220706 .29751078 .51220706 .24873352V0H.375V.28385926C.375 .33425395 .3725586 .36676536 .36767579 .38139344 .36279298 .3960317 .3552246 .40692649 .3449707 .41407777 .3347168 .42122904 .32080079 .4248047 .30322267 .4248047 .2820638 .4248047 .26302085 .41911317 .24609375 .4077301 .22916667 .3963572 .21704102 .37993876 .2097168 .35847474 .20239258 .3370107 .19873047 .30140687 .19873047 .2516632V0H.061523439V.5185547Z"/>
<path id="font_3_68" d="M.1743164 .35839845 .049804689 .38085938C.063802089 .4316508 .087890628 .46924845 .12207031 .49365235 .15625 .5180664 .20703125 .53027346 .27441407 .53027346 .33561198 .53027346 .3811849 .5230306 .4111328 .5085449 .44108073 .49405924 .4621582 .47566734 .47436524 .45336915 .48657228 .43107096 .49267579 .39013673 .49267579 .3305664L.49121095 .17041016C.49121095 .12483724 .4934082 .09122721 .49780274 .06958008 .50219729 .04793294 .5104167 .024739584 .52246096 0H.38671876C.38313804 .009114583 .3787435 .022623698 .37353517 .040527345 .3712565 .048665365 .3696289 .054036458 .36865235 .056640626 .34521485 .033854169 .32014976 .016764323 .29345704 .0053710939 .2667643-.0060221354 .23828125-.01171875 .20800781-.01171875 .15462239-.01171875 .11254883 .0027058919 .08178711 .031555177 .05102539 .06040446 .03564453 .09687296 .03564453 .1409607 .03564453 .1701355 .04264323 .19614665 .056640626 .21899414 .07063802 .2418518 .09025065 .25935874 .115478519 .2715149 .14070638 .28367106 .17708333 .2942861 .22460938 .30336 .28873698 .3153534 .33317057 .3265381 .35791017 .33691407V.35073854C.35791017 .37740074 .35139976 .39640809 .3383789 .40776063 .32535807 .41912333 .30078126 .4248047 .26464845 .4248047 .24023438 .4248047 .2211914 .41989137 .20751953 .4100647 .19384766 .4002482 .18277996 .38302613 .1743164 .35839845M.35791017 .24707031C.34033204 .24128215 .3125 .23436482 .27441407 .22631836 .23632813 .21828206 .21142578 .21040344 .19970703 .2026825 .18180339 .19013977 .17285156 .17421977 .17285156 .15492249 .17285156 .13594055 .18001302 .119532268 .19433594 .10569763 .20865886 .09187317 .22688802 .08496094 .24902344 .08496094 .27376304 .08496094 .29736329 .09300232 .31982423 .10908508 .33642579 .121302288 .34733073 .13626099 .35253907 .15396118 .35611979 .16553752 .35791017 .18756612 .35791017 .220047V.24707031Z"/>
<path id="font_3_79" d="M.071777347 0V.7158203H.20898438V0H.071777347Z"/>
<path id="font_3_48" d="M.07080078 0V.7158203H.28710938L.4169922 .22753906 .54541018 .7158203H.76220706V0H.6279297V.56347659L.48583985 0H.3466797L.20507813 .56347659V0H.07080078Z"/>
<path id="font_3_37" d="M.07324219 .7158203H.359375C.41601563 .7158203 .45825196 .71346029 .48608399 .70874026 .513916 .70403036 .53881838 .6941986 .560791 .679245 .5827637 .6643016 .6010742 .6443939 .61572268 .6195221 .6303711 .59466049 .6376953 .5667877 .6376953 .53590396 .6376953 .50242617 .6286621 .4717102 .6105957 .4437561 .5925293 .415802 .5680339 .39483644 .5371094 .38085938 .5807292 .3681437 .6142578 .34646607 .6376953 .31582643 .6611328 .28519694 .67285159 .2491811 .67285159 .20777893 .67285159 .17518616 .6652832 .14348857 .6501465 .11268616 .63500979 .08189392 .6143392 .05728658 .58813479 .038864137 .56193038 .020451865 .5296224 .009124756 .49121095 .0048828127 .4671224 .0022786458 .40901695 .0006510417 .31689454 0H.07324219V.7158203M.21777344 .5966797V.43164063H.3125C.3688151 .43164063 .4038086 .43245445 .41748048 .43408204 .44222007 .43700157 .46166993 .44551597 .47583009 .45962525 .48999024 .47374473 .4970703 .49232994 .4970703 .51538088 .4970703 .53744509 .4909668 .55537417 .47875978 .5691681 .46655274 .58296206 .44840495 .5913188 .4243164 .5942383 .4099935 .5958659 .3688151 .5966797 .30078126 .5966797H.21777344M.21777344 .3125V.12109375H.3515625C.40364585 .12109375 .4366862 .122558597 .4506836 .12548828 .47216798 .12939453 .4896647 .13891602 .5031738 .15405274 .5166829 .16918946 .5234375 .18945313 .5234375 .21484375 .5234375 .23632813 .5182292 .25455729 .5078125 .26953126 .49739585 .28450523 .48234049 .29541017 .46264649 .3022461 .44295249 .30908204 .40022788 .3125 .33447267 .3125H.21777344Z"/>
<path id="font_3_85" d="M.203125 0H.06591797V.5185547H.19335938V.44482423C.21516927 .47965495 .2347819 .5026042 .25219728 .5136719 .26961265 .52473959 .28938804 .53027346 .31152345 .53027346 .34277345 .53027346 .37288413 .52164718 .40185548 .50439456L.359375 .38476563C.33626304 .3997396 .31477867 .40722657 .29492188 .40722657 .27571617 .40722657 .2594401 .40193687 .24609375 .39135743 .23274739 .38077799 .22224935 .36165367 .21459961 .33398438 .20694988 .3063151 .203125 .24837239 .203125 .16015625V0Z"/>
<path id="font_3_71" d="M.5473633 0H.41992188V.076171878C.39876304 .04654948 .3737793 .024495444 .3449707 .010009766 .3161621-.0044759118 .28710938-.01171875 .2578125-.01171875 .19824219-.01171875 .1472168 .012288411 .10473633 .060302736 .06225586 .108317058 .041015626 .17529297 .041015626 .26123048 .041015626 .3491211 .0616862 .41593424 .103027347 .46166993 .14436849 .5074056 .19661458 .53027346 .25976563 .53027346 .31770835 .53027346 .36783854 .5061849 .41015626 .4580078V.7158203H.5473633V0M.18115235 .2702484C.18115235 .21499126 .18880208 .17501323 .20410156 .15031433 .22623699 .1145579 .25716148 .09667969 .296875 .09667969 .32845054 .09667969 .355306 .110087078 .3774414 .13690186 .3995768 .16371663 .41064454 .20377605 .41064454 .25708009 .41064454 .316569 .39990235 .35939536 .37841798 .38555909 .3569336 .4117228 .3294271 .4248047 .29589845 .4248047 .26334635 .4248047 .23608399 .4118856 .21411133 .38604737 .19213867 .36020915 .18115235 .3216095 .18115235 .2702484Z"/>
<path id="font_3_53" d="M.07324219 0V.7158203H.3774414C.4539388 .7158203 .5095215 .7093913 .54418948 .6965332 .5788574 .6836751 .6066081 .6608073 .6274414 .6279297 .6482747 .59505209 .6586914 .5574544 .6586914 .5151367 .6586914 .46142579 .6429036 .41707359 .6113281 .38208009 .5797526 .34708659 .53255209 .32503257 .46972657 .31591798 .50097659 .2976888 .5267741 .27766929 .54711917 .25585938 .5674642 .23404949 .59488937 .1953125 .62939456 .13964844L.7167969 0H.5439453L.43945313 .1558075C.40234376 .21145122 .37695313 .24651082 .36328126 .26098634 .34960938 .27547203 .3351237 .2854004 .31982423 .29077149 .30452476 .29614259 .28027345 .29882813 .24707031 .29882813H.21777344V0H.07324219M.21777344 .41308595H.32470704C.39404298 .41308595 .43733726 .41601563 .45458985 .421875 .47184245 .42773438 .48535157 .43782554 .4951172 .45214845 .5048828 .46647135 .5097656 .484375 .5097656 .5058594 .5097656 .52994796 .5033366 .54939779 .49047853 .564209 .47762046 .5790202 .45947267 .5883789 .43603517 .59228518 .4243164 .5939128 .38916017 .59472659 .3305664 .59472659H.21777344V.41308595Z"/>
<path id="font_3_72" d="M.3720703 .16503906 .50878909 .14160156C.49121095 .09163412 .4634603 .053588869 .4255371 .02746582 .38761393 .0013427734 .34016929-.01171875 .28320313-.01171875 .19303386-.01171875 .12630208 .017740885 .08300781 .076660159 .048828126 .12386068 .03173828 .18343099 .03173828 .2553711 .03173828 .3413086 .05419922 .40861003 .099121097 .4572754 .14404297 .50594076 .20084636 .53027346 .26953126 .53027346 .3466797 .53027346 .4075521 .50480148 .45214845 .45385743 .49674479 .40291343 .5180664 .32486979 .5161133 .21972656H.17236328C.17333985 .17903646 .18440755 .14737956 .2055664 .12475586 .22672527 .102132167 .25309245 .09082031 .28466798 .09082031 .30615235 .09082031 .32421876 .09667969 .3388672 .10839844 .35351563 .12011719 .36458335 .13899739 .3720703 .16503906M.3798828 .30371095C.37890626 .34326173 .36865235 .3733317 .3491211 .3939209 .32958985 .4145101 .3058268 .4248047 .27783204 .4248047 .24788411 .4248047 .22314453 .41394554 .20361328 .39222718 .18408203 .37049867 .17447917 .34099327 .17480469 .30371095H.3798828Z"/>
<path id="font_3_83" d="M.067871097 .5185547H.19580078V.4423828C.21240235 .46842448 .23486328 .48958335 .2631836 .5058594 .2915039 .52213546 .32291667 .53027346 .35742188 .53027346 .41764323 .53027346 .46875 .50667318 .5107422 .45947267 .5527344 .41227214 .57373049 .34651695 .57373049 .26220704 .57373049 .17561849 .5525716 .108317058 .5102539 .060302736 .4679362 .012288411 .41666667-.01171875 .3564453-.01171875 .32779948-.01171875 .3018392-.0060221354 .27856446 .0053710939 .2552897 .016764323 .23079427 .036295576 .20507813 .063964847V-.19726563H.067871097V.5185547M.20361328 .2682953C.20361328 .2101186 .21516927 .1671346 .23828125 .13934326 .26139323 .11155192 .28955079 .09765625 .3227539 .09765625 .35465495 .09765625 .3811849 .1104126 .40234376 .1359253 .4235026 .16143799 .43408204 .20328777 .43408204 .2614746 .43408204 .31575523 .4231771 .35605876 .4013672 .38238526 .37955729 .40871177 .35253907 .421875 .3203125 .421875 .28678385 .421875 .2589518 .4089559 .2368164 .38311769 .21468099 .35727946 .20361328 .31900535 .20361328 .2682953Z"/>
<path id="font_3_87" d="M.3095703 .5185547V.4091797H.21582031V.200531C.21582031 .15827434 .2167155 .13365174 .21850586 .12666321 .22029622 .11968485 .22436524 .11391703 .23071289 .10935974 .23706055 .10481262 .24479167 .10253906 .25390626 .10253906 .26660157 .10253906 .2849935 .106933597 .30908204 .115722659L.32080079 .008880615C.28889976-.004852295 .25276695-.01171875 .21240235-.01171875 .18766277-.01171875 .16536458-.0075683596 .14550781 .0007324219 .12565105 .009033203 .111083988 .01977539 .10180664 .032958986 .0925293 .046142579 .08610026 .063964847 .08251953 .08642578 .079589847 .102376308 .078125 .13460286 .078125 .18310547V.4091797H.015136719V.5185547H.078125V.6220703L.21582031 .703125V.5185547H.3095703Z"/>
<path id="font_3_51" d="M.072753909 0V.7158203H.3046875C.39257813 .7158203 .44986979 .7122447 .4765625 .7050934 .5175781 .6943614 .5519206 .6710307 .57958987 .6351013 .6072591 .59917196 .62109377 .5527547 .62109377 .4958496 .62109377 .45195518 .61311849 .41504923 .59716799 .38513185 .58121749 .35521446 .5609538 .33172099 .53637698 .3146515 .5118001 .297582 .4868164 .2862803 .46142579 .28074647 .42692057 .27392069 .37695313 .2705078 .31152345 .2705078H.21728516V0H.072753909M.21728516 .59472659V.39160157H.29638673C.35335288 .39160157 .3914388 .39534507 .41064454 .40283204 .42985026 .410319 .4449056 .42203776 .45581056 .43798829 .46671549 .4539388 .47216798 .4724935 .47216798 .49365235 .47216798 .51969406 .46451823 .5411784 .44921876 .55810549 .43391929 .57503256 .41455079 .585612 .39111329 .58984377 .3738607 .59309896 .33919273 .59472659 .28710938 .59472659H.21728516Z"/>
<path id="font_3_92" d="M.0068359377 .5185547H.15283203L.27685548 .15003968 .39794923 .5185547H.54003909L.3569336 .019363404 .32421876-.07128906C.31217448-.1015625 .30069987-.12467448 .28979493-.140625 .27888999-.15657552 .26635743-.16951497 .25219728-.17944336 .23803711-.18937175 .22062175-.19710286 .19995117-.20263672 .1792806-.20817058 .15592449-.2109375 .12988281-.2109375 .103515628-.2109375 .07763672-.20817058 .052246095-.20263672L.040039064-.095214847C.061523439-.09944662 .08089193-.1015625 .09814453-.1015625 .13004558-.1015625 .15364583-.09220377 .16894531-.07348633 .1842448-.05476888 .19596355-.030924479 .20410156-.001953125L.0068359377 .5185547Z"/>
<path id="font_3_88" d="M.41308595 0V.07763672C.39420573 .04996745 .36938478 .028157553 .33862306 .012207031 .30786134-.0037434896 .27539063-.01171875 .24121094-.01171875 .2063802-.01171875 .1751302-.0040690104 .14746094 .011230469 .119791667 .026529948 .09977213 .048014326 .087402347 .075683597 .075032558 .10335287 .068847659 .14160156 .068847659 .19042969V.5185547H.20605469V.28082276C.20605469 .20806885 .20857747 .16349285 .21362305 .14709473 .21866863 .13069661 .22786458 .1177063 .24121094 .10812378 .25455729 .09854126 .27148438 .09375 .2919922 .09375 .3154297 .09375 .33642579 .10016378 .35498048 .11299133 .37353517 .1258189 .38623048 .14173381 .3930664 .16073609 .39990235 .17973836 .4033203 .2262624 .4033203 .30030824V.5185547H.54052737V0H.41308595Z"/>
<path id="font_3_86" d="M.0234375 .14746094 .16113281 .16894531C.16699219 .14241536 .1788737 .122273769 .19677735 .10852051 .21468099 .09476725 .2397461 .087890628 .27197267 .087890628 .30745445 .087890628 .33414714 .09439087 .35205079 .10739136 .36409507 .116495769 .3701172 .12868755 .3701172 .14396668 .3701172 .15437317 .36686198 .1629893 .36035157 .16981507 .35351563 .17631531 .33821617 .18232727 .31445313 .18785095 .20377605 .21222432 .1336263 .23449199 .104003909 .25465394 .06298828 .2826284 .04248047 .32149253 .04248047 .37124635 .04248047 .41612754 .060221357 .45385234 .095703128 .48442079 .13118489 .5149892 .18619792 .53027346 .2607422 .53027346 .33170573 .53027346 .3844401 .5187581 .4189453 .49572755 .45345054 .47269694 .47721354 .4386393 .49023438 .3935547L.36083985 .36914063C.355306 .3893229 .34480796 .40478517 .3293457 .41552735 .31388346 .42626954 .29182945 .43164063 .2631836 .43164063 .22705078 .43164063 .20117188 .42660014 .18554688 .41651917 .1751302 .40937806 .16992188 .40011598 .16992188 .3887329 .16992188 .37898765 .17447917 .37070213 .18359375 .36387635 .19596355 .35477195 .23868816 .3419291 .31176759 .3253479 .38484703 .3087667 .4358724 .28842674 .46484376 .264328 .4934896 .2398936 .5078125 .20585633 .5078125 .16221619 .5078125 .11465963 .48795573 .073781337 .4482422 .0395813 .40852867 .005381266 .34977214-.01171875 .27197267-.01171875 .20133464-.01171875 .14542644 .0025583904 .10424805 .03111267 .063069667 .059677125 .036132814 .09845988 .0234375 .14746094Z"/>
</defs>
<g clip-path="url(#clip_1)">
<path transform="matrix(.7178329,0,0,.7178329,0,0)" d="M0 0H443V284H0Z" fill="#ffffff"/>
</g>
<g clip-path="url(#clip_2)">
<path transform="matrix(.7178329,0,0,.7178329,.35891647,.35891647)" stroke-width="1" stroke-linecap="butt" stroke-miterlimit="10" stroke-linejoin="miter" fill="none" stroke="#0000ff" d="M61 49.12V121"/>
<path transform="matrix(.7178329,0,0,.7178329,.35891647,.35891647)" stroke-width="1" stroke-linecap="butt" stroke-miterlimit="10" stroke-linejoin="miter" fill="none" stroke="#0000ff" d="M61 42.12 64.5 49.12H57.5L61 42.12Z"/>
<path transform="matrix(.7178329,0,0,.7178329,.35891647,.35891647)" d="M1 1H121V41H1Z" fill="#ffffff"/>
<path transform="matrix(.7178329,0,0,.7178329,.35891647,.35891647)" stroke-width="1" stroke-linecap="butt" stroke-miterlimit="4" stroke-linejoin="miter" fill="none" stroke="#000000" d="M1 1H121V41H1Z"/>
<use data-text="A" xlink:href="#font_3_36" transform="matrix(10.767494,0,0,-10.767494,25.830769,19.381489)"/>
<use data-text="n" xlink:href="#font_3_81" transform="matrix(10.767494,0,0,-10.767494,33.6049,19.381489)"/>
<use data-text="i" xlink:href="#font_3_76" transform="matrix(10.767494,0,0,-10.767494,40.18384,19.381489)"/>
<use data-text="m" xlink:href="#font_3_80" transform="matrix(10.767494,0,0,-10.767494,43.177206,19.381489)"/>
<use data-text="a" xlink:href="#font_3_68" transform="matrix(10.767494,0,0,-10.767494,52.749509,19.381489)"/>
<use data-text="l" xlink:href="#font_3_79" transform="matrix(10.767494,0,0,-10.767494,58.73624,19.381489)"/>
<path transform="matrix(.7178329,0,0,.7178329,.35891647,.35891647)" stroke-width="1" stroke-linecap="butt" stroke-miterlimit="10" stroke-linejoin="miter" fill="none" stroke="#0000ff" d="M221 49.12V121"/>
<path transform="matrix(.7178329,0,0,.7178329,.35891647,.35891647)" stroke-width="1" stroke-linecap="butt" stroke-miterlimit="10" stroke-linejoin="miter" fill="none" stroke="#0000ff" d="M221 42.12 224.5 49.12H217.5L221 42.12Z"/>
<path transform="matrix(.7178329,0,0,.7178329,.35891647,.35891647)" d="M161 1H281V41H161Z" fill="#ffffff"/>
<path transform="matrix(.7178329,0,0,.7178329,.35891647,.35891647)" stroke-width="1" stroke-linecap="butt" stroke-miterlimit="4" stroke-linejoin="miter" fill="none" stroke="#000000" d="M161 1H281V41H161Z"/>
<use data-text="A" xlink:href="#font_3_36" transform="matrix(10.767494,0,0,-10.767494,140.68404,19.381489)"/>
<use data-text="n" xlink:href="#font_3_81" transform="matrix(10.767494,0,0,-10.767494,148.45818,19.381489)"/>
<use data-text="i" xlink:href="#font_3_76" transform="matrix(10.767494,0,0,-10.767494,155.03711,19.381489)"/>
<use data-text="m" xlink:href="#font_3_80" transform="matrix(10.767494,0,0,-10.767494,158.03047,19.381489)"/>
<use data-text="a" xlink:href="#font_3_68" transform="matrix(10.767494,0,0,-10.767494,167.60277,19.381489)"/>
<use data-text="l" xlink:href="#font_3_79" transform="matrix(10.767494,0,0,-10.767494,173.5895,19.381489)"/>
<path transform="matrix(.7178329,0,0,.7178329,.35891647,.35891647)" stroke-width="1" stroke-linecap="butt" stroke-miterlimit="10" stroke-linejoin="miter" fill="none" stroke="#0000ff" d="M381 49.12V121"/>
<path transform="matrix(.7178329,0,0,.7178329,.35891647,.35891647)" stroke-width="1" stroke-linecap="butt" stroke-miterlimit="10" stroke-linejoin="miter" fill="none" stroke="#0000ff" d="M381 42.12 384.5 49.12H377.5L381 42.12Z"/>
<path transform="matrix(.7178329,0,0,.7178329,.35891647,.35891647)" d="M321 1H441V41H321Z" fill="#ffffff"/>
<path transform="matrix(.7178329,0,0,.7178329,.35891647,.35891647)" stroke-width="1" stroke-linecap="butt" stroke-miterlimit="4" stroke-linejoin="miter" fill="none" stroke="#000000" d="M321 1H441V41H321Z"/>
<use data-text="A" xlink:href="#font_3_36" transform="matrix(10.767494,0,0,-10.767494,255.53731,19.381489)"/>
<use data-text="n" xlink:href="#font_3_81" transform="matrix(10.767494,0,0,-10.767494,263.31144,19.381489)"/>
<use data-text="i" xlink:href="#font_3_76" transform="matrix(10.767494,0,0,-10.767494,269.89039,19.381489)"/>
<use data-text="m" xlink:href="#font_3_80" transform="matrix(10.767494,0,0,-10.767494,272.88374,19.381489)"/>
<use data-text="a" xlink:href="#font_3_68" transform="matrix(10.767494,0,0,-10.767494,282.45603,19.381489)"/>
<use data-text="l" xlink:href="#font_3_79" transform="matrix(10.767494,0,0,-10.767494,288.44276,19.381489)"/>
<path transform="matrix(.7178329,0,0,.7178329,.35891647,.35891647)" stroke-width="1" stroke-linecap="butt" stroke-miterlimit="10" stroke-linejoin="miter" fill="none" stroke="#0000ff" d="M94.16 165.87 194.33 241"/>
<path transform="matrix(.7178329,0,0,.7178329,.35891647,.35891647)" stroke-width="1" stroke-linecap="butt" stroke-miterlimit="10" stroke-linejoin="miter" fill="none" stroke="#0000ff" d="M88.56 161.67 96.26 163.07 92.06 168.67 88.56 161.67Z"/>
<path transform="matrix(.7178329,0,0,.7178329,.35891647,.35891647)" d="M1 121H121V161H1Z" fill="#ffffff"/>
<path transform="matrix(.7178329,0,0,.7178329,.35891647,.35891647)" stroke-width="1" stroke-linecap="butt" stroke-miterlimit="4" stroke-linejoin="miter" fill="none" stroke="#000000" d="M1 121H121V161H1Z"/>
<use data-text="M" xlink:href="#font_3_48" transform="matrix(10.767494,0,0,-10.767494,22.241604,105.52144)"/>
<use data-text="a" xlink:href="#font_3_68" transform="matrix(10.767494,0,0,-10.767494,31.210928,105.52144)"/>
<use data-text="m" xlink:href="#font_3_80" transform="matrix(10.767494,0,0,-10.767494,37.197656,105.52144)"/>
<use data-text="m" xlink:href="#font_3_80" transform="matrix(10.767494,0,0,-10.767494,46.76996,105.52144)"/>
<use data-text="a" xlink:href="#font_3_68" transform="matrix(10.767494,0,0,-10.767494,56.342264,105.52144)"/>
<use data-text="l" xlink:href="#font_3_79" transform="matrix(10.767494,0,0,-10.767494,62.32899,105.52144)"/>
<path transform="matrix(.7178329,0,0,.7178329,.35891647,.35891647)" stroke-width="1" stroke-linecap="butt" stroke-miterlimit="10" stroke-linejoin="miter" fill="none" stroke="#0000ff" d="M221 169.12V241"/>
<path transform="matrix(.7178329,0,0,.7178329,.35891647,.35891647)" stroke-width="1" stroke-linecap="butt" stroke-miterlimit="10" stroke-linejoin="miter" fill="none" stroke="#0000ff" d="M221 162.12 224.5 169.12H217.5L221 162.12Z"/>
<path transform="matrix(.7178329,0,0,.7178329,.35891647,.35891647)" d="M161 121H281V161H161Z" fill="#ffffff"/>
<path transform="matrix(.7178329,0,0,.7178329,.35891647,.35891647)" stroke-width="1" stroke-linecap="butt" stroke-miterlimit="4" stroke-linejoin="miter" fill="none" stroke="#000000" d="M161 121H281V161H161Z"/>
<use data-text="B" xlink:href="#font_3_37" transform="matrix(10.767494,0,0,-10.767494,147.87358,105.52144)"/>
<use data-text="i" xlink:href="#font_3_76" transform="matrix(10.767494,0,0,-10.767494,155.64772,105.52144)"/>
<use data-text="r" xlink:href="#font_3_85" transform="matrix(10.767494,0,0,-10.767494,158.64109,105.52144)"/>
<use data-text="d" xlink:href="#font_3_71" transform="matrix(10.767494,0,0,-10.767494,162.82964,105.52144)"/>
<path transform="matrix(.7178329,0,0,.7178329,.35891647,.35891647)" stroke-width="1" stroke-linecap="butt" stroke-miterlimit="10" stroke-linejoin="miter" fill="none" stroke="#0000ff" d="M347.84 165.87 247.67 241"/>
<path transform="matrix(.7178329,0,0,.7178329,.35891647,.35891647)" stroke-width="1" stroke-linecap="butt" stroke-miterlimit="10" stroke-linejoin="miter" fill="none" stroke="#0000ff" d="M353.44 161.67 349.94 168.67 345.74 163.07 353.44 161.67Z"/>
<path transform="matrix(.7178329,0,0,.7178329,.35891647,.35891647)" d="M321 121H441V161H321Z" fill="#ffffff"/>
<path transform="matrix(.7178329,0,0,.7178329,.35891647,.35891647)" stroke-width="1" stroke-linecap="butt" stroke-miterlimit="4" stroke-linejoin="miter" fill="none" stroke="#000000" d="M321 121H441V161H321Z"/>
<use data-text="R" xlink:href="#font_3_53" transform="matrix(10.767494,0,0,-10.767494,255.53731,105.52144)"/>
<use data-text="e" xlink:href="#font_3_72" transform="matrix(10.767494,0,0,-10.767494,263.31144,105.52144)"/>
<use data-text="p" xlink:href="#font_3_83" transform="matrix(10.767494,0,0,-10.767494,269.29817,105.52144)"/>
<use data-text="t" xlink:href="#font_3_87" transform="matrix(10.767494,0,0,-10.767494,275.8771,105.52144)"/>
<use data-text="i" xlink:href="#font_3_76" transform="matrix(10.767494,0,0,-10.767494,279.46269,105.52144)"/>
<use data-text="l" xlink:href="#font_3_79" transform="matrix(10.767494,0,0,-10.767494,282.45603,105.52144)"/>
<use data-text="e" xlink:href="#font_3_72" transform="matrix(10.767494,0,0,-10.767494,285.4494,105.52144)"/>
<path transform="matrix(.7178329,0,0,.7178329,.35891647,.35891647)" d="M161 241H281V281H161Z" fill="#ffffff"/>
<path transform="matrix(.7178329,0,0,.7178329,.35891647,.35891647)" stroke-width="1" stroke-linecap="butt" stroke-miterlimit="4" stroke-linejoin="miter" fill="none" stroke="#000000" d="M161 241H281V281H161Z"/>
<use data-text="P" xlink:href="#font_3_51" transform="matrix(10.767494,0,0,-10.767494,136.19759,191.66139)"/>
<use data-text="l" xlink:href="#font_3_79" transform="matrix(10.767494,0,0,-10.767494,143.3795,191.66139)"/>
<use data-text="a" xlink:href="#font_3_68" transform="matrix(10.767494,0,0,-10.767494,146.37287,191.66139)"/>
<use data-text="t" xlink:href="#font_3_87" transform="matrix(10.767494,0,0,-10.767494,152.35959,191.66139)"/>
<use data-text="y" xlink:href="#font_3_92" transform="matrix(10.767494,0,0,-10.767494,155.94516,191.66139)"/>
<use data-text="p" xlink:href="#font_3_83" transform="matrix(10.767494,0,0,-10.767494,161.93189,191.66139)"/>
<use data-text="u" xlink:href="#font_3_88" transform="matrix(10.767494,0,0,-10.767494,168.51082,191.66139)"/>
<use data-text="s" xlink:href="#font_3_86" transform="matrix(10.767494,0,0,-10.767494,175.08975,191.66139)"/>
</g>
</svg>
