<svg xmlns="http://www.w3.org/2000/svg" xmlns:xlink="http://www.w3.org/1999/xlink" xmlns:inkscape="http://www.inkscape.org/namespaces/inkscape" version="1.1" width="370.17979" height="284.65354" viewBox="0 0 370.17979 284.65354">
<g>
<path d="M53.871 184.816 55.582 184.859 57.379 184.988 59.164 185.215 60.91 185.52 62.633 185.918 64.313 186.391 65.969 186.953 67.582 187.582 69.164 188.285 70.691 189.074 72.184 189.926 72.371 190.047 69.91 193.887 69.898 193.875 68.617 193.129 67.281 192.445 65.91 191.816 64.508 191.262 63.078 190.773 61.609 190.359 60.109 190.008 58.586 189.73 57.043 189.535 55.461 189.41 53.754 189.363ZM82.895 199.949 83.223 200.422 84.145 201.859 85 203.344 85.789 204.875 86.5 206.441 87.137 208.051 87.699 209.699 88.18 211.387 88.582 213.102 88.898 214.852 89.121 216.625 89.234 218.086 84.691 218.434 84.602 217.203 84.406 215.652 84.137 214.129 83.793 212.625 83.387 211.16 82.902 209.723 82.355 208.32 81.73 206.949 81.051 205.617 80.301 204.313 79.5 203.051 79.168 202.578ZM82.895 199.949" fill="#0563c1"/>
<path stroke-width=".00749545" stroke-linecap="butt" stroke-linejoin="round" fill="none" stroke="#0563c1" d="M53.871 184.816 55.582 184.859 57.379 184.988 59.164 185.215 60.91 185.52 62.633 185.918 64.313 186.391 65.969 186.953 67.582 187.582 69.164 188.285 70.691 189.074 72.184 189.926 72.371 190.047 69.91 193.887 69.898 193.875 68.617 193.129 67.281 192.445 65.91 191.816 64.508 191.262 63.078 190.773 61.609 190.359 60.109 190.008 58.586 189.73 57.043 189.535 55.461 189.41 53.754 189.363ZM82.895 199.949 83.223 200.422 84.145 201.859 85 203.344 85.789 204.875 86.5 206.441 87.137 208.051 87.699 209.699 88.18 211.387 88.582 213.102 88.898 214.852 89.121 216.625 89.234 218.086 84.691 218.434 84.602 217.203 84.406 215.652 84.137 214.129 83.793 212.625 83.387 211.16 82.902 209.723 82.355 208.32 81.73 206.949 81.051 205.617 80.301 204.313 79.5 203.051 79.168 202.578ZM82.895 199.949"/>
<path d="M61.785 163.23 64.254 163.289 66.801 163.477 69.305 163.797 71.777 164.234 74.207 164.789 76.582 165.461 78.906 166.242 80.359 166.82 78.68 171.055 77.453 170.566 75.332 169.848 73.18 169.23 70.977 168.723 68.727 168.316 66.449 168.027 64.141 167.84 61.676 167.777ZM92.719 173.969 93.582 174.645 95.395 176.203 97.145 177.875 98.801 179.598 100.379 181.426 101.863 183.309 103.266 185.289 104.57 187.313 105.148 188.309 101.207 190.586 100.742 189.77 99.547 187.918 98.289 186.133 96.926 184.402 95.508 182.754 93.988 181.164 92.422 179.66 90.758 178.219 89.902 177.543ZM110.453 201.582 110.828 203.195 111.273 205.668 111.594 208.172 111.797 210.711 111.855 213.297 107.309 213.41 107.246 211.066 107.074 208.75 106.781 206.469 106.383 204.223 106.016 202.602ZM110.453 201.582" fill="#0563c1"/>
<path stroke-width=".00749545" stroke-linecap="butt" stroke-linejoin="round" fill="none" stroke="#0563c1" d="M61.785 163.23 64.254 163.289 66.801 163.477 69.305 163.797 71.777 164.234 74.207 164.789 76.582 165.461 78.906 166.242 80.359 166.82 78.68 171.055 77.453 170.566 75.332 169.848 73.18 169.23 70.977 168.723 68.727 168.316 66.449 168.027 64.141 167.84 61.676 167.777ZM92.719 173.969 93.582 174.645 95.395 176.203 97.145 177.875 98.801 179.598 100.379 181.426 101.863 183.309 103.266 185.289 104.57 187.313 105.148 188.309 101.207 190.586 100.742 189.77 99.547 187.918 98.289 186.133 96.926 184.402 95.508 182.754 93.988 181.164 92.422 179.66 90.758 178.219 89.902 177.543ZM110.453 201.582 110.828 203.195 111.273 205.668 111.594 208.172 111.797 210.711 111.855 213.297 107.309 213.41 107.246 211.066 107.074 208.75 106.781 206.469 106.383 204.223 106.016 202.602ZM110.453 201.582"/>
<path d="M69.102 139.961 72.316 140.047 75.602 140.285 78.855 140.695 82.039 141.258 85.172 141.98 87.645 142.684 86.395 147.066 84.145 146.422 81.238 145.75 78.277 145.219 75.262 144.836 72.207 144.594 68.988 144.512ZM100.711 148.23 102.586 149.309 105.215 150.996 107.75 152.793 110.199 154.707 112.555 156.746 114.801 158.895 115.605 159.727 112.305 162.875 111.652 162.188 109.563 160.184 107.391 158.297 105.117 156.504 102.75 154.824 100.313 153.258 98.441 152.18ZM124.238 170.844 124.395 171.082 125.961 173.805 127.395 176.594 128.691 179.457 129.852 182.402 130.871 185.406 131.66 188.152 127.273 189.395 126.563 186.871 125.617 184.074 124.547 181.336 123.34 178.668 122.012 176.074 120.566 173.551 120.41 173.301ZM133.742 202.211 133.805 204.664 129.254 204.777 129.188 202.324ZM133.742 202.211" fill="#0563c1"/>
<path stroke-width=".00749545" stroke-linecap="butt" stroke-linejoin="round" fill="none" stroke="#0563c1" d="M69.102 139.961 72.316 140.047 75.602 140.285 78.855 140.695 82.039 141.258 85.172 141.98 87.645 142.684 86.395 147.066 84.145 146.422 81.238 145.75 78.277 145.219 75.262 144.836 72.207 144.594 68.988 144.512ZM100.711 148.23 102.586 149.309 105.215 150.996 107.75 152.793 110.199 154.707 112.555 156.746 114.801 158.895 115.605 159.727 112.305 162.875 111.652 162.188 109.563 160.184 107.391 158.297 105.117 156.504 102.75 154.824 100.313 153.258 98.441 152.18ZM124.238 170.844 124.395 171.082 125.961 173.805 127.395 176.594 128.691 179.457 129.852 182.402 130.871 185.406 131.66 188.152 127.273 189.395 126.563 186.871 125.617 184.074 124.547 181.336 123.34 178.668 122.012 176.074 120.566 173.551 120.41 173.301ZM133.742 202.211 133.805 204.664 129.254 204.777 129.188 202.324ZM133.742 202.211"/>
<path d="M81.066 118.367 82.918 118.391 84.813 118.465 86.703 118.586 88.566 118.75 92.25 119.215 95.891 119.859 99.473 120.684 99.699 120.746 98.453 125.129H98.445L95.09 124.348 91.672 123.734 88.168 123.285 86.406 123.137 84.641 123.016 82.863 122.949 81.012 122.926ZM112.84 125.551 113.07 125.652 116.266 127.281 119.367 129.059 122.371 130.984 125.273 133.043 128.063 135.242 128.668 135.758 125.68 139.199 125.242 138.816 122.629 136.754 119.906 134.813 117.098 133.008 114.188 131.336 111.188 129.797 110.957 129.695ZM138.531 145.801 140.293 148.043 142.355 150.949 144.281 153.941 146.066 157.043 147.699 160.23 148.383 161.738 144.23 163.602 143.645 162.305 142.117 159.316 140.453 156.406 138.645 153.582 136.719 150.859 134.949 148.621ZM152.961 175.063 153.5 177.395 154.152 181.039 154.617 184.746 154.781 186.645 154.91 188.512 154.977 190.422 155 192.332 150.445 192.387 150.43 190.594 150.363 188.809 150.25 187.043 150.098 185.309 149.664 181.84 149.059 178.422 148.52 176.09ZM152.961 175.063" fill="#0563c1"/>
<path stroke-width=".00749545" stroke-linecap="butt" stroke-linejoin="round" fill="none" stroke="#0563c1" d="M81.066 118.367 82.918 118.391 84.813 118.465 86.703 118.586 88.566 118.75 92.25 119.215 95.891 119.859 99.473 120.684 99.699 120.746 98.453 125.129H98.445L95.09 124.348 91.672 123.734 88.168 123.285 86.406 123.137 84.641 123.016 82.863 122.949 81.012 122.926ZM112.84 125.551 113.07 125.652 116.266 127.281 119.367 129.059 122.371 130.984 125.273 133.043 128.063 135.242 128.668 135.758 125.68 139.199 125.242 138.816 122.629 136.754 119.906 134.813 117.098 133.008 114.188 131.336 111.188 129.797 110.957 129.695ZM138.531 145.801 140.293 148.043 142.355 150.949 144.281 153.941 146.066 157.043 147.699 160.23 148.383 161.738 144.23 163.602 143.645 162.305 142.117 159.316 140.453 156.406 138.645 153.582 136.719 150.859 134.949 148.621ZM152.961 175.063 153.5 177.395 154.152 181.039 154.617 184.746 154.781 186.645 154.91 188.512 154.977 190.422 155 192.332 150.445 192.387 150.43 190.594 150.363 188.809 150.25 187.043 150.098 185.309 149.664 181.84 149.059 178.422 148.52 176.09ZM152.961 175.063"/>
<path d="M58.355 207.91C60.137 206.094 62.73 205.758 64.148 207.152L66.285 209.25C67.699 210.645 67.402 213.246 65.617 215.059ZM58.355 207.91" fill="#0563c1" fill-rule="evenodd"/>
<path stroke-width="2.998176" stroke-linecap="butt" stroke-linejoin="round" fill="none" stroke="#000000" d="M58.355 207.91C60.137 206.094 62.73 205.758 64.148 207.152L66.285 209.25C67.699 210.645 67.402 213.246 65.617 215.059"/>
<path stroke-width="2.998176" stroke-linecap="butt" stroke-linejoin="round" fill="none" stroke="#000000" d="M3.277 264.664C.922 262.355 .895 258.563 3.203 256.211L50.289 208.359C52.598 206.004 56.391 205.977 58.742 208.297L75.789 225.074C78.141 227.383 78.172 231.176 75.863 233.527L28.777 281.379C26.469 283.734 22.676 283.762 20.32 281.438ZM3.277 264.664"/>
<path d="M46.734 219.031 50.035 215.684 53.668 219.258 50.371 222.609ZM46.734 219.031" fill-rule="evenodd"/>
<path stroke-width=".996897" stroke-linecap="butt" stroke-miterlimit="8" stroke-linejoin="miter" fill="none" stroke="#000000" d="M46.734 219.031 50.035 215.684 53.668 219.258 50.371 222.609ZM46.734 219.031"/>
<path d="M54.441 226.609 57.738 223.258 61.367 226.836 58.07 230.184ZM54.441 226.609" fill-rule="evenodd"/>
<path stroke-width=".996897" stroke-linecap="butt" stroke-miterlimit="8" stroke-linejoin="miter" fill="none" stroke="#000000" d="M54.441 226.609 57.738 223.258 61.367 226.836 58.07 230.184ZM54.441 226.609"/>
<path d="M62.332 234.383 65.633 231.023 69.266 234.602 65.969 237.949ZM62.332 234.383" fill-rule="evenodd"/>
<path stroke-width=".996897" stroke-linecap="butt" stroke-miterlimit="8" stroke-linejoin="miter" fill="none" stroke="#000000" d="M62.332 234.383 65.633 231.023 69.266 234.602 65.969 237.949ZM62.332 234.383"/>
<path d="M38.527 227.188 41.828 223.828 45.461 227.406 42.164 230.754ZM38.527 227.188" fill-rule="evenodd"/>
<path stroke-width=".996897" stroke-linecap="butt" stroke-miterlimit="8" stroke-linejoin="miter" fill="none" stroke="#000000" d="M38.527 227.188 41.828 223.828 45.461 227.406 42.164 230.754ZM38.527 227.188"/>
<path d="M46.234 234.766 49.531 231.406 53.16 234.984 49.863 238.332ZM46.234 234.766" fill-rule="evenodd"/>
<path stroke-width=".996897" stroke-linecap="butt" stroke-miterlimit="8" stroke-linejoin="miter" fill="none" stroke="#000000" d="M46.234 234.766 49.531 231.406 53.16 234.984 49.863 238.332ZM46.234 234.766"/>
<path d="M54.125 242.539 57.426 239.18 61.051 242.746 57.754 246.105ZM54.125 242.539" fill-rule="evenodd"/>
<path stroke-width="1.004391" stroke-linecap="butt" stroke-miterlimit="8" stroke-linejoin="miter" fill="none" stroke="#000000" d="M54.125 242.539 57.426 239.18 61.051 242.746 57.754 246.105ZM54.125 242.539"/>
<path d="M30.547 235.492 33.852 232.133 37.48 235.711 34.18 239.066ZM30.547 235.492" fill-rule="evenodd"/>
<path stroke-width=".996897" stroke-linecap="butt" stroke-miterlimit="8" stroke-linejoin="miter" fill="none" stroke="#000000" d="M30.547 235.492 33.852 232.133 37.48 235.711 34.18 239.066ZM30.547 235.492"/>
<path d="M38.25 243.078 41.551 239.719 45.176 243.289 41.879 246.645ZM38.25 243.078" fill-rule="evenodd"/>
<path stroke-width="1.004391" stroke-linecap="butt" stroke-miterlimit="8" stroke-linejoin="miter" fill="none" stroke="#000000" d="M38.25 243.078 41.551 239.719 45.176 243.289 41.879 246.645ZM38.25 243.078"/>
<path d="M46.152 250.844 49.449 247.484 53.078 251.055 49.777 254.41ZM46.152 250.844" fill-rule="evenodd"/>
<path stroke-width="1.004391" stroke-linecap="butt" stroke-miterlimit="8" stroke-linejoin="miter" fill="none" stroke="#000000" d="M46.152 250.844 49.449 247.484 53.078 251.055 49.777 254.41ZM46.152 250.844"/>
<path d="M22.375 243.602 25.672 240.258 29.301 243.828 26.004 247.184ZM22.375 243.602" fill-rule="evenodd"/>
<path stroke-width="1.004391" stroke-linecap="butt" stroke-miterlimit="8" stroke-linejoin="miter" fill="none" stroke="#000000" d="M22.375 243.602 25.672 240.258 29.301 243.828 26.004 247.184ZM22.375 243.602"/>
<path d="M30.082 251.188 33.379 247.828 37.008 251.414 33.707 254.754ZM30.082 251.188" fill-rule="evenodd"/>
<path stroke-width="1.004391" stroke-linecap="butt" stroke-miterlimit="8" stroke-linejoin="miter" fill="none" stroke="#000000" d="M30.082 251.188 33.379 247.828 37.008 251.414 33.707 254.754ZM30.082 251.188"/>
<path d="M37.965 258.953 41.266 255.594 44.906 259.18 41.609 262.52ZM37.965 258.953" fill-rule="evenodd"/>
<path stroke-width="1.004391" stroke-linecap="butt" stroke-miterlimit="8" stroke-linejoin="miter" fill="none" stroke="#000000" d="M37.965 258.953 41.266 255.594 44.906 259.18 41.609 262.52ZM37.965 258.953"/>
<path stroke-width="2.998176" stroke-linecap="butt" stroke-miterlimit="8" stroke-linejoin="miter" fill="none" stroke="#000000" d="M171.762 1.5H368.68V142.172H171.762Z"/>
<path stroke-width="2.998176" stroke-linecap="butt" stroke-linejoin="round" fill="none" stroke="#000000" d="M191.547 34.645C191.547 24.359 199.898 16.012 210.184 16.012H330.273C340.559 16.012 348.895 24.359 348.895 34.645V109.164C348.895 119.449 340.559 127.781 330.273 127.781H210.184C199.898 127.781 191.547 119.449 191.547 109.164ZM191.547 34.645"/>
<path d="M250.551 132.461H290.008V137.375H250.551Z" fill="#0563c1" fill-rule="evenodd"/>
<path stroke-width="2.038765" stroke-linecap="butt" stroke-miterlimit="8" stroke-linejoin="miter" fill="none" stroke="#0563c1" d="M250.551 132.461H290.008V137.375H250.551Z"/>
</g>
</svg>
