<svg xmlns="http://www.w3.org/2000/svg" xmlns:xlink="http://www.w3.org/1999/xlink" xmlns:inkscape="http://www.inkscape.org/namespaces/inkscape" version="1.1" width="232.08" height="340.08" viewBox="0 0 232.08 340.08">
<defs>
<clipPath id="clip_1">
<path transform="matrix(.24,0,0,.24,0,0)" d="M0 0H966.6666V1415.583H0Z" clip-rule="evenodd"/>
</clipPath>
<clipPath id="clip_2">
<path transform="matrix(.24,0,0,.24,0,0)" d="M0 0H966.6666V1412.5902H0Z" clip-rule="evenodd"/>
</clipPath>
<path id="font_3_73" d="M.01171875 .5185547H.087890628V.55770877C.087890628 .60143026 .0925293 .63405868 .10180664 .6555939 .111083988 .6771291 .12817383 .69466659 .15307617 .7082062 .17797852 .7217458 .20947266 .7285156 .2475586 .7285156 .2866211 .7285156 .32486979 .72265627 .3623047 .7109375L.34375 .6152344C.3219401 .6204427 .300944 .6230469 .28076173 .6230469 .26090495 .6230469 .2466634 .61838278 .23803711 .60905459 .22941081 .5997365 .22509766 .5818329 .22509766 .5553436V.5185547H.32763673V.41015626H.22509766V0H.087890628V.41015626H.01171875V.5185547Z"/>
<path id="font_3_88" d="M.41308595 0V.07763672C.39420573 .04996745 .36938478 .028157553 .33862306 .012207031 .30786134-.0037434896 .27539063-.01171875 .24121094-.01171875 .2063802-.01171875 .1751302-.0040690104 .14746094 .011230469 .119791667 .026529948 .09977213 .048014326 .087402347 .075683597 .075032558 .10335287 .068847659 .14160156 .068847659 .19042969V.5185547H.20605469V.28082276C.20605469 .20806885 .20857747 .16349285 .21362305 .14709473 .21866863 .13069661 .22786458 .1177063 .24121094 .10812378 .25455729 .09854126 .27148438 .09375 .2919922 .09375 .3154297 .09375 .33642579 .10016378 .35498048 .11299133 .37353517 .1258189 .38623048 .14173381 .3930664 .16073609 .39990235 .17973836 .4033203 .2262624 .4033203 .30030824V.5185547H.54052737V0H.41308595Z"/>
<path id="font_3_81" d="M.54345706 0H.40625V.26434327C.40625 .32027183 .4033203 .3564453 .39746095 .37286378 .39160157 .38928224 .38208009 .40204368 .36889649 .41114808 .3557129 .42025248 .33984376 .4248047 .32128907 .4248047 .29752604 .4248047 .27620445 .41829936 .25732423 .4052887 .23844402 .3922882 .22550456 .37505595 .21850586 .35359193 .21150716 .33213807 .20800781 .2924703 .20800781 .23458863V0H.07080078V.5185547H.19824219V.4423828C.24348958 .50097659 .30045573 .53027346 .36914063 .53027346 .39941407 .53027346 .42708335 .524821 .45214845 .513916 .47721354 .50301107 .49617515 .48909507 .5090332 .47216798 .5218913 .45524089 .5308431 .43603517 .5358887 .41455079 .54093429 .3930664 .54345706 .3623047 .54345706 .32226563V0Z"/>
<path id="font_3_70" d="M.5239258 .36523438 .38867188 .3408203C.3841146 .36767579 .3737793 .38789878 .35766603 .40148927 .34155274 .41507975 .32063804 .421875 .29492188 .421875 .2607422 .421875 .23347982 .41011048 .21313477 .38658143 .19278972 .36305238 .18261719 .32370506 .18261719 .26853944 .18261719 .2071991 .19295247 .16386922 .21362305 .1385498 .23429363 .11324056 .26204429 .10058594 .296875 .10058594 .32291667 .10058594 .34423829 .10799154 .36083985 .122802738 .3774414 .13761394 .38916017 .16308594 .3959961 .19921875L.5307617 .17578125C.51676437 .11393229 .48990885 .067220058 .4501953 .03564453 .41048179 .0040690104 .35725913-.01171875 .29052735-.01171875 .21468099-.01171875 .1542155 .012207031 .10913086 .060058595 .06404623 .107910159 .041503908 .17415364 .041503908 .25878907 .041503908 .34440104 .0641276 .41105143 .109375 .45874024 .15462239 .506429 .21582031 .53027346 .29296876 .53027346 .35611979 .53027346 .4063314 .5166829 .44360353 .48950196 .48087565 .46232096 .5076497 .42089845 .5239258 .36523438Z"/>
<path id="font_3_87" d="M.3095703 .5185547V.4091797H.21582031V.200531C.21582031 .15827434 .2167155 .13365174 .21850586 .12666321 .22029622 .11968485 .22436524 .11391703 .23071289 .10935974 .23706055 .10481262 .24479167 .10253906 .25390626 .10253906 .26660157 .10253906 .2849935 .106933597 .30908204 .115722659L.32080079 .008880615C.28889976-.004852295 .25276695-.01171875 .21240235-.01171875 .18766277-.01171875 .16536458-.0075683596 .14550781 .0007324219 .12565105 .009033203 .111083988 .01977539 .10180664 .032958986 .0925293 .046142579 .08610026 .063964847 .08251953 .08642578 .079589847 .102376308 .078125 .13460286 .078125 .18310547V.4091797H.015136719V.5185547H.078125V.6220703L.21582031 .703125V.5185547H.3095703Z"/>
<path id="font_3_76" d="M.071777347 .5888672V.7158203H.20898438V.5888672H.071777347M.071777347 0V.5185547H.20898438V0H.071777347Z"/>
<path id="font_3_82" d="M.040039064 .26660157C.040039064 .31217448 .05126953 .35628257 .07373047 .39892579 .096191409 .441569 .12801107 .4741211 .16918946 .49658204 .21036785 .51904299 .25634767 .53027346 .3071289 .53027346 .38557945 .53027346 .44986979 .50480148 .5 .45385743 .5501302 .40291343 .5751953 .33854167 .5751953 .2607422 .5751953 .18229167 .54988607 .11726888 .49926759 .06567383 .44864909 .014078776 .38492839-.01171875 .30810548-.01171875 .26057945-.01171875 .21525066-.0009765625 .17211914 .020507813 .12898763 .041992189 .096191409 .07348633 .07373047 .114990238 .05126953 .15649414 .040039064 .20703125 .040039064 .26660157M.18066406 .25927735C.18066406 .20800781 .1928711 .16874187 .21728516 .14147949 .24169922 .114217128 .2718099 .10058594 .3076172 .10058594 .34342448 .10058594 .37345378 .114217128 .39770509 .14147949 .4219564 .16874187 .43408204 .20833333 .43408204 .2602539 .43408204 .3108724 .4219564 .34981285 .39770509 .3770752 .37345378 .40433757 .34342448 .41796876 .3076172 .41796876 .2718099 .41796876 .24169922 .40433757 .21728516 .3770752 .1928711 .34981285 .18066406 .31054688 .18066406 .25927735Z"/>
<path id="font_3_3" d="M0 0Z"/>
<path id="font_3_17" d="M.071777347 0V.13769531H.20898438V0H.071777347Z"/>
<path id="font_4_81" d="M.06591797 0V.5185547H.14501953V.4453125C.18310547 .5019531 .23811849 .53027346 .3100586 .53027346 .3413086 .53027346 .3700358 .5246582 .39624024 .51342776 .42244468 .50219729 .44205729 .48746745 .45507813 .46923829 .46809898 .45100913 .47721354 .42936198 .48242188 .40429688 .4856771 .38802085 .4873047 .35953776 .4873047 .31884767V0H.39941407V.31576539C.39941407 .35161338 .3959961 .37841798 .38916017 .3961792 .38232423 .41394044 .37019859 .42811585 .3527832 .43870545 .33536784 .44929505 .3149414 .45458985 .2915039 .45458985 .254069 .45458985 .22176107 .44269309 .19458008 .41889955 .1673991 .39511619 .1538086 .34998576 .1538086 .2835083V0H.06591797Z"/>
<path id="font_4_82" d="M.033203126 .25927735C.033203126 .355306 .059895833 .42643229 .11328125 .47265626 .15787761 .5110677 .21223958 .53027346 .2763672 .53027346 .34765626 .53027346 .40592448 .5069173 .45117188 .46020509 .49641929 .41349284 .51904299 .34895835 .51904299 .26660157 .51904299 .1998698 .5090332 .14737956 .48901368 .10913086 .46899415 .070882167 .43986003 .041178388 .40161134 .020019532 .36336265-.0011393229 .3216146-.01171875 .2763672-.01171875 .20377605-.01171875 .1451009 .011555989 .1003418 .05810547 .055582685 .104654949 .033203126 .17171224 .033203126 .25927735M.123535159 .25952149C.123535159 .19335938 .13802083 .14381917 .16699219 .11090088 .19596355 .07798258 .23242188 .061523439 .2763672 .061523439 .31998698 .061523439 .35628257 .078063968 .3852539 .11114502 .41422526 .14422608 .42871095 .19465637 .42871095 .2624359 .42871095 .32632957 .4141439 .3747355 .38500978 .4076538 .35587565 .4405721 .31966148 .45703126 .2763672 .45703126 .23242188 .45703126 .19596355 .44065348 .16699219 .40789796 .13802083 .37514244 .123535159 .3256836 .123535159 .25952149Z"/>
<path id="font_4_85" d="M.064941409 0V.5185547H.14404297V.4404297C.16422527 .4770101 .18286133 .50112918 .19995117 .51278689 .21704102 .5244446 .23583985 .53027346 .25634767 .53027346 .28597007 .53027346 .31608073 .520874 .3466797 .5020752L.31640626 .42089845C.29492188 .43359376 .2734375 .4399414 .25195313 .4399414 .23274739 .4399414 .2154948 .43415324 .20019531 .4225769 .18489583 .41101075 .17399089 .3949636 .16748047 .37443543 .15771485 .3431549 .15283203 .3089396 .15283203 .27178956V0H.064941409Z"/>
<path id="font_4_80" d="M.06591797 0V.5185547H.14453125V.44628907C.1608073 .47153727 .18245442 .4918467 .20947266 .5072174 .23649089 .5225881 .2672526 .53027346 .3017578 .53027346 .34016929 .53027346 .37166343 .52233889 .39624024 .5064697 .42081706 .49061076 .43815104 .46843467 .4482422 .4399414 .4892578 .5001628 .54264327 .53027346 .60839846 .53027346 .65983077 .53027346 .69938156 .5160319 .7270508 .48754884 .75472006 .45906578 .7685547 .4152018 .7685547 .35595704V0H.68115237V.3270111C.68115237 .36220805 .678304 .38754273 .6726074 .40301515 .6669108 .4184977 .6565755 .43096415 .64160159 .44041444 .6266276 .44986473 .6090495 .45458985 .5888672 .45458985 .5524089 .45458985 .52213546 .44244895 .49804688 .4181671 .47395835 .39389549 .46191407 .3550364 .46191407 .30158998V0H.37402345V.33728028C.37402345 .37638346 .36686198 .40571086 .35253907 .42526246 .33821617 .44481407 .31477867 .45458985 .28222657 .45458985 .25748698 .45458985 .23461914 .44806925 .21362305 .43502809 .19262696 .42199708 .17740886 .40293376 .16796875 .37783814 .15852864 .3527527 .1538086 .31658427 .1538086 .2693329V0H.06591797Z"/>
<path id="font_4_68" d="M.40429688 .06402588C.37174479 .03633626 .34041343 .016789755 .31030274 .0053863527 .28019206-.0060170495 .24788411-.01171875 .2133789-.01171875 .15641277-.01171875 .11263021 .0022074383 .08203125 .030059815 .051432294 .05791219 .036132814 .09350077 .036132814 .13682556 .036132814 .16222637 .04191081 .18542989 .053466798 .20643616 .06502279 .22745259 .08015951 .24431356 .09887695 .25701905 .1175944 .26972453 .13867188 .2793325 .16210938 .2858429 .17936199 .29041038 .20540364 .29480998 .24023438 .29904176 .3111979 .30744425 .363444 .3174642 .39697267 .32910157 .3972982 .34109498 .39746095 .3487142 .39746095 .35195924 .39746095 .38763429 .38916017 .4127655 .3725586 .4273529 .35009767 .44713847 .31673179 .45703126 .27246095 .45703126 .2311198 .45703126 .20060222 .44978843 .1809082 .43530274 .16121419 .42081706 .14664714 .39518229 .13720703 .35839845L.05126953 .3701172C.05908203 .40701295 .0719401 .43680827 .08984375 .45950318 .1077474 .4821981 .1336263 .4996643 .16748047 .51190188 .20133464 .5241496 .24055989 .53027346 .28515626 .53027346 .3294271 .53027346 .36539714 .5250651 .3930664 .51464846 .4207357 .50423178 .44108073 .49112956 .45410157 .4753418 .4671224 .45955406 .47623698 .43961589 .4814453 .41552735 .484375 .40055339 .48583985 .37353517 .48583985 .33447267V.21728516C.48583985 .13557942 .48771159 .08390299 .49145509 .06225586 .49519859 .040608724 .5026042 .019856772 .5136719 0H.421875C.4127604 .018249512 .40690104 .039591474 .40429688 .06402588M.39697267 .2607422C.36507163 .24760945 .31722007 .2364502 .25341798 .2272644 .21728516 .22203572 .19173177 .21615093 .17675781 .20960999 .16178386 .20307923 .15022786 .19351705 .14208985 .18092346 .13395183 .16834004 .12988281 .15436809 .12988281 .13900757 .12988281 .115478519 .13875325 .09586588 .15649414 .08016968 .17423503 .06448364 .20019531 .056640626 .234375 .056640626 .26822917 .056640626 .29833985 .064081829 .32470704 .07896423 .35107423 .09384664 .37044273 .11420695 .3828125 .14004517 .3922526 .16000366 .39697267 .18944295 .39697267 .22836304V.2607422Z"/>
<path id="font_4_79" d="M.063964847 0V.7158203H.15185547V0H.063964847Z"/>
<path id="font_4_3" d="M0 0Z"/>
<path id="font_4_73" d="M.08691406 0V.4501953H.009277344V.5185547H.08691406V.5736084C.08691406 .6083577 .09000651 .6341756 .096191409 .651062 .104654949 .6737874 .11954752 .69221499 .14086914 .7063446 .16219075 .72047427 .1920573 .72753909 .23046875 .72753909 .25520835 .72753909 .2825521 .7246094 .3125 .71875L.2993164 .64208987C.28108726 .64534506 .26383464 .64697268 .2475586 .64697268 .22086589 .64697268 .20198567 .6412964 .19091797 .62994387 .17985027 .6185913 .1743164 .5973511 .1743164 .56622317V.5185547H.27539063V.4501953H.1743164V0H.08691406Z"/>
<path id="font_4_90" d="M.1616211 0 .0029296876 .5185547H.09375L.17626953 .21928406 .20703125 .107910159C.20833333 .11343384 .21728516 .14904277 .23388672 .21473694L.31640626 .5185547H.40673829L.484375 .21783448 .5102539 .118652347 .54003909 .21876526 .62890627 .5185547H.71435549L.5522461 0H.4609375L.37841798 .31071473 .35839845 .39892579 .25341798 0H.1616211Z"/>
<path id="font_4_72" d="M.42089845 .16699219 .51171877 .15576172C.49739585 .10270182 .47086589 .061523439 .4321289 .032226564 .39339195 .0029296876 .34391276-.01171875 .2836914-.01171875 .20784505-.01171875 .14770508 .01163737 .103271488 .05834961 .05883789 .10506185 .036621095 .17057292 .036621095 .2548828 .036621095 .3421224 .05908203 .40983073 .104003909 .4580078 .14892578 .5061849 .20719402 .53027346 .2788086 .53027346 .34814454 .53027346 .40478517 .5067088 .44873048 .45957948 .49267579 .41246034 .51464846 .34616599 .51464846 .2606964 .51464846 .25549827 .51448568 .247701 .51416018 .23730469H.1274414C.13069661 .1805013 .14680989 .13700359 .17578125 .10681152 .20475261 .07661947 .24088542 .061523439 .2841797 .061523439 .31640626 .061523439 .34391276 .0699056 .36669923 .08666992 .3894857 .10344442 .4075521 .1302185 .42089845 .16699219M.13232422 .31054688H.421875C.41796876 .3534546 .40690104 .38563539 .38867188 .40708924 .3606771 .4403839 .3243815 .45703126 .27978517 .45703126 .23942058 .45703126 .20548503 .44374085 .17797852 .41716004 .150472 .3905894 .1352539 .35505168 .13232422 .31054688Z"/>
<path id="font_4_91" d="M.0073242189 0 .19677735 .26953126 .021484375 .5185547H.13134766L.2109375 .39697267C.22591146 .3738607 .23795574 .3544922 .24707031 .3388672 .26139323 .36035157 .2745768 .37939454 .2866211 .3959961L.37402345 .5185547H.4790039L.2998047 .27441407 .49267579 0H.38476563L.2783203 .16113281 .25 .20458985 .11376953 0H.0073242189Z"/>
<path id="font_4_70" d="M.40429688 .19042969 .49072267 .17919922C.48128257 .11947632 .45711265 .07272339 .4182129 .03894043 .37931315 .005167643 .33154298-.01171875 .27490235-.01171875 .2039388-.01171875 .14689128 .011474609 .103759769 .057861329 .060628255 .10424805 .0390625 .17073567 .0390625 .25732423 .0390625 .3133138 .048339845 .3623047 .06689453 .40429688 .08544922 .44628907 .11368815 .4777832 .15161133 .4987793 .1895345 .5197754 .23079427 .53027346 .27539063 .53027346 .33170573 .53027346 .37776695 .51598617 .41357423 .4874115 .4493815 .45884706 .47233073 .4182841 .48242188 .36572267L.39697267 .35253907C.38883464 .38720704 .37443034 .4132894 .35375978 .43078614 .3330892 .44828288 .30810548 .45703126 .2788086 .45703126 .23453777 .45703126 .1985677 .4412384 .17089844 .4096527 .14322917 .37807719 .12939453 .32811485 .12939453 .25976563 .12939453 .19043987 .14274089 .1400655 .1694336 .10864258 .1961263 .07722982 .23095703 .061523439 .27392579 .061523439 .308431 .061523439 .3372396 .07206217 .36035157 .09313965 .38346354 .114217128 .39811198 .14664714 .40429688 .19042969Z"/>
<path id="font_4_83" d="M.06591797-.19921875V.5185547H.1459961V.45166017C.1648763 .4778646 .18619792 .4975179 .20996094 .5106201 .23372396 .52372238 .26253257 .53027346 .29638673 .53027346 .34065757 .53027346 .37972007 .5188802 .41357423 .49609376 .44742839 .47330729 .47298179 .4411621 .49023438 .3996582 .507487 .3581543 .5161133 .31266276 .5161133 .2631836 .5161133 .2101237 .5065918 .16235352 .48754884 .11987305 .46850587 .07739258 .44083659 .044840497 .40454103 .022216797 .36824546-.00040690104 .33007813-.01171875 .29003907-.01171875 .2607422-.01171875 .23445638-.005452474 .21118164 .007080078 .1879069 .019622803 .16878255 .035461427 .1538086 .054595949V-.19921875H.06591797M.14550781 .25708009C.14550781 .19042969 .15901692 .14117432 .18603516 .109313968 .21305339 .07745361 .24576824 .061523439 .2841797 .061523439 .3232422 .061523439 .35668946 .07802328 .38452149 .11102295 .41235353 .14402263 .42626954 .19514974 .42626954 .2644043 .42626954 .33040367 .41267906 .37982179 .38549806 .4126587 .35831706 .4454956 .32584635 .46191407 .28808595 .46191407 .25065104 .46191407 .2175293 .44443766 .1887207 .40948487 .15991211 .37453208 .14550781 .32373048 .14550781 .25708009Z"/>
<path id="font_4_87" d="M.2578125 .07763672 .2705078 0C.24576824-.0045572917 .22363281-.0068359377 .20410156-.0068359377 .17220052-.0068359377 .14746094-.0017903646 .12988281 .008300781 .11230469 .018391928 .0999349 .031656904 .09277344 .048095704 .08561198 .06453451 .08203125 .099121097 .08203125 .15185547V.4501953H.017578125V.5185547H.08203125V.6473236L.1694336 .7001953V.5185547H.2578125V.4501953H.1694336V.14697266C.1694336 .121907558 .17097982 .10579427 .17407227 .09863281 .17716472 .09147135 .18221028 .08577474 .18920899 .08154297 .19620769 .077311199 .20621746 .07519531 .21923828 .07519531 .2290039 .07519531 .24186199 .07600912 .2578125 .07763672Z"/>
<path id="font_4_76" d="M.06640625 .6142578V.7158203H.15429688V.6142578H.06640625M.06640625 0V.5185547H.15429688V0H.06640625Z"/>
<path id="font_4_69" d="M.14697266 0H.06542969V.7158203H.15332031V.45950318C.19042969 .50668337 .23779297 .53027346 .29541017 .53027346 .3273112 .53027346 .35750328 .5238444 .38598634 .5109863 .4144694 .49812828 .4379069 .48006187 .45629884 .4567871 .47469078 .43351237 .48909507 .4054362 .49951173 .3725586 .5099284 .339681 .5151367 .30452476 .5151367 .26708985 .5151367 .17822266 .49316407 .10953776 .44921876 .061035158 .40527345 .012532552 .35253907-.01171875 .29101563-.01171875 .2298177-.01171875 .18180339 .014160156 .14697266 .06591797V0M.1459961 .26316834C.1459961 .20129903 .15445964 .15659587 .17138672 .12905884 .19905599 .08403524 .23649089 .061523439 .2836914 .061523439 .32210288 .061523439 .355306 .078125 .38330079 .111328128 .41129557 .14453125 .42529298 .19401042 .42529298 .25976563 .42529298 .32713828 .41186524 .37685649 .38500978 .4089203 .3581543 .44099427 .3256836 .45703126 .28759767 .45703126 .2491862 .45703126 .21598308 .4404297 .18798828 .40722657 .15999349 .37402345 .1459961 .32600404 .1459961 .26316834Z"/>
<path id="font_4_77" d="M.06542969 .61328127V.7158203H.15332031V.61328127H.06542969M-.045898439-.20166016-.029296875-.12695313C-.01171875-.13151042 .0021158856-.13378906 .012207031-.13378906 .030110678-.13378906 .04345703-.12784322 .052246095-.11595154 .061035158-.10405985 .06542969-.07433573 .06542969-.026779175V.5185547H.15332031V-.028686524C.15332031-.0925293 .14501953-.13699341 .12841797-.16207886 .10725912-.19465129 .07210287-.2109375 .022949219-.2109375-.00081380209-.2109375-.023763022-.20784505-.045898439-.20166016Z"/>
<path id="font_3_85" d="M.203125 0H.06591797V.5185547H.19335938V.44482423C.21516927 .47965495 .2347819 .5026042 .25219728 .5136719 .26961265 .52473959 .28938804 .53027346 .31152345 .53027346 .34277345 .53027346 .37288413 .52164718 .40185548 .50439456L.359375 .38476563C.33626304 .3997396 .31477867 .40722657 .29492188 .40722657 .27571617 .40722657 .2594401 .40193687 .24609375 .39135743 .23274739 .38077799 .22224935 .36165367 .21459961 .33398438 .20694988 .3063151 .203125 .24837239 .203125 .16015625V0Z"/>
<path id="font_3_92" d="M.0068359377 .5185547H.15283203L.27685548 .15003968 .39794923 .5185547H.54003909L.3569336 .019363404 .32421876-.07128906C.31217448-.1015625 .30069987-.12467448 .28979493-.140625 .27888999-.15657552 .26635743-.16951497 .25219728-.17944336 .23803711-.18937175 .22062175-.19710286 .19995117-.20263672 .1792806-.20817058 .15592449-.2109375 .12988281-.2109375 .103515628-.2109375 .07763672-.20817058 .052246095-.20263672L.040039064-.095214847C.061523439-.09944662 .08089193-.1015625 .09814453-.1015625 .13004558-.1015625 .15364583-.09220377 .16894531-.07348633 .1842448-.05476888 .19596355-.030924479 .20410156-.001953125L.0068359377 .5185547Z"/>
<path id="font_3_16" d="M.056152345 .19140625V.32910157H.3256836V.19140625H.056152345Z"/>
<path id="font_3_69" d="M.06591797 0V.7158203H.203125V.4580078C.2454427 .5061849 .2955729 .53027346 .35351563 .53027346 .41666667 .53027346 .46891276 .5074056 .5102539 .46166993 .55159506 .41593424 .5722656 .3502604 .5722656 .26464845 .5722656 .17610677 .5511882 .107910159 .5090332 .060058595 .46687828 .012207031 .4156901-.01171875 .35546876-.01171875 .32584635-.01171875 .29663087-.004313151 .26782228 .010498047 .23901367 .025309245 .2141927 .04720052 .19335938 .076171878V0H.06591797M.20214844 .2702484C.20214844 .21661885 .21061199 .17696636 .22753906 .1512909 .2513021 .11488342 .2828776 .09667969 .32226563 .09667969 .35253907 .09667969 .37833659 .10959879 .3996582 .13543701 .42097984 .16127523 .43164063 .20198567 .43164063 .25756837 .43164063 .31673179 .42089845 .35939536 .39941407 .38555909 .3779297 .4117228 .3504232 .4248047 .31689454 .4248047 .28401695 .4248047 .2566732 .41204325 .23486328 .3865204 .21305339 .3610077 .20214844 .32225038 .20214844 .2702484Z"/>
<path id="font_3_79" d="M.071777347 0V.7158203H.20898438V0H.071777347Z"/>
<path id="font_3_78" d="M.06689453 0V.7158203H.20410156V.3359375L.3647461 .5185547H.5336914L.3564453 .32902528 .5463867 0H.3984375L.2680664 .23297119 .20410156 .16601563V0H.06689453Z"/>
<path id="font_4_71" d="M.40234376 0V.06542969C.36946617 .0139973959 .3211263-.01171875 .25732423-.01171875 .21598308-.01171875 .17797852-.00032552085 .14331055 .022460938 .10864258 .045247396 .08178711 .077067058 .06274414 .11791992 .043701173 .15877278 .034179689 .20572917 .034179689 .25878907 .034179689 .31054688 .04280599 .35750328 .060058595 .3996582 .077311199 .44181315 .1031901 .4741211 .13769531 .49658204 .17220052 .51904299 .21077474 .53027346 .25341798 .53027346 .28466798 .53027346 .3125 .52368167 .33691407 .51049807 .36132813 .49731446 .3811849 .48014323 .39648438 .45898438V.7158203H.48388673V0H.40234376M.12451172 .2590332C.12451172 .1928711 .13850911 .14341228 .1665039 .11065674 .1944987 .07790121 .22753906 .061523439 .265625 .061523439 .30403648 .061523439 .33666993 .077168788 .3635254 .10845947 .39038087 .13976033 .4038086 .18752034 .4038086 .2517395 .4038086 .32243858 .39013673 .3743286 .36279298 .40740968 .33544923 .44049073 .3017578 .45703126 .26171876 .45703126 .22265625 .45703126 .19002278 .4411367 .16381836 .40934754 .13761394 .37756858 .12451172 .32746379 .12451172 .2590332Z"/>
<path id="font_4_86" d="M.030761719 .15527344 .11767578 .16894531C.122558597 .13426717 .1361491 .107691448 .15844727 .08921814 .18074544 .070755008 .21191406 .061523439 .25195313 .061523439 .29231773 .061523439 .32226563 .06967672 .34179688 .08598328 .36132813 .10230001 .37109376 .12143453 .37109376 .14338684 .37109376 .16309102 .36246745 .17859395 .34521485 .18989563 .33317057 .1976471 .30322267 .20749919 .2553711 .2194519 .19091797 .23573812 .14624024 .24982707 .12133789 .26171876 .09643555 .27361045 .077555339 .29006449 .064697269 .31108094 .05183919 .33209739 .045410158 .35531108 .045410158 .38072206 .045410158 .40385438 .05069987 .4252777 .061279298 .44499208 .07185873 .46470643 .08626302 .4810791 .10449219 .4941101 .11816406 .5042114 .13680013 .5127614 .16040039 .51976016 .18400066 .526769 .20930989 .53027346 .23632813 .53027346 .27701823 .53027346 .31274415 .52437338 .34350587 .51257327 .37426759 .50078329 .39697267 .48480735 .4116211 .4646454 .42626954 .44449363 .4363607 .4175415 .44189454 .38378907L.35595704 .3720703C.35205079 .39876304 .34073893 .41959635 .32202149 .4345703 .30330406 .44954429 .27685548 .45703126 .24267578 .45703126 .2023112 .45703126 .17350261 .45038859 .15625 .43710328 .13899739 .42382813 .1303711 .40827943 .1303711 .39045716 .1303711 .37912498 .13395183 .3689219 .14111328 .35984803 .14827474 .35045878 .1595052 .34268699 .17480469 .3365326 .18359375 .33328758 .20947266 .32583619 .2524414 .31417848 .31461589 .29758708 .35799156 .28400675 .38256837 .2734375 .40714518 .26286827 .42643229 .24749756 .4404297 .22732544 .4544271 .2071635 .46142579 .18212383 .46142579 .15220642 .46142579 .12292989 .45288087 .09536234 .43579103 .069503787 .41870118 .043655397 .39404298 .02365621 .3618164 .009506226 .32958985-.0046437585 .2931315-.01171875 .2524414-.01171875 .1850586-.01171875 .13370769 .002319336 .09838867 .030395508 .063069667 .05847168 .040527345 .100097659 .030761719 .15527344Z"/>
<path id="font_4_75" d="M.06591797 0V.7158203H.1538086V.45898438C.19482422 .50651046 .24658203 .53027346 .30908204 .53027346 .3474935 .53027346 .38085938 .5227051 .4091797 .50756838 .4375 .49243165 .45776368 .47151695 .4699707 .44482423 .48217774 .4181315 .48828126 .37939454 .48828126 .32861329V0H.40039063V.32861329C.40039063 .3725586 .39086915 .40454103 .37182618 .42456056 .3527832 .44458009 .32584635 .45458985 .29101563 .45458985 .26497398 .45458985 .24047852 .4478353 .2175293 .43432618 .19458008 .42081706 .17822266 .4025065 .16845703 .37939454 .1586914 .35628257 .1538086 .3243815 .1538086 .2836914V0H.06591797Z"/>
<path id="font_3_68" d="M.1743164 .35839845 .049804689 .38085938C.063802089 .4316508 .087890628 .46924845 .12207031 .49365235 .15625 .5180664 .20703125 .53027346 .27441407 .53027346 .33561198 .53027346 .3811849 .5230306 .4111328 .5085449 .44108073 .49405924 .4621582 .47566734 .47436524 .45336915 .48657228 .43107096 .49267579 .39013673 .49267579 .3305664L.49121095 .17041016C.49121095 .12483724 .4934082 .09122721 .49780274 .06958008 .50219729 .04793294 .5104167 .024739584 .52246096 0H.38671876C.38313804 .009114583 .3787435 .022623698 .37353517 .040527345 .3712565 .048665365 .3696289 .054036458 .36865235 .056640626 .34521485 .033854169 .32014976 .016764323 .29345704 .0053710939 .2667643-.0060221354 .23828125-.01171875 .20800781-.01171875 .15462239-.01171875 .11254883 .0027058919 .08178711 .031555177 .05102539 .06040446 .03564453 .09687296 .03564453 .1409607 .03564453 .1701355 .04264323 .19614665 .056640626 .21899414 .07063802 .2418518 .09025065 .25935874 .115478519 .2715149 .14070638 .28367106 .17708333 .2942861 .22460938 .30336 .28873698 .3153534 .33317057 .3265381 .35791017 .33691407V.35073854C.35791017 .37740074 .35139976 .39640809 .3383789 .40776063 .32535807 .41912333 .30078126 .4248047 .26464845 .4248047 .24023438 .4248047 .2211914 .41989137 .20751953 .4100647 .19384766 .4002482 .18277996 .38302613 .1743164 .35839845M.35791017 .24707031C.34033204 .24128215 .3125 .23436482 .27441407 .22631836 .23632813 .21828206 .21142578 .21040344 .19970703 .2026825 .18180339 .19013977 .17285156 .17421977 .17285156 .15492249 .17285156 .13594055 .18001302 .119532268 .19433594 .10569763 .20865886 .09187317 .22688802 .08496094 .24902344 .08496094 .27376304 .08496094 .29736329 .09300232 .31982423 .10908508 .33642579 .121302288 .34733073 .13626099 .35253907 .15396118 .35611979 .16553752 .35791017 .18756612 .35791017 .220047V.24707031Z"/>
<path id="font_3_75" d="M.2084961 .7158203V.4522705C.25276695 .50427249 .30566407 .53027346 .3671875 .53027346 .39876304 .53027346 .4272461 .52441409 .45263673 .5126953 .47802735 .50097659 .4971517 .4860026 .51000979 .46777345 .52286788 .44954429 .5316569 .42936198 .53637698 .40722657 .541097 .38509117 .54345706 .3507487 .54345706 .30419923V0H.40625V.27360536C.40625 .32790629 .40364585 .36237083 .3984375 .3769989 .39322917 .39163719 .3840332 .40326438 .3708496 .4118805 .35766603 .4204966 .34114585 .4248047 .32128907 .4248047 .2985026 .4248047 .27815757 .4192759 .2602539 .40821839 .24235027 .39716087 .22924805 .38049827 .22094727 .3582306 .21264649 .33596293 .2084961 .30303956 .2084961 .25946046V0H.07128906V.7158203H.2084961Z"/>
</defs>
<g clip-path="url(#clip_1)">
<path transform="matrix(.7182662,0,0,.7182662,0,0)" d="M0 0H323V473H0Z" fill="#ffffff"/>
</g>
<g clip-path="url(#clip_2)">
<path transform="matrix(.7182662,0,0,.7182662,.3591331,.3591331)" d="M1 1H321V471H1Z" fill="#ffffff"/>
<path transform="matrix(.7182662,0,0,.7182662,.3591331,.3591331)" stroke-width="1" stroke-linecap="butt" stroke-miterlimit="4" stroke-linejoin="miter" fill="none" stroke="#000000" d="M1 1H321V471H1Z"/>
<use data-text="f" xlink:href="#font_3_73" transform="matrix(11.492259,0,0,-11.492259,2.1547986,16.520123)"/>
<use data-text="u" xlink:href="#font_3_88" transform="matrix(11.492259,0,0,-11.492259,5.981721,16.520123)"/>
<use data-text="n" xlink:href="#font_3_81" transform="matrix(11.492259,0,0,-11.492259,13.003491,16.520123)"/>
<use data-text="c" xlink:href="#font_3_70" transform="matrix(11.492259,0,0,-11.492259,20.025263,16.520123)"/>
<use data-text="t" xlink:href="#font_3_87" transform="matrix(11.492259,0,0,-11.492259,26.414959,16.520123)"/>
<use data-text="i" xlink:href="#font_3_76" transform="matrix(11.492259,0,0,-11.492259,30.24188,16.520123)"/>
<use data-text="o" xlink:href="#font_3_82" transform="matrix(11.492259,0,0,-11.492259,33.43673,16.520123)"/>
<use data-text="n" xlink:href="#font_3_81" transform="matrix(11.492259,0,0,-11.492259,40.4585,16.520123)"/>
<use data-text=" " xlink:href="#font_3_3" transform="matrix(11.492259,0,0,-11.492259,47.48027,16.520123)"/>
<use data-text="." xlink:href="#font_3_17" transform="matrix(11.492259,0,0,-11.492259,50.675119,16.520123)"/>
<use data-text="." xlink:href="#font_3_17" transform="matrix(11.492259,0,0,-11.492259,53.869966,16.520123)"/>
<use data-text="." xlink:href="#font_3_17" transform="matrix(11.492259,0,0,-11.492259,57.06481,16.520123)"/>
<path transform="matrix(.7182662,0,0,.7182662,.3591331,.3591331)" stroke-width="1" stroke-linecap="butt" stroke-miterlimit="10" stroke-linejoin="miter" fill="none" stroke="#0000ff" d="M121 41V94.63"/>
<path transform="matrix(.7182662,0,0,.7182662,.3591331,.3591331)" d="M121 99.88 117.5 92.88 121 94.63 124.5 92.88 121 99.88Z" fill="#0000ff"/>
<path transform="matrix(.7182662,0,0,.7182662,.3591331,.3591331)" stroke-width="1" stroke-linecap="butt" stroke-miterlimit="10" stroke-linejoin="miter" fill="none" stroke="#0000ff" d="M121 99.88 117.5 92.88 121 94.63 124.5 92.88 121 99.88Z"/>
<path transform="matrix(.7182662,0,0,.7182662,0,0)" d="M93 65H150V78H93Z" fill="#ffffff"/>
<use data-text="n" xlink:href="#font_4_81" transform="matrix(7.900928,0,0,-7.900928,67.06811,53.869966)"/>
<use data-text="o" xlink:href="#font_4_82" transform="matrix(7.900928,0,0,-7.900928,71.46102,53.869966)"/>
<use data-text="r" xlink:href="#font_4_85" transform="matrix(7.900928,0,0,-7.900928,75.853939,53.869966)"/>
<use data-text="m" xlink:href="#font_4_80" transform="matrix(7.900928,0,0,-7.900928,78.48495,53.869966)"/>
<use data-text="a" xlink:href="#font_4_68" transform="matrix(7.900928,0,0,-7.900928,85.06642,53.869966)"/>
<use data-text="l" xlink:href="#font_4_79" transform="matrix(7.900928,0,0,-7.900928,89.459339,53.869966)"/>
<use data-text=" " xlink:href="#font_4_3" transform="matrix(7.900928,0,0,-7.900928,91.21334,53.869966)"/>
<use data-text="f" xlink:href="#font_4_73" transform="matrix(7.900928,0,0,-7.900928,93.4098,53.869966)"/>
<use data-text="l" xlink:href="#font_4_79" transform="matrix(7.900928,0,0,-7.900928,95.606258,53.869966)"/>
<use data-text="o" xlink:href="#font_4_82" transform="matrix(7.900928,0,0,-7.900928,97.36026,53.869966)"/>
<use data-text="w" xlink:href="#font_4_90" transform="matrix(7.900928,0,0,-7.900928,101.753177,53.869966)"/>
<path transform="matrix(.7182662,0,0,.7182662,.3591331,.3591331)" stroke-width="1" stroke-linecap="butt" stroke-miterlimit="10" stroke-linejoin="miter" fill="none" stroke="#000000" d="M121 181V254.63"/>
<path transform="matrix(.7182662,0,0,.7182662,.3591331,.3591331)" d="M121 259.88 117.5 252.88 121 254.63 124.5 252.88 121 259.88Z"/>
<path transform="matrix(.7182662,0,0,.7182662,.3591331,.3591331)" stroke-width="1" stroke-linecap="butt" stroke-miterlimit="10" stroke-linejoin="miter" fill="none" stroke="#000000" d="M121 259.88 117.5 252.88 121 254.63 124.5 252.88 121 259.88Z"/>
<path transform="matrix(.7182662,0,0,.7182662,0,0)" d="M82 215H161V228H82Z" fill="#ffffff"/>
<use data-text="e" xlink:href="#font_4_72" transform="matrix(7.900928,0,0,-7.900928,58.71826,161.6099)"/>
<use data-text="x" xlink:href="#font_4_91" transform="matrix(7.900928,0,0,-7.900928,63.111177,161.6099)"/>
<use data-text="c" xlink:href="#font_4_70" transform="matrix(7.900928,0,0,-7.900928,67.06164,161.6099)"/>
<use data-text="e" xlink:href="#font_4_72" transform="matrix(7.900928,0,0,-7.900928,71.0121,161.6099)"/>
<use data-text="p" xlink:href="#font_4_83" transform="matrix(7.900928,0,0,-7.900928,75.405017,161.6099)"/>
<use data-text="t" xlink:href="#font_4_87" transform="matrix(7.900928,0,0,-7.900928,79.79793,161.6099)"/>
<use data-text="i" xlink:href="#font_4_76" transform="matrix(7.900928,0,0,-7.900928,81.994388,161.6099)"/>
<use data-text="o" xlink:href="#font_4_82" transform="matrix(7.900928,0,0,-7.900928,83.7484,161.6099)"/>
<use data-text="n" xlink:href="#font_4_81" transform="matrix(7.900928,0,0,-7.900928,88.14131,161.6099)"/>
<use data-text=" " xlink:href="#font_4_3" transform="matrix(7.900928,0,0,-7.900928,92.534229,161.6099)"/>
<use data-text="o" xlink:href="#font_4_82" transform="matrix(7.900928,0,0,-7.900928,94.73068,161.6099)"/>
<use data-text="b" xlink:href="#font_4_69" transform="matrix(7.900928,0,0,-7.900928,99.1236,161.6099)"/>
<use data-text="j" xlink:href="#font_4_77" transform="matrix(7.900928,0,0,-7.900928,103.51651,161.6099)"/>
<use data-text="e" xlink:href="#font_4_72" transform="matrix(7.900928,0,0,-7.900928,105.270519,161.6099)"/>
<use data-text="c" xlink:href="#font_4_70" transform="matrix(7.900928,0,0,-7.900928,109.66343,161.6099)"/>
<use data-text="t" xlink:href="#font_4_87" transform="matrix(7.900928,0,0,-7.900928,113.61389,161.6099)"/>
<path transform="matrix(.7182662,0,0,.7182662,.3591331,.3591331)" stroke-width="1" stroke-linecap="butt" stroke-miterlimit="10" stroke-linejoin="miter" fill="none" stroke="#0000ff" d="M201 141H261V381H121V414.63"/>
<path transform="matrix(.7182662,0,0,.7182662,.3591331,.3591331)" d="M121 419.88 117.5 412.88 121 414.63 124.5 412.88 121 419.88Z" fill="#0000ff"/>
<path transform="matrix(.7182662,0,0,.7182662,.3591331,.3591331)" stroke-width="1" stroke-linecap="butt" stroke-miterlimit="10" stroke-linejoin="miter" fill="none" stroke="#0000ff" d="M121 419.88 117.5 412.88 121 414.63 124.5 412.88 121 419.88Z"/>
<path transform="matrix(.7182662,0,0,.7182662,0,0)" d="M233 315H290V328H233Z" fill="#ffffff"/>
<use data-text="n" xlink:href="#font_4_81" transform="matrix(7.900928,0,0,-7.900928,167.62537,233.43651)"/>
<use data-text="o" xlink:href="#font_4_82" transform="matrix(7.900928,0,0,-7.900928,172.01828,233.43651)"/>
<use data-text="r" xlink:href="#font_4_85" transform="matrix(7.900928,0,0,-7.900928,176.4112,233.43651)"/>
<use data-text="m" xlink:href="#font_4_80" transform="matrix(7.900928,0,0,-7.900928,179.0422,233.43651)"/>
<use data-text="a" xlink:href="#font_4_68" transform="matrix(7.900928,0,0,-7.900928,185.62368,233.43651)"/>
<use data-text="l" xlink:href="#font_4_79" transform="matrix(7.900928,0,0,-7.900928,190.01659,233.43651)"/>
<use data-text=" " xlink:href="#font_4_3" transform="matrix(7.900928,0,0,-7.900928,191.77059,233.43651)"/>
<use data-text="f" xlink:href="#font_4_73" transform="matrix(7.900928,0,0,-7.900928,193.96706,233.43651)"/>
<use data-text="l" xlink:href="#font_4_79" transform="matrix(7.900928,0,0,-7.900928,196.16352,233.43651)"/>
<use data-text="o" xlink:href="#font_4_82" transform="matrix(7.900928,0,0,-7.900928,197.91751,233.43651)"/>
<use data-text="w" xlink:href="#font_4_90" transform="matrix(7.900928,0,0,-7.900928,202.31043,233.43651)"/>
<path transform="matrix(.7182662,0,0,.7182662,.3591331,.3591331)" d="M41 101H201V181H41Z" fill="#fff2cc"/>
<path transform="matrix(.7182662,0,0,.7182662,.3591331,.3591331)" stroke-width="1" stroke-linecap="butt" stroke-miterlimit="4" stroke-linejoin="miter" fill="none" stroke="#d6b656" d="M41 101H201V181H41Z"/>
<use data-text="t" xlink:href="#font_3_87" transform="matrix(11.492259,0,0,-11.492259,30.885447,88.34674)"/>
<use data-text="r" xlink:href="#font_3_85" transform="matrix(11.492259,0,0,-11.492259,34.712369,88.34674)"/>
<use data-text="y" xlink:href="#font_3_92" transform="matrix(11.492259,0,0,-11.492259,39.182859,88.34674)"/>
<use data-text="-" xlink:href="#font_3_16" transform="matrix(11.492259,0,0,-11.492259,45.57255,88.34674)"/>
<use data-text="b" xlink:href="#font_3_69" transform="matrix(11.492259,0,0,-11.492259,49.399477,88.34674)"/>
<use data-text="l" xlink:href="#font_3_79" transform="matrix(11.492259,0,0,-11.492259,56.421247,88.34674)"/>
<use data-text="o" xlink:href="#font_3_82" transform="matrix(11.492259,0,0,-11.492259,59.616094,88.34674)"/>
<use data-text="c" xlink:href="#font_3_70" transform="matrix(11.492259,0,0,-11.492259,66.63786,88.34674)"/>
<use data-text="k" xlink:href="#font_3_78" transform="matrix(11.492259,0,0,-11.492259,73.027568,88.34674)"/>
<use data-text=" " xlink:href="#font_4_3" transform="matrix(11.492259,0,0,-11.492259,30.885447,101.9938)"/>
<use data-text=" " xlink:href="#font_4_3" transform="matrix(11.492259,0,0,-11.492259,34.080297,101.9938)"/>
<use data-text="d" xlink:href="#font_4_71" transform="matrix(11.492259,0,0,-11.492259,37.275148,101.9938)"/>
<use data-text="e" xlink:href="#font_4_72" transform="matrix(11.492259,0,0,-11.492259,43.66484,101.9938)"/>
<use data-text="t" xlink:href="#font_4_87" transform="matrix(11.492259,0,0,-11.492259,50.054536,101.9938)"/>
<use data-text="e" xlink:href="#font_4_72" transform="matrix(11.492259,0,0,-11.492259,53.249383,101.9938)"/>
<use data-text="c" xlink:href="#font_4_70" transform="matrix(11.492259,0,0,-11.492259,59.639085,101.9938)"/>
<use data-text="t" xlink:href="#font_4_87" transform="matrix(11.492259,0,0,-11.492259,65.38521,101.9938)"/>
<use data-text="s" xlink:href="#font_4_86" transform="matrix(11.492259,0,0,-11.492259,68.580059,101.9938)"/>
<use data-text=" " xlink:href="#font_4_3" transform="matrix(11.492259,0,0,-11.492259,74.32619,101.9938)"/>
<use data-text="a" xlink:href="#font_4_68" transform="matrix(11.492259,0,0,-11.492259,77.521038,101.9938)"/>
<use data-text="n" xlink:href="#font_4_81" transform="matrix(11.492259,0,0,-11.492259,83.910739,101.9938)"/>
<use data-text="d" xlink:href="#font_4_71" transform="matrix(11.492259,0,0,-11.492259,90.30043,101.9938)"/>
<use data-text=" " xlink:href="#font_4_3" transform="matrix(11.492259,0,0,-11.492259,96.69013,101.9938)"/>
<use data-text="t" xlink:href="#font_4_87" transform="matrix(11.492259,0,0,-11.492259,99.88498,101.9938)"/>
<use data-text="h" xlink:href="#font_4_75" transform="matrix(11.492259,0,0,-11.492259,103.07983,101.9938)"/>
<use data-text="r" xlink:href="#font_4_85" transform="matrix(11.492259,0,0,-11.492259,109.46952,101.9938)"/>
<use data-text="o" xlink:href="#font_4_82" transform="matrix(11.492259,0,0,-11.492259,113.29644,101.9938)"/>
<use data-text="w" xlink:href="#font_4_90" transform="matrix(11.492259,0,0,-11.492259,119.686138,101.9938)"/>
<use data-text="s" xlink:href="#font_4_86" transform="matrix(11.492259,0,0,-11.492259,127.98354,101.9938)"/>
<use data-text=" " xlink:href="#font_4_3" transform="matrix(11.492259,0,0,-11.492259,133.72968,101.9938)"/>
<use data-text=" " xlink:href="#font_4_3" transform="matrix(11.492259,0,0,-11.492259,30.885447,115.640857)"/>
<use data-text=" " xlink:href="#font_4_3" transform="matrix(11.492259,0,0,-11.492259,34.080297,115.640857)"/>
<use data-text="a" xlink:href="#font_4_68" transform="matrix(11.492259,0,0,-11.492259,37.275148,115.640857)"/>
<use data-text="n" xlink:href="#font_4_81" transform="matrix(11.492259,0,0,-11.492259,43.66484,115.640857)"/>
<use data-text=" " xlink:href="#font_4_3" transform="matrix(11.492259,0,0,-11.492259,50.054536,115.640857)"/>
<use data-text="e" xlink:href="#font_4_72" transform="matrix(11.492259,0,0,-11.492259,53.249383,115.640857)"/>
<use data-text="x" xlink:href="#font_4_91" transform="matrix(11.492259,0,0,-11.492259,59.639085,115.640857)"/>
<use data-text="c" xlink:href="#font_4_70" transform="matrix(11.492259,0,0,-11.492259,65.38521,115.640857)"/>
<use data-text="e" xlink:href="#font_4_72" transform="matrix(11.492259,0,0,-11.492259,71.13134,115.640857)"/>
<use data-text="p" xlink:href="#font_4_83" transform="matrix(11.492259,0,0,-11.492259,77.52104,115.640857)"/>
<use data-text="t" xlink:href="#font_4_87" transform="matrix(11.492259,0,0,-11.492259,83.910739,115.640857)"/>
<use data-text="i" xlink:href="#font_4_76" transform="matrix(11.492259,0,0,-11.492259,87.10558,115.640857)"/>
<use data-text="o" xlink:href="#font_4_82" transform="matrix(11.492259,0,0,-11.492259,89.65687,115.640857)"/>
<use data-text="n" xlink:href="#font_4_81" transform="matrix(11.492259,0,0,-11.492259,96.04657,115.640857)"/>
<use data-text="n" xlink:href="#font_4_81" transform="matrix(11.492259,0,0,-11.492259,30.885447,318.19194)"/>
<use data-text="e" xlink:href="#font_4_72" transform="matrix(11.492259,0,0,-11.492259,37.275144,318.19194)"/>
<use data-text="x" xlink:href="#font_4_91" transform="matrix(11.492259,0,0,-11.492259,43.664838,318.19194)"/>
<use data-text="t" xlink:href="#font_4_87" transform="matrix(11.492259,0,0,-11.492259,49.41097,318.19194)"/>
<use data-text=" " xlink:href="#font_4_3" transform="matrix(11.492259,0,0,-11.492259,52.605817,318.19194)"/>
<use data-text="s" xlink:href="#font_4_86" transform="matrix(11.492259,0,0,-11.492259,55.80066,318.19194)"/>
<use data-text="t" xlink:href="#font_4_87" transform="matrix(11.492259,0,0,-11.492259,61.54679,318.19194)"/>
<use data-text="a" xlink:href="#font_4_68" transform="matrix(11.492259,0,0,-11.492259,64.74164,318.19194)"/>
<use data-text="t" xlink:href="#font_4_87" transform="matrix(11.492259,0,0,-11.492259,71.13133,318.19194)"/>
<use data-text="e" xlink:href="#font_4_72" transform="matrix(11.492259,0,0,-11.492259,74.32618,318.19194)"/>
<use data-text="m" xlink:href="#font_4_80" transform="matrix(11.492259,0,0,-11.492259,80.71588,318.19194)"/>
<use data-text="e" xlink:href="#font_4_72" transform="matrix(11.492259,0,0,-11.492259,90.28893,318.19194)"/>
<use data-text="n" xlink:href="#font_4_81" transform="matrix(11.492259,0,0,-11.492259,96.678638,318.19194)"/>
<use data-text="t" xlink:href="#font_4_87" transform="matrix(11.492259,0,0,-11.492259,103.06833,318.19194)"/>
<use data-text="s" xlink:href="#font_4_86" transform="matrix(11.492259,0,0,-11.492259,106.263179,318.19194)"/>
<path transform="matrix(.7182662,0,0,.7182662,.3591331,.3591331)" d="M41 261H201V341H41Z" fill="#fff2cc"/>
<path transform="matrix(.7182662,0,0,.7182662,.3591331,.3591331)" stroke-width="1" stroke-linecap="butt" stroke-miterlimit="4" stroke-linejoin="miter" fill="none" stroke="#d6b656" d="M41 261H201V341H41Z"/>
<use data-text="c" xlink:href="#font_3_70" transform="matrix(11.492259,0,0,-11.492259,30.885447,203.26934)"/>
<use data-text="a" xlink:href="#font_3_68" transform="matrix(11.492259,0,0,-11.492259,37.275144,203.26934)"/>
<use data-text="t" xlink:href="#font_3_87" transform="matrix(11.492259,0,0,-11.492259,43.664838,203.26934)"/>
<use data-text="c" xlink:href="#font_3_70" transform="matrix(11.492259,0,0,-11.492259,47.491765,203.26934)"/>
<use data-text="h" xlink:href="#font_3_75" transform="matrix(11.492259,0,0,-11.492259,53.881464,203.26934)"/>
<use data-text="-" xlink:href="#font_3_16" transform="matrix(11.492259,0,0,-11.492259,60.903234,203.26934)"/>
<use data-text="b" xlink:href="#font_3_69" transform="matrix(11.492259,0,0,-11.492259,64.730159,203.26934)"/>
<use data-text="l" xlink:href="#font_3_79" transform="matrix(11.492259,0,0,-11.492259,71.75193,203.26934)"/>
<use data-text="o" xlink:href="#font_3_82" transform="matrix(11.492259,0,0,-11.492259,74.94678,203.26934)"/>
<use data-text="c" xlink:href="#font_3_70" transform="matrix(11.492259,0,0,-11.492259,81.968547,203.26934)"/>
<use data-text="k" xlink:href="#font_3_78" transform="matrix(11.492259,0,0,-11.492259,88.358249,203.26934)"/>
<use data-text=" " xlink:href="#font_4_3" transform="matrix(11.492259,0,0,-11.492259,30.885447,216.91638)"/>
<use data-text=" " xlink:href="#font_4_3" transform="matrix(11.492259,0,0,-11.492259,34.080297,216.91638)"/>
<use data-text="c" xlink:href="#font_4_70" transform="matrix(11.492259,0,0,-11.492259,37.275148,216.91638)"/>
<use data-text="a" xlink:href="#font_4_68" transform="matrix(11.492259,0,0,-11.492259,43.021276,216.91638)"/>
<use data-text="t" xlink:href="#font_4_87" transform="matrix(11.492259,0,0,-11.492259,49.410974,216.91638)"/>
<use data-text="c" xlink:href="#font_4_70" transform="matrix(11.492259,0,0,-11.492259,52.60582,216.91638)"/>
<use data-text="h" xlink:href="#font_4_75" transform="matrix(11.492259,0,0,-11.492259,58.351949,216.91638)"/>
<use data-text="e" xlink:href="#font_4_72" transform="matrix(11.492259,0,0,-11.492259,64.741649,216.91638)"/>
<use data-text="s" xlink:href="#font_4_86" transform="matrix(11.492259,0,0,-11.492259,71.13135,216.91638)"/>
<use data-text=" " xlink:href="#font_4_3" transform="matrix(11.492259,0,0,-11.492259,76.87748,216.91638)"/>
<use data-text="a" xlink:href="#font_4_68" transform="matrix(11.492259,0,0,-11.492259,80.07232,216.91638)"/>
<use data-text="n" xlink:href="#font_4_81" transform="matrix(11.492259,0,0,-11.492259,86.46202,216.91638)"/>
<use data-text="d" xlink:href="#font_4_71" transform="matrix(11.492259,0,0,-11.492259,92.85172,216.91638)"/>
<use data-text=" " xlink:href="#font_4_3" transform="matrix(11.492259,0,0,-11.492259,99.24142,216.91638)"/>
<use data-text="h" xlink:href="#font_4_75" transform="matrix(11.492259,0,0,-11.492259,102.43626,216.91638)"/>
<use data-text="a" xlink:href="#font_4_68" transform="matrix(11.492259,0,0,-11.492259,108.82595,216.91638)"/>
<use data-text="n" xlink:href="#font_4_81" transform="matrix(11.492259,0,0,-11.492259,115.215648,216.91638)"/>
<use data-text="d" xlink:href="#font_4_71" transform="matrix(11.492259,0,0,-11.492259,121.60534,216.91638)"/>
<use data-text="l" xlink:href="#font_4_79" transform="matrix(11.492259,0,0,-11.492259,127.99503,216.91638)"/>
<use data-text="e" xlink:href="#font_4_72" transform="matrix(11.492259,0,0,-11.492259,130.54631,216.91638)"/>
<use data-text="s" xlink:href="#font_4_86" transform="matrix(11.492259,0,0,-11.492259,136.936,216.91638)"/>
<use data-text=" " xlink:href="#font_4_3" transform="matrix(11.492259,0,0,-11.492259,30.885447,230.56345)"/>
<use data-text=" " xlink:href="#font_4_3" transform="matrix(11.492259,0,0,-11.492259,34.080297,230.56345)"/>
<use data-text="t" xlink:href="#font_4_87" transform="matrix(11.492259,0,0,-11.492259,37.275148,230.56345)"/>
<use data-text="h" xlink:href="#font_4_75" transform="matrix(11.492259,0,0,-11.492259,40.469995,230.56345)"/>
<use data-text="e" xlink:href="#font_4_72" transform="matrix(11.492259,0,0,-11.492259,46.85969,230.56345)"/>
<use data-text=" " xlink:href="#font_4_3" transform="matrix(11.492259,0,0,-11.492259,53.24939,230.56345)"/>
<use data-text="e" xlink:href="#font_4_72" transform="matrix(11.492259,0,0,-11.492259,56.444238,230.56345)"/>
<use data-text="x" xlink:href="#font_4_91" transform="matrix(11.492259,0,0,-11.492259,62.833936,230.56345)"/>
<use data-text="c" xlink:href="#font_4_70" transform="matrix(11.492259,0,0,-11.492259,68.58006,230.56345)"/>
<use data-text="e" xlink:href="#font_4_72" transform="matrix(11.492259,0,0,-11.492259,74.326198,230.56345)"/>
<use data-text="p" xlink:href="#font_4_83" transform="matrix(11.492259,0,0,-11.492259,80.71589,230.56345)"/>
<use data-text="t" xlink:href="#font_4_87" transform="matrix(11.492259,0,0,-11.492259,87.10559,230.56345)"/>
<use data-text="i" xlink:href="#font_4_76" transform="matrix(11.492259,0,0,-11.492259,90.30044,230.56345)"/>
<use data-text="o" xlink:href="#font_4_82" transform="matrix(11.492259,0,0,-11.492259,92.85172,230.56345)"/>
<use data-text="n" xlink:href="#font_4_81" transform="matrix(11.492259,0,0,-11.492259,99.24142,230.56345)"/>
</g>
</svg>
