<svg xmlns="http://www.w3.org/2000/svg" xmlns:xlink="http://www.w3.org/1999/xlink" xmlns:inkscape="http://www.inkscape.org/namespaces/inkscape" version="1.1" width="218.6865" height="73.45685" viewBox="0 0 218.6865 73.45685">
<defs>
<clipPath id="clip_1">
<path d="M119.07 13.703H218.687V73.457H119.07Z"/>
</clipPath>
<clipPath id="clip_2">
<path d="M0 0H219V74H0Z"/>
</clipPath>
</defs>
<g>
<path transform="matrix(1,0,0,-1,0,0)" stroke-width=".999" stroke-linecap="butt" stroke-miterlimit="4" stroke-linejoin="miter" fill="none" stroke="#211e1e" d="M98.508-72.957H.5V-15.043H98.508ZM91.023-40.199H43.461V-19.961H91.023ZM91.023-67.184H43.461V-46.945H91.023ZM91.023-67.184"/>
<g clip-path="url(#clip_1)">
<g clip-path="url(#clip_2)">
<path transform="matrix(1,0,0,-1,0,0)" stroke-width=".999" stroke-linecap="butt" stroke-miterlimit="4" stroke-linejoin="miter" fill="none" stroke="#211e1e" d="M120.18-15.043H218.188V-72.957H120.18Z"/>
</g>
<path transform="matrix(1,0,0,-1,0,0)" stroke-width=".999" stroke-linecap="butt" stroke-miterlimit="4" stroke-linejoin="miter" fill="none" stroke="#211e1e" d="M210.707-40.199H163.145V-19.961H210.707ZM210.707-67.184H163.145V-46.945H210.707ZM210.707-67.184"/>
</g>
<path d="M12.355 31.219 12.949 33.219C13.027 33.484 13.105 33.609 13.371 33.609 13.574 33.609 13.684 33.531 13.746 33.313L14.73 30.016C15.012 30.016 15.105 29.938 15.105 29.703 15.105 29.5 15.012 29.391 14.84 29.391H13.668C13.387 29.391 13.277 29.453 13.277 29.703 13.277 29.969 13.418 30.031 13.793 30.031 13.871 30.031 13.98 30.031 14.09 30.016L13.355 32.656 12.809 30.828C12.73 30.563 12.637 30.438 12.371 30.438 12.168 30.438 12.074 30.531 12.012 30.734L11.434 32.656 10.684 30.016C10.793 30.031 10.887 30.031 10.965 30.031 11.355 30.031 11.512 29.969 11.512 29.703 11.512 29.438 11.387 29.391 11.121 29.391H9.934C9.715 29.391 9.605 29.5 9.605 29.703 9.605 29.938 9.715 30.016 9.996 30.016L10.996 33.219C11.074 33.484 11.168 33.609 11.434 33.609 11.621 33.609 11.746 33.516 11.793 33.313ZM12.355 31.219" fill="#211e1e"/>
<path d="M18.211 32.828V29.578C18.211 29.469 18.133 29.391 17.961 29.391H16.68C16.445 29.391 16.32 29.5 16.32 29.703 16.32 29.906 16.445 30.016 16.695 30.016H17.555V32.828H16.211C15.961 32.828 15.836 32.938 15.836 33.141 15.836 33.344 15.961 33.453 16.195 33.453H19.602C19.867 33.453 19.961 33.391 19.961 33.141 19.961 32.922 19.852 32.828 19.633 32.828ZM17.398 28.125C17.398 28.484 17.492 28.563 17.852 28.563 18.273 28.563 18.305 28.453 18.305 28 18.305 27.547 18.258 27.406 17.852 27.406 17.445 27.406 17.398 27.547 17.398 28.125ZM17.398 28.125" fill="#211e1e"/>
<path d="M21.672 31.484C21.672 30.609 22.219 30.031 23.047 30.031 23.875 30.031 24.438 30.625 24.438 31.438 24.438 32.25 23.859 32.859 23.047 32.859 22.266 32.859 21.672 32.313 21.672 31.484ZM24.547 33.453H25.391C25.578 33.453 25.703 33.344 25.703 33.141 25.703 32.906 25.578 32.828 25.297 32.828 25.234 32.828 25.156 32.828 25.094 32.828V27.875C25.094 27.75 25.016 27.703 24.844 27.703H23.938C23.703 27.703 23.594 27.813 23.594 28.016 23.594 28.313 23.781 28.328 24.203 28.328H24.438V30.016C24.094 29.594 23.609 29.391 23 29.391 21.813 29.391 20.906 30.297 20.906 31.469 20.906 32.703 21.75 33.563 22.859 33.563 23.484 33.563 24.031 33.313 24.375 32.875V33.234C24.375 33.375 24.406 33.453 24.547 33.453ZM24.547 33.453" fill="#211e1e"/>
<path d="M29.836 29.641H28.102V28.75C28.102 28.313 28.07 28.141 27.758 28.141 27.523 28.141 27.414 28.266 27.414 28.5 27.414 28.625 27.414 28.703 27.414 28.734V29.641H26.93C26.508 29.641 26.32 29.672 26.32 29.953 26.32 30.172 26.43 30.266 26.68 30.266H27.414V31.719C27.414 31.766 27.414 31.813 27.414 31.859 27.414 32.266 27.43 32.609 27.57 32.875 27.836 33.313 28.289 33.531 28.977 33.531 29.383 33.531 29.852 33.422 30.398 33.203 30.711 33.078 30.883 32.953 30.883 32.734 30.883 32.578 30.742 32.422 30.57 32.422 30.227 32.422 29.633 32.891 28.93 32.891 28.148 32.891 28.102 32.422 28.102 31.719V30.266H29.883C30.117 30.266 30.242 30.156 30.242 29.953 30.242 29.734 30.117 29.641 29.836 29.641ZM29.836 29.641" fill="#211e1e"/>
<path d="M32.391 32.828C32.359 32.828 32.328 32.828 32.313 32.828 31.953 32.828 31.797 32.891 31.797 33.141 31.797 33.344 31.906 33.453 32.141 33.453H33.313C33.578 33.453 33.672 33.391 33.672 33.141 33.672 32.891 33.547 32.828 33.25 32.828 33.188 32.828 33.125 32.828 33.047 32.828V31C33.047 30.344 33.672 29.953 34.203 29.953 34.766 29.953 35.125 30.297 35.125 31V32.828C35.047 32.828 35 32.828 34.953 32.828 34.641 32.828 34.516 32.891 34.516 33.141 34.516 33.391 34.609 33.453 34.875 33.453H36.047C36.281 33.453 36.391 33.344 36.391 33.141 36.391 32.906 36.25 32.828 35.984 32.828 35.922 32.828 35.859 32.828 35.797 32.828V30.844C35.797 29.828 35.188 29.281 34.344 29.281 33.891 29.281 33.484 29.469 33.063 29.875V27.875C33.063 27.781 32.984 27.703 32.813 27.703H32.141C31.906 27.703 31.797 27.813 31.797 28.016 31.797 28.234 31.922 28.328 32.203 28.328 32.266 28.328 32.328 28.328 32.391 28.328ZM32.391 32.828" fill="#211e1e"/>
<path d="M6.676 55.313V59.813H5.473C5.223 59.813 5.098 59.922 5.098 60.125 5.098 60.328 5.207 60.438 5.441 60.438H8.691C8.957 60.438 9.051 60.375 9.051 60.125 9.051 59.906 8.941 59.813 8.723 59.813H7.348V54.859C7.348 54.766 7.27 54.688 7.098 54.688H5.645C5.41 54.688 5.301 54.797 5.301 55 5.301 55.219 5.426 55.313 5.707 55.313 5.754 55.313 5.832 55.313 5.941 55.313ZM6.676 55.313" fill="#211e1e"/>
<path d="M10.918 58.031C11.09 57.297 11.668 56.859 12.434 56.859 13.152 56.859 13.699 57.328 13.793 58.031ZM10.902 58.594H13.855C14.402 58.594 14.59 58.594 14.59 58.188 14.59 57.203 13.777 56.266 12.434 56.266 11.074 56.266 10.137 57.141 10.137 58.391 10.137 59.703 10.996 60.547 12.34 60.547 12.949 60.547 13.574 60.406 14.184 60.109 14.449 59.984 14.574 59.844 14.574 59.656 14.574 59.5 14.434 59.375 14.262 59.375 13.871 59.375 13.309 59.922 12.418 59.922 11.496 59.922 10.949 59.453 10.902 58.594ZM10.902 58.594" fill="#211e1e"/>
<path d="M16.18 59.813C16.133 59.813 16.117 59.813 16.086 59.813 15.727 59.813 15.57 59.875 15.57 60.125 15.57 60.328 15.68 60.438 15.945 60.438 16.055 60.438 16.133 60.438 16.18 60.438H16.977C17.305 60.438 17.445 60.422 17.445 60.125 17.445 59.875 17.32 59.813 17.023 59.813 16.961 59.813 16.898 59.813 16.836 59.813V57.984C16.836 57.328 17.445 56.938 17.977 56.938 18.555 56.938 18.867 57.281 18.867 57.984V59.813C18.82 59.813 18.773 59.813 18.727 59.813 18.414 59.813 18.289 59.875 18.289 60.125 18.289 60.406 18.414 60.438 18.727 60.438H19.695C20.008 60.438 20.164 60.375 20.164 60.125 20.164 59.891 20.039 59.813 19.758 59.813 19.695 59.813 19.617 59.813 19.555 59.813V57.828C19.555 56.813 18.961 56.266 18.133 56.266 17.664 56.266 17.258 56.453 16.836 56.859V56.563C16.836 56.453 16.758 56.375 16.586 56.375H16.18C15.773 56.375 15.57 56.375 15.57 56.688 15.57 56.906 15.695 57 15.977 57 16.039 57 16.117 57 16.18 57ZM16.18 59.813" fill="#211e1e"/>
<path d="M25 60.203V57C25.031 57 25.063 57 25.094 57 25.453 57 25.609 56.938 25.609 56.688 25.609 56.484 25.5 56.375 25.266 56.375H24.594C24.422 56.375 24.344 56.438 24.344 56.563V56.875C23.922 56.547 23.5 56.375 23.047 56.375 21.984 56.375 21.109 57.172 21.109 58.297 21.109 59.453 21.922 60.25 23.016 60.25 23.578 60.25 23.984 60.063 24.344 59.656V60.188C24.344 61.094 24.078 61.516 23.156 61.516 22.922 61.516 22.672 61.453 22.422 61.453 22.203 61.453 22.031 61.609 22.031 61.781 22.031 62.078 22.359 62.188 23 62.188 23.813 62.188 24.406 61.953 24.734 61.531 25 61.188 25 60.797 25 60.297 25 60.266 25 60.234 25 60.203ZM23.094 57.031C23.875 57.031 24.406 57.563 24.406 58.297 24.406 59.047 23.859 59.578 23.094 59.578 22.328 59.578 21.797 59.047 21.797 58.297 21.797 57.547 22.328 57.031 23.094 57.031ZM23.094 57.031" fill="#211e1e"/>
<path d="M29.836 56.625H28.102V55.734C28.102 55.297 28.07 55.125 27.758 55.125 27.523 55.125 27.414 55.25 27.414 55.484 27.414 55.609 27.414 55.688 27.414 55.719V56.625H26.93C26.508 56.625 26.32 56.656 26.32 56.938 26.32 57.156 26.43 57.25 26.68 57.25H27.414V58.703C27.414 58.75 27.414 58.797 27.414 58.844 27.414 59.25 27.43 59.594 27.57 59.859 27.836 60.297 28.289 60.516 28.977 60.516 29.383 60.516 29.852 60.406 30.398 60.188 30.711 60.063 30.883 59.938 30.883 59.719 30.883 59.563 30.742 59.406 30.57 59.406 30.227 59.406 29.633 59.875 28.93 59.875 28.148 59.875 28.102 59.406 28.102 58.703V57.25H29.883C30.117 57.25 30.242 57.141 30.242 56.938 30.242 56.719 30.117 56.625 29.836 56.625ZM29.836 56.625" fill="#211e1e"/>
<path d="M32.391 59.813C32.359 59.813 32.328 59.813 32.313 59.813 31.953 59.813 31.797 59.875 31.797 60.125 31.797 60.328 31.906 60.438 32.141 60.438H33.313C33.578 60.438 33.672 60.375 33.672 60.125 33.672 59.875 33.547 59.813 33.25 59.813 33.188 59.813 33.125 59.813 33.047 59.813V57.984C33.047 57.328 33.672 56.938 34.203 56.938 34.766 56.938 35.125 57.281 35.125 57.984V59.813C35.047 59.813 35 59.813 34.953 59.813 34.641 59.813 34.516 59.875 34.516 60.125 34.516 60.375 34.609 60.438 34.875 60.438H36.047C36.281 60.438 36.391 60.328 36.391 60.125 36.391 59.891 36.25 59.813 35.984 59.813 35.922 59.813 35.859 59.813 35.797 59.813V57.828C35.797 56.813 35.188 56.266 34.344 56.266 33.891 56.266 33.484 56.453 33.063 56.859V54.859C33.063 54.766 32.984 54.688 32.813 54.688H32.141C31.906 54.688 31.797 54.797 31.797 55 31.797 55.219 31.922 55.313 32.203 55.313 32.266 55.313 32.328 55.313 32.391 55.313ZM32.391 59.813" fill="#211e1e"/>
<path d="M66.793 30.016V28.594H68.777C69.059 28.594 69.199 28.469 69.199 28.25 69.199 28.031 69.074 27.906 68.777 27.906H66.559C66.277 27.906 66.152 27.969 66.152 28.172V30.359C66.152 30.641 66.184 30.813 66.402 30.813 66.652 30.813 66.949 30.422 67.637 30.422 68.34 30.422 68.855 30.969 68.855 31.688 68.855 32.422 68.34 32.953 67.527 32.953 66.84 32.953 66.355 32.609 66.152 32.609 65.98 32.609 65.84 32.766 65.84 32.906 65.84 33.266 66.543 33.594 67.574 33.594 68.777 33.594 69.59 32.766 69.59 31.656 69.59 30.625 68.84 29.813 67.809 29.813 67.496 29.813 67.168 29.875 66.793 30.016ZM66.793 30.016" fill="#211e1e"/>
<path d="M65.32 54.723 66.148 54.535V58.816H65.414C65.008 58.816 64.82 58.832 64.82 59.129 64.82 59.332 64.93 59.441 65.164 59.441H67.789C68.023 59.441 68.148 59.332 68.148 59.129 68.148 58.832 67.961 58.816 67.539 58.816H66.836V54.066C66.836 53.895 66.773 53.785 66.664 53.785 66.602 53.785 66.539 53.785 66.477 53.801L65.164 54.16C64.977 54.207 64.883 54.316 64.883 54.457 64.883 54.629 64.992 54.738 65.18 54.738 65.227 54.738 65.273 54.738 65.32 54.723ZM65.32 54.723" fill="#211e1e"/>
<path d="M71.781 59.582C72.859 59.582 73.594 58.535 73.594 56.676 73.594 54.801 72.859 53.754 71.781 53.754 70.719 53.754 69.984 54.801 69.984 56.676 69.984 58.535 70.719 59.582 71.781 59.582ZM71.781 54.379C72.438 54.379 72.844 55.16 72.844 56.676 72.844 58.176 72.438 58.957 71.781 58.957 71.141 58.957 70.719 58.176 70.719 56.676 70.719 55.16 71.141 54.379 71.781 54.379ZM71.781 54.379" fill="#211e1e"/>
<path d="M27.762 3.047V.891C27.762 .766 27.684 .719 27.512 .719H26.84C26.605 .719 26.496 .828 26.496 1.031 26.496 1.25 26.621 1.344 26.902 1.344 26.965 1.344 27.027 1.344 27.09 1.344V5.844C27.059 5.844 27.027 5.844 26.996 5.844 26.637 5.844 26.496 5.906 26.496 6.156 26.496 6.359 26.605 6.469 26.84 6.469H27.637C27.777 6.469 27.824 6.391 27.824 6.25V5.891C28.121 6.328 28.574 6.547 29.184 6.547 30.371 6.547 31.262 5.625 31.262 4.484 31.262 3.313 30.387 2.406 29.215 2.406 28.59 2.406 28.09 2.625 27.762 3.047ZM29.121 5.859C28.309 5.859 27.746 5.266 27.746 4.453 27.746 3.641 28.324 3.047 29.121 3.047 29.949 3.047 30.512 3.656 30.512 4.453 30.512 5.297 29.949 5.859 29.121 5.859ZM29.121 5.859" fill="#211e1e"/>
<path d="M36.598 4.438C36.598 3.234 35.707 2.313 34.301 2.313 32.91 2.313 32.004 3.219 32.004 4.438 32.004 5.672 32.91 6.578 34.301 6.578 35.707 6.578 36.598 5.672 36.598 4.438ZM34.301 5.969C33.395 5.969 32.77 5.313 32.77 4.438 32.77 3.578 33.395 2.906 34.301 2.906 35.223 2.906 35.848 3.578 35.848 4.438 35.848 5.328 35.223 5.969 34.301 5.969ZM34.301 5.969" fill="#211e1e"/>
<path d="M38.762 5.844 39.762 4.766 40.871 5.844H40.637C40.371 5.844 40.23 5.969 40.23 6.156 40.23 6.375 40.387 6.469 40.684 6.469H41.59C41.965 6.469 42.121 6.422 42.121 6.156 42.121 5.969 41.996 5.844 41.777 5.844 41.762 5.844 41.746 5.844 41.73 5.844L40.184 4.344 41.449 3.031C41.496 3.031 41.543 3.047 41.574 3.047 41.887 3.047 42.027 2.938 42.027 2.719 42.027 2.531 41.902 2.406 41.73 2.406H40.59C40.277 2.406 40.137 2.5 40.137 2.719 40.137 2.938 40.293 3.031 40.621 3.031 40.652 3.031 40.684 3.031 40.715 3.031L39.809 3.953 38.871 3.031C39.199 3.031 39.371 2.938 39.371 2.719 39.371 2.5 39.23 2.406 38.918 2.406H38.027C37.637 2.406 37.48 2.469 37.48 2.719 37.48 2.953 37.605 3.031 37.934 3.031 37.949 3.031 37.98 3.031 37.996 3.031L39.387 4.391 37.965 5.844C37.934 5.844 37.902 5.844 37.871 5.844 37.559 5.844 37.387 5.938 37.387 6.141 37.387 6.359 37.512 6.469 37.684 6.469H38.887C39.184 6.469 39.355 6.375 39.355 6.156 39.355 5.969 39.184 5.844 38.887 5.844 38.84 5.844 38.809 5.844 38.762 5.844ZM38.762 5.844" fill="#211e1e"/>
<path d="M44.082 1.75 44.91 1.563V5.844H44.176C43.77 5.844 43.582 5.859 43.582 6.156 43.582 6.359 43.691 6.469 43.926 6.469H46.551C46.785 6.469 46.91 6.359 46.91 6.156 46.91 5.859 46.723 5.844 46.301 5.844H45.598V1.094C45.598 .922 45.535 .813 45.426 .813 45.363 .813 45.301 .813 45.238 .828L43.926 1.188C43.738 1.234 43.645 1.344 43.645 1.484 43.645 1.656 43.754 1.766 43.941 1.766 43.988 1.766 44.035 1.766 44.082 1.75ZM44.082 1.75" fill="#211e1e"/>
<path d="M50.656 4.109C50.656 5.328 51.344 6.594 52.844 6.594 54.344 6.594 55.031 5.328 55.031 4.109 55.031 2.891 54.344 1.625 52.844 1.625 51.344 1.625 50.656 2.891 50.656 4.109ZM51.484 4.109C51.484 3.484 51.719 2.313 52.844 2.313 53.984 2.313 54.219 3.484 54.219 4.109 54.219 4.734 53.984 5.906 52.844 5.906 51.719 5.906 51.484 4.734 51.484 4.109ZM51.484 4.109" fill="#211e1e"/>
<path d="M56.609 6.469V5.891H56.625C56.797 6.141 57.125 6.609 57.922 6.609 59.531 6.609 60 5.094 60 3.969 60 2.656 59.281 1.625 58.031 1.625 57.484 1.641 57.016 1.859 56.672 2.359H56.656V0H55.859V6.469ZM59.172 4.109C59.172 5.141 58.766 5.922 57.906 5.922 57.406 5.922 56.625 5.594 56.625 4.328 56.625 3.578 56.75 2.344 57.891 2.344 59.109 2.344 59.172 3.5 59.172 4.109ZM59.172 4.109" fill="#211e1e"/>
<path d="M61.734 1.766H60.953V7.078C60.953 7.609 60.828 7.641 60.359 7.641H60.203V8.328C60.313 8.344 60.422 8.359 60.531 8.359 61.703 8.359 61.734 7.563 61.734 7.156ZM61.734 0H60.953V.906H61.734ZM61.734 0" fill="#211e1e"/>
<path d="M66.121 5C66.105 5.344 65.668 5.922 64.918 5.922 64.012 5.922 63.543 5.359 63.543 4.375H66.98C66.98 2.703 66.324 1.625 64.965 1.625 63.402 1.625 62.699 2.781 62.699 4.25 62.699 5.609 63.48 6.609 64.809 6.609 65.559 6.609 65.871 6.422 66.09 6.281 66.684 5.891 66.887 5.219 66.918 5ZM63.543 3.734C63.543 3.016 64.121 2.344 64.855 2.344 65.809 2.344 66.121 3.016 66.168 3.734ZM63.543 3.734" fill="#211e1e"/>
<path d="M71.641 3.344C71.578 2.531 71.109 1.625 69.875 1.625 68.313 1.625 67.609 2.781 67.609 4.25 67.609 5.609 68.391 6.609 69.719 6.609 71.094 6.609 71.563 5.547 71.641 4.797H70.875C70.734 5.531 70.281 5.922 69.75 5.922 68.656 5.922 68.453 4.922 68.453 4.109 68.453 3.281 68.781 2.344 69.75 2.344 70.422 2.344 70.766 2.719 70.875 3.344ZM71.641 3.344" fill="#211e1e"/>
<path d="M74.152 2.422V1.766H73.402V.453H72.605V1.766H71.965V2.422H72.605V5.531C72.605 6.094 72.777 6.531 73.559 6.531 73.637 6.531 73.871 6.5 74.152 6.469V5.844H73.871C73.715 5.844 73.402 5.844 73.402 5.484V2.422ZM74.152 2.422" fill="#211e1e"/>
<path d="M132.051 31.219 132.645 33.219C132.723 33.484 132.801 33.609 133.066 33.609 133.27 33.609 133.379 33.531 133.441 33.313L134.426 30.016C134.707 30.016 134.801 29.938 134.801 29.703 134.801 29.5 134.707 29.391 134.535 29.391H133.363C133.082 29.391 132.973 29.453 132.973 29.703 132.973 29.969 133.113 30.031 133.488 30.031 133.566 30.031 133.676 30.031 133.785 30.016L133.051 32.656 132.504 30.828C132.426 30.563 132.332 30.438 132.066 30.438 131.863 30.438 131.77 30.531 131.707 30.734L131.129 32.656 130.379 30.016C130.488 30.031 130.582 30.031 130.66 30.031 131.051 30.031 131.207 29.969 131.207 29.703 131.207 29.438 131.082 29.391 130.816 29.391H129.629C129.41 29.391 129.301 29.5 129.301 29.703 129.301 29.938 129.41 30.016 129.691 30.016L130.691 33.219C130.77 33.484 130.863 33.609 131.129 33.609 131.316 33.609 131.441 33.516 131.488 33.313ZM132.051 31.219" fill="#211e1e"/>
<path d="M137.906 32.828V29.578C137.906 29.469 137.828 29.391 137.656 29.391H136.375C136.141 29.391 136.016 29.5 136.016 29.703 136.016 29.906 136.141 30.016 136.391 30.016H137.25V32.828H135.906C135.656 32.828 135.531 32.938 135.531 33.141 135.531 33.344 135.656 33.453 135.891 33.453H139.297C139.563 33.453 139.656 33.391 139.656 33.141 139.656 32.922 139.547 32.828 139.328 32.828ZM137.094 28.125C137.094 28.484 137.188 28.563 137.547 28.563 137.969 28.563 138 28.453 138 28 138 27.547 137.953 27.406 137.547 27.406 137.141 27.406 137.094 27.547 137.094 28.125ZM137.094 28.125" fill="#211e1e"/>
<path d="M141.367 31.484C141.367 30.609 141.914 30.031 142.742 30.031 143.57 30.031 144.133 30.625 144.133 31.438 144.133 32.25 143.555 32.859 142.742 32.859 141.961 32.859 141.367 32.313 141.367 31.484ZM144.242 33.453H145.086C145.273 33.453 145.398 33.344 145.398 33.141 145.398 32.906 145.273 32.828 144.992 32.828 144.93 32.828 144.852 32.828 144.789 32.828V27.875C144.789 27.75 144.711 27.703 144.539 27.703H143.633C143.398 27.703 143.289 27.813 143.289 28.016 143.289 28.313 143.477 28.328 143.898 28.328H144.133V30.016C143.789 29.594 143.305 29.391 142.695 29.391 141.508 29.391 140.602 30.297 140.602 31.469 140.602 32.703 141.445 33.563 142.555 33.563 143.18 33.563 143.727 33.313 144.07 32.875V33.234C144.07 33.375 144.102 33.453 144.242 33.453ZM144.242 33.453" fill="#211e1e"/>
<path d="M149.531 29.641H147.797V28.75C147.797 28.313 147.766 28.141 147.453 28.141 147.219 28.141 147.109 28.266 147.109 28.5 147.109 28.625 147.109 28.703 147.109 28.734V29.641H146.625C146.203 29.641 146.016 29.672 146.016 29.953 146.016 30.172 146.125 30.266 146.375 30.266H147.109V31.719C147.109 31.766 147.109 31.813 147.109 31.859 147.109 32.266 147.125 32.609 147.266 32.875 147.531 33.313 147.984 33.531 148.672 33.531 149.078 33.531 149.547 33.422 150.094 33.203 150.406 33.078 150.578 32.953 150.578 32.734 150.578 32.578 150.438 32.422 150.266 32.422 149.922 32.422 149.328 32.891 148.625 32.891 147.844 32.891 147.797 32.422 147.797 31.719V30.266H149.578C149.813 30.266 149.938 30.156 149.938 29.953 149.938 29.734 149.813 29.641 149.531 29.641ZM149.531 29.641" fill="#211e1e"/>
<path d="M152.086 32.828C152.055 32.828 152.023 32.828 152.008 32.828 151.648 32.828 151.492 32.891 151.492 33.141 151.492 33.344 151.602 33.453 151.836 33.453H153.008C153.273 33.453 153.367 33.391 153.367 33.141 153.367 32.891 153.242 32.828 152.945 32.828 152.883 32.828 152.82 32.828 152.742 32.828V31C152.742 30.344 153.367 29.953 153.898 29.953 154.461 29.953 154.82 30.297 154.82 31V32.828C154.742 32.828 154.695 32.828 154.648 32.828 154.336 32.828 154.211 32.891 154.211 33.141 154.211 33.391 154.305 33.453 154.57 33.453H155.742C155.977 33.453 156.086 33.344 156.086 33.141 156.086 32.906 155.945 32.828 155.68 32.828 155.617 32.828 155.555 32.828 155.492 32.828V30.844C155.492 29.828 154.883 29.281 154.039 29.281 153.586 29.281 153.18 29.469 152.758 29.875V27.875C152.758 27.781 152.68 27.703 152.508 27.703H151.836C151.602 27.703 151.492 27.813 151.492 28.016 151.492 28.234 151.617 28.328 151.898 28.328 151.961 28.328 152.023 28.328 152.086 28.328ZM152.086 32.828" fill="#211e1e"/>
<path d="M126.371 55.313V59.813H125.168C124.918 59.813 124.793 59.922 124.793 60.125 124.793 60.328 124.902 60.438 125.137 60.438H128.387C128.652 60.438 128.746 60.375 128.746 60.125 128.746 59.906 128.637 59.813 128.418 59.813H127.043V54.859C127.043 54.766 126.965 54.688 126.793 54.688H125.34C125.105 54.688 124.996 54.797 124.996 55 124.996 55.219 125.121 55.313 125.402 55.313 125.449 55.313 125.527 55.313 125.637 55.313ZM126.371 55.313" fill="#211e1e"/>
<path d="M130.613 58.031C130.785 57.297 131.363 56.859 132.129 56.859 132.848 56.859 133.395 57.328 133.488 58.031ZM130.598 58.594H133.551C134.098 58.594 134.285 58.594 134.285 58.188 134.285 57.203 133.473 56.266 132.129 56.266 130.77 56.266 129.832 57.141 129.832 58.391 129.832 59.703 130.691 60.547 132.035 60.547 132.645 60.547 133.27 60.406 133.879 60.109 134.145 59.984 134.27 59.844 134.27 59.656 134.27 59.5 134.129 59.375 133.957 59.375 133.566 59.375 133.004 59.922 132.113 59.922 131.191 59.922 130.645 59.453 130.598 58.594ZM130.598 58.594" fill="#211e1e"/>
<path d="M135.875 59.813C135.828 59.813 135.813 59.813 135.781 59.813 135.422 59.813 135.266 59.875 135.266 60.125 135.266 60.328 135.375 60.438 135.641 60.438 135.75 60.438 135.828 60.438 135.875 60.438H136.672C137 60.438 137.141 60.422 137.141 60.125 137.141 59.875 137.016 59.813 136.719 59.813 136.656 59.813 136.594 59.813 136.531 59.813V57.984C136.531 57.328 137.141 56.938 137.672 56.938 138.25 56.938 138.563 57.281 138.563 57.984V59.813C138.516 59.813 138.469 59.813 138.422 59.813 138.109 59.813 137.984 59.875 137.984 60.125 137.984 60.406 138.109 60.438 138.422 60.438H139.391C139.703 60.438 139.859 60.375 139.859 60.125 139.859 59.891 139.734 59.813 139.453 59.813 139.391 59.813 139.313 59.813 139.25 59.813V57.828C139.25 56.813 138.656 56.266 137.828 56.266 137.359 56.266 136.953 56.453 136.531 56.859V56.563C136.531 56.453 136.453 56.375 136.281 56.375H135.875C135.469 56.375 135.266 56.375 135.266 56.688 135.266 56.906 135.391 57 135.672 57 135.734 57 135.813 57 135.875 57ZM135.875 59.813" fill="#211e1e"/>
<path d="M144.695 60.203V57C144.727 57 144.758 57 144.789 57 145.148 57 145.305 56.938 145.305 56.688 145.305 56.484 145.195 56.375 144.961 56.375H144.289C144.117 56.375 144.039 56.438 144.039 56.563V56.875C143.617 56.547 143.195 56.375 142.742 56.375 141.68 56.375 140.805 57.172 140.805 58.297 140.805 59.453 141.617 60.25 142.711 60.25 143.273 60.25 143.68 60.063 144.039 59.656V60.188C144.039 61.094 143.773 61.516 142.852 61.516 142.617 61.516 142.367 61.453 142.117 61.453 141.898 61.453 141.727 61.609 141.727 61.781 141.727 62.078 142.055 62.188 142.695 62.188 143.508 62.188 144.102 61.953 144.43 61.531 144.695 61.188 144.695 60.797 144.695 60.297 144.695 60.266 144.695 60.234 144.695 60.203ZM142.789 57.031C143.57 57.031 144.102 57.563 144.102 58.297 144.102 59.047 143.555 59.578 142.789 59.578 142.023 59.578 141.492 59.047 141.492 58.297 141.492 57.547 142.023 57.031 142.789 57.031ZM142.789 57.031" fill="#211e1e"/>
<path d="M149.531 56.625H147.797V55.734C147.797 55.297 147.766 55.125 147.453 55.125 147.219 55.125 147.109 55.25 147.109 55.484 147.109 55.609 147.109 55.688 147.109 55.719V56.625H146.625C146.203 56.625 146.016 56.656 146.016 56.938 146.016 57.156 146.125 57.25 146.375 57.25H147.109V58.703C147.109 58.75 147.109 58.797 147.109 58.844 147.109 59.25 147.125 59.594 147.266 59.859 147.531 60.297 147.984 60.516 148.672 60.516 149.078 60.516 149.547 60.406 150.094 60.188 150.406 60.063 150.578 59.938 150.578 59.719 150.578 59.563 150.438 59.406 150.266 59.406 149.922 59.406 149.328 59.875 148.625 59.875 147.844 59.875 147.797 59.406 147.797 58.703V57.25H149.578C149.813 57.25 149.938 57.141 149.938 56.938 149.938 56.719 149.813 56.625 149.531 56.625ZM149.531 56.625" fill="#211e1e"/>
<path d="M152.086 59.813C152.055 59.813 152.023 59.813 152.008 59.813 151.648 59.813 151.492 59.875 151.492 60.125 151.492 60.328 151.602 60.438 151.836 60.438H153.008C153.273 60.438 153.367 60.375 153.367 60.125 153.367 59.875 153.242 59.813 152.945 59.813 152.883 59.813 152.82 59.813 152.742 59.813V57.984C152.742 57.328 153.367 56.938 153.898 56.938 154.461 56.938 154.82 57.281 154.82 57.984V59.813C154.742 59.813 154.695 59.813 154.648 59.813 154.336 59.813 154.211 59.875 154.211 60.125 154.211 60.375 154.305 60.438 154.57 60.438H155.742C155.977 60.438 156.086 60.328 156.086 60.125 156.086 59.891 155.945 59.813 155.68 59.813 155.617 59.813 155.555 59.813 155.492 59.813V57.828C155.492 56.813 154.883 56.266 154.039 56.266 153.586 56.266 153.18 56.453 152.758 56.859V54.859C152.758 54.766 152.68 54.688 152.508 54.688H151.836C151.602 54.688 151.492 54.797 151.492 55 151.492 55.219 151.617 55.313 151.898 55.313 151.961 55.313 152.023 55.313 152.086 55.313ZM152.086 59.813" fill="#211e1e"/>
<path d="M181.66 30.512V29.09H183.645C183.926 29.09 184.066 28.965 184.066 28.746 184.066 28.527 183.941 28.402 183.645 28.402H181.426C181.145 28.402 181.02 28.465 181.02 28.668V30.855C181.02 31.137 181.051 31.309 181.27 31.309 181.52 31.309 181.816 30.918 182.504 30.918 183.207 30.918 183.723 31.465 183.723 32.184 183.723 32.918 183.207 33.449 182.395 33.449 181.707 33.449 181.223 33.105 181.02 33.105 180.848 33.105 180.707 33.262 180.707 33.402 180.707 33.762 181.41 34.09 182.441 34.09 183.645 34.09 184.457 33.262 184.457 32.152 184.457 31.121 183.707 30.309 182.676 30.309 182.363 30.309 182.035 30.371 181.66 30.512ZM181.66 30.512" fill="#211e1e"/>
<path d="M188.059 34.09C189.137 34.09 189.871 33.043 189.871 31.184 189.871 29.309 189.137 28.262 188.059 28.262 186.996 28.262 186.262 29.309 186.262 31.184 186.262 33.043 186.996 34.09 188.059 34.09ZM188.059 28.887C188.715 28.887 189.121 29.668 189.121 31.184 189.121 32.684 188.715 33.465 188.059 33.465 187.418 33.465 186.996 32.684 186.996 31.184 186.996 29.668 187.418 28.887 188.059 28.887ZM188.059 28.887" fill="#211e1e"/>
<path d="M193.473 34.09C194.551 34.09 195.285 33.043 195.285 31.184 195.285 29.309 194.551 28.262 193.473 28.262 192.41 28.262 191.676 29.309 191.676 31.184 191.676 33.043 192.41 34.09 193.473 34.09ZM193.473 28.887C194.129 28.887 194.535 29.668 194.535 31.184 194.535 32.684 194.129 33.465 193.473 33.465 192.832 33.465 192.41 32.684 192.41 31.184 192.41 29.668 192.832 28.887 193.473 28.887ZM193.473 28.887" fill="#211e1e"/>
<path d="M179.68 55.215 180.508 55.027V59.309H179.773C179.367 59.309 179.18 59.324 179.18 59.621 179.18 59.824 179.289 59.934 179.523 59.934H182.148C182.383 59.934 182.508 59.824 182.508 59.621 182.508 59.324 182.32 59.309 181.898 59.309H181.195V54.559C181.195 54.387 181.133 54.277 181.023 54.277 180.961 54.277 180.898 54.277 180.836 54.293L179.523 54.652C179.336 54.699 179.242 54.809 179.242 54.949 179.242 55.121 179.352 55.23 179.539 55.23 179.586 55.23 179.633 55.23 179.68 55.215ZM179.68 55.215" fill="#211e1e"/>
<path d="M186.145 60.074C187.223 60.074 187.957 59.027 187.957 57.168 187.957 55.293 187.223 54.246 186.145 54.246 185.082 54.246 184.348 55.293 184.348 57.168 184.348 59.027 185.082 60.074 186.145 60.074ZM186.145 54.871C186.801 54.871 187.207 55.652 187.207 57.168 187.207 58.668 186.801 59.449 186.145 59.449 185.504 59.449 185.082 58.668 185.082 57.168 185.082 55.652 185.504 54.871 186.145 54.871ZM186.145 54.871" fill="#211e1e"/>
<path d="M191.559 60.074C192.637 60.074 193.371 59.027 193.371 57.168 193.371 55.293 192.637 54.246 191.559 54.246 190.496 54.246 189.762 55.293 189.762 57.168 189.762 59.027 190.496 60.074 191.559 60.074ZM191.559 54.871C192.215 54.871 192.621 55.652 192.621 57.168 192.621 58.668 192.215 59.449 191.559 59.449 190.918 59.449 190.496 58.668 190.496 57.168 190.496 55.652 190.918 54.871 191.559 54.871ZM191.559 54.871" fill="#211e1e"/>
<path d="M196.973 60.074C198.051 60.074 198.785 59.027 198.785 57.168 198.785 55.293 198.051 54.246 196.973 54.246 195.91 54.246 195.176 55.293 195.176 57.168 195.176 59.027 195.91 60.074 196.973 60.074ZM196.973 54.871C197.629 54.871 198.035 55.652 198.035 57.168 198.035 58.668 197.629 59.449 196.973 59.449 196.332 59.449 195.91 58.668 195.91 57.168 195.91 55.652 196.332 54.871 196.973 54.871ZM196.973 54.871" fill="#211e1e"/>
<path d="M147.445 3.047V.891C147.445 .766 147.367 .719 147.195 .719H146.523C146.289 .719 146.18 .828 146.18 1.031 146.18 1.25 146.305 1.344 146.586 1.344 146.648 1.344 146.711 1.344 146.773 1.344V5.844C146.742 5.844 146.711 5.844 146.68 5.844 146.32 5.844 146.18 5.906 146.18 6.156 146.18 6.359 146.289 6.469 146.523 6.469H147.32C147.461 6.469 147.508 6.391 147.508 6.25V5.891C147.805 6.328 148.258 6.547 148.867 6.547 150.055 6.547 150.945 5.625 150.945 4.484 150.945 3.313 150.07 2.406 148.898 2.406 148.273 2.406 147.773 2.625 147.445 3.047ZM148.805 5.859C147.992 5.859 147.43 5.266 147.43 4.453 147.43 3.641 148.008 3.047 148.805 3.047 149.633 3.047 150.195 3.656 150.195 4.453 150.195 5.297 149.633 5.859 148.805 5.859ZM148.805 5.859" fill="#211e1e"/>
<path d="M156.285 4.438C156.285 3.234 155.395 2.313 153.988 2.313 152.598 2.313 151.691 3.219 151.691 4.438 151.691 5.672 152.598 6.578 153.988 6.578 155.395 6.578 156.285 5.672 156.285 4.438ZM153.988 5.969C153.082 5.969 152.457 5.313 152.457 4.438 152.457 3.578 153.082 2.906 153.988 2.906 154.91 2.906 155.535 3.578 155.535 4.438 155.535 5.328 154.91 5.969 153.988 5.969ZM153.988 5.969" fill="#211e1e"/>
<path d="M158.449 5.844 159.449 4.766 160.559 5.844H160.324C160.059 5.844 159.918 5.969 159.918 6.156 159.918 6.375 160.074 6.469 160.371 6.469H161.277C161.652 6.469 161.809 6.422 161.809 6.156 161.809 5.969 161.684 5.844 161.465 5.844 161.449 5.844 161.434 5.844 161.418 5.844L159.871 4.344 161.137 3.031C161.184 3.031 161.23 3.047 161.262 3.047 161.574 3.047 161.715 2.938 161.715 2.719 161.715 2.531 161.59 2.406 161.418 2.406H160.277C159.965 2.406 159.824 2.5 159.824 2.719 159.824 2.938 159.98 3.031 160.309 3.031 160.34 3.031 160.371 3.031 160.402 3.031L159.496 3.953 158.559 3.031C158.887 3.031 159.059 2.938 159.059 2.719 159.059 2.5 158.918 2.406 158.605 2.406H157.715C157.324 2.406 157.168 2.469 157.168 2.719 157.168 2.953 157.293 3.031 157.621 3.031 157.637 3.031 157.668 3.031 157.684 3.031L159.074 4.391 157.652 5.844C157.621 5.844 157.59 5.844 157.559 5.844 157.246 5.844 157.074 5.938 157.074 6.141 157.074 6.359 157.199 6.469 157.371 6.469H158.574C158.871 6.469 159.043 6.375 159.043 6.156 159.043 5.969 158.871 5.844 158.574 5.844 158.527 5.844 158.496 5.844 158.449 5.844ZM158.449 5.844" fill="#211e1e"/>
<path d="M163.285 6.469H166.191C166.332 6.469 166.426 6.375 166.441 6.188L166.488 5.844C166.488 5.813 166.504 5.781 166.504 5.75 166.504 5.516 166.363 5.391 166.176 5.391 165.988 5.391 165.879 5.516 165.848 5.781H163.848L164.379 5.25C165.52 4.125 166.457 3.453 166.457 2.406 166.457 1.484 165.738 .781 164.754 .781 164.16 .781 163.566 1.016 163.207 1.375 163.066 1.516 163.051 1.594 163.051 1.766 163.051 2.063 163.098 2.219 163.316 2.219 163.629 2.219 163.691 1.953 163.801 1.813 163.988 1.563 164.363 1.391 164.738 1.391 165.301 1.391 165.691 1.813 165.691 2.453 165.691 3.188 164.957 3.797 163.801 4.891 163.191 5.484 162.832 5.781 162.832 6.078 162.832 6.359 162.988 6.469 163.285 6.469ZM163.285 6.469" fill="#211e1e"/>
<path d="M170.34 4.109C170.34 5.328 171.027 6.594 172.527 6.594 174.027 6.594 174.715 5.328 174.715 4.109 174.715 2.891 174.027 1.625 172.527 1.625 171.027 1.625 170.34 2.891 170.34 4.109ZM171.168 4.109C171.168 3.484 171.402 2.313 172.527 2.313 173.668 2.313 173.902 3.484 173.902 4.109 173.902 4.734 173.668 5.906 172.527 5.906 171.402 5.906 171.168 4.734 171.168 4.109ZM171.168 4.109" fill="#211e1e"/>
<path d="M176.297 6.469V5.891H176.313C176.484 6.141 176.813 6.609 177.609 6.609 179.219 6.609 179.688 5.094 179.688 3.969 179.688 2.656 178.969 1.625 177.719 1.625 177.172 1.641 176.703 1.859 176.359 2.359H176.344V0H175.547V6.469ZM178.859 4.109C178.859 5.141 178.453 5.922 177.594 5.922 177.094 5.922 176.313 5.594 176.313 4.328 176.313 3.578 176.438 2.344 177.578 2.344 178.797 2.344 178.859 3.5 178.859 4.109ZM178.859 4.109" fill="#211e1e"/>
<path d="M181.422 1.766H180.641V7.078C180.641 7.609 180.516 7.641 180.047 7.641H179.891V8.328C180 8.344 180.109 8.359 180.219 8.359 181.391 8.359 181.422 7.563 181.422 7.156ZM181.422 0H180.641V.906H181.422ZM181.422 0" fill="#211e1e"/>
<path d="M185.809 5C185.793 5.344 185.355 5.922 184.605 5.922 183.699 5.922 183.23 5.359 183.23 4.375H186.668C186.668 2.703 186.012 1.625 184.652 1.625 183.09 1.625 182.387 2.781 182.387 4.25 182.387 5.609 183.168 6.609 184.496 6.609 185.246 6.609 185.559 6.422 185.777 6.281 186.371 5.891 186.574 5.219 186.605 5ZM183.23 3.734C183.23 3.016 183.809 2.344 184.543 2.344 185.496 2.344 185.809 3.016 185.855 3.734ZM183.23 3.734" fill="#211e1e"/>
<path d="M191.324 3.344C191.262 2.531 190.793 1.625 189.559 1.625 187.996 1.625 187.293 2.781 187.293 4.25 187.293 5.609 188.074 6.609 189.402 6.609 190.777 6.609 191.246 5.547 191.324 4.797H190.559C190.418 5.531 189.965 5.922 189.434 5.922 188.34 5.922 188.137 4.922 188.137 4.109 188.137 3.281 188.465 2.344 189.434 2.344 190.105 2.344 190.449 2.719 190.559 3.344ZM191.324 3.344" fill="#211e1e"/>
<path d="M193.84 2.422V1.766H193.09V.453H192.293V1.766H191.652V2.422H192.293V5.531C192.293 6.094 192.465 6.531 193.246 6.531 193.324 6.531 193.559 6.5 193.84 6.469V5.844H193.559C193.402 5.844 193.09 5.844 193.09 5.484V2.422ZM193.84 2.422" fill="#211e1e"/>
</g>
</svg>
