<svg xmlns="http://www.w3.org/2000/svg" xmlns:xlink="http://www.w3.org/1999/xlink" xmlns:inkscape="http://www.inkscape.org/namespaces/inkscape" version="1.1" width="209.2164" height="133.07767" viewBox="0 0 209.2164 133.07767">
<defs>
<clipPath id="clip_1">
<path d="M156.336 80.848H209.219V108.848H156.336Z"/>
</clipPath>
<clipPath id="clip_2">
<path d="M0 0H210V134H0Z"/>
</clipPath>
</defs>
<g>
<path transform="matrix(1,0,0,-1,0,0)" stroke-width=".65" stroke-linecap="butt" stroke-miterlimit="4" stroke-linejoin="miter" fill="none" stroke="#211e1e" d="M114.18-48.422H95.039V-24.344H114.18ZM51.613-107.926H.324V-81.879H51.613ZM51.613-107.926"/>
<g clip-path="url(#clip_1)">
<g clip-path="url(#clip_2)">
<path transform="matrix(1,0,0,-1,0,0)" stroke-width=".65" stroke-linecap="butt" stroke-miterlimit="4" stroke-linejoin="miter" fill="none" stroke="#211e1e" d="M157.605-81.879H208.89V-107.925998H157.605Z"/>
</g>
</g>
<path transform="matrix(1,0,0,-1,0,0)" stroke-width=".65" stroke-linecap="butt" stroke-miterlimit="4" stroke-linejoin="miter" fill="none" stroke="#211e1e" d="M130.254-107.926H78.965V-81.879H130.254ZM104.605-81.871V-52.887"/>
<path d="M103.941 51.352C103.613 52.426 103.316 53.125 102.973 53.984H106.246C106.102 53.68 105.602 52.426 105.277 51.352 104.93 50.203 104.695 49.16 104.609 48.484 104.523 49.16 104.285 50.203 103.941 51.352" fill="#211e1e"/>
<path transform="matrix(1,0,0,-1,0,0)" stroke-width=".65" stroke-linecap="butt" stroke-miterlimit="4" stroke-linejoin="miter" fill="none" stroke="#211e1e" d="M24.715-81.871 90.547-52.453"/>
<path d="M91.52 51.094C90.43 51.367 89.68 51.469 88.762 51.617L90.445 54.426C90.637 54.145 91.453 53.074 92.207 52.242 93.016 51.355 93.789 50.617 94.324 50.195 93.699 50.469 92.684 50.801 91.52 51.094" fill="#211e1e"/>
<path transform="matrix(1,0,0,-1,0,0)" stroke-width=".65" stroke-linecap="butt" stroke-miterlimit="4" stroke-linejoin="miter" fill="none" stroke="#211e1e" d="M183.602-81.699 117.77-52.285"/>
<path d="M116.797 50.926C117.883 51.199 118.637 51.301 119.551 51.445L117.867 54.258C117.68 53.973 116.863 52.902 116.105 52.074 115.301 51.184 114.527 50.445 113.988 50.027 114.613 50.301 115.629 50.633 116.797 50.926" fill="#211e1e"/>
<path d="M103.207 36.883C103.332 36.883 103.457 36.883 103.566 36.883 104.113 36.883 105.051 36.977 105.051 38.039 105.051 38.773 104.473 39.258 103.66 39.258 102.488 39.258 102.348 38.461 102.316 37.867H101.504C101.551 38.602 101.738 39.32 102.441 39.695 102.754 39.852 103.145 39.977 103.613 39.977 105.223 39.977 105.895 38.977 105.895 37.945 105.895 37.102 105.441 36.664 104.832 36.461V36.445C105.176 36.336 105.645 35.945 105.645 35.148 105.645 34.18 104.91 33.477 103.691 33.477 102.035 33.477 101.645 34.617 101.645 35.555H102.426C102.457 35.102 102.535 34.195 103.66 34.195 104.598 34.195 104.832 34.805 104.832 35.195 104.832 35.977 104.238 36.227 103.629 36.227 103.488 36.227 103.348 36.211 103.207 36.211ZM103.207 36.883" fill="#211e1e"/>
<path d="M62.836 4.438C62.836 3.234 61.945 2.313 60.539 2.313 59.148 2.313 58.242 3.219 58.242 4.438 58.242 5.672 59.148 6.578 60.539 6.578 61.945 6.578 62.836 5.672 62.836 4.438ZM60.539 5.969C59.633 5.969 59.008 5.313 59.008 4.438 59.008 3.578 59.633 2.906 60.539 2.906 61.461 2.906 62.086 3.578 62.086 4.438 62.086 5.328 61.461 5.969 60.539 5.969ZM60.539 5.969" fill="#211e1e"/>
<path d="M64.828 3.047V.891C64.828 .766 64.75 .719 64.578 .719H63.906C63.672 .719 63.563 .828 63.563 1.031 63.563 1.25 63.688 1.344 63.969 1.344 64.031 1.344 64.094 1.344 64.156 1.344V5.844C64.125 5.844 64.094 5.844 64.063 5.844 63.703 5.844 63.563 5.906 63.563 6.156 63.563 6.359 63.672 6.469 63.906 6.469H64.703C64.844 6.469 64.891 6.391 64.891 6.25V5.891C65.188 6.328 65.641 6.547 66.25 6.547 67.438 6.547 68.328 5.625 68.328 4.484 68.328 3.313 67.453 2.406 66.281 2.406 65.656 2.406 65.156 2.625 64.828 3.047ZM66.188 5.859C65.375 5.859 64.813 5.266 64.813 4.453 64.813 3.641 65.391 3.047 66.188 3.047 67.016 3.047 67.578 3.656 67.578 4.453 67.578 5.297 67.016 5.859 66.188 5.859ZM66.188 5.859" fill="#211e1e"/>
<path d="M72.727 5.859V2.594C72.727 2.484 72.648 2.406 72.477 2.406H70.055C69.82 2.406 69.695 2.516 69.695 2.719 69.695 2.938 69.82 3.031 70.117 3.031 70.164 3.031 70.242 3.031 70.336 3.031H72.055V6.188C72.055 7.094 71.773 7.516 70.867 7.516 70.633 7.516 70.383 7.453 70.117 7.453 69.914 7.453 69.742 7.609 69.742 7.797 69.742 8.078 70.055 8.203 70.711 8.203 71.711 8.203 72.367 7.844 72.602 7.266 72.711 6.969 72.727 6.516 72.727 5.859ZM71.539 1.141C71.539 1.5 71.617 1.578 71.992 1.578 72.414 1.578 72.43 1.469 72.43 1.016 72.43 .563 72.398 .422 71.992 .422 71.586 .422 71.539 .563 71.539 1.141ZM71.539 1.141" fill="#211e1e"/>
<path d="M75.316 4.063C75.488 3.328 76.066 2.891 76.832 2.891 77.551 2.891 78.098 3.359 78.191 4.063ZM75.301 4.625H78.254C78.801 4.625 78.988 4.625 78.988 4.219 78.988 3.234 78.176 2.297 76.832 2.297 75.473 2.297 74.535 3.172 74.535 4.422 74.535 5.734 75.395 6.578 76.738 6.578 77.348 6.578 77.973 6.438 78.582 6.141 78.848 6.016 78.973 5.875 78.973 5.688 78.973 5.531 78.832 5.406 78.66 5.406 78.27 5.406 77.707 5.953 76.816 5.953 75.895 5.953 75.348 5.484 75.301 4.625ZM75.301 4.625" fill="#211e1e"/>
<path d="M84.184 3.734V2.906C84.184 2.531 84.137 2.375 83.871 2.375 83.652 2.375 83.527 2.453 83.527 2.656V2.672C83.043 2.422 82.605 2.297 82.137 2.297 80.887 2.297 79.934 3.234 79.934 4.438 79.934 5.656 80.871 6.578 82.152 6.578 83.215 6.578 84.199 5.922 84.199 5.5 84.199 5.328 84.074 5.203 83.902 5.203 83.668 5.203 83.496 5.422 83.215 5.594 82.902 5.797 82.543 5.922 82.199 5.922 81.277 5.922 80.699 5.313 80.699 4.438 80.699 3.594 81.324 2.984 82.23 2.984 82.762 2.984 83.168 3.234 83.434 3.703 83.574 3.953 83.668 4.063 83.855 4.063 84.074 4.063 84.184 3.953 84.184 3.734ZM84.184 3.734" fill="#211e1e"/>
<path d="M88.816 2.656H87.082V1.766C87.082 1.328 87.051 1.156 86.738 1.156 86.504 1.156 86.395 1.281 86.395 1.516 86.395 1.641 86.395 1.719 86.395 1.75V2.656H85.91C85.488 2.656 85.301 2.688 85.301 2.969 85.301 3.188 85.41 3.281 85.66 3.281H86.395V4.734C86.395 4.781 86.395 4.828 86.395 4.875 86.395 5.281 86.41 5.625 86.551 5.891 86.816 6.328 87.27 6.547 87.957 6.547 88.363 6.547 88.832 6.438 89.379 6.219 89.691 6.094 89.863 5.969 89.863 5.75 89.863 5.594 89.723 5.438 89.551 5.438 89.207 5.438 88.613 5.906 87.91 5.906 87.129 5.906 87.082 5.438 87.082 4.734V3.281H88.863C89.098 3.281 89.223 3.172 89.223 2.969 89.223 2.75 89.098 2.656 88.816 2.656ZM88.816 2.656" fill="#211e1e"/>
<path d="M94.418 1.406C93.996 1.219 93.605 1.125 93.199 1.125 91.73 1.125 90.668 2.297 90.668 3.875 90.668 5.484 91.762 6.594 93.184 6.594 93.746 6.594 94.215 6.438 94.699 6.125 95.027 5.922 95.199 5.781 95.199 5.578 95.199 5.391 95.059 5.266 94.871 5.266 94.715 5.266 94.543 5.453 94.246 5.625 93.902 5.813 93.543 5.906 93.215 5.906 92.23 5.906 91.48 5.141 91.48 3.875 91.48 2.484 92.184 1.719 93.199 1.719 93.777 1.719 94.23 2.047 94.34 2.453 94.434 2.844 94.387 3.063 94.777 3.063 95.027 3.063 95.09 2.953 95.09 2.719 95.09 2.656 95.074 2.297 95.074 1.625 95.074 1.328 95.043 1.188 94.746 1.188 94.574 1.188 94.48 1.25 94.418 1.406ZM94.418 1.406" fill="#211e1e"/>
<path d="M100.738 4.438C100.738 3.234 99.848 2.313 98.441 2.313 97.051 2.313 96.145 3.219 96.145 4.438 96.145 5.672 97.051 6.578 98.441 6.578 99.848 6.578 100.738 5.672 100.738 4.438ZM98.441 5.969C97.535 5.969 96.91 5.313 96.91 4.438 96.91 3.578 97.535 2.906 98.441 2.906 99.363 2.906 99.988 3.578 99.988 4.438 99.988 5.328 99.363 5.969 98.441 5.969ZM98.441 5.969" fill="#211e1e"/>
<path d="M102.75 4.844V2.75C102.75 2.719 102.75 2.719 102.75 2.703 102.75 2.5 102.734 2.406 102.5 2.406H101.828C101.594 2.406 101.484 2.516 101.484 2.719 101.484 2.938 101.609 3.031 101.891 3.031 101.953 3.031 102.016 3.031 102.078 3.031V5.016C102.078 6.031 102.563 6.563 103.531 6.563 104.063 6.563 104.438 6.359 104.906 5.984V6.281C104.906 6.391 104.984 6.469 105.156 6.469H105.813C106.047 6.469 106.172 6.359 106.172 6.156 106.172 5.922 106.047 5.844 105.766 5.844 105.703 5.844 105.625 5.844 105.563 5.844V2.828C105.563 2.578 105.563 2.406 105.266 2.406H104.328C104.078 2.406 103.969 2.5 103.969 2.719 103.969 2.938 104.063 3.031 104.297 3.031H104.906V4.844C104.906 5.5 104.328 5.906 103.734 5.906 103.063 5.906 102.75 5.563 102.75 4.844ZM102.75 4.844" fill="#211e1e"/>
<path d="M107.648 5.844C107.602 5.844 107.586 5.844 107.555 5.844 107.195 5.844 107.039 5.906 107.039 6.156 107.039 6.359 107.148 6.469 107.414 6.469 107.523 6.469 107.602 6.469 107.648 6.469H108.445C108.773 6.469 108.914 6.453 108.914 6.156 108.914 5.906 108.789 5.844 108.492 5.844 108.43 5.844 108.367 5.844 108.305 5.844V4.016C108.305 3.359 108.914 2.969 109.445 2.969 110.023 2.969 110.336 3.313 110.336 4.016V5.844C110.289 5.844 110.242 5.844 110.195 5.844 109.883 5.844 109.758 5.906 109.758 6.156 109.758 6.438 109.883 6.469 110.195 6.469H111.164C111.477 6.469 111.633 6.406 111.633 6.156 111.633 5.922 111.508 5.844 111.227 5.844 111.164 5.844 111.086 5.844 111.023 5.844V3.859C111.023 2.844 110.43 2.297 109.602 2.297 109.133 2.297 108.727 2.484 108.305 2.891V2.594C108.305 2.484 108.227 2.406 108.055 2.406H107.648C107.242 2.406 107.039 2.406 107.039 2.719 107.039 2.938 107.164 3.031 107.445 3.031 107.508 3.031 107.586 3.031 107.648 3.031ZM107.648 5.844" fill="#211e1e"/>
<path d="M115.891 2.656H114.156V1.766C114.156 1.328 114.125 1.156 113.813 1.156 113.578 1.156 113.469 1.281 113.469 1.516 113.469 1.641 113.469 1.719 113.469 1.75V2.656H112.984C112.563 2.656 112.375 2.688 112.375 2.969 112.375 3.188 112.484 3.281 112.734 3.281H113.469V4.734C113.469 4.781 113.469 4.828 113.469 4.875 113.469 5.281 113.484 5.625 113.625 5.891 113.891 6.328 114.344 6.547 115.031 6.547 115.438 6.547 115.906 6.438 116.453 6.219 116.766 6.094 116.938 5.969 116.938 5.75 116.938 5.594 116.797 5.438 116.625 5.438 116.281 5.438 115.688 5.906 114.984 5.906 114.203 5.906 114.156 5.438 114.156 4.734V3.281H115.938C116.172 3.281 116.297 3.172 116.297 2.969 116.297 2.75 116.172 2.656 115.891 2.656ZM115.891 2.656" fill="#211e1e"/>
<path d="M122.137 5.594H122.121L120.887 1.766H119.98L121.699 6.469H122.543L124.324 1.766H123.465ZM122.137 5.594" fill="#211e1e"/>
<path d="M125.453 3.188C125.516 2.828 125.641 2.281 126.531 2.281 127.281 2.281 127.641 2.547 127.641 3.047 127.641 3.516 127.422 3.594 127.234 3.609L125.922 3.766C124.609 3.938 124.5 4.844 124.5 5.25 124.5 6.063 125.109 6.609 125.969 6.609 126.891 6.609 127.359 6.172 127.672 5.844 127.703 6.203 127.813 6.563 128.516 6.563 128.688 6.563 128.813 6.5 128.938 6.469V5.891C128.859 5.906 128.75 5.922 128.688 5.922 128.516 5.922 128.422 5.844 128.422 5.656V2.938C128.422 1.734 127.047 1.625 126.672 1.625 125.516 1.625 124.766 2.063 124.734 3.188ZM127.625 4.844C127.625 5.469 126.906 5.953 126.172 5.953 125.578 5.953 125.313 5.641 125.313 5.125 125.313 4.531 125.938 4.422 126.328 4.359 127.297 4.234 127.5 4.172 127.625 4.063ZM127.625 4.844" fill="#211e1e"/>
<path d="M130.66 3.734C130.66 3.047 131.129 2.469 131.863 2.469H132.16V1.656C132.098 1.641 132.051 1.625 131.957 1.625 131.363 1.625 130.941 2 130.629 2.547H130.613V1.766H129.863V6.469H130.66ZM130.66 3.734" fill="#211e1e"/>
<path d="M133.695 1.766H132.914V6.469H133.695ZM133.695 .906V0H132.914V.906ZM133.695 .906" fill="#211e1e"/>
<path d="M135.582 3.188C135.645 2.828 135.77 2.281 136.66 2.281 137.41 2.281 137.77 2.547 137.77 3.047 137.77 3.516 137.551 3.594 137.363 3.609L136.051 3.766C134.738 3.938 134.629 4.844 134.629 5.25 134.629 6.063 135.238 6.609 136.098 6.609 137.02 6.609 137.488 6.172 137.801 5.844 137.832 6.203 137.941 6.563 138.645 6.563 138.816 6.563 138.941 6.5 139.066 6.469V5.891C138.988 5.906 138.879 5.922 138.816 5.922 138.645 5.922 138.551 5.844 138.551 5.656V2.938C138.551 1.734 137.176 1.625 136.801 1.625 135.645 1.625 134.895 2.063 134.863 3.188ZM137.754 4.844C137.754 5.469 137.035 5.953 136.301 5.953 135.707 5.953 135.441 5.641 135.441 5.125 135.441 4.531 136.066 4.422 136.457 4.359 137.426 4.234 137.629 4.172 137.754 4.063ZM137.754 4.844" fill="#211e1e"/>
<path d="M140.566 6.469V5.891H140.582C140.754 6.141 141.082 6.609 141.879 6.609 143.488 6.609 143.957 5.094 143.957 3.969 143.957 2.656 143.238 1.625 141.988 1.625 141.441 1.641 140.973 1.859 140.629 2.359H140.613V0H139.816V6.469ZM143.129 4.109C143.129 5.141 142.723 5.922 141.863 5.922 141.363 5.922 140.582 5.594 140.582 4.328 140.582 3.578 140.707 2.344 141.848 2.344 143.066 2.344 143.129 3.5 143.129 4.109ZM143.129 4.109" fill="#211e1e"/>
<path d="M144.734 0H145.515V6.469H144.734Z" fill="#211e1e"/>
<path d="M149.902 5C149.887 5.344 149.449 5.922 148.699 5.922 147.793 5.922 147.324 5.359 147.324 4.375H150.762C150.762 2.703 150.105 1.625 148.746 1.625 147.184 1.625 146.48 2.781 146.48 4.25 146.48 5.609 147.262 6.609 148.59 6.609 149.34 6.609 149.652 6.422 149.871 6.281 150.465 5.891 150.668 5.219 150.699 5ZM147.324 3.734C147.324 3.016 147.902 2.344 148.637 2.344 149.59 2.344 149.902 3.016 149.949 3.734ZM147.324 3.734" fill="#211e1e"/>
<path d="M93.266 10.668C92.281 12.043 91.734 13.324 91.734 14.918 91.734 16.59 92.344 17.715 93.281 19.121H93.813C93.094 17.715 92.578 16.621 92.578 15.121 92.578 12.965 93.047 12.105 93.813 10.668ZM93.266 10.668" fill="#211e1e"/>
<path d="M98.137 13.902C98.137 13.668 98.027 12.418 96.34 12.418 95.418 12.418 94.559 12.887 94.559 13.918 94.559 14.574 94.996 14.902 95.652 15.059L96.574 15.293C97.246 15.465 97.512 15.59 97.512 15.965 97.512 16.48 96.996 16.715 96.418 16.715 95.309 16.715 95.199 16.121 95.168 15.746H94.402C94.434 16.324 94.574 17.402 96.434 17.402 97.496 17.402 98.293 16.809 98.293 15.84 98.293 15.199 97.949 14.84 96.98 14.605L96.184 14.402C95.574 14.246 95.324 14.152 95.324 13.777 95.324 13.184 96.027 13.105 96.262 13.105 97.262 13.105 97.371 13.605 97.387 13.902ZM98.137 13.902" fill="#211e1e"/>
<path d="M100.93 13.215V12.559H100.18V11.246H99.383V12.559H98.742V13.215H99.383V16.324C99.383 16.887 99.555 17.324 100.336 17.324 100.414 17.324 100.648 17.293 100.93 17.262V16.637H100.648C100.492 16.637 100.18 16.637 100.18 16.277V13.215ZM100.93 13.215" fill="#211e1e"/>
<path d="M102.398 13.98C102.461 13.621 102.586 13.074 103.477 13.074 104.227 13.074 104.586 13.34 104.586 13.84 104.586 14.309 104.367 14.387 104.18 14.402L102.867 14.559C101.555 14.73 101.445 15.637 101.445 16.043 101.445 16.855 102.055 17.402 102.914 17.402 103.836 17.402 104.305 16.965 104.617 16.637 104.648 16.996 104.758 17.355 105.461 17.355 105.633 17.355 105.758 17.293 105.883 17.262V16.684C105.805 16.699 105.695 16.715 105.633 16.715 105.461 16.715 105.367 16.637 105.367 16.449V13.73C105.367 12.527 103.992 12.418 103.617 12.418 102.461 12.418 101.711 12.855 101.68 13.98ZM104.57 15.637C104.57 16.262 103.852 16.746 103.117 16.746 102.523 16.746 102.258 16.434 102.258 15.918 102.258 15.324 102.883 15.215 103.273 15.152 104.242 15.027 104.445 14.965 104.57 14.855ZM104.57 15.637" fill="#211e1e"/>
<path d="M108.434 13.215V12.559H107.684V11.246H106.887V12.559H106.246V13.215H106.887V16.324C106.887 16.887 107.059 17.324 107.84 17.324 107.918 17.324 108.152 17.293 108.434 17.262V16.637H108.152C107.996 16.637 107.684 16.637 107.684 16.277V13.215ZM108.434 13.215" fill="#211e1e"/>
<path d="M110.012 12.559H109.23V17.262H110.012ZM110.012 11.699V10.793H109.23V11.699ZM110.012 11.699" fill="#211e1e"/>
<path d="M114.914 14.137C114.852 13.324 114.383 12.418 113.148 12.418 111.586 12.418 110.883 13.574 110.883 15.043 110.883 16.402 111.664 17.402 112.992 17.402 114.367 17.402 114.836 16.34 114.914 15.59H114.148C114.008 16.324 113.555 16.715 113.023 16.715 111.93 16.715 111.727 15.715 111.727 14.902 111.727 14.074 112.055 13.137 113.023 13.137 113.695 13.137 114.039 13.512 114.148 14.137ZM114.914 14.137" fill="#211e1e"/>
<path d="M115.973 19.121C116.957 17.746 117.504 16.465 117.504 14.871 117.504 13.199 116.879 12.074 115.957 10.668H115.426C116.145 12.074 116.645 13.168 116.645 14.668 116.645 16.824 116.191 17.684 115.426 19.121ZM115.973 19.121" fill="#211e1e"/>
<path d="M22.852 94.449C22.852 93.246 21.961 92.324 20.555 92.324 19.164 92.324 18.258 93.23 18.258 94.449 18.258 95.684 19.164 96.59 20.555 96.59 21.961 96.59 22.852 95.684 22.852 94.449ZM20.555 95.98C19.648 95.98 19.023 95.324 19.023 94.449 19.023 93.59 19.648 92.918 20.555 92.918 21.477 92.918 22.102 93.59 22.102 94.449 22.102 95.34 21.477 95.98 20.555 95.98ZM20.555 95.98" fill="#211e1e"/>
<path d="M26.973 95.918 27.02 96.199C27.051 96.387 27.16 96.48 27.332 96.48H28.02C28.254 96.48 28.379 96.371 28.379 96.168 28.379 95.902 28.223 95.855 27.848 95.855H27.629V93.871C27.629 92.809 27.098 92.309 25.973 92.309 24.988 92.309 24.348 92.621 24.348 92.934 24.348 93.152 24.473 93.309 24.645 93.309 24.973 93.309 25.332 92.934 25.957 92.934 26.629 92.934 26.957 93.246 26.957 93.918 26.957 93.934 26.957 93.949 26.957 93.949 26.598 93.855 26.254 93.824 25.91 93.824 24.598 93.824 23.879 94.371 23.879 95.277 23.879 96.043 24.441 96.59 25.332 96.59 25.926 96.59 26.504 96.355 26.973 95.918ZM26.957 94.543V95.012C26.957 95.402 26.238 95.918 25.441 95.918 24.926 95.918 24.582 95.621 24.582 95.23 24.582 94.73 25.082 94.387 26.02 94.387 26.348 94.387 26.66 94.434 26.957 94.543ZM26.957 94.543" fill="#211e1e"/>
<path d="M30.59 94.793 30.98 94.434 32.293 95.855C32.074 95.934 31.949 96.043 31.949 96.199 31.949 96.402 32.074 96.48 32.324 96.48H33.512C33.73 96.48 33.855 96.371 33.855 96.168 33.855 95.934 33.762 95.855 33.512 95.855H33.121L31.465 94.043 32.105 93.496C32.418 93.215 32.715 93.074 32.934 93.043 33.277 92.996 33.496 93.027 33.496 92.715 33.496 92.527 33.371 92.418 33.152 92.418H31.965C31.715 92.418 31.574 92.512 31.574 92.684 31.574 92.824 31.668 92.918 31.855 92.996L30.59 94.059V90.902C30.59 90.809 30.512 90.73 30.34 90.73H29.496C29.262 90.73 29.152 90.84 29.152 91.043 29.152 91.34 29.34 91.355 29.746 91.355H29.918V95.855H29.715C29.324 95.855 29.168 95.902 29.168 96.168 29.168 96.371 29.293 96.48 29.527 96.48H30.324C30.48 96.48 30.59 96.34 30.59 96.09ZM30.59 94.793" fill="#211e1e"/>
<path d="M175.359 95.84C174.531 95.84 173.969 95.262 173.969 94.465 173.969 93.668 174.531 93.09 175.359 93.09 176.188 93.09 176.75 93.668 176.75 94.465 176.75 95.277 176.172 95.84 175.359 95.84ZM173.984 97.605V95.855C174.344 96.262 174.891 96.496 175.516 96.496 176.656 96.496 177.5 95.684 177.5 94.512 177.5 93.277 176.594 92.418 175.438 92.418 174.875 92.418 174.391 92.621 174 93.027V92.605C174 92.48 173.922 92.418 173.75 92.418H173.063C172.828 92.418 172.719 92.527 172.719 92.73 172.719 92.949 172.859 93.043 173.141 93.043 173.203 93.043 173.266 93.043 173.328 93.043V97.605C173.297 97.605 173.281 97.605 173.25 97.605 172.875 97.605 172.719 97.668 172.719 97.918 172.719 98.121 172.828 98.23 173.063 98.23H175.016C175.281 98.23 175.391 98.168 175.391 97.918 175.391 97.715 175.281 97.605 175.047 97.605ZM173.984 97.605" fill="#211e1e"/>
<path d="M180.945 95.855V92.605C180.945 92.496 180.867 92.418 180.695 92.418H179.414C179.18 92.418 179.055 92.527 179.055 92.73 179.055 92.934 179.18 93.043 179.43 93.043H180.289V95.855H178.945C178.695 95.855 178.57 95.965 178.57 96.168 178.57 96.371 178.695 96.48 178.93 96.48H182.336C182.602 96.48 182.695 96.418 182.695 96.168 182.695 95.949 182.586 95.855 182.367 95.855ZM180.133 91.152C180.133 91.512 180.227 91.59 180.586 91.59 181.008 91.59 181.039 91.48 181.039 91.027 181.039 90.574 180.992 90.434 180.586 90.434 180.18 90.434 180.133 90.574 180.133 91.152ZM180.133 91.152" fill="#211e1e"/>
<path d="M184.328 95.855C184.281 95.855 184.266 95.855 184.234 95.855 183.875 95.855 183.719 95.918 183.719 96.168 183.719 96.371 183.828 96.48 184.094 96.48 184.203 96.48 184.281 96.48 184.328 96.48H185.125C185.453 96.48 185.594 96.465 185.594 96.168 185.594 95.918 185.469 95.855 185.172 95.855 185.109 95.855 185.047 95.855 184.984 95.855V94.027C184.984 93.371 185.594 92.98 186.125 92.98 186.703 92.98 187.016 93.324 187.016 94.027V95.855C186.969 95.855 186.922 95.855 186.875 95.855 186.563 95.855 186.438 95.918 186.438 96.168 186.438 96.449 186.563 96.48 186.875 96.48H187.844C188.156 96.48 188.313 96.418 188.313 96.168 188.313 95.934 188.188 95.855 187.906 95.855 187.844 95.855 187.766 95.855 187.703 95.855V93.871C187.703 92.855 187.109 92.309 186.281 92.309 185.813 92.309 185.406 92.496 184.984 92.902V92.605C184.984 92.496 184.906 92.418 184.734 92.418H184.328C183.922 92.418 183.719 92.418 183.719 92.73 183.719 92.949 183.844 93.043 184.125 93.043 184.188 93.043 184.266 93.043 184.328 93.043ZM184.328 95.855" fill="#211e1e"/>
<path d="M189.902 94.074C190.074 93.34 190.652 92.902 191.418 92.902 192.137 92.902 192.684 93.371 192.777 94.074ZM189.887 94.637H192.84C193.387 94.637 193.574 94.637 193.574 94.23 193.574 93.246 192.762 92.309 191.418 92.309 190.059 92.309 189.121 93.184 189.121 94.434 189.121 95.746 189.98 96.59 191.324 96.59 191.934 96.59 192.559 96.449 193.168 96.152 193.434 96.027 193.559 95.887 193.559 95.699 193.559 95.543 193.418 95.418 193.246 95.418 192.855 95.418 192.293 95.965 191.402 95.965 190.48 95.965 189.934 95.496 189.887 94.637ZM189.887 94.637" fill="#211e1e"/>
<path d="M97.73 94.074C97.902 93.34 98.48 92.902 99.246 92.902 99.965 92.902 100.512 93.371 100.605 94.074ZM97.715 94.637H100.668C101.215 94.637 101.402 94.637 101.402 94.23 101.402 93.246 100.59 92.309 99.246 92.309 97.887 92.309 96.949 93.184 96.949 94.434 96.949 95.746 97.809 96.59 99.152 96.59 99.762 96.59 100.387 96.449 100.996 96.152 101.262 96.027 101.387 95.887 101.387 95.699 101.387 95.543 101.246 95.418 101.074 95.418 100.684 95.418 100.121 95.965 99.23 95.965 98.309 95.965 97.762 95.496 97.715 94.637ZM97.715 94.637" fill="#211e1e"/>
<path d="M104.316 91.355V95.855H103.113C102.863 95.855 102.738 95.965 102.738 96.168 102.738 96.371 102.848 96.48 103.082 96.48H106.332C106.598 96.48 106.691 96.418 106.691 96.168 106.691 95.949 106.582 95.855 106.363 95.855H104.988V90.902C104.988 90.809 104.91 90.73 104.738 90.73H103.285C103.051 90.73 102.941 90.84 102.941 91.043 102.941 91.262 103.066 91.355 103.348 91.355 103.395 91.355 103.473 91.355 103.582 91.355ZM104.316 91.355" fill="#211e1e"/>
<path d="M111.637 94.027V96.043C111.637 96.324 111.762 96.48 112.012 96.48H112.543C112.746 96.48 112.855 96.371 112.855 96.168 112.855 95.918 112.73 95.855 112.387 95.855 112.371 95.855 112.34 95.855 112.309 95.855V93.871C112.309 92.84 112.043 92.309 111.23 92.309 110.809 92.309 110.496 92.48 110.246 92.84 110.121 92.48 109.855 92.309 109.449 92.309 109.105 92.309 108.84 92.418 108.605 92.684 108.59 92.465 108.543 92.418 108.355 92.418H107.668C107.434 92.418 107.34 92.527 107.34 92.73 107.34 92.949 107.465 93.043 107.73 93.043 107.809 93.043 107.871 93.043 107.934 93.043V95.855C107.902 95.855 107.871 95.855 107.84 95.855 107.48 95.855 107.34 95.918 107.34 96.168 107.34 96.371 107.434 96.48 107.668 96.48H108.84C109.105 96.48 109.199 96.418 109.199 96.168 109.199 95.918 109.09 95.855 108.777 95.855 108.73 95.855 108.668 95.855 108.59 95.855V93.434C108.762 93.137 108.965 92.98 109.246 92.98 109.574 92.98 109.824 93.246 109.824 93.684 109.824 93.746 109.824 93.855 109.824 94.027V95.887C109.824 95.934 109.824 95.965 109.824 95.996 109.824 96.34 109.84 96.48 110.121 96.48H110.684C110.887 96.48 110.98 96.371 110.98 96.168 110.98 95.918 110.855 95.855 110.527 95.855 110.496 95.855 110.48 95.855 110.449 95.855V94.027C110.449 93.324 110.746 92.98 111.152 92.98 111.605 92.98 111.637 93.371 111.637 94.027ZM111.637 94.027" fill="#211e1e"/>
<path d="M50.102 126.469H50.977V132.938H50.102Z" fill="#211e1e"/>
<path d="M56.215 129.734C56.215 128.391 55.293 128.094 54.559 128.094 53.762 128.094 53.309 128.641 53.137 128.891H53.121V128.234H52.371V132.938H53.168V130.375C53.168 129.094 53.965 128.813 54.418 128.813 55.184 128.813 55.418 129.219 55.418 130.047V132.938H56.215ZM56.215 129.734" fill="#211e1e"/>
<path d="M60.809 129.578C60.809 129.344 60.699 128.094 59.012 128.094 58.09 128.094 57.23 128.563 57.23 129.594 57.23 130.25 57.668 130.578 58.324 130.734L59.246 130.969C59.918 131.141 60.184 131.266 60.184 131.641 60.184 132.156 59.668 132.391 59.09 132.391 57.98 132.391 57.871 131.797 57.84 131.422H57.074C57.105 132 57.246 133.078 59.105 133.078 60.168 133.078 60.965 132.484 60.965 131.516 60.965 130.875 60.621 130.516 59.652 130.281L58.855 130.078C58.246 129.922 57.996 129.828 57.996 129.453 57.996 128.859 58.699 128.781 58.934 128.781 59.934 128.781 60.043 129.281 60.059 129.578ZM60.809 129.578" fill="#211e1e"/>
<path d="M63.602 128.891V128.234H62.852V126.922H62.055V128.234H61.414V128.891H62.055V132C62.055 132.563 62.227 133 63.008 133 63.086 133 63.32 132.969 63.602 132.938V132.313H63.32C63.164 132.313 62.852 132.313 62.852 131.953V128.891ZM63.602 128.891" fill="#211e1e"/>
<path d="M65.07 129.656C65.133 129.297 65.258 128.75 66.148 128.75 66.898 128.75 67.258 129.016 67.258 129.516 67.258 129.984 67.039 130.063 66.852 130.078L65.539 130.234C64.227 130.406 64.117 131.313 64.117 131.719 64.117 132.531 64.727 133.078 65.586 133.078 66.508 133.078 66.977 132.641 67.289 132.313 67.32 132.672 67.43 133.031 68.133 133.031 68.305 133.031 68.43 132.969 68.555 132.938V132.359C68.477 132.375 68.367 132.391 68.305 132.391 68.133 132.391 68.039 132.313 68.039 132.125V129.406C68.039 128.203 66.664 128.094 66.289 128.094 65.133 128.094 64.383 128.531 64.352 129.656ZM67.242 131.313C67.242 131.938 66.523 132.422 65.789 132.422 65.195 132.422 64.93 132.109 64.93 131.594 64.93 131 65.555 130.891 65.945 130.828 66.914 130.703 67.117 130.641 67.242 130.531ZM67.242 131.313" fill="#211e1e"/>
<path d="M73.215 129.734C73.215 128.391 72.293 128.094 71.559 128.094 70.762 128.094 70.309 128.641 70.137 128.891H70.121V128.234H69.371V132.938H70.168V130.375C70.168 129.094 70.965 128.813 71.418 128.813 72.184 128.813 72.418 129.219 72.418 130.047V132.938H73.215ZM73.215 129.734" fill="#211e1e"/>
<path d="M78.09 129.813C78.027 129 77.559 128.094 76.324 128.094 74.762 128.094 74.059 129.25 74.059 130.719 74.059 132.078 74.84 133.078 76.168 133.078 77.543 133.078 78.012 132.016 78.09 131.266H77.324C77.184 132 76.73 132.391 76.199 132.391 75.105 132.391 74.902 131.391 74.902 130.578 74.902 129.75 75.23 128.813 76.199 128.813 76.871 128.813 77.215 129.188 77.324 129.813ZM78.09 129.813" fill="#211e1e"/>
<path d="M82.07 131.469C82.055 131.813 81.617 132.391 80.867 132.391 79.961 132.391 79.492 131.828 79.492 130.844H82.93C82.93 129.172 82.273 128.094 80.914 128.094 79.352 128.094 78.648 129.25 78.648 130.719 78.648 132.078 79.43 133.078 80.758 133.078 81.508 133.078 81.82 132.891 82.039 132.75 82.633 132.359 82.836 131.688 82.867 131.469ZM79.492 130.203C79.492 129.484 80.07 128.813 80.805 128.813 81.758 128.813 82.07 129.484 82.117 130.203ZM79.492 130.203" fill="#211e1e"/>
<path d="M87.309 129.578C87.309 129.344 87.199 128.094 85.512 128.094 84.59 128.094 83.73 128.563 83.73 129.594 83.73 130.25 84.168 130.578 84.824 130.734L85.746 130.969C86.418 131.141 86.684 131.266 86.684 131.641 86.684 132.156 86.168 132.391 85.59 132.391 84.48 132.391 84.371 131.797 84.34 131.422H83.574C83.605 132 83.746 133.078 85.605 133.078 86.668 133.078 87.465 132.484 87.465 131.516 87.465 130.875 87.121 130.516 86.152 130.281L85.355 130.078C84.746 129.922 84.496 129.828 84.496 129.453 84.496 128.859 85.199 128.781 85.434 128.781 86.434 128.781 86.543 129.281 86.559 129.578ZM87.309 129.578" fill="#211e1e"/>
<path d="M90.602 130.578C90.602 131.797 91.289 133.063 92.789 133.063 94.289 133.063 94.977 131.797 94.977 130.578 94.977 129.359 94.289 128.094 92.789 128.094 91.289 128.094 90.602 129.359 90.602 130.578ZM91.43 130.578C91.43 129.953 91.664 128.781 92.789 128.781 93.93 128.781 94.164 129.953 94.164 130.578 94.164 131.203 93.93 132.375 92.789 132.375 91.664 132.375 91.43 131.203 91.43 130.578ZM91.43 130.578" fill="#211e1e"/>
<path d="M97.652 128.891V128.234H96.855V127.641C96.855 127.266 96.98 127.094 97.324 127.094 97.434 127.094 97.559 127.109 97.652 127.109V126.406C97.527 126.391 97.402 126.391 97.293 126.391 96.512 126.391 96.074 126.703 96.074 127.422V128.234H95.418V128.891H96.074V132.938H96.855V128.891ZM97.652 128.891" fill="#211e1e"/>
<path d="M102.605 128.891V128.234H101.855V126.922H101.059V128.234H100.418V128.891H101.059V132C101.059 132.563 101.23 133 102.012 133 102.09 133 102.324 132.969 102.605 132.938V132.313H102.324C102.168 132.313 101.855 132.313 101.855 131.953V128.891ZM102.605 128.891" fill="#211e1e"/>
<path d="M107.215 129.734C107.215 128.391 106.293 128.094 105.559 128.094 104.809 128.094 104.418 128.563 104.184 128.859H104.168V126.469H103.371V132.938H104.168V130.375C104.168 129.188 104.84 128.813 105.48 128.813 106.246 128.813 106.418 129.219 106.418 129.859V132.938H107.215ZM107.215 129.734" fill="#211e1e"/>
<path d="M111.578 131.469C111.563 131.813 111.125 132.391 110.375 132.391 109.469 132.391 109 131.828 109 130.844H112.438C112.438 129.172 111.781 128.094 110.422 128.094 108.859 128.094 108.156 129.25 108.156 130.719 108.156 132.078 108.938 133.078 110.266 133.078 111.016 133.078 111.328 132.891 111.547 132.75 112.141 132.359 112.344 131.688 112.375 131.469ZM109 130.203C109 129.484 109.578 128.813 110.313 128.813 111.266 128.813 111.578 129.484 111.625 130.203ZM109 130.203" fill="#211e1e"/>
<path d="M116.359 129.5 116.391 128.359H117.656V132.313H116.984C116.906 132.313 116.859 132.313 116.844 132.313 116.578 132.313 116.469 132.391 116.469 132.625 116.469 132.828 116.578 132.938 116.766 132.938H119.234C119.438 132.938 119.547 132.828 119.547 132.625 119.547 132.406 119.438 132.313 119.188 132.313 119.172 132.313 119.109 132.313 119.016 132.313H118.344V128.359H119.609L119.656 129.5C119.656 129.875 119.688 130.016 120 130.016 120.188 130.016 120.297 129.906 120.297 129.703 120.297 129.672 120.297 129.609 120.297 129.484L120.25 128.031C120.234 127.813 120.141 127.719 119.906 127.719H116.094C115.875 127.719 115.781 127.813 115.766 128.031L115.719 129.484C115.703 129.609 115.703 129.688 115.703 129.688 115.703 129.906 115.813 130.016 116.016 130.016 116.328 130.016 116.344 129.875 116.359 129.5ZM116.359 129.5" fill="#211e1e"/>
<path d="M122.992 132.313V130.5C123.57 129.828 124.07 129.484 124.555 129.484 124.898 129.484 125.086 129.75 125.32 129.75 125.508 129.75 125.711 129.547 125.711 129.344 125.711 129.016 125.383 128.766 124.836 128.766 124.133 128.766 123.539 129.109 122.992 129.813V129.063C122.992 128.938 122.914 128.875 122.742 128.875H121.742C121.508 128.875 121.398 128.984 121.398 129.188 121.398 129.406 121.523 129.5 121.805 129.5 121.852 129.5 121.93 129.5 122.039 129.5H122.336V132.313H121.555C121.32 132.313 121.195 132.422 121.195 132.625 121.195 132.828 121.32 132.938 121.555 132.938H124.414C124.68 132.938 124.773 132.875 124.773 132.625 124.773 132.406 124.664 132.313 124.445 132.313ZM122.992 132.313" fill="#211e1e"/>
<path d="M127.363 130.531C127.535 129.797 128.113 129.359 128.879 129.359 129.598 129.359 130.145 129.828 130.238 130.531ZM127.348 131.094H130.301C130.848 131.094 131.035 131.094 131.035 130.688 131.035 129.703 130.223 128.766 128.879 128.766 127.52 128.766 126.582 129.641 126.582 130.891 126.582 132.203 127.441 133.047 128.785 133.047 129.395 133.047 130.02 132.906 130.629 132.609 130.895 132.484 131.02 132.344 131.02 132.156 131.02 132 130.879 131.875 130.707 131.875 130.316 131.875 129.754 132.422 128.863 132.422 127.941 132.422 127.395 131.953 127.348 131.094ZM127.348 131.094" fill="#211e1e"/>
<path d="M132.777 130.531C132.949 129.797 133.527 129.359 134.293 129.359 135.012 129.359 135.559 129.828 135.652 130.531ZM132.762 131.094H135.715C136.262 131.094 136.449 131.094 136.449 130.688 136.449 129.703 135.637 128.766 134.293 128.766 132.934 128.766 131.996 129.641 131.996 130.891 131.996 132.203 132.855 133.047 134.199 133.047 134.809 133.047 135.434 132.906 136.043 132.609 136.309 132.484 136.434 132.344 136.434 132.156 136.434 132 136.293 131.875 136.121 131.875 135.73 131.875 135.168 132.422 134.277 132.422 133.355 132.422 132.809 131.953 132.762 131.094ZM132.762 131.094" fill="#211e1e"/>
<path d="M143.754 129.813C143.691 129 143.223 128.094 141.988 128.094 140.426 128.094 139.723 129.25 139.723 130.719 139.723 132.078 140.504 133.078 141.832 133.078 143.207 133.078 143.676 132.016 143.754 131.266H142.988C142.848 132 142.395 132.391 141.863 132.391 140.77 132.391 140.566 131.391 140.566 130.578 140.566 129.75 140.895 128.813 141.863 128.813 142.535 128.813 142.879 129.188 142.988 129.813ZM143.754 129.813" fill="#211e1e"/>
<path d="M144.566 126.469H145.347V132.938H144.566Z" fill="#211e1e"/>
<path d="M147.234 129.656C147.297 129.297 147.422 128.75 148.313 128.75 149.063 128.75 149.422 129.016 149.422 129.516 149.422 129.984 149.203 130.063 149.016 130.078L147.703 130.234C146.391 130.406 146.281 131.313 146.281 131.719 146.281 132.531 146.891 133.078 147.75 133.078 148.672 133.078 149.141 132.641 149.453 132.313 149.484 132.672 149.594 133.031 150.297 133.031 150.469 133.031 150.594 132.969 150.719 132.938V132.359C150.641 132.375 150.531 132.391 150.469 132.391 150.297 132.391 150.203 132.313 150.203 132.125V129.406C150.203 128.203 148.828 128.094 148.453 128.094 147.297 128.094 146.547 128.531 146.516 129.656ZM149.406 131.313C149.406 131.938 148.688 132.422 147.953 132.422 147.359 132.422 147.094 132.109 147.094 131.594 147.094 131 147.719 130.891 148.109 130.828 149.078 130.703 149.281 130.641 149.406 130.531ZM149.406 131.313" fill="#211e1e"/>
<path d="M154.969 129.578C154.969 129.344 154.859 128.094 153.172 128.094 152.25 128.094 151.391 128.563 151.391 129.594 151.391 130.25 151.828 130.578 152.484 130.734L153.406 130.969C154.078 131.141 154.344 131.266 154.344 131.641 154.344 132.156 153.828 132.391 153.25 132.391 152.141 132.391 152.031 131.797 152 131.422H151.234C151.266 132 151.406 133.078 153.266 133.078 154.328 133.078 155.125 132.484 155.125 131.516 155.125 130.875 154.781 130.516 153.813 130.281L153.016 130.078C152.406 129.922 152.156 129.828 152.156 129.453 152.156 128.859 152.859 128.781 153.094 128.781 154.094 128.781 154.203 129.281 154.219 129.578ZM154.969 129.578" fill="#211e1e"/>
<path d="M159.465 129.578C159.465 129.344 159.355 128.094 157.668 128.094 156.746 128.094 155.887 128.563 155.887 129.594 155.887 130.25 156.324 130.578 156.98 130.734L157.902 130.969C158.574 131.141 158.84 131.266 158.84 131.641 158.84 132.156 158.324 132.391 157.746 132.391 156.637 132.391 156.527 131.797 156.496 131.422H155.73C155.762 132 155.902 133.078 157.762 133.078 158.824 133.078 159.621 132.484 159.621 131.516 159.621 130.875 159.277 130.516 158.309 130.281L157.512 130.078C156.902 129.922 156.652 129.828 156.652 129.453 156.652 128.859 157.355 128.781 157.59 128.781 158.59 128.781 158.699 129.281 158.715 129.578ZM159.465 129.578" fill="#211e1e"/>
</g>
</svg>
