<svg xmlns="http://www.w3.org/2000/svg" xmlns:xlink="http://www.w3.org/1999/xlink" xmlns:inkscape="http://www.inkscape.org/namespaces/inkscape" version="1.1" width="482.87998" height="204.95999" viewBox="0 0 482.87998 204.95999">
<defs>
<clipPath id="clip_1">
<path transform="matrix(.24,0,0,.24,0,0)" d="M0 0H2012.4999V853.51559H0Z" clip-rule="evenodd"/>
</clipPath>
<clipPath id="clip_2">
<path transform="matrix(.24,0,0,.24,0,0)" d="M0 0H2012.4999V850.5208H0Z" clip-rule="evenodd"/>
</clipPath>
<path id="font_3_36" d="M.7182617 0H.56103518L.49853517 .16308594H.21240235L.15332031 0H0L.2788086 .7158203H.43164063L.7182617 0M.45214845 .2841797 .35351563 .5488281 .25683595 .2841797H.45214845Z"/>
<path id="font_3_86" d="M.0234375 .14746094 .16113281 .16894531C.16699219 .14241536 .1788737 .122273769 .19677735 .10852051 .21468099 .09476725 .2397461 .087890628 .27197267 .087890628 .30745445 .087890628 .33414714 .09439087 .35205079 .10739136 .36409507 .116495769 .3701172 .12868755 .3701172 .14396668 .3701172 .15437317 .36686198 .1629893 .36035157 .16981507 .35351563 .17631531 .33821617 .18232727 .31445313 .18785095 .20377605 .21222432 .1336263 .23449199 .104003909 .25465394 .06298828 .2826284 .04248047 .32149253 .04248047 .37124635 .04248047 .41612754 .060221357 .45385234 .095703128 .48442079 .13118489 .5149892 .18619792 .53027346 .2607422 .53027346 .33170573 .53027346 .3844401 .5187581 .4189453 .49572755 .45345054 .47269694 .47721354 .4386393 .49023438 .3935547L.36083985 .36914063C.355306 .3893229 .34480796 .40478517 .3293457 .41552735 .31388346 .42626954 .29182945 .43164063 .2631836 .43164063 .22705078 .43164063 .20117188 .42660014 .18554688 .41651917 .1751302 .40937806 .16992188 .40011598 .16992188 .3887329 .16992188 .37898765 .17447917 .37070213 .18359375 .36387635 .19596355 .35477195 .23868816 .3419291 .31176759 .3253479 .38484703 .3087667 .4358724 .28842674 .46484376 .264328 .4934896 .2398936 .5078125 .20585633 .5078125 .16221619 .5078125 .11465963 .48795573 .073781337 .4482422 .0395813 .40852867 .005381266 .34977214-.01171875 .27197267-.01171875 .20133464-.01171875 .14542644 .0025583904 .10424805 .03111267 .063069667 .059677125 .036132814 .09845988 .0234375 .14746094Z"/>
<path id="font_3_72" d="M.3720703 .16503906 .50878909 .14160156C.49121095 .09163412 .4634603 .053588869 .4255371 .02746582 .38761393 .0013427734 .34016929-.01171875 .28320313-.01171875 .19303386-.01171875 .12630208 .017740885 .08300781 .076660159 .048828126 .12386068 .03173828 .18343099 .03173828 .2553711 .03173828 .3413086 .05419922 .40861003 .099121097 .4572754 .14404297 .50594076 .20084636 .53027346 .26953126 .53027346 .3466797 .53027346 .4075521 .50480148 .45214845 .45385743 .49674479 .40291343 .5180664 .32486979 .5161133 .21972656H.17236328C.17333985 .17903646 .18440755 .14737956 .2055664 .12475586 .22672527 .102132167 .25309245 .09082031 .28466798 .09082031 .30615235 .09082031 .32421876 .09667969 .3388672 .10839844 .35351563 .12011719 .36458335 .13899739 .3720703 .16503906M.3798828 .30371095C.37890626 .34326173 .36865235 .3733317 .3491211 .3939209 .32958985 .4145101 .3058268 .4248047 .27783204 .4248047 .24788411 .4248047 .22314453 .41394554 .20361328 .39222718 .18408203 .37049867 .17447917 .34099327 .17480469 .30371095H.3798828Z"/>
<path id="font_3_87" d="M.3095703 .5185547V.4091797H.21582031V.200531C.21582031 .15827434 .2167155 .13365174 .21850586 .12666321 .22029622 .11968485 .22436524 .11391703 .23071289 .10935974 .23706055 .10481262 .24479167 .10253906 .25390626 .10253906 .26660157 .10253906 .2849935 .106933597 .30908204 .115722659L.32080079 .008880615C.28889976-.004852295 .25276695-.01171875 .21240235-.01171875 .18766277-.01171875 .16536458-.0075683596 .14550781 .0007324219 .12565105 .009033203 .111083988 .01977539 .10180664 .032958986 .0925293 .046142579 .08610026 .063964847 .08251953 .08642578 .079589847 .102376308 .078125 .13460286 .078125 .18310547V.4091797H.015136719V.5185547H.078125V.6220703L.21582031 .703125V.5185547H.3095703Z"/>
<path id="font_3_37" d="M.07324219 .7158203H.359375C.41601563 .7158203 .45825196 .71346029 .48608399 .70874026 .513916 .70403036 .53881838 .6941986 .560791 .679245 .5827637 .6643016 .6010742 .6443939 .61572268 .6195221 .6303711 .59466049 .6376953 .5667877 .6376953 .53590396 .6376953 .50242617 .6286621 .4717102 .6105957 .4437561 .5925293 .415802 .5680339 .39483644 .5371094 .38085938 .5807292 .3681437 .6142578 .34646607 .6376953 .31582643 .6611328 .28519694 .67285159 .2491811 .67285159 .20777893 .67285159 .17518616 .6652832 .14348857 .6501465 .11268616 .63500979 .08189392 .6143392 .05728658 .58813479 .038864137 .56193038 .020451865 .5296224 .009124756 .49121095 .0048828127 .4671224 .0022786458 .40901695 .0006510417 .31689454 0H.07324219V.7158203M.21777344 .5966797V.43164063H.3125C.3688151 .43164063 .4038086 .43245445 .41748048 .43408204 .44222007 .43700157 .46166993 .44551597 .47583009 .45962525 .48999024 .47374473 .4970703 .49232994 .4970703 .51538088 .4970703 .53744509 .4909668 .55537417 .47875978 .5691681 .46655274 .58296206 .44840495 .5913188 .4243164 .5942383 .4099935 .5958659 .3688151 .5966797 .30078126 .5966797H.21777344M.21777344 .3125V.12109375H.3515625C.40364585 .12109375 .4366862 .122558597 .4506836 .12548828 .47216798 .12939453 .4896647 .13891602 .5031738 .15405274 .5166829 .16918946 .5234375 .18945313 .5234375 .21484375 .5234375 .23632813 .5182292 .25455729 .5078125 .26953126 .49739585 .28450523 .48234049 .29541017 .46264649 .3022461 .44295249 .30908204 .40022788 .3125 .33447267 .3125H.21777344Z"/>
<path id="font_3_68" d="M.1743164 .35839845 .049804689 .38085938C.063802089 .4316508 .087890628 .46924845 .12207031 .49365235 .15625 .5180664 .20703125 .53027346 .27441407 .53027346 .33561198 .53027346 .3811849 .5230306 .4111328 .5085449 .44108073 .49405924 .4621582 .47566734 .47436524 .45336915 .48657228 .43107096 .49267579 .39013673 .49267579 .3305664L.49121095 .17041016C.49121095 .12483724 .4934082 .09122721 .49780274 .06958008 .50219729 .04793294 .5104167 .024739584 .52246096 0H.38671876C.38313804 .009114583 .3787435 .022623698 .37353517 .040527345 .3712565 .048665365 .3696289 .054036458 .36865235 .056640626 .34521485 .033854169 .32014976 .016764323 .29345704 .0053710939 .2667643-.0060221354 .23828125-.01171875 .20800781-.01171875 .15462239-.01171875 .11254883 .0027058919 .08178711 .031555177 .05102539 .06040446 .03564453 .09687296 .03564453 .1409607 .03564453 .1701355 .04264323 .19614665 .056640626 .21899414 .07063802 .2418518 .09025065 .25935874 .115478519 .2715149 .14070638 .28367106 .17708333 .2942861 .22460938 .30336 .28873698 .3153534 .33317057 .3265381 .35791017 .33691407V.35073854C.35791017 .37740074 .35139976 .39640809 .3383789 .40776063 .32535807 .41912333 .30078126 .4248047 .26464845 .4248047 .24023438 .4248047 .2211914 .41989137 .20751953 .4100647 .19384766 .4002482 .18277996 .38302613 .1743164 .35839845M.35791017 .24707031C.34033204 .24128215 .3125 .23436482 .27441407 .22631836 .23632813 .21828206 .21142578 .21040344 .19970703 .2026825 .18180339 .19013977 .17285156 .17421977 .17285156 .15492249 .17285156 .13594055 .18001302 .119532268 .19433594 .10569763 .20865886 .09187317 .22688802 .08496094 .24902344 .08496094 .27376304 .08496094 .29736329 .09300232 .31982423 .10908508 .33642579 .121302288 .34733073 .13626099 .35253907 .15396118 .35611979 .16553752 .35791017 .18756612 .35791017 .220047V.24707031Z"/>
<path id="font_3_81" d="M.54345706 0H.40625V.26434327C.40625 .32027183 .4033203 .3564453 .39746095 .37286378 .39160157 .38928224 .38208009 .40204368 .36889649 .41114808 .3557129 .42025248 .33984376 .4248047 .32128907 .4248047 .29752604 .4248047 .27620445 .41829936 .25732423 .4052887 .23844402 .3922882 .22550456 .37505595 .21850586 .35359193 .21150716 .33213807 .20800781 .2924703 .20800781 .23458863V0H.07080078V.5185547H.19824219V.4423828C.24348958 .50097659 .30045573 .53027346 .36914063 .53027346 .39941407 .53027346 .42708335 .524821 .45214845 .513916 .47721354 .50301107 .49617515 .48909507 .5090332 .47216798 .5218913 .45524089 .5308431 .43603517 .5358887 .41455079 .54093429 .3930664 .54345706 .3623047 .54345706 .32226563V0Z"/>
<path id="font_3_78" d="M.06689453 0V.7158203H.20410156V.3359375L.3647461 .5185547H.5336914L.3564453 .32902528 .5463867 0H.3984375L.2680664 .23297119 .20410156 .16601563V0H.06689453Z"/>
<path id="font_3_70" d="M.5239258 .36523438 .38867188 .3408203C.3841146 .36767579 .3737793 .38789878 .35766603 .40148927 .34155274 .41507975 .32063804 .421875 .29492188 .421875 .2607422 .421875 .23347982 .41011048 .21313477 .38658143 .19278972 .36305238 .18261719 .32370506 .18261719 .26853944 .18261719 .2071991 .19295247 .16386922 .21362305 .1385498 .23429363 .11324056 .26204429 .10058594 .296875 .10058594 .32291667 .10058594 .34423829 .10799154 .36083985 .122802738 .3774414 .13761394 .38916017 .16308594 .3959961 .19921875L.5307617 .17578125C.51676437 .11393229 .48990885 .067220058 .4501953 .03564453 .41048179 .0040690104 .35725913-.01171875 .29052735-.01171875 .21468099-.01171875 .1542155 .012207031 .10913086 .060058595 .06404623 .107910159 .041503908 .17415364 .041503908 .25878907 .041503908 .34440104 .0641276 .41105143 .109375 .45874024 .15462239 .506429 .21582031 .53027346 .29296876 .53027346 .35611979 .53027346 .4063314 .5166829 .44360353 .48950196 .48087565 .46232096 .5076497 .42089845 .5239258 .36523438Z"/>
<path id="font_3_82" d="M.040039064 .26660157C.040039064 .31217448 .05126953 .35628257 .07373047 .39892579 .096191409 .441569 .12801107 .4741211 .16918946 .49658204 .21036785 .51904299 .25634767 .53027346 .3071289 .53027346 .38557945 .53027346 .44986979 .50480148 .5 .45385743 .5501302 .40291343 .5751953 .33854167 .5751953 .2607422 .5751953 .18229167 .54988607 .11726888 .49926759 .06567383 .44864909 .014078776 .38492839-.01171875 .30810548-.01171875 .26057945-.01171875 .21525066-.0009765625 .17211914 .020507813 .12898763 .041992189 .096191409 .07348633 .07373047 .114990238 .05126953 .15649414 .040039064 .20703125 .040039064 .26660157M.18066406 .25927735C.18066406 .20800781 .1928711 .16874187 .21728516 .14147949 .24169922 .114217128 .2718099 .10058594 .3076172 .10058594 .34342448 .10058594 .37345378 .114217128 .39770509 .14147949 .4219564 .16874187 .43408204 .20833333 .43408204 .2602539 .43408204 .3108724 .4219564 .34981285 .39770509 .3770752 .37345378 .40433757 .34342448 .41796876 .3076172 .41796876 .2718099 .41796876 .24169922 .40433757 .21728516 .3770752 .1928711 .34981285 .18066406 .31054688 .18066406 .25927735Z"/>
<path id="font_3_88" d="M.41308595 0V.07763672C.39420573 .04996745 .36938478 .028157553 .33862306 .012207031 .30786134-.0037434896 .27539063-.01171875 .24121094-.01171875 .2063802-.01171875 .1751302-.0040690104 .14746094 .011230469 .119791667 .026529948 .09977213 .048014326 .087402347 .075683597 .075032558 .10335287 .068847659 .14160156 .068847659 .19042969V.5185547H.20605469V.28082276C.20605469 .20806885 .20857747 .16349285 .21362305 .14709473 .21866863 .13069661 .22786458 .1177063 .24121094 .10812378 .25455729 .09854126 .27148438 .09375 .2919922 .09375 .3154297 .09375 .33642579 .10016378 .35498048 .11299133 .37353517 .1258189 .38623048 .14173381 .3930664 .16073609 .39990235 .17973836 .4033203 .2262624 .4033203 .30030824V.5185547H.54052737V0H.41308595Z"/>
<path id="font_3_54" d="M.036132814 .23242188 .17675781 .24609375C.18522136 .19872029 .20239258 .16392517 .22827149 .14170838 .2541504 .11950175 .2890625 .10839844 .3330078 .10839844 .37955729 .10839844 .41463218 .11827596 .43823243 .138031 .46183268 .15778606 .4736328 .18089295 .4736328 .20735169 .4736328 .22432964 .4686686 .23877461 .45874024 .25068666 .44881187 .26260887 .43147788 .27297975 .40673829 .28179933 .3898112 .28766886 .35123698 .29810588 .29101563 .31311036 .21354167 .33235679 .15917969 .3560079 .12792969 .38406373 .083984378 .4235331 .06201172 .47164408 .06201172 .5283966 .06201172 .56492617 .07234701 .5990906 .09301758 .6308899 .11368815 .6626994 .14347331 .68692019 .18237305 .70355227 .22127278 .7201945 .26822917 .7285156 .3232422 .7285156 .41308595 .7285156 .4807129 .70873007 .52612307 .66915896 .5715332 .62959799 .5953776 .5767924 .59765627 .5107422L.453125 .5048828C.4469401 .5416667 .43367515 .56811526 .41333009 .5842285 .39298503 .6003418 .36246745 .60839846 .32177735 .60839846 .27978517 .60839846 .24690755 .599767 .22314453 .5825043 .20784505 .5714366 .20019531 .5566203 .20019531 .5380554 .20019531 .52111819 .20735677 .5066274 .22167969 .49458314 .23990886 .47927348 .2841797 .4633026 .3544922 .44667054 .4248047 .43003846 .47680665 .41283164 .51049807 .39505006 .54418948 .37727867 .57055667 .35298158 .5895996 .3221588 .6086426 .29134623 .61816409 .25327049 .61816409 .20793152 .61816409 .16684468 .6067708 .12836202 .5839844 .09248352 .56119796 .056605024 .5289714 .029942831 .4873047 .012496948 .44563804-.004948934 .39371745-.013671875 .33154298-.013671875 .24104817-.013671875 .17154949 .007283529 .123046878 .049194337 .07454427 .09110514 .045572919 .15218099 .036132814 .23242188Z"/>
<path id="font_3_85" d="M.203125 0H.06591797V.5185547H.19335938V.44482423C.21516927 .47965495 .2347819 .5026042 .25219728 .5136719 .26961265 .52473959 .28938804 .53027346 .31152345 .53027346 .34277345 .53027346 .37288413 .52164718 .40185548 .50439456L.359375 .38476563C.33626304 .3997396 .31477867 .40722657 .29492188 .40722657 .27571617 .40722657 .2594401 .40193687 .24609375 .39135743 .23274739 .38077799 .22224935 .36165367 .21459961 .33398438 .20694988 .3063151 .203125 .24837239 .203125 .16015625V0Z"/>
<path id="font_3_76" d="M.071777347 .5888672V.7158203H.20898438V.5888672H.071777347M.071777347 0V.5185547H.20898438V0H.071777347Z"/>
<path id="font_3_92" d="M.0068359377 .5185547H.15283203L.27685548 .15003968 .39794923 .5185547H.54003909L.3569336 .019363404 .32421876-.07128906C.31217448-.1015625 .30069987-.12467448 .28979493-.140625 .27888999-.15657552 .26635743-.16951497 .25219728-.17944336 .23803711-.18937175 .22062175-.19710286 .19995117-.20263672 .1792806-.20817058 .15592449-.2109375 .12988281-.2109375 .103515628-.2109375 .07763672-.20817058 .052246095-.20263672L.040039064-.095214847C.061523439-.09944662 .08089193-.1015625 .09814453-.1015625 .13004558-.1015625 .15364583-.09220377 .16894531-.07348633 .1842448-.05476888 .19596355-.030924479 .20410156-.001953125L.0068359377 .5185547Z"/>
<path id="font_3_53" d="M.07324219 0V.7158203H.3774414C.4539388 .7158203 .5095215 .7093913 .54418948 .6965332 .5788574 .6836751 .6066081 .6608073 .6274414 .6279297 .6482747 .59505209 .6586914 .5574544 .6586914 .5151367 .6586914 .46142579 .6429036 .41707359 .6113281 .38208009 .5797526 .34708659 .53255209 .32503257 .46972657 .31591798 .50097659 .2976888 .5267741 .27766929 .54711917 .25585938 .5674642 .23404949 .59488937 .1953125 .62939456 .13964844L.7167969 0H.5439453L.43945313 .1558075C.40234376 .21145122 .37695313 .24651082 .36328126 .26098634 .34960938 .27547203 .3351237 .2854004 .31982423 .29077149 .30452476 .29614259 .28027345 .29882813 .24707031 .29882813H.21777344V0H.07324219M.21777344 .41308595H.32470704C.39404298 .41308595 .43733726 .41601563 .45458985 .421875 .47184245 .42773438 .48535157 .43782554 .4951172 .45214845 .5048828 .46647135 .5097656 .484375 .5097656 .5058594 .5097656 .52994796 .5033366 .54939779 .49047853 .564209 .47762046 .5790202 .45947267 .5883789 .43603517 .59228518 .4243164 .5939128 .38916017 .59472659 .3305664 .59472659H.21777344V.41308595Z"/>
<path id="font_3_40" d="M.072753909 0V.7158203H.6035156V.59472659H.21728516V.43652345H.57666018V.3154297H.21728516V.12109375H.6171875V0H.072753909Z"/>
<path id="font_3_89" d="M.21435547 0 .0053710939 .5185547H.14941406L.24707031 .25390626 .27539063 .16552735C.2828776 .18798828 .28759767 .20279949 .28955079 .20996094 .29410807 .22460938 .29899089 .23925781 .30419923 .25390626L.40283204 .5185547H.5439453L.33789063 0H.21435547Z"/>
<path id="font_3_74" d="M.05908203-.033203126 .21582031-.052734376C.21842449-.071136478 .22444661-.08378601 .23388672-.09068298 .24690755-.10054016 .26741538-.10546875 .29541017-.10546875 .33121745-.10546875 .3580729-.10005697 .37597657-.0892334 .38802085-.08202108 .3971354-.070383708 .4033203-.05432129 .4075521-.04284668 .40966798-.021703085 .40966798 .009109497V.08534241C.36865235 .02844747 .31689454 0 .25439454 0 .18473308 0 .1295573 .029459635 .08886719 .088378909 .056966146 .13492839 .041015626 .1928711 .041015626 .26220704 .041015626 .3491211 .06193034 .41552735 .103759769 .46142579 .14558919 .5073242 .19759114 .53027346 .25976563 .53027346 .32389323 .53027346 .37679038 .50198367 .41845704 .44540406V.5185547H.546875V.05291748C.546875-.008321126 .5418294-.054087324 .5317383-.0843811 .52164718-.11467489 .507487-.13845317 .4892578-.15571594 .47102867-.17298889 .44669596-.18650818 .41625978-.1962738 .38582359-.2060496 .34733073-.2109375 .30078126-.2109375 .21289063-.2109375 .15055339-.195755 .11376953-.16539002 .07698568-.1350352 .05859375-.09655253 .05859375-.049942018 .05859375-.045344037 .05875651-.039764406 .05908203-.033203126M.18164063 .27001954C.18164063 .21516927 .19230144 .17500814 .21362305 .14953614 .23494466 .124064128 .26123048 .111328128 .29248048 .111328128 .32600913 .111328128 .35432945 .12438965 .3774414 .1505127 .40055339 .17663574 .41210938 .21533203 .41210938 .26660157 .41210938 .32014976 .40104167 .35990397 .37890626 .38586427 .35677085 .41182456 .32877604 .4248047 .29492188 .4248047 .26204429 .4248047 .23494466 .4120687 .21362305 .38659669 .19230144 .36112467 .18164063 .32226563 .18164063 .27001954Z"/>
<path id="font_3_38" d="M.5307617 .26367188 .67089846 .21972656C.64941409 .1411031 .6136882 .082707729 .5637207 .044540407 .51375326 .0063832604 .45035807-.0126953129 .37353517-.0126953129 .27848307-.0126953129 .20035808 .01981608 .13916016 .08483887 .07796224 .14987183 .04736328 .23877461 .04736328 .35154725 .04736328 .47085063 .078125 .563502 .13964844 .62950137 .20117188 .69551089 .2820638 .7285156 .38232423 .7285156 .4698893 .7285156 .5410156 .7025757 .5957031 .6506958 .6282552 .62002566 .65266928 .5759786 .6689453 .5185547L.5258789 .484375C.51741537 .5214844 .49975587 .55078127 .4729004 .5722656 .44604493 .59375 .41341148 .6044922 .375 .6044922 .3219401 .6044922 .27888999 .5854492 .24584961 .5473633 .21280925 .50927737 .19628906 .44759117 .19628906 .3623047 .19628906 .2718099 .21256511 .20735677 .24511719 .16894531 .27766929 .13053386 .31998698 .111328128 .3720703 .111328128 .41048179 .111328128 .44352214 .12357076 .4711914 .14805603 .4988607 .17255147 .51871749 .21109009 .5307617 .26367188Z"/>
<path id="font_3_75" d="M.2084961 .7158203V.4522705C.25276695 .50427249 .30566407 .53027346 .3671875 .53027346 .39876304 .53027346 .4272461 .52441409 .45263673 .5126953 .47802735 .50097659 .4971517 .4860026 .51000979 .46777345 .52286788 .44954429 .5316569 .42936198 .53637698 .40722657 .541097 .38509117 .54345706 .3507487 .54345706 .30419923V0H.40625V.27360536C.40625 .32790629 .40364585 .36237083 .3984375 .3769989 .39322917 .39163719 .3840332 .40326438 .3708496 .4118805 .35766603 .4204966 .34114585 .4248047 .32128907 .4248047 .2985026 .4248047 .27815757 .4192759 .2602539 .40821839 .24235027 .39716087 .22924805 .38049827 .22094727 .3582306 .21264649 .33596293 .2084961 .30303956 .2084961 .25946046V0H.07128906V.7158203H.2084961Z"/>
<path id="font_3_71" d="M.5473633 0H.41992188V.076171878C.39876304 .04654948 .3737793 .024495444 .3449707 .010009766 .3161621-.0044759118 .28710938-.01171875 .2578125-.01171875 .19824219-.01171875 .1472168 .012288411 .10473633 .060302736 .06225586 .108317058 .041015626 .17529297 .041015626 .26123048 .041015626 .3491211 .0616862 .41593424 .103027347 .46166993 .14436849 .5074056 .19661458 .53027346 .25976563 .53027346 .31770835 .53027346 .36783854 .5061849 .41015626 .4580078V.7158203H.5473633V0M.18115235 .2702484C.18115235 .21499126 .18880208 .17501323 .20410156 .15031433 .22623699 .1145579 .25716148 .09667969 .296875 .09667969 .32845054 .09667969 .355306 .110087078 .3774414 .13690186 .3995768 .16371663 .41064454 .20377605 .41064454 .25708009 .41064454 .316569 .39990235 .35939536 .37841798 .38555909 .3569336 .4117228 .3294271 .4248047 .29589845 .4248047 .26334635 .4248047 .23608399 .4118856 .21411133 .38604737 .19213867 .36020915 .18115235 .3216095 .18115235 .2702484Z"/>
<path id="font_4_44" d="M.09326172 0V.7158203H.18798828V0H.09326172Z"/>
<path id="font_4_81" d="M.06591797 0V.5185547H.14501953V.4453125C.18310547 .5019531 .23811849 .53027346 .3100586 .53027346 .3413086 .53027346 .3700358 .5246582 .39624024 .51342776 .42244468 .50219729 .44205729 .48746745 .45507813 .46923829 .46809898 .45100913 .47721354 .42936198 .48242188 .40429688 .4856771 .38802085 .4873047 .35953776 .4873047 .31884767V0H.39941407V.31576539C.39941407 .35161338 .3959961 .37841798 .38916017 .3961792 .38232423 .41394044 .37019859 .42811585 .3527832 .43870545 .33536784 .44929505 .3149414 .45458985 .2915039 .45458985 .254069 .45458985 .22176107 .44269309 .19458008 .41889955 .1673991 .39511619 .1538086 .34998576 .1538086 .2835083V0H.06591797Z"/>
<path id="font_4_70" d="M.40429688 .19042969 .49072267 .17919922C.48128257 .11947632 .45711265 .07272339 .4182129 .03894043 .37931315 .005167643 .33154298-.01171875 .27490235-.01171875 .2039388-.01171875 .14689128 .011474609 .103759769 .057861329 .060628255 .10424805 .0390625 .17073567 .0390625 .25732423 .0390625 .3133138 .048339845 .3623047 .06689453 .40429688 .08544922 .44628907 .11368815 .4777832 .15161133 .4987793 .1895345 .5197754 .23079427 .53027346 .27539063 .53027346 .33170573 .53027346 .37776695 .51598617 .41357423 .4874115 .4493815 .45884706 .47233073 .4182841 .48242188 .36572267L.39697267 .35253907C.38883464 .38720704 .37443034 .4132894 .35375978 .43078614 .3330892 .44828288 .30810548 .45703126 .2788086 .45703126 .23453777 .45703126 .1985677 .4412384 .17089844 .4096527 .14322917 .37807719 .12939453 .32811485 .12939453 .25976563 .12939453 .19043987 .14274089 .1400655 .1694336 .10864258 .1961263 .07722982 .23095703 .061523439 .27392579 .061523439 .308431 .061523439 .3372396 .07206217 .36035157 .09313965 .38346354 .114217128 .39811198 .14664714 .40429688 .19042969Z"/>
<path id="font_4_85" d="M.064941409 0V.5185547H.14404297V.4404297C.16422527 .4770101 .18286133 .50112918 .19995117 .51278689 .21704102 .5244446 .23583985 .53027346 .25634767 .53027346 .28597007 .53027346 .31608073 .520874 .3466797 .5020752L.31640626 .42089845C.29492188 .43359376 .2734375 .4399414 .25195313 .4399414 .23274739 .4399414 .2154948 .43415324 .20019531 .4225769 .18489583 .41101075 .17399089 .3949636 .16748047 .37443543 .15771485 .3431549 .15283203 .3089396 .15283203 .27178956V0H.064941409Z"/>
<path id="font_4_72" d="M.42089845 .16699219 .51171877 .15576172C.49739585 .10270182 .47086589 .061523439 .4321289 .032226564 .39339195 .0029296876 .34391276-.01171875 .2836914-.01171875 .20784505-.01171875 .14770508 .01163737 .103271488 .05834961 .05883789 .10506185 .036621095 .17057292 .036621095 .2548828 .036621095 .3421224 .05908203 .40983073 .104003909 .4580078 .14892578 .5061849 .20719402 .53027346 .2788086 .53027346 .34814454 .53027346 .40478517 .5067088 .44873048 .45957948 .49267579 .41246034 .51464846 .34616599 .51464846 .2606964 .51464846 .25549827 .51448568 .247701 .51416018 .23730469H.1274414C.13069661 .1805013 .14680989 .13700359 .17578125 .10681152 .20475261 .07661947 .24088542 .061523439 .2841797 .061523439 .31640626 .061523439 .34391276 .0699056 .36669923 .08666992 .3894857 .10344442 .4075521 .1302185 .42089845 .16699219M.13232422 .31054688H.421875C.41796876 .3534546 .40690104 .38563539 .38867188 .40708924 .3606771 .4403839 .3243815 .45703126 .27978517 .45703126 .23942058 .45703126 .20548503 .44374085 .17797852 .41716004 .150472 .3905894 .1352539 .35505168 .13232422 .31054688Z"/>
<path id="font_4_68" d="M.40429688 .06402588C.37174479 .03633626 .34041343 .016789755 .31030274 .0053863527 .28019206-.0060170495 .24788411-.01171875 .2133789-.01171875 .15641277-.01171875 .11263021 .0022074383 .08203125 .030059815 .051432294 .05791219 .036132814 .09350077 .036132814 .13682556 .036132814 .16222637 .04191081 .18542989 .053466798 .20643616 .06502279 .22745259 .08015951 .24431356 .09887695 .25701905 .1175944 .26972453 .13867188 .2793325 .16210938 .2858429 .17936199 .29041038 .20540364 .29480998 .24023438 .29904176 .3111979 .30744425 .363444 .3174642 .39697267 .32910157 .3972982 .34109498 .39746095 .3487142 .39746095 .35195924 .39746095 .38763429 .38916017 .4127655 .3725586 .4273529 .35009767 .44713847 .31673179 .45703126 .27246095 .45703126 .2311198 .45703126 .20060222 .44978843 .1809082 .43530274 .16121419 .42081706 .14664714 .39518229 .13720703 .35839845L.05126953 .3701172C.05908203 .40701295 .0719401 .43680827 .08984375 .45950318 .1077474 .4821981 .1336263 .4996643 .16748047 .51190188 .20133464 .5241496 .24055989 .53027346 .28515626 .53027346 .3294271 .53027346 .36539714 .5250651 .3930664 .51464846 .4207357 .50423178 .44108073 .49112956 .45410157 .4753418 .4671224 .45955406 .47623698 .43961589 .4814453 .41552735 .484375 .40055339 .48583985 .37353517 .48583985 .33447267V.21728516C.48583985 .13557942 .48771159 .08390299 .49145509 .06225586 .49519859 .040608724 .5026042 .019856772 .5136719 0H.421875C.4127604 .018249512 .40690104 .039591474 .40429688 .06402588M.39697267 .2607422C.36507163 .24760945 .31722007 .2364502 .25341798 .2272644 .21728516 .22203572 .19173177 .21615093 .17675781 .20960999 .16178386 .20307923 .15022786 .19351705 .14208985 .18092346 .13395183 .16834004 .12988281 .15436809 .12988281 .13900757 .12988281 .115478519 .13875325 .09586588 .15649414 .08016968 .17423503 .06448364 .20019531 .056640626 .234375 .056640626 .26822917 .056640626 .29833985 .064081829 .32470704 .07896423 .35107423 .09384664 .37044273 .11420695 .3828125 .14004517 .3922526 .16000366 .39697267 .18944295 .39697267 .22836304V.2607422Z"/>
<path id="font_4_86" d="M.030761719 .15527344 .11767578 .16894531C.122558597 .13426717 .1361491 .107691448 .15844727 .08921814 .18074544 .070755008 .21191406 .061523439 .25195313 .061523439 .29231773 .061523439 .32226563 .06967672 .34179688 .08598328 .36132813 .10230001 .37109376 .12143453 .37109376 .14338684 .37109376 .16309102 .36246745 .17859395 .34521485 .18989563 .33317057 .1976471 .30322267 .20749919 .2553711 .2194519 .19091797 .23573812 .14624024 .24982707 .12133789 .26171876 .09643555 .27361045 .077555339 .29006449 .064697269 .31108094 .05183919 .33209739 .045410158 .35531108 .045410158 .38072206 .045410158 .40385438 .05069987 .4252777 .061279298 .44499208 .07185873 .46470643 .08626302 .4810791 .10449219 .4941101 .11816406 .5042114 .13680013 .5127614 .16040039 .51976016 .18400066 .526769 .20930989 .53027346 .23632813 .53027346 .27701823 .53027346 .31274415 .52437338 .34350587 .51257327 .37426759 .50078329 .39697267 .48480735 .4116211 .4646454 .42626954 .44449363 .4363607 .4175415 .44189454 .38378907L.35595704 .3720703C.35205079 .39876304 .34073893 .41959635 .32202149 .4345703 .30330406 .44954429 .27685548 .45703126 .24267578 .45703126 .2023112 .45703126 .17350261 .45038859 .15625 .43710328 .13899739 .42382813 .1303711 .40827943 .1303711 .39045716 .1303711 .37912498 .13395183 .3689219 .14111328 .35984803 .14827474 .35045878 .1595052 .34268699 .17480469 .3365326 .18359375 .33328758 .20947266 .32583619 .2524414 .31417848 .31461589 .29758708 .35799156 .28400675 .38256837 .2734375 .40714518 .26286827 .42643229 .24749756 .4404297 .22732544 .4544271 .2071635 .46142579 .18212383 .46142579 .15220642 .46142579 .12292989 .45288087 .09536234 .43579103 .069503787 .41870118 .043655397 .39404298 .02365621 .3618164 .009506226 .32958985-.0046437585 .2931315-.01171875 .2524414-.01171875 .1850586-.01171875 .13370769 .002319336 .09838867 .030395508 .063069667 .05847168 .040527345 .100097659 .030761719 .15527344Z"/>
<path id="font_4_76" d="M.06640625 .6142578V.7158203H.15429688V.6142578H.06640625M.06640625 0V.5185547H.15429688V0H.06640625Z"/>
<path id="font_4_74" d="M.049804689-.04296875 .1352539-.055664064C.13883464-.08203125 .14876302-.10123698 .16503906-.11328125 .18684896-.1295573 .21663411-.13769531 .25439454-.13769531 .29508464-.13769531 .3264974-.12953694 .3486328-.113220218 .37076823-.09691366 .3857422-.07407633 .3935547-.044708253 .39811198-.026774088 .40022788 .010904948 .39990235 .06832886 .36149089 .022776286 .3136393 0 .25634767 0 .1850586 0 .12988281 .025716147 .09082031 .07714844 .051757814 .12858074 .032226564 .19026692 .032226564 .26220704 .032226564 .3116862 .041178388 .35734049 .05908203 .39916993 .07698568 .44099937 .10294596 .47330729 .13696289 .49609376 .17097982 .5188802 .2109375 .53027346 .25683595 .53027346 .31803385 .53027346 .3684896 .5053711 .40820313 .4555664V.5185547H.4892578V.070007327C.4892578-.010772705 .48103843-.06801859 .4645996-.10173035 .4481608-.1354421 .42211915-.16206868 .3864746-.1816101 .35083009-.2011617 .30696617-.2109375 .2548828-.2109375 .19303386-.2109375 .1430664-.19698079 .10498047-.16906739 .06689453-.14115398 .048502607-.099121097 .049804689-.04296875M.122558597 .26853944C.122558597 .20067851 .1360677 .15116374 .16308594 .11999512 .19010417 .0888265 .22395833 .07324219 .26464845 .07324219 .30501304 .07324219 .3388672 .08874512 .36621095 .11975098 .3935547 .15075684 .40722657 .19938152 .40722657 .265625 .40722657 .3289388 .3931478 .3766683 .36499024 .40881349 .33683268 .44095866 .30289714 .45703126 .2631836 .45703126 .2241211 .45703126 .19091797 .4412028 .16357422 .4095459 .13623047 .377889 .122558597 .33088685 .122558597 .26853944Z"/>
<path id="font_4_69" d="M.14697266 0H.06542969V.7158203H.15332031V.45950318C.19042969 .50668337 .23779297 .53027346 .29541017 .53027346 .3273112 .53027346 .35750328 .5238444 .38598634 .5109863 .4144694 .49812828 .4379069 .48006187 .45629884 .4567871 .47469078 .43351237 .48909507 .4054362 .49951173 .3725586 .5099284 .339681 .5151367 .30452476 .5151367 .26708985 .5151367 .17822266 .49316407 .10953776 .44921876 .061035158 .40527345 .012532552 .35253907-.01171875 .29101563-.01171875 .2298177-.01171875 .18180339 .014160156 .14697266 .06591797V0M.1459961 .26316834C.1459961 .20129903 .15445964 .15659587 .17138672 .12905884 .19905599 .08403524 .23649089 .061523439 .2836914 .061523439 .32210288 .061523439 .355306 .078125 .38330079 .111328128 .41129557 .14453125 .42529298 .19401042 .42529298 .25976563 .42529298 .32713828 .41186524 .37685649 .38500978 .4089203 .3581543 .44099427 .3256836 .45703126 .28759767 .45703126 .2491862 .45703126 .21598308 .4404297 .18798828 .40722657 .15999349 .37402345 .1459961 .32600404 .1459961 .26316834Z"/>
<path id="font_4_87" d="M.2578125 .07763672 .2705078 0C.24576824-.0045572917 .22363281-.0068359377 .20410156-.0068359377 .17220052-.0068359377 .14746094-.0017903646 .12988281 .008300781 .11230469 .018391928 .0999349 .031656904 .09277344 .048095704 .08561198 .06453451 .08203125 .099121097 .08203125 .15185547V.4501953H.017578125V.5185547H.08203125V.6473236L.1694336 .7001953V.5185547H.2578125V.4501953H.1694336V.14697266C.1694336 .121907558 .17097982 .10579427 .17407227 .09863281 .17716472 .09147135 .18221028 .08577474 .18920899 .08154297 .19620769 .077311199 .20621746 .07519531 .21923828 .07519531 .2290039 .07519531 .24186199 .07600912 .2578125 .07763672Z"/>
<path id="font_4_82" d="M.033203126 .25927735C.033203126 .355306 .059895833 .42643229 .11328125 .47265626 .15787761 .5110677 .21223958 .53027346 .2763672 .53027346 .34765626 .53027346 .40592448 .5069173 .45117188 .46020509 .49641929 .41349284 .51904299 .34895835 .51904299 .26660157 .51904299 .1998698 .5090332 .14737956 .48901368 .10913086 .46899415 .070882167 .43986003 .041178388 .40161134 .020019532 .36336265-.0011393229 .3216146-.01171875 .2763672-.01171875 .20377605-.01171875 .1451009 .011555989 .1003418 .05810547 .055582685 .104654949 .033203126 .17171224 .033203126 .25927735M.123535159 .25952149C.123535159 .19335938 .13802083 .14381917 .16699219 .11090088 .19596355 .07798258 .23242188 .061523439 .2763672 .061523439 .31998698 .061523439 .35628257 .078063968 .3852539 .11114502 .41422526 .14422608 .42871095 .19465637 .42871095 .2624359 .42871095 .32632957 .4141439 .3747355 .38500978 .4076538 .35587565 .4405721 .31966148 .45703126 .2763672 .45703126 .23242188 .45703126 .19596355 .44065348 .16699219 .40789796 .13802083 .37514244 .123535159 .3256836 .123535159 .25952149Z"/>
<path id="font_4_39" d="M.07714844 0V.7158203H.32373048C.37939454 .7158203 .421875 .71240237 .45117188 .7055664 .4921875 .6961263 .52718099 .67903646 .55615237 .6542969 .5939128 .6223958 .6221517 .5816243 .64086917 .5319824 .6595866 .48234049 .6689453 .4256185 .6689453 .3618164 .6689453 .30745445 .66259768 .25927735 .64990237 .21728516 .63720706 .17529297 .62093099 .14054363 .6010742 .11303711 .58121749 .0855306 .55948898 .06388346 .5358887 .048095704 .5122884 .03230794 .48380534 .020345053 .45043946 .012207031 .41707359 .0040690104 .3787435 0 .33544923 0H.07714844M.171875 .084472659H.32470704C.37190757 .084472659 .40893556 .08886719 .43579103 .09765625 .46264649 .10644531 .48404948 .1188151 .5 .13476563 .52246096 .15722656 .5399577 .18741863 .55249026 .2253418 .56502279 .26326499 .57128909 .30924479 .57128909 .36328126 .57128909 .43815104 .5590007 .49568687 .5344238 .5358887 .509847 .5760905 .47998048 .60302737 .44482423 .6166992 .4194336 .62646487 .37858073 .63134768 .32226563 .63134768H.171875V.084472659Z"/>
</defs>
<g clip-path="url(#clip_1)">
<path transform="matrix(.71874997,0,0,.71874997,0,0)" d="M0 0H672V285H0Z" fill="#ffffff"/>
</g>
<g clip-path="url(#clip_2)">
<path transform="matrix(.71874997,0,0,.71874997,.35937498,.35937498)" d="M465 44C465 44.49127 464.9358 44.98135 464.8074 45.470254 464.679 45.959157 464.48698 46.44452 464.23139 46.926347 463.97584 47.408178 463.65794 47.884149 463.27766 48.35426 462.89738 48.82438 462.45655 49.286375 461.95518 49.740243 461.45387 50.19412 460.89445 50.637685 460.2769 51.070943 459.65934 51.504205 458.98664 51.925069 458.2588 52.33354 457.53099 52.74202 456.75154 53.13614 455.92045 53.515897 455.08937 53.895654 454.21064 54.25922 453.28428 54.606599 452.35795 54.953985 451.38844 55.283506 450.37577 55.59516 449.36308 55.906816 448.31208 56.19911 447.22279 56.47204 446.1335 56.744977 445.0112 56.99724 443.8558 57.228818 442.70048 57.4604 441.51765 57.67019 440.30729 57.85819 439.097 58.04619 437.86503 58.211496 436.6114 58.354104 435.35774 58.49671 434.08848 58.615938 432.8036 58.711778 431.5187 58.80762 430.22444 58.87962 428.92073 58.927774 427.61698 58.975927 426.31007 59 425 59 423.68998 59 422.38307 58.975927 421.0793 58.927774 419.77558 58.87962 418.48124 58.80762 417.19636 58.711778 415.91148 58.615938 414.6422 58.49671 413.38859 58.354104 412.13496 58.211496 410.90296 58.04619 409.6926 57.85819 408.4823 57.67019 407.29945 57.4604 406.14408 57.228818 404.98875 56.99724 403.86643 56.744977 402.77717 56.47204 401.6879 56.19911 400.63694 55.906816 399.62428 55.595159 398.6116 55.2835 397.64207 54.953985 396.7157 54.606599 395.78935 54.25922 394.91065 53.89565 394.07957 53.515893 393.24848 53.136137 392.469 52.74202 391.74116 52.33354 391.01335 51.925069 390.34065 51.504205 389.72309 51.070947 389.10554 50.637685 388.54609 50.19412 388.04478 49.740243 387.54347 49.286375 387.10267 48.82438 386.72239 48.354265 386.3421 47.884149 386.02415 47.408178 385.76856 46.926347 385.513 46.44452 385.321 45.959157 385.19264 45.470258 385.06425 44.981355 385.00004 44.49127 385 44 385.00004 43.50873 385.06425 43.018648 385.19264 42.529745 385.321 42.04084 385.513 41.555475 385.76856 41.073644 386.02415 40.591817 386.3421 40.115846 386.72239 39.645734 387.10267 39.175619 387.54347 38.713624 388.04478 38.259748 388.54609 37.805875 389.10554 37.36231 389.7231 36.929048 390.34065 36.49579 391.01335 36.07492 391.74116 35.666444 392.469 35.25797 393.24845 34.863855 394.07954 34.484098 394.9106 34.104345 395.78935 33.740777 396.7157 33.393396 397.64207 33.046018 398.61158 32.7165 399.62425 32.404844 400.6369 32.09318 401.6879 31.800887 402.77717 31.527953 403.86643 31.25502 404.98878 31.002762 406.14414 30.771178 407.2995 30.539597 408.48234 30.329806 409.69264 30.141804 410.90296 29.953806 412.13496 29.788504 413.38859 29.645895 414.64225 29.503289 415.9115 29.384064 417.19636 29.28822 418.48124 29.192379 419.77558 29.120383 421.0793 29.072232 422.38307 29.02408 423.68998 29.000002 425 29 426.31007 29.000002 427.61695 29.02408 428.9207 29.072232 430.22444 29.120383 431.5187 29.192379 432.8036 29.288218 434.08848 29.384062 435.35777 29.503289 436.61143 29.645895 437.86506 29.788504 439.09703 29.953806 440.3073 30.141804 441.51768 30.329806 442.7005 30.539599 443.85588 30.77118 445.01124 31.002762 446.13356 31.25502 447.2228 31.527953 448.31208 31.800887 449.36308 32.09318 450.37577 32.404844 451.38844 32.7165 452.35795 33.046018 453.28428 33.393396 454.21064 33.740777 455.08937 34.104345 455.92045 34.484098 456.75154 34.863855 457.53099 35.25797 458.2588 35.666444 458.98664 36.07492 459.65934 36.49579 460.2769 36.929048 460.89445 37.36231 461.45387 37.805875 461.95518 38.259748 462.45655 38.713624 462.89735 39.175619 463.27763 39.64573 463.6579 40.115846 463.97584 40.591817 464.23139 41.073644 464.48698 41.555475 464.679 42.04084 464.8074 42.529745 464.9358 43.018648 465 43.50873 465 44Z" fill="#ffffff"/>
<use data-text="A" xlink:href="#font_3_36" transform="matrix(10.781249,0,0,-10.781249,290.78666,36.29687)"/>
<use data-text="s" xlink:href="#font_3_86" transform="matrix(10.781249,0,0,-10.781249,298.5707,36.29687)"/>
<use data-text="s" xlink:href="#font_3_86" transform="matrix(10.781249,0,0,-10.781249,304.56507,36.29687)"/>
<use data-text="e" xlink:href="#font_3_72" transform="matrix(10.781249,0,0,-10.781249,310.55946,36.29687)"/>
<use data-text="t" xlink:href="#font_3_87" transform="matrix(10.781249,0,0,-10.781249,316.5538,36.29687)"/>
<path transform="matrix(.71874997,0,0,.71874997,.35937498,.35937498)" d="M185.5 138H256.5C257.0967 138 257.67076 138.11418 258.22206 138.34253 258.77336 138.57089 259.26 138.89606 259.68199 139.31801 260.1039 139.73996 260.42906 140.2266 260.6574 140.77791 260.88578 141.32923 260.99998 141.90325 261 142.5V163.5C260.99998 164.09673 260.88578 164.67075 260.6574 165.22206 260.42906 165.77338 260.1039 166.26003 259.68199 166.68198 259.26 167.10393 258.77336 167.42908 258.22206 167.65744 257.67076 167.8858 257.0967 167.99999 256.5 168H185.5C184.90326 167.99999 184.32923 167.8858 183.77791 167.65744 183.2266 167.42908 182.73996 167.10393 182.31801 166.68198 181.89604 166.26003 181.57088 165.77338 181.34252 165.22206 181.11415 164.67075 180.99999 164.09673 181 163.5V142.5C180.99999 141.90325 181.11415 141.32923 181.3425 140.77791 181.57088 140.2266 181.89604 139.73996 182.31801 139.31801 182.73996 138.89606 183.2266 138.57089 183.77791 138.34253 184.32923 138.11418 184.90326 138 185.5 138Z" fill="#ffffff"/>
<use data-text="B" xlink:href="#font_3_37" transform="matrix(10.781249,0,0,-10.781249,124.09948,114.64062)"/>
<use data-text="a" xlink:href="#font_3_68" transform="matrix(10.781249,0,0,-10.781249,131.88355,114.64062)"/>
<use data-text="n" xlink:href="#font_3_81" transform="matrix(10.781249,0,0,-10.781249,137.87792,114.64062)"/>
<use data-text="k" xlink:href="#font_3_78" transform="matrix(10.781249,0,0,-10.781249,144.46526,114.64062)"/>
<use data-text="A" xlink:href="#font_3_36" transform="matrix(10.781249,0,0,-10.781249,150.45963,114.64062)"/>
<use data-text="c" xlink:href="#font_3_70" transform="matrix(10.781249,0,0,-10.781249,158.24369,114.64062)"/>
<use data-text="c" xlink:href="#font_3_70" transform="matrix(10.781249,0,0,-10.781249,164.23805,114.64062)"/>
<use data-text="o" xlink:href="#font_3_82" transform="matrix(10.781249,0,0,-10.781249,170.23242,114.64062)"/>
<use data-text="u" xlink:href="#font_3_88" transform="matrix(10.781249,0,0,-10.781249,176.81977,114.64062)"/>
<use data-text="n" xlink:href="#font_3_81" transform="matrix(10.781249,0,0,-10.781249,183.4071,114.64062)"/>
<use data-text="t" xlink:href="#font_3_87" transform="matrix(10.781249,0,0,-10.781249,189.99445,114.64062)"/>
<path transform="matrix(.71874997,0,0,.71874997,.35937498,.35937498)" stroke-width="1" stroke-linecap="butt" stroke-miterlimit="10" stroke-linejoin="miter" fill="none" stroke="#000000" d="M396.48 59.3 249.07 138"/>
<path transform="matrix(.71874997,0,0,.71874997,.35937498,.35937498)" d="M401.12 56.83 396.59 63.21 396.48 59.3 393.29 57.04 401.12 56.83Z"/>
<path transform="matrix(.71874997,0,0,.71874997,.35937498,.35937498)" stroke-width="1" stroke-linecap="butt" stroke-miterlimit="10" stroke-linejoin="miter" fill="none" stroke="#000000" d="M401.12 56.83 396.59 63.21 396.48 59.3 393.29 57.04 401.12 56.83Z"/>
<path transform="matrix(.71874997,0,0,.71874997,.35937498,.35937498)" d="M425.5 138H496.5C497.0967 138 497.6707 138.11418 498.222 138.34253 498.77333 138.57089 499.25999 138.89606 499.68196 139.31801 500.10389 139.73996 500.42903 140.2266 500.65739 140.77791 500.88578 141.32923 500.99998 141.90325 501 142.5V163.5C500.99998 164.09673 500.88578 164.67075 500.65739 165.22206 500.42903 165.77338 500.10389 166.26003 499.68196 166.68198 499.25999 167.10393 498.77333 167.42908 498.22203 167.65744 497.67073 167.8858 497.0967 167.99999 496.5 168H425.5C424.90324 167.99999 424.3292 167.8858 423.7779 167.65744 423.22657 167.42908 422.73994 167.10393 422.318 166.68198 421.89604 166.26003 421.57087 165.77338 421.3425 165.22206 421.11415 164.67075 420.99998 164.09673 421 163.5V142.5C420.99998 141.90325 421.1141 141.32923 421.34248 140.77791 421.57084 140.2266 421.89604 139.73996 422.318 139.31801 422.73994 138.89606 423.22657 138.57089 423.7779 138.34253 424.3292 138.11418 424.90324 138 425.5 138Z" fill="#ffffff"/>
<use data-text="S" xlink:href="#font_3_54" transform="matrix(10.781249,0,0,-10.781249,310.07078,114.64062)"/>
<use data-text="e" xlink:href="#font_3_72" transform="matrix(10.781249,0,0,-10.781249,317.26188,114.64062)"/>
<use data-text="c" xlink:href="#font_3_70" transform="matrix(10.781249,0,0,-10.781249,323.25624,114.64062)"/>
<use data-text="u" xlink:href="#font_3_88" transform="matrix(10.781249,0,0,-10.781249,329.2506,114.64062)"/>
<use data-text="r" xlink:href="#font_3_85" transform="matrix(10.781249,0,0,-10.781249,335.83796,114.64062)"/>
<use data-text="i" xlink:href="#font_3_76" transform="matrix(10.781249,0,0,-10.781249,340.03187,114.64062)"/>
<use data-text="t" xlink:href="#font_3_87" transform="matrix(10.781249,0,0,-10.781249,343.02906,114.64062)"/>
<use data-text="y" xlink:href="#font_3_92" transform="matrix(10.781249,0,0,-10.781249,346.6192,114.64062)"/>
<path transform="matrix(.71874997,0,0,.71874997,.35937498,.35937498)" stroke-width="1" stroke-linecap="butt" stroke-miterlimit="10" stroke-linejoin="miter" fill="none" stroke="#000000" d="M431.91 64.93 456.05 138"/>
<path transform="matrix(.71874997,0,0,.71874997,.35937498,.35937498)" d="M430.26 59.95 435.78 65.5 431.91 64.93 429.13 67.69 430.26 59.95Z"/>
<path transform="matrix(.71874997,0,0,.71874997,.35937498,.35937498)" stroke-width="1" stroke-linecap="butt" stroke-miterlimit="10" stroke-linejoin="miter" fill="none" stroke="#000000" d="M430.26 59.95 435.78 65.5 431.91 64.93 429.13 67.69 430.26 59.95Z"/>
<path transform="matrix(.71874997,0,0,.71874997,.35937498,.35937498)" d="M593.5 138H664.5C665.0967 138 665.67068 138.11418 666.222 138.34253 666.7733 138.57089 667.26 138.89606 667.68197 139.31801 668.1039 139.73996 668.429 140.2266 668.6574 140.77791 668.88577 141.32923 668.99996 141.90325 669 142.5V163.5C668.99996 164.09673 668.88577 164.67075 668.6574 165.22206 668.429 165.77338 668.1039 166.26003 667.68197 166.68198 667.26 167.10393 666.7733 167.42908 666.222 167.65744 665.67068 167.8858 665.0967 167.99999 664.5 168H593.5C592.9032 167.99999 592.32919 167.8858 591.77786 167.65744 591.22659 167.42908 590.7399 167.10393 590.318 166.68198 589.89596 166.26003 589.5708 165.77338 589.34249 165.22206 589.11416 164.67075 588.99996 164.09673 589 163.5V142.5C588.99996 141.90325 589.11416 141.32923 589.34249 140.77791 589.5708 140.2266 589.89596 139.73996 590.318 139.31801 590.7399 138.89606 591.22659 138.57089 591.77786 138.34253 592.32919 138.11418 592.9032 138 593.5 138Z" fill="#ffffff"/>
<use data-text="R" xlink:href="#font_3_53" transform="matrix(10.781249,0,0,-10.781249,423.02699,114.64062)"/>
<use data-text="e" xlink:href="#font_3_72" transform="matrix(10.781249,0,0,-10.781249,430.81108,114.64062)"/>
<use data-text="a" xlink:href="#font_3_68" transform="matrix(10.781249,0,0,-10.781249,436.80546,114.64062)"/>
<use data-text="k" xlink:href="#font_3_78" transform="matrix(10.781249,0,0,-10.781249,442.79985,114.64062)"/>
<use data-text="E" xlink:href="#font_3_40" transform="matrix(10.781249,0,0,-10.781249,448.79426,114.64062)"/>
<use data-text="s" xlink:href="#font_3_86" transform="matrix(10.781249,0,0,-10.781249,455.98533,114.64062)"/>
<use data-text="t" xlink:href="#font_3_87" transform="matrix(10.781249,0,0,-10.781249,461.97975,114.64062)"/>
<use data-text="a" xlink:href="#font_3_68" transform="matrix(10.781249,0,0,-10.781249,465.5699,114.64062)"/>
<use data-text="t" xlink:href="#font_3_87" transform="matrix(10.781249,0,0,-10.781249,471.56428,114.64062)"/>
<use data-text="e" xlink:href="#font_3_72" transform="matrix(10.781249,0,0,-10.781249,475.15443,114.64062)"/>
<path transform="matrix(.71874997,0,0,.71874997,.35937498,.35937498)" stroke-width="1" stroke-linecap="butt" stroke-miterlimit="10" stroke-linejoin="miter" fill="none" stroke="#000000" d="M453.52 59.3 600.93 138"/>
<path transform="matrix(.71874997,0,0,.71874997,.35937498,.35937498)" d="M448.88 56.83 456.71 57.04 453.52 59.3 453.41 63.21 448.88 56.83Z"/>
<path transform="matrix(.71874997,0,0,.71874997,.35937498,.35937498)" stroke-width="1" stroke-linecap="butt" stroke-miterlimit="10" stroke-linejoin="miter" fill="none" stroke="#000000" d="M448.88 56.83 456.71 57.04 453.52 59.3 453.41 63.21 448.88 56.83Z"/>
<path transform="matrix(.71874997,0,0,.71874997,.35937498,.35937498)" d="M125.5 248H196.5C197.09673 248 197.67075 248.11417 198.22206 248.34252 198.77338 248.57088 199.26001 248.89604 199.68198 249.31801 200.10393 249.73996 200.42908 250.2266 200.65744 250.77791 200.8858 251.32923 200.99999 251.90325 201 252.5V273.5C200.99999 274.0967 200.8858 274.67076 200.65744 275.22209 200.42908 275.77339 200.10393 276.26 199.68198 276.68199 199.26001 277.10395 198.77338 277.42909 198.22206 277.65745 197.67075 277.8858 197.09673 277.99998 196.5 278H125.5C124.90325 277.99998 124.329219 277.8858 123.77791 277.65745 123.2266 277.42909 122.73997 277.10395 122.318019 276.68199 121.89606 276.26 121.57089 275.77339 121.34253 275.22209 121.114177 274.67076 120.99999 274.0967 121 273.5V252.5C120.99999 251.90325 121.114177 251.32921 121.34254 250.7779 121.57089 250.22658 121.89606 249.73996 122.318019 249.31801 122.73997 248.89604 123.2266 248.57088 123.77791 248.34252 124.329219 248.11417 124.90325 248 125.5 248Z" fill="#ffffff"/>
<use data-text="S" xlink:href="#font_3_54" transform="matrix(10.781249,0,0,-10.781249,95.045909,193.70311)"/>
<use data-text="a" xlink:href="#font_3_68" transform="matrix(10.781249,0,0,-10.781249,102.237,193.70311)"/>
<use data-text="v" xlink:href="#font_3_89" transform="matrix(10.781249,0,0,-10.781249,108.23138,193.70311)"/>
<use data-text="i" xlink:href="#font_3_76" transform="matrix(10.781249,0,0,-10.781249,114.225749,193.70311)"/>
<use data-text="n" xlink:href="#font_3_81" transform="matrix(10.781249,0,0,-10.781249,117.22293,193.70311)"/>
<use data-text="g" xlink:href="#font_3_74" transform="matrix(10.781249,0,0,-10.781249,123.81027,193.70311)"/>
<use data-text="s" xlink:href="#font_3_86" transform="matrix(10.781249,0,0,-10.781249,130.39762,193.70311)"/>
<path transform="matrix(.71874997,0,0,.71874997,.35937498,.35937498)" stroke-width="1" stroke-linecap="butt" stroke-miterlimit="10" stroke-linejoin="miter" fill="none" stroke="#000000" d="M209.77 173.59 169.18 248"/>
<path transform="matrix(.71874997,0,0,.71874997,.35937498,.35937498)" d="M212.28 168.98 212 176.8 209.77 173.59 205.86 173.45 212.28 168.98Z"/>
<path transform="matrix(.71874997,0,0,.71874997,.35937498,.35937498)" stroke-width="1" stroke-linecap="butt" stroke-miterlimit="10" stroke-linejoin="miter" fill="none" stroke="#000000" d="M212.28 168.98 212 176.8 209.77 173.59 205.86 173.45 212.28 168.98Z"/>
<path transform="matrix(.71874997,0,0,.71874997,.35937498,.35937498)" d="M245.5 248H316.5C317.0967 248 317.67073 248.11417 318.22203 248.34252 318.77336 248.57088 319.25999 248.89604 319.68196 249.31801 320.10389 249.73996 320.42903 250.2266 320.65739 250.77791 320.88578 251.32923 320.99998 251.90325 321 252.5V273.5C320.99998 274.0967 320.88578 274.67076 320.65739 275.22209 320.42903 275.77339 320.10389 276.26 319.68196 276.68199 319.25999 277.10395 318.77336 277.42909 318.22203 277.65745 317.67073 277.8858 317.0967 277.99998 316.5 278H245.5C244.90325 277.99998 244.32921 277.8858 243.7779 277.65745 243.22658 277.42909 242.73995 277.10395 242.318 276.68199 241.89603 276.26 241.57086 275.77339 241.34252 275.22209 241.11417 274.67076 240.99999 274.0967 241 273.5V252.5C240.99999 251.90325 241.11417 251.32921 241.34252 250.7779 241.57086 250.22658 241.89603 249.73996 242.318 249.31801 242.73995 248.89604 243.22658 248.57088 243.7779 248.34252 244.32921 248.11417 244.90325 248 245.5 248Z" fill="#ffffff"/>
<use data-text="C" xlink:href="#font_3_38" transform="matrix(10.781249,0,0,-10.781249,177.70566,193.70311)"/>
<use data-text="h" xlink:href="#font_3_75" transform="matrix(10.781249,0,0,-10.781249,185.48972,193.70311)"/>
<use data-text="e" xlink:href="#font_3_72" transform="matrix(10.781249,0,0,-10.781249,192.07706,193.70311)"/>
<use data-text="c" xlink:href="#font_3_70" transform="matrix(10.781249,0,0,-10.781249,198.07143,193.70311)"/>
<use data-text="k" xlink:href="#font_3_78" transform="matrix(10.781249,0,0,-10.781249,204.06581,193.70311)"/>
<use data-text="i" xlink:href="#font_3_76" transform="matrix(10.781249,0,0,-10.781249,210.06018,193.70311)"/>
<use data-text="n" xlink:href="#font_3_81" transform="matrix(10.781249,0,0,-10.781249,213.05738,193.70311)"/>
<use data-text="g" xlink:href="#font_3_74" transform="matrix(10.781249,0,0,-10.781249,219.64472,193.70311)"/>
<path transform="matrix(.71874997,0,0,.71874997,.35937498,.35937498)" stroke-width="1" stroke-linecap="butt" stroke-miterlimit="10" stroke-linejoin="miter" fill="none" stroke="#000000" d="M232.23 173.59 272.82 248"/>
<path transform="matrix(.71874997,0,0,.71874997,.35937498,.35937498)" d="M229.72 168.98 236.14 173.45 232.23 173.59 230 176.8 229.72 168.98Z"/>
<path transform="matrix(.71874997,0,0,.71874997,.35937498,.35937498)" stroke-width="1" stroke-linecap="butt" stroke-miterlimit="10" stroke-linejoin="miter" fill="none" stroke="#000000" d="M229.72 168.98 236.14 173.45 232.23 173.59 230 176.8 229.72 168.98Z"/>
<path transform="matrix(.71874997,0,0,.71874997,.35937498,.35937498)" d="M365.5 248H436.5C437.0967 248 437.67073 248.11417 438.22206 248.34252 438.77336 248.57088 439.26 248.89604 439.68199 249.31801 440.10389 249.73996 440.42906 250.2266 440.6574 250.77791 440.88578 251.32923 440.99998 251.90325 441 252.5V273.5C440.99998 274.0967 440.88578 274.67076 440.6574 275.22209 440.42906 275.77339 440.10389 276.26 439.68199 276.68199 439.26 277.10395 438.77336 277.42909 438.22206 277.65745 437.67073 277.8858 437.0967 277.99998 436.5 278H365.5C364.90324 277.99998 364.3292 277.8858 363.77787 277.65745 363.22657 277.42909 362.73994 277.10395 362.318 276.68199 361.89604 276.26 361.57087 275.77339 361.3425 275.22209 361.11415 274.67076 360.99998 274.0967 361 273.5V252.5C360.99998 251.90325 361.11415 251.32921 361.3425 250.7779 361.57087 250.22658 361.89604 249.73996 362.318 249.31801 362.73994 248.89604 363.22657 248.57088 363.77787 248.34252 364.3292 248.11417 364.90324 248 365.5 248Z" fill="#ffffff"/>
<use data-text="S" xlink:href="#font_3_54" transform="matrix(10.781249,0,0,-10.781249,273.53929,193.70311)"/>
<use data-text="t" xlink:href="#font_3_87" transform="matrix(10.781249,0,0,-10.781249,280.73039,193.70311)"/>
<use data-text="o" xlink:href="#font_3_82" transform="matrix(10.781249,0,0,-10.781249,284.32054,193.70311)"/>
<use data-text="c" xlink:href="#font_3_70" transform="matrix(10.781249,0,0,-10.781249,290.90788,193.70311)"/>
<use data-text="k" xlink:href="#font_3_78" transform="matrix(10.781249,0,0,-10.781249,296.90226,193.70311)"/>
<path transform="matrix(.71874997,0,0,.71874997,.35937498,.35937498)" stroke-width="1" stroke-linecap="butt" stroke-miterlimit="10" stroke-linejoin="miter" fill="none" stroke="#000000" d="M449.77 173.59 409.18 248"/>
<path transform="matrix(.71874997,0,0,.71874997,.35937498,.35937498)" d="M452.28 168.98 452 176.8 449.77 173.59 445.86 173.45 452.28 168.98Z"/>
<path transform="matrix(.71874997,0,0,.71874997,.35937498,.35937498)" stroke-width="1" stroke-linecap="butt" stroke-miterlimit="10" stroke-linejoin="miter" fill="none" stroke="#000000" d="M452.28 168.98 452 176.8 449.77 173.59 445.86 173.45 452.28 168.98Z"/>
<path transform="matrix(.71874997,0,0,.71874997,.35937498,.35937498)" d="M485.5 248H556.5C557.0967 248 557.67068 248.11417 558.222 248.34252 558.7733 248.57088 559.25997 248.89604 559.68197 249.31801 560.1039 249.73996 560.429 250.2266 560.65737 250.77791 560.88577 251.32923 560.99996 251.90325 561 252.5V273.5C560.99996 274.0967 560.88577 274.67076 560.65737 275.22209 560.429 275.77339 560.1039 276.26 559.68197 276.68199 559.25997 277.10395 558.7733 277.42909 558.222 277.65745 557.67068 277.8858 557.0967 277.99998 556.5 278H485.5C484.90324 277.99998 484.32917 277.8858 483.77787 277.65745 483.22657 277.42909 482.73994 277.10395 482.318 276.68199 481.89604 276.26 481.57087 275.77339 481.3425 275.22209 481.11415 274.67076 480.99998 274.0967 481 273.5V252.5C480.99998 251.90325 481.11415 251.32921 481.3425 250.7779 481.57087 250.22658 481.89604 249.73996 482.318 249.31801 482.73994 248.89604 483.22657 248.57088 483.77787 248.34252 484.32917 248.11417 484.90324 248 485.5 248Z" fill="#ffffff"/>
<use data-text="B" xlink:href="#font_3_37" transform="matrix(10.781249,0,0,-10.781249,360.69737,193.70311)"/>
<use data-text="o" xlink:href="#font_3_82" transform="matrix(10.781249,0,0,-10.781249,368.48146,193.70311)"/>
<use data-text="n" xlink:href="#font_3_81" transform="matrix(10.781249,0,0,-10.781249,375.06877,193.70311)"/>
<use data-text="d" xlink:href="#font_3_71" transform="matrix(10.781249,0,0,-10.781249,381.6561,193.70311)"/>
<path transform="matrix(.71874997,0,0,.71874997,.35937498,.35937498)" stroke-width="1" stroke-linecap="butt" stroke-miterlimit="10" stroke-linejoin="miter" fill="none" stroke="#000000" d="M472.23 173.59 512.82 248"/>
<path transform="matrix(.71874997,0,0,.71874997,.35937498,.35937498)" d="M469.72 168.98 476.14 173.45 472.23 173.59 470 176.8 469.72 168.98Z"/>
<path transform="matrix(.71874997,0,0,.71874997,.35937498,.35937498)" stroke-width="1" stroke-linecap="butt" stroke-miterlimit="10" stroke-linejoin="miter" fill="none" stroke="#000000" d="M469.72 168.98 476.14 173.45 472.23 173.59 470 176.8 469.72 168.98Z"/>
<path transform="matrix(.71874997,0,0,.71874997,0,0)" stroke-width="6" stroke-linecap="butt" stroke-miterlimit="10" stroke-linejoin="miter" fill="none" stroke="#0000ff" d="M101 253.29V44.71"/>
<path transform="matrix(.71874997,0,0,.71874997,0,0)" d="M101 262.29 95 250.29 101 253.29 107 250.29 101 262.29Z" fill="#0000ff"/>
<path transform="matrix(.71874997,0,0,.71874997,0,0)" stroke-width="6" stroke-linecap="butt" stroke-miterlimit="10" stroke-linejoin="miter" fill="none" stroke="#0000ff" d="M101 262.29 95 250.29 101 253.29 107 250.29 101 262.29Z"/>
<path transform="matrix(.71874997,0,0,.71874997,0,0)" d="M101 35.71 107 47.71 101 44.71 95 47.71 101 35.71Z" fill="#0000ff"/>
<path transform="matrix(.71874997,0,0,.71874997,0,0)" stroke-width="6" stroke-linecap="butt" stroke-miterlimit="10" stroke-linejoin="miter" fill="none" stroke="#0000ff" d="M101 35.71 107 47.71 101 44.71 95 47.71 101 35.71Z"/>
<use data-text="I" xlink:href="#font_4_44" transform="matrix(10.781249,0,0,-10.781249,8.546386,12.937499)"/>
<use data-text="n" xlink:href="#font_4_81" transform="matrix(10.781249,0,0,-10.781249,11.543573,12.937499)"/>
<use data-text="c" xlink:href="#font_4_70" transform="matrix(10.781249,0,0,-10.781249,17.537949,12.937499)"/>
<use data-text="r" xlink:href="#font_4_85" transform="matrix(10.781249,0,0,-10.781249,22.928574,12.937499)"/>
<use data-text="e" xlink:href="#font_4_72" transform="matrix(10.781249,0,0,-10.781249,26.518729,12.937499)"/>
<use data-text="a" xlink:href="#font_4_68" transform="matrix(10.781249,0,0,-10.781249,32.513105,12.937499)"/>
<use data-text="s" xlink:href="#font_4_86" transform="matrix(10.781249,0,0,-10.781249,38.507478,12.937499)"/>
<use data-text="i" xlink:href="#font_4_76" transform="matrix(10.781249,0,0,-10.781249,43.8981,12.937499)"/>
<use data-text="n" xlink:href="#font_4_81" transform="matrix(10.781249,0,0,-10.781249,46.29154,12.937499)"/>
<use data-text="g" xlink:href="#font_4_74" transform="matrix(10.781249,0,0,-10.781249,52.285917,12.937499)"/>
<use data-text="a" xlink:href="#font_4_68" transform="matrix(10.781249,0,0,-10.781249,7.052734,25.874999)"/>
<use data-text="b" xlink:href="#font_4_69" transform="matrix(10.781249,0,0,-10.781249,13.047109,25.874999)"/>
<use data-text="s" xlink:href="#font_4_86" transform="matrix(10.781249,0,0,-10.781249,19.041483,25.874999)"/>
<use data-text="t" xlink:href="#font_4_87" transform="matrix(10.781249,0,0,-10.781249,24.432108,25.874999)"/>
<use data-text="r" xlink:href="#font_4_85" transform="matrix(10.781249,0,0,-10.781249,27.429297,25.874999)"/>
<use data-text="a" xlink:href="#font_4_68" transform="matrix(10.781249,0,0,-10.781249,31.019452,25.874999)"/>
<use data-text="c" xlink:href="#font_4_70" transform="matrix(10.781249,0,0,-10.781249,37.013826,25.874999)"/>
<use data-text="t" xlink:href="#font_4_87" transform="matrix(10.781249,0,0,-10.781249,42.40445,25.874999)"/>
<use data-text="i" xlink:href="#font_4_76" transform="matrix(10.781249,0,0,-10.781249,45.401639,25.874999)"/>
<use data-text="o" xlink:href="#font_4_82" transform="matrix(10.781249,0,0,-10.781249,47.79508,25.874999)"/>
<use data-text="n" xlink:href="#font_4_81" transform="matrix(10.781249,0,0,-10.781249,53.789457,25.874999)"/>
<use data-text="D" xlink:href="#font_4_39" transform="matrix(10.781249,0,0,-10.781249,6.1542966,186.87499)"/>
<use data-text="e" xlink:href="#font_4_72" transform="matrix(10.781249,0,0,-10.781249,13.938359,186.87499)"/>
<use data-text="c" xlink:href="#font_4_70" transform="matrix(10.781249,0,0,-10.781249,19.932734,186.87499)"/>
<use data-text="r" xlink:href="#font_4_85" transform="matrix(10.781249,0,0,-10.781249,25.323359,186.87499)"/>
<use data-text="e" xlink:href="#font_4_72" transform="matrix(10.781249,0,0,-10.781249,28.913514,186.87499)"/>
<use data-text="a" xlink:href="#font_4_68" transform="matrix(10.781249,0,0,-10.781249,34.90789,186.87499)"/>
<use data-text="s" xlink:href="#font_4_86" transform="matrix(10.781249,0,0,-10.781249,40.902265,186.87499)"/>
<use data-text="i" xlink:href="#font_4_76" transform="matrix(10.781249,0,0,-10.781249,46.29289,186.87499)"/>
<use data-text="n" xlink:href="#font_4_81" transform="matrix(10.781249,0,0,-10.781249,48.686326,186.87499)"/>
<use data-text="g" xlink:href="#font_4_74" transform="matrix(10.781249,0,0,-10.781249,54.680704,186.87499)"/>
<use data-text="a" xlink:href="#font_4_68" transform="matrix(10.781249,0,0,-10.781249,7.052734,199.81249)"/>
<use data-text="b" xlink:href="#font_4_69" transform="matrix(10.781249,0,0,-10.781249,13.047109,199.81249)"/>
<use data-text="s" xlink:href="#font_4_86" transform="matrix(10.781249,0,0,-10.781249,19.041483,199.81249)"/>
<use data-text="t" xlink:href="#font_4_87" transform="matrix(10.781249,0,0,-10.781249,24.432108,199.81249)"/>
<use data-text="r" xlink:href="#font_4_85" transform="matrix(10.781249,0,0,-10.781249,27.429297,199.81249)"/>
<use data-text="a" xlink:href="#font_4_68" transform="matrix(10.781249,0,0,-10.781249,31.019452,199.81249)"/>
<use data-text="c" xlink:href="#font_4_70" transform="matrix(10.781249,0,0,-10.781249,37.013826,199.81249)"/>
<use data-text="t" xlink:href="#font_4_87" transform="matrix(10.781249,0,0,-10.781249,42.40445,199.81249)"/>
<use data-text="i" xlink:href="#font_4_76" transform="matrix(10.781249,0,0,-10.781249,45.401639,199.81249)"/>
<use data-text="o" xlink:href="#font_4_82" transform="matrix(10.781249,0,0,-10.781249,47.79508,199.81249)"/>
<use data-text="n" xlink:href="#font_4_81" transform="matrix(10.781249,0,0,-10.781249,53.789457,199.81249)"/>
</g>
</svg>
