<svg xmlns="http://www.w3.org/2000/svg" xmlns:xlink="http://www.w3.org/1999/xlink" xmlns:inkscape="http://www.inkscape.org/namespaces/inkscape" version="1.1" width="258.96" height="154.08" viewBox="0 0 258.96 154.08">
<defs>
<clipPath id="clip_1">
<path transform="matrix(.24,0,0,.24,0,0)" d="M0 0H1079.1666V639.72756H0Z" clip-rule="evenodd"/>
</clipPath>
<clipPath id="clip_2">
<path transform="matrix(.24,0,0,.24,0,0)" d="M113.59648 182.35225H251.10802V630.7594H113.59648Z" clip-rule="evenodd"/>
</clipPath>
<clipPath id="clip_3">
<path transform="matrix(.24,0,0,.24,0,0)" d="M756.3134 182.35225H1073.1878V630.7594H756.3134Z" clip-rule="evenodd"/>
</clipPath>
<clipPath id="clip_4">
<path transform="matrix(.24,0,0,.24,0,0)" d="M0 0H1079.1666V633.7488H0Z" clip-rule="evenodd"/>
</clipPath>
<path id="font_5_43" d="M.07324219 0V.7158203H.21777344V.4345703H.50097659V.7158203H.6455078V0H.50097659V.31347657H.21777344V0H.07324219Z"/>
<path id="font_5_88" d="M.41308595 0V.07763672C.39420573 .04996745 .36938478 .028157553 .33862306 .012207031 .30786134-.0037434896 .27539063-.01171875 .24121094-.01171875 .2063802-.01171875 .1751302-.0040690104 .14746094 .011230469 .119791667 .026529948 .09977213 .048014326 .087402347 .075683597 .075032558 .10335287 .068847659 .14160156 .068847659 .19042969V.5185547H.20605469V.28082276C.20605469 .20806885 .20857747 .16349285 .21362305 .14709473 .21866863 .13069661 .22786458 .1177063 .24121094 .10812378 .25455729 .09854126 .27148438 .09375 .2919922 .09375 .3154297 .09375 .33642579 .10016378 .35498048 .11299133 .37353517 .1258189 .38623048 .14173381 .3930664 .16073609 .39990235 .17973836 .4033203 .2262624 .4033203 .30030824V.5185547H.54052737V0H.41308595Z"/>
<path id="font_5_80" d="M.061523439 .5185547H.18798828V.4477539C.23323567 .5027669 .28710938 .53027346 .34960938 .53027346 .3828125 .53027346 .4116211 .523407 .43603517 .5096741 .46044923 .49594117 .48046876 .47517396 .49609376 .44737245 .5188802 .47517396 .54345706 .49594117 .5698242 .5096741 .5961914 .523407 .62434896 .53027346 .6542969 .53027346 .6923828 .53027346 .7246094 .5225423 .75097659 .5070801 .77734377 .49161784 .7970378 .46891276 .8100586 .43896485 .8194987 .41682945 .82421877 .38102214 .82421877 .33154298V0H.6870117V.29605104C.6870117 .34742228 .6822917 .38058473 .67285159 .39553834 .66015627 .41504923 .640625 .4248047 .6142578 .4248047 .59505209 .4248047 .57698568 .4189504 .5600586 .40724183 .54313156 .39554344 .5309245 .37839256 .5234375 .35578919 .5159505 .333196 .51220706 .29751078 .51220706 .24873352V0H.375V.28385926C.375 .33425395 .3725586 .36676536 .36767579 .38139344 .36279298 .3960317 .3552246 .40692649 .3449707 .41407777 .3347168 .42122904 .32080079 .4248047 .30322267 .4248047 .2820638 .4248047 .26302085 .41911317 .24609375 .4077301 .22916667 .3963572 .21704102 .37993876 .2097168 .35847474 .20239258 .3370107 .19873047 .30140687 .19873047 .2516632V0H.061523439V.5185547Z"/>
<path id="font_5_68" d="M.1743164 .35839845 .049804689 .38085938C.063802089 .4316508 .087890628 .46924845 .12207031 .49365235 .15625 .5180664 .20703125 .53027346 .27441407 .53027346 .33561198 .53027346 .3811849 .5230306 .4111328 .5085449 .44108073 .49405924 .4621582 .47566734 .47436524 .45336915 .48657228 .43107096 .49267579 .39013673 .49267579 .3305664L.49121095 .17041016C.49121095 .12483724 .4934082 .09122721 .49780274 .06958008 .50219729 .04793294 .5104167 .024739584 .52246096 0H.38671876C.38313804 .009114583 .3787435 .022623698 .37353517 .040527345 .3712565 .048665365 .3696289 .054036458 .36865235 .056640626 .34521485 .033854169 .32014976 .016764323 .29345704 .0053710939 .2667643-.0060221354 .23828125-.01171875 .20800781-.01171875 .15462239-.01171875 .11254883 .0027058919 .08178711 .031555177 .05102539 .06040446 .03564453 .09687296 .03564453 .1409607 .03564453 .1701355 .04264323 .19614665 .056640626 .21899414 .07063802 .2418518 .09025065 .25935874 .115478519 .2715149 .14070638 .28367106 .17708333 .2942861 .22460938 .30336 .28873698 .3153534 .33317057 .3265381 .35791017 .33691407V.35073854C.35791017 .37740074 .35139976 .39640809 .3383789 .40776063 .32535807 .41912333 .30078126 .4248047 .26464845 .4248047 .24023438 .4248047 .2211914 .41989137 .20751953 .4100647 .19384766 .4002482 .18277996 .38302613 .1743164 .35839845M.35791017 .24707031C.34033204 .24128215 .3125 .23436482 .27441407 .22631836 .23632813 .21828206 .21142578 .21040344 .19970703 .2026825 .18180339 .19013977 .17285156 .17421977 .17285156 .15492249 .17285156 .13594055 .18001302 .119532268 .19433594 .10569763 .20865886 .09187317 .22688802 .08496094 .24902344 .08496094 .27376304 .08496094 .29736329 .09300232 .31982423 .10908508 .33642579 .121302288 .34733073 .13626099 .35253907 .15396118 .35611979 .16553752 .35791017 .18756612 .35791017 .220047V.24707031Z"/>
<path id="font_5_81" d="M.54345706 0H.40625V.26434327C.40625 .32027183 .4033203 .3564453 .39746095 .37286378 .39160157 .38928224 .38208009 .40204368 .36889649 .41114808 .3557129 .42025248 .33984376 .4248047 .32128907 .4248047 .29752604 .4248047 .27620445 .41829936 .25732423 .4052887 .23844402 .3922882 .22550456 .37505595 .21850586 .35359193 .21150716 .33213807 .20800781 .2924703 .20800781 .23458863V0H.07080078V.5185547H.19824219V.4423828C.24348958 .50097659 .30045573 .53027346 .36914063 .53027346 .39941407 .53027346 .42708335 .524821 .45214845 .513916 .47721354 .50301107 .49617515 .48909507 .5090332 .47216798 .5218913 .45524089 .5308431 .43603517 .5358887 .41455079 .54093429 .3930664 .54345706 .3623047 .54345706 .32226563V0Z"/>
<path id="font_5_39" d="M.072265628 .7158203H.33642579C.3959961 .7158203 .44140626 .711263 .47265626 .70214846 .51464846 .6897786 .55061849 .66780599 .5805664 .63623049 .61051437 .60465499 .6333008 .5659993 .6489258 .5202637 .6645508 .47452799 .6723633 .4181315 .6723633 .35107423 .6723633 .29215495 .66503909 .2413737 .6503906 .19873047 .632487 .14664714 .6069336 .10449219 .57373049 .072265628 .54866537 .047851564 .5148112 .028808594 .47216798 .015136719 .44026695 .0050455729 .3976237 0 .34423829 0H.072265628V.7158203M.21679688 .59472659V.12109375H.32470704C.36507163 .12109375 .39420573 .1233724 .41210938 .12792969 .43554688 .13377889 .45499674 .14369202 .47045899 .15766907 .48592124 .1716563 .49853517 .19466655 .5083008 .22669983 .5180664 .25873313 .5229492 .30238853 .5229492 .35766603 .5229492 .4129435 .5180664 .4553782 .5083008 .4849701 .49853517 .51456198 .48486329 .5376485 .46728517 .55422976 .44970704 .5708211 .42740885 .58204147 .40039063 .5878906 .38020835 .59244796 .34065757 .59472659 .28173829 .59472659H.21679688Z"/>
<path id="font_5_76" d="M.071777347 .5888672V.7158203H.20898438V.5888672H.071777347M.071777347 0V.5185547H.20898438V0H.071777347Z"/>
<path id="font_5_85" d="M.203125 0H.06591797V.5185547H.19335938V.44482423C.21516927 .47965495 .2347819 .5026042 .25219728 .5136719 .26961265 .52473959 .28938804 .53027346 .31152345 .53027346 .34277345 .53027346 .37288413 .52164718 .40185548 .50439456L.359375 .38476563C.33626304 .3997396 .31477867 .40722657 .29492188 .40722657 .27571617 .40722657 .2594401 .40193687 .24609375 .39135743 .23274739 .38077799 .22224935 .36165367 .21459961 .33398438 .20694988 .3063151 .203125 .24837239 .203125 .16015625V0Z"/>
<path id="font_5_72" d="M.3720703 .16503906 .50878909 .14160156C.49121095 .09163412 .4634603 .053588869 .4255371 .02746582 .38761393 .0013427734 .34016929-.01171875 .28320313-.01171875 .19303386-.01171875 .12630208 .017740885 .08300781 .076660159 .048828126 .12386068 .03173828 .18343099 .03173828 .2553711 .03173828 .3413086 .05419922 .40861003 .099121097 .4572754 .14404297 .50594076 .20084636 .53027346 .26953126 .53027346 .3466797 .53027346 .4075521 .50480148 .45214845 .45385743 .49674479 .40291343 .5180664 .32486979 .5161133 .21972656H.17236328C.17333985 .17903646 .18440755 .14737956 .2055664 .12475586 .22672527 .102132167 .25309245 .09082031 .28466798 .09082031 .30615235 .09082031 .32421876 .09667969 .3388672 .10839844 .35351563 .12011719 .36458335 .13899739 .3720703 .16503906M.3798828 .30371095C.37890626 .34326173 .36865235 .3733317 .3491211 .3939209 .32958985 .4145101 .3058268 .4248047 .27783204 .4248047 .24788411 .4248047 .22314453 .41394554 .20361328 .39222718 .18408203 .37049867 .17447917 .34099327 .17480469 .30371095H.3798828Z"/>
<path id="font_5_70" d="M.5239258 .36523438 .38867188 .3408203C.3841146 .36767579 .3737793 .38789878 .35766603 .40148927 .34155274 .41507975 .32063804 .421875 .29492188 .421875 .2607422 .421875 .23347982 .41011048 .21313477 .38658143 .19278972 .36305238 .18261719 .32370506 .18261719 .26853944 .18261719 .2071991 .19295247 .16386922 .21362305 .1385498 .23429363 .11324056 .26204429 .10058594 .296875 .10058594 .32291667 .10058594 .34423829 .10799154 .36083985 .122802738 .3774414 .13761394 .38916017 .16308594 .3959961 .19921875L.5307617 .17578125C.51676437 .11393229 .48990885 .067220058 .4501953 .03564453 .41048179 .0040690104 .35725913-.01171875 .29052735-.01171875 .21468099-.01171875 .1542155 .012207031 .10913086 .060058595 .06404623 .107910159 .041503908 .17415364 .041503908 .25878907 .041503908 .34440104 .0641276 .41105143 .109375 .45874024 .15462239 .506429 .21582031 .53027346 .29296876 .53027346 .35611979 .53027346 .4063314 .5166829 .44360353 .48950196 .48087565 .46232096 .5076497 .42089845 .5239258 .36523438Z"/>
<path id="font_5_87" d="M.3095703 .5185547V.4091797H.21582031V.200531C.21582031 .15827434 .2167155 .13365174 .21850586 .12666321 .22029622 .11968485 .22436524 .11391703 .23071289 .10935974 .23706055 .10481262 .24479167 .10253906 .25390626 .10253906 .26660157 .10253906 .2849935 .106933597 .30908204 .115722659L.32080079 .008880615C.28889976-.004852295 .25276695-.01171875 .21240235-.01171875 .18766277-.01171875 .16536458-.0075683596 .14550781 .0007324219 .12565105 .009033203 .111083988 .01977539 .10180664 .032958986 .0925293 .046142579 .08610026 .063964847 .08251953 .08642578 .079589847 .102376308 .078125 .13460286 .078125 .18310547V.4091797H.015136719V.5185547H.078125V.6220703L.21582031 .703125V.5185547H.3095703Z"/>
<path id="font_5_82" d="M.040039064 .26660157C.040039064 .31217448 .05126953 .35628257 .07373047 .39892579 .096191409 .441569 .12801107 .4741211 .16918946 .49658204 .21036785 .51904299 .25634767 .53027346 .3071289 .53027346 .38557945 .53027346 .44986979 .50480148 .5 .45385743 .5501302 .40291343 .5751953 .33854167 .5751953 .2607422 .5751953 .18229167 .54988607 .11726888 .49926759 .06567383 .44864909 .014078776 .38492839-.01171875 .30810548-.01171875 .26057945-.01171875 .21525066-.0009765625 .17211914 .020507813 .12898763 .041992189 .096191409 .07348633 .07373047 .114990238 .05126953 .15649414 .040039064 .20703125 .040039064 .26660157M.18066406 .25927735C.18066406 .20800781 .1928711 .16874187 .21728516 .14147949 .24169922 .114217128 .2718099 .10058594 .3076172 .10058594 .34342448 .10058594 .37345378 .114217128 .39770509 .14147949 .4219564 .16874187 .43408204 .20833333 .43408204 .2602539 .43408204 .3108724 .4219564 .34981285 .39770509 .3770752 .37345378 .40433757 .34342448 .41796876 .3076172 .41796876 .2718099 .41796876 .24169922 .40433757 .21728516 .3770752 .1928711 .34981285 .18066406 .31054688 .18066406 .25927735Z"/>
<path id="font_6_68" d="M.40429688 .06402588C.37174479 .03633626 .34041343 .016789755 .31030274 .0053863527 .28019206-.0060170495 .24788411-.01171875 .2133789-.01171875 .15641277-.01171875 .11263021 .0022074383 .08203125 .030059815 .051432294 .05791219 .036132814 .09350077 .036132814 .13682556 .036132814 .16222637 .04191081 .18542989 .053466798 .20643616 .06502279 .22745259 .08015951 .24431356 .09887695 .25701905 .1175944 .26972453 .13867188 .2793325 .16210938 .2858429 .17936199 .29041038 .20540364 .29480998 .24023438 .29904176 .3111979 .30744425 .363444 .3174642 .39697267 .32910157 .3972982 .34109498 .39746095 .3487142 .39746095 .35195924 .39746095 .38763429 .38916017 .4127655 .3725586 .4273529 .35009767 .44713847 .31673179 .45703126 .27246095 .45703126 .2311198 .45703126 .20060222 .44978843 .1809082 .43530274 .16121419 .42081706 .14664714 .39518229 .13720703 .35839845L.05126953 .3701172C.05908203 .40701295 .0719401 .43680827 .08984375 .45950318 .1077474 .4821981 .1336263 .4996643 .16748047 .51190188 .20133464 .5241496 .24055989 .53027346 .28515626 .53027346 .3294271 .53027346 .36539714 .5250651 .3930664 .51464846 .4207357 .50423178 .44108073 .49112956 .45410157 .4753418 .4671224 .45955406 .47623698 .43961589 .4814453 .41552735 .484375 .40055339 .48583985 .37353517 .48583985 .33447267V.21728516C.48583985 .13557942 .48771159 .08390299 .49145509 .06225586 .49519859 .040608724 .5026042 .019856772 .5136719 0H.421875C.4127604 .018249512 .40690104 .039591474 .40429688 .06402588M.39697267 .2607422C.36507163 .24760945 .31722007 .2364502 .25341798 .2272644 .21728516 .22203572 .19173177 .21615093 .17675781 .20960999 .16178386 .20307923 .15022786 .19351705 .14208985 .18092346 .13395183 .16834004 .12988281 .15436809 .12988281 .13900757 .12988281 .115478519 .13875325 .09586588 .15649414 .08016968 .17423503 .06448364 .20019531 .056640626 .234375 .056640626 .26822917 .056640626 .29833985 .064081829 .32470704 .07896423 .35107423 .09384664 .37044273 .11420695 .3828125 .14004517 .3922526 .16000366 .39697267 .18944295 .39697267 .22836304V.2607422Z"/>
<path id="font_6_86" d="M.030761719 .15527344 .11767578 .16894531C.122558597 .13426717 .1361491 .107691448 .15844727 .08921814 .18074544 .070755008 .21191406 .061523439 .25195313 .061523439 .29231773 .061523439 .32226563 .06967672 .34179688 .08598328 .36132813 .10230001 .37109376 .12143453 .37109376 .14338684 .37109376 .16309102 .36246745 .17859395 .34521485 .18989563 .33317057 .1976471 .30322267 .20749919 .2553711 .2194519 .19091797 .23573812 .14624024 .24982707 .12133789 .26171876 .09643555 .27361045 .077555339 .29006449 .064697269 .31108094 .05183919 .33209739 .045410158 .35531108 .045410158 .38072206 .045410158 .40385438 .05069987 .4252777 .061279298 .44499208 .07185873 .46470643 .08626302 .4810791 .10449219 .4941101 .11816406 .5042114 .13680013 .5127614 .16040039 .51976016 .18400066 .526769 .20930989 .53027346 .23632813 .53027346 .27701823 .53027346 .31274415 .52437338 .34350587 .51257327 .37426759 .50078329 .39697267 .48480735 .4116211 .4646454 .42626954 .44449363 .4363607 .4175415 .44189454 .38378907L.35595704 .3720703C.35205079 .39876304 .34073893 .41959635 .32202149 .4345703 .30330406 .44954429 .27685548 .45703126 .24267578 .45703126 .2023112 .45703126 .17350261 .45038859 .15625 .43710328 .13899739 .42382813 .1303711 .40827943 .1303711 .39045716 .1303711 .37912498 .13395183 .3689219 .14111328 .35984803 .14827474 .35045878 .1595052 .34268699 .17480469 .3365326 .18359375 .33328758 .20947266 .32583619 .2524414 .31417848 .31461589 .29758708 .35799156 .28400675 .38256837 .2734375 .40714518 .26286827 .42643229 .24749756 .4404297 .22732544 .4544271 .2071635 .46142579 .18212383 .46142579 .15220642 .46142579 .12292989 .45288087 .09536234 .43579103 .069503787 .41870118 .043655397 .39404298 .02365621 .3618164 .009506226 .32958985-.0046437585 .2931315-.01171875 .2524414-.01171875 .1850586-.01171875 .13370769 .002319336 .09838867 .030395508 .063069667 .05847168 .040527345 .100097659 .030761719 .15527344Z"/>
<path id="font_6_76" d="M.06640625 .6142578V.7158203H.15429688V.6142578H.06640625M.06640625 0V.5185547H.15429688V0H.06640625Z"/>
<path id="font_6_74" d="M.049804689-.04296875 .1352539-.055664064C.13883464-.08203125 .14876302-.10123698 .16503906-.11328125 .18684896-.1295573 .21663411-.13769531 .25439454-.13769531 .29508464-.13769531 .3264974-.12953694 .3486328-.113220218 .37076823-.09691366 .3857422-.07407633 .3935547-.044708253 .39811198-.026774088 .40022788 .010904948 .39990235 .06832886 .36149089 .022776286 .3136393 0 .25634767 0 .1850586 0 .12988281 .025716147 .09082031 .07714844 .051757814 .12858074 .032226564 .19026692 .032226564 .26220704 .032226564 .3116862 .041178388 .35734049 .05908203 .39916993 .07698568 .44099937 .10294596 .47330729 .13696289 .49609376 .17097982 .5188802 .2109375 .53027346 .25683595 .53027346 .31803385 .53027346 .3684896 .5053711 .40820313 .4555664V.5185547H.4892578V.070007327C.4892578-.010772705 .48103843-.06801859 .4645996-.10173035 .4481608-.1354421 .42211915-.16206868 .3864746-.1816101 .35083009-.2011617 .30696617-.2109375 .2548828-.2109375 .19303386-.2109375 .1430664-.19698079 .10498047-.16906739 .06689453-.14115398 .048502607-.099121097 .049804689-.04296875M.122558597 .26853944C.122558597 .20067851 .1360677 .15116374 .16308594 .11999512 .19010417 .0888265 .22395833 .07324219 .26464845 .07324219 .30501304 .07324219 .3388672 .08874512 .36621095 .11975098 .3935547 .15075684 .40722657 .19938152 .40722657 .265625 .40722657 .3289388 .3931478 .3766683 .36499024 .40881349 .33683268 .44095866 .30289714 .45703126 .2631836 .45703126 .2241211 .45703126 .19091797 .4412028 .16357422 .4095459 .13623047 .377889 .122558597 .33088685 .122558597 .26853944Z"/>
<path id="font_6_81" d="M.06591797 0V.5185547H.14501953V.4453125C.18310547 .5019531 .23811849 .53027346 .3100586 .53027346 .3413086 .53027346 .3700358 .5246582 .39624024 .51342776 .42244468 .50219729 .44205729 .48746745 .45507813 .46923829 .46809898 .45100913 .47721354 .42936198 .48242188 .40429688 .4856771 .38802085 .4873047 .35953776 .4873047 .31884767V0H.39941407V.31576539C.39941407 .35161338 .3959961 .37841798 .38916017 .3961792 .38232423 .41394044 .37019859 .42811585 .3527832 .43870545 .33536784 .44929505 .3149414 .45458985 .2915039 .45458985 .254069 .45458985 .22176107 .44269309 .19458008 .41889955 .1673991 .39511619 .1538086 .34998576 .1538086 .2835083V0H.06591797Z"/>
<path id="font_6_80" d="M.06591797 0V.5185547H.14453125V.44628907C.1608073 .47153727 .18245442 .4918467 .20947266 .5072174 .23649089 .5225881 .2672526 .53027346 .3017578 .53027346 .34016929 .53027346 .37166343 .52233889 .39624024 .5064697 .42081706 .49061076 .43815104 .46843467 .4482422 .4399414 .4892578 .5001628 .54264327 .53027346 .60839846 .53027346 .65983077 .53027346 .69938156 .5160319 .7270508 .48754884 .75472006 .45906578 .7685547 .4152018 .7685547 .35595704V0H.68115237V.3270111C.68115237 .36220805 .678304 .38754273 .6726074 .40301515 .6669108 .4184977 .6565755 .43096415 .64160159 .44041444 .6266276 .44986473 .6090495 .45458985 .5888672 .45458985 .5524089 .45458985 .52213546 .44244895 .49804688 .4181671 .47395835 .39389549 .46191407 .3550364 .46191407 .30158998V0H.37402345V.33728028C.37402345 .37638346 .36686198 .40571086 .35253907 .42526246 .33821617 .44481407 .31477867 .45458985 .28222657 .45458985 .25748698 .45458985 .23461914 .44806925 .21362305 .43502809 .19262696 .42199708 .17740886 .40293376 .16796875 .37783814 .15852864 .3527527 .1538086 .31658427 .1538086 .2693329V0H.06591797Z"/>
<path id="font_6_72" d="M.42089845 .16699219 .51171877 .15576172C.49739585 .10270182 .47086589 .061523439 .4321289 .032226564 .39339195 .0029296876 .34391276-.01171875 .2836914-.01171875 .20784505-.01171875 .14770508 .01163737 .103271488 .05834961 .05883789 .10506185 .036621095 .17057292 .036621095 .2548828 .036621095 .3421224 .05908203 .40983073 .104003909 .4580078 .14892578 .5061849 .20719402 .53027346 .2788086 .53027346 .34814454 .53027346 .40478517 .5067088 .44873048 .45957948 .49267579 .41246034 .51464846 .34616599 .51464846 .2606964 .51464846 .25549827 .51448568 .247701 .51416018 .23730469H.1274414C.13069661 .1805013 .14680989 .13700359 .17578125 .10681152 .20475261 .07661947 .24088542 .061523439 .2841797 .061523439 .31640626 .061523439 .34391276 .0699056 .36669923 .08666992 .3894857 .10344442 .4075521 .1302185 .42089845 .16699219M.13232422 .31054688H.421875C.41796876 .3534546 .40690104 .38563539 .38867188 .40708924 .3606771 .4403839 .3243815 .45703126 .27978517 .45703126 .23942058 .45703126 .20548503 .44374085 .17797852 .41716004 .150472 .3905894 .1352539 .35505168 .13232422 .31054688Z"/>
<path id="font_6_87" d="M.2578125 .07763672 .2705078 0C.24576824-.0045572917 .22363281-.0068359377 .20410156-.0068359377 .17220052-.0068359377 .14746094-.0017903646 .12988281 .008300781 .11230469 .018391928 .0999349 .031656904 .09277344 .048095704 .08561198 .06453451 .08203125 .099121097 .08203125 .15185547V.4501953H.017578125V.5185547H.08203125V.6473236L.1694336 .7001953V.5185547H.2578125V.4501953H.1694336V.14697266C.1694336 .121907558 .17097982 .10579427 .17407227 .09863281 .17716472 .09147135 .18221028 .08577474 .18920899 .08154297 .19620769 .077311199 .20621746 .07519531 .21923828 .07519531 .2290039 .07519531 .24186199 .07600912 .2578125 .07763672Z"/>
</defs>
<g clip-path="url(#clip_1)">
<path transform="matrix(.71745148,0,0,.71745148,0,0)" d="M0 0H361V214H0Z" fill="#ffffff"/>
</g>
<g clip-path="url(#clip_2)">
<path transform="matrix(.16738639,0,0,.16738639,86.02926,41.839597)" stroke-width="1" stroke-linecap="square" stroke-miterlimit="4" stroke-linejoin="miter" fill="none" stroke="#000000" d="M-252 12C-241.64 12.545-216.8 9.034-229.33 76-241.77 142.45-167.91 94.443-156.27 142.26001-152.44 158.00002-158.67 184.00002-158.67 184.00002-158.67 184.00002-153.84999 205.99002-156 225.33002-156.79 232.44002-167.51 260.99003-166.81 268.30003-166.3 273.73-161.59 293.55003-161.73 307.56004-161.84 319.26005-165.7 342.69004-166.08 351.58003-166.31 356.80003-160.89 389.21003-161.58 395.21003-162.08 399.57-175.77 422.97004-178.12 421.09004-180.09999 419.51005-171.06 395.16004-170.67 392.00004-170.18 388.08003-175.41 374.57005-177.33 374.67005-180.54001 374.80006-177.09 399.63005-180 399.63005-182.54 399.63005-189.21 384.23005-189.21 377.33006-189.21 371.52006-183.75 356.93006-184 348.00007-184.44 332.39009-193.71 312.95008-194.18 297.33009-194.46999 288.0001-192.43 275.61009-192.84999 266.30009-193.43999 253.11008-198.67 222.67008-198.67 222.67008-198.67 222.67008-206.29 254.19008-206.67 268.00007-207.39 294.58006-195.72 329.41007-196 356.00007-196.48 401.25007-181.18 405.74006-200.98 505.33009-195.2 518.06008-195.08 540.7101-197.58 554.06008-201.46 574.73007-212.14 601.67007-214.32 617.3301-209.23001 631.8601-186.93001 654.06008-199.28002 653.3301-199.28002 653.3301-231.34001 654.6701-235.65001 653.3301-239.21 652.2301-233.33 639.7301-234.15001 617.74008-234.77 601.17007-240.73001 578.07009-240.82 555.77-240.87001 542.21-242.13 534.05007-235.86 505.77003-252.25 433.72004-252 382.36003-252 382.36003"/>
<path transform="matrix(.16738639,0,0,.16738639,86.02926,41.839597)" stroke-width="1" stroke-linecap="butt" stroke-miterlimit="4" stroke-linejoin="miter" fill="none" stroke="#000000" d="M-199.48 225.32C-197.97 225.32-191.09 169.73001-199.48 169.73001"/>
<path transform="matrix(.16738639,0,0,.16738639,86.02926,41.839597)" stroke-width="1" stroke-linecap="square" stroke-miterlimit="4" stroke-linejoin="miter" fill="none" stroke="#000000" d="M-252.03 107.39C-242.99 107.22-232.87 92.31-229.98 79.804"/>
<path transform="matrix(-.16738639,0,0,.16738639,1.4991449,41.839597)" stroke-width="1" stroke-linecap="square" stroke-miterlimit="4" stroke-linejoin="miter" fill="none" stroke="#000000" d="M-252 12C-241.64 12.545-216.8 9.034-229.33 76-241.77 142.45-167.91 94.443-156.27 142.26001-152.44 158.00002-158.67 184.00002-158.67 184.00002-158.67 184.00002-153.84999 205.99002-156 225.33002-156.79 232.44002-167.51 260.99003-166.81 268.30003-166.3 273.73-161.59 293.55003-161.73 307.56004-161.84 319.26005-165.7 342.69004-166.08 351.58003-166.31 356.80003-160.89 389.21003-161.58 395.21003-162.08 399.57-175.77 422.97004-178.12 421.09004-180.09999 419.51005-171.06 395.16004-170.67 392.00004-170.18 388.08003-175.41 374.57005-177.33 374.67005-180.54001 374.80006-177.09 399.63005-180 399.63005-182.54 399.63005-189.21 384.23005-189.21 377.33006-189.21 371.52006-183.75 356.93006-184 348.00007-184.44 332.39009-193.71 312.95008-194.18 297.33009-194.46999 288.0001-192.43 275.61009-192.84999 266.30009-193.43999 253.11008-198.67 222.67008-198.67 222.67008-198.67 222.67008-206.29 254.19008-206.67 268.00007-207.39 294.58006-195.72 329.41007-196 356.00007-196.48 401.25007-181.18 405.74006-200.98 505.33009-195.2 518.06008-195.08 540.7101-197.58 554.06008-201.46 574.73007-212.14 601.67007-214.32 617.3301-209.23001 631.8601-186.93001 654.06008-199.28002 653.3301-199.28002 653.3301-231.34001 654.6701-235.65001 653.3301-239.21 652.2301-233.33 639.7301-234.15001 617.74008-234.77 601.17007-240.73001 578.07009-240.82 555.77-240.87001 542.21-242.13 534.05007-235.86 505.77003-252.25 433.72004-252 382.36003-252 382.36003"/>
<path transform="matrix(-.16738639,0,0,.16738639,1.4991449,41.839597)" stroke-width="1" stroke-linecap="butt" stroke-miterlimit="4" stroke-linejoin="miter" fill="none" stroke="#000000" d="M-199.48 225.32C-197.97 225.32-191.09 169.73001-199.48 169.73001"/>
<path transform="matrix(-.16738639,0,0,.16738639,1.4991449,41.839597)" stroke-width="1" stroke-linecap="square" stroke-miterlimit="4" stroke-linejoin="miter" fill="none" stroke="#000000" d="M-252.03 107.39C-242.99 107.22-232.87 92.31-229.98 79.804"/>
</g>
<g clip-path="url(#clip_3)">
<path transform="matrix(.12775477,0,0,.12775477,181.51522,43.79567)" d="M328.22 95.273C327.086 104.333 323.57 112.828 323.252 123.559009 330.63203 128.10501 336.02104 135.76902 343.12803 140.395 348.752 144.059 366.05204 149.542 372.94004 151.87401 381.98204 154.89601 398.24903 155.54001 402.76704 162.55402 404.07304 164.66101 403.39204 166.43302 404.40904 168.71102 410.22703 181.45201 414.53504 198.83002 418.489 213.05802 419.053 218.41002 419.618 223.76502 420.17604 229.1 426.04405 251.391 427.71604 277.103 433.39704 300.989 435.99403 311.889 433.43904 324.08103 435.87803 334.621 437.941 343.328 435.24403 354.475 435.07304 362.199 434.52204 386.081 434.08204 406.97 434.21305 429.49403 431.02604 430.574 429.79606 430.2 429.26905 434.05604 431.50605 436.97203 436.01905 457.90904 433.39704 464.68205 432.63804 466.67906 429.48204 467.57206 428.44004 469.24504 422.57203 478.532 413.52503 491.86705 399.46705 492.94804 399.82704 487.63505 402.42704 485.80305 403.61705 481.48704 405.51805 474.25904 403.07905 463.90205 401.08805 459.28605 400.27806 459.05506 399.46705 458.82005 398.61106 458.53807V459.28605C393.82307 467.01106 398.97206 478.11604 387.04005 479.18104 386.85606 469.15705 387.57905 450.17405 390.32804 441.72105 391.46003 438.24504 393.73103 435.01304 394.48005 431.03404H392.83406C391.29505 430.07905 388.11607 430.2 385.36506 430.24104 383.22407 433.05403 382.73005 435.46903 382.85707 440.96604 373.88307 451.45103 375.91105 481.68205 377.08607 500.61204 377.33607 504.42704 380.02406 508.46604 378.75608 512.86209 378.0771 515.08908 375.23509 517.72109 374.60508 519.72006 374.87507 528.403 375.13807 537.04507 375.44209 545.75308 375.48609 550.9891 379.16209 555.4891 377.08708 561.05307 376.63508 562.2 374.29008 563.15707 373.76307 564.067 372.21806 566.883 373.40309 571.05307 372.94007 573.24307 371.30506 581.16006 376.54508 585.82406 373.76307 593.92306 368.16807 610.31106 364.09306 628.26309 358.04109 645.142 356.64707 648.978 353.3961 652.892 352.23008 656.64907 348.59208 668.31607 355.11408 680.56509 351.4131 691.06307 348.8841 698.26608 342.4751 698.39407 342.3021 708.64108 353.53309 722.4811 339.1861 749.517 334.0441 760.64108 331.2171 766.598 331.5151 771.223 322.4161 771.35708 320.1441 769.7651 316.5281 769.7651 312.4731 769.81008 310.78114 772.89608 309.21913 778.0541 308.32313 779.7281 307.50914 780.26309 306.6881 780.8051 305.8611 781.3501 304.6671 784.4731 308.5451 791.3881 306.6881 795.8111 306.3071 796.7271 303.71513 798.5191 303.37913 799.6411 303.6701 800.9281 303.89613 802.2241 304.17213 803.4721 304.0321 804.39016 302.85914 806.6811 302.5681 808.0541 291.64613 814.3081 253.13712 821.05709 252.00511 802.7311 254.8751 800.1391 254.93912 797.0591 256.99513 793.5171 261.6231 785.5201 265.63414 784.5941 262.7871 772.8961 263.0681 768.3081 263.3601 763.7201 263.6041 759.14517 262.0471 754.6021 257.2381 752.56118 256.1551 746.88619 257.4831 745.85519 257.10609 746.38919 257.8281 744.55819 249.03009 738.88619 252.29709 727.8132 248.7101 717.0622 245.2841 706.7262 244.8741 692.6872 242.0751 681.1002 241.8101 675.01626 241.53911 668.85226 241.24211 662.7682 238.82712 652.8922 239.5731 640.2722 237.11812 629.8542 236.84113 624.2652 236.55413 618.6402 236.30512 613.0172 232.92111 602.3452 228.50012 594.8242 225.51313 582.4442 225.24912 571.2222 224.97812 560.00827 224.68413 548.8212 224.97713 547.4682 226.22614 543.69827 225.51313 541.15628 221.55013 526.61727 219.11612 506.51625 214.76012 491.45027 212.15612 482.49028 214.91812 470.68428 212.25212 461.59626 209.86212 453.30125 206.14212 446.15727 202.32712 439.45027 199.71112 434.78926 199.30312 427.20726 192.40012 426.41227 189.67111 427.93028 183.33011 425.95127 179.13411 425.68528 179.1831 396.48829 168.57611 376.01429 162.57212 351.46827 162.01212 341.28526 161.44512 331.06028 160.9031 320.89427 157.38611 305.89027 160.54212 292.03727 164.24611 278.06025 168.84111 260.59626 169.4311 242.81324 174.1441 226.05825 174.71811 221.43724 175.2541 216.89124 175.81711 212.29024 179.5431 199.22524 184.07411 177.89023 191.58712 167.93224 198.26612 159.01924 215.04611 159.12523 226.3321 154.14424 233.51111 150.99724 242.36711 148.80825 249.52211 144.99625 255.5971 141.74925 262.36613 132.06424 267.77513 127.37125 267.9331 113.14224 264.3251 104.95125 263.60414 92.97725H256.99415C256.17716 91.63025 255.95815 91.68425 255.32114 89.91925 251.37914 85.35225 252.95014 74.62525 254.48815 69.27125 258.19017 68.25425 259.81517 69.14425 260.28315 64.67025 257.42616 60.58025 259.81416 48.83525 261.14314 45.56525 266.17015 32.98225 279.01313 22.03825 295.91014 21.08725 316.98213 19.90325 332.91514 34.36025 336.51713 50.147249 335.66813 56.772249 334.8481 63.41625 334.04313 70.082248 339.1621 71.625247 341.55213 72.816249 342.30113 78.47925 337.47114 85.261249 340.71113 95.344249 328.1711 95.28425L328.22 95.273ZM374.6 265.813C363.778 288.24699 372.673 335.352 377.896 356.84999V366.78898C380.221 376.39299 380.962 386.47599 384.525 394.31697 385.36 394.60197 386.197 394.83396 387.034 395.07496V394.31697C387.693 393.41596 387.642 393.02098 387.839 391.28895 384.32099 385.77296 388.719 374.53895 387.034 367.53996 386.267 364.48097 385.335 358.69197 384.525 355.28895V333.16395C381.409 319.87495 381.813 304.83195 378.75199 291.85395 376.852 283.91496 380.78 272.08094 376.26799 266.58396 375.39799 265.97398 376.00798 266.27397 374.58799 265.81398L374.6 265.813ZM219.70001 274.203C217.85102 279.437 218.97801 285.451 217.24202 291.079 216.40502 293.682 213.71703 297.579 213.11202 300.225 211.89002 305.415 216.56702 311.1 214.76001 317.848 212.61402 325.724 209.548 344.556 213.11202 354.556H214.76001V353.012C219.382 346.66 219.15901 336.61799 221.369 327.768 225.658 310.644 230.125 304.352 223.85 285.709 222.449 281.471 223.76001 277.90803 221.369 275.03303 220.529 274.393 221.139 274.713 219.699 274.19303L219.70001 274.203ZM295.91 509.053C294.826 510.491 294.826 509.673 294.268 512.098 286.883 522.218 297.04103 537.80307 294.268 548.82 290.39903 564.067 294.713 577.76406 298.396 592.405 298.125 598.48806 297.848 604.645 297.577 610.76608 300.668 624.77108 298.251 645.23306 301.738 661.22708H304.172C312.068 648.52206 307.961 620.43606 312.473 604.645 313.00599 602.776 315.08399 585.802 314.97 585.492 314.641 584.722 312.021 584.488 311.658 584.012 310.349 582.017 312.043 578.76 310.82499 577.07907 309.65299 575.44509 306.425 575.46707 305.02598 574.051 302.68098 571.655 300.05799 563.297 299.24397 560.242 296.80598 551.469 305.11598 545.554 306.68696 540.367 307.68797 537.1 299.52098 514.408 298.39497 509.80403 297.57496 509.53404 296.73497 509.30403 295.90498 509.05403L295.91 509.053Z" fill="#010202" fill-rule="evenodd"/>
</g>
<g clip-path="url(#clip_4)">
<path transform="matrix(.71745148,0,0,.71745148,.35872574,.35872574)" stroke-width="1" stroke-linecap="butt" stroke-miterlimit="10" stroke-linejoin="miter" fill="none" stroke="#000000" d="M129.12 21H239"/>
<path transform="matrix(.71745148,0,0,.71745148,.35872574,.35872574)" stroke-width="1" stroke-linecap="butt" stroke-miterlimit="10" stroke-linejoin="miter" fill="none" stroke="#000000" d="M122.12 21 129.12 17.5V24.5L122.12 21Z"/>
<path transform="matrix(.71745148,0,0,.71745148,.35872574,.35872574)" d="M1 1H121V41H1Z" fill="#ffffff"/>
<path transform="matrix(.71745148,0,0,.71745148,.35872574,.35872574)" stroke-width="1" stroke-linecap="butt" stroke-miterlimit="4" stroke-linejoin="miter" fill="none" stroke="#000000" d="M1 1H121V41H1Z"/>
<use data-text="H" xlink:href="#font_5_43" transform="matrix(10.761772,0,0,-10.761772,25.525578,19.37119)"/>
<use data-text="u" xlink:href="#font_5_88" transform="matrix(10.761772,0,0,-10.761772,33.295579,19.37119)"/>
<use data-text="m" xlink:href="#font_5_80" transform="matrix(10.761772,0,0,-10.761772,39.87102,19.37119)"/>
<use data-text="a" xlink:href="#font_5_68" transform="matrix(10.761772,0,0,-10.761772,49.438238,19.37119)"/>
<use data-text="n" xlink:href="#font_5_81" transform="matrix(10.761772,0,0,-10.761772,55.421785,19.37119)"/>
<path transform="matrix(.71745148,0,0,.71745148,.35872574,.35872574)" d="M239 1H359V41H239Z" fill="#ffffff"/>
<path transform="matrix(.71745148,0,0,.71745148,.35872574,.35872574)" stroke-width="1" stroke-linecap="butt" stroke-miterlimit="4" stroke-linejoin="miter" fill="none" stroke="#000000" d="M239 1H359V41H239Z"/>
<use data-text="D" xlink:href="#font_5_39" transform="matrix(10.761772,0,0,-10.761772,193.88005,19.37119)"/>
<use data-text="i" xlink:href="#font_5_76" transform="matrix(10.761772,0,0,-10.761772,201.65004,19.37119)"/>
<use data-text="r" xlink:href="#font_5_85" transform="matrix(10.761772,0,0,-10.761772,204.64182,19.37119)"/>
<use data-text="e" xlink:href="#font_5_72" transform="matrix(10.761772,0,0,-10.761772,208.82814,19.37119)"/>
<use data-text="c" xlink:href="#font_5_70" transform="matrix(10.761772,0,0,-10.761772,214.81168,19.37119)"/>
<use data-text="t" xlink:href="#font_5_87" transform="matrix(10.761772,0,0,-10.761772,220.79523,19.37119)"/>
<use data-text="o" xlink:href="#font_5_82" transform="matrix(10.761772,0,0,-10.761772,224.37889,19.37119)"/>
<use data-text="r" xlink:href="#font_5_85" transform="matrix(10.761772,0,0,-10.761772,230.95435,19.37119)"/>
<path transform="matrix(.71745148,0,0,.71745148,.35872574,.35872574)" stroke-width="1" stroke-linecap="butt" stroke-miterlimit="10" stroke-linejoin="miter" fill="none" stroke="#000000" d="M241 115.71H127.37"/>
<path transform="matrix(.71745148,0,0,.71745148,.35872574,.35872574)" d="M122.12 115.71 129.12 112.21 127.37 115.71 129.12 119.21 122.12 115.71Z"/>
<path transform="matrix(.71745148,0,0,.71745148,.35872574,.35872574)" stroke-width="1" stroke-linecap="butt" stroke-miterlimit="10" stroke-linejoin="miter" fill="none" stroke="#000000" d="M122.12 115.71 129.12 112.21 127.37 115.71 129.12 119.21 122.12 115.71Z"/>
<path transform="matrix(.71745148,0,0,.71745148,.35872574,.35872574)" stroke-width="1" stroke-linecap="butt" stroke-miterlimit="10" stroke-linejoin="miter" fill="none" stroke="#000000" d="M121 155.71H234.63"/>
<path transform="matrix(.71745148,0,0,.71745148,.35872574,.35872574)" d="M239.88 155.71 232.88 159.21 234.63 155.71 232.88 152.21 239.88 155.71Z"/>
<path transform="matrix(.71745148,0,0,.71745148,.35872574,.35872574)" stroke-width="1" stroke-linecap="butt" stroke-miterlimit="10" stroke-linejoin="miter" fill="none" stroke="#000000" d="M239.88 155.71 232.88 159.21 234.63 155.71 232.88 152.21 239.88 155.71Z"/>
<path transform="matrix(.71745148,0,0,.71745148,.35872574,.35872574)" d="M181 161C175.48 161 171 165.48 171 171 171 176.52 175.48 181 181 181 186.52 181 191 176.52 191 171 191 165.48 186.52 161 181 161ZM172.94 172.63V169.35H189.08V172.63H172.94Z" fill="#ff0000"/>
<path transform="matrix(.71745148,0,0,.71745148,0,0)" d="M191 101C190.99999 101.65661 190.93593 102.306919 190.80783 102.950908 190.67974 103.594898 190.49004 104.2202 190.23876 104.82683 189.98749 105.43346 189.67946 106.00975 189.31467 106.55571 188.94988 107.10166 188.53533 107.60678 188.07105 108.07107 187.60675 108.535358 187.10163 108.9499 186.55567 109.31469 186.00972 109.67948 185.43343 109.98751 184.8268 110.238788 184.22017 110.49006 183.59487 110.67975 182.95088 110.807849 182.3069 110.93594 181.6566 110.99999 181 111 180.34339 110.99999 179.69309 110.93594 179.04909 110.80784 178.40509 110.67975 177.77979 110.49006 177.17314 110.238788 176.56652 109.98751 175.99022 109.67948 175.44428 109.3147 174.89833 108.9499 174.3932 108.535358 173.92893 108.07107 173.46463 107.60678 173.05008 107.101657 172.68529 106.5557 172.3205 106.00975 172.01247 105.43346 171.7612 104.82683 171.50992 104.2202 171.32024 103.59489 171.19214 102.9509 171.06404 102.30691 171 101.65661 171 101 171 100.34338 171.06404 99.69308 171.19214 99.04909 171.32024 98.40509 171.50992 97.77978 171.7612 97.17315 172.01247 96.56652 172.3205 95.990238 172.68529 95.44428 173.05008 94.89833 173.46463 94.39321 173.92893 93.928928 174.3932 93.46463 174.89833 93.05009 175.44428 92.685298 175.99022 92.3205 176.56652 92.012477 177.17314 91.7612 177.77979 91.509929 178.40509 91.320247 179.04909 91.19215 179.69309 91.06405 180.34339 91 181 91 181.6566 91 182.3069 91.06405 182.95088 91.19215 183.59487 91.320247 184.22017 91.509929 184.8268 91.7612 185.43343 92.012477 186.00972 92.3205 186.55567 92.685298 187.10163 93.05009 187.60675 93.46463 188.07105 93.928928 188.53533 94.39321 188.94988 94.89833 189.31467 95.44428 189.67946 95.990238 189.98749 96.56653 190.23876 97.17316 190.49004 97.77978 190.67974 98.40509 190.80783 99.04909 190.93593 99.69308 190.99999 100.34338 191 101Z" fill="#0080f0"/>
<path transform="matrix(.71745148,0,0,.71745148,0,0)" stroke-width="1" stroke-linecap="butt" stroke-miterlimit="10" stroke-linejoin="miter" fill="none" stroke="#ffffff" d="M175 102 177 105 188 96"/>
<use data-text="a" xlink:href="#font_6_68" transform="matrix(10.761772,0,0,-10.761772,104.131359,101.878108)"/>
<use data-text="s" xlink:href="#font_6_86" transform="matrix(10.761772,0,0,-10.761772,110.11489,101.878108)"/>
<use data-text="s" xlink:href="#font_6_86" transform="matrix(10.761772,0,0,-10.761772,115.49578,101.878108)"/>
<use data-text="i" xlink:href="#font_6_76" transform="matrix(10.761772,0,0,-10.761772,120.87666,101.878108)"/>
<use data-text="g" xlink:href="#font_6_74" transform="matrix(10.761772,0,0,-10.761772,123.26578,101.878108)"/>
<use data-text="n" xlink:href="#font_6_81" transform="matrix(10.761772,0,0,-10.761772,129.24933,101.878108)"/>
<use data-text="m" xlink:href="#font_6_80" transform="matrix(10.761772,0,0,-10.761772,135.23287,101.878108)"/>
<use data-text="e" xlink:href="#font_6_72" transform="matrix(10.761772,0,0,-10.761772,144.19742,101.878108)"/>
<use data-text="n" xlink:href="#font_6_81" transform="matrix(10.761772,0,0,-10.761772,150.18096,101.878108)"/>
<use data-text="t" xlink:href="#font_6_87" transform="matrix(10.761772,0,0,-10.761772,156.1645,101.878108)"/>
</g>
</svg>
