<svg xmlns="http://www.w3.org/2000/svg" xmlns:xlink="http://www.w3.org/1999/xlink" xmlns:inkscape="http://www.inkscape.org/namespaces/inkscape" version="1.1" width="288.96" height="174.95999" viewBox="0 0 288.96 174.95999">
<defs>
<clipPath id="clip_1">
<path transform="matrix(.24,0,0,.24,0,0)" d="M0 0H1204.1666V729.0736H0Z" clip-rule="evenodd"/>
</clipPath>
<clipPath id="clip_2">
<path transform="matrix(.24,0,0,.24,0,0)" d="M44.8201 182.2684H361.5488V630.46939H44.8201Z" clip-rule="evenodd"/>
</clipPath>
<clipPath id="clip_3">
<path transform="matrix(.24,0,0,.24,0,0)" d="M0 0H1204.1666V723.0976H0Z" clip-rule="evenodd"/>
</clipPath>
<path id="font_4_39" d="M.072265628 .7158203H.33642579C.3959961 .7158203 .44140626 .711263 .47265626 .70214846 .51464846 .6897786 .55061849 .66780599 .5805664 .63623049 .61051437 .60465499 .6333008 .5659993 .6489258 .5202637 .6645508 .47452799 .6723633 .4181315 .6723633 .35107423 .6723633 .29215495 .66503909 .2413737 .6503906 .19873047 .632487 .14664714 .6069336 .10449219 .57373049 .072265628 .54866537 .047851564 .5148112 .028808594 .47216798 .015136719 .44026695 .0050455729 .3976237 0 .34423829 0H.072265628V.7158203M.21679688 .59472659V.12109375H.32470704C.36507163 .12109375 .39420573 .1233724 .41210938 .12792969 .43554688 .13377889 .45499674 .14369202 .47045899 .15766907 .48592124 .1716563 .49853517 .19466655 .5083008 .22669983 .5180664 .25873313 .5229492 .30238853 .5229492 .35766603 .5229492 .4129435 .5180664 .4553782 .5083008 .4849701 .49853517 .51456198 .48486329 .5376485 .46728517 .55422976 .44970704 .5708211 .42740885 .58204147 .40039063 .5878906 .38020835 .59244796 .34065757 .59472659 .28173829 .59472659H.21679688Z"/>
<path id="font_4_76" d="M.071777347 .5888672V.7158203H.20898438V.5888672H.071777347M.071777347 0V.5185547H.20898438V0H.071777347Z"/>
<path id="font_4_85" d="M.203125 0H.06591797V.5185547H.19335938V.44482423C.21516927 .47965495 .2347819 .5026042 .25219728 .5136719 .26961265 .52473959 .28938804 .53027346 .31152345 .53027346 .34277345 .53027346 .37288413 .52164718 .40185548 .50439456L.359375 .38476563C.33626304 .3997396 .31477867 .40722657 .29492188 .40722657 .27571617 .40722657 .2594401 .40193687 .24609375 .39135743 .23274739 .38077799 .22224935 .36165367 .21459961 .33398438 .20694988 .3063151 .203125 .24837239 .203125 .16015625V0Z"/>
<path id="font_4_72" d="M.3720703 .16503906 .50878909 .14160156C.49121095 .09163412 .4634603 .053588869 .4255371 .02746582 .38761393 .0013427734 .34016929-.01171875 .28320313-.01171875 .19303386-.01171875 .12630208 .017740885 .08300781 .076660159 .048828126 .12386068 .03173828 .18343099 .03173828 .2553711 .03173828 .3413086 .05419922 .40861003 .099121097 .4572754 .14404297 .50594076 .20084636 .53027346 .26953126 .53027346 .3466797 .53027346 .4075521 .50480148 .45214845 .45385743 .49674479 .40291343 .5180664 .32486979 .5161133 .21972656H.17236328C.17333985 .17903646 .18440755 .14737956 .2055664 .12475586 .22672527 .102132167 .25309245 .09082031 .28466798 .09082031 .30615235 .09082031 .32421876 .09667969 .3388672 .10839844 .35351563 .12011719 .36458335 .13899739 .3720703 .16503906M.3798828 .30371095C.37890626 .34326173 .36865235 .3733317 .3491211 .3939209 .32958985 .4145101 .3058268 .4248047 .27783204 .4248047 .24788411 .4248047 .22314453 .41394554 .20361328 .39222718 .18408203 .37049867 .17447917 .34099327 .17480469 .30371095H.3798828Z"/>
<path id="font_4_70" d="M.5239258 .36523438 .38867188 .3408203C.3841146 .36767579 .3737793 .38789878 .35766603 .40148927 .34155274 .41507975 .32063804 .421875 .29492188 .421875 .2607422 .421875 .23347982 .41011048 .21313477 .38658143 .19278972 .36305238 .18261719 .32370506 .18261719 .26853944 .18261719 .2071991 .19295247 .16386922 .21362305 .1385498 .23429363 .11324056 .26204429 .10058594 .296875 .10058594 .32291667 .10058594 .34423829 .10799154 .36083985 .122802738 .3774414 .13761394 .38916017 .16308594 .3959961 .19921875L.5307617 .17578125C.51676437 .11393229 .48990885 .067220058 .4501953 .03564453 .41048179 .0040690104 .35725913-.01171875 .29052735-.01171875 .21468099-.01171875 .1542155 .012207031 .10913086 .060058595 .06404623 .107910159 .041503908 .17415364 .041503908 .25878907 .041503908 .34440104 .0641276 .41105143 .109375 .45874024 .15462239 .506429 .21582031 .53027346 .29296876 .53027346 .35611979 .53027346 .4063314 .5166829 .44360353 .48950196 .48087565 .46232096 .5076497 .42089845 .5239258 .36523438Z"/>
<path id="font_4_87" d="M.3095703 .5185547V.4091797H.21582031V.200531C.21582031 .15827434 .2167155 .13365174 .21850586 .12666321 .22029622 .11968485 .22436524 .11391703 .23071289 .10935974 .23706055 .10481262 .24479167 .10253906 .25390626 .10253906 .26660157 .10253906 .2849935 .106933597 .30908204 .115722659L.32080079 .008880615C.28889976-.004852295 .25276695-.01171875 .21240235-.01171875 .18766277-.01171875 .16536458-.0075683596 .14550781 .0007324219 .12565105 .009033203 .111083988 .01977539 .10180664 .032958986 .0925293 .046142579 .08610026 .063964847 .08251953 .08642578 .079589847 .102376308 .078125 .13460286 .078125 .18310547V.4091797H.015136719V.5185547H.078125V.6220703L.21582031 .703125V.5185547H.3095703Z"/>
<path id="font_4_82" d="M.040039064 .26660157C.040039064 .31217448 .05126953 .35628257 .07373047 .39892579 .096191409 .441569 .12801107 .4741211 .16918946 .49658204 .21036785 .51904299 .25634767 .53027346 .3071289 .53027346 .38557945 .53027346 .44986979 .50480148 .5 .45385743 .5501302 .40291343 .5751953 .33854167 .5751953 .2607422 .5751953 .18229167 .54988607 .11726888 .49926759 .06567383 .44864909 .014078776 .38492839-.01171875 .30810548-.01171875 .26057945-.01171875 .21525066-.0009765625 .17211914 .020507813 .12898763 .041992189 .096191409 .07348633 .07373047 .114990238 .05126953 .15649414 .040039064 .20703125 .040039064 .26660157M.18066406 .25927735C.18066406 .20800781 .1928711 .16874187 .21728516 .14147949 .24169922 .114217128 .2718099 .10058594 .3076172 .10058594 .34342448 .10058594 .37345378 .114217128 .39770509 .14147949 .4219564 .16874187 .43408204 .20833333 .43408204 .2602539 .43408204 .3108724 .4219564 .34981285 .39770509 .3770752 .37345378 .40433757 .34342448 .41796876 .3076172 .41796876 .2718099 .41796876 .24169922 .40433757 .21728516 .3770752 .1928711 .34981285 .18066406 .31054688 .18066406 .25927735Z"/>
<path id="font_4_13" d="M.119628909 .38671876 .045898439 .44384767C.06933594 .47009278 .09375 .49520875 .119140628 .51919558 .12923177 .52891036 .13557942 .5350647 .1381836 .5376587 .13004558 .53898116 .106770839 .5444234 .068359378 .5539856 .040690107 .5609233 .022460938 .56604006 .013671875 .56933596L.04248047 .65527346C.085123699 .63792929 .12320963 .6187846 .15673828 .59783938 .14892578 .6512248 .14501953 .6947835 .14501953 .7285156H.2319336C.2319336 .70460006 .22753906 .66081747 .21875 .59716799 .22526042 .59977218 .23925781 .6061198 .2607422 .61621096 .29003907 .6295573 .31705729 .6409505 .34179688 .6503906L.36767579 .56152346C.33154298 .55340579 .28971354 .54545089 .2421875 .5376587L.30078126 .47235108C.3125 .4591268 .32177735 .44832359 .32861329 .4399414L.25390626 .390625 .18798828 .498703C.16813152 .46364848 .14534505 .4263204 .119628909 .38671876Z"/>
<path id="font_4_3" d="M0 0Z"/>
<path id="font_4_83" d="M.067871097 .5185547H.19580078V.4423828C.21240235 .46842448 .23486328 .48958335 .2631836 .5058594 .2915039 .52213546 .32291667 .53027346 .35742188 .53027346 .41764323 .53027346 .46875 .50667318 .5107422 .45947267 .5527344 .41227214 .57373049 .34651695 .57373049 .26220704 .57373049 .17561849 .5525716 .108317058 .5102539 .060302736 .4679362 .012288411 .41666667-.01171875 .3564453-.01171875 .32779948-.01171875 .3018392-.0060221354 .27856446 .0053710939 .2552897 .016764323 .23079427 .036295576 .20507813 .063964847V-.19726563H.067871097V.5185547M.20361328 .2682953C.20361328 .2101186 .21516927 .1671346 .23828125 .13934326 .26139323 .11155192 .28955079 .09765625 .3227539 .09765625 .35465495 .09765625 .3811849 .1104126 .40234376 .1359253 .4235026 .16143799 .43408204 .20328777 .43408204 .2614746 .43408204 .31575523 .4231771 .35605876 .4013672 .38238526 .37955729 .40871177 .35253907 .421875 .3203125 .421875 .28678385 .421875 .2589518 .4089559 .2368164 .38311769 .21468099 .35727946 .20361328 .31900535 .20361328 .2682953Z"/>
<path id="font_5_82" d="M.033203126 .25927735C.033203126 .355306 .059895833 .42643229 .11328125 .47265626 .15787761 .5110677 .21223958 .53027346 .2763672 .53027346 .34765626 .53027346 .40592448 .5069173 .45117188 .46020509 .49641929 .41349284 .51904299 .34895835 .51904299 .26660157 .51904299 .1998698 .5090332 .14737956 .48901368 .10913086 .46899415 .070882167 .43986003 .041178388 .40161134 .020019532 .36336265-.0011393229 .3216146-.01171875 .2763672-.01171875 .20377605-.01171875 .1451009 .011555989 .1003418 .05810547 .055582685 .104654949 .033203126 .17171224 .033203126 .25927735M.123535159 .25952149C.123535159 .19335938 .13802083 .14381917 .16699219 .11090088 .19596355 .07798258 .23242188 .061523439 .2763672 .061523439 .31998698 .061523439 .35628257 .078063968 .3852539 .11114502 .41422526 .14422608 .42871095 .19465637 .42871095 .2624359 .42871095 .32632957 .4141439 .3747355 .38500978 .4076538 .35587565 .4405721 .31966148 .45703126 .2763672 .45703126 .23242188 .45703126 .19596355 .44065348 .16699219 .40789796 .13802083 .37514244 .123535159 .3256836 .123535159 .25952149Z"/>
<path id="font_5_69" d="M.14697266 0H.06542969V.7158203H.15332031V.45950318C.19042969 .50668337 .23779297 .53027346 .29541017 .53027346 .3273112 .53027346 .35750328 .5238444 .38598634 .5109863 .4144694 .49812828 .4379069 .48006187 .45629884 .4567871 .47469078 .43351237 .48909507 .4054362 .49951173 .3725586 .5099284 .339681 .5151367 .30452476 .5151367 .26708985 .5151367 .17822266 .49316407 .10953776 .44921876 .061035158 .40527345 .012532552 .35253907-.01171875 .29101563-.01171875 .2298177-.01171875 .18180339 .014160156 .14697266 .06591797V0M.1459961 .26316834C.1459961 .20129903 .15445964 .15659587 .17138672 .12905884 .19905599 .08403524 .23649089 .061523439 .2836914 .061523439 .32210288 .061523439 .355306 .078125 .38330079 .111328128 .41129557 .14453125 .42529298 .19401042 .42529298 .25976563 .42529298 .32713828 .41186524 .37685649 .38500978 .4089203 .3581543 .44099427 .3256836 .45703126 .28759767 .45703126 .2491862 .45703126 .21598308 .4404297 .18798828 .40722657 .15999349 .37402345 .1459961 .32600404 .1459961 .26316834Z"/>
<path id="font_5_77" d="M.06542969 .61328127V.7158203H.15332031V.61328127H.06542969M-.045898439-.20166016-.029296875-.12695313C-.01171875-.13151042 .0021158856-.13378906 .012207031-.13378906 .030110678-.13378906 .04345703-.12784322 .052246095-.11595154 .061035158-.10405985 .06542969-.07433573 .06542969-.026779175V.5185547H.15332031V-.028686524C.15332031-.0925293 .14501953-.13699341 .12841797-.16207886 .10725912-.19465129 .07210287-.2109375 .022949219-.2109375-.00081380209-.2109375-.023763022-.20784505-.045898439-.20166016Z"/>
<path id="font_5_72" d="M.42089845 .16699219 .51171877 .15576172C.49739585 .10270182 .47086589 .061523439 .4321289 .032226564 .39339195 .0029296876 .34391276-.01171875 .2836914-.01171875 .20784505-.01171875 .14770508 .01163737 .103271488 .05834961 .05883789 .10506185 .036621095 .17057292 .036621095 .2548828 .036621095 .3421224 .05908203 .40983073 .104003909 .4580078 .14892578 .5061849 .20719402 .53027346 .2788086 .53027346 .34814454 .53027346 .40478517 .5067088 .44873048 .45957948 .49267579 .41246034 .51464846 .34616599 .51464846 .2606964 .51464846 .25549827 .51448568 .247701 .51416018 .23730469H.1274414C.13069661 .1805013 .14680989 .13700359 .17578125 .10681152 .20475261 .07661947 .24088542 .061523439 .2841797 .061523439 .31640626 .061523439 .34391276 .0699056 .36669923 .08666992 .3894857 .10344442 .4075521 .1302185 .42089845 .16699219M.13232422 .31054688H.421875C.41796876 .3534546 .40690104 .38563539 .38867188 .40708924 .3606771 .4403839 .3243815 .45703126 .27978517 .45703126 .23942058 .45703126 .20548503 .44374085 .17797852 .41716004 .150472 .3905894 .1352539 .35505168 .13232422 .31054688Z"/>
<path id="font_5_70" d="M.40429688 .19042969 .49072267 .17919922C.48128257 .11947632 .45711265 .07272339 .4182129 .03894043 .37931315 .005167643 .33154298-.01171875 .27490235-.01171875 .2039388-.01171875 .14689128 .011474609 .103759769 .057861329 .060628255 .10424805 .0390625 .17073567 .0390625 .25732423 .0390625 .3133138 .048339845 .3623047 .06689453 .40429688 .08544922 .44628907 .11368815 .4777832 .15161133 .4987793 .1895345 .5197754 .23079427 .53027346 .27539063 .53027346 .33170573 .53027346 .37776695 .51598617 .41357423 .4874115 .4493815 .45884706 .47233073 .4182841 .48242188 .36572267L.39697267 .35253907C.38883464 .38720704 .37443034 .4132894 .35375978 .43078614 .3330892 .44828288 .30810548 .45703126 .2788086 .45703126 .23453777 .45703126 .1985677 .4412384 .17089844 .4096527 .14322917 .37807719 .12939453 .32811485 .12939453 .25976563 .12939453 .19043987 .14274089 .1400655 .1694336 .10864258 .1961263 .07722982 .23095703 .061523439 .27392579 .061523439 .308431 .061523439 .3372396 .07206217 .36035157 .09313965 .38346354 .114217128 .39811198 .14664714 .40429688 .19042969Z"/>
<path id="font_5_87" d="M.2578125 .07763672 .2705078 0C.24576824-.0045572917 .22363281-.0068359377 .20410156-.0068359377 .17220052-.0068359377 .14746094-.0017903646 .12988281 .008300781 .11230469 .018391928 .0999349 .031656904 .09277344 .048095704 .08561198 .06453451 .08203125 .099121097 .08203125 .15185547V.4501953H.017578125V.5185547H.08203125V.6473236L.1694336 .7001953V.5185547H.2578125V.4501953H.1694336V.14697266C.1694336 .121907558 .17097982 .10579427 .17407227 .09863281 .17716472 .09147135 .18221028 .08577474 .18920899 .08154297 .19620769 .077311199 .20621746 .07519531 .21923828 .07519531 .2290039 .07519531 .24186199 .07600912 .2578125 .07763672Z"/>
<path id="font_5_3" d="M0 0Z"/>
<path id="font_5_83" d="M.06591797-.19921875V.5185547H.1459961V.45166017C.1648763 .4778646 .18619792 .4975179 .20996094 .5106201 .23372396 .52372238 .26253257 .53027346 .29638673 .53027346 .34065757 .53027346 .37972007 .5188802 .41357423 .49609376 .44742839 .47330729 .47298179 .4411621 .49023438 .3996582 .507487 .3581543 .5161133 .31266276 .5161133 .2631836 .5161133 .2101237 .5065918 .16235352 .48754884 .11987305 .46850587 .07739258 .44083659 .044840497 .40454103 .022216797 .36824546-.00040690104 .33007813-.01171875 .29003907-.01171875 .2607422-.01171875 .23445638-.005452474 .21118164 .007080078 .1879069 .019622803 .16878255 .035461427 .1538086 .054595949V-.19921875H.06591797M.14550781 .25708009C.14550781 .19042969 .15901692 .14117432 .18603516 .109313968 .21305339 .07745361 .24576824 .061523439 .2841797 .061523439 .3232422 .061523439 .35668946 .07802328 .38452149 .11102295 .41235353 .14402263 .42626954 .19514974 .42626954 .2644043 .42626954 .33040367 .41267906 .37982179 .38549806 .4126587 .35831706 .4454956 .32584635 .46191407 .28808595 .46191407 .25065104 .46191407 .2175293 .44443766 .1887207 .40948487 .15991211 .37453208 .14550781 .32373048 .14550781 .25708009Z"/>
<path id="font_5_76" d="M.06640625 .6142578V.7158203H.15429688V.6142578H.06640625M.06640625 0V.5185547H.15429688V0H.06640625Z"/>
<path id="font_5_81" d="M.06591797 0V.5185547H.14501953V.4453125C.18310547 .5019531 .23811849 .53027346 .3100586 .53027346 .3413086 .53027346 .3700358 .5246582 .39624024 .51342776 .42244468 .50219729 .44205729 .48746745 .45507813 .46923829 .46809898 .45100913 .47721354 .42936198 .48242188 .40429688 .4856771 .38802085 .4873047 .35953776 .4873047 .31884767V0H.39941407V.31576539C.39941407 .35161338 .3959961 .37841798 .38916017 .3961792 .38232423 .41394044 .37019859 .42811585 .3527832 .43870545 .33536784 .44929505 .3149414 .45458985 .2915039 .45458985 .254069 .45458985 .22176107 .44269309 .19458008 .41889955 .1673991 .39511619 .1538086 .34998576 .1538086 .2835083V0H.06591797Z"/>
<path id="font_5_85" d="M.064941409 0V.5185547H.14404297V.4404297C.16422527 .4770101 .18286133 .50112918 .19995117 .51278689 .21704102 .5244446 .23583985 .53027346 .25634767 .53027346 .28597007 .53027346 .31608073 .520874 .3466797 .5020752L.31640626 .42089845C.29492188 .43359376 .2734375 .4399414 .25195313 .4399414 .23274739 .4399414 .2154948 .43415324 .20019531 .4225769 .18489583 .41101075 .17399089 .3949636 .16748047 .37443543 .15771485 .3431549 .15283203 .3089396 .15283203 .27178956V0H.064941409Z"/>
</defs>
<g clip-path="url(#clip_1)">
<path transform="matrix(.71712157,0,0,.71712157,0,0)" d="M0 0H403V244H0Z" fill="#ffffff"/>
</g>
<g clip-path="url(#clip_2)">
<path transform="matrix(.12769602,0,0,.12769602,10.756824,43.77553)" d="M328.22 95.273C327.086 104.333 323.57 112.828 323.252 123.559009 330.63203 128.10501 336.02104 135.76902 343.12803 140.395 348.752 144.059 366.05204 149.542 372.94004 151.87401 381.98204 154.89601 398.24903 155.54001 402.76704 162.55402 404.07304 164.66101 403.39204 166.43302 404.40904 168.71102 410.22703 181.45201 414.53504 198.83002 418.489 213.05802 419.053 218.41002 419.618 223.76502 420.17604 229.1 426.04405 251.391 427.71604 277.103 433.39704 300.989 435.99403 311.889 433.43904 324.08103 435.87803 334.621 437.941 343.328 435.24403 354.475 435.07304 362.199 434.52204 386.081 434.08204 406.97 434.21305 429.49403 431.02604 430.574 429.79606 430.2 429.26905 434.05604 431.50605 436.97203 436.01905 457.90904 433.39704 464.68205 432.63804 466.67906 429.48204 467.57206 428.44004 469.24504 422.57203 478.532 413.52503 491.86705 399.46705 492.94804 399.82704 487.63505 402.42704 485.80305 403.61705 481.48704 405.51805 474.25904 403.07905 463.90205 401.08805 459.28605 400.27806 459.05506 399.46705 458.82005 398.61106 458.53807V459.28605C393.82307 467.01106 398.97206 478.11604 387.04005 479.18104 386.85606 469.15705 387.57905 450.17405 390.32804 441.72105 391.46003 438.24504 393.73103 435.01304 394.48005 431.03404H392.83406C391.29505 430.07905 388.11607 430.2 385.36506 430.24104 383.22407 433.05403 382.73005 435.46903 382.85707 440.96604 373.88307 451.45103 375.91105 481.68205 377.08607 500.61204 377.33607 504.42704 380.02406 508.46604 378.75608 512.86209 378.0771 515.08908 375.23509 517.72109 374.60508 519.72006 374.87507 528.403 375.13807 537.04507 375.44209 545.75308 375.48609 550.9891 379.16209 555.4891 377.08708 561.05307 376.63508 562.2 374.29008 563.15707 373.76307 564.067 372.21806 566.883 373.40309 571.05307 372.94007 573.24307 371.30506 581.16006 376.54508 585.82406 373.76307 593.92306 368.16807 610.31106 364.09306 628.26309 358.04109 645.142 356.64707 648.978 353.3961 652.892 352.23008 656.64907 348.59208 668.31607 355.11408 680.56509 351.4131 691.06307 348.8841 698.26608 342.4751 698.39407 342.3021 708.64108 353.53309 722.4811 339.1861 749.517 334.0441 760.64108 331.2171 766.598 331.5151 771.223 322.4161 771.35708 320.1441 769.7651 316.5281 769.7651 312.4731 769.81008 310.78114 772.89608 309.21913 778.0541 308.32313 779.7281 307.50914 780.26309 306.6881 780.8051 305.8611 781.3501 304.6671 784.4731 308.5451 791.3881 306.6881 795.8111 306.3071 796.7271 303.71513 798.5191 303.37913 799.6411 303.6701 800.9281 303.89613 802.2241 304.17213 803.4721 304.0321 804.39016 302.85914 806.6811 302.5681 808.0541 291.64613 814.3081 253.13712 821.05709 252.00511 802.7311 254.8751 800.1391 254.93912 797.0591 256.99513 793.5171 261.6231 785.5201 265.63414 784.5941 262.7871 772.8961 263.0681 768.3081 263.3601 763.7201 263.6041 759.14517 262.0471 754.6021 257.2381 752.56118 256.1551 746.88619 257.4831 745.85519 257.10609 746.38919 257.8281 744.55819 249.03009 738.88619 252.29709 727.8132 248.7101 717.0622 245.2841 706.7262 244.8741 692.6872 242.0751 681.1002 241.8101 675.01626 241.53911 668.85226 241.24211 662.7682 238.82712 652.8922 239.5731 640.2722 237.11812 629.8542 236.84113 624.2652 236.55413 618.6402 236.30512 613.0172 232.92111 602.3452 228.50012 594.8242 225.51313 582.4442 225.24912 571.2222 224.97812 560.00827 224.68413 548.8212 224.97713 547.4682 226.22614 543.69827 225.51313 541.15628 221.55013 526.61727 219.11612 506.51625 214.76012 491.45027 212.15612 482.49028 214.91812 470.68428 212.25212 461.59626 209.86212 453.30125 206.14212 446.15727 202.32712 439.45027 199.71112 434.78926 199.30312 427.20726 192.40012 426.41227 189.67111 427.93028 183.33011 425.95127 179.13411 425.68528 179.1831 396.48829 168.57611 376.01429 162.57212 351.46827 162.01212 341.28526 161.44512 331.06028 160.9031 320.89427 157.38611 305.89027 160.54212 292.03727 164.24611 278.06025 168.84111 260.59626 169.4311 242.81324 174.1441 226.05825 174.71811 221.43724 175.2541 216.89124 175.81711 212.29024 179.5431 199.22524 184.07411 177.89023 191.58712 167.93224 198.26612 159.01924 215.04611 159.12523 226.3321 154.14424 233.51111 150.99724 242.36711 148.80825 249.52211 144.99625 255.5971 141.74925 262.36613 132.06424 267.77513 127.37125 267.9331 113.14224 264.3251 104.95125 263.60414 92.97725H256.99415C256.17716 91.63025 255.95815 91.68425 255.32114 89.91925 251.37914 85.35225 252.95014 74.62525 254.48815 69.27125 258.19017 68.25425 259.81517 69.14425 260.28315 64.67025 257.42616 60.58025 259.81416 48.83525 261.14314 45.56525 266.17015 32.98225 279.01313 22.03825 295.91014 21.08725 316.98213 19.90325 332.91514 34.36025 336.51713 50.147249 335.66813 56.772249 334.8481 63.41625 334.04313 70.082248 339.1621 71.625247 341.55213 72.816249 342.30113 78.47925 337.47114 85.261249 340.71113 95.344249 328.1711 95.28425L328.22 95.273ZM374.6 265.813C363.778 288.24699 372.673 335.352 377.896 356.84999V366.78898C380.221 376.39299 380.962 386.47599 384.525 394.31697 385.36 394.60197 386.197 394.83396 387.034 395.07496V394.31697C387.693 393.41596 387.642 393.02098 387.839 391.28895 384.32099 385.77296 388.719 374.53895 387.034 367.53996 386.267 364.48097 385.335 358.69197 384.525 355.28895V333.16395C381.409 319.87495 381.813 304.83195 378.75199 291.85395 376.852 283.91496 380.78 272.08094 376.26799 266.58396 375.39799 265.97398 376.00798 266.27397 374.58799 265.81398L374.6 265.813ZM219.70001 274.203C217.85102 279.437 218.97801 285.451 217.24202 291.079 216.40502 293.682 213.71703 297.579 213.11202 300.225 211.89002 305.415 216.56702 311.1 214.76001 317.848 212.61402 325.724 209.548 344.556 213.11202 354.556H214.76001V353.012C219.382 346.66 219.15901 336.61799 221.369 327.768 225.658 310.644 230.125 304.352 223.85 285.709 222.449 281.471 223.76001 277.90803 221.369 275.03303 220.529 274.393 221.139 274.713 219.699 274.19303L219.70001 274.203ZM295.91 509.053C294.826 510.491 294.826 509.673 294.268 512.098 286.883 522.218 297.04103 537.80307 294.268 548.82 290.39903 564.067 294.713 577.76406 298.396 592.405 298.125 598.48806 297.848 604.645 297.577 610.76608 300.668 624.77108 298.251 645.23306 301.738 661.22708H304.172C312.068 648.52206 307.961 620.43606 312.473 604.645 313.00599 602.776 315.08399 585.802 314.97 585.492 314.641 584.722 312.021 584.488 311.658 584.012 310.349 582.017 312.043 578.76 310.82499 577.07907 309.65299 575.44509 306.425 575.46707 305.02598 574.051 302.68098 571.655 300.05799 563.297 299.24397 560.242 296.80598 551.469 305.11598 545.554 306.68696 540.367 307.68797 537.1 299.52098 514.408 298.39497 509.80403 297.57496 509.53404 296.73497 509.30403 295.90498 509.05403L295.91 509.053Z" fill="#010202" fill-rule="evenodd"/>
</g>
<g clip-path="url(#clip_3)">
<path transform="matrix(.71712157,0,0,.71712157,.35856078,.35856078)" d="M1 1H121V41H1Z" fill="#ffffff"/>
<path transform="matrix(.71712157,0,0,.71712157,.35856078,.35856078)" stroke-width="1" stroke-linecap="butt" stroke-miterlimit="4" stroke-linejoin="miter" fill="none" stroke="#000000" d="M1 1H121V41H1Z"/>
<use data-text="D" xlink:href="#font_4_39" transform="matrix(10.756824,0,0,-10.756824,23.115965,19.362282)"/>
<use data-text="i" xlink:href="#font_4_76" transform="matrix(10.756824,0,0,-10.756824,30.882393,19.362282)"/>
<use data-text="r" xlink:href="#font_4_85" transform="matrix(10.756824,0,0,-10.756824,33.87279,19.362282)"/>
<use data-text="e" xlink:href="#font_4_72" transform="matrix(10.756824,0,0,-10.756824,38.057195,19.362282)"/>
<use data-text="c" xlink:href="#font_4_70" transform="matrix(10.756824,0,0,-10.756824,44.037988,19.362282)"/>
<use data-text="t" xlink:href="#font_4_87" transform="matrix(10.756824,0,0,-10.756824,50.018785,19.362282)"/>
<use data-text="o" xlink:href="#font_4_82" transform="matrix(10.756824,0,0,-10.756824,53.600809,19.362282)"/>
<use data-text="r" xlink:href="#font_4_85" transform="matrix(10.756824,0,0,-10.756824,60.17323,19.362282)"/>
<path transform="matrix(.71712157,0,0,.71712157,.35856078,.35856078)" stroke-width="1" stroke-linecap="round" stroke-linejoin="round" fill="none" stroke="#dae8fc" d="M281.26 .7V.7C281.26 .7 281.26 .7 281.26 .7M281.26 .7V.7C281.26 .7 281.26 .7 281.26 .7M280.37 6.35C281.69 6.36 284.07 4.4700005 285.69 1.75M280.75 7.04C283.37 4.62 284.66 2.58 286.41 .75M282 12.25C282.47 12.26 286.38 7.01 290.81 1.9100001M281.06 13.89C285.46 8.7 289.3 3.66 291.12 .45000003M282.84 18.26C283.45 15.49 285.9 12.79 296.89 .25M280.63 19.78C285.05 14.22 289.36 11.34 296.95 .86M282.72 25.81C289.23 16.64 294.88 9.7 302.36-1.32M281.81 25.18C285.91 20.14 292.17 13.89 302.95 .120000008M279.56 31.44C288.79 22.11 294.8 14.92 305.73 1.97M281.91 30.68C290.82 19.14 301.65 7.79 308.41 .97M281.58 36.44C288.4 27.08 301.31 17.61 311.72 1.9300001M281.99 38.3C287.88 29.62 295.9 20.05 312.24 1.88M282.83 41.36C288.78 32.43 298.26 24.94 316.52-.51M282.64 41.5C293.44 29.97 304.5 18.04 317.62 1M288.64 43.81C297.54 30.52 310.49 16.66 323.32 .5M286.76 41.18C296.66 30.5 307.21 18.95 323.81 1.14M291.27 43.43C301.96 34.56 309.99 25.37 330.25 2.01M293.56 41.68C302.75 30.92 314.05 18.12 329.53 .23M296.38 44C308.13 28.66 321.43 14.84 334.67-.1M298.37 41.2C308.94 30.88 317.99 18.79 333.48 2.03M303.32 41.62C309.53 33.77 317.41 25.68 337.75 2.38M303.26 42.99C311.43 32.83 320.62 22.23 340.39 1.87M309.81 42.25C319.06 27.36 334.04 15.43 344.75 1.5799999M309.08 41.15C317.31 32.15 327.11 21.4 343.55 1.35M312.11 41.25C328.72 26.06 342.08 10.61 349.68-.90000006M313.97 43.29C323.26 31.82 332.08 20.7 350.81 .050000006M317.73 40.96C329.32 31.67 339.52 21.94 355.43 1.61M319.41 42.24C332.48 26.35 347 12.95 355.15 .3M325.61 42.28C338.22 26.83 351.57 10.85 362.55 2.34M324.76 42.84C332.17 35.09 338.61 26.16 360.68 .83000007M330.79 42.17C339.32 28.9 349.49 19.64 365.38 .73M329.23 41.58C341.65 28.75 354.08 14.05 365.23 1.54M336.62 41.31C344.12 33.06 349.87 23.83 372.74-.080000009M334.51 41.37C346.76 28.91 360.51 14.44 372.27 1.1800001M339.45 41.57C350.2 31.6 354.55 22.99 376.13 2.3600002M340.72 41.22C347.85 33.42 355.96 24.64 375.58 2.12M344.81 41.63C357.27 32.02 366.3 18.31 382.44-.67M344.97 42.99C357.79 29.26 370.04 14.9 381.15 .010000001M352.07 42.51C362.08 28.56 374.37 18.06 386.07 2.54M351.39 41.1C365.34 27.62 377.38 12.43 387.81 .54M354.67 43.16C370.29 28.19 380.93 14.98 393.69 1.6800001M355.67 41.25C366.69 31.35 375.57 22.25 393.21 1.13M360.79 42C367.1 33.92 375.76 24.41 396.4-.020000002M363.07 42.11C375.27 26.23 388.83 10.14 398.37 1.69M365.54 40.5C379.24 29.92 390.17 12.24 401.08 1.28M366.99 42.11C378.24 30.62 389.01 18.52 402.38 1.79M371.65 40.71C381.93 32.87 385.81 25.51 403.28 8.85M372.95 41.06C381.82 32.06 389.02 22.92 401.62 8.690001M377.62 40.87C383.35 36.21 391.11 30.19 400.47 13.64M377.15 42.97C387.6 31.38 396.48 21.19 402.35 13.72M381.83 41.71C388.33 35.63 399.04 25.72 400.94 21.66M381.85 42.44C389.31 33.82 396.49 26.87 401.97 20.79M389.94 42.2C392.64 38.03 396.94 29.1 402.61 26.29M389.17 41.64C392.47 38.49 395.69 34.08 401.18 26.92M392.71 41.82C395.36 37.9 398.71 36.19 402.64 32.59M393.72 42.4C396.2 39.06 397.77 37.18 402.14 33.29M398.83 42.32C400.15 40.69 401.36 38.75 401.94 38.48M399.22 41.9C400.22 40.5 401.51 39.27 402.22 38.46"/>
<path transform="matrix(.71712157,0,0,.71712157,.35856078,.35856078)" stroke-width="1" stroke-linecap="round" stroke-linejoin="round" fill="none" stroke="#6c8ebf" d="M282.6 .17000002C328.35 .26 377.16-1.62 401.59 1.07M281.11 1.75C310.43 .63 338.93 .78999999 400.92 1.12M402.62-.48000003C400.26 12.55 401.4 21.13 401.89 42.64M401.31 .27C401.2 15.15 399.82 30 400.76 40.78M399.02 41.26C372.68 41.59 345.79 42.22 281.31 39.95M400.19 41.64C356.81 41.13 313.34 41.43 280.91 41.46M279.7 39.6C279.94 29.39 280.52 14.49 279.72 1.61M280.33 41.99C280.26 31.44 280.11 20.22 281.62 .71999999"/>
<use data-text="D" xlink:href="#font_4_39" transform="matrix(10.756824,0,0,-10.756824,217.04132,19.362282)"/>
<use data-text="i" xlink:href="#font_4_76" transform="matrix(10.756824,0,0,-10.756824,224.80774,19.362282)"/>
<use data-text="r" xlink:href="#font_4_85" transform="matrix(10.756824,0,0,-10.756824,227.79814,19.362282)"/>
<use data-text="e" xlink:href="#font_4_72" transform="matrix(10.756824,0,0,-10.756824,231.98255,19.362282)"/>
<use data-text="c" xlink:href="#font_4_70" transform="matrix(10.756824,0,0,-10.756824,237.96334,19.362282)"/>
<use data-text="t" xlink:href="#font_4_87" transform="matrix(10.756824,0,0,-10.756824,243.94412,19.362282)"/>
<use data-text="o" xlink:href="#font_4_82" transform="matrix(10.756824,0,0,-10.756824,247.52614,19.362282)"/>
<use data-text="r" xlink:href="#font_4_85" transform="matrix(10.756824,0,0,-10.756824,254.09856,19.362282)"/>
<use data-text="*" xlink:href="#font_4_13" transform="matrix(10.756824,0,0,-10.756824,258.28297,19.362282)"/>
<use data-text=" " xlink:href="#font_4_3" transform="matrix(10.756824,0,0,-10.756824,262.46736,19.362282)"/>
<use data-text="p" xlink:href="#font_4_83" transform="matrix(10.756824,0,0,-10.756824,265.45777,19.362282)"/>
<path transform="matrix(.71712157,0,0,.71712157,.35856078,.35856078)" stroke-width="1" stroke-linecap="butt" stroke-miterlimit="10" stroke-linejoin="miter" fill="none" stroke="#000000" d="M321 136H127.37"/>
<path transform="matrix(.71712157,0,0,.71712157,.35856078,.35856078)" d="M122.12 136 129.12 132.5 127.37 136 129.12 139.5 122.12 136Z"/>
<path transform="matrix(.71712157,0,0,.71712157,.35856078,.35856078)" stroke-width="1" stroke-linecap="butt" stroke-miterlimit="10" stroke-linejoin="miter" fill="none" stroke="#000000" d="M122.12 136 129.12 132.5 127.37 136 129.12 139.5 122.12 136Z"/>
<path transform="matrix(.71712157,0,0,.71712157,.35856078,.35856078)" stroke-width="1" stroke-linecap="round" stroke-linejoin="round" fill="none" stroke="#dae8fc" d="M320.97 116.04V116.04C320.97 116.04 320.97 116.04 320.97 116.04M320.97 116.04V116.04C320.97 116.04 320.97 116.04 320.97 116.04M321.02 122.65C323.69 119.61 325.81 117.82 326.97 116.12M320.59 122.52C322.09 120.63 323.65 119.81 326.25 115.68M319.6 127.22C322.62 125.64 325.58 121.38 333.03 116.11M321.31 128.48C323.93 124.85 326.7 120.42 331.89 115.93M322.1 132.5C328.33 128.51 330.61 121.52 337.48 115.69M320.77 133.72C326.7 127.93 332.14 121.02 336.33 116.91M321.68 139.58C330.04 131.64 336.87 124.2 341.57 114.78M322.19 139.47C326.54 132.63 333.16 127.38 342.89 116.14M319.94 144.88C328.21 140.36 331.63 131.16 346.28 116.76M320.11 146.5C329.53 136.89 337.15 126.43 347.35 115.34M319.55 154.4C327.49 144.97 337.24 133.01 353.35 117.86M321.67 152.35C327.76 144.76 334.32 136.57 352.88 116.23M320.93 158.58C334.98 140.63 350.93 126.06 358.06 115.52M323.15 157C333.66 143.55 346.13 129.95 357.98 115.4M326.07 156.75C336.04 147.18 345.86 135.45 362.98 118.04M327.17 158.05C333.27 149.54 340.71 140.56 361.55 116.65M332.99 155.2C344.9 146.05 355.07 132.34 363.13 124.22M332.45 157.36C339.71 148.77 345.85 143.22 363.4 123.19M338.71 159.37C342.08 149.94 346.98 146.94 361.53 130.16M338.25 157.9C344.65 149.96 351.13 140.54 363.26 129.12M342.37 158.59C349.26 151.51 354.21 145.94 361.8 134.2M342.79 157.07C350.95 149.93 357.17 141.4 362.66 134.95M349.67 158.39C351.8 152.61 356.57 148.92 360.5 140.06M349.12 157.67C352.34 152.24 355.7 148.96 362.74 141.41M355.26 156.78C355.9 155.29 358.73 151.21 362.64 148.8M353.81 156.8C356.94 153.86 359.25 150.88 361.69 148.31M359.08 156.98C360.79 155.81 361.53 154.25 362.32 153.84M359.28 157.06C360.74 155.82 361.66 154.38 362.64 153.54"/>
<path transform="matrix(.71712157,0,0,.71712157,.35856078,.35856078)" stroke-width="1" stroke-linecap="round" stroke-linejoin="round" fill="none" stroke="#6c8ebf" d="M321.46 114.14C338.63 115.52 351.79 114.74 362.8 114.46M321.46 116.01C331.64 116.11 341.56 115.69 361.34 115.87M362.15 114.77C359.58 127.48 361.41 137.89 361.28 154.77M360.6 115.47C360.97 125.02 360.61 135.5 360.16 155.14M362.07 154.04C349.37 154.79 341.43 154.87 321.15 156.55M360.24 155.49C348.02 155.09 333.73 155.12 320.85 155.5M320.98 156.32C319.31 141.39 322.16 124.72 322.31 117.4M321.55 156.99C320.64 148.23 320.99 138.22 321.06 115.71"/>
<use data-text="p" xlink:href="#font_4_83" transform="matrix(10.756824,0,0,-10.756824,241.24417,101.83126)"/>
<use data-text="o" xlink:href="#font_5_82" transform="matrix(10.039701,0,0,-10.039701,35.732824,169.95781)"/>
<use data-text="b" xlink:href="#font_5_69" transform="matrix(10.039701,0,0,-10.039701,41.314897,169.95781)"/>
<use data-text="j" xlink:href="#font_5_77" transform="matrix(10.039701,0,0,-10.039701,46.89697,169.95781)"/>
<use data-text="e" xlink:href="#font_5_72" transform="matrix(10.039701,0,0,-10.039701,49.125787,169.95781)"/>
<use data-text="c" xlink:href="#font_5_70" transform="matrix(10.039701,0,0,-10.039701,54.707864,169.95781)"/>
<use data-text="t" xlink:href="#font_5_87" transform="matrix(10.039701,0,0,-10.039701,59.727716,169.95781)"/>
<use data-text="o" xlink:href="#font_5_82" transform="matrix(10.039701,0,0,-10.039701,214.7555,169.95781)"/>
<use data-text="b" xlink:href="#font_5_69" transform="matrix(10.039701,0,0,-10.039701,220.33757,169.95781)"/>
<use data-text="j" xlink:href="#font_5_77" transform="matrix(10.039701,0,0,-10.039701,225.91963,169.95781)"/>
<use data-text="e" xlink:href="#font_5_72" transform="matrix(10.039701,0,0,-10.039701,228.14846,169.95781)"/>
<use data-text="c" xlink:href="#font_5_70" transform="matrix(10.039701,0,0,-10.039701,233.73052,169.95781)"/>
<use data-text="t" xlink:href="#font_5_87" transform="matrix(10.039701,0,0,-10.039701,238.75037,169.95781)"/>
<use data-text=" " xlink:href="#font_5_3" transform="matrix(10.039701,0,0,-10.039701,241.54141,169.95781)"/>
<use data-text="p" xlink:href="#font_5_83" transform="matrix(10.039701,0,0,-10.039701,244.33245,169.95781)"/>
<use data-text="o" xlink:href="#font_5_82" transform="matrix(10.039701,0,0,-10.039701,249.91452,169.95781)"/>
<use data-text="i" xlink:href="#font_5_76" transform="matrix(10.039701,0,0,-10.039701,255.49658,169.95781)"/>
<use data-text="n" xlink:href="#font_5_81" transform="matrix(10.039701,0,0,-10.039701,257.7254,169.95781)"/>
<use data-text="t" xlink:href="#font_5_87" transform="matrix(10.039701,0,0,-10.039701,263.30747,169.95781)"/>
<use data-text="e" xlink:href="#font_5_72" transform="matrix(10.039701,0,0,-10.039701,266.0985,169.95781)"/>
<use data-text="r" xlink:href="#font_5_85" transform="matrix(10.039701,0,0,-10.039701,271.68058,169.95781)"/>
</g>
</svg>
