<svg xmlns="http://www.w3.org/2000/svg" xmlns:xlink="http://www.w3.org/1999/xlink" xmlns:inkscape="http://www.inkscape.org/namespaces/inkscape" version="1.1" width="484.08" height="270" viewBox="0 0 484.08 270">
<defs>
<clipPath id="clip_1">
<path transform="matrix(.24,0,0,.24,0,0)" d="M0 0H2016.6665V1123.6997H0Z" clip-rule="evenodd"/>
</clipPath>
<clipPath id="clip_2">
<path transform="matrix(.24,0,0,.24,0,0)" d="M0 0H2016.6665V1120.7033H0Z" clip-rule="evenodd"/>
</clipPath>
<path id="font_3_36" d="M.61035159-.0146484379C.5804036-.0146484379 .554362 .023625693 .53222659 .10017395 .523763 .12946065 .5131836 .18070476 .5004883 .25390626 .46728517 .24935913 .42382813 .24124146 .3701172 .22955323L.24023438 .20277405C.22395833 .1601003 .1961263 .097722377 .15673828 .015640259 .14632161-.0025990804 .13216146-.01171875 .11425781-.01171875 .10123698-.01171875 .08959961-.0069986979 .0793457 .0024414063 .0690918 .011881511 .063964847 .02360026 .063964847 .037597658 .063964847 .05323283 .088541667 .11265055 .13769531 .21585083 .13216146 .22431438 .12939453 .23408509 .12939453 .24516297 .12939453 .27153016 .14534505 .28845725 .1772461 .2959442 .21435547 .36567689 .26123048 .4458364 .3178711 .5364227 .39501954 .65992739 .44303385 .7216797 .46191407 .7216797 .48763023 .7216797 .5052083 .7037557 .51464846 .6679077L.54541018 .5037384 .61816409 .16418457 .6459961 .08718872C.6554362 .06088257 .66015627 .043340047 .66015627 .034561159 .66015627 .020594279 .65511068 .00890096 .64501956-.0005187988 .6349284-.009938558 .6233724-.0146484379 .61035159-.0146484379M.43798829 .5432739 .29833985 .31793214C.33772788 .32803346 .39746095 .34025575 .47753907 .354599L.43798829 .5432739Z"/>
<path id="font_3_87" d="M.39453126 .41558839C.3876953 .41558839 .37963868 .4159139 .37036134 .41656495 .36108399 .41722618 .35302735 .41755677 .3461914 .41755677 .33870445 .41755677 .316569 .41508994 .27978517 .41015626L.2890625 .121902469 .28955079 .10043335 .29003907 .07556152C.29134117 .0043538415 .2742513-.03125 .23876953-.03125 .2257487-.03125 .21443685-.027023316 .20483399-.018569947 .19523113-.010116577 .19042969 .0004526774 .19042969 .013137817 .19042969 .025487265 .19091797 .04401652 .19189453 .068725589 .1928711 .093444827 .19335938 .11198425 .19335938 .12434387L.18359375 .4091797C.15983074 .41015626 .123697917 .41293846 .07519531 .41752626 .046223958 .42145286 .03173828 .43764244 .03173828 .46609498 .03173828 .4804891 .036132814 .49242149 .044921876 .5018921 .053710939 .51137289 .064941409 .5161133 .07861328 .5161133L.18115235 .5078125C.18115235 .5244649 .18041992 .54674276 .17895508 .574646 .17749024 .6025594 .17675781 .62271627 .17675781 .6351166 .17675781 .64882919 .18147786 .6601715 .19091797 .6691437 .20035808 .67812606 .21191406 .6826172 .22558594 .6826172 .2548828 .6826172 .27197267 .6586914 .27685548 .61083987 .27783204 .5987956 .2783203 .5843099 .2783203 .5673828L.27734376 .5390625 .27685548 .50878909C.31722007 .5139974 .34033204 .51660159 .3461914 .51660159 .38004557 .51660159 .402181 .51497396 .41259767 .51171877 .43245445 .50516769 .4423828 .48972575 .4423828 .46539308 .4423828 .45092774 .4379069 .43901063 .42895509 .42964173 .42000328 .42027284 .40852867 .41558839 .39453126 .41558839Z"/>
<path id="font_3_85" d="M.4477539 .3618164C.44547526 .3211263 .42919923 .30078126 .39892579 .30078126 .370931 .30078126 .3569336 .3168284 .3569336 .34892274 .3569336 .35508729 .3564453 .36643983 .35546876 .38298036L.3540039 .42382813C.30257163 .41763307 .26139323 .40311686 .23046875 .38027955 .20149739 .35906983 .17740886 .32709757 .15820313 .2843628L.15917969 .016220093C.15917969-.01672872 .1430664-.033203126 .110839847-.033203126 .08219401-.033203126 .067871097-.016733805 .067871097 .016204834V.35960389C.067871097 .37036643 .06827799 .38650514 .0690918 .40802003 .0699056 .42954508 .0703125 .44568888 .0703125 .45645143 .0703125 .48939006 .084635417 .5058594 .11328125 .5058594 .1451823 .5058594 .16129558 .47884117 .1616211 .4248047 .2241211 .48535157 .29345704 .515625 .3696289 .515625 .3959961 .515625 .4156901 .5056966 .42871095 .48583985 .44173179 .46598307 .4482422 .43603517 .4482422 .3959961 .4482422 .379069 .44807945 .36767579 .4477539 .3618164Z"/>
<path id="font_3_76" d="M.16113281 .61816409C.14550781 .61816409 .1319987 .62369796 .12060547 .6347656 .10921224 .6458333 .103515628 .6591797 .103515628 .6748047 .103515628 .6904297 .10921224 .70377609 .12060547 .71484377 .1319987 .72591146 .14550781 .7314453 .16113281 .7314453 .17675781 .7314453 .19018555 .72591146 .20141602 .71484377 .21264649 .70377609 .21826172 .6904297 .21826172 .6748047 .21826172 .6591797 .21264649 .6458333 .20141602 .6347656 .19018555 .62369796 .17675781 .61816409 .16113281 .61816409M.18310547 .22140503C.18310547 .20185344 .18367513 .17260742 .18481446 .13366699 .18595378 .09473673 .18652344 .06549581 .18652344 .045944215 .18652344 .031611127 .1821289 .019882203 .17333985 .010757446 .16455078 .0016326904 .1529948-.0029296876 .13867188-.0029296876 .12467448-.0029296876 .11319987 .0016326904 .10424805 .010757446 .09529623 .019882203 .09082031 .031611127 .09082031 .045944215 .09082031 .06549581 .09025065 .09473673 .08911133 .13366699 .08797201 .17260742 .087402347 .20185344 .087402347 .22140503 .087402347 .25203453 .089029949 .29023744 .092285159 .3360138 .09554037 .38180033 .09716797 .42000834 .09716797 .45063783 .09716797 .46529643 .10164388 .4771881 .1105957 .48631288 .11954752 .49543763 .13102214 .5 .14501953 .5 .15901692 .5 .17049153 .49543763 .17944336 .48631288 .18839519 .4771881 .1928711 .46529643 .1928711 .45063783 .1928711 .42000834 .19124349 .38180033 .18798828 .3360138 .18473308 .29023744 .18310547 .25203453 .18310547 .22140503Z"/>
<path id="font_3_69" d="M.29589845-.020507813C.24609375-.020507813 .20084636-.0107421879 .16015625 .0087890629 .14973958-.0068359377 .13704427-.0146484379 .12207031-.0146484379 .10970052-.0146484379 .09920248-.0103302 .09057617-.0016937256 .08194987 .0069325768 .07763672 .01776123 .07763672 .030792237 .07763672 .03925578 .07804362 .051793416 .07885742 .06840515 .07967123 .085016887 .080078128 .09755961 .080078128 .106033328 .080078128 .14055889 .079182948 .19226583 .07739258 .26115418 .07560221 .3300425 .07470703 .38175456 .07470703 .41629029 .07470703 .44006349 .07486979 .48509217 .07519531 .55137637 .075520839 .6176605 .075683597 .66285708 .075683597 .68696597 .075683597 .7065074 .0797526 .72409567 .087890628 .73973086 .09863281 .7595978 .11344401 .76953127 .13232422 .76953127 .15673828 .76953127 .16894531 .75534567 .16894531 .7269745 .16894531 .72240707 .16813152 .71571859 .1665039 .7069092 .1648763 .6981099 .1640625 .6914266 .1640625 .68685916L.16259766 .5797119 .1616211 .45507813C.1899414 .47428385 .21687825 .48868815 .24243164 .49829103 .26798503 .50789389 .2919922 .5126953 .31445313 .5126953 .3844401 .5126953 .4412435 .48583985 .48486329 .4321289 .5258789 .3816732 .5463867 .31966148 .5463867 .24609375 .5463867 .171875 .52246096 .10888672 .47460938 .057128908 .4267578 .0053710939 .3671875-.020507813 .29589845-.020507813M.31445313 .41992188C.2877604 .41992188 .26041667 .41244508 .23242188 .39749146 .21875 .39001466 .1953125 .3739268 .16210938 .3492279L.16113281 .26486207 .1616211 .188797 .16210938 .10884094C.17773438 .10168966 .19970703 .09258524 .22802735 .08152771 .24820964 .07535299 .27083335 .072265628 .29589845 .072265628 .34309898 .072265628 .38183595 .08884176 .41210938 .12199402 .4423828 .15515645 .45751954 .19644165 .45751954 .24584961 .45751954 .294281 .4453125 .3347524 .42089845 .3672638 .39453126 .40236918 .35904948 .41992188 .31445313 .41992188Z"/>
<path id="font_3_88" d="M.4663086 .28515626C.4663086 .26171876 .46647135 .2265625 .46679688 .1796875 .4671224 .1328125 .46728517 .09765625 .46728517 .07421875 .46728517 .06705729 .46785484 .056152345 .46899415 .041503908 .47013346 .026855469 .47070313 .015950522 .47070313 .0087890629 .47070313-.0052083337 .46598307-.016682944 .45654298-.025634766 .44710288-.03458659 .43554688-.0390625 .421875-.0390625 .3968099-.0390625 .38085938-.02360026 .37402345 .0073242189 .33333335-.013834636 .28645835-.024414063 .23339844-.024414063 .1907552-.024414063 .1554362-.014973958 .1274414 .00390625 .09651693 .024739584 .078125 .05517578 .072265628 .095214847 .059570314 .18147786 .053222658 .25830079 .053222658 .3256836 .053222658 .37027995 .05810547 .4210612 .067871097 .47802735 .07242838 .50634768 .087890628 .5205078 .11425781 .5205078 .1282552 .5205078 .13997396 .516037 .14941406 .50709536 .15885417 .4981537 .16357422 .48668925 .16357422 .47270204 .16357422 .4577484 .16121419 .43384806 .15649414 .40100099 .1517741 .36816407 .14941406 .3431295 .14941406 .32589723 .14941406 .27159629 .15120442 .22509766 .15478516 .18640137 .15836589 .14770508 .16373699 .11665344 .17089844 .09324646 .18164063 .087387088 .19222005 .08291117 .20263672 .079818729 .21305339 .07673645 .2233073 .07519531 .23339844 .07519531 .27701823 .07519531 .32307945 .08218384 .37158204 .09616089L.37109376 .19517517 .3701172 .28979493C.3701172 .36003623 .37320964 .42100526 .37939454 .47270204 .38297526 .50261947 .39876304 .5175781 .4267578 .5175781 .44075523 .5175781 .45247398 .5130208 .46191407 .50390627 .47135417 .49479167 .4757487 .48339845 .47509767 .46972657L.4663086 .28515626Z"/>
<path id="font_3_72" d="M.29589845-.022460938C.22233074-.022460938 .16276042-.0040537517 .1171875 .03276062 .06738281 .07349142 .04248047 .1305135 .04248047 .2038269 .04248047 .28853355 .06298828 .3595581 .104003909 .41690064 .14860027 .47946168 .20817058 .5107422 .28271485 .5107422 .3367513 .5107422 .38085938 .5016276 .41503907 .48339845 .45703126 .4609375 .47802735 .42643229 .47802735 .3798828 .47802735 .34733073 .4596354 .31770835 .42285157 .29101563 .40657554 .27929688 .3720703 .26106773 .31933595 .23632813L.1328125 .14794922C.15104167 .12093099 .17374675 .10058594 .20092774 .08691406 .22810872 .07324219 .25976563 .06640625 .29589845 .06640625 .31835938 .06640625 .34472657 .07063802 .375 .07910156 .41341148 .08984375 .43815104 .10392252 .44921876 .12133789 .46028648 .13875325 .47216798 .14746094 .48486329 .14746094 .4962565 .14746094 .506429 .14313253 .51538088 .13447571 .5243327 .12582906 .5288086 .11579386 .5288086 .10437012 .5288086 .06813558 .49967448 .036956788 .44140626 .01083374 .39160157-.011362712 .34309898-.022460938 .29589845-.022460938M.28271485 .42285157C.2430013 .42285157 .20996094 .4074707 .18359375 .37670899 .15722656 .34594728 .13753255 .29964195 .12451172 .23779297L.27441407 .30908204C.33333335 .33772788 .37532554 .36263023 .40039063 .38378907 .37239585 .40983073 .33317057 .42285157 .28271485 .42285157Z"/>
<path id="font_3_86" d="M.39746095 .37597657C.37955729 .37597657 .36702476 .381958 .35986329 .3939209 .35498048 .4023234 .3507487 .41977946 .34716798 .44628907 .3227539 .44011436 .28515626 .42873637 .234375 .41215516 .18196614 .39134217 .15559896 .36565653 .15527344 .33509828 .16503906 .33151756 .17464192 .32891337 .18408203 .32728578 .2589518 .31395976 .31461589 .29558818 .35107423 .27217103 .40413413 .23802185 .43066407 .18858846 .43066407 .12387085 .43066407 .07086182 .40771485 .030863444 .3618164 .0038757325 .32373048-.01823934 .27555339-.029296875 .21728516-.029296875 .17464192-.029296875 .13395183-.022135416 .095214847-.0078125 .045084638 .010416667 .020019532 .035807294 .020019532 .068359378 .020019532 .08138021 .025146485 .09277344 .03540039 .10253906 .045654298 .11230469 .057291669 .1171875 .0703125 .1171875 .08040365 .1171875 .09342448 .109375 .109375 .09375 .1171875 .08626302 .13476563 .080078128 .16210938 .07519531 .18391927 .07128906 .2023112 .06933594 .21728516 .06933594 .2446289 .06933594 .26871745 .07258606 .28955079 .0790863 .31982423 .088516239 .33496095 .10346985 .33496095 .12394714 .33496095 .16816712 .30403648 .19807942 .2421875 .21368408L.19140625 .22491455C.14811199 .23436482 .11735026 .2454427 .099121097 .2581482 .072753909 .27638755 .059570314 .3039042 .059570314 .34069825 .059570314 .4087728 .09163412 .4573059 .15576172 .4862976 .17529297 .49508668 .20654297 .5055847 .24951172 .51779177 .29248048 .530009 .3232422 .54035446 .34179688 .5488281 .35514323 .5546875 .3696289 .5576172 .3852539 .5576172 .3992513 .5576172 .41072593 .5530599 .41967774 .5439453 .42862956 .53483077 .43310548 .5229492 .43310548 .5083008 .43310548 .4988607 .43513999 .48502604 .43920899 .46679688 .44327799 .44856773 .4453125 .43473307 .4453125 .42529298 .4453125 .41064454 .44083659 .39876304 .43188478 .38964845 .42293296 .38053385 .41145835 .37597657 .39746095 .37597657Z"/>
<path id="font_3_37" d="M.4326172 .019561768C.359375-.009104411 .26578776-.0234375 .15185547-.0234375 .13785808-.0234375 .1245931-.016840617 .11206055-.0036468507 .09952799 .009546916 .09326172 .023142497 .09326172 .037139894V.17932129C.09326172 .22590129 .096191409 .29234825 .10205078 .3786621 .108561199 .4718221 .11214193 .5392456 .11279297 .5809326 .112467449 .6109009 .11425781 .6555278 .11816406 .71481326 .12044271 .7310994 .1258138 .74184677 .13427735 .74705508 .17854817 .7607371 .22884114 .7675781 .28515626 .7675781 .3424479 .7675781 .39746095 .7480367 .4501953 .70895388 .5110677 .66401168 .5415039 .6084849 .5415039 .54237368 .5415039 .4586741 .50895187 .39272563 .44384767 .3445282 .49267579 .32367454 .5292155 .3005422 .5534668 .27513124 .5777181 .24972026 .58984377 .22203064 .58984377 .19206238 .58984377 .15264385 .56852218 .11452738 .5258789 .07771301 .4962565 .051651 .46516929 .032267255 .4326172 .019561768M.28515626 .66796877C.24967449 .66796877 .22477214 .6668294 .21044922 .6645508L.20947266 .57910159 .19970703 .39013673C.24593099 .38623048 .27067057 .3844401 .27392579 .38476563 .32307945 .38867188 .36328126 .40397135 .39453126 .43066407 .4280599 .4596354 .44482423 .49690757 .44482423 .54248049 .44482423 .57340499 .42773438 .6020508 .3935547 .62841799 .359375 .65478518 .3232422 .66796877 .28515626 .66796877M.33984376 .27638246 .28808595 .28466798C.28385417 .28466798 .27742515 .28442384 .26879884 .28393556 .26017253 .28344728 .25358073 .28320313 .24902344 .28320313 .23144531 .28320313 .21272786 .28466798 .1928711 .28759767 .19091797 .24667359 .1899414 .21013387 .1899414 .17797852V.07714844C.27522788 .080067958 .34472657 .0920817 .3984375 .1131897 .42122398 .12195841 .44303385 .13559978 .4638672 .15411377 .48372398 .17100017 .49365235 .18366497 .49365235 .19210816 .49365235 .20737712 .472819 .22458904 .43115235 .2437439 .39990235 .25836183 .36946617 .26924134 .33984376 .27638246Z"/>
<path id="font_3_75" d="M.4765625-.030273438C.45345054-.030273438 .4383138-.017918906 .43115235 .006790161 .42366538 .03345235 .41682945 .07133484 .41064454 .12043762 .40478517 .16758728 .40185548 .20627849 .40185548 .23651123 .40185548 .2449646 .40226237 .2578074 .40307618 .27503968 .40388999 .2922821 .40429688 .30513 .40429688 .31358338 .40429688 .37471009 .3889974 .40527345 .35839845 .40527345 .31705729 .40527345 .2801107 .386556 .2475586 .3491211 .23095703 .32991538 .20817058 .29329429 .17919922 .23925781 .17919922 .115478519 .17399089 .042215986 .16357422 .019470215 .15445964-.0006713867 .14029949-.0107421879 .12109375-.0107421879 .1077474-.0107421879 .09602865-.006184896 .0859375 .0029296876 .07584635 .0120442709 .07080078 .023111979 .07080078 .036132814 .07080078 .040690107 .072265628 .047851564 .07519531 .057617189 .07779948 .06575521 .079589847 .08951823 .080566409 .12890625L.08203125 .20117188 .083496097 .5600586C.08577474 .60042318 .08691406 .6276042 .08691406 .64160159 .08691406 .6582031 .085367839 .6739095 .08227539 .6887207 .079182948 .7035319 .07763672 .7189128 .07763672 .7348633 .07763672 .74853518 .08235677 .759847 .091796878 .7687988 .10123698 .7777507 .11279297 .78222659 .12646485 .78222659 .15315755 .78222659 .16878255 .7679036 .17333985 .7392578 .17854817 .7076823 .18115235 .6791992 .18115235 .6538086 .18115235 .6196289 .18001302 .5839844 .17773438 .546875 .17578125 .51139327 .17496746 .4757487 .17529297 .4399414L.17578125 .39697267C.20247396 .43277995 .2310384 .45955406 .2614746 .47729493 .2919108 .4950358 .32421876 .50390627 .35839845 .50390627 .4124349 .50390627 .44954429 .48632813 .46972657 .45117188 .48404948 .42643229 .4921875 .38476563 .49414063 .32617188L.49804688 .23291016 .5078125 .13134766C.5123698 .09326172 .5179036 .059733076 .52441409 .030761719 .5257161 .025227866 .5263672 .020507813 .5263672 .016601563 .5263672 .0032552083 .5214844-.00789388 .51171877-.016845704 .5019531-.025797526 .49023438-.030273438 .4765625-.030273438Z"/>
<path id="font_3_68" d="M.44921876-.032226564C.44303385-.032226564 .43180339-.025004069 .41552735-.010559082 .4008789 .00289917 .38997398 .014882405 .3828125 .025390625 .3515625 .008300781 .324056-.004597982 .30029298-.013305664 .27652995-.022013346 .2566732-.026367188 .24072266-.026367188 .16455078-.026367188 .10904948-.0048828127 .07421875 .038085939 .041341146 .07845052 .024902344 .14029949 .024902344 .22363281 .024902344 .30240885 .052001954 .36979167 .10620117 .42578126 .16040039 .48177085 .22509766 .5097656 .30029298 .5097656 .32861329 .5097656 .36035157 .5024414 .3955078 .48779298 .43977867 .4695638 .46191407 .44759117 .46191407 .421875 .46191407 .41308595 .45865885 .40527345 .45214845 .3984375 .44889323 .38606773 .44637046 .36572267 .44458009 .33740235 .4427897 .30908204 .44173179 .27278648 .44140626 .22851563 .44108073 .18815105 .44384767 .15625 .44970704 .1328125 .45296226 .118489589 .46321617 .08984375 .48046876 .046875 .4827474 .041015626 .48649089 .032389326 .49169923 .020996094L.4946289 .0126953129C.4946289-.00032552085 .49007163-.011067708 .48095704-.01953125 .47184245-.027994791 .46126304-.032226564 .44921876-.032226564M.34765626 .3069458C.34765626 .3209127 .34855143 .3360901 .3503418 .35247804 .35213218 .36887614 .35481773 .38632713 .35839845 .40483094 .34635417 .41100566 .3360189 .41555278 .32739259 .4184723 .31876628 .42139182 .31184898 .42285157 .30664063 .42285157 .2561849 .42285157 .21264649 .40231834 .17602539 .36125184 .1394043 .32018534 .12109375 .27286784 .12109375 .21929932 .12109375 .16605632 .13053386 .12612407 .14941406 .09950256 .16829427 .072881069 .19661458 .059570314 .234375 .059570314 .265625 .059570314 .29215495 .06525167 .31396485 .07661438 .3256836 .08277893 .3421224 .09511312 .36328126 .11361694 .3528646 .19965618 .34765626 .26409913 .34765626 .3069458Z"/>
<path id="font_3_89" d="M.29296876 .025390625C.2919922-.0045572917 .277181-.01953125 .24853516-.01953125 .22477214-.01953125 .20751953-.005533854 .19677735 .022460938L.12207031 .22070313 .03515625 .44482423C.031901044 .45328776 .030273438 .46077476 .030273438 .46728517 .030273438 .4806315 .03531901 .49202476 .045410158 .50146487 .0555013 .51090499 .067220058 .515625 .080566409 .515625 .100097659 .515625 .114095058 .5056966 .122558597 .48583985L.24658203 .14453125C.2709961 .19661458 .3017578 .2721354 .3388672 .37109376 .34765626 .3971354 .36149089 .43391929 .3803711 .4814453 .39046226 .5022786 .40478517 .5126953 .42333985 .5126953 .4366862 .5126953 .44840495 .5079753 .4584961 .49853517 .46858726 .48909507 .4736328 .4778646 .4736328 .46484376 .4736328 .45247398 .44677735 .3828125 .3930664 .25585938L.29296876 .025390625Z"/>
<path id="font_3_82" d="M.25097657-.029296875C.19628906-.029296875 .1492513-.0090789799 .10986328 .03135681 .06591797 .07636007 .04280599 .13685608 .040527345 .21284485 .03857422 .2865448 .057128908 .35144044 .096191409 .40753175 .14176433 .47373454 .20524089 .50683596 .2866211 .50683596 .35172526 .50683596 .40104167 .47699485 .4345703 .41731263 .46126304 .36905418 .4741211 .31100974 .47314454 .24317932 .47216798 .17078145 .45328776 .10897827 .4165039 .057769777 .37483726-.0002746582 .31966148-.029296875 .25097657-.029296875M.28027345 .40722657C.23242188 .4075521 .19514974 .3847351 .16845703 .33877564 .14729817 .30193077 .13671875 .25987754 .13671875 .21261597 .13671875 .16534424 .14957683 .12850444 .17529297 .10209656 .19677735 .08025614 .2220052 .06933594 .25097657 .06933594 .28483073 .06933594 .31396485 .081726077 .3383789 .10650635 .3660482 .13388062 .38069663 .1708781 .38232423 .21749878 .3868815 .34365846 .3528646 .40690104 .28027345 .40722657Z"/>
<path id="font_4_53" d="M.5498047-.005859375C.53222659-.005859375 .5161133 .0009765625 .50146487 .0146484379 .40283204 .10709635 .2944336 .17122396 .17626953 .20703125 .17985027 .112101238 .18164063 .05941264 .18164063 .048965455 .18164063 .030380249 .1751302 .014643352 .16210938 .0017547608 .14908855-.01113383 .1328125-.017578125 .11328125-.017578125 .09375-.017578125 .07747396-.011144002 .064453128 .0017242432 .051432294 .014592488 .044921876 .030309042 .044921876 .0488739 .044921876 .073298137 .045247396 .10985819 .045898439 .15855408 .04654948 .20724996 .046875 .24381511 .046875 .2682495L.047851564 .6625366C.047851564 .6837158 .05419922 .7029368 .06689453 .7201996 .083496097 .74234518 .10644531 .7522786 .13574219 .75 .21484375 .7441406 .2553711 .74104818 .25732423 .74072268 .30289714 .7351888 .34163413 .72428897 .37353517 .7080231 .51253256 .63805648 .58203127 .55133059 .58203127 .44784547 .58203127 .4052124 .5674642 .36754356 .5383301 .33483888 .509196 .3021342 .46549479 .2745565 .40722657 .2521057 .4934896 .20389812 .55843099 .15471395 .6020508 .10455322 .61344406 .09153239 .6191406 .077041629 .6191406 .061080934 .6191406 .042841596 .6123047 .02712504 .5986328 .013931274 .58496096 .0007375081 .5686849-.005859375 .5498047-.005859375M.2368164 .60839846C.23421224 .60872396 .21516927 .61002609 .1796875 .6123047V.35351563C.18782552 .3531901 .19498699 .35302735 .20117188 .35302735 .28092448 .35302735 .3400065 .3629354 .37841798 .38275147 .39501954 .39120484 .41023765 .40241496 .42407228 .41638185 .4379069 .4303589 .44482423 .44091798 .44482423 .44805909 .44482423 .4844564 .42171226 .5195465 .37548829 .55332949 .33154298 .5851695 .285319 .6035258 .2368164 .60839846Z"/>
<path id="font_4_72" d="M.29589845-.022460938C.21809896-.022460938 .15445964-.0038909913 .10498047 .0332489 .05029297 .074305217 .022949219 .13214112 .022949219 .20675659 .022949219 .28918458 .044596357 .35890708 .087890628 .41592408 .1360677 .47913615 .20100911 .5107422 .28271485 .5107422 .33935548 .5107422 .38639323 .5016276 .42382813 .48339845 .47298179 .4593099 .4975586 .421875 .4975586 .37109376 .4975586 .33528648 .47753907 .3035482 .4375 .2758789 .41927085 .2631836 .38264976 .2446289 .32763673 .22021485L.16308594 .14746094C.17871094 .13053386 .19759114 .11783854 .21972656 .109375 .24186199 .10091146 .2672526 .09667969 .29589845 .09667969 .33951823 .09667969 .37646485 .10563151 .40673829 .123535159 .4337565 .13948567 .45540367 .14746094 .4716797 .14746094 .5055339 .14746094 .52246096 .13097637 .52246096 .0980072 .52246096 .06078593 .49527995 .030426026 .44091798 .0069274904 .39534507-.012664795 .34700523-.022460938 .29589845-.022460938M.28271485 .39257813C.2524414 .39257813 .2265625 .38248698 .20507813 .3623047 .18359375 .3421224 .16634114 .31184898 .15332031 .27148438 .19010417 .2874349 .22672527 .30322267 .2631836 .31884767 .3071289 .33870445 .3421224 .35709635 .36816407 .37402345 .34635417 .38639323 .3178711 .39257813 .28271485 .39257813Z"/>
<path id="font_4_68" d="M.4711914-.02734375C.45621745-.02734375 .43245445-.012858073 .39990235 .016113282 .36995445 .0017903646 .34358726-.009033203 .32080079-.016357422 .2980143-.02368164 .27864585-.02734375 .2626953-.02734375 .1842448-.02734375 .1254069-.006327311 .08618164 .035705568 .04695638 .07773844 .02734375 .14061992 .02734375 .22434998 .02734375 .3028717 .056315107 .3700714 .11425781 .4259491 .17220052 .48182679 .24153646 .5097656 .32226563 .5097656 .3531901 .5097656 .3889974 .5010579 .4296875 .48364259 .47884117 .46266685 .50341799 .43830873 .50341799 .41056825 .50341799 .3989512 .49967448 .38878886 .4921875 .38008119 .48893229 .3671824 .48640953 .3509725 .48461915 .33145143 .48282878 .31194053 .4819336 .28911845 .4819336 .26298524 .4819336 .20137024 .48632813 .15701294 .4951172 .12991333 .49609376 .12701416 .50358077 .11023966 .5175781 .079589847 .53027346 .051849367 .5366211 .036046346 .5366211 .032180787 .5366211 .01508077 .5300293 .00088500979 .5168457-.010406494 .5036621-.021697998 .488444-.02734375 .4711914-.02734375M.35009767 .3022461C.35009767 .31266276 .35083009 .32462565 .35229493 .33813478 .35375978 .3516439 .35595704 .36669923 .35888673 .38330079 .3523763 .386556 .3465983 .38891603 .34155274 .39038087 .33650718 .3918457 .332194 .39257813 .32861329 .39257813 .28434245 .39257813 .24560547 .37524415 .21240235 .34057618 .17919922 .3059082 .16259766 .26578776 .16259766 .22021485 .16259766 .17659505 .17041016 .14379883 .18603516 .12182617 .20166016 .099853519 .22509766 .08886719 .25634767 .08886719 .27652995 .08886719 .2956543 .09220377 .3137207 .09887695 .3317871 .10555013 .34879557 .11539713 .3647461 .12841797 .35498048 .20589192 .35009767 .26383464 .35009767 .3022461Z"/>
<path id="font_4_79" d="M.20019531 .071395877C.20019531 .009475708 .17773438-.021484375 .1328125-.021484375 .11328125-.021484375 .09716797-.015289307 .084472659-.00289917 .071777347 .009480794 .06542969 .025446574 .06542969 .04499817V.7211151C.06542969 .7400157 .072265628 .75549826 .0859375 .76756289 .098958339 .77864077 .11507162 .7841797 .13427735 .7841797 .15348308 .7841797 .16927083 .77839156 .18164063 .7668152 .19401042 .755249 .20019531 .7400157 .20019531 .7211151V.071395877Z"/>
<path id="font_4_3" d="M0 0Z"/>
<path id="font_4_90" d="M.6743164 .43052674C.6401367 .30269877 .60579428 .18660482 .57128909 .08224487 .56152346 .052897138 .54557296 .022735596 .5234375-.008239746 .5078125-.02976481 .48697917-.040364583 .4609375-.040039064 .41992188-.03938802 .3876953 .0002644857 .3642578 .07891846 .35546876 .108947757 .3450521 .16492208 .3330078 .24684143 .32617188 .23250835 .3219401 .22289531 .3203125 .21800232 .3033854 .17760723 .27864585 .11488851 .24609375 .029846192 .24121094 .016164145 .23388672 .0052490236 .2241211-.00289917 .21044922-.02472941 .19010417-.036132814 .16308594-.037109376 .14778646-.037760419 .13167317-.02407837 .114746097 .0039367678 .096842449 .032287599 .08235677 .06878153 .07128906 .11341858 .061197919 .15381368 .045572919 .2417806 .024414063 .37731935 .019856772 .40664674 .017578125 .4296163 .017578125 .44622804 .017578125 .464152 .024332682 .47905986 .037841798 .49095155 .05135091 .5028432 .06754557 .50878909 .08642578 .50878909 .12158203 .50878909 .14322917 .49135844 .15136719 .4564972 .15559896 .43824769 .15917969 .4157664 .16210938 .38905335 .16601563 .35061137 .16845703 .32796733 .1694336 .32112123 .17366536 .29571025 .18017578 .25417076 .18896485 .19650269 .21305339 .26264445 .24072266 .34490968 .27197267 .44329835 .285319 .48565675 .31038413 .50683596 .34716798 .50683596 .38330079 .50683596 .4070638 .48321534 .41845704 .43597413 .42659507 .40274049 .43522135 .35956828 .44433595 .30645753 .45768229 .22923787 .4658203 .18329875 .46875 .16864014 .4716797 .17874146 .49723307 .27779136 .54541018 .4657898 .5525716 .49380494 .5729167 .5078125 .6064453 .5078125 .625 .5078125 .6413574 .5017802 .6555176 .48971559 .66967776 .47765098 .6767578 .46265159 .6767578 .4447174 .6767578 .44145204 .67594406 .4367218 .6743164 .43052674Z"/>
<path id="font_4_82" d="M.25097657-.029296875C.1907552-.029296875 .13899739-.008590698 .095703128 .032821657 .048177083 .07816061 .02327474 .13865662 .020996094 .21430969 .018717448 .28638206 .038411458 .35062663 .080078128 .40704347 .1295573 .47357179 .19840496 .50683596 .2866211 .50683596 .35172526 .50683596 .40348307 .4807485 .44189454 .4285736 .47639976 .38160707 .49365235 .32339479 .49365235 .25393678 .49365235 .17827352 .47347007 .11370341 .43310548 .06022644 .38785807 .00054423019 .32714845-.029296875 .25097657-.029296875M.28027345 .3779297C.24023438 .37825523 .20865886 .3599955 .18554688 .32315064 .16601563 .29216514 .15625 .2559662 .15625 .21455384 .15625 .17542012 .1673177 .14542134 .18945313 .124557498 .20703125 .107925418 .22753906 .099609378 .25097657 .099609378 .27929688 .099609378 .3038737 .1092275 .32470704 .12846375 .34847007 .15096538 .36116538 .18145752 .36279298 .21994019 .36702476 .324941 .33951823 .37760417 .28027345 .3779297Z"/>
<path id="font_4_85" d="M.45898438 .3513794C.4560547 .30137126 .433431 .2763672 .39111329 .2763672 .35009767 .2763672 .32958985 .29761759 .32958985 .3401184L.32714845 .38964845C.25390626 .3779297 .20149739 .34033204 .16992188 .27685548L.17041016 .03125C.17041016 .0126953129 .1640625-.0026855469 .15136719-.014892578 .13867188-.02709961 .122558597-.033203126 .103027347-.033203126 .082845058-.033203126 .067220058-.026687623 .056152345-.013656616 .045735677-.0019276937 .040527345 .013061523 .040527345 .031311037V.35142518C.040527345 .3615265 .040852865 .376592 .041503908 .3966217 .04215495 .4166616 .04248047 .43173219 .04248047 .4418335 .04248047 .460083 .04793294 .47531639 .05883789 .48753358 .069742839 .49975077 .08528646 .5058594 .10546875 .5058594 .14160156 .5058594 .16308594 .4873047 .16992188 .4501953 .22753906 .49316407 .2915039 .51464846 .3618164 .51464846 .42692057 .51464846 .45947267 .47117616 .45947267 .38423158 .45947267 .3675588 .4593099 .35660807 .45898438 .3513794Z"/>
<path id="font_4_71" d="M.40722657 .49121095C.41145835 .6020406 .4165039 .6785736 .42236329 .72080996 .42789714 .7591502 .449056 .7783203 .48583985 .7783203 .5050456 .7783203 .5205078 .7720744 .53222659 .7595825 .5439453 .74709066 .5498047 .73180648 .5498047 .71372988 .5498047 .6660614 .5461426 .59505209 .53881838 .5007019 .53149417 .4063619 .52783206 .33535768 .52783206 .2876892 .52783206 .17132569 .5315755 .093419399 .5390625 .053970338 .54003909 .04871114 .54052737 .043945314 .54052737 .03967285 .54052737 .0215861 .5340169 .006708781 .5209961-.0049591066 .5079753-.016626994 .49283854-.022460938 .47558595-.022460938 .4514974-.022460938 .43359376-.01171875 .421875 .009765625 .3997396-.0035807293 .37679038-.012288411 .35302735-.016357422 .3292643-.020426432 .3046875-.022460938 .27929688-.022460938 .2063802-.022460938 .14583333 .00083414718 .09765625 .047424318 .048502607 .09499105 .023925782 .15559387 .023925782 .22923279 .023925782 .31687928 .048665365 .3876597 .09814453 .4415741 .1476237 .49549867 .21223958 .52246096 .2919922 .52246096 .31640626 .52246096 .33821617 .51985678 .35742188 .51464846 .3766276 .5094401 .39322917 .5016276 .40722657 .49121095M.39746095 .33740235C.38671876 .35791017 .37272135 .37320964 .35546876 .38330079 .33821617 .39339195 .31770835 .3984375 .2939453 .3984375 .24576824 .3984375 .20963542 .38452149 .18554688 .35668946 .16145833 .32885743 .14941406 .28710938 .14941406 .23144531 .14941406 .19628906 .16243489 .16617839 .18847656 .14111328 .21451824 .11604818 .24479167 .103515628 .27929688 .103515628 .30436198 .103515628 .32340495 .10644531 .33642579 .11230469 .34521485 .11621094 .3601888 .12662761 .38134767 .14355469 .3868815 .14811199 .3922526 .15315755 .39746095 .1586914 .3968099 .1743164 .3968099 .23388672 .39746095 .33740235Z"/>
<path id="font_4_36" d="M.61035159-.0146484379C.58463546-.013671875 .55875656 .016601563 .53271487 .076171878 .5154622 .114583339 .50065109 .15885417 .48828126 .20898438 .46419273 .20525106 .4248047 .20152283 .3701172 .19779969 .3186849 .19406636 .27929688 .18965657 .25195313 .18457031 .23697917 .14902751 .2109375 .095555629 .17382813 .024154664 .1595052 .000890096 .13964844-.0107421879 .11425781-.0107421879 .096354167-.0107421879 .08024088-.0046437585 .06591797 .0075531008 .05159505 .01974996 .044433595 .035283407 .044433595 .054153444 .044433595 .070744838 .06819662 .12702434 .115722659 .22299195 .11116537 .23307292 .10921224 .24250794 .10986328 .251297 .11116537 .26691184 .12695313 .27910868 .15722656 .28788758 .20345052 .36791484 .2548828 .4508667 .31152345 .53674319 .39290367 .6600342 .44303385 .7216797 .46191407 .7216797 .49772135 .7216797 .52164718 .70003256 .5336914 .6567383 .54020187 .62190756 .55045577 .56966146 .5644531 .5 .5843099 .40625 .6085612 .29899089 .63720706 .17822266 .63948568 .16910808 .64778646 .1476237 .6621094 .11376953 .6738281 .08577474 .6796875 .06477865 .6796875 .05078125 .6796875 .031901044 .6726074 .016113282 .65844729 .0034179688 .6442871-.009277344 .6282552-.0152994799 .61035159-.0146484379M.42822267 .48632813C.40283204 .44258628 .36783854 .38301597 .3232422 .3076172 .33789063 .31099449 .3606771 .31369529 .39160157 .3157196 .4280599 .31807963 .45100913 .31993614 .46044923 .32128907 .45263673 .36360679 .44189454 .41861979 .42822267 .48632813Z"/>
<path id="font_4_69" d="M.28173829-.020507813C.23616536-.020507813 .1928711-.012532552 .15185547 .0034179688 .1398112-.008626302 .12516277-.0146484379 .107910159-.0146484379 .09033203-.0146484379 .075276698-.0087890629 .06274414 .0029296876 .05021159 .01465861 .043945314 .029322306 .043945314 .046920778 .043945314 .054733278 .044433595 .066701259 .045410158 .08282471 .04638672 .09894816 .046875 .11091614 .046875 .11872864V.67230227C.046875 .69574996 .052083333 .7165985 .0625 .734848 .075520839 .75797018 .09407552 .76953127 .11816406 .76953127 .1529948 .76953127 .17041016 .75065109 .17041016 .7128906 .17041016 .7086589 .1698405 .7019043 .16870117 .69262698 .16756185 .6833496 .16699219 .67659506 .16699219 .6723633V.48535157C.19108074 .4986979 .2141927 .5087077 .23632813 .51538088 .25846354 .522054 .27978517 .5253906 .30029298 .5253906 .37679038 .5253906 .4386393 .49753318 .48583985 .44181825 .52978518 .3896942 .5517578 .3264872 .5517578 .25219728 .5517578 .17660523 .5262044 .112584438 .47509767 .060134889 .4230143 .0063730876 .3585612-.020507813 .28173829-.020507813M.30029298 .40039063C.28336589 .40039063 .26383464 .3955078 .24169922 .3857422 .2195638 .37597657 .19466146 .36132813 .16699219 .34179688 .16666667 .3108724 .16666667 .24169922 .16699219 .13427735 .21158855 .11507162 .24983724 .10546875 .28173829 .10546875 .32307945 .10546875 .35709635 .119384769 .38378907 .1472168 .41048179 .17504883 .42382813 .2101237 .42382813 .2524414 .42382813 .29475913 .4129232 .3297526 .39111329 .35742188 .3683268 .38606773 .33805339 .40039063 .30029298 .40039063Z"/>
<path id="font_4_86" d="M.3935547 .35742188C.36132813 .35742188 .34195964 .370931 .33544923 .39794923 .32242839 .40022788 .30908204 .4013672 .29541017 .4013672 .21695964 .4013672 .17773438 .390625 .17773438 .36914063 .17773438 .3564453 .20133464 .33935548 .24853516 .3178711 .31298829 .2882487 .35660807 .26513673 .37939454 .24853516 .42659507 .21435547 .4501953 .17578125 .4501953 .1328125 .4501953 .076822917 .42415367 .03434245 .3720703 .0053710939 .33007813-.017740885 .27848307-.029296875 .21728516-.029296875 .17399089-.029296875 .13444011-.022623698 .09863281-.009277344 .049804689 .008951823 .025390625 .035807294 .025390625 .07128906 .025390625 .10384115 .044759115 .12011719 .083496097 .12011719 .098470058 .12011719 .12011719 .11539713 .1484375 .10595703 .17675781 .09651693 .1985677 .091796878 .21386719 .091796878 .2799479 .091796878 .31315104 .10514323 .31347657 .13183594 .31347657 .1484375 .29052735 .16682942 .2446289 .18701172 .17757161 .21663411 .13460286 .23795574 .115722659 .25097657 .06982422 .28320313 .046875 .32247926 .046875 .36880494 .046875 .43437705 .08154297 .47858177 .1508789 .50141909 .19156902 .51479598 .25341798 .5214844 .33642579 .5214844 .36897788 .5214844 .3930664 .51724246 .4086914 .50875857 .43017579 .49732463 .44091798 .47626243 .44091798 .4455719 .44091798 .3868052 .42513023 .35742188 .3935547 .35742188Z"/>
<path id="font_4_87" d="M.39453126 .39308167C.3876953 .39308167 .37963868 .3933258 .37036134 .3938141 .36108399 .39430238 .35302735 .3945465 .3461914 .3945465 .33284507 .3945465 .3173828 .39323936 .2998047 .390625 .30566407 .2591146 .30859376 .17317708 .30859376 .1328125 .30859376 .12858074 .3087565 .12068685 .30908204 .10913086 .30940757 .09757487 .3095703 .08821615 .3095703 .08105469 .3095703 .006184896 .28597007-.03125 .23876953-.03125 .22086589-.03125 .20540364-.025716147 .19238281-.0146484379 .17805989-.0029296876 .17089844 .01171875 .17089844 .029296875 .17089844 .041015626 .17138672 .05859375 .17236328 .08203125 .17333985 .10546875 .17382813 .123046878 .17382813 .13476563 .17382813 .17415364 .17089844 .25846354 .16503906 .3876953 .14485677 .38867188 .114339198 .39135743 .07348633 .39575196 .032633466 .40014649 .012207031 .42122398 .012207031 .45898438 .012207031 .47721354 .018391928 .49267579 .030761719 .5053711 .04313151 .5180664 .05908203 .52441409 .07861328 .52441409 .090657558 .52441409 .11832682 .52246096 .1616211 .5185547 .16129558 .5290019 .16048177 .54630538 .15917969 .5704651 .15787761 .59135946 .15722656 .6075236 .15722656 .6189575 .15722656 .63723757 .16389974 .652415 .1772461 .66448977 .19059246 .6765747 .20670574 .6826172 .22558594 .6826172 .27376304 .6826172 .29785157 .6419678 .29785157 .56066897L.296875 .5205078C.31705729 .523763 .3334961 .5253906 .3461914 .5253906 .3836263 .5253906 .4091797 .522939 .42285157 .5180359 .44889323 .5088908 .46191407 .4889628 .46191407 .45825196 .46191407 .43962608 .4555664 .42410789 .4428711 .4116974 .43017579 .3992869 .4140625 .39308167 .39453126 .39308167Z"/>
<path id="font_4_70" d="M.27441407-.03125C.20279949-.03125 .14274089-.010869344 .09423828 .029891968 .04313151 .0729421 .017578125 .12968445 .017578125 .20011902 .017578125 .26500956 .040527345 .3320211 .08642578 .40115357 .13850911 .48007203 .19905599 .51953127 .2680664 .51953127 .30192057 .51953127 .34147135 .51039126 .38671876 .4921112 .44173179 .46957908 .46923829 .44362388 .46923829 .4142456 .46923829 .39824424 .46370445 .38404338 .45263673 .37164308 .44091798 .358256 .42578126 .3515625 .40722657 .3515625 .39322917 .3515625 .37638346 .35921226 .35668946 .37451173 .33699546 .3898112 .30745445 .39746095 .2680664 .39746095 .2430013 .39746095 .21582031 .3728434 .18652344 .3236084 .15852864 .27601115 .14453125 .2349294 .14453125 .20036316 .14453125 .16613262 .15690105 .13923645 .18164063 .11967468 .20507813 .10108948 .23600261 .091796878 .27441407 .091796878 .29622398 .091796878 .32291667 .100097659 .3544922 .11669922 .38606773 .13330078 .40608726 .14160156 .41455079 .14160156 .4321289 .14160156 .44718424 .13523357 .4597168 .12249756 .47224937 .10977173 .47851563 .09524536 .47851563 .07891846 .47851563 .053456624 .45084635 .027994791 .3955078 .002532959 .34602867-.019989014 .30566407-.03125 .27441407-.03125Z"/>
<path id="font_4_76" d="M.16113281 .58691409C.14029949 .58691409 .12223307 .5939128 .106933597 .60791018 .09163412 .62190756 .083984378 .6389974 .083984378 .6591797 .083984378 .679362 .09163412 .69645187 .106933597 .7104492 .12223307 .7244466 .14029949 .7314453 .16113281 .7314453 .18196614 .7314453 .19995117 .7244466 .21508789 .7104492 .23022461 .69645187 .23779297 .679362 .23779297 .6591797 .23779297 .6389974 .23022461 .62190756 .21508789 .60791018 .19995117 .5939128 .18196614 .58691409 .16113281 .58691409M.20263672 .2290039C.20263672 .21044922 .20320638 .18066406 .2043457 .13964844 .20548503 .09863281 .20605469 .068847659 .20605469 .05029297 .20605469 .03141276 .19970703 .01586914 .18701172 .0036621094 .1743164-.008544922 .15820313-.0146484379 .13867188-.0146484379 .119140628-.0146484379 .103027347-.008544922 .09033203 .0036621094 .07763672 .01586914 .07128906 .03141276 .07128906 .05029297 .07128906 .068847659 .0707194 .09863281 .06958008 .13964844 .06844076 .18066406 .067871097 .21044922 .067871097 .2290039 .067871097 .25797526 .069498699 .29427085 .072753909 .33789063 .07600912 .3815104 .07763672 .417806 .07763672 .44677735 .07763672 .46565757 .083984378 .48120118 .09667969 .4934082 .109375 .50561526 .12548828 .51171877 .14501953 .51171877 .16455078 .51171877 .18066406 .50561526 .19335938 .4934082 .20605469 .48120118 .21240235 .46565757 .21240235 .44677735 .21240235 .417806 .21077474 .3815104 .20751953 .33789063 .20426433 .29427085 .20263672 .25797526 .20263672 .2290039Z"/>
<path id="font_4_81" d="M.4345703-.03515625C.39453126-.03515625 .37223307-.015416463 .36767579 .02406311 .3631185 .057662965 .3585612 .091430667 .3540039 .12536621 .3491211 .16125489 .3466797 .19502259 .3466797 .22666931 .3466797 .2351532 .34724937 .24966939 .34838868 .2702179 .34952799 .29077659 .35009767 .30529786 .35009767 .31378175 .35009767 .3160604 .3504232 .32184855 .35107423 .33114625 .35172526 .3404541 .35205079 .34804283 .35205079 .35391236 .35205079 .3809916 .3450521 .39453126 .3310547 .39453126 .30110679 .39453126 .27172853 .3765615 .24291992 .34062196 .21411133 .3046926 .19156902 .25915528 .17529297 .20401001 .17464192 .19297283 .17317708 .17826335 .17089844 .15988159 .16894531 .14483643 .16796875 .13013204 .16796875 .11576843 .16796875 .106399539 .16902669 .0922699 .17114258 .07337952 .17325847 .05449931 .1743164 .04037984 .1743164 .031021119 .1743164 .011967977 .16788738-.0038248699 .1550293-.016357422 .14217122-.028889975 .12597656-.03515625 .10644531-.03515625 .08691406-.03515625 .07080078-.028925578 .05810547-.016464234 .045410158-.004002889 .0390625 .011703491 .0390625 .030654908 .0390625 .03996277 .038085939 .05400594 .036132814 .072784427 .034179689 .091562908 .033203126 .10560099 .033203126 .11489868 .033203126 .14680989 .03548177 .19118245 .040039064 .24801636 .044596357 .30485026 .046875 .3492228 .046875 .38113404 .046875 .39110313 .04630534 .40597535 .045166017 .42575074 .04402669 .44552613 .04345703 .4602305 .04345703 .4698639 .04345703 .4884796 .050048829 .5038503 .06323242 .51597598 .076416019 .52811178 .09261068 .5341797 .111816409 .5341797 .15445964 .5341797 .1772461 .50846359 .18017578 .45703126L.18066406 .45166017C.22819011 .49951173 .2783203 .5234375 .3310547 .5234375 .39257813 .5234375 .4350586 .49767558 .4584961 .44615174 .4741211 .41158549 .4819336 .3598989 .4819336 .29109193V.25636292C.48160807 .2413686 .4814453 .23077393 .4814453 .22457886 .4814453 .19913738 .48494468 .1663615 .49194337 .12625122 .49894206 .08615112 .5024414 .05354309 .5024414 .028427124 .5024414 .0101674399 .495931-.0049947106 .48291017-.017059327 .4698893-.029123942 .45377604-.03515625 .4345703-.03515625Z"/>
<path id="font_4_54" d="M.2788086-.030273438C.1961263-.030273438 .13102214-.011805217 .083496097 .025131226 .04345703 .055862428 .0234375 .09132894 .0234375 .13153076 .0234375 .15213013 .029622397 .1692098 .041992189 .18276978 .05436198 .19633992 .07145182 .203125 .09326172 .203125 .122558597 .203125 .14404297 .18807984 .15771485 .1579895 .17626953 .117767337 .21826172 .09765625 .2836914 .09765625 .339681 .09765625 .39388023 .10986328 .44628907 .13427735 .50065109 .15934246 .52783206 .18684896 .52783206 .21679688 .52783206 .2578125 .51090499 .28483073 .47705079 .29785157 .45296226 .30729167 .4046224 .31282554 .33203126 .31445313 .27571617 .31575523 .22526042 .32634989 .18066406 .34623719 .12044271 .37328593 .09082031 .4120687 .091796878 .46258546 .09277344 .52613326 .12662761 .58438619 .19335938 .63734439 .26009117 .6903127 .33365885 .7167969 .4140625 .7167969 .44596354 .7167969 .48535157 .7094472 .53222659 .6947479 .5904948 .6764679 .6196289 .6554057 .6196289 .6315613 .6196289 .6145833 .61376956 .5995636 .6020508 .5865021 .58902999 .5718028 .5722656 .5644531 .5517578 .5644531 .5364583 .5644531 .5135905 .5677083 .4831543 .57421877 .4527181 .5807292 .4296875 .5839844 .4140625 .5839844 .3720703 .5836589 .332194 .5735677 .2944336 .55371096 .2553711 .5335286 .23583985 .51155599 .23583985 .48779298 .23583985 .4754232 .2417806 .46525065 .2536621 .4572754 .2655436 .44930015 .28336589 .4436849 .3071289 .4404297 .34879557 .43815104 .39029948 .4358724 .43164063 .43359376 .50390627 .4280497 .56103518 .40768434 .60302737 .37249757 .6492513 .33339439 .6723633 .27930198 .6723633 .21022034 .6723633 .12614441 .6245117 .06243388 .5288086 .019088746 .45589195-.013819377 .3725586-.030273438 .2788086-.030273438Z"/>
<path id="font_4_73" d="M.28173829 .5019531C.32535807 .5058594 .35660807 .5078125 .37548829 .5078125 .4363607 .5078125 .46679688 .48690287 .46679688 .44508363 .46679688 .40194194 .43440757 .38135276 .3696289 .38331605 .3491211 .38396708 .31803385 .38249717 .2763672 .37890626 .2750651 .34440104 .2747396 .30045573 .27539063 .24707031 .27669273 .17024739 .27734376 .12646485 .27734376 .115722659 .27734376 .056152345 .27360026 .008951823 .26611329-.025878907 .2586263-.060709638 .23714192-.078125 .20166016-.078125 .18343099-.078125 .16756185-.072255458 .15405274-.060516359 .14054363-.048787435 .13378906-.033966066 .13378906-.016052247 .13378906-.011810303 .13411458-.007736206 .13476563-.003829956 .14257813 .042770387 .14648438 .0866038 .14648438 .12767029V.3720703C.140625 .37174479 .12988281 .37044273 .11425781 .36816407 .10188802 .36653648 .092447917 .36572267 .0859375 .36572267 .06608073 .36572267 .049641927 .37148033 .036621095 .3829956 .02360026 .3945211 .017089844 .41000877 .017089844 .42945863 .017089844 .45962016 .033040365 .47940064 .064941409 .48880006 .07926432 .49301148 .1077474 .49576823 .15039063 .4970703 .15071614 .5029399 .15283203 .5213623 .15673828 .55233767 .16585286 .62506106 .18554688 .67919418 .21582031 .71473696 .25358073 .759079 .31152345 .78125 .38964845 .78125 .44921876 .78125 .4790039 .759847 .4790039 .717041 .4790039 .67456057 .45133464 .6533203 .3959961 .6533203 .35660807 .6533203 .32796226 .63953146 .3100586 .61195376 .29671226 .59150698 .2877604 .55954489 .28320313 .5160675L.28173829 .5019531Z"/>
<path id="font_4_80" d="M.17626953 .4321289C.22542317 .48909507 .27197267 .5175781 .31591798 .5175781 .3660482 .5175781 .40283204 .4983724 .42626954 .45996095 .4461263 .47753907 .46809898 .49072267 .4921875 .49951173 .51627609 .5083008 .5423177 .5126953 .5703125 .5126953 .63411459 .5126953 .6774089 .48098246 .7001953 .41755677 .7047526 .40455628 .7117513 .3604889 .7211914 .2853546 .73030599 .2326711 .7420247 .14485677 .75634768 .021911622 .7576497 .0033772786 .75130209-.011906941 .7373047-.02394104 .7233073-.03597514 .70686849-.041992189 .6879883-.041992189 .6505534-.041992189 .62858077-.02347819 .6220703 .013549805 .61621096 .04699707 .6101888 .09424845 .6040039 .15530396 .59749349 .22220867 .5921224 .2696279 .5878906 .29756166 .57910159 .35569764 .5678711 .38476563 .5541992 .38476563 .5467122 .38476563 .5296224 .3772939 .5029297 .36235047 .47623698 .347407 .45670573 .33457948 .44433595 .3238678 .44433595 .2868398 .44873048 .23357137 .45751954 .1640625 .46663413 .092926029 .4711914 .039657594 .4711914 .004257202 .4711914-.014256795 .46484376-.029683432 .45214845-.042022706 .43945313-.05437215 .42333985-.060546876 .4038086-.060546876 .38427735-.060546876 .36816407-.05436198 .35546876-.041992189 .34277345-.029622397 .33642579-.014160156 .33642579 .0043945314 .33642579 .041503908 .33243815 .09611002 .3244629 .16821289 .31648765 .24031575 .3125 .29492188 .3125 .33203126 .3125 .3528646 .31070964 .36946617 .3071289 .38183595 .2693685 .36005656 .23144531 .32380677 .19335938 .27308656 .19173177 .2708079 .18896485 .26739503 .1850586 .2628479 .18375652 .1971639 .18310547 .14562989 .18310547 .10824585 .18310547 .09914144 .18277996 .086868289 .1821289 .07142639 .18147786 .055984498 .18115235 .044525148 .18115235 .03704834 .18115235 .01949056 .17399089 .005671183 .15966797-.00440979 .14664714-.013839722 .13053386-.018554688 .111328128-.018554688 .08365885-.018554688 .064941409-.0065205895 .05517578 .017547608 .048339845 .033813478 .044921876 .05967204 .044921876 .09512329V.27659608C.044921876 .29286195 .044270833 .316686 .04296875 .34806825 .041666669 .37945048 .041015626 .40327455 .041015626 .4195404 .041015626 .44849143 .046223958 .4746755 .056640626 .49809266 .06933594 .527359 .087239589 .5419922 .11035156 .5419922 .12858074 .5419922 .14485677 .5349121 .15917969 .52075198 .17350261 .5065918 .18066406 .4910482 .18066406 .4741211 .18066406 .48095704 .17919922 .46695964 .17626953 .4321289Z"/>
<path id="font_4_55" d="M.6328125 .58496096C.6074219 .58496096 .5678711 .58683779 .51416018 .59059146 .46240235 .59432479 .42285157 .5960286 .3955078 .5957031 .3968099 .55859377 .40120445 .49251304 .4086914 .39746095 .41552735 .31347657 .4189453 .24707031 .4189453 .19824219 .4189453 .18717449 .42008464 .17073567 .42236329 .14892578 .42464195 .12711589 .42578126 .110677089 .42578126 .099609378 .42578126 .07519531 .4205729 .053222658 .41015626 .033691408 .3968099 .008626302 .37776695-.00390625 .35302735-.00390625 .3351237-.00390625 .31933595 .0017903646 .30566407 .013183594 .2903646 .025878907 .28271485 .041829427 .28271485 .061035158 .28271485 .065592449 .28352867 .072509769 .28515626 .08178711 .28678385 .09106445 .28759767 .09814453 .28759767 .103027347 .28759767 .118001308 .2865397 .140625 .28442384 .17089844 .28230796 .20117188 .28125 .22395833 .28125 .23925781 .28125 .2828776 .27783204 .34195964 .2709961 .4165039 .2631836 .5021159 .2586263 .56119796 .25732423 .59375H.2319336C.15934246 .59375 .10172526 .5989583 .05908203 .609375 .022949219 .6181946 .0048828127 .6395976 .0048828127 .673584 .0048828127 .6902466 .0107421879 .7052765 .022460938 .7186737 .036132814 .7346751 .054036458 .741862 .076171878 .7402344 .0875651 .7395833 .11344401 .7368164 .1538086 .7319336 .18603516 .72835287 .21207683 .7265625 .2319336 .7265625 .25179038 .7265625 .28149415 .726888 .32104493 .72753909 .3605957 .7281901 .39029948 .7285156 .41015626 .7285156 .43489585 .7285156 .47200523 .726888 .5214844 .7236328 .57096359 .7203776 .60807296 .71875 .6328125 .71875 .65234377 .71875 .6687012 .7123311 .68188479 .6994934 .69506838 .6866557 .70166018 .6708577 .70166018 .6520996 .70166018 .6333415 .69506838 .61746218 .68188479 .60446169 .6687012 .5914612 .65234377 .58496096 .6328125 .58496096Z"/>
<path id="font_4_88" d="M.47753907 .28222657C.47753907 .26041667 .4777018 .22753906 .47802735 .18359375 .47835288 .13964844 .47851563 .106770839 .47851563 .08496094 .47851563 .078125 .4790853 .06795248 .4802246 .05444336 .48136393 .040934247 .4819336 .030761719 .4819336 .023925782 .4819336 .0056966149 .4753418-.009358724 .4621582-.021240235 .4489746-.033121747 .43277995-.0390625 .41357423-.0390625 .386556-.0390625 .36686198-.026855469 .3544922-.0024414063 .31282554-.017740885 .269694-.025390625 .22509766-.025390625 .1788737-.025390625 .13997396-.015675864 .10839844 .003753662 .072916667 .02609253 .051757814 .058629354 .044921876 .101364139 .032226564 .18230693 .025878907 .2546692 .025878907 .31845094 .025878907 .36054484 .030761719 .40862528 .040527345 .46269227 .04703776 .49928285 .069010417 .5175781 .10644531 .5175781 .12532552 .5175781 .1414388 .51167806 .15478516 .49987794 .16813152 .4880778 .17480469 .47312928 .17480469 .45503236 .17480469 .44081117 .17244466 .4185079 .16772461 .38812257 .16300456 .3577372 .16064453 .33462525 .16064453 .31878663 .16064453 .2732137 .16219075 .233373 .1652832 .19926453 .16837566 .16516622 .17301433 .13696797 .17919922 .1146698 .18733724 .11110941 .19523113 .10835775 .20288086 .106414798 .2105306 .10448202 .2179362 .103515628 .22509766 .103515628 .26123048 .103515628 .300944 .10872396 .34423829 .119140628 .34423829 .14420574 .34407554 .1726888 .34375 .20458985 .34309898 .24267578 .34277345 .27001954 .34277345 .2866211 .34277345 .35335288 .34586589 .41097007 .35205079 .45947267 .3569336 .49820964 .379069 .5175781 .41845704 .5175781 .43766276 .5175781 .45410157 .51155599 .46777345 .49951173 .4814453 .48746745 .48779298 .47233073 .4868164 .45410157 .4806315 .33007813 .47753907 .27278648 .47753907 .28222657Z"/>
<path id="font_4_78" d="M.46044923-.020507813C.43473307-.020507813 .4152018-.0081380209 .40185548 .016601563 .38590495 .046223958 .36197917 .081217449 .33007813 .12158203 .28059898 .18440755 .25439454 .21777344 .25146485 .22167969 .22542317 .20247396 .2039388 .18782552 .18701172 .17773438 .18375652 .13248699 .1821289 .08919271 .1821289 .047851564 .1821289 .028971354 .17578125 .0133463549 .16308594 .0009765625 .15039063-.0113932299 .13427735-.017578125 .114746097-.017578125 .068847659-.017578125 .045898439 .0098012289 .045898439 .06455994 .045898439 .0903066 .047770185 .12884522 .051513673 .18017578 .05525716 .23150635 .057128908 .27004496 .057128908 .29579164 .057128908 .3430532 .057861329 .39707438 .059326173 .45785523 .060791017 .51863607 .061523439 .5723317 .061523439 .61894229 .061523439 .63296 .060791017 .64950057 .059326173 .66856387 .057861329 .68762716 .057128908 .70416769 .057128908 .7181854 .057128908 .737086 .06347656 .75264486 .076171878 .76486209 .08886719 .7770894 .10498047 .7832031 .12451172 .7832031 .14404297 .7832031 .16015625 .77708438 .17285156 .7648468 .18554688 .75261947 .19189453 .7370453 .19189453 .7181244 .19189453 .70377096 .19270833 .6868083 .19433594 .6672363 .19596355 .64766439 .19677735 .6307017 .19677735 .61634829 .19677735 .5775299 .19580078 .5315857 .19384766 .47851563 .19189453 .42773438 .19108074 .38248698 .19140625 .34277345 .23567708 .37695313 .3030599 .4391276 .3935547 .5292969 .4078776 .5436198 .42415367 .55078127 .4423828 .55078127 .46061198 .55078127 .47672526 .54410299 .49072267 .53074648 .50472006 .51738998 .51171877 .5019124 .51171877 .48431397 .51171877 .46932984 .5053711 .45483399 .49267579 .44082643 .4542643 .397817 .40852867 .3528544 .35546876 .30593873L.45703126 .17497254C.5061849 .10948181 .5307617 .065826419 .5307617 .044006349 .5307617 .026082358 .5236003 .010848999 .50927737-.0016937256 .49495445-.01423645 .47867839-.020507813 .46044923-.020507813Z"/>
<path id="font_4_43" d="M.73291018 .6803131C.7263997 .65644839 .72314456 .63569137 .72314456 .618042 .72314456 .6088867 .7222493 .5947418 .720459 .5756073 .71866866 .556483 .71777346 .54234316 .71777346 .53318789 .71777346 .50213119 .7161458 .45602928 .7128906 .3948822 .70963546 .33374534 .7080078 .28764854 .7080078 .2565918 .7080078 .23272705 .70979818 .1970876 .7133789 .14967346 .71695968 .10226949 .71875 .06663004 .71875 .042755128 .71875 .024780274 .71240237 .0095825199 .69970706-.0028381348 .6870117-.015268962 .67122396-.021484375 .65234377-.021484375 .633138-.021484375 .61653646-.015380859 .60253909-.0031738282 .5885417 .009033203 .58154299 .023925782 .58154299 .041503908 .58154299 .06526693 .58048507 .10091146 .57836917 .1484375 .57625326 .19596355 .5751953 .23160808 .5751953 .2553711 .5751953 .27392579 .5755208 .2903646 .5761719 .3046875 .5250651 .30240885 .46191407 .2944336 .38671876 .28076173 .32421876 .2693685 .26171876 .2578125 .19921875 .24609375 .1985677 .22543335 .19628906 .1909434 .19238281 .1426239 .18912761 .10007223 .1875 .06527201 .1875 .038223268 .1875 .021509806 .18115235 .0073801677 .16845703-.0041656496 .15576172-.015711466 .13997396-.021484375 .12109375-.021484375 .10221354-.021484375 .08642578-.0154469809 .07373047-.0033721924 .061035158 .008702596 .0546875 .02347819 .0546875 .04095459 .0546875 .07304891 .05753581 .121032718 .06323242 .184906 .06892904 .2487793 .071777347 .2967631 .071777347 .32885743 .071777347 .3695272 .072753909 .43077088 .07470703 .5125885 .076660159 .5944163 .07763672 .65567019 .07763672 .6963501 .07763672 .7138265 .083984378 .7286021 .09667969 .7406769 .109375 .75275167 .12516277 .75878909 .14404297 .75878909 .16292317 .75878909 .17871094 .75260928 .19140625 .74024966 .20410156 .7279002 .21044922 .7127838 .21044922 .6949005 .21044922 .67019149 .20955403 .63304647 .20776367 .5834656 .20597331 .53389486 .20507813 .49675498 .20507813 .4720459 .20507813 .46391807 .2039388 .4483134 .20166016 .42523194 .19970703 .40377809 .19889324 .38735963 .19921875 .37597657L.38671876 .4111328C.45996095 .42415367 .523112 .43164063 .5761719 .43359376 .57747396 .45559693 .57958987 .51472476 .58251956 .6109772 .5831706 .63626608 .5908203 .66533407 .60546877 .69818118 .62369796 .7385864 .64436849 .75878909 .66748049 .75878909 .6847331 .75878909 .70003256 .753067 .7133789 .7416229 .72770187 .7292023 .7348633 .7136739 .7348633 .69503787 .7348633 .6901347 .7342122 .68522647 .73291018 .6803131Z"/>
<clipPath id="clip_5">
<path transform="matrix(.24,0,0,.24,0,0)" d="M0 0H2017V1121H0Z" clip-rule="evenodd"/>
</clipPath>
<clipPath id="clip_6">
<path transform="matrix(.24,0,0,.24,0,0)" d="M0 0H2017V1121H0Z" clip-rule="evenodd"/>
</clipPath>
</defs>
<g>
<g clip-path="url(#clip_1)">
<path transform="matrix(.7191678,0,0,.7191678,0,0)" d="M0 0H673V375H0Z" fill="#ffffff"/>
</g>
<g clip-path="url(#clip_2)">
<path transform="matrix(.7191678,0,0,.7191678,.3595839,.3595839)" d="M281 131V131.4L291 130.68 301 131.47 311 130.36 321 130.43 331 130.93 341 131C361 131 371 141 371 161 371 181 361 191 341 191V191.48L331 190.55 321 191.43 311 190.27 301 190.76 291 191.23 281 191C261 191 251 181 251 161 251 141 261 131 281 131Z" fill="#ffffff"/>
<path transform="matrix(.7191678,0,0,.7191678,.3595839,.3595839)" stroke-width="1" stroke-linecap="round" stroke-linejoin="round" fill="none" stroke="#000000" d="M281 131V131.4L291 130.68 301 131.47 311 130.36 321 130.43 331 130.93 341 131C361 131 371 141 371 161 371 181 361 191 341 191V191.48L331 190.55 321 191.43 311 190.27 301 190.76 291 191.23 281 191C261 191 251 181 251 161 251 141 261 131 281 131Z"/>
<use data-text="A" xlink:href="#font_3_36" transform="matrix(12.945021,0,0,-12.945021,190.9503,121.53936)"/>
<use data-text="t" xlink:href="#font_3_87" transform="matrix(12.945021,0,0,-12.945021,200.4131,121.53936)"/>
<use data-text="t" xlink:href="#font_3_87" transform="matrix(12.945021,0,0,-12.945021,206.51021,121.53936)"/>
<use data-text="r" xlink:href="#font_3_85" transform="matrix(12.945021,0,0,-12.945021,212.6073,121.53936)"/>
<use data-text="i" xlink:href="#font_3_76" transform="matrix(12.945021,0,0,-12.945021,218.82093,121.53936)"/>
<use data-text="b" xlink:href="#font_3_69" transform="matrix(12.945021,0,0,-12.945021,222.44554,121.53936)"/>
<use data-text="u" xlink:href="#font_3_88" transform="matrix(12.945021,0,0,-12.945021,230.12195,121.53936)"/>
<use data-text="t" xlink:href="#font_3_87" transform="matrix(12.945021,0,0,-12.945021,236.85335,121.53936)"/>
<use data-text="e" xlink:href="#font_3_72" transform="matrix(12.945021,0,0,-12.945021,242.95044,121.53936)"/>
<use data-text="s" xlink:href="#font_3_86" transform="matrix(12.945021,0,0,-12.945021,250.04433,121.53936)"/>
<path transform="matrix(.7191678,0,0,.7191678,.3595839,.3595839)" d="M21.84 113.06C20.29 110.73 19.3 108.05 18.96 105.08 18.63 105.17 18.31 105.24 17.95 105.24 15.66 105.24 13.8 103.37 13.8 101.06 13.8 99.61 14.54 98.35 15.64 97.59L15.51 97.4 18.04 95.95 20.39 94.24 22.72 92.5 25.04 90.75 27.55 89.26C30.05 87.73 32.97 86.77 36.13 86.66L36.12 86.55 42.03 86.54 47.94 86.49 53.85 86.87 59.76 86.5 65.67 86.75 65.66 86.65 69.99 86.06 74.29 85.21 78.65 84.81 82.91 83.74 87.26 83.28C87.26 83.17 87.26 83.06 87.26 82.95 87.26 80.77 89 79 91.16 79 93.32 79 95.07 80.77 95.07 82.94 95.07 83.27 95.02 83.64 94.93 83.96L94.91 83.8 95.3 83.78 95.76 84.23 96.11 83.93 96.56 84.37 96.94 84.23C99.26 84.68 101.01 86.74 101.01 89.2 101.01 89.36 101.01 89.5 100.99 89.63L101.02 89.68 102.18 90.16 103.51 90.94 104.85 91.74 106.13 92.43 107.41 93.11C108.33 93.48 109 94.4 109 95.46 109 95.82 108.93 96.14 108.8 96.45L109 96.54 108.27 97.09 108.14 97.9 107.77 98.6 107.73 99.46 107.21 100.09C106.42 101.38 105.06 102.28 103.49 102.47L103.47 102.32 100.55 102.86 97.6 103.27 94.64 103.47 91.68 103.8 88.75 104.24 88.71 104.21 86.1 107.39 83.37 110.46 80.73 113.61 78.12 116.8 75.47 119.94 75.27 119.82 76.79 122.46 78.35 125.12 80 127.83 81.43 130.41 83.05 133.11 82.98 132.95 84.11 133.72 85.02 133.97 86.02 134.43 87.09 135.06 88.05 135.44C88.84 135.98 89.37 136.9 89.37 137.95 89.37 139.62 88.02 140.98 86.34 140.98V141.13L84.41 141.06 82.49 140.83 80.57 141.03 78.64 141.02 76.72 141C74.25 141 72.11 139.59 71.03 137.56L70.91 137.49 69.44 134.6 67.54 131.47 66.16 128.63 64.66 125.72 62.81 122.62V122.48L59.11 122.61 55.4 122.48 51.69 122.5 47.98 122.51 44.27 122.64 44.41 122.73 45.63 124.7 46.9 126.71 48.03 128.62 49.64 130.84 50.82 132.79 50.79 132.73 51.71 133.07 52.85 133.87 53.72 134.11 54.79 134.78 55.66 135.01C56.56 135.56 57.15 136.53 57.15 137.64 57.15 139.31 55.79 140.67 54.13 140.67V140.54L52.2 140.69 50.27 140.84 48.35 140.45 46.42 140.55 44.49 140.69C42.15 140.69 40.08 139.42 38.95 137.52L38.84 137.45 37.06 134.58 35.54 131.88 33.55 128.88 31.59 125.89 29.93 123.1 29.84 123.01 28.79 124.45 27.34 125.49 26.1 126.75 24.88 128.01 23.63 129.26 23.58 129.25 23.67 130.08 23.62 130.89 23.54 131.7 23.21 132.48 23.11 133.28 23.14 133.33 23.62 133.69 23.88 133.73 24.33 134.04 24.82 134.42 25.23 134.68C25.58 134.86 25.9 135.12 26.17 135.43 27.21 136.74 27.03 138.66 25.72 139.7 25.17 140.18 24.46 140.4 23.79 140.38V140.51L22.94 140.14 22.1 140.4 21.25 140.27 20.4 140.32 19.56 140.4C18.39 140.26 17.33 139.65 16.66 138.74L16.86 138.85 15.77 137.08 14.82 135.39 13.79 133.66 12.57 131.81 11.73 130.18C11.27 129.31 11 128.3 11 127.21 11 125.55 11.61 124.03 12.64 122.88L12.63 122.87 14.3 120.75 16.27 118.91 18.18 117.02 19.92 114.96 21.84 113.07V113.06Z"/>
<path transform="matrix(.7191678,0,0,.7191678,.3595839,.3595839)" d="M89.35 229.59V229.46H91.48L93.61 229.39 95.74 229.45H97.87L100 229.59H99.99L99.92 221.87 99.83 214.15 100.06 206.44 99.98 198.72 100 191V191.56L90.38 190.68 80.75 190.99 71.13 190.68 61.5 190.74 51.88 191.75 42.25 190.44 32.63 191H32.55L32.82 192.33 32.83 193.65 32.68 194.98 32.55 196.3 32.63 197.63V197.8L30.78 197.71 28.93 197.52 27.08 197.63 25.23 197.6 23.38 197.63C19.6 197.63 17.24 197.63 15.68 202.85L15.58 202.83 14.99 204.85 14.82 206.97 14.1 208.96 13.8 211.06 13.11 213.05V213.17H11.91L10.7 213.14 9.5 212.96 8.29 213.26 7.09 213.05C4.13 213.05 4.13 213.05 4.13 215.91 4.13 220.47 4.13 225.03 4.13 229.59V229.48L3.51 229.57 2.88 229.59 2.25 229.61 1.63 229.7 1 229.59H.85L1.03 230.22 .92 230.85 .88 231.48 1 232.11V232.74 232.53L3.26 232.95 5.51 232.76 7.77 232.66 10.02 232.73 12.28 232.74C12.87 237.05 15.6 239.99 19.92 239.99 24.21 239.99 27.12 236.99 28.08 232.74V232.55L28.99 232.9 29.9 232.76 30.81 232.57 31.72 232.92 32.63 232.74H32.5L32.64 232.11 32.52 231.48 32.86 230.85 32.73 230.22 32.63 229.59V229.68L40.57 229.41 48.51 229.38 56.45 229.74 64.39 229.4 72.33 229.59C72.25 230 72.22 230.88 72.22 231.33 72.22 236.11 76.11 240 80.87 240 85.63 240 89.52 236.11 89.52 231.33 89.52 230.79 89.46 230.09 89.35 229.59"/>
<path transform="matrix(.7191678,0,0,.7191678,.3595839,.3595839)" d="M37.11177 283.09C37.111768 283.62113 37.05981 284.14717 36.955904 284.66807 36.85199 285.18898 36.69812 285.6948 36.494295 286.1855 36.290468 286.67619 36.040597 287.14234 35.744688 287.58396 35.448778 288.02558 35.112508 288.43418 34.735887 288.80976 34.359266 289.18534 33.94952 289.52064 33.506658 289.8157 33.063795 290.11079 32.59632 290.35997 32.104238 290.5632 31.612156 290.76649 31.10492 290.91993 30.582528 291.02357 30.060137 291.12718 29.532628 291.179 29.000002 291.17903 28.467375 291.179 27.939866 291.12718 27.417473 291.02357 26.895079 290.91996 26.387843 290.7665 25.89576 290.56324 25.403677 290.35997 24.936205 290.1108 24.493342 289.81575 24.05048 289.52067 23.640738 289.18537 23.264115 288.80979 22.88749 288.4342 22.55122 288.0256 22.255309 287.58396 21.959397 287.14234 21.709528 286.67619 21.505702 286.1855 21.301873 285.6948 21.148005 285.18898 21.044096 284.66807 20.940186 284.14717 20.888232 283.62113 20.888234 283.09 20.888232 282.55885 20.940186 282.0328 21.044096 281.51188 21.148005 280.99095 21.301873 280.4851 21.505702 279.9944 21.709528 279.5037 21.959397 279.03758 22.255309 278.59596 22.55122 278.15434 22.88749 277.74574 23.264115 277.37019 23.640738 276.9946 24.050482 276.6593 24.493344 276.36424 24.936205 276.06916 25.403677 275.81999 25.89576 275.6167 26.387843 275.41346 26.895079 275.26 27.417473 275.1564 27.939866 275.0528 28.467375 275.00099 29.000002 275.00099 29.532628 275.00099 30.060137 275.0528 30.58253 275.1564 31.10492 275.26 31.612156 275.41346 32.104238 275.6167 32.59632 275.81999 33.063795 276.06916 33.506658 276.36424 33.94952 276.6593 34.359266 276.9946 34.735887 277.37019 35.112508 277.74574 35.448778 278.15434 35.744688 278.59596 36.040597 279.03758 36.290468 279.50373 36.494295 279.99443 36.69812 280.4851 36.85199 280.99095 36.955904 281.51188 37.05981 282.0328 37.111768 282.55885 37.11177 283.09Z"/>
<path transform="matrix(.7191678,0,0,.7191678,.3595839,.3595839)" d="M19.42 368.52C19.42 370.99 21.46 373 23.96 373 26.48 373 28.52 371 28.52 368.52H28.75L28.51 361.01 28.43 353.5 28.75 345.98 28.57 338.47 28.52 330.96V330.95L28.92 330.75 29.33 330.92 29.73 330.74 30.14 330.91 30.54 330.96H30.35L30.56 338.47 30.4 345.98 30.73 353.5 30.6 361.01 30.53 368.52C30.53 370.99 32.57 373 35.08 373 37.58 373 39.62 371 39.62 368.52H40.21L39.49 357.73 38.88 346.93 40.11 336.14 39.24 325.34 39.79 314.55 39.64 303.76H41.64 41.62L41.47 308.53 41.49 313.31 41.4 318.08 41.77 322.85 41.64 327.63C41.64 332.43 48 332.43 47.98 327.63H47.97L47.86 322.75 48.02 317.88 47.87 313 48.01 308.13 47.98 303.25C47.98 297.95 44.82 292.75 38.52 292.75V292.6L34.88 292.79 31.24 292.68 27.61 292.62 23.97 292.95 20.33 292.73C14.59 292.73 11 297.34 11 303.1H10.91L11.13 308.01 10.9 312.91 10.8 317.82 11.14 322.72 11 327.63C11 332.4 17.39 332.4 17.39 327.63H17.27L17.57 322.85 17.38 318.08 17.3 313.31 17.49 308.53 17.39 303.76V303.92L17.8 303.98 18.21 303.75 18.61 303.89 19.02 303.71 19.43 303.76H18.82L18.78 314.55 18.8 325.34 19.27 336.14 19.79 346.93 19.92 357.73 19.42 368.52Z"/>
<path transform="matrix(.7191678,0,0,.7191678,.3595839,.3595839)" d="M281 241V241.62L291 240.39 301 240.48 311 240.94 321 241.28H331L341 241C361 241 371 251 371 271 371 291 361 301 341 301V301.4L331 301.43 321 300.36 311 301.45 301 300.85 291 300.34 281 301C261 301 251 291 251 271 251 251 261 241 281 241Z" fill="#ffffff"/>
<path transform="matrix(.7191678,0,0,.7191678,.3595839,.3595839)" stroke-width="1" stroke-linecap="round" stroke-linejoin="round" fill="none" stroke="#000000" d="M281 241V241.62L291 240.39 301 240.48 311 240.94 321 241.28H331L341 241C361 241 371 251 371 271 371 291 361 301 341 301V301.4L331 301.43 321 300.36 311 301.45 301 300.85 291 300.34 281 301C261 301 251 291 251 271 251 251 261 241 281 241Z"/>
<use data-text="B" xlink:href="#font_3_37" transform="matrix(12.945021,0,0,-12.945021,194.3551,200.64783)"/>
<use data-text="e" xlink:href="#font_3_72" transform="matrix(12.945021,0,0,-12.945021,202.51047,200.64783)"/>
<use data-text="h" xlink:href="#font_3_75" transform="matrix(12.945021,0,0,-12.945021,209.60436,200.64783)"/>
<use data-text="a" xlink:href="#font_3_68" transform="matrix(12.945021,0,0,-12.945021,217.08657,200.64783)"/>
<use data-text="v" xlink:href="#font_3_89" transform="matrix(12.945021,0,0,-12.945021,223.71442,200.64783)"/>
<use data-text="i" xlink:href="#font_3_76" transform="matrix(12.945021,0,0,-12.945021,230.00569,200.64783)"/>
<use data-text="o" xlink:href="#font_3_82" transform="matrix(12.945021,0,0,-12.945021,233.6303,200.64783)"/>
<use data-text="r" xlink:href="#font_3_85" transform="matrix(12.945021,0,0,-12.945021,240.43938,200.64783)"/>
<use data-text="s" xlink:href="#font_3_86" transform="matrix(12.945021,0,0,-12.945021,246.65299,200.64783)"/>
<use data-text="R" xlink:href="#font_4_53" transform="matrix(12.945021,0,0,-12.945021,11.776373,17.260029)"/>
<use data-text="e" xlink:href="#font_4_72" transform="matrix(12.945021,0,0,-12.945021,20.061188,17.260029)"/>
<use data-text="a" xlink:href="#font_4_68" transform="matrix(12.945021,0,0,-12.945021,27.297453,17.260029)"/>
<use data-text="l" xlink:href="#font_4_79" transform="matrix(12.945021,0,0,-12.945021,34.49489,17.260029)"/>
<use data-text=" " xlink:href="#font_4_3" transform="matrix(12.945021,0,0,-12.945021,38.041826,17.260029)"/>
<use data-text="w" xlink:href="#font_4_90" transform="matrix(12.945021,0,0,-12.945021,43.65996,17.260029)"/>
<use data-text="o" xlink:href="#font_4_82" transform="matrix(12.945021,0,0,-12.945021,52.51436,17.260029)"/>
<use data-text="r" xlink:href="#font_4_85" transform="matrix(12.945021,0,0,-12.945021,59.32344,17.260029)"/>
<use data-text="l" xlink:href="#font_4_79" transform="matrix(12.945021,0,0,-12.945021,65.53705,17.260029)"/>
<use data-text="d" xlink:href="#font_4_71" transform="matrix(12.945021,0,0,-12.945021,69.083988,17.260029)"/>
<use data-text="A" xlink:href="#font_4_36" transform="matrix(12.945021,0,0,-12.945021,187.55672,17.260029)"/>
<use data-text="b" xlink:href="#font_4_69" transform="matrix(12.945021,0,0,-12.945021,197.01953,17.260029)"/>
<use data-text="s" xlink:href="#font_4_86" transform="matrix(12.945021,0,0,-12.945021,204.69594,17.260029)"/>
<use data-text="t" xlink:href="#font_4_87" transform="matrix(12.945021,0,0,-12.945021,211.00016,17.260029)"/>
<use data-text="r" xlink:href="#font_4_85" transform="matrix(12.945021,0,0,-12.945021,217.09726,17.260029)"/>
<use data-text="a" xlink:href="#font_4_68" transform="matrix(12.945021,0,0,-12.945021,223.31087,17.260029)"/>
<use data-text="c" xlink:href="#font_4_70" transform="matrix(12.945021,0,0,-12.945021,230.5083,17.260029)"/>
<use data-text="t" xlink:href="#font_4_87" transform="matrix(12.945021,0,0,-12.945021,237.16205,17.260029)"/>
<use data-text="i" xlink:href="#font_4_76" transform="matrix(12.945021,0,0,-12.945021,243.25916,17.260029)"/>
<use data-text="o" xlink:href="#font_4_82" transform="matrix(12.945021,0,0,-12.945021,246.88378,17.260029)"/>
<use data-text="n" xlink:href="#font_4_81" transform="matrix(12.945021,0,0,-12.945021,253.69284,17.260029)"/>
<use data-text="S" xlink:href="#font_4_54" transform="matrix(12.945021,0,0,-12.945021,396.40757,17.260029)"/>
<use data-text="o" xlink:href="#font_4_82" transform="matrix(12.945021,0,0,-12.945021,405.37846,17.260029)"/>
<use data-text="f" xlink:href="#font_4_73" transform="matrix(12.945021,0,0,-12.945021,412.18757,17.260029)"/>
<use data-text="t" xlink:href="#font_4_87" transform="matrix(12.945021,0,0,-12.945021,418.7636,17.260029)"/>
<use data-text="w" xlink:href="#font_4_90" transform="matrix(12.945021,0,0,-12.945021,424.86073,17.260029)"/>
<use data-text="a" xlink:href="#font_4_68" transform="matrix(12.945021,0,0,-12.945021,433.71513,17.260029)"/>
<use data-text="r" xlink:href="#font_4_85" transform="matrix(12.945021,0,0,-12.945021,440.91258,17.260029)"/>
<use data-text="e" xlink:href="#font_4_72" transform="matrix(12.945021,0,0,-12.945021,447.1262,17.260029)"/>
<path transform="matrix(.7191678,0,0,.7191678,.3595839,.3595839)" d="M511 105V79H671V105" fill="#ffffff"/>
<path transform="matrix(.7191678,0,0,.7191678,.3595839,.3595839)" stroke-width="1" stroke-linecap="butt" stroke-miterlimit="10" stroke-linejoin="miter" fill="none" stroke="#000000" d="M511 105V79H671V105"/>
<path transform="matrix(.7191678,0,0,.7191678,.3595839,.3595839)" stroke-width="1" stroke-linecap="butt" stroke-miterlimit="10" stroke-linejoin="miter" fill="none" stroke="#000000" d="M511 105V149H671V105"/>
<path transform="matrix(.7191678,0,0,.7191678,.3595839,.3595839)" stroke-width="1" stroke-linecap="butt" stroke-miterlimit="10" stroke-linejoin="miter" fill="none" stroke="#000000" d="M511 105H671"/>
<use data-text="A" xlink:href="#font_4_36" transform="matrix(12.945021,0,0,-12.945021,404.69416,71.91679)"/>
<use data-text="n" xlink:href="#font_4_81" transform="matrix(12.945021,0,0,-12.945021,414.15696,71.91679)"/>
<use data-text="i" xlink:href="#font_4_76" transform="matrix(12.945021,0,0,-12.945021,420.92723,71.91679)"/>
<use data-text="m" xlink:href="#font_4_80" transform="matrix(12.945021,0,0,-12.945021,424.5518,71.91679)"/>
<use data-text="a" xlink:href="#font_4_68" transform="matrix(12.945021,0,0,-12.945021,434.6101,71.91679)"/>
<use data-text="l" xlink:href="#font_4_79" transform="matrix(12.945021,0,0,-12.945021,441.80754,71.91679)"/>
<path transform="matrix(.7191678,0,0,.7191678,.3595839,.3595839)" d="M511 207V181H671V207" fill="#ffffff"/>
<path transform="matrix(.7191678,0,0,.7191678,.3595839,.3595839)" stroke-width="1" stroke-linecap="butt" stroke-miterlimit="10" stroke-linejoin="miter" fill="none" stroke="#000000" d="M511 207V181H671V207"/>
<path transform="matrix(.7191678,0,0,.7191678,.3595839,.3595839)" stroke-width="1" stroke-linecap="butt" stroke-miterlimit="10" stroke-linejoin="miter" fill="none" stroke="#000000" d="M511 207V251H671V207"/>
<path transform="matrix(.7191678,0,0,.7191678,.3595839,.3595839)" stroke-width="1" stroke-linecap="butt" stroke-miterlimit="10" stroke-linejoin="miter" fill="none" stroke="#000000" d="M511 207H671"/>
<use data-text="T" xlink:href="#font_4_55" transform="matrix(12.945021,0,0,-12.945021,407.2288,145.2719)"/>
<use data-text="r" xlink:href="#font_4_85" transform="matrix(12.945021,0,0,-12.945021,416.23854,145.2719)"/>
<use data-text="u" xlink:href="#font_4_88" transform="matrix(12.945021,0,0,-12.945021,422.45216,145.2719)"/>
<use data-text="c" xlink:href="#font_4_70" transform="matrix(12.945021,0,0,-12.945021,429.18357,145.2719)"/>
<use data-text="k" xlink:href="#font_4_78" transform="matrix(12.945021,0,0,-12.945021,435.8373,145.2719)"/>
<path transform="matrix(.7191678,0,0,.7191678,.3595839,.3595839)" d="M511 315V289H671V315" fill="#ffffff"/>
<path transform="matrix(.7191678,0,0,.7191678,.3595839,.3595839)" stroke-width="1" stroke-linecap="butt" stroke-miterlimit="10" stroke-linejoin="miter" fill="none" stroke="#000000" d="M511 315V289H671V315"/>
<path transform="matrix(.7191678,0,0,.7191678,.3595839,.3595839)" stroke-width="1" stroke-linecap="butt" stroke-miterlimit="10" stroke-linejoin="miter" fill="none" stroke="#000000" d="M511 315V359H671V315"/>
<path transform="matrix(.7191678,0,0,.7191678,.3595839,.3595839)" stroke-width="1" stroke-linecap="butt" stroke-miterlimit="10" stroke-linejoin="miter" fill="none" stroke="#000000" d="M511 315H671"/>
<use data-text="H" xlink:href="#font_4_43" transform="matrix(12.945021,0,0,-12.945021,404.67835,222.94203)"/>
<use data-text="u" xlink:href="#font_4_88" transform="matrix(12.945021,0,0,-12.945021,414.6201,222.94203)"/>
<use data-text="m" xlink:href="#font_4_80" transform="matrix(12.945021,0,0,-12.945021,421.3515,222.94203)"/>
<use data-text="a" xlink:href="#font_4_68" transform="matrix(12.945021,0,0,-12.945021,431.4098,222.94203)"/>
<use data-text="n" xlink:href="#font_4_81" transform="matrix(12.945021,0,0,-12.945021,438.6072,222.94203)"/>
<g opacity=".2471">
<g clip-path="url(#clip_5)">
<path transform="matrix(.7191678,0,0,.7191678,1.7979195,2.5170875)" d="M151 171 211 211 151 251V171Z"/>
<path transform="matrix(.7191678,0,0,.7191678,1.7979195,2.5170875)" stroke-width="1" stroke-linecap="butt" stroke-miterlimit="10" stroke-linejoin="miter" fill="none" stroke="#000000" d="M151 171 211 211 151 251V171Z"/>
</g>
</g>
<path transform="matrix(.7191678,0,0,.7191678,.3595839,.3595839)" d="M151 171 211 211 151 251V171Z" fill="#dae8fc"/>
<path transform="matrix(.7191678,0,0,.7191678,.3595839,.3595839)" stroke-width="1" stroke-linecap="butt" stroke-miterlimit="10" stroke-linejoin="miter" fill="none" stroke="#6c8ebf" d="M151 171 211 211 151 251V171Z"/>
<g opacity=".2471">
<g clip-path="url(#clip_6)">
<path transform="matrix(.7191678,0,0,.7191678,1.7979195,2.5170875)" d="M401 171 461 211 401 251V171Z"/>
<path transform="matrix(.7191678,0,0,.7191678,1.7979195,2.5170875)" stroke-width="1" stroke-linecap="butt" stroke-miterlimit="10" stroke-linejoin="miter" fill="none" stroke="#000000" d="M401 171 461 211 401 251V171Z"/>
</g>
</g>
<path transform="matrix(.7191678,0,0,.7191678,.3595839,.3595839)" d="M401 171 461 211 401 251V171Z" fill="#dae8fc"/>
<path transform="matrix(.7191678,0,0,.7191678,.3595839,.3595839)" stroke-width="1" stroke-linecap="butt" stroke-miterlimit="10" stroke-linejoin="miter" fill="none" stroke="#6c8ebf" d="M401 171 461 211 401 251V171Z"/>
</g>
</g>
</svg>
