<svg xmlns="http://www.w3.org/2000/svg" xmlns:xlink="http://www.w3.org/1999/xlink" xmlns:inkscape="http://www.inkscape.org/namespaces/inkscape" version="1.1" width="28.08" height="72.96" viewBox="0 0 28.08 72.96">
<defs>
<clipPath id="clip_1">
<path transform="matrix(.24,0,0,.24,0,0)" d="M0 0H116.66666V303.3333H0Z" clip-rule="evenodd"/>
</clipPath>
<clipPath id="clip_2">
<path transform="matrix(.24,0,0,.24,0,0)" d="M0 0H116.66666V291.66667H0Z" clip-rule="evenodd"/>
</clipPath>
</defs>
<g clip-path="url(#clip_1)">
<path transform="matrix(.6999999,0,0,.6999999,0,0)" d="M0 0H40V104H0Z" fill="#ffffff"/>
</g>
<g clip-path="url(#clip_2)">
<path transform="matrix(.6999999,0,0,.6999999,.34999997,.34999997)" d="M27.111767 9.09C27.111765 9.621133 27.05981 10.147162 26.9559 10.668089 26.85199 11.189015 26.69812 11.694829 26.494294 12.185532 26.290467 12.676234 26.040598 13.142396 25.744687 13.584017 25.448777 14.025636 25.112509 14.43423 24.735886 14.809797 24.359263 15.185364 23.949519 15.520688 23.506657 15.815769 23.063794 16.110852 22.596322 16.36002 22.104239 16.563277 21.612156 16.766531 21.104918 16.919968 20.582526 17.023587 20.060135 17.127205 19.532626 17.179015 19 17.179017 18.467373 17.179015 17.939864 17.127205 17.41747 17.023587 16.895079 16.919968 16.38784 16.766531 15.895759 16.563277 15.403676 16.36002 14.936204 16.110852 14.493341 15.815772 14.050479 15.520691 13.640737 15.185366 13.264113 14.809798 12.887489 14.434231 12.551222 14.025637 12.25531 13.584016 11.959399 13.142395 11.709531 12.676234 11.505703 12.185532 11.301875 11.694829 11.148007 11.189015 11.044098 10.668089 10.9401869 10.147162 10.888231 9.621133 10.888232 9.09 10.888231 8.558867 10.9401869 8.032838 11.044097 7.5119116 11.148006 6.9909846 11.301875 6.48517 11.505703 5.9944679 11.709531 5.503765 11.959399 5.037604 12.25531 4.5959837 12.551222 4.154363 12.887489 3.7457696 13.264113 3.3702026 13.640737 2.9946354 14.050479 2.659311 14.493341 2.3642297 14.936204 2.0691486 15.403676 1.81998 15.895759 1.6167245 16.38784 1.413469 16.895079 1.2600319 17.41747 1.1564132 17.939864 1.0527945 18.467373 1.0009852 19 1.0009852 19.532626 1.0009852 20.060135 1.0527945 20.582526 1.1564132 21.104918 1.2600319 21.612156 1.413469 22.104239 1.6167245 22.596322 1.81998 23.063794 2.0691486 23.506655 2.3642297 23.949519 2.659311 24.359263 2.9946354 24.735886 3.3702026 25.112509 3.7457696 25.448777 4.154363 25.744687 4.5959837 26.040598 5.037604 26.290467 5.503765 26.494294 5.9944679 26.69812 6.48517 26.85199 6.990984 26.9559 7.511911 27.05981 8.032838 27.111765 8.558867 27.111767 9.09Z"/>
<path transform="matrix(.6999999,0,0,.6999999,.34999997,.34999997)" d="M9.42 94.52C9.42 96.99 11.46 99 13.96 99 16.48 99 18.52 97 18.52 94.52V56.96H20.54L20.53 94.52C20.53 96.99 22.57 99 25.08 99 27.58 99 29.62 97 29.62 94.52L29.64 29.76H31.64V53.63C31.64 58.43 38 58.43 37.98 53.63V29.25C37.98 23.95 34.82 18.75 28.52 18.75L10.33 18.73C4.59 18.73 1 23.34 1 29.1V53.63C1 58.4 7.39 58.4 7.39 53.63V29.76H9.43L9.42 94.52Z"/>
</g>
</svg>
