<svg xmlns="http://www.w3.org/2000/svg" xmlns:xlink="http://www.w3.org/1999/xlink" xmlns:inkscape="http://www.inkscape.org/namespaces/inkscape" version="1.1" width="562.08" height="118.079998" viewBox="0 0 562.08 118.079998">
<defs>
<clipPath id="clip_1">
<path transform="matrix(.24,0,0,.24,0,0)" d="M0 0H2341.6666V491.0912H0Z" clip-rule="evenodd"/>
</clipPath>
<clipPath id="clip_2">
<path transform="matrix(.24,0,0,.24,0,0)" d="M0 0H2341.6666V485.10227H0Z" clip-rule="evenodd"/>
</clipPath>
<path id="font_3_54" d="M.036132814 .23242188 .17675781 .24609375C.18522136 .19872029 .20239258 .16392517 .22827149 .14170838 .2541504 .11950175 .2890625 .10839844 .3330078 .10839844 .37955729 .10839844 .41463218 .11827596 .43823243 .138031 .46183268 .15778606 .4736328 .18089295 .4736328 .20735169 .4736328 .22432964 .4686686 .23877461 .45874024 .25068666 .44881187 .26260887 .43147788 .27297975 .40673829 .28179933 .3898112 .28766886 .35123698 .29810588 .29101563 .31311036 .21354167 .33235679 .15917969 .3560079 .12792969 .38406373 .083984378 .4235331 .06201172 .47164408 .06201172 .5283966 .06201172 .56492617 .07234701 .5990906 .09301758 .6308899 .11368815 .6626994 .14347331 .68692019 .18237305 .70355227 .22127278 .7201945 .26822917 .7285156 .3232422 .7285156 .41308595 .7285156 .4807129 .70873007 .52612307 .66915896 .5715332 .62959799 .5953776 .5767924 .59765627 .5107422L.453125 .5048828C.4469401 .5416667 .43367515 .56811526 .41333009 .5842285 .39298503 .6003418 .36246745 .60839846 .32177735 .60839846 .27978517 .60839846 .24690755 .599767 .22314453 .5825043 .20784505 .5714366 .20019531 .5566203 .20019531 .5380554 .20019531 .52111819 .20735677 .5066274 .22167969 .49458314 .23990886 .47927348 .2841797 .4633026 .3544922 .44667054 .4248047 .43003846 .47680665 .41283164 .51049807 .39505006 .54418948 .37727867 .57055667 .35298158 .5895996 .3221588 .6086426 .29134623 .61816409 .25327049 .61816409 .20793152 .61816409 .16684468 .6067708 .12836202 .5839844 .09248352 .56119796 .056605024 .5289714 .029942831 .4873047 .012496948 .44563804-.004948934 .39371745-.013671875 .33154298-.013671875 .24104817-.013671875 .17154949 .007283529 .123046878 .049194337 .07454427 .09110514 .045572919 .15218099 .036132814 .23242188Z"/>
<path id="font_3_76" d="M.071777347 .5888672V.7158203H.20898438V.5888672H.071777347M.071777347 0V.5185547H.20898438V0H.071777347Z"/>
<path id="font_3_80" d="M.061523439 .5185547H.18798828V.4477539C.23323567 .5027669 .28710938 .53027346 .34960938 .53027346 .3828125 .53027346 .4116211 .523407 .43603517 .5096741 .46044923 .49594117 .48046876 .47517396 .49609376 .44737245 .5188802 .47517396 .54345706 .49594117 .5698242 .5096741 .5961914 .523407 .62434896 .53027346 .6542969 .53027346 .6923828 .53027346 .7246094 .5225423 .75097659 .5070801 .77734377 .49161784 .7970378 .46891276 .8100586 .43896485 .8194987 .41682945 .82421877 .38102214 .82421877 .33154298V0H.6870117V.29605104C.6870117 .34742228 .6822917 .38058473 .67285159 .39553834 .66015627 .41504923 .640625 .4248047 .6142578 .4248047 .59505209 .4248047 .57698568 .4189504 .5600586 .40724183 .54313156 .39554344 .5309245 .37839256 .5234375 .35578919 .5159505 .333196 .51220706 .29751078 .51220706 .24873352V0H.375V.28385926C.375 .33425395 .3725586 .36676536 .36767579 .38139344 .36279298 .3960317 .3552246 .40692649 .3449707 .41407777 .3347168 .42122904 .32080079 .4248047 .30322267 .4248047 .2820638 .4248047 .26302085 .41911317 .24609375 .4077301 .22916667 .3963572 .21704102 .37993876 .2097168 .35847474 .20239258 .3370107 .19873047 .30140687 .19873047 .2516632V0H.061523439V.5185547Z"/>
<path id="font_3_88" d="M.41308595 0V.07763672C.39420573 .04996745 .36938478 .028157553 .33862306 .012207031 .30786134-.0037434896 .27539063-.01171875 .24121094-.01171875 .2063802-.01171875 .1751302-.0040690104 .14746094 .011230469 .119791667 .026529948 .09977213 .048014326 .087402347 .075683597 .075032558 .10335287 .068847659 .14160156 .068847659 .19042969V.5185547H.20605469V.28082276C.20605469 .20806885 .20857747 .16349285 .21362305 .14709473 .21866863 .13069661 .22786458 .1177063 .24121094 .10812378 .25455729 .09854126 .27148438 .09375 .2919922 .09375 .3154297 .09375 .33642579 .10016378 .35498048 .11299133 .37353517 .1258189 .38623048 .14173381 .3930664 .16073609 .39990235 .17973836 .4033203 .2262624 .4033203 .30030824V.5185547H.54052737V0H.41308595Z"/>
<path id="font_3_79" d="M.071777347 0V.7158203H.20898438V0H.071777347Z"/>
<path id="font_3_68" d="M.1743164 .35839845 .049804689 .38085938C.063802089 .4316508 .087890628 .46924845 .12207031 .49365235 .15625 .5180664 .20703125 .53027346 .27441407 .53027346 .33561198 .53027346 .3811849 .5230306 .4111328 .5085449 .44108073 .49405924 .4621582 .47566734 .47436524 .45336915 .48657228 .43107096 .49267579 .39013673 .49267579 .3305664L.49121095 .17041016C.49121095 .12483724 .4934082 .09122721 .49780274 .06958008 .50219729 .04793294 .5104167 .024739584 .52246096 0H.38671876C.38313804 .009114583 .3787435 .022623698 .37353517 .040527345 .3712565 .048665365 .3696289 .054036458 .36865235 .056640626 .34521485 .033854169 .32014976 .016764323 .29345704 .0053710939 .2667643-.0060221354 .23828125-.01171875 .20800781-.01171875 .15462239-.01171875 .11254883 .0027058919 .08178711 .031555177 .05102539 .06040446 .03564453 .09687296 .03564453 .1409607 .03564453 .1701355 .04264323 .19614665 .056640626 .21899414 .07063802 .2418518 .09025065 .25935874 .115478519 .2715149 .14070638 .28367106 .17708333 .2942861 .22460938 .30336 .28873698 .3153534 .33317057 .3265381 .35791017 .33691407V.35073854C.35791017 .37740074 .35139976 .39640809 .3383789 .40776063 .32535807 .41912333 .30078126 .4248047 .26464845 .4248047 .24023438 .4248047 .2211914 .41989137 .20751953 .4100647 .19384766 .4002482 .18277996 .38302613 .1743164 .35839845M.35791017 .24707031C.34033204 .24128215 .3125 .23436482 .27441407 .22631836 .23632813 .21828206 .21142578 .21040344 .19970703 .2026825 .18180339 .19013977 .17285156 .17421977 .17285156 .15492249 .17285156 .13594055 .18001302 .119532268 .19433594 .10569763 .20865886 .09187317 .22688802 .08496094 .24902344 .08496094 .27376304 .08496094 .29736329 .09300232 .31982423 .10908508 .33642579 .121302288 .34733073 .13626099 .35253907 .15396118 .35611979 .16553752 .35791017 .18756612 .35791017 .220047V.24707031Z"/>
<path id="font_3_87" d="M.3095703 .5185547V.4091797H.21582031V.200531C.21582031 .15827434 .2167155 .13365174 .21850586 .12666321 .22029622 .11968485 .22436524 .11391703 .23071289 .10935974 .23706055 .10481262 .24479167 .10253906 .25390626 .10253906 .26660157 .10253906 .2849935 .106933597 .30908204 .115722659L.32080079 .008880615C.28889976-.004852295 .25276695-.01171875 .21240235-.01171875 .18766277-.01171875 .16536458-.0075683596 .14550781 .0007324219 .12565105 .009033203 .111083988 .01977539 .10180664 .032958986 .0925293 .046142579 .08610026 .063964847 .08251953 .08642578 .079589847 .102376308 .078125 .13460286 .078125 .18310547V.4091797H.015136719V.5185547H.078125V.6220703L.21582031 .703125V.5185547H.3095703Z"/>
<path id="font_3_78" d="M.06689453 0V.7158203H.20410156V.3359375L.3647461 .5185547H.5336914L.3564453 .32902528 .5463867 0H.3984375L.2680664 .23297119 .20410156 .16601563V0H.06689453Z"/>
<path id="font_3_38" d="M.5307617 .26367188 .67089846 .21972656C.64941409 .1411031 .6136882 .082707729 .5637207 .044540407 .51375326 .0063832604 .45035807-.0126953129 .37353517-.0126953129 .27848307-.0126953129 .20035808 .01981608 .13916016 .08483887 .07796224 .14987183 .04736328 .23877461 .04736328 .35154725 .04736328 .47085063 .078125 .563502 .13964844 .62950137 .20117188 .69551089 .2820638 .7285156 .38232423 .7285156 .4698893 .7285156 .5410156 .7025757 .5957031 .6506958 .6282552 .62002566 .65266928 .5759786 .6689453 .5185547L.5258789 .484375C.51741537 .5214844 .49975587 .55078127 .4729004 .5722656 .44604493 .59375 .41341148 .6044922 .375 .6044922 .3219401 .6044922 .27888999 .5854492 .24584961 .5473633 .21280925 .50927737 .19628906 .44759117 .19628906 .3623047 .19628906 .2718099 .21256511 .20735677 .24511719 .16894531 .27766929 .13053386 .31998698 .111328128 .3720703 .111328128 .41048179 .111328128 .44352214 .12357076 .4711914 .14805603 .4988607 .17255147 .51871749 .21109009 .5307617 .26367188Z"/>
<path id="font_3_14" d="M.2290039 .103515628V.2890625H.041503908V.41796876H.2290039V.6035156H.3540039V.41796876H.5419922V.2890625H.3540039V.103515628H.2290039Z"/>
<path id="font_3_45" d="M.3310547 .7158203H.47509767V.26239015C.47509767 .20310466 .4698893 .15750122 .45947267 .12557984 .44547526 .08388265 .42008464 .050409955 .38330079 .025161744 .34651695-.000076293948 .2980143-.0126953129 .23779297-.0126953129 .16715496-.0126953129 .11279297 .0071614587 .07470703 .046875 .036621095 .08659872 .017415366 .14486695 .017089844 .22167969L.15332031 .23730469C.15494792 .1961263 .16097005 .16704305 .17138672 .15005493 .18701172 .12423706 .21077474 .111328128 .24267578 .111328128 .27490235 .111328128 .2976888 .120524089 .31103517 .13891602 .3243815 .15730794 .3310547 .19547527 .3310547 .25341798V.7158203Z"/>
<path id="font_3_89" d="M.21435547 0 .0053710939 .5185547H.14941406L.24707031 .25390626 .27539063 .16552735C.2828776 .18798828 .28759767 .20279949 .28955079 .20996094 .29410807 .22460938 .29899089 .23925781 .30419923 .25390626L.40283204 .5185547H.5439453L.33789063 0H.21435547Z"/>
<path id="font_3_56" d="M.071777347 .7158203H.2163086V.328125C.2163086 .26660157 .21809896 .22672527 .22167969 .2084961 .22786458 .17919922 .2425944 .15568035 .26586915 .13793946 .2891439 .12019857 .32096354 .111328128 .36132813 .111328128 .40234376 .111328128 .43326823 .11971029 .45410157 .13647461 .4749349 .15323894 .48746745 .17382813 .49169923 .19824219 .495931 .22265625 .49804688 .2631836 .49804688 .31982423V.7158203H.6425781V.33958436C.6425781 .25359599 .6386719 .19284566 .6308594 .15733338 .6230469 .12183126 .6086426 .091863 .5876465 .06742859 .5666504 .043004354 .5385742 .023544312 .50341799 .009048462 .46826173-.0054473879 .42236329-.0126953129 .36572267-.0126953129 .29736329-.0126953129 .2455241-.004796346 .21020508 .011001587 .17488607 .02679952 .14697266 .047317506 .12646485 .07255554 .10595703 .09780375 .092447917 .12427267 .0859375 .15196228 .0764974 .19300843 .071777347 .25359599 .071777347 .33372499V.7158203Z"/>
<path id="font_3_48" d="M.07080078 0V.7158203H.28710938L.4169922 .22753906 .54541018 .7158203H.76220706V0H.6279297V.56347659L.48583985 0H.3466797L.20507813 .56347659V0H.07080078Z"/>
<path id="font_3_47" d="M.076660159 0V.70996096H.2211914V.12109375H.5805664V0H.076660159Z"/>
<path id="font_3_3" d="M0 0Z"/>
<path id="font_3_21" d="M.5058594 .12792969V0H.024902344C.030110678 .048136396 .045735677 .09375 .071777347 .13684082 .09781901 .17994182 .1492513 .2371114 .22607422 .3083496 .2879232 .36591593 .32584635 .40494285 .33984376 .4254303 .35872398 .45373027 .36816407 .4817047 .36816407 .50935366 .36816407 .53993228 .35994468 .5634308 .34350587 .57984927 .32706706 .5962779 .30436198 .6044922 .27539063 .6044922 .2467448 .6044922 .22395833 .5958252 .20703125 .5784912 .19010417 .5611674 .18033855 .5323995 .17773438 .4921875L.041015626 .5059204C.049153646 .5817668 .07470703 .63619998 .11767578 .66922 .16064453 .70224 .21435547 .71875 .2788086 .71875 .34944663 .71875 .4049479 .6997223 .4453125 .66166689 .4856771 .62361147 .5058594 .5762889 .5058594 .5196991 .5058594 .4874929 .50008139 .4568329 .4885254 .42771913 .4769694 .3986155 .45865885 .36812846 .43359376 .33625794 .4169922 .31510926 .38704429 .2846934 .34375 .24501038 .30045573 .20533753 .2730306 .17899578 .2614746 .1659851 .24991863 .15297444 .24055989 .1402893 .23339844 .12792969H.5058594Z"/>
<path id="font_4_20" d="M.3725586 0H.28466798V.5600586C.26350913 .5398763 .23575847 .51969406 .20141602 .49951173 .16707357 .47932945 .13623047 .46419273 .10888672 .45410157V.5390625C.15804036 .5621745 .20100911 .59016928 .23779297 .6230469 .2745768 .6559245 .3006185 .6878255 .31591798 .71875H.3725586V0Z"/>
<path id="font_4_28" d="M.0546875 .16694641 .13916016 .17480469C.14632161 .13509114 .15999349 .106282558 .18017578 .088378909 .20035808 .07047526 .22623699 .061523439 .2578125 .061523439 .28483073 .061523439 .30851237 .067708339 .32885743 .080078128 .34920249 .092447917 .3658854 .1089681 .37890626 .12963867 .3919271 .15030925 .40283204 .17822266 .4116211 .2133789 .42041017 .24853516 .4248047 .28434245 .4248047 .32080079 .4248047 .32470704 .42464195 .3305664 .4243164 .3383789 .40673829 .31038413 .3827311 .28767906 .35229493 .27026368 .32185874 .2528483 .28889976 .24414063 .25341798 .24414063 .19417317 .24414063 .14404297 .26555888 .103027347 .3083954 .06201172 .3512319 .041503908 .40769959 .041503908 .47779847 .041503908 .55016586 .0629069 .6084137 .10571289 .6525421 .14851888 .6966807 .20214844 .71875 .26660157 .71875 .31315104 .71875 .3557129 .70622256 .3942871 .6811676 .43286134 .65612289 .4621582 .62042239 .48217774 .57406619 .50219729 .52770999 .51220706 .46061708 .51220706 .37278749 .51220706 .28137718 .5022786 .20858765 .48242188 .15441895 .4625651 .100260417 .43302409 .05903117 .39379884 .030731202 .35457359 .0024312337 .30859376-.01171875 .25585938-.01171875 .1998698-.01171875 .15413411 .00390625 .118652347 .03515625 .08317057 .06640625 .061848958 .1103363 .0546875 .16694641M.41455079 .48194886C.41455079 .5320994 .40112306 .57189437 .37426759 .6013336 .3474121 .6307831 .31510417 .6455078 .27734376 .6455078 .23828125 .6455078 .20426433 .62965396 .17529297 .59794619 .14632161 .5662384 .13183594 .5251465 .13183594 .4746704 .13183594 .42936198 .14558919 .3925527 .1730957 .36424256 .20060222 .3359324 .23453777 .32177735 .27490235 .32177735 .31559245 .32177735 .3490397 .3359324 .37524415 .36424256 .40144859 .3925527 .41455079 .43178813 .41455079 .48194886Z"/>
<path id="font_4_25" d="M.4975586 .5400543 .41015626 .5332031C.40234376 .5675557 .39127604 .59251406 .37695313 .608078 .3531901 .6330312 .32389323 .6455078 .2890625 .6455078 .26106773 .6455078 .23649089 .637736 .21533203 .6221924 .18766277 .602122 .16585286 .57282 .14990235 .5342865 .13395183 .49575297 .12565105 .4408671 .125 .3696289 .14615886 .40185548 .17203777 .42578126 .20263672 .44140626 .23323567 .45703126 .26529948 .46484376 .29882813 .46484376 .35742188 .46484376 .40730796 .44327799 .44848634 .40014649 .4896647 .35701499 .5102539 .30126954 .5102539 .23291016 .5102539 .18798828 .50056967 .14624024 .48120118 .107666019 .46183268 .0690918 .43522135 .03955078 .4013672 .019042969 .36751304-.0014648438 .32910157-.01171875 .2861328-.01171875 .21289063-.01171875 .15315755 .015197754 .106933597 .06903076 .060709638 .12287394 .037597658 .2116038 .037597658 .33522035 .037597658 .47347514 .06315104 .57399496 .11425781 .6367798 .15885417 .6914266 .21891277 .71875 .2944336 .71875 .3507487 .71875 .39689128 .70292159 .43286134 .67126467 .4688314 .6396077 .49039714 .595871 .4975586 .5400543M.13867188 .23287964C.13867188 .20269776 .1451009 .17381287 .15795899 .14622498 .17081706 .118637088 .18880208 .09762064 .21191406 .08317566 .23502605 .068740848 .25927735 .061523439 .28466798 .061523439 .32177735 .061523439 .35367839 .07645162 .3803711 .10630798 .4070638 .13616435 .42041017 .17673238 .42041017 .22801209 .42041017 .27734886 .40722657 .31621299 .38085938 .3446045 .3544922 .3730062 .32128907 .38720704 .28125 .38720704 .24153646 .38720704 .20784505 .3730062 .18017578 .3446045 .15250652 .31621299 .13867188 .27897135 .13867188 .23287964Z"/>
<path id="font_4_26" d="M.04736328 .6225586V.70703127H.5107422V.6386719C.46516929 .5901286 .42000328 .5256246 .37524415 .4451599 .33048503 .36469523 .29589845 .2819519 .27148438 .19692993 .25390626 .13698323 .24267578 .07133993 .23779297 0H.14746094C.1484375 .056355794 .1595052 .12444051 .18066406 .20425415 .20182292 .28407798 .23217774 .3610433 .27172853 .43515016 .3112793 .50926718 .35335288 .57173666 .39794923 .6225586H.04736328Z"/>
<path id="font_4_21" d="M.50341799 .084472659V0H.030273438C.029622397 .021148682 .033040365 .041483564 .040527345 .06100464 .052571615 .09321085 .07185873 .124928798 .09838867 .15615845 .12491862 .1873881 .1632487 .22350057 .2133789 .26449586 .29117839 .3282369 .34375 .37872825 .37109376 .41596986 .3984375 .45321147 .41210938 .48841859 .41210938 .5215912 .41210938 .5563914 .3996582 .5857442 .37475587 .60964968 .34985353 .6335551 .3173828 .6455078 .27734376 .6455078 .23502605 .6455078 .20117188 .6328125 .17578125 .6074219 .15039063 .58203127 .13753255 .546875 .13720703 .5019531L.046875 .5112457C.053059896 .5787811 .07633463 .630249 .11669922 .6656494 .1570638 .7010498 .21126302 .71875 .27929688 .71875 .34798179 .71875 .40234376 .69970199 .4423828 .66160586 .48242188 .6235097 .5024414 .57629397 .5024414 .5199585 .5024414 .4913025 .49658204 .46313478 .48486329 .43545533 .47314454 .40777589 .45369468 .3786316 .42651368 .34802247 .39933268 .3174235 .35416667 .27542115 .29101563 .22201538 .23828125 .17779541 .20442708 .14779663 .18945313 .13201905 .17447917 .116251628 .16210938 .10040283 .15234375 .084472659H.50341799Z"/>
<path id="font_4_47" d="M.07324219 0V.7158203H.16796875V.084472659H.5205078V0H.07324219Z"/>
<path id="font_4_68" d="M.40429688 .06402588C.37174479 .03633626 .34041343 .016789755 .31030274 .0053863527 .28019206-.0060170495 .24788411-.01171875 .2133789-.01171875 .15641277-.01171875 .11263021 .0022074383 .08203125 .030059815 .051432294 .05791219 .036132814 .09350077 .036132814 .13682556 .036132814 .16222637 .04191081 .18542989 .053466798 .20643616 .06502279 .22745259 .08015951 .24431356 .09887695 .25701905 .1175944 .26972453 .13867188 .2793325 .16210938 .2858429 .17936199 .29041038 .20540364 .29480998 .24023438 .29904176 .3111979 .30744425 .363444 .3174642 .39697267 .32910157 .3972982 .34109498 .39746095 .3487142 .39746095 .35195924 .39746095 .38763429 .38916017 .4127655 .3725586 .4273529 .35009767 .44713847 .31673179 .45703126 .27246095 .45703126 .2311198 .45703126 .20060222 .44978843 .1809082 .43530274 .16121419 .42081706 .14664714 .39518229 .13720703 .35839845L.05126953 .3701172C.05908203 .40701295 .0719401 .43680827 .08984375 .45950318 .1077474 .4821981 .1336263 .4996643 .16748047 .51190188 .20133464 .5241496 .24055989 .53027346 .28515626 .53027346 .3294271 .53027346 .36539714 .5250651 .3930664 .51464846 .4207357 .50423178 .44108073 .49112956 .45410157 .4753418 .4671224 .45955406 .47623698 .43961589 .4814453 .41552735 .484375 .40055339 .48583985 .37353517 .48583985 .33447267V.21728516C.48583985 .13557942 .48771159 .08390299 .49145509 .06225586 .49519859 .040608724 .5026042 .019856772 .5136719 0H.421875C.4127604 .018249512 .40690104 .039591474 .40429688 .06402588M.39697267 .2607422C.36507163 .24760945 .31722007 .2364502 .25341798 .2272644 .21728516 .22203572 .19173177 .21615093 .17675781 .20960999 .16178386 .20307923 .15022786 .19351705 .14208985 .18092346 .13395183 .16834004 .12988281 .15436809 .12988281 .13900757 .12988281 .115478519 .13875325 .09586588 .15649414 .08016968 .17423503 .06448364 .20019531 .056640626 .234375 .056640626 .26822917 .056640626 .29833985 .064081829 .32470704 .07896423 .35107423 .09384664 .37044273 .11420695 .3828125 .14004517 .3922526 .16000366 .39697267 .18944295 .39697267 .22836304V.2607422Z"/>
<path id="font_4_87" d="M.2578125 .07763672 .2705078 0C.24576824-.0045572917 .22363281-.0068359377 .20410156-.0068359377 .17220052-.0068359377 .14746094-.0017903646 .12988281 .008300781 .11230469 .018391928 .0999349 .031656904 .09277344 .048095704 .08561198 .06453451 .08203125 .099121097 .08203125 .15185547V.4501953H.017578125V.5185547H.08203125V.6473236L.1694336 .7001953V.5185547H.2578125V.4501953H.1694336V.14697266C.1694336 .121907558 .17097982 .10579427 .17407227 .09863281 .17716472 .09147135 .18221028 .08577474 .18920899 .08154297 .19620769 .077311199 .20621746 .07519531 .21923828 .07519531 .2290039 .07519531 .24186199 .07600912 .2578125 .07763672Z"/>
<path id="font_4_72" d="M.42089845 .16699219 .51171877 .15576172C.49739585 .10270182 .47086589 .061523439 .4321289 .032226564 .39339195 .0029296876 .34391276-.01171875 .2836914-.01171875 .20784505-.01171875 .14770508 .01163737 .103271488 .05834961 .05883789 .10506185 .036621095 .17057292 .036621095 .2548828 .036621095 .3421224 .05908203 .40983073 .104003909 .4580078 .14892578 .5061849 .20719402 .53027346 .2788086 .53027346 .34814454 .53027346 .40478517 .5067088 .44873048 .45957948 .49267579 .41246034 .51464846 .34616599 .51464846 .2606964 .51464846 .25549827 .51448568 .247701 .51416018 .23730469H.1274414C.13069661 .1805013 .14680989 .13700359 .17578125 .10681152 .20475261 .07661947 .24088542 .061523439 .2841797 .061523439 .31640626 .061523439 .34391276 .0699056 .36669923 .08666992 .3894857 .10344442 .4075521 .1302185 .42089845 .16699219M.13232422 .31054688H.421875C.41796876 .3534546 .40690104 .38563539 .38867188 .40708924 .3606771 .4403839 .3243815 .45703126 .27978517 .45703126 .23942058 .45703126 .20548503 .44374085 .17797852 .41716004 .150472 .3905894 .1352539 .35505168 .13232422 .31054688Z"/>
<path id="font_4_3" d="M0 0Z"/>
<path id="font_4_27" d="M.17675781 .38916017C.14029949 .40246583 .11328125 .42145286 .095703128 .44612123 .078125 .47078959 .06933594 .5003255 .06933594 .534729 .06933594 .5866597 .08805338 .63031008 .12548828 .66567996 .16292317 .70106 .21272786 .71875 .27490235 .71875 .33740235 .71875 .3876953 .7006531 .42578126 .6644592 .4638672 .6282756 .48291017 .5842183 .48291017 .5322876 .48291017 .4991862 .47420249 .4703827 .4567871 .44587709 .43937174 .42137147 .4129232 .40246583 .3774414 .38916017 .42138673 .3748169 .45483399 .3516744 .4777832 .31973268 .5007324 .28780113 .51220706 .24966939 .51220706 .20533753 .51220706 .1440684 .4905599 .09257507 .44726563 .050857545 .40397135 .009140015 .34700523-.01171875 .2763672-.01171875 .20572917-.01171875 .14876302 .009221395 .10546875 .051101686 .06217448 .09298197 .040527345 .14521282 .040527345 .20779419 .040527345 .25439454 .052327474 .29342143 .075927738 .32487489 .09952799 .35632835 .13313802 .37775675 .17675781 .38916017M.15917969 .53707888C.15917969 .5035197 .17008464 .47608949 .19189453 .4547882 .21370442 .4334971 .24202474 .42285157 .27685548 .42285157 .31070964 .42285157 .3384603 .4334208 .36010743 .45455934 .38175456 .47569786 .39257813 .501592 .39257813 .5322418 .39257813 .5641937 .38142906 .5910594 .35913087 .61283877 .33683268 .6346181 .30908204 .6455078 .2758789 .6455078 .24235027 .6455078 .21451824 .6348572 .19238281 .6135559 .17024739 .59226486 .15917969 .56677249 .15917969 .53707888M.13085938 .20776367C.13085938 .18273926 .13680013 .15852864 .14868164 .13513184 .16056316 .11173502 .17822266 .09361776 .20166016 .08078003 .22509766 .0679423 .25032554 .061523439 .27734376 .061523439 .31933595 .061523439 .3540039 .07500712 .38134767 .10197449 .4086914 .12895203 .42236329 .16323853 .42236329 .20483399 .42236329 .24708049 .40828453 .28201295 .38012696 .30963136 .3519694 .33725993 .31673179 .35107423 .27441407 .35107423 .23307292 .35107423 .19881185 .3374227 .17163086 .31011964 .14444988 .28282676 .13085938 .24870809 .13085938 .20776367Z"/>
<path id="font_4_19" d="M.041503908 .35327149C.041503908 .43784587 .05021159 .50591537 .06762695 .55747988 .08504232 .6090444 .11092123 .6488139 .14526367 .67678835 .17960613 .70476278 .22281902 .71875 .27490235 .71875 .3133138 .71875 .34700523 .711024 .37597657 .6955719 .4049479 .6801198 .4288737 .6578369 .4477539 .62872317 .46663413 .5996094 .4814453 .56414797 .4921875 .52233889 .5029297 .48053996 .5083008 .42418418 .5083008 .35327149 .5083008 .26934815 .49967448 .2016042 .48242188 .15003968 .46516929 .098475139 .43937174 .058624269 .4050293 .03048706 .37068687 .0023498536 .3273112-.01171875 .27490235-.01171875 .20589192-.01171875 .1516927 .013005574 .11230469 .062454225 .065104167 .12198385 .041503908 .21892293 .041503908 .35327149M.13183594 .35351563C.13183594 .23639934 .14558919 .15845235 .1730957 .11967468 .20060222 .08090719 .23453777 .061523439 .27490235 .061523439 .31526695 .061523439 .34920249 .08098856 .37670899 .11991882 .40421549 .15884908 .41796876 .23671468 .41796876 .35351563 .41796876 .47095744 .40421549 .5489807 .37670899 .58758547 .34920249 .6262004 .3149414 .6455078 .27392579 .6455078 .2335612 .6455078 .20133464 .62847396 .1772461 .5944061 .14697266 .5509288 .13183594 .47063194 .13183594 .35351563Z"/>
<path id="font_4_86" d="M.030761719 .15527344 .11767578 .16894531C.122558597 .13426717 .1361491 .107691448 .15844727 .08921814 .18074544 .070755008 .21191406 .061523439 .25195313 .061523439 .29231773 .061523439 .32226563 .06967672 .34179688 .08598328 .36132813 .10230001 .37109376 .12143453 .37109376 .14338684 .37109376 .16309102 .36246745 .17859395 .34521485 .18989563 .33317057 .1976471 .30322267 .20749919 .2553711 .2194519 .19091797 .23573812 .14624024 .24982707 .12133789 .26171876 .09643555 .27361045 .077555339 .29006449 .064697269 .31108094 .05183919 .33209739 .045410158 .35531108 .045410158 .38072206 .045410158 .40385438 .05069987 .4252777 .061279298 .44499208 .07185873 .46470643 .08626302 .4810791 .10449219 .4941101 .11816406 .5042114 .13680013 .5127614 .16040039 .51976016 .18400066 .526769 .20930989 .53027346 .23632813 .53027346 .27701823 .53027346 .31274415 .52437338 .34350587 .51257327 .37426759 .50078329 .39697267 .48480735 .4116211 .4646454 .42626954 .44449363 .4363607 .4175415 .44189454 .38378907L.35595704 .3720703C.35205079 .39876304 .34073893 .41959635 .32202149 .4345703 .30330406 .44954429 .27685548 .45703126 .24267578 .45703126 .2023112 .45703126 .17350261 .45038859 .15625 .43710328 .13899739 .42382813 .1303711 .40827943 .1303711 .39045716 .1303711 .37912498 .13395183 .3689219 .14111328 .35984803 .14827474 .35045878 .1595052 .34268699 .17480469 .3365326 .18359375 .33328758 .20947266 .32583619 .2524414 .31417848 .31461589 .29758708 .35799156 .28400675 .38256837 .2734375 .40714518 .26286827 .42643229 .24749756 .4404297 .22732544 .4544271 .2071635 .46142579 .18212383 .46142579 .15220642 .46142579 .12292989 .45288087 .09536234 .43579103 .069503787 .41870118 .043655397 .39404298 .02365621 .3618164 .009506226 .32958985-.0046437585 .2931315-.01171875 .2524414-.01171875 .1850586-.01171875 .13370769 .002319336 .09838867 .030395508 .063069667 .05847168 .040527345 .100097659 .030761719 .15527344Z"/>
<path id="font_4_23" d="M.3232422 0V.17138672H.0126953129V.25195313L.33935548 .7158203H.4111328V.25195313H.5078125V.17138672H.4111328V0H.3232422M.3232422 .25195313V.57470706L.099121097 .25195313H.3232422Z"/>
</defs>
<g clip-path="url(#clip_1)">
<path transform="matrix(.71867,0,0,.71867,0,0)" d="M0 0H782V164H0Z" fill="#ffffff"/>
</g>
<g clip-path="url(#clip_2)">
<path transform="matrix(.71867,0,0,.71867,.359335,.359335)" stroke-width="5" stroke-linecap="butt" stroke-miterlimit="10" stroke-linejoin="miter" fill="none" stroke="#82b366" d="M10 81H756.16"/>
<path transform="matrix(.71867,0,0,.71867,.359335,.359335)" d="M764.41 81 753.41 86.5 756.16 81 753.41 75.5 764.41 81Z" fill="#82b366"/>
<path transform="matrix(.71867,0,0,.71867,.359335,.359335)" stroke-width="5" stroke-linecap="butt" stroke-miterlimit="10" stroke-linejoin="miter" fill="none" stroke="#82b366" d="M764.41 81 753.41 86.5 756.16 81 753.41 75.5 764.41 81Z"/>
<path transform="matrix(.71867,0,0,.71867,.359335,.359335)" stroke-width="1" stroke-linecap="butt" stroke-miterlimit="10" stroke-linejoin="miter" fill="none" stroke="#0000ff" d="M85 31V73.29"/>
<path transform="matrix(.71867,0,0,.71867,.359335,.359335)" d="M85 80.29 81.5 76.79 85 73.29 88.5 76.79 85 80.29Z" fill="#0000ff"/>
<path transform="matrix(.71867,0,0,.71867,.359335,.359335)" stroke-width="1" stroke-linecap="butt" stroke-miterlimit="10" stroke-linejoin="miter" fill="none" stroke="#0000ff" d="M85 80.29 81.5 76.79 85 73.29 88.5 76.79 85 80.29Z"/>
<use data-text="S" xlink:href="#font_3_54" transform="matrix(12.93606,0,0,-12.93606,40.23429,15.81074)"/>
<use data-text="i" xlink:href="#font_3_76" transform="matrix(12.93606,0,0,-12.93606,48.86264,15.81074)"/>
<use data-text="m" xlink:href="#font_3_80" transform="matrix(12.93606,0,0,-12.93606,52.458868,15.81074)"/>
<use data-text="u" xlink:href="#font_3_88" transform="matrix(12.93606,0,0,-12.93606,63.959024,15.81074)"/>
<use data-text="l" xlink:href="#font_3_79" transform="matrix(12.93606,0,0,-12.93606,71.86295,15.81074)"/>
<use data-text="a" xlink:href="#font_3_68" transform="matrix(12.93606,0,0,-12.93606,75.459178,15.81074)"/>
<path transform="matrix(.71867,0,0,.71867,.359335,.359335)" stroke-width="1" stroke-linecap="butt" stroke-miterlimit="10" stroke-linejoin="miter" fill="none" stroke="#0000ff" d="M215 131V88.71"/>
<path transform="matrix(.71867,0,0,.71867,.359335,.359335)" d="M215 81.71 218.5 85.21 215 88.71 211.5 85.21 215 81.71Z" fill="#0000ff"/>
<path transform="matrix(.71867,0,0,.71867,.359335,.359335)" stroke-width="1" stroke-linecap="butt" stroke-miterlimit="10" stroke-linejoin="miter" fill="none" stroke="#0000ff" d="M215 81.71 218.5 85.21 215 88.71 211.5 85.21 215 81.71Z"/>
<use data-text="S" xlink:href="#font_3_54" transform="matrix(12.93606,0,0,-12.93606,126.47469,109.23784)"/>
<use data-text="m" xlink:href="#font_3_80" transform="matrix(12.93606,0,0,-12.93606,135.10305,109.23784)"/>
<use data-text="a" xlink:href="#font_3_68" transform="matrix(12.93606,0,0,-12.93606,146.6032,109.23784)"/>
<use data-text="l" xlink:href="#font_3_79" transform="matrix(12.93606,0,0,-12.93606,153.79564,109.23784)"/>
<use data-text="l" xlink:href="#font_3_79" transform="matrix(12.93606,0,0,-12.93606,157.39188,109.23784)"/>
<use data-text="t" xlink:href="#font_3_87" transform="matrix(12.93606,0,0,-12.93606,160.9881,109.23784)"/>
<use data-text="a" xlink:href="#font_3_68" transform="matrix(12.93606,0,0,-12.93606,165.2958,109.23784)"/>
<use data-text="l" xlink:href="#font_3_79" transform="matrix(12.93606,0,0,-12.93606,172.48825,109.23784)"/>
<use data-text="k" xlink:href="#font_3_78" transform="matrix(12.93606,0,0,-12.93606,176.08448,109.23784)"/>
<path transform="matrix(.71867,0,0,.71867,.359335,.359335)" stroke-width="1" stroke-linecap="butt" stroke-miterlimit="10" stroke-linejoin="miter" fill="none" stroke="#0000ff" d="M345 31V73.29"/>
<path transform="matrix(.71867,0,0,.71867,.359335,.359335)" d="M345 80.29 341.5 76.79 345 73.29 348.5 76.79 345 80.29Z" fill="#0000ff"/>
<path transform="matrix(.71867,0,0,.71867,.359335,.359335)" stroke-width="1" stroke-linecap="butt" stroke-miterlimit="10" stroke-linejoin="miter" fill="none" stroke="#0000ff" d="M345 80.29 341.5 76.79 345 73.29 348.5 76.79 345 80.29Z"/>
<use data-text="C" xlink:href="#font_3_38" transform="matrix(12.93606,0,0,-12.93606,236.07187,15.81074)"/>
<use data-text="+" xlink:href="#font_3_14" transform="matrix(12.93606,0,0,-12.93606,245.41172,15.81074)"/>
<use data-text="+" xlink:href="#font_3_14" transform="matrix(12.93606,0,0,-12.93606,252.96636,15.81074)"/>
<path transform="matrix(.71867,0,0,.71867,.359335,.359335)" stroke-width="1" stroke-linecap="butt" stroke-miterlimit="10" stroke-linejoin="miter" fill="none" stroke="#0000ff" d="M465 131V88.71"/>
<path transform="matrix(.71867,0,0,.71867,.359335,.359335)" d="M465 81.71 468.5 85.21 465 88.71 461.5 85.21 465 81.71Z" fill="#0000ff"/>
<path transform="matrix(.71867,0,0,.71867,.359335,.359335)" stroke-width="1" stroke-linecap="butt" stroke-miterlimit="10" stroke-linejoin="miter" fill="none" stroke="#0000ff" d="M465 81.71 468.5 85.21 465 88.71 461.5 85.21 465 81.71Z"/>
<use data-text="J" xlink:href="#font_3_45" transform="matrix(12.93606,0,0,-12.93606,320.15626,109.23784)"/>
<use data-text="a" xlink:href="#font_3_68" transform="matrix(12.93606,0,0,-12.93606,327.3487,109.23784)"/>
<use data-text="v" xlink:href="#font_3_89" transform="matrix(12.93606,0,0,-12.93606,334.54118,109.23784)"/>
<use data-text="a" xlink:href="#font_3_68" transform="matrix(12.93606,0,0,-12.93606,341.7336,109.23784)"/>
<path transform="matrix(.71867,0,0,.71867,.359335,.359335)" stroke-width="1" stroke-linecap="butt" stroke-miterlimit="10" stroke-linejoin="miter" fill="none" stroke="#0000ff" d="M585 31V73.29"/>
<path transform="matrix(.71867,0,0,.71867,.359335,.359335)" d="M585 80.29 581.5 76.79 585 73.29 588.5 76.79 585 80.29Z" fill="#0000ff"/>
<path transform="matrix(.71867,0,0,.71867,.359335,.359335)" stroke-width="1" stroke-linecap="butt" stroke-miterlimit="10" stroke-linejoin="miter" fill="none" stroke="#0000ff" d="M585 80.29 581.5 76.79 585 73.29 588.5 76.79 585 80.29Z"/>
<use data-text="U" xlink:href="#font_3_56" transform="matrix(12.93606,0,0,-12.93606,406.7672,15.81074)"/>
<use data-text="M" xlink:href="#font_3_48" transform="matrix(12.93606,0,0,-12.93606,416.10707,15.81074)"/>
<use data-text="L" xlink:href="#font_3_47" transform="matrix(12.93606,0,0,-12.93606,426.88279,15.81074)"/>
<path transform="matrix(.71867,0,0,.71867,.359335,.359335)" stroke-width="1" stroke-linecap="butt" stroke-miterlimit="10" stroke-linejoin="miter" fill="none" stroke="#0000ff" d="M715 131V88.71"/>
<path transform="matrix(.71867,0,0,.71867,.359335,.359335)" d="M715 81.71 718.5 85.21 715 88.71 711.5 85.21 715 81.71Z" fill="#0000ff"/>
<path transform="matrix(.71867,0,0,.71867,.359335,.359335)" stroke-width="1" stroke-linecap="butt" stroke-miterlimit="10" stroke-linejoin="miter" fill="none" stroke="#0000ff" d="M715 81.71 718.5 85.21 715 88.71 711.5 85.21 715 81.71Z"/>
<use data-text="U" xlink:href="#font_3_56" transform="matrix(12.93606,0,0,-12.93606,494.8043,109.23784)"/>
<use data-text="M" xlink:href="#font_3_48" transform="matrix(12.93606,0,0,-12.93606,504.1441,109.23784)"/>
<use data-text="L" xlink:href="#font_3_47" transform="matrix(12.93606,0,0,-12.93606,514.91989,109.23784)"/>
<use data-text=" " xlink:href="#font_3_3" transform="matrix(12.93606,0,0,-12.93606,522.8238,109.23784)"/>
<use data-text="2" xlink:href="#font_3_21" transform="matrix(12.93606,0,0,-12.93606,526.42007,109.23784)"/>
<use data-text="1" xlink:href="#font_4_20" transform="matrix(10.06138,0,0,-10.06138,50.250757,69.71099)"/>
<use data-text="9" xlink:href="#font_4_28" transform="matrix(10.06138,0,0,-10.06138,55.844888,69.71099)"/>
<use data-text="6" xlink:href="#font_4_25" transform="matrix(10.06138,0,0,-10.06138,61.439016,69.71099)"/>
<use data-text="7" xlink:href="#font_4_26" transform="matrix(10.06138,0,0,-10.06138,67.03314,69.71099)"/>
<use data-text="1" xlink:href="#font_4_20" transform="matrix(10.06138,0,0,-10.06138,143.67786,55.33759)"/>
<use data-text="9" xlink:href="#font_4_28" transform="matrix(10.06138,0,0,-10.06138,149.27199,55.33759)"/>
<use data-text="7" xlink:href="#font_4_26" transform="matrix(10.06138,0,0,-10.06138,154.8661,55.33759)"/>
<use data-text="2" xlink:href="#font_4_21" transform="matrix(10.06138,0,0,-10.06138,160.46024,55.33759)"/>
<use data-text="L" xlink:href="#font_4_47" transform="matrix(10.06138,0,0,-10.06138,223.4053,69.71099)"/>
<use data-text="a" xlink:href="#font_4_68" transform="matrix(10.06138,0,0,-10.06138,228.99944,69.71099)"/>
<use data-text="t" xlink:href="#font_4_87" transform="matrix(10.06138,0,0,-10.06138,234.59357,69.71099)"/>
<use data-text="e" xlink:href="#font_4_72" transform="matrix(10.06138,0,0,-10.06138,237.39063,69.71099)"/>
<use data-text=" " xlink:href="#font_4_3" transform="matrix(10.06138,0,0,-10.06138,242.98474,69.71099)"/>
<use data-text="1" xlink:href="#font_4_20" transform="matrix(10.06138,0,0,-10.06138,245.78182,69.71099)"/>
<use data-text="9" xlink:href="#font_4_28" transform="matrix(10.06138,0,0,-10.06138,251.37593,69.71099)"/>
<use data-text="8" xlink:href="#font_4_27" transform="matrix(10.06138,0,0,-10.06138,256.97007,69.71099)"/>
<use data-text="0" xlink:href="#font_4_19" transform="matrix(10.06138,0,0,-10.06138,262.56419,69.71099)"/>
<use data-text="s" xlink:href="#font_4_86" transform="matrix(10.06138,0,0,-10.06138,268.1583,69.71099)"/>
<use data-text="1" xlink:href="#font_4_20" transform="matrix(10.06138,0,0,-10.06138,323.34538,55.33759)"/>
<use data-text="9" xlink:href="#font_4_28" transform="matrix(10.06138,0,0,-10.06138,328.93949,55.33759)"/>
<use data-text="9" xlink:href="#font_4_28" transform="matrix(10.06138,0,0,-10.06138,334.5336,55.33759)"/>
<use data-text="1" xlink:href="#font_4_20" transform="matrix(10.06138,0,0,-10.06138,340.12776,55.33759)"/>
<use data-text="1" xlink:href="#font_4_20" transform="matrix(10.06138,0,0,-10.06138,409.58576,69.71099)"/>
<use data-text="9" xlink:href="#font_4_28" transform="matrix(10.06138,0,0,-10.06138,415.17988,69.71099)"/>
<use data-text="9" xlink:href="#font_4_28" transform="matrix(10.06138,0,0,-10.06138,420.77403,69.71099)"/>
<use data-text="6" xlink:href="#font_4_25" transform="matrix(10.06138,0,0,-10.06138,426.36814,69.71099)"/>
<use data-text="2" xlink:href="#font_4_21" transform="matrix(10.06138,0,0,-10.06138,503.01286,55.33759)"/>
<use data-text="0" xlink:href="#font_4_19" transform="matrix(10.06138,0,0,-10.06138,508.607,55.33759)"/>
<use data-text="0" xlink:href="#font_4_19" transform="matrix(10.06138,0,0,-10.06138,514.2011,55.33759)"/>
<use data-text="4" xlink:href="#font_4_23" transform="matrix(10.06138,0,0,-10.06138,519.7952,55.33759)"/>
</g>
</svg>
