<svg xmlns="http://www.w3.org/2000/svg" xmlns:xlink="http://www.w3.org/1999/xlink" xmlns:inkscape="http://www.inkscape.org/namespaces/inkscape" version="1.1" width="286.8047" height="224.39089" viewBox="0 0 286.8047 224.39089">
<g>
<path transform="matrix(1,0,0,-1,0,0)" d="M109.109-17.711H177.695V-98.668H109.109Z" fill="#dedede"/>
<path transform="matrix(1,0,0,-1,0,0)" stroke-width=".75" stroke-linecap="butt" stroke-miterlimit="4" stroke-linejoin="miter" fill="none" stroke="#211e1e" d="M109.109-17.711H177.695V-98.668H109.109Z"/>
<path d="M165.891 56.691V84.426H120.164V31.578H166.641V42.824L158.395 51.816 165.891 56.691" fill="#dedede"/>
<path transform="matrix(1,0,0,-1,0,0)" stroke-width=".75" stroke-linecap="butt" stroke-miterlimit="4" stroke-linejoin="miter" fill="none" stroke="#211e1e" d="M165.891-56.691V-84.426H120.164V-31.578H166.641V-42.824L158.395-51.816ZM165.891-56.691"/>
<path transform="matrix(1,0,0,-1,0,0)" stroke-width=".75" stroke-linecap="butt" stroke-miterlimit="4" stroke-linejoin="miter" fill="none" stroke="#211e1e" d="M143.402-31.578V-35.328"/>
<path transform="matrix(1,0,0,-1,0,0)" d="M148.648-40.949V-45.445H137.781" fill="#dedede"/>
<path transform="matrix(1,0,0,-1,0,0)" stroke-width=".75" stroke-linecap="butt" stroke-miterlimit="4" stroke-linejoin="miter" fill="none" stroke="#211e1e" d="M148.648-40.949V-45.445H137.781"/>
<path transform="matrix(1,0,0,-1,0,0)" d="M158.395-61.938H128.785V-67.559L132.156-71.684 128.785-74.68V-84.426" fill="#dedede"/>
<path transform="matrix(1,0,0,-1,0,0)" stroke-width=".75" stroke-linecap="butt" stroke-miterlimit="4" stroke-linejoin="miter" fill="none" stroke="#211e1e" d="M158.395-61.938H128.785V-67.559L132.156-71.684 128.785-74.68V-84.426"/>
<path transform="matrix(1,0,0,-1,0,0)" stroke-width=".75" stroke-linecap="butt" stroke-miterlimit="4" stroke-linejoin="miter" fill="none" stroke="#211e1e" d="M109.109-23.336H177.695M286.43-213.813H207.527V-174.855H286.43ZM254.867-213.813H241.555V-187.184H254.867ZM231.691-203.211H215.91V-182.988H231.691ZM231.691-203.211"/>
<path transform="matrix(1,0,0,-1,0,0)" stroke-width=".75" stroke-linecap="butt" stroke-miterlimit="4" stroke-linejoin="miter" fill="none" stroke="#211e1e" d="M215.91-192.605H231.199"/>
<path transform="matrix(1,0,0,-1,0,0)" stroke-width=".75" stroke-linecap="butt" stroke-miterlimit="4" stroke-linejoin="miter" fill="none" stroke="#211e1e" d="M223.309-183.238V-202.965M277.555-203.211H261.773V-182.992H277.555ZM277.555-203.211"/>
<path transform="matrix(1,0,0,-1,0,0)" stroke-width=".75" stroke-linecap="butt" stroke-miterlimit="4" stroke-linejoin="miter" fill="none" stroke="#211e1e" d="M261.773-192.609H277.063"/>
<path transform="matrix(1,0,0,-1,0,0)" stroke-width=".75" stroke-linecap="butt" stroke-miterlimit="4" stroke-linejoin="miter" fill="none" stroke="#211e1e" d="M269.172-183.238V-202.965"/>
<path transform="matrix(1,0,0,-1,0,0)" stroke-width=".75" stroke-linecap="butt" stroke-miterlimit="4" stroke-linejoin="miter" fill="none" stroke="#211e1e" d="M253.527-200.781C253.527-201.406 253.02-201.918 252.391-201.918 251.762-201.918 251.254-201.406 251.254-200.781 251.254-200.152 251.762-199.645 252.391-199.645 253.02-199.645 253.527-200.152 253.527-200.781ZM232.875-169.863H213.645V-151.125H232.875ZM232.875-169.863"/>
<path transform="matrix(1,0,0,-1,0,0)" stroke-width=".75" stroke-linecap="butt" stroke-miterlimit="4" stroke-linejoin="miter" fill="none" stroke="#211e1e" d="M213.645-151.125 222.895-139.938 232.875-151.125M230.016-168.031H216.523V-153.82H230.016ZM230.016-168.031"/>
<path transform="matrix(1,0,0,-1,0,0)" stroke-width=".75" stroke-linecap="butt" stroke-miterlimit="4" stroke-linejoin="miter" fill="none" stroke="#211e1e" d="M216.523-160.926H229.641"/>
<path transform="matrix(1,0,0,-1,0,0)" stroke-width=".75" stroke-linecap="butt" stroke-miterlimit="4" stroke-linejoin="miter" fill="none" stroke="#211e1e" d="M222.895-154.18V-167.672M279.348-169.863H260.117V-151.125H279.348ZM279.348-169.863"/>
<path transform="matrix(1,0,0,-1,0,0)" stroke-width=".75" stroke-linecap="butt" stroke-miterlimit="4" stroke-linejoin="miter" fill="none" stroke="#211e1e" d="M260.117-151.125 269.367-139.938 279.348-151.125M276.488-168.031H262.996V-153.82H276.488ZM276.488-168.031"/>
<path transform="matrix(1,0,0,-1,0,0)" stroke-width=".75" stroke-linecap="butt" stroke-miterlimit="4" stroke-linejoin="miter" fill="none" stroke="#211e1e" d="M262.996-160.926H276.113"/>
<path transform="matrix(1,0,0,-1,0,0)" stroke-width=".75" stroke-linecap="butt" stroke-miterlimit="4" stroke-linejoin="miter" fill="none" stroke="#211e1e" d="M269.367-154.18V-167.672"/>
<path transform="matrix(1,0,0,-1,0,0)" stroke-width=".75" stroke-linecap="butt" stroke-miterlimit="4" stroke-linejoin="miter" fill="none" stroke="#211e1e" d="M230.266-148.059H262.746"/>
<path transform="matrix(1,0,0,-1,0,0)" stroke-width=".75" stroke-linecap="butt" stroke-miterlimit="4" stroke-linejoin="miter" fill="none" stroke="#211e1e" d="M213.273-154.555 207.527-174.852"/>
<path transform="matrix(1,0,0,-1,0,0)" stroke-width=".75" stroke-linecap="butt" stroke-miterlimit="4" stroke-linejoin="miter" fill="none" stroke="#211e1e" d="M286.43-174.852 279.488-154.555M256.25-217.27H240.258V-214.02H256.25ZM257.5-220.766H239.008V-217.27H257.5ZM259-224.016H237.762V-220.766H259ZM259-224.016"/>
<path transform="matrix(1,0,0,-1,0,0)" stroke-width=".75" stroke-linecap="butt" stroke-miterlimit="4" stroke-linejoin="miter" fill="none" stroke="#211e1e" d="M79.277-213.809H.375V-174.852H79.277ZM47.715-213.809H34.402V-187.18H47.715ZM24.539-203.207H8.758V-182.988H24.539ZM24.539-203.207"/>
<path transform="matrix(1,0,0,-1,0,0)" stroke-width=".75" stroke-linecap="butt" stroke-miterlimit="4" stroke-linejoin="miter" fill="none" stroke="#211e1e" d="M8.758-192.605H24.043"/>
<path transform="matrix(1,0,0,-1,0,0)" stroke-width=".75" stroke-linecap="butt" stroke-miterlimit="4" stroke-linejoin="miter" fill="none" stroke="#211e1e" d="M16.156-183.234V-202.961M70.398-203.207H54.621V-182.988H70.398ZM70.398-203.207"/>
<path transform="matrix(1,0,0,-1,0,0)" stroke-width=".75" stroke-linecap="butt" stroke-miterlimit="4" stroke-linejoin="miter" fill="none" stroke="#211e1e" d="M54.621-192.605H69.906"/>
<path transform="matrix(1,0,0,-1,0,0)" stroke-width=".75" stroke-linecap="butt" stroke-miterlimit="4" stroke-linejoin="miter" fill="none" stroke="#211e1e" d="M62.016-183.234V-202.961"/>
<path transform="matrix(1,0,0,-1,0,0)" stroke-width=".75" stroke-linecap="butt" stroke-miterlimit="4" stroke-linejoin="miter" fill="none" stroke="#211e1e" d="M46.375-200.777C46.375-201.406 45.863-201.914 45.238-201.914 44.609-201.914 44.102-201.406 44.102-200.777 44.102-200.148 44.609-199.641 45.238-199.641 45.863-199.641 46.375-200.148 46.375-200.777ZM25.723-169.859H6.488V-151.121H25.723ZM25.723-169.859"/>
<path transform="matrix(1,0,0,-1,0,0)" stroke-width=".75" stroke-linecap="butt" stroke-miterlimit="4" stroke-linejoin="miter" fill="none" stroke="#211e1e" d="M6.488-151.121 15.742-139.938 25.723-151.121M22.863-168.031H9.371V-153.816H22.863ZM22.863-168.031"/>
<path transform="matrix(1,0,0,-1,0,0)" stroke-width=".75" stroke-linecap="butt" stroke-miterlimit="4" stroke-linejoin="miter" fill="none" stroke="#211e1e" d="M9.371-160.926H22.488"/>
<path transform="matrix(1,0,0,-1,0,0)" stroke-width=".75" stroke-linecap="butt" stroke-miterlimit="4" stroke-linejoin="miter" fill="none" stroke="#211e1e" d="M15.742-154.18V-167.672M72.195-169.859H52.961V-151.121H72.195ZM72.195-169.859"/>
<path transform="matrix(1,0,0,-1,0,0)" stroke-width=".75" stroke-linecap="butt" stroke-miterlimit="4" stroke-linejoin="miter" fill="none" stroke="#211e1e" d="M52.961-151.121 62.215-139.938 72.195-151.121M69.336-168.031H55.844V-153.816H69.336ZM69.336-168.031"/>
<path transform="matrix(1,0,0,-1,0,0)" stroke-width=".75" stroke-linecap="butt" stroke-miterlimit="4" stroke-linejoin="miter" fill="none" stroke="#211e1e" d="M55.844-160.926H68.961"/>
<path transform="matrix(1,0,0,-1,0,0)" stroke-width=".75" stroke-linecap="butt" stroke-miterlimit="4" stroke-linejoin="miter" fill="none" stroke="#211e1e" d="M62.215-154.18V-167.672"/>
<path transform="matrix(1,0,0,-1,0,0)" stroke-width=".75" stroke-linecap="butt" stroke-miterlimit="4" stroke-linejoin="miter" fill="none" stroke="#211e1e" d="M23.109-148.055H55.59"/>
<path transform="matrix(1,0,0,-1,0,0)" stroke-width=".75" stroke-linecap="butt" stroke-miterlimit="4" stroke-linejoin="miter" fill="none" stroke="#211e1e" d="M6.117-154.551 .371-174.848"/>
<path transform="matrix(1,0,0,-1,0,0)" stroke-width=".75" stroke-linecap="butt" stroke-miterlimit="4" stroke-linejoin="miter" fill="none" stroke="#211e1e" d="M79.277-174.848 72.332-154.551M49.094-217.266H33.105V-214.02H49.094ZM50.344-220.766H31.855V-217.266H50.344ZM51.844-224.012H30.605V-220.766H51.844ZM182.852-213.809H103.949V-174.852H182.852ZM151.289-213.809H137.977V-187.18H151.289ZM128.113-203.207H112.332V-182.984H128.113ZM128.113-203.207"/>
<path transform="matrix(1,0,0,-1,0,0)" stroke-width=".75" stroke-linecap="butt" stroke-miterlimit="4" stroke-linejoin="miter" fill="none" stroke="#211e1e" d="M112.332-192.602H127.621"/>
<path transform="matrix(1,0,0,-1,0,0)" stroke-width=".75" stroke-linecap="butt" stroke-miterlimit="4" stroke-linejoin="miter" fill="none" stroke="#211e1e" d="M119.73-183.234V-202.961M173.977-203.207H158.195V-182.988H173.977ZM173.977-203.207"/>
<path transform="matrix(1,0,0,-1,0,0)" stroke-width=".75" stroke-linecap="butt" stroke-miterlimit="4" stroke-linejoin="miter" fill="none" stroke="#211e1e" d="M158.195-192.605H173.48"/>
<path transform="matrix(1,0,0,-1,0,0)" stroke-width=".75" stroke-linecap="butt" stroke-miterlimit="4" stroke-linejoin="miter" fill="none" stroke="#211e1e" d="M165.59-183.234V-202.961"/>
<path transform="matrix(1,0,0,-1,0,0)" stroke-width=".75" stroke-linecap="butt" stroke-miterlimit="4" stroke-linejoin="miter" fill="none" stroke="#211e1e" d="M149.949-200.777C149.949-201.402 149.441-201.91 148.813-201.91 148.184-201.91 147.676-201.402 147.676-200.777 147.676-200.148 148.184-199.641 148.813-199.641 149.441-199.641 149.949-200.148 149.949-200.777ZM129.297-169.859H110.066V-151.117H129.297ZM129.297-169.859"/>
<path transform="matrix(1,0,0,-1,0,0)" stroke-width=".75" stroke-linecap="butt" stroke-miterlimit="4" stroke-linejoin="miter" fill="none" stroke="#211e1e" d="M110.066-151.117 119.316-139.934 129.297-151.117M126.438-168.027H112.945V-153.816H126.438ZM126.438-168.027"/>
<path transform="matrix(1,0,0,-1,0,0)" stroke-width=".75" stroke-linecap="butt" stroke-miterlimit="4" stroke-linejoin="miter" fill="none" stroke="#211e1e" d="M112.945-160.922H126.063"/>
<path transform="matrix(1,0,0,-1,0,0)" stroke-width=".75" stroke-linecap="butt" stroke-miterlimit="4" stroke-linejoin="miter" fill="none" stroke="#211e1e" d="M119.316-154.176V-167.668M175.77-169.859H156.539V-151.117H175.77ZM175.77-169.859"/>
<path transform="matrix(1,0,0,-1,0,0)" stroke-width=".75" stroke-linecap="butt" stroke-miterlimit="4" stroke-linejoin="miter" fill="none" stroke="#211e1e" d="M156.539-151.117 165.789-139.934 175.77-151.117M172.91-168.027H159.418V-153.816H172.91ZM172.91-168.027"/>
<path transform="matrix(1,0,0,-1,0,0)" stroke-width=".75" stroke-linecap="butt" stroke-miterlimit="4" stroke-linejoin="miter" fill="none" stroke="#211e1e" d="M159.418-160.922H172.535"/>
<path transform="matrix(1,0,0,-1,0,0)" stroke-width=".75" stroke-linecap="butt" stroke-miterlimit="4" stroke-linejoin="miter" fill="none" stroke="#211e1e" d="M165.789-154.176V-167.668"/>
<path transform="matrix(1,0,0,-1,0,0)" stroke-width=".75" stroke-linecap="butt" stroke-miterlimit="4" stroke-linejoin="miter" fill="none" stroke="#211e1e" d="M126.688-148.055H159.168"/>
<path transform="matrix(1,0,0,-1,0,0)" stroke-width=".75" stroke-linecap="butt" stroke-miterlimit="4" stroke-linejoin="miter" fill="none" stroke="#211e1e" d="M109.695-154.551 103.949-174.848"/>
<path transform="matrix(1,0,0,-1,0,0)" stroke-width=".75" stroke-linecap="butt" stroke-miterlimit="4" stroke-linejoin="miter" fill="none" stroke="#211e1e" d="M182.852-174.848 175.91-154.551M152.672-217.266H136.68V-214.016H152.672ZM153.922-220.762H135.43V-217.266H153.922ZM155.422-224.012H134.184V-220.762H155.422ZM155.422-224.012"/>
<path d="M133.531 20.57V22.055C133.5 22.086 133.469 22.148 133.469 22.195 133.469 22.414 133.578 22.492 133.797 22.492 133.984 22.492 134.109 22.398 134.109 22.242 134.109 22.164 134.094 22.164 134.078 22.117V18.977C134.094 18.93 134.109 18.898 134.109 18.82 134.109 18.648 133.922 18.586 133.797 18.586 133.656 18.586 133.5 18.617 133.5 18.836 133.5 18.914 133.516 18.93 133.531 18.945V20.07L131.563 20.18V18.961C131.563 18.93 131.594 18.898 131.594 18.836 131.594 18.727 131.516 18.586 131.297 18.586 131.078 18.586 130.969 18.711 130.969 18.852 130.969 18.867 130.984 18.914 131.016 18.961V20.242C130.969 20.273 130.938 20.336 130.938 20.461 130.938 20.555 130.969 20.602 131.016 20.648V22.086C130.984 22.117 130.953 22.18 130.953 22.227 130.953 22.43 131.109 22.492 131.266 22.492 131.422 22.492 131.594 22.445 131.594 22.242 131.594 22.164 131.578 22.117 131.563 22.086V20.695ZM133.531 20.57" fill="#211e1e"/>
<path d="M134.879 22.164C135.02 22.367 135.332 22.57 135.66 22.57 136.098 22.57 136.363 22.492 136.785 22.102 137.176 21.727 137.363 21.273 137.363 20.914 137.363 20.273 137.004 19.758 136.316 19.758 135.566 19.758 134.691 20.445 134.691 21.57 134.691 21.773 134.723 21.945 134.879 22.164ZM136.379 21.758C136.145 21.992 136.004 22.07 135.707 22.07 135.457 22.07 135.254 21.93 135.254 21.555 135.254 21.211 135.363 20.898 135.582 20.648 135.785 20.414 136.051 20.258 136.348 20.258 136.613 20.258 136.816 20.492 136.816 20.852 136.816 21.133 136.707 21.43 136.379 21.758ZM136.379 21.758" fill="#211e1e"/>
<path d="M140.203 20.133C140.219 19.961 140.172 19.805 139.906 19.805 139.703 19.805 139.641 19.898 139.641 20.008 139.641 20.117 139.641 20.07 139.656 20.133V21.602C139.422 21.789 139.031 22.07 138.719 22.07 138.656 22.07 138.5 21.992 138.5 21.883V20.195C138.531 20.164 138.547 20.117 138.547 20.055 138.547 19.945 138.469 19.789 138.266 19.789 138.109 19.789 137.953 19.867 137.953 20.07 137.953 20.102 137.953 20.133 137.969 20.18V21.883C137.969 22.352 138.375 22.57 138.688 22.57 139.016 22.57 139.422 22.32 139.641 22.148V22.211C139.578 22.336 139.656 22.492 139.891 22.492 140.047 22.492 140.234 22.445 140.234 22.242 140.234 22.18 140.234 22.133 140.203 22.102ZM140.203 20.133" fill="#211e1e"/>
<path d="M141.48 21.977 141.496 21.867C141.496 21.711 141.34 21.664 141.184 21.664 141.09 21.664 140.934 21.773 140.934 21.992 140.934 22.148 141.059 22.305 141.23 22.398 141.387 22.492 141.652 22.539 141.84 22.539 142.309 22.539 142.762 22.336 143.059 22.102 143.309 21.914 143.543 21.586 143.543 21.18 143.543 20.914 143.371 20.57 142.887 20.57 142.621 20.57 142.387 20.648 142.059 20.773 141.824 20.852 141.652 20.93 141.574 20.93 141.496 20.93 141.449 20.914 141.449 20.82 141.449 20.711 141.543 20.586 141.762 20.445 142.012 20.289 142.402 20.211 142.824 20.211 142.918 20.242 142.965 20.273 143.027 20.273 143.137 20.273 143.293 20.242 143.293 20.023 143.293 19.852 143.059 19.727 142.809 19.727 142.324 19.727 141.855 19.836 141.512 20.023 141.137 20.242 140.902 20.555 140.902 20.93 140.902 21.242 141.184 21.445 141.465 21.445 141.762 21.445 141.98 21.367 142.262 21.258 142.496 21.164 142.668 21.102 142.809 21.102 142.918 21.102 142.98 21.164 142.98 21.258 142.98 21.398 142.918 21.57 142.699 21.742 142.434 21.961 142.074 22.055 141.84 22.055 141.637 22.055 141.543 22.008 141.48 21.977ZM141.48 21.977" fill="#211e1e"/>
<path d="M145.539 21.133C146.117 21.008 146.336 20.836 146.336 20.57 146.336 20.148 145.961 19.805 145.508 19.805 145.055 19.805 144.648 20.008 144.352 20.383 144.086 20.711 143.93 21.148 143.93 21.617 143.93 22.117 144.227 22.555 144.789 22.555 145.148 22.555 145.461 22.477 145.758 22.258 146.008 22.07 146.273 21.836 146.273 21.68 146.273 21.555 146.164 21.43 145.961 21.43 145.805 21.43 145.664 21.523 145.68 21.695 145.461 21.977 145.102 22.102 144.883 22.102 144.617 22.102 144.477 21.945 144.477 21.68 144.477 21.539 144.492 21.445 144.508 21.352ZM144.633 20.883C144.867 20.398 145.164 20.258 145.461 20.258 145.727 20.258 145.773 20.445 145.773 20.508 145.773 20.602 145.711 20.633 145.555 20.68 145.352 20.727 145.039 20.805 144.648 20.883ZM144.633 20.883" fill="#211e1e"/>
<path d="M148.43 22.055C148.398 22.102 148.367 22.133 148.367 22.227 148.367 22.398 148.508 22.492 148.664 22.492 148.836 22.492 149.023 22.461 149.023 22.211 149.023 22.133 149.008 22.102 148.992 22.086V20.852C149.32 20.805 149.852 20.648 150.352 20.336 150.773 20.07 151.148 19.727 151.148 19.273 151.148 18.836 150.867 18.586 150.398 18.586 149.836 18.586 149.414 18.758 149.023 18.945 149.055 18.758 148.93 18.602 148.727 18.602 148.617 18.602 148.414 18.695 148.414 18.883 148.414 18.945 148.414 18.977 148.43 19.023V19.211C148.32 19.289 148.305 19.352 148.305 19.492 148.305 19.602 148.336 19.68 148.43 19.727ZM148.992 19.492C149.461 19.227 149.945 19.102 150.289 19.102 150.492 19.102 150.586 19.164 150.586 19.273 150.586 19.477 150.43 19.711 149.945 19.977 149.648 20.133 149.273 20.289 148.992 20.336ZM148.992 19.492" fill="#211e1e"/>
<path d="M152.156 19.008C152.188 18.961 152.203 18.898 152.203 18.789 152.203 18.633 152.094 18.508 151.906 18.508 151.703 18.508 151.578 18.57 151.578 18.82 151.578 18.898 151.594 18.945 151.609 18.992V22.07C151.578 22.133 151.578 22.164 151.578 22.195 151.578 22.352 151.703 22.492 151.922 22.492 152.063 22.492 152.203 22.398 152.203 22.227 152.203 22.164 152.203 22.117 152.156 22.055ZM152.156 19.008" fill="#211e1e"/>
<path d="M155.211 20.336C155.211 20.055 155.07 19.742 154.555 19.742 154.102 19.742 153.602 19.82 153.164 20.133 153.039 20.148 152.93 20.242 152.93 20.398 152.93 20.555 153.055 20.664 153.211 20.664 153.367 20.664 153.492 20.555 153.523 20.445 153.727 20.289 154.117 20.195 154.43 20.195 154.664 20.195 154.664 20.258 154.664 20.398V20.648C154.289 20.695 153.82 20.82 153.414 21.039 152.945 21.305 152.68 21.695 152.68 22.055 152.68 22.367 152.914 22.57 153.305 22.57 153.727 22.57 154.289 22.32 154.664 21.898V22.117C154.648 22.133 154.617 22.18 154.617 22.258 154.617 22.398 154.711 22.492 154.898 22.492 155.055 22.492 155.258 22.445 155.258 22.258 155.258 22.195 155.242 22.148 155.211 22.102ZM153.773 21.367C154.008 21.242 154.352 21.102 154.664 21.055 154.664 21.352 154.633 21.414 154.352 21.664 154.117 21.883 153.602 22.117 153.383 22.117 153.273 22.117 153.227 22.07 153.227 21.977 153.227 21.82 153.477 21.523 153.773 21.367ZM153.773 21.367" fill="#211e1e"/>
<path d="M156.59 20.133C156.605 20.102 156.637 20.055 156.637 19.977 156.637 19.867 156.574 19.727 156.34 19.727 156.184 19.727 156.027 19.82 156.027 19.992 156.027 20.055 156.027 20.086 156.043 20.117V20.805C156.012 20.867 155.996 20.945 155.996 21.008 155.996 21.07 155.996 21.117 156.043 21.164V22.102C156.027 22.148 155.996 22.195 155.996 22.258 155.996 22.383 156.105 22.492 156.293 22.492 156.434 22.492 156.605 22.461 156.605 22.242 156.605 22.195 156.605 22.148 156.59 22.117V21.039C157.105 20.648 157.543 20.32 157.605 20.32 157.652 20.32 157.746 20.367 157.746 20.445V22.133C157.73 22.18 157.715 22.195 157.715 22.227 157.715 22.383 157.824 22.492 157.996 22.492 158.184 22.492 158.293 22.414 158.293 22.227 158.293 22.18 158.293 22.133 158.277 22.102V20.148C158.277 19.883 157.965 19.727 157.809 19.727 157.496 19.727 157.105 20.055 156.59 20.43ZM156.59 20.133" fill="#211e1e"/>
<path d="M130.852 39.652C130.805 39.715 130.789 39.777 130.789 39.855 130.789 40.043 130.914 40.137 131.102 40.137 131.164 40.137 131.195 40.121 131.273 40.105L132.695 39.934C132.711 39.934 132.758 39.949 132.805 39.949 132.93 39.918 133.039 39.824 133.039 39.621 133.039 39.449 132.883 39.355 132.758 39.34 132.68 39.34 132.602 39.355 132.539 39.418L131.398 39.574V36.59C131.43 36.559 131.445 36.527 131.445 36.465 131.445 36.34 131.414 36.168 131.133 36.168 130.992 36.168 130.82 36.215 130.82 36.465 130.82 36.512 130.836 36.559 130.852 36.574ZM130.852 39.652" fill="#211e1e"/>
<path d="M133.578 39.605C133.531 39.699 133.531 39.73 133.531 39.777 133.531 39.902 133.594 40.074 133.813 40.074 134.016 40.074 134.172 39.949 134.172 39.777 134.172 39.73 134.156 39.684 134.125 39.637V37.84C134.141 37.824 134.172 37.793 134.172 37.699 134.172 37.527 134.016 37.387 133.875 37.387 133.672 37.387 133.547 37.48 133.547 37.746 133.547 37.793 133.547 37.84 133.578 37.871ZM133.844 37.121C134.047 37.121 134.219 36.934 134.219 36.543 134.219 36.34 134.125 36.215 133.891 36.215 133.672 36.215 133.547 36.418 133.547 36.809 133.547 36.965 133.656 37.121 133.844 37.121ZM133.844 37.121" fill="#211e1e"/>
<path d="M136.301 37.652C136.176 37.965 136.051 38.199 135.863 38.512 135.723 38.746 135.598 38.98 135.535 39.184H135.52C135.473 38.965 135.41 38.684 135.301 38.324 135.223 38.105 135.16 37.934 135.145 37.809 135.176 37.746 135.191 37.684 135.191 37.652 135.191 37.527 135.066 37.402 134.895 37.402 134.754 37.402 134.598 37.496 134.598 37.668 134.598 37.746 134.598 37.777 134.613 37.824 134.629 37.918 134.629 37.996 134.676 38.168 134.738 38.449 134.77 38.559 134.973 39.105 135.145 39.621 135.176 39.715 135.176 39.746 135.176 39.949 135.301 40.09 135.488 40.09 135.66 40.09 135.754 39.996 135.785 39.809 135.801 39.73 135.895 39.48 136.316 38.746 136.566 38.324 136.52 38.387 136.676 38.137 136.738 37.996 136.879 37.746 136.879 37.605 136.879 37.418 136.77 37.355 136.629 37.355 136.473 37.355 136.395 37.434 136.301 37.652ZM136.301 37.652" fill="#211e1e"/>
<path d="M137.234 39.605C137.188 39.699 137.188 39.73 137.188 39.777 137.188 39.902 137.25 40.074 137.469 40.074 137.672 40.074 137.828 39.949 137.828 39.777 137.828 39.73 137.813 39.684 137.781 39.637V37.84C137.797 37.824 137.828 37.793 137.828 37.699 137.828 37.527 137.672 37.387 137.531 37.387 137.328 37.387 137.203 37.48 137.203 37.746 137.203 37.793 137.203 37.84 137.234 37.871ZM137.5 37.121C137.703 37.121 137.875 36.934 137.875 36.543 137.875 36.34 137.781 36.215 137.547 36.215 137.328 36.215 137.203 36.418 137.203 36.809 137.203 36.965 137.313 37.121 137.5 37.121ZM137.5 37.121" fill="#211e1e"/>
<path d="M139.117 37.715C139.133 37.684 139.164 37.637 139.164 37.559 139.164 37.449 139.102 37.309 138.867 37.309 138.711 37.309 138.555 37.402 138.555 37.574 138.555 37.637 138.555 37.668 138.57 37.699V38.387C138.539 38.449 138.523 38.527 138.523 38.59 138.523 38.652 138.523 38.699 138.57 38.746V39.684C138.555 39.73 138.523 39.777 138.523 39.84 138.523 39.965 138.633 40.074 138.82 40.074 138.961 40.074 139.133 40.043 139.133 39.824 139.133 39.777 139.133 39.73 139.117 39.699V38.621C139.633 38.23 140.07 37.902 140.133 37.902 140.18 37.902 140.273 37.949 140.273 38.027V39.715C140.258 39.762 140.242 39.777 140.242 39.809 140.242 39.965 140.352 40.074 140.523 40.074 140.711 40.074 140.82 39.996 140.82 39.809 140.82 39.762 140.82 39.715 140.805 39.684V37.73C140.805 37.465 140.492 37.309 140.336 37.309 140.023 37.309 139.633 37.637 139.117 38.012ZM139.117 37.715" fill="#211e1e"/>
<path d="M143.824 37.762C143.824 37.512 143.746 37.402 143.355 37.402 142.793 37.402 142.371 37.59 141.98 38.012 141.652 38.355 141.34 38.98 141.34 39.496 141.34 39.871 141.559 40.152 141.934 40.152 142.199 40.152 142.465 40.043 142.746 39.809 142.949 39.605 143.121 39.418 143.277 39.105H143.293V40.027C143.293 40.277 143.262 40.434 143.152 40.574 143.012 40.777 142.746 40.824 142.559 40.824 142.371 40.824 142.215 40.793 142.09 40.715 142.074 40.59 141.98 40.512 141.855 40.512 141.73 40.512 141.574 40.637 141.574 40.84 141.574 41.137 142.09 41.324 142.512 41.324 142.918 41.324 143.262 41.23 143.496 40.98 143.715 40.762 143.824 40.496 143.824 40.137ZM142.902 38.918C142.621 39.324 142.277 39.652 142.059 39.652 141.934 39.652 141.887 39.559 141.887 39.434 141.902 39.137 142.027 38.762 142.293 38.465 142.59 38.121 142.871 37.902 143.184 37.902H143.293C143.293 38.184 143.168 38.512 142.902 38.918ZM142.902 38.918" fill="#211e1e"/>
<path d="M146.234 39.637C146.172 39.715 146.172 39.762 146.172 39.809 146.172 39.949 146.281 40.074 146.484 40.074 146.688 40.074 146.828 39.965 146.828 39.793 146.828 39.746 146.813 39.699 146.781 39.652V38.434C146.875 38.527 147 38.652 147.359 38.965L148.469 39.934C148.516 40.043 148.641 40.121 148.766 40.121 148.938 40.121 149.109 40.012 149.109 39.777 149.109 39.652 148.984 39.527 148.828 39.527L147.672 38.574C147.5 38.418 147.359 38.293 147.219 38.215 147.563 38.121 147.875 38.012 148.156 37.824 148.516 37.59 148.797 37.293 148.797 36.902 148.797 36.418 148.484 36.168 148 36.168 147.625 36.168 147.203 36.309 146.813 36.496 146.844 36.246 146.656 36.168 146.516 36.168 146.391 36.168 146.203 36.246 146.203 36.434 146.203 36.496 146.219 36.543 146.234 36.59V36.699C146.125 36.762 146.047 36.84 146.047 36.996 146.047 37.152 146.125 37.246 146.234 37.277ZM146.781 37.043C147.125 36.84 147.563 36.684 147.922 36.684 148.125 36.684 148.25 36.777 148.25 36.918 148.25 37.043 148.172 37.215 147.938 37.387 147.672 37.59 147.203 37.793 146.781 37.918ZM146.781 37.043" fill="#211e1e"/>
<path d="M149.602 39.746C149.742 39.949 150.055 40.152 150.383 40.152 150.82 40.152 151.086 40.074 151.508 39.684 151.898 39.309 152.086 38.855 152.086 38.496 152.086 37.855 151.727 37.34 151.039 37.34 150.289 37.34 149.414 38.027 149.414 39.152 149.414 39.355 149.445 39.527 149.602 39.746ZM151.102 39.34C150.867 39.574 150.727 39.652 150.43 39.652 150.18 39.652 149.977 39.512 149.977 39.137 149.977 38.793 150.086 38.48 150.305 38.23 150.508 37.996 150.773 37.84 151.07 37.84 151.336 37.84 151.539 38.074 151.539 38.434 151.539 38.715 151.43 39.012 151.102 39.34ZM151.102 39.34" fill="#211e1e"/>
<path d="M152.676 39.746C152.816 39.949 153.129 40.152 153.457 40.152 153.895 40.152 154.16 40.074 154.582 39.684 154.973 39.309 155.16 38.855 155.16 38.496 155.16 37.855 154.801 37.34 154.113 37.34 153.363 37.34 152.488 38.027 152.488 39.152 152.488 39.355 152.52 39.527 152.676 39.746ZM154.176 39.34C153.941 39.574 153.801 39.652 153.504 39.652 153.254 39.652 153.051 39.512 153.051 39.137 153.051 38.793 153.16 38.48 153.379 38.23 153.582 37.996 153.848 37.84 154.145 37.84 154.41 37.84 154.613 38.074 154.613 38.434 154.613 38.715 154.504 39.012 154.176 39.34ZM154.176 39.34" fill="#211e1e"/>
<path d="M157.973 37.855C157.973 37.605 157.926 37.309 157.629 37.309 157.535 37.309 157.395 37.34 157.207 37.449 157.035 37.559 156.926 37.621 156.395 37.949V37.73C156.426 37.668 156.426 37.637 156.426 37.59 156.426 37.434 156.348 37.309 156.16 37.309 155.988 37.309 155.816 37.355 155.816 37.59 155.816 37.668 155.832 37.715 155.848 37.762V39.652C155.816 39.73 155.816 39.715 155.816 39.793 155.816 39.918 155.879 40.074 156.129 40.074 156.332 40.074 156.426 39.98 156.426 39.809 156.426 39.746 156.426 39.699 156.395 39.652V38.496C156.988 38.152 157.332 37.918 157.363 37.918 157.41 37.918 157.426 37.934 157.426 37.98V39.652C157.395 39.699 157.379 39.746 157.379 39.809 157.379 39.949 157.441 40.074 157.66 40.074 157.879 40.074 157.973 39.996 157.973 39.715V38.543C158.879 37.934 158.91 37.918 158.957 37.918 159.02 37.918 159.02 37.98 159.02 38.059V39.684C158.988 39.715 158.988 39.762 158.988 39.809 158.988 39.98 159.082 40.074 159.27 40.074 159.41 40.074 159.598 40.012 159.598 39.809 159.598 39.746 159.582 39.699 159.551 39.652V37.73C159.551 37.559 159.457 37.309 159.223 37.309 158.973 37.309 158.723 37.465 157.973 37.996ZM157.973 37.855" fill="#211e1e"/>
<path d="M133.777 74.508C133.715 74.57 133.699 74.648 133.699 74.727 133.699 74.883 133.809 74.992 134.043 74.992 134.449 75.008 135.309 74.773 135.621 74.602 136.402 74.211 136.777 73.711 136.777 73.164 136.777 72.852 136.59 72.68 136.449 72.57 136.293 72.477 136.137 72.414 135.715 72.414V72.398C136.184 72.211 136.371 71.789 136.371 71.57 136.371 71.242 136.027 71.023 135.543 71.023 135.246 71.023 134.668 71.133 134.324 71.273 134.277 71.18 134.199 71.148 134.09 71.148 133.918 71.148 133.746 71.211 133.746 71.414 133.746 71.477 133.762 71.523 133.777 71.539ZM134.324 71.82C134.59 71.664 135.105 71.523 135.387 71.523 135.652 71.523 135.824 71.539 135.824 71.648 135.824 71.945 135.199 72.445 134.324 72.523ZM134.324 73.242C134.324 73.07 134.371 73.023 134.449 72.992 134.59 72.961 135.074 72.867 135.449 72.867 136.012 72.867 136.23 72.977 136.23 73.211 136.23 73.461 136.074 73.758 135.48 74.07 135.074 74.305 134.652 74.43 134.324 74.461ZM134.324 73.242" fill="#211e1e"/>
<path d="M138.77 73.602C139.348 73.477 139.566 73.305 139.566 73.039 139.566 72.617 139.191 72.273 138.738 72.273 138.285 72.273 137.879 72.477 137.582 72.852 137.316 73.18 137.16 73.617 137.16 74.086 137.16 74.586 137.457 75.023 138.02 75.023 138.379 75.023 138.691 74.945 138.988 74.727 139.238 74.539 139.504 74.305 139.504 74.148 139.504 74.023 139.395 73.898 139.191 73.898 139.035 73.898 138.895 73.992 138.91 74.164 138.691 74.445 138.332 74.57 138.113 74.57 137.848 74.57 137.707 74.414 137.707 74.148 137.707 74.008 137.723 73.914 137.738 73.82ZM137.863 73.352C138.098 72.867 138.395 72.727 138.691 72.727 138.957 72.727 139.004 72.914 139.004 72.977 139.004 73.07 138.941 73.102 138.785 73.148 138.582 73.195 138.27 73.273 137.879 73.352ZM137.863 73.352" fill="#211e1e"/>
<path d="M142.523 71.398C142.523 71.367 142.539 71.336 142.539 71.289 142.539 71.148 142.445 70.977 142.242 70.977 142.102 70.977 141.93 71.07 141.93 71.258 141.93 71.336 141.945 71.398 141.977 71.445V72.477C141.914 72.414 141.789 72.398 141.68 72.398 140.852 72.398 139.836 73.477 139.836 74.289 139.836 74.742 140.055 75.039 140.492 75.039 140.773 75.039 141.008 74.961 141.289 74.773 141.492 74.648 141.773 74.367 141.977 74.117V74.555C141.977 74.586 141.961 74.633 141.961 74.711 141.961 74.836 142.023 74.961 142.242 74.961 142.43 74.961 142.57 74.883 142.57 74.695 142.57 74.664 142.57 74.602 142.523 74.539ZM140.883 73.383C141.148 73.086 141.508 72.914 141.789 72.914 141.945 72.914 141.992 73.023 141.992 73.102 141.992 73.242 141.898 73.508 141.43 73.992 141.148 74.273 140.852 74.539 140.57 74.539 140.445 74.539 140.383 74.445 140.383 74.32 140.383 74.07 140.602 73.695 140.883 73.383ZM140.883 73.383" fill="#211e1e"/>
<path d="M143.887 73.383C144.059 73.211 144.434 72.914 144.605 72.805 144.605 72.883 144.605 72.914 144.605 72.945 144.605 73.102 144.777 73.18 144.887 73.18 144.965 73.18 145.152 73.164 145.152 72.945 145.152 72.617 145.09 72.273 144.762 72.273 144.668 72.273 144.605 72.305 144.402 72.414 144.262 72.492 144.059 72.664 143.887 72.805V72.633C143.902 72.57 143.902 72.539 143.902 72.492 143.902 72.367 143.809 72.258 143.637 72.258 143.496 72.258 143.324 72.336 143.324 72.523 143.324 72.57 143.34 72.602 143.34 72.648V74.523C143.309 74.57 143.293 74.648 143.293 74.695 143.293 74.852 143.387 74.961 143.59 74.961 143.824 74.961 143.949 74.883 143.949 74.68 143.949 74.617 143.918 74.57 143.887 74.523ZM143.887 73.383" fill="#211e1e"/>
<path d="M145.453 74.633C145.594 74.836 145.906 75.039 146.234 75.039 146.672 75.039 146.938 74.961 147.359 74.57 147.75 74.195 147.938 73.742 147.938 73.383 147.938 72.742 147.578 72.227 146.891 72.227 146.141 72.227 145.266 72.914 145.266 74.039 145.266 74.242 145.297 74.414 145.453 74.633ZM146.953 74.227C146.719 74.461 146.578 74.539 146.281 74.539 146.031 74.539 145.828 74.398 145.828 74.023 145.828 73.68 145.938 73.367 146.156 73.117 146.359 72.883 146.625 72.727 146.922 72.727 147.188 72.727 147.391 72.961 147.391 73.32 147.391 73.602 147.281 73.898 146.953 74.227ZM146.953 74.227" fill="#211e1e"/>
<path d="M148.531 74.633C148.672 74.836 148.984 75.039 149.313 75.039 149.75 75.039 150.016 74.961 150.438 74.57 150.828 74.195 151.016 73.742 151.016 73.383 151.016 72.742 150.656 72.227 149.969 72.227 149.219 72.227 148.344 72.914 148.344 74.039 148.344 74.242 148.375 74.414 148.531 74.633ZM150.031 74.227C149.797 74.461 149.656 74.539 149.359 74.539 149.109 74.539 148.906 74.398 148.906 74.023 148.906 73.68 149.016 73.367 149.234 73.117 149.438 72.883 149.703 72.727 150 72.727 150.266 72.727 150.469 72.961 150.469 73.32 150.469 73.602 150.359 73.898 150.031 74.227ZM150.031 74.227" fill="#211e1e"/>
<path d="M153.824 72.742C153.824 72.492 153.777 72.195 153.48 72.195 153.387 72.195 153.246 72.227 153.059 72.336 152.887 72.445 152.777 72.508 152.246 72.836V72.617C152.277 72.555 152.277 72.523 152.277 72.477 152.277 72.32 152.199 72.195 152.012 72.195 151.84 72.195 151.668 72.242 151.668 72.477 151.668 72.555 151.684 72.602 151.699 72.648V74.539C151.668 74.617 151.668 74.602 151.668 74.68 151.668 74.805 151.73 74.961 151.98 74.961 152.184 74.961 152.277 74.867 152.277 74.695 152.277 74.633 152.277 74.586 152.246 74.539V73.383C152.84 73.039 153.184 72.805 153.215 72.805 153.262 72.805 153.277 72.82 153.277 72.867V74.539C153.246 74.586 153.23 74.633 153.23 74.695 153.23 74.836 153.293 74.961 153.512 74.961 153.73 74.961 153.824 74.883 153.824 74.602V73.43C154.73 72.82 154.762 72.805 154.809 72.805 154.871 72.805 154.871 72.867 154.871 72.945V74.57C154.84 74.602 154.84 74.648 154.84 74.695 154.84 74.867 154.934 74.961 155.121 74.961 155.262 74.961 155.449 74.898 155.449 74.695 155.449 74.633 155.434 74.586 155.402 74.539V72.617C155.402 72.445 155.309 72.195 155.074 72.195 154.824 72.195 154.574 72.352 153.824 72.883ZM153.824 72.742" fill="#211e1e"/>
<path d="M82.609 .75H84.203C85.172 .75 85.547 1.094 85.547 1.703 85.547 2.484 85.031 2.75 84.188 2.75H82.609ZM81.75 6.469H84.531C85.953 6.469 86.719 5.594 86.719 4.563 86.719 3.453 85.969 3.156 85.547 2.984 86.266 2.656 86.422 2.063 86.422 1.641 86.422 .75 85.797 0 84.594 0H81.75ZM82.609 3.453H84.344C85.047 3.453 85.844 3.641 85.844 4.547 85.844 5.266 85.391 5.719 84.484 5.719H82.609ZM82.609 3.453" fill="#211e1e"/>
<path d="M87.688 0H88.469V6.469H87.688Z" fill="#211e1e"/>
<path d="M93.48 6.469V1.766H92.684V4.359C92.684 5.031 92.387 5.922 91.387 5.922 90.871 5.922 90.48 5.656 90.48 4.891V1.766H89.684V5.141C89.684 6.266 90.527 6.609 91.215 6.609 91.965 6.609 92.371 6.313 92.715 5.766L92.73 5.781V6.469ZM93.48 6.469" fill="#211e1e"/>
<path d="M97.855 5C97.84 5.344 97.402 5.922 96.652 5.922 95.746 5.922 95.277 5.359 95.277 4.375H98.715C98.715 2.703 98.059 1.625 96.699 1.625 95.137 1.625 94.434 2.781 94.434 4.25 94.434 5.609 95.215 6.609 96.543 6.609 97.293 6.609 97.605 6.422 97.824 6.281 98.418 5.891 98.621 5.219 98.652 5ZM95.277 3.734C95.277 3.016 95.855 2.344 96.59 2.344 97.543 2.344 97.855 3.016 97.902 3.734ZM95.277 3.734" fill="#211e1e"/>
<path d="M100.355 4.328C100.355 3.578 100.48 2.344 101.621 2.344 102.84 2.344 102.902 3.5 102.902 4.109 102.902 5.141 102.496 5.922 101.637 5.922 101.137 5.922 100.355 5.594 100.355 4.328ZM99.59 8.328H100.387V5.969H100.402C100.605 6.313 101.027 6.609 101.652 6.609 103.262 6.609 103.73 5.094 103.73 3.969 103.73 2.656 103.012 1.625 101.762 1.625 100.918 1.625 100.543 2.156 100.355 2.422H100.34V1.766H99.59ZM99.59 8.328" fill="#211e1e"/>
<path d="M105.563 3.734C105.563 3.047 106.031 2.469 106.766 2.469H107.063V1.656C107 1.641 106.953 1.625 106.859 1.625 106.266 1.625 105.844 2 105.531 2.547H105.516V1.766H104.766V6.469H105.563ZM105.563 3.734" fill="#211e1e"/>
<path d="M108.598 1.766H107.816V6.469H108.598ZM108.598 .906V0H107.816V.906ZM108.598 .906" fill="#211e1e"/>
<path d="M113.625 3.266C113.625 1.922 112.703 1.625 111.969 1.625 111.172 1.625 110.719 2.172 110.547 2.422H110.531V1.766H109.781V6.469H110.578V3.906C110.578 2.625 111.375 2.344 111.828 2.344 112.594 2.344 112.828 2.75 112.828 3.578V6.469H113.625ZM113.625 3.266" fill="#211e1e"/>
<path d="M116.516 2.422V1.766H115.766V.453H114.969V1.766H114.328V2.422H114.969V5.531C114.969 6.094 115.141 6.531 115.922 6.531 116 6.531 116.234 6.5 116.516 6.469V5.844H116.234C116.078 5.844 115.766 5.844 115.766 5.484V2.422ZM116.516 2.422" fill="#211e1e"/>
<path d="M121.52 2.422V1.766H120.77V.453H119.973V1.766H119.332V2.422H119.973V5.531C119.973 6.094 120.145 6.531 120.926 6.531 121.004 6.531 121.238 6.5 121.52 6.469V5.844H121.238C121.082 5.844 120.77 5.844 120.77 5.484V2.422ZM121.52 2.422" fill="#211e1e"/>
<path d="M126.129 3.266C126.129 1.922 125.207 1.625 124.473 1.625 123.723 1.625 123.332 2.094 123.098 2.391H123.082V0H122.285V6.469H123.082V3.906C123.082 2.719 123.754 2.344 124.395 2.344 125.16 2.344 125.332 2.75 125.332 3.391V6.469H126.129ZM126.129 3.266" fill="#211e1e"/>
<path d="M127.988 3.188C128.051 2.828 128.176 2.281 129.066 2.281 129.816 2.281 130.176 2.547 130.176 3.047 130.176 3.516 129.957 3.594 129.77 3.609L128.457 3.766C127.145 3.938 127.035 4.844 127.035 5.25 127.035 6.063 127.645 6.609 128.504 6.609 129.426 6.609 129.895 6.172 130.207 5.844 130.238 6.203 130.348 6.563 131.051 6.563 131.223 6.563 131.348 6.5 131.473 6.469V5.891C131.395 5.906 131.285 5.922 131.223 5.922 131.051 5.922 130.957 5.844 130.957 5.656V2.938C130.957 1.734 129.582 1.625 129.207 1.625 128.051 1.625 127.301 2.063 127.27 3.188ZM130.16 4.844C130.16 5.469 129.441 5.953 128.707 5.953 128.113 5.953 127.848 5.641 127.848 5.125 127.848 4.531 128.473 4.422 128.863 4.359 129.832 4.234 130.035 4.172 130.16 4.063ZM130.16 4.844" fill="#211e1e"/>
<path d="M134.023 2.422V1.766H133.273V.453H132.477V1.766H131.836V2.422H132.477V5.531C132.477 6.094 132.648 6.531 133.43 6.531 133.508 6.531 133.742 6.5 134.023 6.469V5.844H133.742C133.586 5.844 133.273 5.844 133.273 5.484V2.422ZM134.023 2.422" fill="#211e1e"/>
<path d="M141.195 0H140.414V2.422H140.398C140.195 2.156 139.836 1.625 138.992 1.625 137.742 1.625 137.023 2.656 137.023 3.969 137.023 5.094 137.492 6.609 139.102 6.609 139.555 6.609 140.102 6.453 140.43 5.828H140.461V6.469H141.195ZM137.852 4.109C137.852 3.5 137.914 2.344 139.133 2.344 140.273 2.344 140.398 3.578 140.398 4.328 140.398 5.594 139.617 5.922 139.117 5.922 138.242 5.922 137.852 5.141 137.852 4.109ZM137.852 4.109" fill="#211e1e"/>
<path d="M145.492 5C145.477 5.344 145.039 5.922 144.289 5.922 143.383 5.922 142.914 5.359 142.914 4.375H146.352C146.352 2.703 145.695 1.625 144.336 1.625 142.773 1.625 142.07 2.781 142.07 4.25 142.07 5.609 142.852 6.609 144.18 6.609 144.93 6.609 145.242 6.422 145.461 6.281 146.055 5.891 146.258 5.219 146.289 5ZM142.914 3.734C142.914 3.016 143.492 2.344 144.227 2.344 145.18 2.344 145.492 3.016 145.539 3.734ZM142.914 3.734" fill="#211e1e"/>
<path d="M150.727 3.109C150.727 2.875 150.617 1.625 148.93 1.625 148.008 1.625 147.148 2.094 147.148 3.125 147.148 3.781 147.586 4.109 148.242 4.266L149.164 4.5C149.836 4.672 150.102 4.797 150.102 5.172 150.102 5.688 149.586 5.922 149.008 5.922 147.898 5.922 147.789 5.328 147.758 4.953H146.992C147.023 5.531 147.164 6.609 149.023 6.609 150.086 6.609 150.883 6.016 150.883 5.047 150.883 4.406 150.539 4.047 149.57 3.813L148.773 3.609C148.164 3.453 147.914 3.359 147.914 2.984 147.914 2.391 148.617 2.313 148.852 2.313 149.852 2.313 149.961 2.813 149.977 3.109ZM150.727 3.109" fill="#211e1e"/>
<path d="M155.508 3.344C155.445 2.531 154.977 1.625 153.742 1.625 152.18 1.625 151.477 2.781 151.477 4.25 151.477 5.609 152.258 6.609 153.586 6.609 154.961 6.609 155.43 5.547 155.508 4.797H154.742C154.602 5.531 154.148 5.922 153.617 5.922 152.523 5.922 152.32 4.922 152.32 4.109 152.32 3.281 152.648 2.344 153.617 2.344 154.289 2.344 154.633 2.719 154.742 3.344ZM155.508 3.344" fill="#211e1e"/>
<path d="M157.191 3.734C157.191 3.047 157.66 2.469 158.395 2.469H158.691V1.656C158.629 1.641 158.582 1.625 158.488 1.625 157.895 1.625 157.473 2 157.16 2.547H157.145V1.766H156.395V6.469H157.191ZM157.191 3.734" fill="#211e1e"/>
<path d="M160.227 1.766H159.445V6.469H160.227ZM160.227 .906V0H159.445V.906ZM160.227 .906" fill="#211e1e"/>
<path d="M162.102 6.469V5.891H162.117C162.289 6.141 162.617 6.609 163.414 6.609 165.023 6.609 165.492 5.094 165.492 3.969 165.492 2.656 164.773 1.625 163.523 1.625 162.977 1.641 162.508 1.859 162.164 2.359H162.148V0H161.352V6.469ZM164.664 4.109C164.664 5.141 164.258 5.922 163.398 5.922 162.898 5.922 162.117 5.594 162.117 4.328 162.117 3.578 162.242 2.344 163.383 2.344 164.602 2.344 164.664 3.5 164.664 4.109ZM164.664 4.109" fill="#211e1e"/>
<path d="M169.617 5C169.602 5.344 169.164 5.922 168.414 5.922 167.508 5.922 167.039 5.359 167.039 4.375H170.477C170.477 2.703 169.82 1.625 168.461 1.625 166.898 1.625 166.195 2.781 166.195 4.25 166.195 5.609 166.977 6.609 168.305 6.609 169.055 6.609 169.367 6.422 169.586 6.281 170.18 5.891 170.383 5.219 170.414 5ZM167.039 3.734C167.039 3.016 167.617 2.344 168.352 2.344 169.305 2.344 169.617 3.016 169.664 3.734ZM167.039 3.734" fill="#211e1e"/>
<path d="M174.852 3.109C174.852 2.875 174.742 1.625 173.055 1.625 172.133 1.625 171.273 2.094 171.273 3.125 171.273 3.781 171.711 4.109 172.367 4.266L173.289 4.5C173.961 4.672 174.227 4.797 174.227 5.172 174.227 5.688 173.711 5.922 173.133 5.922 172.023 5.922 171.914 5.328 171.883 4.953H171.117C171.148 5.531 171.289 6.609 173.148 6.609 174.211 6.609 175.008 6.016 175.008 5.047 175.008 4.406 174.664 4.047 173.695 3.813L172.898 3.609C172.289 3.453 172.039 3.359 172.039 2.984 172.039 2.391 172.742 2.313 172.977 2.313 173.977 2.313 174.086 2.813 174.102 3.109ZM174.852 3.109" fill="#211e1e"/>
<path d="M179.117 3.188C179.18 2.828 179.305 2.281 180.195 2.281 180.945 2.281 181.305 2.547 181.305 3.047 181.305 3.516 181.086 3.594 180.898 3.609L179.586 3.766C178.273 3.938 178.164 4.844 178.164 5.25 178.164 6.063 178.773 6.609 179.633 6.609 180.555 6.609 181.023 6.172 181.336 5.844 181.367 6.203 181.477 6.563 182.18 6.563 182.352 6.563 182.477 6.5 182.602 6.469V5.891C182.523 5.906 182.414 5.922 182.352 5.922 182.18 5.922 182.086 5.844 182.086 5.656V2.938C182.086 1.734 180.711 1.625 180.336 1.625 179.18 1.625 178.43 2.063 178.398 3.188ZM181.289 4.844C181.289 5.469 180.57 5.953 179.836 5.953 179.242 5.953 178.977 5.641 178.977 5.125 178.977 4.531 179.602 4.422 179.992 4.359 180.961 4.234 181.164 4.172 181.289 4.063ZM181.289 4.844" fill="#211e1e"/>
<path d="M189.758 3.266C189.758 1.922 188.836 1.625 188.102 1.625 187.352 1.625 186.961 2.094 186.727 2.391H186.711V0H185.914V6.469H186.711V3.906C186.711 2.719 187.383 2.344 188.023 2.344 188.789 2.344 188.961 2.75 188.961 3.391V6.469H189.758ZM189.758 3.266" fill="#211e1e"/>
<path d="M190.648 4.109C190.648 5.328 191.336 6.594 192.836 6.594 194.336 6.594 195.023 5.328 195.023 4.109 195.023 2.891 194.336 1.625 192.836 1.625 191.336 1.625 190.648 2.891 190.648 4.109ZM191.477 4.109C191.477 3.484 191.711 2.313 192.836 2.313 193.977 2.313 194.211 3.484 194.211 4.109 194.211 4.734 193.977 5.906 192.836 5.906 191.711 5.906 191.477 4.734 191.477 4.109ZM191.477 4.109" fill="#211e1e"/>
<path d="M199.746 6.469V1.766H198.949V4.359C198.949 5.031 198.652 5.922 197.652 5.922 197.137 5.922 196.746 5.656 196.746 4.891V1.766H195.949V5.141C195.949 6.266 196.793 6.609 197.48 6.609 198.23 6.609 198.637 6.313 198.98 5.766L198.996 5.781V6.469ZM199.746 6.469" fill="#211e1e"/>
<path d="M204.355 3.109C204.355 2.875 204.246 1.625 202.559 1.625 201.637 1.625 200.777 2.094 200.777 3.125 200.777 3.781 201.215 4.109 201.871 4.266L202.793 4.5C203.465 4.672 203.73 4.797 203.73 5.172 203.73 5.688 203.215 5.922 202.637 5.922 201.527 5.922 201.418 5.328 201.387 4.953H200.621C200.652 5.531 200.793 6.609 202.652 6.609 203.715 6.609 204.512 6.016 204.512 5.047 204.512 4.406 204.168 4.047 203.199 3.813L202.402 3.609C201.793 3.453 201.543 3.359 201.543 2.984 201.543 2.391 202.246 2.313 202.48 2.313 203.48 2.313 203.59 2.813 203.605 3.109ZM204.355 3.109" fill="#211e1e"/>
<path d="M208.617 5C208.602 5.344 208.164 5.922 207.414 5.922 206.508 5.922 206.039 5.359 206.039 4.375H209.477C209.477 2.703 208.82 1.625 207.461 1.625 205.898 1.625 205.195 2.781 205.195 4.25 205.195 5.609 205.977 6.609 207.305 6.609 208.055 6.609 208.367 6.422 208.586 6.281 209.18 5.891 209.383 5.219 209.414 5ZM206.039 3.734C206.039 3.016 206.617 2.344 207.352 2.344 208.305 2.344 208.617 3.016 208.664 3.734ZM206.039 3.734" fill="#211e1e"/>
<path d="M210.484 5.516H211.422V6.469H210.484Z" fill="#211e1e"/>
<path d="M45.336 118.805H46.211V125.274H45.336Z" fill="#211e1e"/>
<path d="M51.445 122.07C51.445 120.727 50.523 120.43 49.789 120.43 48.992 120.43 48.539 120.977 48.367 121.227H48.352V120.57H47.602V125.273H48.398V122.711C48.398 121.43 49.195 121.148 49.648 121.148 50.414 121.148 50.648 121.555 50.648 122.383V125.273H51.445ZM51.445 122.07" fill="#211e1e"/>
<path d="M56.039 121.914C56.039 121.68 55.93 120.43 54.242 120.43 53.32 120.43 52.461 120.898 52.461 121.93 52.461 122.586 52.898 122.914 53.555 123.07L54.477 123.305C55.148 123.477 55.414 123.602 55.414 123.977 55.414 124.492 54.898 124.727 54.32 124.727 53.211 124.727 53.102 124.133 53.07 123.758H52.305C52.336 124.336 52.477 125.414 54.336 125.414 55.398 125.414 56.195 124.82 56.195 123.852 56.195 123.211 55.852 122.852 54.883 122.617L54.086 122.414C53.477 122.258 53.227 122.164 53.227 121.789 53.227 121.195 53.93 121.117 54.164 121.117 55.164 121.117 55.273 121.617 55.289 121.914ZM56.039 121.914" fill="#211e1e"/>
<path d="M58.832 121.227V120.57H58.082V119.258H57.285V120.57H56.645V121.227H57.285V124.336C57.285 124.898 57.457 125.336 58.238 125.336 58.316 125.336 58.551 125.305 58.832 125.273V124.648H58.551C58.395 124.648 58.082 124.648 58.082 124.289V121.227ZM58.832 121.227" fill="#211e1e"/>
<path d="M60.301 121.992C60.363 121.633 60.488 121.086 61.379 121.086 62.129 121.086 62.488 121.352 62.488 121.852 62.488 122.32 62.27 122.398 62.082 122.414L60.77 122.57C59.457 122.742 59.348 123.648 59.348 124.055 59.348 124.867 59.957 125.414 60.816 125.414 61.738 125.414 62.207 124.977 62.52 124.648 62.551 125.008 62.66 125.367 63.363 125.367 63.535 125.367 63.66 125.305 63.785 125.273V124.695C63.707 124.711 63.598 124.727 63.535 124.727 63.363 124.727 63.27 124.648 63.27 124.461V121.742C63.27 120.539 61.895 120.43 61.52 120.43 60.363 120.43 59.613 120.867 59.582 121.992ZM62.473 123.648C62.473 124.273 61.754 124.758 61.02 124.758 60.426 124.758 60.16 124.445 60.16 123.93 60.16 123.336 60.785 123.227 61.176 123.164 62.145 123.039 62.348 122.977 62.473 122.867ZM62.473 123.648" fill="#211e1e"/>
<path d="M68.445 122.07C68.445 120.727 67.523 120.43 66.789 120.43 65.992 120.43 65.539 120.977 65.367 121.227H65.352V120.57H64.602V125.273H65.398V122.711C65.398 121.43 66.195 121.148 66.648 121.148 67.414 121.148 67.648 121.555 67.648 122.383V125.273H68.445ZM68.445 122.07" fill="#211e1e"/>
<path d="M73.32 122.148C73.258 121.336 72.789 120.43 71.555 120.43 69.992 120.43 69.289 121.586 69.289 123.055 69.289 124.414 70.07 125.414 71.398 125.414 72.773 125.414 73.242 124.352 73.32 123.602H72.555C72.414 124.336 71.961 124.727 71.43 124.727 70.336 124.727 70.133 123.727 70.133 122.914 70.133 122.086 70.461 121.148 71.43 121.148 72.102 121.148 72.445 121.523 72.555 122.148ZM73.32 122.148" fill="#211e1e"/>
<path d="M77.301 123.805C77.285 124.148 76.848 124.727 76.098 124.727 75.191 124.727 74.723 124.164 74.723 123.18H78.16C78.16 121.508 77.504 120.43 76.145 120.43 74.582 120.43 73.879 121.586 73.879 123.055 73.879 124.414 74.66 125.414 75.988 125.414 76.738 125.414 77.051 125.227 77.27 125.086 77.863 124.695 78.066 124.023 78.098 123.805ZM74.723 122.539C74.723 121.82 75.301 121.148 76.035 121.148 76.988 121.148 77.301 121.82 77.348 122.539ZM74.723 122.539" fill="#211e1e"/>
<path d="M82.539 121.914C82.539 121.68 82.43 120.43 80.742 120.43 79.82 120.43 78.961 120.898 78.961 121.93 78.961 122.586 79.398 122.914 80.055 123.07L80.977 123.305C81.648 123.477 81.914 123.602 81.914 123.977 81.914 124.492 81.398 124.727 80.82 124.727 79.711 124.727 79.602 124.133 79.57 123.758H78.805C78.836 124.336 78.977 125.414 80.836 125.414 81.898 125.414 82.695 124.82 82.695 123.852 82.695 123.211 82.352 122.852 81.383 122.617L80.586 122.414C79.977 122.258 79.727 122.164 79.727 121.789 79.727 121.195 80.43 121.117 80.664 121.117 81.664 121.117 81.773 121.617 81.789 121.914ZM82.539 121.914" fill="#211e1e"/>
<path d="M85.832 122.914C85.832 124.133 86.52 125.398 88.02 125.398 89.52 125.398 90.207 124.133 90.207 122.914 90.207 121.695 89.52 120.43 88.02 120.43 86.52 120.43 85.832 121.695 85.832 122.914ZM86.66 122.914C86.66 122.289 86.895 121.117 88.02 121.117 89.16 121.117 89.395 122.289 89.395 122.914 89.395 123.539 89.16 124.711 88.02 124.711 86.895 124.711 86.66 123.539 86.66 122.914ZM86.66 122.914" fill="#211e1e"/>
<path d="M92.879 121.227V120.57H92.082V119.977C92.082 119.602 92.207 119.43 92.551 119.43 92.66 119.43 92.785 119.445 92.879 119.445V118.742C92.754 118.727 92.629 118.727 92.52 118.727 91.738 118.727 91.301 119.039 91.301 119.758V120.57H90.645V121.227H91.301V125.273H92.082V121.227ZM92.879 121.227" fill="#211e1e"/>
<path d="M97.836 121.227V120.57H97.086V119.258H96.289V120.57H95.648V121.227H96.289V124.336C96.289 124.898 96.461 125.336 97.242 125.336 97.32 125.336 97.555 125.305 97.836 125.273V124.648H97.555C97.398 124.648 97.086 124.648 97.086 124.289V121.227ZM97.836 121.227" fill="#211e1e"/>
<path d="M102.445 122.07C102.445 120.727 101.523 120.43 100.789 120.43 100.039 120.43 99.648 120.898 99.414 121.195H99.398V118.805H98.602V125.273H99.398V122.711C99.398 121.523 100.07 121.148 100.711 121.148 101.477 121.148 101.648 121.555 101.648 122.195V125.273H102.445ZM102.445 122.07" fill="#211e1e"/>
<path d="M106.805 123.805C106.789 124.148 106.352 124.727 105.602 124.727 104.695 124.727 104.227 124.164 104.227 123.18H107.664C107.664 121.508 107.008 120.43 105.648 120.43 104.086 120.43 103.383 121.586 103.383 123.055 103.383 124.414 104.164 125.414 105.492 125.414 106.242 125.414 106.555 125.227 106.773 125.086 107.367 124.695 107.57 124.023 107.602 123.805ZM104.227 122.539C104.227 121.82 104.805 121.148 105.539 121.148 106.492 121.148 106.805 121.82 106.852 122.539ZM104.227 122.539" fill="#211e1e"/>
<path d="M114.949 122.07C114.949 120.727 114.027 120.43 113.293 120.43 112.543 120.43 112.152 120.898 111.918 121.195H111.902V118.805H111.105V125.273H111.902V122.711C111.902 121.523 112.574 121.148 113.215 121.148 113.98 121.148 114.152 121.555 114.152 122.195V125.273H114.949ZM114.949 122.07" fill="#211e1e"/>
<path d="M115.84 122.914C115.84 124.133 116.527 125.398 118.027 125.398 119.527 125.398 120.215 124.133 120.215 122.914 120.215 121.695 119.527 120.43 118.027 120.43 116.527 120.43 115.84 121.695 115.84 122.914ZM116.668 122.914C116.668 122.289 116.902 121.117 118.027 121.117 119.168 121.117 119.402 122.289 119.402 122.914 119.402 123.539 119.168 124.711 118.027 124.711 116.902 124.711 116.668 123.539 116.668 122.914ZM116.668 122.914" fill="#211e1e"/>
<path d="M124.934 125.273V120.57H124.137V123.164C124.137 123.836 123.84 124.727 122.84 124.727 122.324 124.727 121.934 124.461 121.934 123.695V120.57H121.137V123.945C121.137 125.07 121.98 125.414 122.668 125.414 123.418 125.414 123.824 125.117 124.168 124.57L124.184 124.586V125.273ZM124.934 125.273" fill="#211e1e"/>
<path d="M129.547 121.914C129.547 121.68 129.438 120.43 127.75 120.43 126.828 120.43 125.969 120.898 125.969 121.93 125.969 122.586 126.406 122.914 127.063 123.07L127.984 123.305C128.656 123.477 128.922 123.602 128.922 123.977 128.922 124.492 128.406 124.727 127.828 124.727 126.719 124.727 126.609 124.133 126.578 123.758H125.813C125.844 124.336 125.984 125.414 127.844 125.414 128.906 125.414 129.703 124.82 129.703 123.852 129.703 123.211 129.359 122.852 128.391 122.617L127.594 122.414C126.984 122.258 126.734 122.164 126.734 121.789 126.734 121.195 127.438 121.117 127.672 121.117 128.672 121.117 128.781 121.617 128.797 121.914ZM129.547 121.914" fill="#211e1e"/>
<path d="M133.809 123.805C133.793 124.148 133.355 124.727 132.605 124.727 131.699 124.727 131.23 124.164 131.23 123.18H134.668C134.668 121.508 134.012 120.43 132.652 120.43 131.09 120.43 130.387 121.586 130.387 123.055 130.387 124.414 131.168 125.414 132.496 125.414 133.246 125.414 133.559 125.227 133.777 125.086 134.371 124.695 134.574 124.023 134.605 123.805ZM131.23 122.539C131.23 121.82 131.809 121.148 132.543 121.148 133.496 121.148 133.809 121.82 133.855 122.539ZM131.23 122.539" fill="#211e1e"/>
<path d="M142.012 118.805H141.23V121.227H141.215C141.012 120.961 140.652 120.43 139.809 120.43 138.559 120.43 137.84 121.461 137.84 122.773 137.84 123.898 138.309 125.414 139.918 125.414 140.371 125.414 140.918 125.258 141.246 124.633H141.277V125.273H142.012ZM138.668 122.914C138.668 122.305 138.73 121.148 139.949 121.148 141.09 121.148 141.215 122.383 141.215 123.133 141.215 124.398 140.434 124.727 139.934 124.727 139.059 124.727 138.668 123.945 138.668 122.914ZM138.668 122.914" fill="#211e1e"/>
<path d="M146.313 123.805C146.297 124.148 145.859 124.727 145.109 124.727 144.203 124.727 143.734 124.164 143.734 123.18H147.172C147.172 121.508 146.516 120.43 145.156 120.43 143.594 120.43 142.891 121.586 142.891 123.055 142.891 124.414 143.672 125.414 145 125.414 145.75 125.414 146.063 125.227 146.281 125.086 146.875 124.695 147.078 124.023 147.109 123.805ZM143.734 122.539C143.734 121.82 144.313 121.148 145.047 121.148 146 121.148 146.313 121.82 146.359 122.539ZM143.734 122.539" fill="#211e1e"/>
<path d="M151.547 121.914C151.547 121.68 151.438 120.43 149.75 120.43 148.828 120.43 147.969 120.898 147.969 121.93 147.969 122.586 148.406 122.914 149.063 123.07L149.984 123.305C150.656 123.477 150.922 123.602 150.922 123.977 150.922 124.492 150.406 124.727 149.828 124.727 148.719 124.727 148.609 124.133 148.578 123.758H147.813C147.844 124.336 147.984 125.414 149.844 125.414 150.906 125.414 151.703 124.82 151.703 123.852 151.703 123.211 151.359 122.852 150.391 122.617L149.594 122.414C148.984 122.258 148.734 122.164 148.734 121.789 148.734 121.195 149.438 121.117 149.672 121.117 150.672 121.117 150.781 121.617 150.797 121.914ZM151.547 121.914" fill="#211e1e"/>
<path d="M156.324 122.148C156.262 121.336 155.793 120.43 154.559 120.43 152.996 120.43 152.293 121.586 152.293 123.055 152.293 124.414 153.074 125.414 154.402 125.414 155.777 125.414 156.246 124.352 156.324 123.602H155.559C155.418 124.336 154.965 124.727 154.434 124.727 153.34 124.727 153.137 123.727 153.137 122.914 153.137 122.086 153.465 121.148 154.434 121.148 155.105 121.148 155.449 121.523 155.559 122.148ZM156.324 122.148" fill="#211e1e"/>
<path d="M158.012 122.539C158.012 121.852 158.48 121.273 159.215 121.273H159.512V120.461C159.449 120.445 159.402 120.43 159.309 120.43 158.715 120.43 158.293 120.805 157.98 121.352H157.965V120.57H157.215V125.273H158.012ZM158.012 122.539" fill="#211e1e"/>
<path d="M161.047 120.57H160.266V125.273H161.047ZM161.047 119.711V118.805H160.266V119.711ZM161.047 119.711" fill="#211e1e"/>
<path d="M162.918 125.273V124.695H162.934C163.105 124.945 163.434 125.414 164.23 125.414 165.84 125.414 166.309 123.898 166.309 122.773 166.309 121.461 165.59 120.43 164.34 120.43 163.793 120.445 163.324 120.664 162.98 121.164H162.965V118.805H162.168V125.273ZM165.48 122.914C165.48 123.945 165.074 124.727 164.215 124.727 163.715 124.727 162.934 124.398 162.934 123.133 162.934 122.383 163.059 121.148 164.199 121.148 165.418 121.148 165.48 122.305 165.48 122.914ZM165.48 122.914" fill="#211e1e"/>
<path d="M170.434 123.805C170.418 124.148 169.98 124.727 169.23 124.727 168.324 124.727 167.855 124.164 167.855 123.18H171.293C171.293 121.508 170.637 120.43 169.277 120.43 167.715 120.43 167.012 121.586 167.012 123.055 167.012 124.414 167.793 125.414 169.121 125.414 169.871 125.414 170.184 125.227 170.402 125.086 170.996 124.695 171.199 124.023 171.23 123.805ZM167.855 122.539C167.855 121.82 168.434 121.148 169.168 121.148 170.121 121.148 170.434 121.82 170.48 122.539ZM167.855 122.539" fill="#211e1e"/>
<path d="M176.141 118.805H175.359V121.227H175.344C175.141 120.961 174.781 120.43 173.938 120.43 172.688 120.43 171.969 121.461 171.969 122.773 171.969 123.898 172.438 125.414 174.047 125.414 174.5 125.414 175.047 125.258 175.375 124.633H175.406V125.273H176.141ZM172.797 122.914C172.797 122.305 172.859 121.148 174.078 121.148 175.219 121.148 175.344 122.383 175.344 123.133 175.344 124.398 174.563 124.727 174.063 124.727 173.188 124.727 172.797 123.945 172.797 122.914ZM172.797 122.914" fill="#211e1e"/>
<path d="M180.422 125.273V124.695H180.438C180.609 124.945 180.938 125.414 181.734 125.414 183.344 125.414 183.813 123.898 183.813 122.773 183.813 121.461 183.094 120.43 181.844 120.43 181.297 120.445 180.828 120.664 180.484 121.164H180.469V118.805H179.672V125.273ZM182.984 122.914C182.984 123.945 182.578 124.727 181.719 124.727 181.219 124.727 180.438 124.398 180.438 123.133 180.438 122.383 180.563 121.148 181.703 121.148 182.922 121.148 182.984 122.305 182.984 122.914ZM182.984 122.914" fill="#211e1e"/>
<path d="M186.242 124.398H186.227L184.977 120.57H184.07L185.82 125.398C185.445 126.367 185.398 126.492 184.992 126.492 184.773 126.492 184.602 126.445 184.508 126.414V127.133C184.633 127.164 184.727 127.195 184.836 127.195 185.852 127.195 185.945 127.086 186.68 125.18 187.289 123.648 187.836 122.102 188.383 120.57H187.508ZM186.242 124.398" fill="#211e1e"/>
<path d="M193.289 121.227V120.57H192.539V119.258H191.742V120.57H191.102V121.227H191.742V124.336C191.742 124.898 191.914 125.336 192.695 125.336 192.773 125.336 193.008 125.305 193.289 125.273V124.648H193.008C192.852 124.648 192.539 124.648 192.539 124.289V121.227ZM193.289 121.227" fill="#211e1e"/>
<path d="M197.898 122.07C197.898 120.727 196.977 120.43 196.242 120.43 195.492 120.43 195.102 120.898 194.867 121.195H194.852V118.805H194.055V125.273H194.852V122.711C194.852 121.523 195.523 121.148 196.164 121.148 196.93 121.148 197.102 121.555 197.102 122.195V125.273H197.898ZM197.898 122.07" fill="#211e1e"/>
<path d="M202.258 123.805C202.242 124.148 201.805 124.727 201.055 124.727 200.148 124.727 199.68 124.164 199.68 123.18H203.117C203.117 121.508 202.461 120.43 201.102 120.43 199.539 120.43 198.836 121.586 198.836 123.055 198.836 124.414 199.617 125.414 200.945 125.414 201.695 125.414 202.008 125.227 202.227 125.086 202.82 124.695 203.023 124.023 203.055 123.805ZM199.68 122.539C199.68 121.82 200.258 121.148 200.992 121.148 201.945 121.148 202.258 121.82 202.305 122.539ZM199.68 122.539" fill="#211e1e"/>
<path d="M207.246 125.273V124.695H207.262C207.434 124.945 207.762 125.414 208.559 125.414 210.168 125.414 210.637 123.898 210.637 122.773 210.637 121.461 209.918 120.43 208.668 120.43 208.121 120.445 207.652 120.664 207.309 121.164H207.293V118.805H206.496V125.273ZM209.809 122.914C209.809 123.945 209.402 124.727 208.543 124.727 208.043 124.727 207.262 124.398 207.262 123.133 207.262 122.383 207.387 121.148 208.527 121.148 209.746 121.148 209.809 122.305 209.809 122.914ZM209.809 122.914" fill="#211e1e"/>
<path d="M211.41 118.805H212.19101V125.274H211.41Z" fill="#211e1e"/>
<path d="M217.203 125.273V120.57H216.406V123.164C216.406 123.836 216.109 124.727 215.109 124.727 214.594 124.727 214.203 124.461 214.203 123.695V120.57H213.406V123.945C213.406 125.07 214.25 125.414 214.938 125.414 215.688 125.414 216.094 125.117 216.438 124.57L216.453 124.586V125.273ZM217.203 125.273" fill="#211e1e"/>
<path d="M221.582 123.805C221.566 124.148 221.129 124.727 220.379 124.727 219.473 124.727 219.004 124.164 219.004 123.18H222.441C222.441 121.508 221.785 120.43 220.426 120.43 218.863 120.43 218.16 121.586 218.16 123.055 218.16 124.414 218.941 125.414 220.27 125.414 221.02 125.414 221.332 125.227 221.551 125.086 222.145 124.695 222.348 124.023 222.379 123.805ZM219.004 122.539C219.004 121.82 219.582 121.148 220.316 121.148 221.27 121.148 221.582 121.82 221.629 122.539ZM219.004 122.539" fill="#211e1e"/>
<path d="M224.082 123.133C224.082 122.383 224.207 121.148 225.348 121.148 226.566 121.148 226.629 122.305 226.629 122.914 226.629 123.945 226.223 124.727 225.363 124.727 224.863 124.727 224.082 124.398 224.082 123.133ZM223.316 127.133H224.113V124.773H224.129C224.332 125.117 224.754 125.414 225.379 125.414 226.988 125.414 227.457 123.898 227.457 122.773 227.457 121.461 226.738 120.43 225.488 120.43 224.645 120.43 224.27 120.961 224.082 121.227H224.066V120.57H223.316ZM223.316 127.133" fill="#211e1e"/>
<path d="M229.285 122.539C229.285 121.852 229.754 121.273 230.488 121.273H230.785V120.461C230.723 120.445 230.676 120.43 230.582 120.43 229.988 120.43 229.566 120.805 229.254 121.352H229.238V120.57H228.488V125.273H229.285ZM229.285 122.539" fill="#211e1e"/>
<path d="M232.324 120.57H231.543V125.273H232.324ZM232.324 119.711V118.805H231.543V119.711ZM232.324 119.711" fill="#211e1e"/>
<path d="M237.352 122.07C237.352 120.727 236.43 120.43 235.695 120.43 234.898 120.43 234.445 120.977 234.273 121.227H234.258V120.57H233.508V125.273H234.305V122.711C234.305 121.43 235.102 121.148 235.555 121.148 236.32 121.148 236.555 121.555 236.555 122.383V125.273H237.352ZM237.352 122.07" fill="#211e1e"/>
<path d="M240.242 121.227V120.57H239.492V119.258H238.695V120.57H238.055V121.227H238.695V124.336C238.695 124.898 238.867 125.336 239.648 125.336 239.727 125.336 239.961 125.305 240.242 125.273V124.648H239.961C239.805 124.648 239.492 124.648 239.492 124.289V121.227ZM240.242 121.227" fill="#211e1e"/>
<path d="M241.211 124.32H242.149V125.273H241.211Z" fill="#211e1e"/>
</g>
</svg>
