<svg xmlns="http://www.w3.org/2000/svg" xmlns:xlink="http://www.w3.org/1999/xlink" xmlns:inkscape="http://www.inkscape.org/namespaces/inkscape" version="1.1" width="204.95999" height="227.04" viewBox="0 0 204.95999 227.04">
<defs>
<clipPath id="clip_1">
<path transform="matrix(.24,0,0,.24,0,0)" d="M0 0H854.1666V944.07888H0Z" clip-rule="evenodd"/>
</clipPath>
<clipPath id="clip_2">
<path transform="matrix(.24,0,0,.24,0,0)" d="M0 0H854.1666V941.0818H0Z" clip-rule="evenodd"/>
</clipPath>
<path id="font_3_51" d="M.07714844 0V.7158203H.34716798C.394694 .7158203 .4309896 .71354678 .4560547 .70899966 .49121095 .70314028 .5206706 .69200137 .5444336 .6755829 .5681966 .6591644 .587321 .63615927 .60180667 .6065674 .6162923 .57698568 .62353518 .5444743 .62353518 .5090332 .62353518 .44822184 .6041667 .39676414 .5654297 .35466004 .5266927 .31255595 .45670573 .2915039 .35546876 .2915039H.171875V0H.07714844M.171875 .37597657H.3569336C.4181315 .37597657 .46158854 .38734437 .4873047 .41007997 .5130208 .4328257 .5258789 .4648336 .5258789 .5061035 .5258789 .5359904 .51831057 .5615743 .5031738 .5828552 .4880371 .60413619 .46809898 .6181895 .44335938 .62501528 .42740885 .6292369 .39794923 .63134768 .35498048 .63134768H.171875V.37597657Z"/>
<path id="font_3_75" d="M.06591797 0V.7158203H.1538086V.45898438C.19482422 .50651046 .24658203 .53027346 .30908204 .53027346 .3474935 .53027346 .38085938 .5227051 .4091797 .50756838 .4375 .49243165 .45776368 .47151695 .4699707 .44482423 .48217774 .4181315 .48828126 .37939454 .48828126 .32861329V0H.40039063V.32861329C.40039063 .3725586 .39086915 .40454103 .37182618 .42456056 .3527832 .44458009 .32584635 .45458985 .29101563 .45458985 .26497398 .45458985 .24047852 .4478353 .2175293 .43432618 .19458008 .42081706 .17822266 .4025065 .16845703 .37939454 .1586914 .35628257 .1538086 .3243815 .1538086 .2836914V0H.06591797Z"/>
<path id="font_3_92" d="M.06201172-.20019531 .052246095-.11767578C.07145182-.12288412 .08821615-.12548828 .10253906-.12548828 .12207031-.12548828 .13769531-.12219238 .14941406-.115600589 .16113281-.10901896 .17073567-.09979757 .17822266-.0879364 .18375652-.079045619 .19270833-.056981405 .20507813-.021743775 .20670574-.016799927 .20930989-.009552002 .21289063 0L.016113282 .5185547H.110839847L.21875 .21896363C.23274739 .18095906 .24527996 .14101155 .25634767 .099121097 .2664388 .13939412 .27848307 .1786906 .29248048 .2170105L.4033203 .5185547H.49121095L.2939453-.009140015C.27278648-.06614685 .25634767-.105397548 .2446289-.12689209 .2290039-.15588379 .21110027-.17713928 .19091797-.19065857 .17073567-.20417786 .14664714-.2109375 .118652347-.2109375 .10172526-.2109375 .082845058-.20735677 .06201172-.20019531Z"/>
<path id="font_3_86" d="M.030761719 .15527344 .11767578 .16894531C.122558597 .13426717 .1361491 .107691448 .15844727 .08921814 .18074544 .070755008 .21191406 .061523439 .25195313 .061523439 .29231773 .061523439 .32226563 .06967672 .34179688 .08598328 .36132813 .10230001 .37109376 .12143453 .37109376 .14338684 .37109376 .16309102 .36246745 .17859395 .34521485 .18989563 .33317057 .1976471 .30322267 .20749919 .2553711 .2194519 .19091797 .23573812 .14624024 .24982707 .12133789 .26171876 .09643555 .27361045 .077555339 .29006449 .064697269 .31108094 .05183919 .33209739 .045410158 .35531108 .045410158 .38072206 .045410158 .40385438 .05069987 .4252777 .061279298 .44499208 .07185873 .46470643 .08626302 .4810791 .10449219 .4941101 .11816406 .5042114 .13680013 .5127614 .16040039 .51976016 .18400066 .526769 .20930989 .53027346 .23632813 .53027346 .27701823 .53027346 .31274415 .52437338 .34350587 .51257327 .37426759 .50078329 .39697267 .48480735 .4116211 .4646454 .42626954 .44449363 .4363607 .4175415 .44189454 .38378907L.35595704 .3720703C.35205079 .39876304 .34073893 .41959635 .32202149 .4345703 .30330406 .44954429 .27685548 .45703126 .24267578 .45703126 .2023112 .45703126 .17350261 .45038859 .15625 .43710328 .13899739 .42382813 .1303711 .40827943 .1303711 .39045716 .1303711 .37912498 .13395183 .3689219 .14111328 .35984803 .14827474 .35045878 .1595052 .34268699 .17480469 .3365326 .18359375 .33328758 .20947266 .32583619 .2524414 .31417848 .31461589 .29758708 .35799156 .28400675 .38256837 .2734375 .40714518 .26286827 .42643229 .24749756 .4404297 .22732544 .4544271 .2071635 .46142579 .18212383 .46142579 .15220642 .46142579 .12292989 .45288087 .09536234 .43579103 .069503787 .41870118 .043655397 .39404298 .02365621 .3618164 .009506226 .32958985-.0046437585 .2931315-.01171875 .2524414-.01171875 .1850586-.01171875 .13370769 .002319336 .09838867 .030395508 .063069667 .05847168 .040527345 .100097659 .030761719 .15527344Z"/>
<path id="font_3_76" d="M.06640625 .6142578V.7158203H.15429688V.6142578H.06640625M.06640625 0V.5185547H.15429688V0H.06640625Z"/>
<path id="font_3_70" d="M.40429688 .19042969 .49072267 .17919922C.48128257 .11947632 .45711265 .07272339 .4182129 .03894043 .37931315 .005167643 .33154298-.01171875 .27490235-.01171875 .2039388-.01171875 .14689128 .011474609 .103759769 .057861329 .060628255 .10424805 .0390625 .17073567 .0390625 .25732423 .0390625 .3133138 .048339845 .3623047 .06689453 .40429688 .08544922 .44628907 .11368815 .4777832 .15161133 .4987793 .1895345 .5197754 .23079427 .53027346 .27539063 .53027346 .33170573 .53027346 .37776695 .51598617 .41357423 .4874115 .4493815 .45884706 .47233073 .4182841 .48242188 .36572267L.39697267 .35253907C.38883464 .38720704 .37443034 .4132894 .35375978 .43078614 .3330892 .44828288 .30810548 .45703126 .2788086 .45703126 .23453777 .45703126 .1985677 .4412384 .17089844 .4096527 .14322917 .37807719 .12939453 .32811485 .12939453 .25976563 .12939453 .19043987 .14274089 .1400655 .1694336 .10864258 .1961263 .07722982 .23095703 .061523439 .27392579 .061523439 .308431 .061523439 .3372396 .07206217 .36035157 .09313965 .38346354 .114217128 .39811198 .14664714 .40429688 .19042969Z"/>
<path id="font_3_68" d="M.40429688 .06402588C.37174479 .03633626 .34041343 .016789755 .31030274 .0053863527 .28019206-.0060170495 .24788411-.01171875 .2133789-.01171875 .15641277-.01171875 .11263021 .0022074383 .08203125 .030059815 .051432294 .05791219 .036132814 .09350077 .036132814 .13682556 .036132814 .16222637 .04191081 .18542989 .053466798 .20643616 .06502279 .22745259 .08015951 .24431356 .09887695 .25701905 .1175944 .26972453 .13867188 .2793325 .16210938 .2858429 .17936199 .29041038 .20540364 .29480998 .24023438 .29904176 .3111979 .30744425 .363444 .3174642 .39697267 .32910157 .3972982 .34109498 .39746095 .3487142 .39746095 .35195924 .39746095 .38763429 .38916017 .4127655 .3725586 .4273529 .35009767 .44713847 .31673179 .45703126 .27246095 .45703126 .2311198 .45703126 .20060222 .44978843 .1809082 .43530274 .16121419 .42081706 .14664714 .39518229 .13720703 .35839845L.05126953 .3701172C.05908203 .40701295 .0719401 .43680827 .08984375 .45950318 .1077474 .4821981 .1336263 .4996643 .16748047 .51190188 .20133464 .5241496 .24055989 .53027346 .28515626 .53027346 .3294271 .53027346 .36539714 .5250651 .3930664 .51464846 .4207357 .50423178 .44108073 .49112956 .45410157 .4753418 .4671224 .45955406 .47623698 .43961589 .4814453 .41552735 .484375 .40055339 .48583985 .37353517 .48583985 .33447267V.21728516C.48583985 .13557942 .48771159 .08390299 .49145509 .06225586 .49519859 .040608724 .5026042 .019856772 .5136719 0H.421875C.4127604 .018249512 .40690104 .039591474 .40429688 .06402588M.39697267 .2607422C.36507163 .24760945 .31722007 .2364502 .25341798 .2272644 .21728516 .22203572 .19173177 .21615093 .17675781 .20960999 .16178386 .20307923 .15022786 .19351705 .14208985 .18092346 .13395183 .16834004 .12988281 .15436809 .12988281 .13900757 .12988281 .115478519 .13875325 .09586588 .15649414 .08016968 .17423503 .06448364 .20019531 .056640626 .234375 .056640626 .26822917 .056640626 .29833985 .064081829 .32470704 .07896423 .35107423 .09384664 .37044273 .11420695 .3828125 .14004517 .3922526 .16000366 .39697267 .18944295 .39697267 .22836304V.2607422Z"/>
<path id="font_3_79" d="M.063964847 0V.7158203H.15185547V0H.063964847Z"/>
<path id="font_3_3" d="M0 0Z"/>
<path id="font_3_72" d="M.42089845 .16699219 .51171877 .15576172C.49739585 .10270182 .47086589 .061523439 .4321289 .032226564 .39339195 .0029296876 .34391276-.01171875 .2836914-.01171875 .20784505-.01171875 .14770508 .01163737 .103271488 .05834961 .05883789 .10506185 .036621095 .17057292 .036621095 .2548828 .036621095 .3421224 .05908203 .40983073 .104003909 .4580078 .14892578 .5061849 .20719402 .53027346 .2788086 .53027346 .34814454 .53027346 .40478517 .5067088 .44873048 .45957948 .49267579 .41246034 .51464846 .34616599 .51464846 .2606964 .51464846 .25549827 .51448568 .247701 .51416018 .23730469H.1274414C.13069661 .1805013 .14680989 .13700359 .17578125 .10681152 .20475261 .07661947 .24088542 .061523439 .2841797 .061523439 .31640626 .061523439 .34391276 .0699056 .36669923 .08666992 .3894857 .10344442 .4075521 .1302185 .42089845 .16699219M.13232422 .31054688H.421875C.41796876 .3534546 .40690104 .38563539 .38867188 .40708924 .3606771 .4403839 .3243815 .45703126 .27978517 .45703126 .23942058 .45703126 .20548503 .44374085 .17797852 .41716004 .150472 .3905894 .1352539 .35505168 .13232422 .31054688Z"/>
<path id="font_3_81" d="M.06591797 0V.5185547H.14501953V.4453125C.18310547 .5019531 .23811849 .53027346 .3100586 .53027346 .3413086 .53027346 .3700358 .5246582 .39624024 .51342776 .42244468 .50219729 .44205729 .48746745 .45507813 .46923829 .46809898 .45100913 .47721354 .42936198 .48242188 .40429688 .4856771 .38802085 .4873047 .35953776 .4873047 .31884767V0H.39941407V.31576539C.39941407 .35161338 .3959961 .37841798 .38916017 .3961792 .38232423 .41394044 .37019859 .42811585 .3527832 .43870545 .33536784 .44929505 .3149414 .45458985 .2915039 .45458985 .254069 .45458985 .22176107 .44269309 .19458008 .41889955 .1673991 .39511619 .1538086 .34998576 .1538086 .2835083V0H.06591797Z"/>
<path id="font_3_87" d="M.2578125 .07763672 .2705078 0C.24576824-.0045572917 .22363281-.0068359377 .20410156-.0068359377 .17220052-.0068359377 .14746094-.0017903646 .12988281 .008300781 .11230469 .018391928 .0999349 .031656904 .09277344 .048095704 .08561198 .06453451 .08203125 .099121097 .08203125 .15185547V.4501953H.017578125V.5185547H.08203125V.6473236L.1694336 .7001953V.5185547H.2578125V.4501953H.1694336V.14697266C.1694336 .121907558 .17097982 .10579427 .17407227 .09863281 .17716472 .09147135 .18221028 .08577474 .18920899 .08154297 .19620769 .077311199 .20621746 .07519531 .21923828 .07519531 .2290039 .07519531 .24186199 .07600912 .2578125 .07763672Z"/>
<path id="font_3_38" d="M.5878906 .25195313 .6826172 .22802735C.66276046 .15006511 .6270345 .09061686 .57543948 .049682619 .5238444 .008748372 .46077476-.01171875 .38623048-.01171875 .30908204-.01171875 .24633789 .0039876305 .19799805 .03540039 .1496582 .06681315 .11287435 .11230469 .087646488 .171875 .06241862 .23144531 .049804689 .29541017 .049804689 .36376954 .049804689 .4383138 .06404623 .5033366 .0925293 .5588379 .12101237 .6143392 .16153972 .65649417 .21411133 .68530276 .26668296 .7141113 .32454429 .7285156 .3876953 .7285156 .4593099 .7285156 .51953127 .71028646 .5683594 .6738281 .6171875 .6373698 .6512044 .5861003 .67041018 .52001956L.57714846 .49804688C.5605469 .55030319 .5364583 .5883484 .5048828 .6121826 .47330729 .63602706 .43359376 .6479492 .3857422 .6479492 .33072917 .6479492 .28474937 .6347402 .24780274 .60832217 .21085613 .58191427 .18489583 .5464528 .16992188 .50193789 .15494792 .45743308 .14746094 .4115448 .14746094 .36427308 .14746094 .30329896 .15633138 .25006614 .17407227 .20457459 .19181316 .15908306 .21940105 .12508647 .25683595 .10258484 .29427085 .080093387 .3347982 .068847659 .37841798 .068847659 .43147788 .068847659 .47639976 .084228519 .5131836 .114990238 .54996749 .14575196 .5748698 .19140625 .5878906 .25195313Z"/>
<path id="font_3_82" d="M.033203126 .25927735C.033203126 .355306 .059895833 .42643229 .11328125 .47265626 .15787761 .5110677 .21223958 .53027346 .2763672 .53027346 .34765626 .53027346 .40592448 .5069173 .45117188 .46020509 .49641929 .41349284 .51904299 .34895835 .51904299 .26660157 .51904299 .1998698 .5090332 .14737956 .48901368 .10913086 .46899415 .070882167 .43986003 .041178388 .40161134 .020019532 .36336265-.0011393229 .3216146-.01171875 .2763672-.01171875 .20377605-.01171875 .1451009 .011555989 .1003418 .05810547 .055582685 .104654949 .033203126 .17171224 .033203126 .25927735M.123535159 .25952149C.123535159 .19335938 .13802083 .14381917 .16699219 .11090088 .19596355 .07798258 .23242188 .061523439 .2763672 .061523439 .31998698 .061523439 .35628257 .078063968 .3852539 .11114502 .41422526 .14422608 .42871095 .19465637 .42871095 .2624359 .42871095 .32632957 .4141439 .3747355 .38500978 .4076538 .35587565 .4405721 .31966148 .45703126 .2763672 .45703126 .23242188 .45703126 .19596355 .44065348 .16699219 .40789796 .13802083 .37514244 .123535159 .3256836 .123535159 .25952149Z"/>
<path id="font_3_83" d="M.06591797-.19921875V.5185547H.1459961V.45166017C.1648763 .4778646 .18619792 .4975179 .20996094 .5106201 .23372396 .52372238 .26253257 .53027346 .29638673 .53027346 .34065757 .53027346 .37972007 .5188802 .41357423 .49609376 .44742839 .47330729 .47298179 .4411621 .49023438 .3996582 .507487 .3581543 .5161133 .31266276 .5161133 .2631836 .5161133 .2101237 .5065918 .16235352 .48754884 .11987305 .46850587 .07739258 .44083659 .044840497 .40454103 .022216797 .36824546-.00040690104 .33007813-.01171875 .29003907-.01171875 .2607422-.01171875 .23445638-.005452474 .21118164 .007080078 .1879069 .019622803 .16878255 .035461427 .1538086 .054595949V-.19921875H.06591797M.14550781 .25708009C.14550781 .19042969 .15901692 .14117432 .18603516 .109313968 .21305339 .07745361 .24576824 .061523439 .2841797 .061523439 .3232422 .061523439 .35668946 .07802328 .38452149 .11102295 .41235353 .14402263 .42626954 .19514974 .42626954 .2644043 .42626954 .33040367 .41267906 .37982179 .38549806 .4126587 .35831706 .4454956 .32584635 .46191407 .28808595 .46191407 .25065104 .46191407 .2175293 .44443766 .1887207 .40948487 .15991211 .37453208 .14550781 .32373048 .14550781 .25708009Z"/>
<path id="font_3_88" d="M.40576173 0V.076171878C.36539714 .017578125 .31054688-.01171875 .24121094-.01171875 .21061199-.01171875 .18204753-.005859375 .15551758 .005859375 .12898763 .017578125 .10929362 .03230794 .09643555 .050048829 .08357748 .06778971 .07454427 .08951823 .06933594 .115234378 .06575521 .13248699 .063964847 .15983074 .063964847 .19726563V.5185547H.15185547V.23095703C.15185547 .1850586 .15364583 .15413411 .15722656 .1381836 .16276042 .11507162 .17447917 .09692383 .19238281 .083740238 .21028646 .07055664 .23242188 .063964847 .25878907 .063964847 .28515626 .063964847 .30989585 .0707194 .3330078 .084228519 .35611979 .09773763 .3724772 .116129558 .38208009 .1394043 .39168296 .16267903 .39648438 .19645183 .39648438 .24072266V.5185547H.484375V0H.40576173Z"/>
<path id="font_3_54" d="M.044921876 .23046875 .13427735 .23828125C.13850911 .20247396 .14835613 .1730957 .16381836 .15014649 .1792806 .12719727 .20328777 .10864258 .23583985 .09448242 .26839195 .080322269 .30501304 .07324219 .34570313 .07324219 .38183595 .07324219 .41373698 .07861328 .44140626 .08935547 .46907554 .100097659 .4896647 .11482748 .5031738 .13354492 .5166829 .15226238 .5234375 .1726888 .5234375 .19482422 .5234375 .21728516 .51692709 .23689778 .50390627 .2536621 .4908854 .27042643 .46940104 .28450523 .43945313 .29589845 .4202474 .3033854 .37776695 .3150228 .31201173 .33081056 .24625652 .3465983 .20019531 .36149089 .17382813 .37548829 .13964844 .39339195 .11417643 .41560874 .09741211 .44213868 .08064779 .4686686 .072265628 .4983724 .072265628 .53125 .072265628 .5673828 .08251953 .6011556 .103027347 .63256838 .123535159 .66398116 .15348308 .6878255 .1928711 .70410159 .23225911 .7203776 .27604167 .7285156 .32421876 .7285156 .37727867 .7285156 .42407228 .7199707 .4645996 .70288088 .50512698 .685791 .5362956 .66064456 .55810549 .6274414 .57991537 .5942383 .5916341 .5566406 .5932617 .51464846L.5024414 .5078125C.4975586 .55322268 .48103843 .5875244 .45288087 .6107178 .4247233 .63391116 .38313804 .6455078 .328125 .6455078 .27083335 .6455078 .22908528 .6349996 .20288086 .61398318 .17667644 .59297689 .16357422 .5676524 .16357422 .53800967 .16357422 .51227316 .17285156 .49109904 .19140625 .4744873 .20963542 .4578654 .25724284 .44084168 .33422853 .42341615 .4112142 .4059906 .46402995 .39076234 .49267579 .37773133 .53434249 .3585154 .5651042 .33416239 .58496096 .30467225 .6048177 .27519227 .6147461 .24123128 .6147461 .2027893 .6147461 .16468303 .6038411 .12876892 .58203127 .095047 .5602214 .061335248 .52888998 .035110475 .4880371 .01637268 .44718424-.0023549398 .40120445-.01171875 .35009767-.01171875 .285319-.01171875 .2310384-.0022786458 .18725586 .016601563 .14347331 .03548177 .10913086 .06388346 .084228519 .10180664 .059326173 .13972982 .046223958 .18261719 .044921876 .23046875Z"/>
<path id="font_3_73" d="M.08691406 0V.4501953H.009277344V.5185547H.08691406V.5736084C.08691406 .6083577 .09000651 .6341756 .096191409 .651062 .104654949 .6737874 .11954752 .69221499 .14086914 .7063446 .16219075 .72047427 .1920573 .72753909 .23046875 .72753909 .25520835 .72753909 .2825521 .7246094 .3125 .71875L.2993164 .64208987C.28108726 .64534506 .26383464 .64697268 .2475586 .64697268 .22086589 .64697268 .20198567 .6412964 .19091797 .62994387 .17985027 .6185913 .1743164 .5973511 .1743164 .56622317V.5185547H.27539063V.4501953H.1743164V0H.08691406Z"/>
<path id="font_3_90" d="M.1616211 0 .0029296876 .5185547H.09375L.17626953 .21928406 .20703125 .107910159C.20833333 .11343384 .21728516 .14904277 .23388672 .21473694L.31640626 .5185547H.40673829L.484375 .21783448 .5102539 .118652347 .54003909 .21876526 .62890627 .5185547H.71435549L.5522461 0H.4609375L.37841798 .31071473 .35839845 .39892579 .25341798 0H.1616211Z"/>
<path id="font_3_85" d="M.064941409 0V.5185547H.14404297V.4404297C.16422527 .4770101 .18286133 .50112918 .19995117 .51278689 .21704102 .5244446 .23583985 .53027346 .25634767 .53027346 .28597007 .53027346 .31608073 .520874 .3466797 .5020752L.31640626 .42089845C.29492188 .43359376 .2734375 .4399414 .25195313 .4399414 .23274739 .4399414 .2154948 .43415324 .20019531 .4225769 .18489583 .41101075 .17399089 .3949636 .16748047 .37443543 .15771485 .3431549 .15283203 .3089396 .15283203 .27178956V0H.064941409Z"/>
<path id="font_3_55" d="M.25927735 0V.63134768H.0234375V.7158203H.5908203V.63134768H.3540039V0H.25927735Z"/>
<path id="font_3_69" d="M.14697266 0H.06542969V.7158203H.15332031V.45950318C.19042969 .50668337 .23779297 .53027346 .29541017 .53027346 .3273112 .53027346 .35750328 .5238444 .38598634 .5109863 .4144694 .49812828 .4379069 .48006187 .45629884 .4567871 .47469078 .43351237 .48909507 .4054362 .49951173 .3725586 .5099284 .339681 .5151367 .30452476 .5151367 .26708985 .5151367 .17822266 .49316407 .10953776 .44921876 .061035158 .40527345 .012532552 .35253907-.01171875 .29101563-.01171875 .2298177-.01171875 .18180339 .014160156 .14697266 .06591797V0M.1459961 .26316834C.1459961 .20129903 .15445964 .15659587 .17138672 .12905884 .19905599 .08403524 .23649089 .061523439 .2836914 .061523439 .32210288 .061523439 .355306 .078125 .38330079 .111328128 .41129557 .14453125 .42529298 .19401042 .42529298 .25976563 .42529298 .32713828 .41186524 .37685649 .38500978 .4089203 .3581543 .44099427 .3256836 .45703126 .28759767 .45703126 .2491862 .45703126 .21598308 .4404297 .18798828 .40722657 .15999349 .37402345 .1459961 .32600404 .1459961 .26316834Z"/>
<clipPath id="clip_4">
<path transform="matrix(.24,0,0,.24,0,0)" d="M650.3654 716.3011H836.18417V773.24557H650.3654Z" clip-rule="evenodd"/>
</clipPath>
<path id="font_5_88" d="M.41308595 0V.07763672C.39420573 .04996745 .36938478 .028157553 .33862306 .012207031 .30786134-.0037434896 .27539063-.01171875 .24121094-.01171875 .2063802-.01171875 .1751302-.0040690104 .14746094 .011230469 .119791667 .026529948 .09977213 .048014326 .087402347 .075683597 .075032558 .10335287 .068847659 .14160156 .068847659 .19042969V.5185547H.20605469V.28082276C.20605469 .20806885 .20857747 .16349285 .21362305 .14709473 .21866863 .13069661 .22786458 .1177063 .24121094 .10812378 .25455729 .09854126 .27148438 .09375 .2919922 .09375 .3154297 .09375 .33642579 .10016378 .35498048 .11299133 .37353517 .1258189 .38623048 .14173381 .3930664 .16073609 .39990235 .17973836 .4033203 .2262624 .4033203 .30030824V.5185547H.54052737V0H.41308595Z"/>
<path id="font_5_81" d="M.54345706 0H.40625V.26434327C.40625 .32027183 .4033203 .3564453 .39746095 .37286378 .39160157 .38928224 .38208009 .40204368 .36889649 .41114808 .3557129 .42025248 .33984376 .4248047 .32128907 .4248047 .29752604 .4248047 .27620445 .41829936 .25732423 .4052887 .23844402 .3922882 .22550456 .37505595 .21850586 .35359193 .21150716 .33213807 .20800781 .2924703 .20800781 .23458863V0H.07080078V.5185547H.19824219V.4423828C.24348958 .50097659 .30045573 .53027346 .36914063 .53027346 .39941407 .53027346 .42708335 .524821 .45214845 .513916 .47721354 .50301107 .49617515 .48909507 .5090332 .47216798 .5218913 .45524089 .5308431 .43603517 .5358887 .41455079 .54093429 .3930664 .54345706 .3623047 .54345706 .32226563V0Z"/>
<path id="font_5_76" d="M.071777347 .5888672V.7158203H.20898438V.5888672H.071777347M.071777347 0V.5185547H.20898438V0H.071777347Z"/>
<path id="font_5_84" d="M.41064454-.19726563V.06347656C.39274089 .040364583 .37044273 .022054038 .34375 .008544922 .31705729-.004964193 .2882487-.01171875 .25732423-.01171875 .19840496-.01171875 .14990235 .010416667 .111816409 .0546875 .06689453 .10644531 .044433595 .17659505 .044433595 .26513673 .044433595 .34847007 .06551107 .41349284 .107666019 .46020509 .14982097 .5069173 .20214844 .53027346 .26464845 .53027346 .29915367 .53027346 .32902018 .5229492 .35424806 .5083008 .37947593 .49365235 .40185548 .47151695 .42138673 .44189454V.5185547H.54785159V-.19726563H.41064454M.41503907 .265625C.41503907 .3186849 .40421549 .3581543 .38256837 .3840332 .36092124 .4099121 .33382163 .42285157 .30126954 .42285157 .2680664 .42285157 .24031575 .40966798 .21801758 .38330079 .1957194 .3569336 .18457031 .31510417 .18457031 .2578125 .18457031 .20084636 .1953125 .15974935 .21679688 .13452149 .23828125 .10929362 .2648112 .09667969 .29638673 .09667969 .32796226 .09667969 .3556315 .110839847 .37939454 .13916016 .40315757 .16748047 .41503907 .20963542 .41503907 .265625Z"/>
<path id="font_5_72" d="M.3720703 .16503906 .50878909 .14160156C.49121095 .09163412 .4634603 .053588869 .4255371 .02746582 .38761393 .0013427734 .34016929-.01171875 .28320313-.01171875 .19303386-.01171875 .12630208 .017740885 .08300781 .076660159 .048828126 .12386068 .03173828 .18343099 .03173828 .2553711 .03173828 .3413086 .05419922 .40861003 .099121097 .4572754 .14404297 .50594076 .20084636 .53027346 .26953126 .53027346 .3466797 .53027346 .4075521 .50480148 .45214845 .45385743 .49674479 .40291343 .5180664 .32486979 .5161133 .21972656H.17236328C.17333985 .17903646 .18440755 .14737956 .2055664 .12475586 .22672527 .102132167 .25309245 .09082031 .28466798 .09082031 .30615235 .09082031 .32421876 .09667969 .3388672 .10839844 .35351563 .12011719 .36458335 .13899739 .3720703 .16503906M.3798828 .30371095C.37890626 .34326173 .36865235 .3733317 .3491211 .3939209 .32958985 .4145101 .3058268 .4248047 .27783204 .4248047 .24788411 .4248047 .22314453 .41394554 .20361328 .39222718 .18408203 .37049867 .17447917 .34099327 .17480469 .30371095H.3798828Z"/>
<path id="font_5_44" d="M.068359378 0V.7158203H.21289063V0H.068359378Z"/>
<path id="font_5_71" d="M.5473633 0H.41992188V.076171878C.39876304 .04654948 .3737793 .024495444 .3449707 .010009766 .3161621-.0044759118 .28710938-.01171875 .2578125-.01171875 .19824219-.01171875 .1472168 .012288411 .10473633 .060302736 .06225586 .108317058 .041015626 .17529297 .041015626 .26123048 .041015626 .3491211 .0616862 .41593424 .103027347 .46166993 .14436849 .5074056 .19661458 .53027346 .25976563 .53027346 .31770835 .53027346 .36783854 .5061849 .41015626 .4580078V.7158203H.5473633V0M.18115235 .2702484C.18115235 .21499126 .18880208 .17501323 .20410156 .15031433 .22623699 .1145579 .25716148 .09667969 .296875 .09667969 .32845054 .09667969 .355306 .110087078 .3774414 .13690186 .3995768 .16371663 .41064454 .20377605 .41064454 .25708009 .41064454 .316569 .39990235 .35939536 .37841798 .38555909 .3569336 .4117228 .3294271 .4248047 .29589845 .4248047 .26334635 .4248047 .23608399 .4118856 .21411133 .38604737 .19213867 .36020915 .18115235 .3216095 .18115235 .2702484Z"/>
<clipPath id="clip_6">
<path transform="matrix(.24,0,0,.24,0,0)" d="M0 0H854.1666V941.0818H0Z" clip-rule="evenodd"/>
</clipPath>
<clipPath id="clip_7">
<path transform="matrix(.24,0,0,.24,0,0)" d="M560.4532 716.3011H593.421V773.24557H560.4532Z" clip-rule="evenodd"/>
</clipPath>
<path id="font_3_46" d="M.07324219 0V.7158203H.16796875V.36083985L.5234375 .7158203H.65185549L.3515625 .42578126 .66503909 0H.54003909L.28515626 .3623047 .16796875 .24804688V0H.07324219Z"/>
<clipPath id="clip_8">
<path transform="matrix(.24,0,0,.24,0,0)" d="M0 0H854.1666V941.0818H0Z" clip-rule="evenodd"/>
</clipPath>
<clipPath id="clip_9">
<path transform="matrix(.24,0,0,.24,0,0)" d="M650.3654 788.23098H836.18417V836.18417H650.3654Z" clip-rule="evenodd"/>
</clipPath>
<path id="font_3_20" d="M.3725586 0H.28466798V.5600586C.26350913 .5398763 .23575847 .51969406 .20141602 .49951173 .16707357 .47932945 .13623047 .46419273 .10888672 .45410157V.5390625C.15804036 .5621745 .20100911 .59016928 .23779297 .6230469 .2745768 .6559245 .3006185 .6878255 .31591798 .71875H.3725586V0Z"/>
<clipPath id="clip_10">
<path transform="matrix(.24,0,0,.24,0,0)" d="M0 0H854.1666V941.0818H0Z" clip-rule="evenodd"/>
</clipPath>
<clipPath id="clip_11">
<path transform="matrix(.24,0,0,.24,0,0)" d="M650.3654 836.18417H836.18417V884.1374H650.3654Z" clip-rule="evenodd"/>
</clipPath>
<path id="font_3_21" d="M.50341799 .084472659V0H.030273438C.029622397 .021148682 .033040365 .041483564 .040527345 .06100464 .052571615 .09321085 .07185873 .124928798 .09838867 .15615845 .12491862 .1873881 .1632487 .22350057 .2133789 .26449586 .29117839 .3282369 .34375 .37872825 .37109376 .41596986 .3984375 .45321147 .41210938 .48841859 .41210938 .5215912 .41210938 .5563914 .3996582 .5857442 .37475587 .60964968 .34985353 .6335551 .3173828 .6455078 .27734376 .6455078 .23502605 .6455078 .20117188 .6328125 .17578125 .6074219 .15039063 .58203127 .13753255 .546875 .13720703 .5019531L.046875 .5112457C.053059896 .5787811 .07633463 .630249 .11669922 .6656494 .1570638 .7010498 .21126302 .71875 .27929688 .71875 .34798179 .71875 .40234376 .69970199 .4423828 .66160586 .48242188 .6235097 .5024414 .57629397 .5024414 .5199585 .5024414 .4913025 .49658204 .46313478 .48486329 .43545533 .47314454 .40777589 .45369468 .3786316 .42651368 .34802247 .39933268 .3174235 .35416667 .27542115 .29101563 .22201538 .23828125 .17779541 .20442708 .14779663 .18945313 .13201905 .17447917 .116251628 .16210938 .10040283 .15234375 .084472659H.50341799Z"/>
<clipPath id="clip_12">
<path transform="matrix(.24,0,0,.24,0,0)" d="M0 0H854.1666V941.0818H0Z" clip-rule="evenodd"/>
</clipPath>
<clipPath id="clip_13">
<path transform="matrix(.24,0,0,.24,0,0)" d="M650.3654 884.1374H836.18417V932.0906H650.3654Z" clip-rule="evenodd"/>
</clipPath>
<path id="font_3_22" d="M.041992189 .19042969 .12988281 .20214844C.13997396 .15234375 .15714519 .11645508 .18139649 .09448242 .20564778 .072509769 .2351888 .061523439 .27001954 .061523439 .3113607 .061523439 .3462728 .07582092 .37475587 .10441589 .40323893 .13301087 .41748048 .1684316 .41748048 .2106781 .41748048 .25098167 .40429688 .2842102 .3779297 .31036378 .3515625 .3365275 .31803385 .34960938 .27734376 .34960938 .2607422 .34960938 .24007161 .34635417 .21533203 .33984376L.22509766 .4169922C.23095703 .41634117 .23567708 .41601563 .23925781 .41601563 .27669273 .41601563 .31038413 .42569987 .34033204 .44506837 .37027995 .46443687 .3852539 .4942932 .3852539 .53463748 .3852539 .56658938 .37434898 .59305319 .35253907 .61402896 .33072917 .63501486 .30257163 .6455078 .2680664 .6455078 .23388672 .6455078 .20540364 .6347656 .18261719 .61328127 .15983074 .5917969 .1451823 .5595703 .13867188 .51660159L.05078125 .53222659C.061523439 .591451 .0859375 .63734439 .12402344 .6699066 .16210938 .7024689 .20947266 .71875 .26611329 .71875 .30517579 .71875 .34114585 .71039327 .37402345 .6936798 .40690104 .67696639 .43204753 .6541646 .4494629 .62527468 .46687828 .59639486 .47558595 .5657247 .47558595 .53326418 .47558595 .5024312 .46728517 .47435508 .4506836 .44903565 .43408204 .4237264 .40950523 .40360514 .37695313 .38867188 .41927085 .37890626 .45214845 .35864259 .47558595 .32788087 .49902345 .29711915 .5107422 .2586263 .5107422 .21240235 .5107422 .14990235 .48795573 .09692383 .4423828 .053466798 .3968099 .010009766 .33919273-.01171875 .26953126-.01171875 .20670574-.01171875 .15454102 .007044474 .11303711 .044570924 .0715332 .082097377 .047851564 .13071697 .041992189 .19042969Z"/>
<clipPath id="clip_14">
<path transform="matrix(.24,0,0,.24,0,0)" d="M0 0H854.1666V941.0818H0Z" clip-rule="evenodd"/>
</clipPath>
</defs>
<g clip-path="url(#clip_1)">
<path transform="matrix(.7192982,0,0,.7192982,0,0)" d="M0 0H285V315H0Z" fill="#ffffff"/>
</g>
<g clip-path="url(#clip_2)">
<path transform="matrix(.7192982,0,0,.7192982,.3596491,.3596491)" d="M246.79 44.9C250.57 44.9 253.64 41.79 253.64 37.96 253.64 34.14 250.57 31.04 246.79 31.04 243.01 31.04 239.93 34.14 239.93 37.96 239.93 41.79 243.01 44.9 246.79 44.9ZM199.93 45C203.71 45 206.77 41.91 206.77 38.08 206.77 34.26 203.71 31.14 199.93 31.14 196.14 31.14 193.06 34.26 193.06 38.08 193.06 41.91 196.14 45 199.93 45ZM262.48 44.9C266.26 44.9 269.32 41.79 269.32 37.96 269.32 34.14 266.26 31.04 262.48 31.04 258.7 31.04 255.62 34.14 255.62 37.96 255.62 41.79 258.69 44.9 262.48 44.9ZM207.4 1 207.24 25.64C207.24 25.64 206.53 26.09 206.4 25.17 205.96 21.88 205.1 12.8 204.39 7.08H189.88L183.39 22.26 184.88 33.65H183V37.33H192.39C192.51 27.95 207.24 28.18 207.4 37.12L238.95 36.95C240.07 28.48 250.59 29.86 255.46 29.86 260.22 29.86 269.23 28.33 269.98 37.08H281V1H207.4ZM188.06 21.08 192.22 10.45H201.4L201.57 10.95 202.05 21.07H188.06V21.08Z"/>
<path transform="matrix(.7192982,0,0,.7192982,.3596491,.3596491)" d="M282 143C282 136.22 271.47 131.22 257.46 128.53 258.6 125.22 259.55 122.01 260.2 119.03 262.37 109.05 261.33 102.25 257.25 99.88 256.24 99.3 255.07 99 253.79 99 248.23 99 240.47 104.65 232.5 113.94 224.53 104.64 216.77 99 211.21 99 209.93 99 208.76 99.3 207.75 99.89 201.92 103.27 202.89 114.96 207.58 128.54 193.54 131.21 183 136.22 183 143 183 149.77 193.53 154.77 207.54 157.46 206.39 160.77 205.45 163.98 204.8 166.96 202.64 176.95 203.67 183.75 207.75 186.11 208.76 186.7 209.93 187 211.21 187 216.78 187 224.54 181.35 232.5 172.06 240.47 181.35 248.23 187 253.79 187 255.08 187 256.24 186.7 257.25 186.11 261.33 183.75 262.37 176.95 260.2 166.96 259.55 163.98 258.61 160.77 257.46 157.46 271.47 154.78 282 149.77 282 143ZM253.79 101.57C254.62 101.57 255.36 101.76 255.97 102.11 258.96 103.84 259.59 109.8 257.7 118.48 257.04 121.49 256.09 124.71 254.91 128.07 250.79 127.38 246.41 126.88 241.95 126.58 239.4 122.71 236.79 119.16 234.19 115.96 241.7 107.14 248.98 101.57 253.79 101.57ZM244.69 150.08C243.33 152.45 241.92 154.74 240.49 156.95 237.92 157.08 235.26 157.16 232.5 157.16 229.74 157.16 227.08 157.09 224.51 156.95 223.07 154.74 221.67 152.45 220.31 150.08 218.94 147.68 217.67 145.33 216.5 143.02 217.69 140.66 218.96 138.29 220.31 135.92 221.67 133.55 223.08 131.26 224.51 129.05 227.08 128.92 229.74 128.85 232.5 128.85 235.26 128.85 237.92 128.92 240.49 129.05 241.93 131.26 243.33 133.55 244.69 135.92 246.04 138.28 247.3 140.65 248.49 143 247.3 145.36 246.04 147.72 244.69 150.08ZM249.89 145.86C251.46 149.15 252.86 152.4 254.04 155.54 250.83 156.06 247.35 156.47 243.66 156.74 244.75 154.99 245.82 153.2 246.89 151.36 247.95 149.54 248.94 147.7 249.89 145.86ZM238.73 159.59C236.68 162.59 234.59 165.41 232.5 167.99 230.41 165.41 228.33 162.58 226.27 159.59 228.35 159.67 230.42 159.72 232.5 159.72 234.58 159.72 236.65 159.67 238.73 159.59ZM221.33 156.75C217.64 156.47 214.16 156.07 210.95 155.55 212.13 152.41 213.53 149.17 215.1 145.87 216.06 147.73 217.06 149.56 218.1 151.37 219.16 153.2 220.23 155 221.33 156.75ZM215.09 140.16C213.47 136.78 212.07 133.53 210.91 130.46 214.13 129.94 217.62 129.53 221.33 129.25 220.23 131 219.16 132.79 218.1 134.64 217.04 136.47 216.05 138.32 215.09 140.16ZM226.27 126.41C228.32 123.41 230.4 120.59 232.49 118 234.58 120.58 236.67 123.41 238.72 126.41 236.65 126.33 234.57 126.28 232.49 126.28 230.42 126.28 228.35 126.33 226.27 126.41ZM246.9 134.64C245.84 132.79 244.77 131 243.67 129.25 247.36 129.53 250.83 129.94 254.05 130.45 252.87 133.59 251.47 136.84 249.9 140.13 248.94 138.3 247.95 136.46 246.9 134.64ZM209.03 102.11C209.64 101.75 210.38 101.57 211.21 101.57 216.02 101.57 223.3 107.14 230.81 115.96 228.22 119.16 225.6 122.71 223.05 126.58 218.57 126.88 214.18 127.38 210.04 128.08 205.19 114.35 205.05 104.42 209.03 102.11ZM185.56 143C185.56 138.37 194.18 133.54 208.42 130.89 209.89 134.84 211.66 138.92 213.64 142.98 211.61 147.1 209.84 151.17 208.37 155.09 194.16 152.45 185.56 147.62 185.56 143ZM211.21 184.43C210.37 184.43 209.66 184.25 209.03 183.89 206.04 182.16 205.41 176.2 207.3 167.52 207.96 164.51 208.91 161.28 210.09 157.93 214.21 158.63 218.59 159.12 223.05 159.42 225.6 163.29 228.21 166.84 230.81 170.04 223.3 178.86 216.02 184.43 211.21 184.43ZM257.7 167.52C259.59 176.2 258.96 182.16 255.97 183.89 255.35 184.24 254.62 184.43 253.79 184.43 248.98 184.43 241.7 178.86 234.2 170.04 236.8 166.84 239.41 163.28 241.96 159.42 246.42 159.12 250.8 158.62 254.92 157.93 256.09 161.28 257.05 164.51 257.7 167.52ZM256.62 155.09C255.16 151.18 253.39 147.12 251.37 143 253.4 138.87 255.16 134.81 256.63 130.9 270.85 133.55 279.45 138.38 279.45 143 279.44 147.62 270.84 152.45 256.62 155.09Z"/>
<path transform="matrix(.7192982,0,0,.7192982,.3596491,.3596491)" d="M237.93341 143C237.9334 143.71837 237.79553 144.40938 237.51979 145.07306 237.24405 145.73674 236.85146 146.32256 236.34198 146.83054 235.83249 147.33849 235.2449 147.72992 234.57924 148.00484 233.91358 148.27976 233.2205 148.41722 232.5 148.41722 231.77947 148.41722 231.08635 148.27977 230.42069 148.00485 229.75502 147.72994 229.16745 147.33849 228.65798 146.83054 228.14849 146.32256 227.75588 145.73674 227.48015 145.07306 227.20442 144.40938 227.06658 143.71837 227.06659 143 227.06658 142.28163 227.20442 141.59059 227.48014 140.9269 227.75588 140.26322 228.14849 139.67739 228.65799 139.16944 229.16745 138.66147 229.75502 138.27004 230.4207 137.99514 231.08637 137.72023 231.77947 137.58278 232.5 137.58278 233.2205 137.58278 233.91358 137.72023 234.57924 137.99514 235.2449 138.27004 235.83249 138.66147 236.34198 139.16944 236.85146 139.67739 237.24405 140.26322 237.51979 140.9269 237.79553 141.59059 237.9334 142.28163 237.93341 143Z"/>
<use data-text="P" xlink:href="#font_3_51" transform="matrix(12.947368,0,0,-12.947368,6.4512059,20.859648)"/>
<use data-text="h" xlink:href="#font_3_75" transform="matrix(12.947368,0,0,-12.947368,15.0871,20.859648)"/>
<use data-text="y" xlink:href="#font_3_92" transform="matrix(12.947368,0,0,-12.947368,22.285838,20.859648)"/>
<use data-text="s" xlink:href="#font_3_86" transform="matrix(12.947368,0,0,-12.947368,28.75952,20.859648)"/>
<use data-text="i" xlink:href="#font_3_76" transform="matrix(12.947368,0,0,-12.947368,35.233205,20.859648)"/>
<use data-text="c" xlink:href="#font_3_70" transform="matrix(12.947368,0,0,-12.947368,38.10752,20.859648)"/>
<use data-text="a" xlink:href="#font_3_68" transform="matrix(12.947368,0,0,-12.947368,44.581205,20.859648)"/>
<use data-text="l" xlink:href="#font_3_79" transform="matrix(12.947368,0,0,-12.947368,51.77994,20.859648)"/>
<use data-text=" " xlink:href="#font_3_3" transform="matrix(12.947368,0,0,-12.947368,54.65426,20.859648)"/>
<use data-text="e" xlink:href="#font_3_72" transform="matrix(12.947368,0,0,-12.947368,58.253629,20.859648)"/>
<use data-text="n" xlink:href="#font_3_81" transform="matrix(12.947368,0,0,-12.947368,65.45236,20.859648)"/>
<use data-text="t" xlink:href="#font_3_87" transform="matrix(12.947368,0,0,-12.947368,72.6511,20.859648)"/>
<use data-text="i" xlink:href="#font_3_76" transform="matrix(12.947368,0,0,-12.947368,76.25047,20.859648)"/>
<use data-text="t" xlink:href="#font_3_87" transform="matrix(12.947368,0,0,-12.947368,79.12479,20.859648)"/>
<use data-text="y" xlink:href="#font_3_92" transform="matrix(12.947368,0,0,-12.947368,82.72415,20.859648)"/>
<use data-text="C" xlink:href="#font_3_38" transform="matrix(12.947368,0,0,-12.947368,5.00137,107.17543)"/>
<use data-text="o" xlink:href="#font_3_82" transform="matrix(12.947368,0,0,-12.947368,14.349371,107.17543)"/>
<use data-text="n" xlink:href="#font_3_81" transform="matrix(12.947368,0,0,-12.947368,21.54811,107.17543)"/>
<use data-text="c" xlink:href="#font_3_70" transform="matrix(12.947368,0,0,-12.947368,28.746846,107.17543)"/>
<use data-text="e" xlink:href="#font_3_72" transform="matrix(12.947368,0,0,-12.947368,35.220529,107.17543)"/>
<use data-text="p" xlink:href="#font_3_83" transform="matrix(12.947368,0,0,-12.947368,42.419267,107.17543)"/>
<use data-text="t" xlink:href="#font_3_87" transform="matrix(12.947368,0,0,-12.947368,49.618005,107.17543)"/>
<use data-text="u" xlink:href="#font_3_88" transform="matrix(12.947368,0,0,-12.947368,53.21737,107.17543)"/>
<use data-text="a" xlink:href="#font_3_68" transform="matrix(12.947368,0,0,-12.947368,60.416109,107.17543)"/>
<use data-text="l" xlink:href="#font_3_79" transform="matrix(12.947368,0,0,-12.947368,67.614849,107.17543)"/>
<use data-text=" " xlink:href="#font_3_3" transform="matrix(12.947368,0,0,-12.947368,70.48917,107.17543)"/>
<use data-text="e" xlink:href="#font_3_72" transform="matrix(12.947368,0,0,-12.947368,74.08853,107.17543)"/>
<use data-text="n" xlink:href="#font_3_81" transform="matrix(12.947368,0,0,-12.947368,81.28727,107.17543)"/>
<use data-text="t" xlink:href="#font_3_87" transform="matrix(12.947368,0,0,-12.947368,88.48601,107.17543)"/>
<use data-text="i" xlink:href="#font_3_76" transform="matrix(12.947368,0,0,-12.947368,92.08538,107.17543)"/>
<use data-text="t" xlink:href="#font_3_87" transform="matrix(12.947368,0,0,-12.947368,94.959697,107.17543)"/>
<use data-text="y" xlink:href="#font_3_92" transform="matrix(12.947368,0,0,-12.947368,98.55907,107.17543)"/>
<use data-text="S" xlink:href="#font_3_54" transform="matrix(12.947368,0,0,-12.947368,5.1362388,193.49121)"/>
<use data-text="o" xlink:href="#font_3_82" transform="matrix(12.947368,0,0,-12.947368,13.772133,193.49121)"/>
<use data-text="f" xlink:href="#font_3_73" transform="matrix(12.947368,0,0,-12.947368,20.970871,193.49121)"/>
<use data-text="f" xlink:href="#font_3_73" transform="matrix(12.947368,0,0,-12.947368,24.336022,193.49121)"/>
<use data-text="w" xlink:href="#font_3_90" transform="matrix(12.947368,0,0,-12.947368,27.93539,193.49121)"/>
<use data-text="a" xlink:href="#font_3_68" transform="matrix(12.947368,0,0,-12.947368,37.28339,193.49121)"/>
<use data-text="r" xlink:href="#font_3_85" transform="matrix(12.947368,0,0,-12.947368,44.48213,193.49121)"/>
<use data-text="e" xlink:href="#font_3_72" transform="matrix(12.947368,0,0,-12.947368,48.793603,193.49121)"/>
<use data-text=" " xlink:href="#font_3_3" transform="matrix(12.947368,0,0,-12.947368,55.99234,193.49121)"/>
<use data-text="e" xlink:href="#font_3_72" transform="matrix(12.947368,0,0,-12.947368,59.59171,193.49121)"/>
<use data-text="n" xlink:href="#font_3_81" transform="matrix(12.947368,0,0,-12.947368,66.79044,193.49121)"/>
<use data-text="t" xlink:href="#font_3_87" transform="matrix(12.947368,0,0,-12.947368,73.98918,193.49121)"/>
<use data-text="i" xlink:href="#font_3_76" transform="matrix(12.947368,0,0,-12.947368,77.588558,193.49121)"/>
<use data-text="t" xlink:href="#font_3_87" transform="matrix(12.947368,0,0,-12.947368,80.46287,193.49121)"/>
<use data-text="y" xlink:href="#font_3_92" transform="matrix(12.947368,0,0,-12.947368,84.06223,193.49121)"/>
<path transform="matrix(.7192982,0,0,.7192982,.3596491,.3596491)" d="M183 239.12V213.12H283V239.12" fill="#ffffff"/>
<path transform="matrix(.7192982,0,0,.7192982,.3596491,.3596491)" stroke-width="1" stroke-linecap="butt" stroke-miterlimit="10" stroke-linejoin="miter" fill="none" stroke="#000000" d="M183 239.12V213.12H283V239.12"/>
<path transform="matrix(.7192982,0,0,.7192982,.3596491,.3596491)" stroke-width="1" stroke-linecap="butt" stroke-miterlimit="10" stroke-linejoin="miter" fill="none" stroke="#000000" d="M183 239.12V312.87H283V239.12"/>
<path transform="matrix(.7192982,0,0,.7192982,.3596491,.3596491)" stroke-width="1" stroke-linecap="butt" stroke-miterlimit="10" stroke-linejoin="miter" fill="none" stroke="#000000" d="M183 239.12H283"/>
<use data-text="T" xlink:href="#font_3_55" transform="matrix(10.070174,0,0,-10.070174,155.55948,166.96349)"/>
<use data-text="a" xlink:href="#font_3_68" transform="matrix(10.070174,0,0,-10.070174,160.59456,166.96349)"/>
<use data-text="b" xlink:href="#font_3_69" transform="matrix(10.070174,0,0,-10.070174,166.19358,166.96349)"/>
<use data-text="l" xlink:href="#font_3_79" transform="matrix(10.070174,0,0,-10.070174,171.79259,166.96349)"/>
<use data-text="e" xlink:href="#font_3_72" transform="matrix(10.070174,0,0,-10.070174,174.02817,166.96349)"/>
<path transform="matrix(.7192982,0,0,.7192982,.3596491,.3596491)" stroke-width="1" stroke-linecap="butt" stroke-miterlimit="10" stroke-linejoin="miter" fill="none" stroke="#000000" d="M283 257.87H183"/>
</g>
<g clip-path="url(#clip_4)">
<path transform="matrix(.7192982,0,0,.7192982,0,0)" d="M219 254.4H268.9922V255H219Z"/>
<use data-text="u" xlink:href="#font_5_88" transform="matrix(8.631578,0,0,-8.631578,157.5263,182.34209)"/>
<use data-text="n" xlink:href="#font_5_81" transform="matrix(8.631578,0,0,-8.631578,162.8002,182.34209)"/>
<use data-text="i" xlink:href="#font_5_76" transform="matrix(8.631578,0,0,-8.631578,168.0741,182.34209)"/>
<use data-text="q" xlink:href="#font_5_84" transform="matrix(8.631578,0,0,-8.631578,170.47367,182.34209)"/>
<use data-text="u" xlink:href="#font_5_88" transform="matrix(8.631578,0,0,-8.631578,175.74756,182.34209)"/>
<use data-text="e" xlink:href="#font_5_72" transform="matrix(8.631578,0,0,-8.631578,181.02146,182.34209)"/>
<use data-text="I" xlink:href="#font_5_44" transform="matrix(8.631578,0,0,-8.631578,185.82062,182.34209)"/>
<use data-text="d" xlink:href="#font_5_71" transform="matrix(8.631578,0,0,-8.631578,188.2202,182.34209)"/>
</g>
<g clip-path="url(#clip_6)">
<path transform="matrix(.7192982,0,0,.7192982,.3596491,.3596491)" stroke-width="1" stroke-linecap="butt" stroke-miterlimit="10" stroke-linejoin="miter" fill="none" stroke="#000000" d="M201.75 239.12V257.87"/>
</g>
<g clip-path="url(#clip_7)">
<use data-text="P" xlink:href="#font_3_51" transform="matrix(8.631578,0,0,-8.631578,135.94736,182.34209)"/>
<use data-text="K" xlink:href="#font_3_46" transform="matrix(8.631578,0,0,-8.631578,141.70462,182.34209)"/>
</g>
<g clip-path="url(#clip_8)">
<path transform="matrix(.7192982,0,0,.7192982,.3596491,.3596491)" stroke-width="1" stroke-linecap="butt" stroke-miterlimit="10" stroke-linejoin="miter" fill="none" stroke="#000000" d="M283 274.12"/>
</g>
<g clip-path="url(#clip_9)">
<use data-text="r" xlink:href="#font_3_85" transform="matrix(8.631578,0,0,-8.631578,157.5263,198.43279)"/>
<use data-text="o" xlink:href="#font_3_82" transform="matrix(8.631578,0,0,-8.631578,160.40062,198.43279)"/>
<use data-text="w" xlink:href="#font_3_90" transform="matrix(8.631578,0,0,-8.631578,165.19977,198.43279)"/>
<use data-text=" " xlink:href="#font_3_3" transform="matrix(8.631578,0,0,-8.631578,171.43178,198.43279)"/>
<use data-text="1" xlink:href="#font_3_20" transform="matrix(8.631578,0,0,-8.631578,173.83136,198.43279)"/>
</g>
<g clip-path="url(#clip_10)">
<path transform="matrix(.7192982,0,0,.7192982,.3596491,.3596491)" stroke-width="1" stroke-linecap="butt" stroke-miterlimit="10" stroke-linejoin="miter" fill="none" stroke="#000000" d="M201.75 257.87V274.12"/>
<path transform="matrix(.7192982,0,0,.7192982,.3596491,.3596491)" stroke-width="1" stroke-linecap="butt" stroke-miterlimit="10" stroke-linejoin="miter" fill="none" stroke="#000000" d="M283 290.37"/>
</g>
<g clip-path="url(#clip_11)">
<use data-text="r" xlink:href="#font_3_85" transform="matrix(8.631578,0,0,-8.631578,157.5263,210.12139)"/>
<use data-text="o" xlink:href="#font_3_82" transform="matrix(8.631578,0,0,-8.631578,160.40062,210.12139)"/>
<use data-text="w" xlink:href="#font_3_90" transform="matrix(8.631578,0,0,-8.631578,165.19977,210.12139)"/>
<use data-text=" " xlink:href="#font_3_3" transform="matrix(8.631578,0,0,-8.631578,171.43178,210.12139)"/>
<use data-text="2" xlink:href="#font_3_21" transform="matrix(8.631578,0,0,-8.631578,173.83136,210.12139)"/>
</g>
<g clip-path="url(#clip_12)">
<path transform="matrix(.7192982,0,0,.7192982,.3596491,.3596491)" stroke-width="1" stroke-linecap="butt" stroke-miterlimit="10" stroke-linejoin="miter" fill="none" stroke="#000000" d="M201.75 274.12V290.37"/>
<path transform="matrix(.7192982,0,0,.7192982,.3596491,.3596491)" stroke-width="1" stroke-linecap="butt" stroke-miterlimit="10" stroke-linejoin="miter" fill="none" stroke="#000000" d="M283 306.62"/>
</g>
<g clip-path="url(#clip_13)">
<use data-text="r" xlink:href="#font_3_85" transform="matrix(8.631578,0,0,-8.631578,157.5263,221.80998)"/>
<use data-text="o" xlink:href="#font_3_82" transform="matrix(8.631578,0,0,-8.631578,160.40062,221.80998)"/>
<use data-text="w" xlink:href="#font_3_90" transform="matrix(8.631578,0,0,-8.631578,165.19977,221.80998)"/>
<use data-text=" " xlink:href="#font_3_3" transform="matrix(8.631578,0,0,-8.631578,171.43178,221.80998)"/>
<use data-text="3" xlink:href="#font_3_22" transform="matrix(8.631578,0,0,-8.631578,173.83136,221.80998)"/>
</g>
<g clip-path="url(#clip_14)">
<path transform="matrix(.7192982,0,0,.7192982,.3596491,.3596491)" stroke-width="1" stroke-linecap="butt" stroke-miterlimit="10" stroke-linejoin="miter" fill="none" stroke="#000000" d="M201.75 290.37V306.62"/>
<path transform="matrix(.7192982,0,0,.7192982,.3596491,.3596491)" stroke-width="1" stroke-linecap="butt" stroke-miterlimit="10" stroke-linejoin="miter" fill="none" stroke="#000000" d="M283 312.87"/>
<path transform="matrix(.7192982,0,0,.7192982,.3596491,.3596491)" stroke-width="1" stroke-linecap="butt" stroke-miterlimit="10" stroke-linejoin="miter" fill="none" stroke="#000000" d="M201.75 306.62V312.87"/>
</g>
</svg>
