<svg xmlns="http://www.w3.org/2000/svg" xmlns:xlink="http://www.w3.org/1999/xlink" xmlns:inkscape="http://www.inkscape.org/namespaces/inkscape" version="1.1" width="376.08" height="246.95999" viewBox="0 0 376.08 246.95999">
<defs>
<clipPath id="clip_1">
<path transform="matrix(.24,0,0,.24,0,0)" d="M0 0H1566.6665V1027.4696H0Z" clip-rule="evenodd"/>
</clipPath>
<clipPath id="clip_2">
<path transform="matrix(.24,0,0,.24,0,0)" d="M0 0H1566.6665V1024.4741H0Z" clip-rule="evenodd"/>
</clipPath>
<clipPath id="clip_3">
<path transform="matrix(.24,0,0,.24,0,0)" d="M2.9955383 92.86169H1168.2599V991.52316H2.9955383Z" clip-rule="evenodd"/>
</clipPath>
<clipPath id="clip_4">
<path transform="matrix(.24,0,0,.24,0,0)" d="M0 0H1566.6665V1024.4741H0Z" clip-rule="evenodd"/>
</clipPath>
<path id="font_5_54" d="M.06542969 .12145996C.065104167 .13517253 .069742839 .14635213 .0793457 .15499878 .08894857 .16364543 .100748699 .16796875 .114746097 .16796875 .13069661 .16796875 .14469402 .15881348 .15673828 .14050293 .17333985 .11564127 .18815105 .09879557 .20117188 .08996582 .22884114 .07165527 .26904298 .0625 .32177735 .0625 .37223307 .0625 .41910807 .07342529 .46240235 .09527588 .5177409 .12332153 .54541018 .1622874 .54541018 .21217346 .54541018 .25326029 .52213546 .28570558 .47558595 .30950929 .4361979 .33005778 .38753257 .34114585 .32958985 .34277345 .27815757 .34472657 .234375 .3559723 .19824219 .37651063 .15201824 .40290834 .12890625 .4407196 .12890625 .48994447 .12890625 .5479584 .16178386 .60092166 .22753906 .6488342 .2903646 .69414266 .355306 .7167969 .42236329 .7167969 .4539388 .7167969 .48958335 .71140035 .5292969 .7006073 .58203127 .6865489 .60839846 .6685689 .60839846 .6466675 .60839846 .6178996 .59375 .6035156 .5644531 .6035156 .5514323 .6035156 .5286458 .60701498 .49609376 .6140137 .46354167 .6210124 .4383138 .62434896 .42041017 .62402346 .3696289 .6233724 .3264974 .61087039 .29101563 .58651736 .25455729 .56151327 .23632813 .5311534 .23632813 .49543763 .23632813 .46848045 .26041667 .44948326 .30859376 .43844605 .3264974 .43422447 .36116538 .43032838 .41259767 .4267578 .48714195 .42121379 .54541018 .39772544 .58740237 .35629273 .6258138 .31845094 .64501956 .2722931 .64501956 .21781922 .64501956 .14017232 .6092122 .078186038 .53759768 .03186035 .4754232-.008260091 .4033203-.028320313 .32128907-.028320313 .26171876-.028320313 .20719402-.016896567 .15771485 .0059509279 .09716797 .034006757 .06640625 .072509769 .06542969 .12145996Z"/>
<path id="font_5_83" d="M.27539063-.017578125C.24283855-.017578125 .20703125-.012369792 .16796875-.001953125L.16699219-.23535156C.16699219-.24967449 .16251628-.26139323 .15356446-.2705078 .14461263-.2796224 .13313802-.2841797 .119140628-.2841797 .10514323-.2841797 .09366862-.2796173 .0847168-.27049256 .07576498-.2613678 .07128906-.24963379 .07128906-.23529053L.072753909-.039749147V.15530396C.071777347 .22668457 .06933594 .29170228 .06542969 .35035707L.05810547 .44960023C.05810547 .4727427 .06233724 .4922994 .07080078 .50827029 .080566409 .52749636 .09472656 .5371094 .11328125 .5371094 .12597656 .5371094 .13663738 .5325673 .14526367 .5234833 .15388997 .51439926 .15820313 .5033162 .15820313 .49023438 .15820313 .4873047 .15771485 .4819336 .15673828 .4741211 .15511067 .46402995 .15397136 .4547526 .15332031 .44628907 .18131511 .46549479 .20833333 .47989909 .234375 .48950196 .26041667 .49910484 .285319 .50390627 .30908204 .50390627 .3758138 .50390627 .42464195 .47425843 .4555664 .41496278 .47998048 .3680369 .4921875 .30596415 .4921875 .2287445 .4921875 .15837097 .47330729 .100372318 .43554688 .054748537 .3955078 .0065307619 .3421224-.017578125 .27539063-.017578125M.30908204 .40625C.27913413 .40625 .25211589 .3995768 .22802735 .38623048 .21077474 .37679038 .18896485 .35953776 .16259766 .33447267 .16682942 .26057945 .16894531 .1829427 .16894531 .1015625 .20442708 .087890628 .23990886 .08105469 .27539063 .08105469 .31608073 .08105469 .34716798 .096191409 .36865235 .12646485 .38720704 .15283203 .39648438 .18701172 .39648438 .2290039 .39648438 .2882487 .38924156 .33260093 .37475587 .36206056 .36027018 .39152018 .3383789 .40625 .30908204 .40625Z"/>
<path id="font_5_72" d="M.29589845-.022460938C.22233074-.022460938 .16276042-.0040537517 .1171875 .03276062 .06738281 .07349142 .04248047 .1305135 .04248047 .2038269 .04248047 .28853355 .06298828 .3595581 .104003909 .41690064 .14860027 .47946168 .20817058 .5107422 .28271485 .5107422 .3367513 .5107422 .38085938 .5016276 .41503907 .48339845 .45703126 .4609375 .47802735 .42643229 .47802735 .3798828 .47802735 .34733073 .4596354 .31770835 .42285157 .29101563 .40657554 .27929688 .3720703 .26106773 .31933595 .23632813L.1328125 .14794922C.15104167 .12093099 .17374675 .10058594 .20092774 .08691406 .22810872 .07324219 .25976563 .06640625 .29589845 .06640625 .31835938 .06640625 .34472657 .07063802 .375 .07910156 .41341148 .08984375 .43815104 .10392252 .44921876 .12133789 .46028648 .13875325 .47216798 .14746094 .48486329 .14746094 .4962565 .14746094 .506429 .14313253 .51538088 .13447571 .5243327 .12582906 .5288086 .11579386 .5288086 .10437012 .5288086 .06813558 .49967448 .036956788 .44140626 .01083374 .39160157-.011362712 .34309898-.022460938 .29589845-.022460938M.28271485 .42285157C.2430013 .42285157 .20996094 .4074707 .18359375 .37670899 .15722656 .34594728 .13753255 .29964195 .12451172 .23779297L.27441407 .30908204C.33333335 .33772788 .37532554 .36263023 .40039063 .38378907 .37239585 .40983073 .33317057 .42285157 .28271485 .42285157Z"/>
<path id="font_5_68" d="M.44921876-.032226564C.44303385-.032226564 .43180339-.025004069 .41552735-.010559082 .4008789 .00289917 .38997398 .014882405 .3828125 .025390625 .3515625 .008300781 .324056-.004597982 .30029298-.013305664 .27652995-.022013346 .2566732-.026367188 .24072266-.026367188 .16455078-.026367188 .10904948-.0048828127 .07421875 .038085939 .041341146 .07845052 .024902344 .14029949 .024902344 .22363281 .024902344 .30240885 .052001954 .36979167 .10620117 .42578126 .16040039 .48177085 .22509766 .5097656 .30029298 .5097656 .32861329 .5097656 .36035157 .5024414 .3955078 .48779298 .43977867 .4695638 .46191407 .44759117 .46191407 .421875 .46191407 .41308595 .45865885 .40527345 .45214845 .3984375 .44889323 .38606773 .44637046 .36572267 .44458009 .33740235 .4427897 .30908204 .44173179 .27278648 .44140626 .22851563 .44108073 .18815105 .44384767 .15625 .44970704 .1328125 .45296226 .118489589 .46321617 .08984375 .48046876 .046875 .4827474 .041015626 .48649089 .032389326 .49169923 .020996094L.4946289 .0126953129C.4946289-.00032552085 .49007163-.011067708 .48095704-.01953125 .47184245-.027994791 .46126304-.032226564 .44921876-.032226564M.34765626 .3069458C.34765626 .3209127 .34855143 .3360901 .3503418 .35247804 .35213218 .36887614 .35481773 .38632713 .35839845 .40483094 .34635417 .41100566 .3360189 .41555278 .32739259 .4184723 .31876628 .42139182 .31184898 .42285157 .30664063 .42285157 .2561849 .42285157 .21264649 .40231834 .17602539 .36125184 .1394043 .32018534 .12109375 .27286784 .12109375 .21929932 .12109375 .16605632 .13053386 .12612407 .14941406 .09950256 .16829427 .072881069 .19661458 .059570314 .234375 .059570314 .265625 .059570314 .29215495 .06525167 .31396485 .07661438 .3256836 .08277893 .3421224 .09511312 .36328126 .11361694 .3528646 .19965618 .34765626 .26409913 .34765626 .3069458Z"/>
<path id="font_5_78" d="M.47460938-.01953125C.45670573-.01953125 .4428711-.0100911459 .43310548 .0087890629 .41617839 .04168701 .390625 .08061218 .3564453 .12556458L.27001954 .24331665C.2511393 .22833252 .22184246 .20732117 .1821289 .1802826 .17854817 .12979634 .17675781 .08061727 .17675781 .03274536 .17675781 .018086752 .1722819 .006200155 .16333008-.0029144288 .15437825-.012039185 .14290364-.016601563 .12890625-.016601563 .09602865-.016601563 .079589847 .005549113 .079589847 .049850465 .079589847 .07687887 .081461589 .11734518 .08520508 .17124939 .08894857 .22516378 .09082031 .26563517 .09082031 .29266358 .09082031 .34217326 .091552738 .3987681 .09301758 .46244813 .09448242 .5261281 .095214847 .58239749 .095214847 .6312561 .095214847 .64591476 .09448242 .6631775 .09301758 .68304446 .091552738 .7029114 .09082031 .72017416 .09082031 .73483279 .09082031 .7494914 .09529623 .761378 .10424805 .77049258 .11319987 .7796173 .12467448 .7841797 .13867188 .7841797 .15266927 .7841797 .16414388 .7796173 .1730957 .77049258 .18204753 .761378 .18652344 .7494914 .18652344 .73483279 .18652344 .71984866 .18733724 .7021739 .18896485 .6818085 .19059246 .66145327 .19140625 .64378866 .19140625 .6288147L.18798828 .47148133C.18636067 .41481019 .18587239 .35813395 .18652344 .30145265 .23079427 .33532716 .2734375 .37246195 .31445313 .41285707L.421875 .52375796C.4326172 .5348256 .4441732 .5403595 .45654298 .5403595 .46923829 .5403595 .4807129 .5353139 .4909668 .5252228 .5012207 .51513168 .50634768 .5034078 .50634768 .49005128 .50634768 .4789734 .5016276 .46806336 .4921875 .45732118 .45214845 .41048686 .40283204 .36023966 .34423829 .3065796L.4506836 .16122437C.5004883 .09314982 .5253906 .048853559 .5253906 .028335572 .5253906 .015304565 .5202637 .0040690104 .51000979-.0053710939 .49975587-.014811198 .48795573-.01953125 .47460938-.01953125Z"/>
<path id="font_5_52" d="M.80371096-.21386719C.789388-.21386719 .7508138-.18603516 .6879883-.1303711L.57128909-.023269654C.51627609-.045516969 .4617513-.056640626 .40771485-.056640626 .30973307-.056640626 .22355144-.01755778 .14916992 .06060791 .074788417 .13878377 .037597658 .22721863 .037597658 .32591249 .037597658 .4421946 .08089193 .5408885 .16748047 .621994 .25211589 .7008209 .35221354 .7402344 .46777345 .7402344 .58951827 .7402344 .6818034 .6946411 .7446289 .6034546 .79801437 .5252991 .82470706 .42418418 .82470706 .30010987 .82470706 .19232178 .77197268 .101628627 .6665039 .028030396L.7729492-.0703125 .8359375-.12402344C.8483073-.13574219 .8544922-.1484375 .8544922-.16210938 .8544922-.17545574 .849528-.18741863 .8395996-.19799805 .8296712-.20857747 .8177083-.21386719 .80371096-.21386719M.46777345 .6386719C.37858073 .6386719 .3017578 .60891219 .23730469 .5493927 .17089844 .48824565 .13769531 .41376243 .13769531 .325943 .13769531 .25471498 .16520183 .1903127 .22021485 .1327362 .27555339 .07419332 .33805339 .044921876 .40771485 .044921876 .43017579 .044921876 .45328776 .0476888 .47705079 .053222658 .41422526 .10785929 .3828125 .15095012 .3828125 .18249512 .3828125 .19680786 .3881022 .20868428 .39868165 .21812439 .40926109 .2275645 .4210612 .23228455 .43408204 .23228455 .44970704 .23228455 .46354167 .22447205 .47558595 .20884705 .5078125 .1668752 .5442708 .1292979 .58496096 .09611511 .6777344 .15011089 .7241211 .21809387 .7241211 .3000641 .7241211 .39667259 .70442709 .47506205 .66503909 .53523257 .6201172 .6041921 .554362 .6386719 .46777345 .6386719Z"/>
<path id="font_5_88" d="M.4663086 .28515626C.4663086 .26171876 .46647135 .2265625 .46679688 .1796875 .4671224 .1328125 .46728517 .09765625 .46728517 .07421875 .46728517 .06705729 .46785484 .056152345 .46899415 .041503908 .47013346 .026855469 .47070313 .015950522 .47070313 .0087890629 .47070313-.0052083337 .46598307-.016682944 .45654298-.025634766 .44710288-.03458659 .43554688-.0390625 .421875-.0390625 .3968099-.0390625 .38085938-.02360026 .37402345 .0073242189 .33333335-.013834636 .28645835-.024414063 .23339844-.024414063 .1907552-.024414063 .1554362-.014973958 .1274414 .00390625 .09651693 .024739584 .078125 .05517578 .072265628 .095214847 .059570314 .18147786 .053222658 .25830079 .053222658 .3256836 .053222658 .37027995 .05810547 .4210612 .067871097 .47802735 .07242838 .50634768 .087890628 .5205078 .11425781 .5205078 .1282552 .5205078 .13997396 .516037 .14941406 .50709536 .15885417 .4981537 .16357422 .48668925 .16357422 .47270204 .16357422 .4577484 .16121419 .43384806 .15649414 .40100099 .1517741 .36816407 .14941406 .3431295 .14941406 .32589723 .14941406 .27159629 .15120442 .22509766 .15478516 .18640137 .15836589 .14770508 .16373699 .11665344 .17089844 .09324646 .18164063 .087387088 .19222005 .08291117 .20263672 .079818729 .21305339 .07673645 .2233073 .07519531 .23339844 .07519531 .27701823 .07519531 .32307945 .08218384 .37158204 .09616089L.37109376 .19517517 .3701172 .28979493C.3701172 .36003623 .37320964 .42100526 .37939454 .47270204 .38297526 .50261947 .39876304 .5175781 .4267578 .5175781 .44075523 .5175781 .45247398 .5130208 .46191407 .50390627 .47135417 .49479167 .4757487 .48339845 .47509767 .46972657L.4663086 .28515626Z"/>
<path id="font_5_70" d="M.28857423-.03125C.22184246-.03125 .16617839-.0110321049 .12158203 .029403687 .07470703 .0717926 .05126953 .12772115 .05126953 .19718933 .05126953 .26338197 .07324219 .33169557 .1171875 .40213014 .16601563 .48039756 .22102864 .51953127 .28222657 .51953127 .3141276 .51953127 .34977214 .51201888 .38916017 .49699403 .43896485 .47771708 .4638672 .4541982 .4638672 .42643739 .4638672 .4140269 .4597982 .40299989 .45166017 .39335633 .44352214 .38372294 .433431 .37890626 .42138673 .37890626 .41194663 .37890626 .4037272 .38178 .39672853 .38752748 .38972984 .39328514 .38297526 .3989614 .37646485 .40455628 .35725913 .42000834 .32584635 .42773438 .28222657 .42773438 .24902344 .42773438 .21614583 .3980306 .18359375 .33862306 .15397136 .28411866 .13916016 .23695882 .13916016 .19714356 .13916016 .15406291 .1538086 .12011719 .18310547 .0953064 .21044922 .072133388 .24560547 .060546876 .28857423 .060546876 .30810548 .060546876 .3289388 .06575521 .35107423 .076171878L.40771485 .10644531C.41748048 .11165365 .42447917 .11425781 .42871095 .11425781 .44075523 .11425781 .45117188 .10945638 .45996095 .099853519 .46875 .09025065 .47314454 .07926432 .47314454 .06689453 .47314454 .04313151 .44807945 .020182291 .39794923-.001953125 .3540039-.021484375 .31754557-.03125 .28857423-.03125Z"/>
<path id="font_5_58" d="M.6948242-.047851564C.6798503-.047851564 .6666667-.043533327 .65527346-.03489685 .6422526-.024937949 .6357422-.012654622 .6357422 .001953125 .62076827 .041341146 .6113281 .073404949 .6074219 .09814453 .6035156 .12288412 .59065756 .19303386 .56884768 .30859376 .5522461 .39615885 .5411784 .46647135 .53564456 .51953127 .50667318 .41210938 .47558595 .3211263 .4423828 .24658203 .40397135 .16031902 .379069 .09277344 .36767579 .043945314 .37158204 .03635661 .37353517 .028930664 .37353517 .02166748 .37353517 .006825765 .36702476-.005381266 .3540039-.014953613 .34228517-.023864747 .3289388-.028320313 .31396485-.028320313 .27001954-.028320313 .24804688-.008300781 .24804688 .03173828L.23291016 .09375 .1796875 .3330078C.15852864 .41373698 .122395839 .52945968 .07128906 .6801758 .069010417 .6873372 .067871097 .69384768 .067871097 .69970706 .067871097 .72998049 .08496094 .7451172 .119140628 .7451172 .14029949 .7451172 .15657552 .7335612 .16796875 .7104492 .17382813 .69873049 .18570964 .66503909 .20361328 .609375 .22281902 .55045577 .24202474 .4794922 .26123048 .39648438L.30859376 .18066406C.34342448 .26139323 .37809245 .35970054 .41259767 .47558595 .4337565 .54622396 .44986979 .59521487 .4609375 .6225586 .49023438 .6944987 .51871749 .73046877 .5463867 .73046877 .56917318 .73046877 .58528646 .7189128 .59472659 .6958008 .6064453 .66780599 .61832687 .6010742 .6303711 .49560548 .63688156 .44222007 .6479492 .37809245 .6635742 .30322267L.7055664 .111328128C.7491862 .21614583 .80371096 .35791017 .8691406 .5366211 .8727214 .5463867 .8808594 .57714846 .8935547 .62890627 .9029948 .6669922 .9145508 .69661459 .92822268 .71777346 .9399414 .7360026 .9552409 .7451172 .9741211 .7451172 1.0069987 .7451172 1.0234375 .72875979 1.0234375 .6960449 1.0234375 .69048056 1.0182291 .6741231 1.0078125 .64697268L.98828127 .5942383 .9614258 .5073242 .81640627 .15444947C.8030599 .11568197 .78011068 .059315999 .7475586-.0146484379 .73583987-.036783857 .7182617-.047851564 .6948242-.047851564Z"/>
<path id="font_5_82" d="M.25097657-.029296875C.19628906-.029296875 .1492513-.0090789799 .10986328 .03135681 .06591797 .07636007 .04280599 .13685608 .040527345 .21284485 .03857422 .2865448 .057128908 .35144044 .096191409 .40753175 .14176433 .47373454 .20524089 .50683596 .2866211 .50683596 .35172526 .50683596 .40104167 .47699485 .4345703 .41731263 .46126304 .36905418 .4741211 .31100974 .47314454 .24317932 .47216798 .17078145 .45328776 .10897827 .4165039 .057769777 .37483726-.0002746582 .31966148-.029296875 .25097657-.029296875M.28027345 .40722657C.23242188 .4075521 .19514974 .3847351 .16845703 .33877564 .14729817 .30193077 .13671875 .25987754 .13671875 .21261597 .13671875 .16534424 .14957683 .12850444 .17529297 .10209656 .19677735 .08025614 .2220052 .06933594 .25097657 .06933594 .28483073 .06933594 .31396485 .081726077 .3383789 .10650635 .3660482 .13388062 .38069663 .1708781 .38232423 .21749878 .3868815 .34365846 .3528646 .40690104 .28027345 .40722657Z"/>
<path id="font_5_73" d="M.3959961 .68652346C.31722007 .68652346 .27311198 .6321106 .26367188 .5232849L.26220704 .49316407C.31754557 .4970703 .35335288 .49902345 .3696289 .49902345 .42138673 .49902345 .44726563 .4826711 .44726563 .44996644 .44726563 .42608134 .4345703 .41184999 .4091797 .40727235 .39811198 .40530906 .38517253 .40457154 .37036134 .4050598 .35555015 .4055481 .31803385 .40334068 .2578125 .3984375L.25390626 .28700257C.25390626 .26678977 .25455729 .23648072 .25585938 .19607544 .25716148 .15567017 .2578125 .12552898 .2578125 .105651859 .2578125 .043741865 .25423179-.0044809977 .24707031-.039016725 .24153646-.065088909 .22639974-.078125 .20166016-.078125 .1883138-.078125 .17692058-.07380676 .16748047-.06517029 .15804036-.056533815 .15332031-.045700075 .15332031-.032669069 .15332031-.030064902 .15364583-.026804606 .15429688-.022888184 .16113281 .019470215 .16455078 .06557719 .16455078 .11543274L.16308594 .24887085V.390625C.122395839 .38736979 .09667969 .3857422 .0859375 .3857422 .053059896 .3857422 .036621095 .40152995 .036621095 .43310548 .036621095 .46533204 .065104167 .48225913 .12207031 .48388673L.16894531 .48535157C.16992188 .50358077 .17236328 .5283203 .17626953 .5595703 .18473308 .63183596 .20296224 .6850586 .23095703 .7192383 .2648112 .7605794 .31770835 .78125 .38964845 .78125 .4361979 .78125 .45947267 .76538088 .45947267 .7336426 .45947267 .7022298 .4383138 .68652346 .3959961 .68652346Z"/>
<path id="font_5_48" d="M.79345706-.040039064C.7758789-.040039064 .76139327-.030924479 .75-.0126953129 .7402344 .0029296876 .7314453 .028971354 .7236328 .06542969L.7060547 .14941406C.6927083 .20149739 .6715495 .31640626 .6425781 .49414063L.5449219 .19970703 .5161133 .106933597C.50439456 .07014974 .4921875 .040039064 .4794922 .016601563 .4658203-.0081380209 .44742839-.020507813 .4243164-.020507813 .4051107-.020507813 .38997398-.0100911459 .37890626 .0107421879 .37174479 .024414063 .36523438 .041829427 .359375 .06298828L.34521485 .1171875C.31233726 .23209636 .28336589 .35514323 .25830079 .48632813L.24072266 .39892579 .17773438 .14111328C.1751302 .110839847 .16699219 .06608073 .15332031 .0068359377 .14355469-.018554688 .1274414-.03125 .10498047-.03125 .089029949-.03125 .07633463-.025553385 .06689453-.014160156 .05875651-.0043945314 .0546875 .0076497399 .0546875 .021972657 .0546875 .07633463 .06591797 .1430664 .088378909 .22216797L.14208985 .4189453 .17041016 .5727539C.18473308 .64469406 .1998698 .69173178 .21582031 .7138672 .22884114 .7327474 .24495442 .7421875 .26416017 .7421875 .285319 .7421875 .30110679 .73014327 .31152345 .7060547 .32421876 .6770833 .33789063 .6180013 .35253907 .5288086 .36979167 .42171226 .39664714 .3058268 .43310548 .18115235 .48128257 .30647788 .5229492 .43701173 .55810549 .5727539L.5727539 .64404299C.5786133 .6726888 .586263 .6958008 .5957031 .7133789 .60839846 .7371419 .6258138 .74902346 .6479492 .74902346 .67594406 .74902346 .6972656 .72216799 .71191409 .66845706 .7171224 .64990237 .72347006 .6114909 .73095706 .55322268 .7501628 .40608726 .77408859 .2804362 .8027344 .17626953L.82666018 .092285159C.83902999 .04736328 .84521487 .01969401 .84521487 .009277344 .84521487-.0047200524 .8399251-.016438803 .8293457-.025878907 .8187663-.03531901 .8068034-.040039064 .79345706-.040039064Z"/>
<path id="font_5_90" d="M.65234377 .43737794C.6269531 .33106486 .59375 .21089173 .5527344 .07685852 .5436198 .047236127 .5284831 .016799927 .5073242-.014450073 .495931-.03170268 .48046876-.040166219 .4609375-.0398407 .42545573-.039189657 .39778648 .004928589 .3779297 .09251404 .37141929 .12055969 .3647461 .15871684 .35791017 .20698548L.34179688 .31607057 .3017578 .22264099 .22753906 .020614624C.2233073 .008224487 .21712239-.0012308756 .20898438-.007751465 .19921875-.026672364 .18359375-.036458333 .16210938-.037109376 .1373698-.038085939 .11344401 .010503133 .09033203 .10865784 .07861328 .15920513 .06689453 .22768657 .05517578 .31410218L.04345703 .3874817C.03922526 .41682945 .037109376 .44145204 .037109376 .4613495 .037109376 .47504173 .04191081 .4863688 .051513673 .4953308 .061116537 .504303 .072753909 .50878909 .08642578 .50878909 .11116537 .50878909 .12646485 .49525453 .13232422 .46818543 .13655599 .4489492 .13997396 .42514549 .14257813 .3967743L.14990235 .32485963 .17871094 .10523987C.21484375 .2056834 .25227867 .3214518 .29101563 .45254518 .3017578 .488739 .32047526 .50683596 .34716798 .50683596 .37288413 .50683596 .39029948 .48661805 .39941407 .44618226 .4078776 .40802513 .41845704 .34932456 .43115235 .27008058 .4441732 .1879069 .45572917 .12383016 .4658203 .07785034L.50146487 .21090698 .5644531 .4774933C.56933596 .49705506 .5833333 .50683596 .6064453 .50683596 .6201172 .50683596 .6319987 .5022227 .64208987 .49299623 .65218099 .48376975 .65722659 .4726766 .65722659 .4597168 .65722659 .45809938 .65559896 .45065309 .65234377 .43737794Z"/>
<path id="font_5_38" d="M.5390625 .54785159C.5182292 .54785159 .5026042 .5600586 .4921875 .58447268 .4830729 .60530599 .47460938 .6180013 .46679688 .6225586 .45996095 .62613937 .44303385 .6279297 .41601563 .6279297 .3688151 .6279297 .31640626 .5918274 .25878907 .5196228 .18066406 .42270915 .14160156 .33083598 .14160156 .2440033 .14160156 .2020518 .15511067 .16594951 .1821289 .13569641 .20979817 .10447693 .24316406 .08886719 .28222657 .08886719 .31575523 .08886719 .34944663 .09753418 .38330079 .114868167 .402181 .12467448 .43115235 .14397176 .47021485 .17276001 .48876954 .18649292 .5027669 .19335938 .51220706 .19335938 .5262044 .19335938 .53792318 .18804424 .5473633 .17741394 .5568034 .16678365 .56152346 .15492757 .56152346 .1418457 .56152346 .12712606 .55533859 .11420695 .54296877 .10308838 .45703126 .026550293 .3701172-.01171875 .28222657-.01171875 .21484375-.01171875 .15787761 .014175415 .111328128 .065963748 .06640625 .11613464 .043945314 .17542012 .043945314 .24382019 .043945314 .35424296 .09016927 .46743775 .18261719 .58340457 .25976563 .68014529 .3375651 .7285156 .41601563 .7285156 .43196617 .7285156 .44628907 .7277832 .45898438 .72631838 .4716797 .7248535 .48291017 .72249349 .49267579 .7192383 .50406906 .73583987 .5188802 .7441406 .5371094 .7441406 .5595703 .7441406 .57373049 .7292938 .57958987 .6996002 .58479818 .6731618 .58740237 .6406911 .58740237 .6021881 .58740237 .5888112 .5838216 .57706198 .57666018 .5669403 .5678711 .5542145 .55533859 .54785159 .5390625 .54785159Z"/>
<path id="font_5_79" d="M.19189453 .38378907 .18457031 .14082337C.18457031 .1150767 .18326824 .07727051 .18066406 .027404786 .17740886-.0051879885 .16145833-.021484375 .1328125-.021484375 .10091146-.021484375 .08496094-.0048624675 .08496094 .028381348 .08496094 .06782023 .086751308 .12705486 .09033203 .2060852 .09391276 .28511558 .095703128 .3443502 .095703128 .38378907 .095703128 .43528239 .09651693 .4941915 .09814453 .56051638 .09977213 .62684127 .10058594 .6857503 .10058594 .73724368 .10058594 .7698364 .11653646 .7861328 .1484375 .7861328 .18066406 .7861328 .19677735 .7698364 .19677735 .73724368 .19677735 .6857503 .19596355 .62684127 .19433594 .56051638 .19270833 .4941915 .19189453 .43528239 .19189453 .38378907Z"/>
<path id="font_5_86" d="M.39746095 .37597657C.37955729 .37597657 .36702476 .381958 .35986329 .3939209 .35498048 .4023234 .3507487 .41977946 .34716798 .44628907 .3227539 .44011436 .28515626 .42873637 .234375 .41215516 .18196614 .39134217 .15559896 .36565653 .15527344 .33509828 .16503906 .33151756 .17464192 .32891337 .18408203 .32728578 .2589518 .31395976 .31461589 .29558818 .35107423 .27217103 .40413413 .23802185 .43066407 .18858846 .43066407 .12387085 .43066407 .07086182 .40771485 .030863444 .3618164 .0038757325 .32373048-.01823934 .27555339-.029296875 .21728516-.029296875 .17464192-.029296875 .13395183-.022135416 .095214847-.0078125 .045084638 .010416667 .020019532 .035807294 .020019532 .068359378 .020019532 .08138021 .025146485 .09277344 .03540039 .10253906 .045654298 .11230469 .057291669 .1171875 .0703125 .1171875 .08040365 .1171875 .09342448 .109375 .109375 .09375 .1171875 .08626302 .13476563 .080078128 .16210938 .07519531 .18391927 .07128906 .2023112 .06933594 .21728516 .06933594 .2446289 .06933594 .26871745 .07258606 .28955079 .0790863 .31982423 .088516239 .33496095 .10346985 .33496095 .12394714 .33496095 .16816712 .30403648 .19807942 .2421875 .21368408L.19140625 .22491455C.14811199 .23436482 .11735026 .2454427 .099121097 .2581482 .072753909 .27638755 .059570314 .3039042 .059570314 .34069825 .059570314 .4087728 .09163412 .4573059 .15576172 .4862976 .17529297 .49508668 .20654297 .5055847 .24951172 .51779177 .29248048 .530009 .3232422 .54035446 .34179688 .5488281 .35514323 .5546875 .3696289 .5576172 .3852539 .5576172 .3992513 .5576172 .41072593 .5530599 .41967774 .5439453 .42862956 .53483077 .43310548 .5229492 .43310548 .5083008 .43310548 .4988607 .43513999 .48502604 .43920899 .46679688 .44327799 .44856773 .4453125 .43473307 .4453125 .42529298 .4453125 .41064454 .44083659 .39876304 .43188478 .38964845 .42293296 .38053385 .41145835 .37597657 .39746095 .37597657Z"/>
<path id="font_5_3" d="M0 0Z"/>
<path id="font_5_36" d="M.61035159-.0146484379C.5804036-.0146484379 .554362 .023625693 .53222659 .10017395 .523763 .12946065 .5131836 .18070476 .5004883 .25390626 .46728517 .24935913 .42382813 .24124146 .3701172 .22955323L.24023438 .20277405C.22395833 .1601003 .1961263 .097722377 .15673828 .015640259 .14632161-.0025990804 .13216146-.01171875 .11425781-.01171875 .10123698-.01171875 .08959961-.0069986979 .0793457 .0024414063 .0690918 .011881511 .063964847 .02360026 .063964847 .037597658 .063964847 .05323283 .088541667 .11265055 .13769531 .21585083 .13216146 .22431438 .12939453 .23408509 .12939453 .24516297 .12939453 .27153016 .14534505 .28845725 .1772461 .2959442 .21435547 .36567689 .26123048 .4458364 .3178711 .5364227 .39501954 .65992739 .44303385 .7216797 .46191407 .7216797 .48763023 .7216797 .5052083 .7037557 .51464846 .6679077L.54541018 .5037384 .61816409 .16418457 .6459961 .08718872C.6554362 .06088257 .66015627 .043340047 .66015627 .034561159 .66015627 .020594279 .65511068 .00890096 .64501956-.0005187988 .6349284-.009938558 .6233724-.0146484379 .61035159-.0146484379M.43798829 .5432739 .29833985 .31793214C.33772788 .32803346 .39746095 .34025575 .47753907 .354599L.43798829 .5432739Z"/>
<path id="font_5_81" d="M.4423828-.03515625C.41438804-.03515625 .39860026-.019826254 .39501954 .01083374L.38134767 .117996219C.37679038 .15616353 .37451173 .19188436 .37451173 .22515869 .37451173 .23429363 .3750814 .24978638 .3762207 .27163697 .37736003 .2934977 .3779297 .30899558 .3779297 .3181305 .3779297 .38859559 .36490885 .42382813 .3388672 .42382813 .30240885 .42382813 .26757813 .40215556 .234375 .35881043 .20442708 .3193817 .18098958 .26952616 .1640625 .20924378 .16341146 .19652812 .16194661 .18055725 .15966797 .16133118 .15771485 .14503479 .15673828 .12923177 .15673828 .11392212 .15673828 .104146327 .15771485 .08948263 .15966797 .06993103 .1616211 .050379438 .16259766 .03571574 .16259766 .025939942 .16259766 .011271159 .15812175-.00062561038 .14916992-.009750366 .1402181-.018875123 .12874349-.0234375 .114746097-.0234375 .10042318-.0234375 .08886719-.018870036 .080078128-.009735107 .07128906-.00061035159 .06689453 .011291504 .06689453 .025970459 .06689453 .035746259 .065836589 .05041504 .0637207 .06997681 .061604818 .089548747 .060546876 .1042277 .060546876 .11401367 .060546876 .14760335 .0629069 .19415283 .06762695 .2536621 .07234701 .3131714 .07470703 .35972087 .07470703 .39331056 .07470703 .40374757 .07413737 .41923524 .07299805 .43977357 .07185873 .46032206 .07128906 .47580973 .07128906 .48623658 .07128906 .50026449 .075927738 .51175948 .08520508 .52072146 .09448242 .5296936 .10595703 .5341797 .119628909 .5341797 .14957683 .5341797 .16601563 .5129344 .16894531 .47044374L.17041016 .41308595C.22509766 .4860026 .28125 .52246096 .3388672 .52246096 .39095054 .52246096 .4272461 .49947105 .4477539 .4534912 .4617513 .4228414 .46940104 .3775126 .47070313 .31750489V.26811219L.47021485 .22262573C.47021485 .19555664 .4737142 .16057842 .4807129 .11769104 .48771159 .07481384 .49121095 .040008546 .49121095 .0132751469 .49121095-.0010782877 .48657228-.012736003 .47729493-.021697998 .46801759-.030670166 .45638023-.03515625 .4423828-.03515625Z"/>
<path id="font_5_76" d="M.16113281 .61816409C.14550781 .61816409 .1319987 .62369796 .12060547 .6347656 .10921224 .6458333 .103515628 .6591797 .103515628 .6748047 .103515628 .6904297 .10921224 .70377609 .12060547 .71484377 .1319987 .72591146 .14550781 .7314453 .16113281 .7314453 .17675781 .7314453 .19018555 .72591146 .20141602 .71484377 .21264649 .70377609 .21826172 .6904297 .21826172 .6748047 .21826172 .6591797 .21264649 .6458333 .20141602 .6347656 .19018555 .62369796 .17675781 .61816409 .16113281 .61816409M.18310547 .22140503C.18310547 .20185344 .18367513 .17260742 .18481446 .13366699 .18595378 .09473673 .18652344 .06549581 .18652344 .045944215 .18652344 .031611127 .1821289 .019882203 .17333985 .010757446 .16455078 .0016326904 .1529948-.0029296876 .13867188-.0029296876 .12467448-.0029296876 .11319987 .0016326904 .10424805 .010757446 .09529623 .019882203 .09082031 .031611127 .09082031 .045944215 .09082031 .06549581 .09025065 .09473673 .08911133 .13366699 .08797201 .17260742 .087402347 .20185344 .087402347 .22140503 .087402347 .25203453 .089029949 .29023744 .092285159 .3360138 .09554037 .38180033 .09716797 .42000834 .09716797 .45063783 .09716797 .46529643 .10164388 .4771881 .1105957 .48631288 .11954752 .49543763 .13102214 .5 .14501953 .5 .15901692 .5 .17049153 .49543763 .17944336 .48631288 .18839519 .4771881 .1928711 .46529643 .1928711 .45063783 .1928711 .42000834 .19124349 .38180033 .18798828 .3360138 .18473308 .29023744 .18310547 .25203453 .18310547 .22140503Z"/>
<path id="font_5_80" d="M.6879883-.041015626C.6612956-.041015626 .6456706-.026824952 .6411133 .0015563965 .6352539 .03744507 .62939456 .08800761 .62353518 .15324402L.6069336 .3049469C.6036784 .32744853 .59814456 .34946696 .59033206 .3710022 .57926437 .4003601 .56722006 .41503907 .5541992 .41503907 .54215499 .41503907 .51969406 .404775 .4868164 .38424684 .4555664 .36534629 .4350586 .3501943 .42529298 .3387909 .42496745 .3081614 .42578126 .27753196 .42773438 .24690247L.4423828 .11639404C.44856773 .06491089 .45166017 .022384644 .45166017-.011184692 .45166017-.025517783 .44718424-.037328084 .43823243-.0466156 .4292806-.055903119 .417806-.060546876 .4038086-.060546876 .3898112-.060546876 .37833659-.055903119 .36938478-.0466156 .36043296-.037328084 .35595704-.025517783 .35595704-.011184692 .35595704 .028244019 .3519694 .086491908 .34399415 .16355896 .3360189 .24062602 .33203126 .2988739 .33203126 .3383026 .33203126 .37283836 .32714845 .39971925 .3173828 .4189453 .29459635 .4085083 .27148438 .39154563 .24804688 .36805726L.19042969 .30345155C.18522136 .29562889 .17692058 .2853546 .16552735 .27262879 .16552735 .25305686 .16373699 .22418213 .16015625 .18600464 .15657552 .14783733 .15478516 .119618739 .15478516 .10134888 .15478516 .091562908 .15633138 .07786051 .15942383 .0602417 .16251628 .042633058 .1640625 .029912314 .1640625 .022079468 .1640625 .008702596 .15909831-.002553304 .14916992-.011688232 .13924153-.02082316 .12760417-.025390625 .11425781-.025390625 .07747396-.025390625 .05908203 .016474406 .05908203 .10020447 .05908203 .119756069 .060872396 .1489156 .064453128 .1876831 .06803385 .2264506 .06982422 .25561015 .06982422 .27516175 .06982422 .29242454 .06827799 .31832377 .06518555 .3528595 .062093099 .38739524 .060546876 .4134623 .060546876 .4310608 .060546876 .5050151 .07714844 .5419922 .11035156 .5419922 .123046878 .5419922 .13468425 .53653976 .14526367 .52563479 .1558431 .5147298 .16113281 .5027669 .16113281 .4897461 .16113281 .4835612 .16031902 .47395835 .1586914 .4609375 .1570638 .44791667 .15625 .43798829 .15625 .43115235L.15722656 .3798828C.17415364 .41471354 .19905599 .44620768 .2319336 .47436524 .2648112 .50252279 .292806 .51660159 .31591798 .51660159 .36702476 .51660159 .402181 .49121095 .42138673 .4404297 .43929038 .46419273 .46061198 .48201499 .48535157 .49389649 .5100911 .505778 .53841146 .51171877 .5703125 .51171877 .6246745 .51171877 .6617839 .482371 .6816406 .42367555 .6855469 .41193644 .69222006 .36611939 .70166018 .28622438 .7107747 .23013306 .72249349 .13670349 .7368164 .005935669 .73779299-.0071055095 .73339846-.018188477 .7236328-.027313233 .7138672-.036448163 .70198568-.041015626 .6879883-.041015626Z"/>
<path id="font_5_172" d="M0 0Z"/>
</defs>
<g clip-path="url(#clip_1)">
<path transform="matrix(.7189292,0,0,.7189292,0,0)" d="M0 0H523V343H0Z" fill="#ffffff"/>
</g>
<g clip-path="url(#clip_2)">
<path transform="matrix(.7189292,0,0,.7189292,.3594646,.3594646)" d="M171 1H521V341H171Z" fill="#ffffff"/>
<path transform="matrix(.7189292,0,0,.7189292,.3594646,.3594646)" stroke-width="1" stroke-linecap="butt" stroke-miterlimit="4" stroke-linejoin="miter" fill="none" stroke="#000000" d="M171 1H521V341H171Z"/>
</g>
<g clip-path="url(#clip_3)">
<path transform="matrix(2.7178183,0,0,2.7178183,-15.7146439,-143.01877)" d="M95.35571 139.23C93.63085 139.23 93.30012 137.88298 91.91987 138.30417 89.127529 139.15627 88.06742 138.82753 88.06742 137.10955 88.06742 136.40409 87.84787 136.06232 86.89093 135.27819 85.39695 134.05397 84.752849 132.50357 85.0142 130.76073 85.25333 129.16609 86.20005 128.14719 87.24785 128.35675 87.88061 128.4833 88.20855 128.27346 89.64894 126.82013L91.31717 125.13694 91.41364 123.23017C91.574909 120.04273 92.58426 118.84935 93.46568 120.80399 94.0778 122.16142 95.04046 123.34322 95.42865 123.21384 95.6243 123.148639 95.39358 122.620517 94.81215 121.80273 93.45705 119.89674 94.02964 119.578189 95.77072 121.269428 96.77673 122.24664 97.07533 122.42969 96.94261 121.98782 96.84466 121.661708 96.84355 121.26699 96.94021 121.110698 97.23013 120.64159 97.99935 121.54327 98.76534 123.25011L99.46875 124.8175 102.72434 124.6525C105.08146 124.53303 106.03275 124.573 106.171329 124.797168 106.27659 124.96748 106.10832 125.87131 105.797389 126.80565 105.18504 128.6457 103.96837 130.12653 102.09948 131.3063 101.51241 131.67691 101.03252 132.06793 101.03306 132.17525 101.033588 132.28256 101.277729 132.77005 101.57555 133.25856 102.11619 134.14536 102.23035 134.17464 103.66949 133.7956 104.30816 133.62738 103.9892 135.41344 103.21654 136.33197 102.51683 137.16378 101.33366 137.79433 100.47253 137.79433 99.89177 137.79433 99.841838 138.11463 100.30447 138.87236 100.81306 139.70537 99.97186 140.17809 98.00494 140.16457 96.55734 140.15457 96.615848 139.23004 95.355777 139.23004L95.35571 139.23ZM98.54571 136.97396C98.99725 136.83461 99.635089 136.4349 99.96312 136.08574 101.92764 133.9946 96.71413 131.38654 92.71005 132.45738 91.59308 132.75612 91.62126 133.11444 92.81448 133.78507 94.114208 134.51555 95.070858 135.6592 94.695858 136.0342 94.517688 136.21237 94.263179 136.1492 93.924579 135.84276 93.44181 135.40587 93.39421 135.4172 92.85999 136.09636 92.552417 136.48738 92.300769 136.9051 92.300769 137.02462 92.300769 137.265 95.68012 137.48633 96.93098 137.32784 97.36754 137.27254 98.09417 137.11327 98.545719 136.97393L98.54571 136.97396ZM88.70925 134.79582C88.96911 134.79582 88.255069 134.3547 87.90683 134.3547 87.11839 134.3547 87.109958 134.53292 87.86899 135.15341 88.520908 135.68633 87.96312 134.79582 88.70925 134.79582ZM90.84555 135.14846C90.93549 135.00293 90.77094 134.88387 90.479907 134.88387 90.188869 134.88387 89.87715 135.00293 89.78722 135.14846 89.69727 135.29398 89.86182 135.41304 90.15286 135.41304 90.4439 135.41304 90.755619 135.29398 90.84555 135.14846ZM86.489238 133.31377C86.38526 132.27404 86.192768 131.66864 87.18212 130.76242 88.01183 130.00244 88.09952 129.8174 87.80059 129.4572 87.31339 128.87017 86.42374 129.07067 86.027439 129.8568 85.56638 130.77138 85.60314 132.5309 86.09807 133.2375 86.604808 133.96097 86.56796 134.1009 86.48925 133.3138L86.489238 133.31377ZM93.16066 130.70159C93.58811 130.33449 93.81773 129.32762 93.474 129.32762 92.72989 129.32762 91.594539 130.67916 91.909938 131.1895 92.083667 131.4706 92.4163 131.34084 93.16066 130.70159ZM94.97876 130.83625C95.69337 130.29219 96.7995 128.49604 96.78597 127.901638 96.77607 127.46725 96.672718 127.54888 96.320468 128.26929 95.82024 129.29235 94.81528 129.57936 94.81465 128.69936 94.81446 128.42658 94.559688 128.03392 94.24849 127.826778 93.73718 127.48644 93.73463 127.69708 92.925579 128.1157L92.16847 128.78125 93.22681 128.72376C94.1983 128.67096 94.283847 128.72075 94.269329 129.32765 94.26063 129.69145 94.16331 130.257 94.053058 130.58443 93.82547 131.2603 94.264789 131.37984 94.97875 130.83628L94.97876 130.83625ZM102.79206 129.39377C103.65445 128.46616 104.84015 126.15262 104.45316 126.15262 104.2926 126.15262 103.64376 126.52424 103.01129 126.97844 102.02262 127.688449 101.903598 127.87191 102.162548 128.28656 102.40079 128.66805 102.369419 128.87308 102.01247 129.26752 101.76427 129.54178 101.56119 129.84609 101.56119 129.94377 101.56119 130.34325 102.156749 130.07715 102.79207 129.39377H102.79206ZM92.82993 122.96084C92.82993 121.889148 92.46384 121.377269 92.1962 122.07474 92.108188 122.304088 92.03619 122.97282 92.03619 123.560817 92.03619 124.481128 92.091419 124.58406 92.43306 124.30054 92.65904 124.11298 92.82993 123.53612 92.82993 122.96084ZM92.49795 114.32804C92.181118 113.75271 92.50235 111.89633 93.036258 111.21763L93.6174 110.47883 92.98918 109.73224C92.64366 109.32161 92.216487 108.38337 92.039897 107.64726 91.79377 106.621318 91.60145 106.308879 91.21604 106.308879 90.54443 106.308879 90.58241 105.840038 91.374729 104.34991 91.738529 103.66569 92.03619 103.052639 92.03619 102.98758 92.03619 102.92248 91.60219 102.869289 91.07175 102.869289 89.9541 102.869289 87.9717 101.73052 87.57548 100.86091 87.22703 100.096149 87.505268 98.1068 87.96068 98.1068 88.15468 98.1068 88.44444 98.35165 88.6046 98.65091 88.832569 99.07686 89.10749 99.17741 89.87068 99.11393 91.25172 98.99906 91.10447 98.41659 89.544719 97.82452 88.82925 97.55293 88.12083 97.20769 87.97044 97.057308 87.82006 96.90691 87.44593 96.78388 87.139049 96.78388 86.05818 96.78388 85.64798 96.18618 85.40391 94.255619 85.276149 93.24506 85.100109 92.11794 85.012699 91.75091 84.76851 90.72545 85.74362 89.64013 86.90915 89.64013 87.41514 89.64013 88.150638 89.80275 88.543598 90.00151 88.936557 90.200267 89.8634 90.50506 90.60327 90.67883 91.858539 90.97367 92.03367 90.9495 93.22237 90.31747 96.11382 88.78007 100.11802 89.90642 102.96538 93.0581 103.76787 93.94636 103.94263 94.340358 103.943569 95.2633 103.94436 96.07016 104.168758 96.72275 104.739299 97.57765 105.84369 99.232479 106.6097 101.37301 106.42609 102.29114 106.271068 103.06621 106.7021 103.591388 108.45128 104.75862 109.427959 105.41036 108.84397 105.68417 107.70942 105.10645 107.16555 104.829509 106.631259 104.56012 106.52212 104.50781 106.177509 104.34266 106.30748 107.08161 106.686458 107.97104 106.88599 108.43931 107.362239 109.11108 107.74478 109.46387 108.87372 110.50496 108.5518 111.071399 106.8312 111.071399 106.40654 111.071399 106.05909 111.17772 106.05909 111.30766 106.05909 112.10355 103.5276 111.661289 101.98133 110.59526 101.41205 110.20279 100.60639 109.32929 100.19098 108.65415 99.77556 107.97901 99.21769 107.36962 98.95127 107.29995 98.45251 107.16952 98.13035 105.98433 98.124507 104.25836 98.1221 103.58934 98.0094 103.39847 97.616168 103.39847 96.95513 103.39847 94.94659 102.0785 94.94659 101.64409 94.94659 101.45849 95.358928 101.11096 95.8629 100.87181 96.91935 100.37049 97.18647 99.78827 96.81196 98.803218 96.5061 97.998767 95.883289 97.83594 96.13404 98.625988 96.347988 99.30004 95.84794 100.22313 95.26801 100.224689 95.01847 100.22549 94.09992 100.520198 93.2268 100.87987 92.353679 101.23955 91.30485 101.536647 90.89608 101.5401 90.46838 101.5441 90.2224 101.6589 90.31666 101.81141 90.41492 101.970409 91.0532 102.00913 91.91201 101.90821 94.294918 101.62815 95.207729 102.5996 95.77195 106.01613 96.06935 107.81695 96.05451 107.94562 95.405208 109.197139 94.84706 110.272937 94.76719 110.67283 94.94923 111.479969 95.21495 112.658138 95.05857 113.14903 94.31519 113.47025 94.00762 113.60315 93.49942 113.89868 93.18587 114.126979 92.872318 114.35526 92.562747 114.445758 92.49794 114.32808L92.49795 114.32804ZM93.356899 97.32001C93.67121 97.121288 93.68468 97.00361 93.42304 96.741977 92.98072 96.299648 93.00886 95.99013 93.4914 95.99013 93.98083 95.99013 93.98087 95.96363 93.493007 95.028179 93.01924 94.119777 92.984828 93.08073 93.39842 92.172969 93.67023 91.576419 94.256359 91.25616 96.26949 90.60418 96.48778 90.53348 96.200588 90.46625 95.63128 90.45476 94.96559 90.44136 94.17984 90.677867 93.429569 91.11756 92.45604 91.688098 92.05805 91.77451 91.02507 91.63967L89.7872 91.47809 88.01635 93.22261C86.89996 94.32241 86.30023 95.10978 86.3936 95.35309 86.50958 95.65534 86.623439 95.67122 86.918529 95.426288 87.220767 95.175449 87.469928 95.28277 88.17741 95.96848 89.55601 97.30467 92.26358 98.01117 93.356868 97.31998L93.356899 97.32001ZM97.06327 94.402629C97.06327 93.68253 96.55271 93.47581 96.04569 93.99061 95.638378 94.40419 95.64284 94.46075 96.11006 94.8072 96.70308 95.24691 97.06327 95.09404 97.06327 94.402629ZM98.82716 91.05124C98.730159 90.95424 98.571399 90.95424 98.47439 91.05124 98.37738 91.14824 98.45675 91.227619 98.65078 91.227619 98.84481 91.227619 98.92418 91.14822 98.82717 91.05124H98.82716ZM96.00492 78.575649C96.00492 76.91189 96.58875 74.9929 97.56148 73.45939 97.99121 72.781909 98.38233 71.94848 98.43063 71.60731 98.50251 71.09959 98.7184 70.96032 99.62004 70.839969 101.548458 70.582569 102.09825 69.64902 101.27381 68.03191 100.78082 67.06496 100.78118 67.044757 101.29981 66.56153 102.00576 65.90384 101.97537 64.53861 101.230419 63.44237 99.87383 61.44614 96.59857 60.890825 94.57398 62.313764 93.23041 63.258066 92.82186 64.259609 93.37689 65.24845 93.92577 66.22634 94.46824 66.24343 95.00178 65.29965 95.50615 64.40744 96.61042 63.87094 97.48874 64.091388 97.93072 64.20232 99.1799 65.75455 99.1799 66.19282 99.1799 66.231517 98.61436 66.25812 97.92313 66.252017 95.95031 66.23461 94.68198 66.57015 94.68198 67.10958 94.68198 67.71123 95.188777 68.20884 95.80153 68.20884 96.48564 68.20884 96.69699 68.95741 96.12995 69.37204 95.871189 69.56125 95.741298 69.84846 95.8413 70.01027 96.24198 70.65858 93.7214 74.92046 91.44637 77.44136 90.60658 78.37192 89.91949 79.23512 89.91949 79.35959 89.91949 79.48407 89.7367 79.58591 89.513309 79.58591 88.926219 79.58591 89.43041 78.7131 90.96528 77.072368 92.23598 75.71403 93.791667 73.31572 93.55534 73.07941 93.482418 73.00651 92.97228 73.37164 92.421718 73.89089 91.310909 74.938518 90.32022 75.303218 89.68009 74.900157 89.00428 74.474628 89.026988 73.79198 89.76187 72.44177 90.70144 70.71546 90.65598 70.38134 89.45646 70.19696 87.913539 69.95978 85.85218 69.31514 85.27951 68.89071 84.78358 68.52315 84.78114 68.484409 85.22569 68.03344 85.59065 67.66322 86.129138 67.55964 87.717128 67.55425 89.280849 67.549259 89.77189 67.456859 89.86975 67.150508 89.93948 66.93221 90.43967 66.33691 90.98128 65.82758 91.52289 65.31826 92.05486 64.61631 92.16344 64.267719 92.27201 63.919107 92.82478 63.130567 93.391819 62.515405 95.105197 60.656606 97.49573 60.330675 100.11516 61.598714 101.987 62.504854 102.21818 63.04764 102.24929 66.60961 102.26399 68.28954 102.17519 69.93841 102.05192 70.27375 101.91925 70.6348 101.344318 71.097377 100.64225 71.40793 98.53035 72.34212 96.80562 75.39054 96.80123 78.196849 96.79913 79.48922 96.711948 79.850498 96.40177 79.850498 96.103908 79.850498 96.0049 79.53245 96.0049 78.57559L96.00492 78.575649ZM96.2695 65.29846C96.2695 65.15294 96.217 65.03388 96.152828 65.03388 96.08865 65.03388 95.96256 65.15294 95.87263 65.29846 95.782688 65.443988 95.8352 65.56305 95.9893 65.56305 96.14342 65.56305 96.2695 65.44398 96.2695 65.29846ZM96.53409 62.945524C96.64053 62.679414 97.18738 62.388044 97.87865 62.388044 98.57821 62.388044 98.51769 62.82025 97.790859 63.015035 96.94598 63.241456 96.43264 63.19914 96.53409 62.945535V62.945524ZM14.6667599 110.07749C14.29724 108.845767 13.165686 108.690128 13.711497 108.690128 13.876864 108.690128 14.450207 108.987789 14.98559 109.351589 16.5964 110.44617 17.147007 110.27487 18.56488 108.23811 19.32124 107.15161 19.705622 106.368328 19.555907 106.21861 19.153193 105.815898 18.509737 106.23621 18.321118 107.025157 18.068095 108.08351 17.754899 108.38906 16.725049 108.58227 16.049366 108.70903 15.681465 108.632167 15.296428 108.283679 14.461056 107.52768 14.656157 106.68124 15.968167 105.36922L17.158492 104.17889 16.48011 103.92097C16.106999 103.779109 15.442369 103.66305 15.003153 103.66305 14.080641 103.66305 14.075609 103.05262 14.997053 102.91704 15.495668 102.843639 15.5716309 102.66378 15.5716309 101.55629 15.5716309 100.66596 15.451632 100.23403 15.174755 100.12779 14.559368 99.89165 14.706162 98.68364 15.439338 97.95047 15.80314 97.58666 16.100798 97.23649 16.100798 97.17229 16.100798 96.97557 14.214479 96.25473 13.699684 96.25473 13.024384 96.25473 11.867463 96.81353 11.867463 97.1397 11.867463 97.28868 12.127057 97.94682 12.444337 98.60224 12.845752 99.43145 13.02682 100.31715 13.039649 101.51426 13.057059 103.13729 13.020679 103.24359 12.39663 103.39314 11.371544 103.63881 11.375381 105.014339 12.40653 106.94669 13.236997 108.502948 13.193758 108.93824 12.207486 108.95068 12.030697 108.95268 11.758618 109.192859 11.602859 109.483898 11.447099 109.77495 11.204784 110.01306 11.0643839 110.01306 10.621106 110.01306 10.627419 108.93512 11.3444 108.55133L11.879691 107.98154 11.35021 106.81448C11.058998 106.172618 10.818114 105.43907 10.8149189 105.1844 10.803988 104.31382 10.300733 104.719928 9.9982 105.843448 9.482448 107.758808 8.196938 109.069217 7.348265 108.54471 7.1691715 108.43403 7.4105055 108.07431 7.9772884 107.60712 9.402998 106.43193 9.407319 105.88123 8.011818 103.2074 6.9538629 101.1803 6.797949 100.67351 6.804598 99.2834 6.809498 98.264568 7.0131909 97.218318 7.3677694 96.39111 7.918947 95.10526 7.91928 95.089649 7.4100797 94.400928 7.0557315 93.92163 6.9703476 93.57542 7.134259 93.282527 7.3043496 92.97859 7.1837995 92.63503 6.7091376 92.07092 6.3447434 91.63787 6.0466058 91.21144 6.0466058 91.12331 6.0466058 90.675449 6.9392006 91.07651 8.015222 92.00776 9.181134 93.01686 9.251562 93.04042 10.081835 92.69937 10.554595 92.50517 11.358116 92.26143 11.867439 92.15773 12.440779 92.04099 13.151224 91.58535 13.732758 90.9614 15.507447 89.05729 17.980069 89.08831 20.034703 91.040508 21.60209 92.529727 22.402697 94.99696 21.54857 95.705829 21.252669 95.95139 21.083893 95.88971 20.732367 95.407489 20.301445 94.81637 20.295304 94.832469 20.510092 95.99019 20.726574 97.15706 20.75559 99.44369 20.583952 101.81102 20.536473 102.46586 20.661492 103.37788 20.861756 103.83772 21.373332 105.01235 20.940606 106.28101 19.198739 108.71338 17.891985 110.53815 17.721594 110.67904 16.749093 110.739009 15.9682259 110.78711 14.938535 110.98344 14.666768 110.077548L14.6667599 110.07749ZM20.334094 104.83805C20.334094 104.48284 20.21503 104.19221 20.06951 104.19221 19.923989 104.19221 19.804926 104.55642 19.804926 105.001567 19.804926 105.47376 19.915146 105.74281 20.06951 105.647418 20.21503 105.55752 20.334094 105.19325 20.334094 104.83804V104.83805ZM18.085135 105.25054C17.995196 105.10502 17.809576 104.98596 17.672644 104.98596 17.535712 104.98596 17.423676 105.10502 17.423676 105.25054 17.423676 105.396068 17.609297 105.51512 17.836167 105.51512 18.063036 105.51512 18.175072 105.396068 18.085135 105.25054ZM17.0268 101.41408C17.0268 101.147289 16.877972 100.879398 16.696072 100.81877 16.486609 100.74897 16.365344 100.96723 16.365344 101.41408 16.365344 101.86093 16.486609 102.079219 16.696072 102.009387 16.877974 101.948787 17.0268 101.68086 17.0268 101.41408ZM19.151919 100.22346C18.622218 100.22346 19.64592 100.10006 18.875826 99.26911 18.277279 98.62327 18.251013 98.508228 18.611243 98.11017 19.140666 97.52517 19.129437 96.94646 18.592673 97.152439 18.36249 97.24074 17.916007 97.31611 17.600485 97.31986 17.191298 97.32486 16.88574 97.6325 16.53479 98.39328 16.264178 98.97992 16.085583 99.4965 16.137915 99.54124 16.190245 99.58594 16.50665 99.76503 16.84104 99.93911 17.175427 100.11318 17.408524 100.689 17.722136 100.96713L17.995245 101.67865 18.37937 100.95104C18.590636 100.550868 19.365557 100.22344 19.151923 100.22344L19.151919 100.22346ZM10.015343 100.768238C10.015343 100.41094 9.533022 100.16326 9.217277 100.35841 9.069383 100.449817 9.016876 100.63544 9.100601 100.770908 9.299215 101.09226 10.015343 101.09019 10.015343 100.76791V100.768238Z" fill="#976b4e"/>
</g>
<g clip-path="url(#clip_4)">
<path transform="matrix(.7189292,0,0,.7189292,.3594646,.3594646)" d="M79.76 184.85C62.67 176.27 61 162.14 75.95 152.5 90.89 142.86 117.36 141 136.52 148.25 155.68 155.49 161 169.37 148.7 180.01 136.4 190.65 110.67 194.42 89.81 188.65 85.12 195.8 77.55 200.34 69.25 201 74.47 197.07 78.19 191.35 79.76 184.85Z" fill="#ffffff"/>
<path transform="matrix(.7189292,0,0,.7189292,.3594646,.3594646)" stroke-width="1" stroke-linecap="butt" stroke-miterlimit="15" stroke-linejoin="miter" fill="none" stroke="#000000" d="M79.76 184.85C62.67 176.27 61 162.14 75.95 152.5 90.89 142.86 117.36 141 136.52 148.25 155.68 155.49 161 169.37 148.7 180.01 136.4 190.65 110.67 194.42 89.81 188.65 85.12 195.8 77.55 200.34 69.25 201 74.47 197.07 78.19 191.35 79.76 184.85Z"/>
<use data-text="S" xlink:href="#font_5_54" transform="matrix(12.221796,0,0,-12.221796,62.513139,128.68833)"/>
<use data-text="p" xlink:href="#font_5_83" transform="matrix(12.221796,0,0,-12.221796,70.98284,128.68833)"/>
<use data-text="e" xlink:href="#font_5_72" transform="matrix(12.221796,0,0,-12.221796,77.5215,128.68833)"/>
<use data-text="a" xlink:href="#font_5_68" transform="matrix(12.221796,0,0,-12.221796,84.21905,128.68833)"/>
<use data-text="k" xlink:href="#font_5_78" transform="matrix(12.221796,0,0,-12.221796,90.47661,128.68833)"/>
<path transform="matrix(-.7189292,0,0,.7189292,346.8833,.3594646)" d="M209.76 54.85C192.67 46.27 191 32.14 205.95 22.5 220.89 12.86 247.36 11 266.52 18.25 285.68 25.49 291 39.37 278.7 50.01 266.4 60.65 240.67 64.42 219.81 58.65 215.12 65.8 207.55 70.34 199.25 71 204.47 67.07 208.19 61.35 209.76 54.85Z" fill="#ffffff"/>
<path transform="matrix(-.7189292,0,0,.7189292,346.8833,.3594646)" stroke-width="1" stroke-linecap="butt" stroke-miterlimit="15" stroke-linejoin="miter" fill="none" stroke="#000000" d="M209.76 54.85C192.67 46.27 191 32.14 205.95 22.5 220.89 12.86 247.36 11 266.52 18.25 285.68 25.49 291 39.37 278.7 50.01 266.4 60.65 240.67 64.42 219.81 58.65 215.12 65.8 207.55 70.34 199.25 71 204.47 67.07 208.19 61.35 209.76 54.85Z"/>
<use data-text="Q" xlink:href="#font_5_52" transform="matrix(12.221796,0,0,-12.221796,155.1539,35.227529)"/>
<use data-text="u" xlink:href="#font_5_88" transform="matrix(12.221796,0,0,-12.221796,165.8602,35.227529)"/>
<use data-text="a" xlink:href="#font_5_68" transform="matrix(12.221796,0,0,-12.221796,172.21553,35.227529)"/>
<use data-text="c" xlink:href="#font_5_70" transform="matrix(12.221796,0,0,-12.221796,178.47309,35.227529)"/>
<use data-text="k" xlink:href="#font_5_78" transform="matrix(12.221796,0,0,-12.221796,184.75508,35.227529)"/>
<path transform="matrix(-.7189292,0,0,.7189292,346.8833,.3594646)" d="M209.76 154.85C192.67 146.27 191 132.14 205.95 122.5 220.89 112.86 247.36 111 266.52 118.25 285.68 125.49 291 139.37 278.7 150.01 266.4 160.65 240.67 164.42 219.81 158.65 215.12 165.8 207.55 170.34 199.25 171 204.47 167.07 208.19 161.35 209.76 154.85Z" fill="#ffffff"/>
<path transform="matrix(-.7189292,0,0,.7189292,346.8833,.3594646)" stroke-width="1" stroke-linecap="butt" stroke-miterlimit="15" stroke-linejoin="miter" fill="none" stroke="#000000" d="M209.76 154.85C192.67 146.27 191 132.14 205.95 122.5 220.89 112.86 247.36 111 266.52 118.25 285.68 125.49 291 139.37 278.7 150.01 266.4 160.65 240.67 164.42 219.81 158.65 215.12 165.8 207.55 170.34 199.25 171 204.47 167.07 208.19 161.35 209.76 154.85Z"/>
<use data-text="W" xlink:href="#font_5_58" transform="matrix(12.221796,0,0,-12.221796,157.36685,107.120449)"/>
<use data-text="o" xlink:href="#font_5_82" transform="matrix(12.221796,0,0,-12.221796,170.07753,107.120449)"/>
<use data-text="o" xlink:href="#font_5_82" transform="matrix(12.221796,0,0,-12.221796,176.5062,107.120449)"/>
<use data-text="f" xlink:href="#font_5_73" transform="matrix(12.221796,0,0,-12.221796,182.93486,107.120449)"/>
<path transform="matrix(-.7189292,0,0,.7189292,346.8833,.3594646)" d="M209.76 294.85C192.67 286.27 191 272.14 205.95 262.5 220.89 252.86 247.36 251 266.52 258.25 285.68 265.49 291 279.37 278.7 290.01 266.4 300.65 240.67 304.42 219.81 298.65 215.12 305.8 207.55 310.34 199.25 311 204.47 307.07 208.19 301.35 209.76 294.85Z" fill="#ffffff"/>
<path transform="matrix(-.7189292,0,0,.7189292,346.8833,.3594646)" stroke-width="1" stroke-linecap="butt" stroke-miterlimit="15" stroke-linejoin="miter" fill="none" stroke="#000000" d="M209.76 294.85C192.67 286.27 191 272.14 205.95 262.5 220.89 252.86 247.36 251 266.52 258.25 285.68 265.49 291 279.37 278.7 290.01 266.4 300.65 240.67 304.42 219.81 298.65 215.12 305.8 207.55 310.34 199.25 311 204.47 307.07 208.19 301.35 209.76 294.85Z"/>
<use data-text="M" xlink:href="#font_5_48" transform="matrix(12.221796,0,0,-12.221796,157.11972,207.77053)"/>
<use data-text="o" xlink:href="#font_5_82" transform="matrix(12.221796,0,0,-12.221796,167.91158,207.77053)"/>
<use data-text="e" xlink:href="#font_5_72" transform="matrix(12.221796,0,0,-12.221796,174.34024,207.77053)"/>
<use data-text="w" xlink:href="#font_5_90" transform="matrix(12.221796,0,0,-12.221796,181.03778,207.77053)"/>
<use data-text="C" xlink:href="#font_5_38" transform="matrix(12.221796,0,0,-12.221796,294.7722,125.09367)"/>
<use data-text="l" xlink:href="#font_5_79" transform="matrix(12.221796,0,0,-12.221796,302.14195,125.09367)"/>
<use data-text="a" xlink:href="#font_5_68" transform="matrix(12.221796,0,0,-12.221796,305.4907,125.09367)"/>
<use data-text="s" xlink:href="#font_5_86" transform="matrix(12.221796,0,0,-12.221796,311.74827,125.09367)"/>
<use data-text="s" xlink:href="#font_5_86" transform="matrix(12.221796,0,0,-12.221796,317.7003,125.09367)"/>
<use data-text=" " xlink:href="#font_5_3" transform="matrix(12.221796,0,0,-12.221796,323.65229,125.09367)"/>
<use data-text="A" xlink:href="#font_5_36" transform="matrix(12.221796,0,0,-12.221796,327.3066,125.09367)"/>
<use data-text="n" xlink:href="#font_5_81" transform="matrix(12.221796,0,0,-12.221796,336.24076,125.09367)"/>
<use data-text="i" xlink:href="#font_5_76" transform="matrix(12.221796,0,0,-12.221796,342.63276,125.09367)"/>
<use data-text="m" xlink:href="#font_5_80" transform="matrix(12.221796,0,0,-12.221796,346.05485,125.09367)"/>
<use data-text="a" xlink:href="#font_5_68" transform="matrix(12.221796,0,0,-12.221796,355.5512,125.09367)"/>
<use data-text="l" xlink:href="#font_5_79" transform="matrix(12.221796,0,0,-12.221796,361.80879,125.09367)"/>
<use data-text="&#x00a0;" xlink:href="#font_5_172" transform="matrix(12.221796,0,0,-12.221796,365.15754,125.09367)"/>
</g>
</svg>
