<svg xmlns="http://www.w3.org/2000/svg" xmlns:xlink="http://www.w3.org/1999/xlink" xmlns:inkscape="http://www.inkscape.org/namespaces/inkscape" version="1.1" width="280.08" height="148.08" viewBox="0 0 280.08 148.08">
<defs>
<clipPath id="clip_1">
<path transform="matrix(.24,0,0,.24,0,0)" d="M0 0H1166.6666V614.8243H0Z" clip-rule="evenodd"/>
</clipPath>
<clipPath id="clip_2">
<path transform="matrix(.24,0,0,.24,0,0)" d="M0 0H1166.6666V614.8243H0Z" clip-rule="evenodd"/>
</clipPath>
<clipPath id="clip_3">
<path transform="matrix(.24,0,0,.24,1.68,2.3999999)" d="M0 0H487V127H0Z" clip-rule="evenodd"/>
</clipPath>
<path id="font_4_53" d="M.07861328 0V.7158203H.3959961C.4597982 .7158203 .5083008 .70939639 .5415039 .69654849 .57470706 .68371078 .601237 .6610362 .62109377 .6285248 .6409505 .59601339 .6508789 .5600891 .6508789 .52075198 .6508789 .47003175 .6344401 .4272766 .6015625 .39248658 .5686849 .3577067 .5179036 .3356018 .44921876 .32617188 .47428385 .31410728 .4933268 .3022054 .50634768 .2904663 .5340169 .26504518 .5602214 .23326111 .58496096 .19511414L.70947268 0H.59033206L.49560548 .14915467C.4679362 .19218445 .44514976 .22510784 .4272461 .2479248 .40934245 .27075196 .39331056 .2867279 .3791504 .29585267 .36499024 .30498759 .35058595 .3113505 .3359375 .3149414 .3251953 .31722007 .3076172 .31835938 .28320313 .31835938H.17333985V0H.07861328M.17333985 .40039063H.37695313C.4202474 .40039063 .45410157 .40485636 .47851563 .41378785 .5029297 .42271934 .5214844 .43701173 .5341797 .45666505 .546875 .47631837 .55322268 .49768067 .55322268 .52075198 .55322268 .5545349 .54093429 .5823059 .5163574 .60406497 .4917806 .62583419 .45296226 .63671877 .39990235 .63671877H.17333985V.40039063Z"/>
<path id="font_4_72" d="M.42089845 .16699219 .51171877 .15576172C.49739585 .10270182 .47086589 .061523439 .4321289 .032226564 .39339195 .0029296876 .34391276-.01171875 .2836914-.01171875 .20784505-.01171875 .14770508 .01163737 .103271488 .05834961 .05883789 .10506185 .036621095 .17057292 .036621095 .2548828 .036621095 .3421224 .05908203 .40983073 .104003909 .4580078 .14892578 .5061849 .20719402 .53027346 .2788086 .53027346 .34814454 .53027346 .40478517 .5067088 .44873048 .45957948 .49267579 .41246034 .51464846 .34616599 .51464846 .2606964 .51464846 .25549827 .51448568 .247701 .51416018 .23730469H.1274414C.13069661 .1805013 .14680989 .13700359 .17578125 .10681152 .20475261 .07661947 .24088542 .061523439 .2841797 .061523439 .31640626 .061523439 .34391276 .0699056 .36669923 .08666992 .3894857 .10344442 .4075521 .1302185 .42089845 .16699219M.13232422 .31054688H.421875C.41796876 .3534546 .40690104 .38563539 .38867188 .40708924 .3606771 .4403839 .3243815 .45703126 .27978517 .45703126 .23942058 .45703126 .20548503 .44374085 .17797852 .41716004 .150472 .3905894 .1352539 .35505168 .13232422 .31054688Z"/>
<path id="font_4_86" d="M.030761719 .15527344 .11767578 .16894531C.122558597 .13426717 .1361491 .107691448 .15844727 .08921814 .18074544 .070755008 .21191406 .061523439 .25195313 .061523439 .29231773 .061523439 .32226563 .06967672 .34179688 .08598328 .36132813 .10230001 .37109376 .12143453 .37109376 .14338684 .37109376 .16309102 .36246745 .17859395 .34521485 .18989563 .33317057 .1976471 .30322267 .20749919 .2553711 .2194519 .19091797 .23573812 .14624024 .24982707 .12133789 .26171876 .09643555 .27361045 .077555339 .29006449 .064697269 .31108094 .05183919 .33209739 .045410158 .35531108 .045410158 .38072206 .045410158 .40385438 .05069987 .4252777 .061279298 .44499208 .07185873 .46470643 .08626302 .4810791 .10449219 .4941101 .11816406 .5042114 .13680013 .5127614 .16040039 .51976016 .18400066 .526769 .20930989 .53027346 .23632813 .53027346 .27701823 .53027346 .31274415 .52437338 .34350587 .51257327 .37426759 .50078329 .39697267 .48480735 .4116211 .4646454 .42626954 .44449363 .4363607 .4175415 .44189454 .38378907L.35595704 .3720703C.35205079 .39876304 .34073893 .41959635 .32202149 .4345703 .30330406 .44954429 .27685548 .45703126 .24267578 .45703126 .2023112 .45703126 .17350261 .45038859 .15625 .43710328 .13899739 .42382813 .1303711 .40827943 .1303711 .39045716 .1303711 .37912498 .13395183 .3689219 .14111328 .35984803 .14827474 .35045878 .1595052 .34268699 .17480469 .3365326 .18359375 .33328758 .20947266 .32583619 .2524414 .31417848 .31461589 .29758708 .35799156 .28400675 .38256837 .2734375 .40714518 .26286827 .42643229 .24749756 .4404297 .22732544 .4544271 .2071635 .46142579 .18212383 .46142579 .15220642 .46142579 .12292989 .45288087 .09536234 .43579103 .069503787 .41870118 .043655397 .39404298 .02365621 .3618164 .009506226 .32958985-.0046437585 .2931315-.01171875 .2524414-.01171875 .1850586-.01171875 .13370769 .002319336 .09838867 .030395508 .063069667 .05847168 .040527345 .100097659 .030761719 .15527344Z"/>
<path id="font_4_82" d="M.033203126 .25927735C.033203126 .355306 .059895833 .42643229 .11328125 .47265626 .15787761 .5110677 .21223958 .53027346 .2763672 .53027346 .34765626 .53027346 .40592448 .5069173 .45117188 .46020509 .49641929 .41349284 .51904299 .34895835 .51904299 .26660157 .51904299 .1998698 .5090332 .14737956 .48901368 .10913086 .46899415 .070882167 .43986003 .041178388 .40161134 .020019532 .36336265-.0011393229 .3216146-.01171875 .2763672-.01171875 .20377605-.01171875 .1451009 .011555989 .1003418 .05810547 .055582685 .104654949 .033203126 .17171224 .033203126 .25927735M.123535159 .25952149C.123535159 .19335938 .13802083 .14381917 .16699219 .11090088 .19596355 .07798258 .23242188 .061523439 .2763672 .061523439 .31998698 .061523439 .35628257 .078063968 .3852539 .11114502 .41422526 .14422608 .42871095 .19465637 .42871095 .2624359 .42871095 .32632957 .4141439 .3747355 .38500978 .4076538 .35587565 .4405721 .31966148 .45703126 .2763672 .45703126 .23242188 .45703126 .19596355 .44065348 .16699219 .40789796 .13802083 .37514244 .123535159 .3256836 .123535159 .25952149Z"/>
<path id="font_4_88" d="M.40576173 0V.076171878C.36539714 .017578125 .31054688-.01171875 .24121094-.01171875 .21061199-.01171875 .18204753-.005859375 .15551758 .005859375 .12898763 .017578125 .10929362 .03230794 .09643555 .050048829 .08357748 .06778971 .07454427 .08951823 .06933594 .115234378 .06575521 .13248699 .063964847 .15983074 .063964847 .19726563V.5185547H.15185547V.23095703C.15185547 .1850586 .15364583 .15413411 .15722656 .1381836 .16276042 .11507162 .17447917 .09692383 .19238281 .083740238 .21028646 .07055664 .23242188 .063964847 .25878907 .063964847 .28515626 .063964847 .30989585 .0707194 .3330078 .084228519 .35611979 .09773763 .3724772 .116129558 .38208009 .1394043 .39168296 .16267903 .39648438 .19645183 .39648438 .24072266V.5185547H.484375V0H.40576173Z"/>
<path id="font_4_85" d="M.064941409 0V.5185547H.14404297V.4404297C.16422527 .4770101 .18286133 .50112918 .19995117 .51278689 .21704102 .5244446 .23583985 .53027346 .25634767 .53027346 .28597007 .53027346 .31608073 .520874 .3466797 .5020752L.31640626 .42089845C.29492188 .43359376 .2734375 .4399414 .25195313 .4399414 .23274739 .4399414 .2154948 .43415324 .20019531 .4225769 .18489583 .41101075 .17399089 .3949636 .16748047 .37443543 .15771485 .3431549 .15283203 .3089396 .15283203 .27178956V0H.064941409Z"/>
<path id="font_4_70" d="M.40429688 .19042969 .49072267 .17919922C.48128257 .11947632 .45711265 .07272339 .4182129 .03894043 .37931315 .005167643 .33154298-.01171875 .27490235-.01171875 .2039388-.01171875 .14689128 .011474609 .103759769 .057861329 .060628255 .10424805 .0390625 .17073567 .0390625 .25732423 .0390625 .3133138 .048339845 .3623047 .06689453 .40429688 .08544922 .44628907 .11368815 .4777832 .15161133 .4987793 .1895345 .5197754 .23079427 .53027346 .27539063 .53027346 .33170573 .53027346 .37776695 .51598617 .41357423 .4874115 .4493815 .45884706 .47233073 .4182841 .48242188 .36572267L.39697267 .35253907C.38883464 .38720704 .37443034 .4132894 .35375978 .43078614 .3330892 .44828288 .30810548 .45703126 .2788086 .45703126 .23453777 .45703126 .1985677 .4412384 .17089844 .4096527 .14322917 .37807719 .12939453 .32811485 .12939453 .25976563 .12939453 .19043987 .14274089 .1400655 .1694336 .10864258 .1961263 .07722982 .23095703 .061523439 .27392579 .061523439 .308431 .061523439 .3372396 .07206217 .36035157 .09313965 .38346354 .114217128 .39811198 .14664714 .40429688 .19042969Z"/>
<path id="font_4_48" d="M.07421875 0V.7158203H.21679688L.38623048 .20898438C.40185548 .16178386 .4132487 .12646485 .42041017 .103027347 .4285482 .12906902 .4412435 .1673177 .4584961 .21777344L.6298828 .7158203H.7573242V0H.6660156V.5991211L.4580078 0H.3725586L.16552735 .609375V0H.07421875Z"/>
<path id="font_4_68" d="M.40429688 .06402588C.37174479 .03633626 .34041343 .016789755 .31030274 .0053863527 .28019206-.0060170495 .24788411-.01171875 .2133789-.01171875 .15641277-.01171875 .11263021 .0022074383 .08203125 .030059815 .051432294 .05791219 .036132814 .09350077 .036132814 .13682556 .036132814 .16222637 .04191081 .18542989 .053466798 .20643616 .06502279 .22745259 .08015951 .24431356 .09887695 .25701905 .1175944 .26972453 .13867188 .2793325 .16210938 .2858429 .17936199 .29041038 .20540364 .29480998 .24023438 .29904176 .3111979 .30744425 .363444 .3174642 .39697267 .32910157 .3972982 .34109498 .39746095 .3487142 .39746095 .35195924 .39746095 .38763429 .38916017 .4127655 .3725586 .4273529 .35009767 .44713847 .31673179 .45703126 .27246095 .45703126 .2311198 .45703126 .20060222 .44978843 .1809082 .43530274 .16121419 .42081706 .14664714 .39518229 .13720703 .35839845L.05126953 .3701172C.05908203 .40701295 .0719401 .43680827 .08984375 .45950318 .1077474 .4821981 .1336263 .4996643 .16748047 .51190188 .20133464 .5241496 .24055989 .53027346 .28515626 .53027346 .3294271 .53027346 .36539714 .5250651 .3930664 .51464846 .4207357 .50423178 .44108073 .49112956 .45410157 .4753418 .4671224 .45955406 .47623698 .43961589 .4814453 .41552735 .484375 .40055339 .48583985 .37353517 .48583985 .33447267V.21728516C.48583985 .13557942 .48771159 .08390299 .49145509 .06225586 .49519859 .040608724 .5026042 .019856772 .5136719 0H.421875C.4127604 .018249512 .40690104 .039591474 .40429688 .06402588M.39697267 .2607422C.36507163 .24760945 .31722007 .2364502 .25341798 .2272644 .21728516 .22203572 .19173177 .21615093 .17675781 .20960999 .16178386 .20307923 .15022786 .19351705 .14208985 .18092346 .13395183 .16834004 .12988281 .15436809 .12988281 .13900757 .12988281 .115478519 .13875325 .09586588 .15649414 .08016968 .17423503 .06448364 .20019531 .056640626 .234375 .056640626 .26822917 .056640626 .29833985 .064081829 .32470704 .07896423 .35107423 .09384664 .37044273 .11420695 .3828125 .14004517 .3922526 .16000366 .39697267 .18944295 .39697267 .22836304V.2607422Z"/>
<path id="font_4_81" d="M.06591797 0V.5185547H.14501953V.4453125C.18310547 .5019531 .23811849 .53027346 .3100586 .53027346 .3413086 .53027346 .3700358 .5246582 .39624024 .51342776 .42244468 .50219729 .44205729 .48746745 .45507813 .46923829 .46809898 .45100913 .47721354 .42936198 .48242188 .40429688 .4856771 .38802085 .4873047 .35953776 .4873047 .31884767V0H.39941407V.31576539C.39941407 .35161338 .3959961 .37841798 .38916017 .3961792 .38232423 .41394044 .37019859 .42811585 .3527832 .43870545 .33536784 .44929505 .3149414 .45458985 .2915039 .45458985 .254069 .45458985 .22176107 .44269309 .19458008 .41889955 .1673991 .39511619 .1538086 .34998576 .1538086 .2835083V0H.06591797Z"/>
<path id="font_4_74" d="M.049804689-.04296875 .1352539-.055664064C.13883464-.08203125 .14876302-.10123698 .16503906-.11328125 .18684896-.1295573 .21663411-.13769531 .25439454-.13769531 .29508464-.13769531 .3264974-.12953694 .3486328-.113220218 .37076823-.09691366 .3857422-.07407633 .3935547-.044708253 .39811198-.026774088 .40022788 .010904948 .39990235 .06832886 .36149089 .022776286 .3136393 0 .25634767 0 .1850586 0 .12988281 .025716147 .09082031 .07714844 .051757814 .12858074 .032226564 .19026692 .032226564 .26220704 .032226564 .3116862 .041178388 .35734049 .05908203 .39916993 .07698568 .44099937 .10294596 .47330729 .13696289 .49609376 .17097982 .5188802 .2109375 .53027346 .25683595 .53027346 .31803385 .53027346 .3684896 .5053711 .40820313 .4555664V.5185547H.4892578V.070007327C.4892578-.010772705 .48103843-.06801859 .4645996-.10173035 .4481608-.1354421 .42211915-.16206868 .3864746-.1816101 .35083009-.2011617 .30696617-.2109375 .2548828-.2109375 .19303386-.2109375 .1430664-.19698079 .10498047-.16906739 .06689453-.14115398 .048502607-.099121097 .049804689-.04296875M.122558597 .26853944C.122558597 .20067851 .1360677 .15116374 .16308594 .11999512 .19010417 .0888265 .22395833 .07324219 .26464845 .07324219 .30501304 .07324219 .3388672 .08874512 .36621095 .11975098 .3935547 .15075684 .40722657 .19938152 .40722657 .265625 .40722657 .3289388 .3931478 .3766683 .36499024 .40881349 .33683268 .44095866 .30289714 .45703126 .2631836 .45703126 .2241211 .45703126 .19091797 .4412028 .16357422 .4095459 .13623047 .377889 .122558597 .33088685 .122558597 .26853944Z"/>
<clipPath id="clip_5">
<path transform="matrix(.24,0,0,.24,1.68,31.199999)" d="M0 0H487V247H0Z" clip-rule="evenodd"/>
</clipPath>
<path id="font_4_16" d="M.03173828 .21484375V.30371095H.3017578V.21484375H.03173828Z"/>
<path id="font_4_3" d="M0 0Z"/>
<path id="font_4_80" d="M.06591797 0V.5185547H.14453125V.44628907C.1608073 .47153727 .18245442 .4918467 .20947266 .5072174 .23649089 .5225881 .2672526 .53027346 .3017578 .53027346 .34016929 .53027346 .37166343 .52233889 .39624024 .5064697 .42081706 .49061076 .43815104 .46843467 .4482422 .4399414 .4892578 .5001628 .54264327 .53027346 .60839846 .53027346 .65983077 .53027346 .69938156 .5160319 .7270508 .48754884 .75472006 .45906578 .7685547 .4152018 .7685547 .35595704V0H.68115237V.3270111C.68115237 .36220805 .678304 .38754273 .6726074 .40301515 .6669108 .4184977 .6565755 .43096415 .64160159 .44041444 .6266276 .44986473 .6090495 .45458985 .5888672 .45458985 .5524089 .45458985 .52213546 .44244895 .49804688 .4181671 .47395835 .39389549 .46191407 .3550364 .46191407 .30158998V0H.37402345V.33728028C.37402345 .37638346 .36686198 .40571086 .35253907 .42526246 .33821617 .44481407 .31477867 .45458985 .28222657 .45458985 .25748698 .45458985 .23461914 .44806925 .21362305 .43502809 .19262696 .42199708 .17740886 .40293376 .16796875 .37783814 .15852864 .3527527 .1538086 .31658427 .1538086 .2693329V0H.06591797Z"/>
<path id="font_4_92" d="M.06201172-.20019531 .052246095-.11767578C.07145182-.12288412 .08821615-.12548828 .10253906-.12548828 .12207031-.12548828 .13769531-.12219238 .14941406-.115600589 .16113281-.10901896 .17073567-.09979757 .17822266-.0879364 .18375652-.079045619 .19270833-.056981405 .20507813-.021743775 .20670574-.016799927 .20930989-.009552002 .21289063 0L.016113282 .5185547H.110839847L.21875 .21896363C.23274739 .18095906 .24527996 .14101155 .25634767 .099121097 .2664388 .13939412 .27848307 .1786906 .29248048 .2170105L.4033203 .5185547H.49121095L.2939453-.009140015C.27278648-.06614685 .25634767-.105397548 .2446289-.12689209 .2290039-.15588379 .21110027-.17713928 .19091797-.19065857 .17073567-.20417786 .14664714-.2109375 .118652347-.2109375 .10172526-.2109375 .082845058-.20735677 .06201172-.20019531Z"/>
<path id="font_4_73" d="M.08691406 0V.4501953H.009277344V.5185547H.08691406V.5736084C.08691406 .6083577 .09000651 .6341756 .096191409 .651062 .104654949 .6737874 .11954752 .69221499 .14086914 .7063446 .16219075 .72047427 .1920573 .72753909 .23046875 .72753909 .25520835 .72753909 .2825521 .7246094 .3125 .71875L.2993164 .64208987C.28108726 .64534506 .26383464 .64697268 .2475586 .64697268 .22086589 .64697268 .20198567 .6412964 .19091797 .62994387 .17985027 .6185913 .1743164 .5973511 .1743164 .56622317V.5185547H.27539063V.4501953H.1743164V0H.08691406Z"/>
<path id="font_4_76" d="M.06640625 .6142578V.7158203H.15429688V.6142578H.06640625M.06640625 0V.5185547H.15429688V0H.06640625Z"/>
<path id="font_4_79" d="M.063964847 0V.7158203H.15185547V0H.063964847Z"/>
<path id="font_4_17" d="M.09082031 0V.10058594H.19091797V0H.09082031Z"/>
<clipPath id="clip_6">
<path transform="matrix(.24,0,0,.24,1.68,88.799999)" d="M0 0H487V245H0Z" clip-rule="evenodd"/>
</clipPath>
<path id="font_4_14" d="M.25048829 .11621094V.31152345H.055664064V.39453126H.25048829V.5888672H.3334961V.39453126H.5283203V.31152345H.3334961V.11621094H.25048829Z"/>
<path id="font_4_97" d="M.04248047 .27246095V.37304688C.07698568 .41210938 .12223307 .43164063 .17822266 .43164063 .1977539 .43164063 .21826172 .42879234 .2397461 .4230957 .26123048 .41739909 .29182945 .40608726 .33154298 .38916017 .3540039 .37972007 .3708496 .37353517 .38208009 .37060548 .39331056 .36767579 .4046224 .36621095 .41601563 .36621095 .43717448 .36621095 .45906578 .37251283 .48168946 .38511659 .5043132 .39772035 .52441409 .41355387 .5419922 .4326172V.32910157C.5211589 .3095703 .50008139 .29541017 .47875978 .2866211 .45743815 .27783204 .433431 .2734375 .40673829 .2734375 .38720704 .2734375 .36857096 .27571617 .35083009 .28027345 .3330892 .28483073 .30493165 .2957357 .26635743 .31298829 .2277832 .33024089 .19563802 .3388672 .16992188 .3388672 .14908855 .3388672 .1294759 .33439128 .111083988 .32543946 .092692058 .31648765 .06982422 .29882813 .04248047 .27246095Z"/>
</defs>
<g>
<g clip-path="url(#clip_1)">
<path transform="matrix(.7197943,0,0,.7197943,0,0)" d="M0 0H389V205H0Z" fill="#ffffff"/>
</g>
<g clip-path="url(#clip_2)">
<g opacity=".2471">
<g clip-path="url(#clip_3)">
<path transform="matrix(.7197943,0,0,.7197943,1.7994857,2.5192798)" d="M1 1H161V41H1Z"/>
<path transform="matrix(.7197943,0,0,.7197943,1.7994857,2.5192798)" stroke-width="1" stroke-linecap="butt" stroke-miterlimit="4" stroke-linejoin="miter" fill="none" stroke="#000000" d="M1 1H161V41H1Z"/>
</g>
</g>
<path transform="matrix(.7197943,0,0,.7197943,.35989715,.35989715)" d="M1 1H161V41H1Z" fill="#fff2cc"/>
<path transform="matrix(.7197943,0,0,.7197943,.35989715,.35989715)" stroke-width="1" stroke-linecap="butt" stroke-miterlimit="4" stroke-linejoin="miter" fill="none" stroke="#d6b656" d="M1 1H161V41H1Z"/>
<use data-text="R" xlink:href="#font_4_53" transform="matrix(11.516708,0,0,-11.516708,10.931875,19.434445)"/>
<use data-text="e" xlink:href="#font_4_72" transform="matrix(11.516708,0,0,-11.516708,19.24694,19.434445)"/>
<use data-text="s" xlink:href="#font_4_86" transform="matrix(11.516708,0,0,-11.516708,25.65023,19.434445)"/>
<use data-text="o" xlink:href="#font_4_82" transform="matrix(11.516708,0,0,-11.516708,31.408585,19.434445)"/>
<use data-text="u" xlink:href="#font_4_88" transform="matrix(11.516708,0,0,-11.516708,37.811876,19.434445)"/>
<use data-text="r" xlink:href="#font_4_85" transform="matrix(11.516708,0,0,-11.516708,44.215166,19.434445)"/>
<use data-text="c" xlink:href="#font_4_70" transform="matrix(11.516708,0,0,-11.516708,48.05023,19.434445)"/>
<use data-text="e" xlink:href="#font_4_72" transform="matrix(11.516708,0,0,-11.516708,53.808584,19.434445)"/>
<use data-text="M" xlink:href="#font_4_48" transform="matrix(11.516708,0,0,-11.516708,60.211874,19.434445)"/>
<use data-text="a" xlink:href="#font_4_68" transform="matrix(11.516708,0,0,-11.516708,69.8053,19.434445)"/>
<use data-text="n" xlink:href="#font_4_81" transform="matrix(11.516708,0,0,-11.516708,76.20859,19.434445)"/>
<use data-text="a" xlink:href="#font_4_68" transform="matrix(11.516708,0,0,-11.516708,82.61188,19.434445)"/>
<use data-text="g" xlink:href="#font_4_74" transform="matrix(11.516708,0,0,-11.516708,89.015178,19.434445)"/>
<use data-text="e" xlink:href="#font_4_72" transform="matrix(11.516708,0,0,-11.516708,95.418468,19.434445)"/>
<use data-text="r" xlink:href="#font_4_85" transform="matrix(11.516708,0,0,-11.516708,101.821758,19.434445)"/>
<g opacity=".2471">
<g clip-path="url(#clip_5)">
<path transform="matrix(.7197943,0,0,.7197943,1.7994857,2.5192795)" d="M1 41H161V121H1Z"/>
<path transform="matrix(.7197943,0,0,.7197943,1.7994857,2.5192795)" stroke-width="1" stroke-linecap="butt" stroke-miterlimit="4" stroke-linejoin="miter" fill="none" stroke="#000000" d="M1 41H161V121H1Z"/>
</g>
</g>
<path transform="matrix(.7197943,0,0,.7197943,.35989715,.35989715)" d="M1 41H161V121H1Z" fill="#fff2cc"/>
<path transform="matrix(.7197943,0,0,.7197943,.35989715,.35989715)" stroke-width="1" stroke-linecap="butt" stroke-miterlimit="4" stroke-linejoin="miter" fill="none" stroke="#d6b656" d="M1 41H161V121H1Z"/>
<use data-text="-" xlink:href="#font_4_16" transform="matrix(10.07712,0,0,-10.07712,7.917737,49.665807)"/>
<use data-text=" " xlink:href="#font_4_3" transform="matrix(10.07712,0,0,-10.07712,11.273418,49.665807)"/>
<use data-text="m" xlink:href="#font_4_80" transform="matrix(10.07712,0,0,-10.07712,14.074858,49.665807)"/>
<use data-text="e" xlink:href="#font_4_72" transform="matrix(10.07712,0,0,-10.07712,22.469099,49.665807)"/>
<use data-text="m" xlink:href="#font_4_80" transform="matrix(10.07712,0,0,-10.07712,28.07198,49.665807)"/>
<use data-text="o" xlink:href="#font_4_82" transform="matrix(10.07712,0,0,-10.07712,36.46622,49.665807)"/>
<use data-text="r" xlink:href="#font_4_85" transform="matrix(10.07712,0,0,-10.07712,42.0691,49.665807)"/>
<use data-text="y" xlink:href="#font_4_92" transform="matrix(10.07712,0,0,-10.07712,45.424779,49.665807)"/>
<use data-text="-" xlink:href="#font_4_16" transform="matrix(10.07712,0,0,-10.07712,7.917737,61.182516)"/>
<use data-text=" " xlink:href="#font_4_3" transform="matrix(10.07712,0,0,-10.07712,11.273418,61.182516)"/>
<use data-text="f" xlink:href="#font_4_73" transform="matrix(10.07712,0,0,-10.07712,14.074858,61.182516)"/>
<use data-text="i" xlink:href="#font_4_76" transform="matrix(10.07712,0,0,-10.07712,16.876297,61.182516)"/>
<use data-text="l" xlink:href="#font_4_79" transform="matrix(10.07712,0,0,-10.07712,19.113419,61.182516)"/>
<use data-text="e" xlink:href="#font_4_72" transform="matrix(10.07712,0,0,-10.07712,21.350539,61.182516)"/>
<use data-text="-" xlink:href="#font_4_16" transform="matrix(10.07712,0,0,-10.07712,7.917737,72.69922)"/>
<use data-text=" " xlink:href="#font_4_3" transform="matrix(10.07712,0,0,-10.07712,11.273418,72.69922)"/>
<use data-text="." xlink:href="#font_4_17" transform="matrix(10.07712,0,0,-10.07712,14.074858,72.69922)"/>
<use data-text="." xlink:href="#font_4_17" transform="matrix(10.07712,0,0,-10.07712,16.876297,72.69922)"/>
<use data-text="." xlink:href="#font_4_17" transform="matrix(10.07712,0,0,-10.07712,19.677737,72.69922)"/>
<g opacity=".2471">
<g clip-path="url(#clip_6)">
<path transform="matrix(.7197943,0,0,.7197943,1.7994857,2.5192795)" d="M1 121H161V201H1Z"/>
<path transform="matrix(.7197943,0,0,.7197943,1.7994857,2.5192795)" stroke-width="1" stroke-linecap="butt" stroke-miterlimit="4" stroke-linejoin="miter" fill="none" stroke="#000000" d="M1 121H161V201H1Z"/>
</g>
</g>
<path transform="matrix(.7197943,0,0,.7197943,.35989715,.35989715)" d="M1 121H161V201H1Z" fill="#fff2cc"/>
<path transform="matrix(.7197943,0,0,.7197943,.35989715,.35989715)" stroke-width="1" stroke-linecap="butt" stroke-miterlimit="4" stroke-linejoin="miter" fill="none" stroke="#d6b656" d="M1 121H161V201H1Z"/>
<use data-text="+" xlink:href="#font_4_14" transform="matrix(10.07712,0,0,-10.07712,7.917737,107.249347)"/>
<use data-text=" " xlink:href="#font_4_3" transform="matrix(10.07712,0,0,-10.07712,13.802775,107.249347)"/>
<use data-text="R" xlink:href="#font_4_53" transform="matrix(10.07712,0,0,-10.07712,16.604216,107.249347)"/>
<use data-text="e" xlink:href="#font_4_72" transform="matrix(10.07712,0,0,-10.07712,23.879897,107.249347)"/>
<use data-text="s" xlink:href="#font_4_86" transform="matrix(10.07712,0,0,-10.07712,29.482775,107.249347)"/>
<use data-text="o" xlink:href="#font_4_82" transform="matrix(10.07712,0,0,-10.07712,34.521337,107.249347)"/>
<use data-text="u" xlink:href="#font_4_88" transform="matrix(10.07712,0,0,-10.07712,40.124216,107.249347)"/>
<use data-text="r" xlink:href="#font_4_85" transform="matrix(10.07712,0,0,-10.07712,45.727094,107.249347)"/>
<use data-text="c" xlink:href="#font_4_70" transform="matrix(10.07712,0,0,-10.07712,49.082777,107.249347)"/>
<use data-text="e" xlink:href="#font_4_72" transform="matrix(10.07712,0,0,-10.07712,54.121335,107.249347)"/>
<use data-text="M" xlink:href="#font_4_48" transform="matrix(10.07712,0,0,-10.07712,59.724218,107.249347)"/>
<use data-text="a" xlink:href="#font_4_68" transform="matrix(10.07712,0,0,-10.07712,68.118457,107.249347)"/>
<use data-text="n" xlink:href="#font_4_81" transform="matrix(10.07712,0,0,-10.07712,73.72134,107.249347)"/>
<use data-text="a" xlink:href="#font_4_68" transform="matrix(10.07712,0,0,-10.07712,79.32422,107.249347)"/>
<use data-text="g" xlink:href="#font_4_74" transform="matrix(10.07712,0,0,-10.07712,84.9271,107.249347)"/>
<use data-text="e" xlink:href="#font_4_72" transform="matrix(10.07712,0,0,-10.07712,90.52998,107.249347)"/>
<use data-text="r" xlink:href="#font_4_85" transform="matrix(10.07712,0,0,-10.07712,96.132869,107.249347)"/>
<use data-text="+" xlink:href="#font_4_14" transform="matrix(10.07712,0,0,-10.07712,7.917737,118.76605)"/>
<use data-text=" " xlink:href="#font_4_3" transform="matrix(10.07712,0,0,-10.07712,13.802775,118.76605)"/>
<use data-text="~" xlink:href="#font_4_97" transform="matrix(10.07712,0,0,-10.07712,16.604216,118.76605)"/>
<use data-text="R" xlink:href="#font_4_53" transform="matrix(10.07712,0,0,-10.07712,22.489254,118.76605)"/>
<use data-text="e" xlink:href="#font_4_72" transform="matrix(10.07712,0,0,-10.07712,29.764935,118.76605)"/>
<use data-text="s" xlink:href="#font_4_86" transform="matrix(10.07712,0,0,-10.07712,35.367815,118.76605)"/>
<use data-text="o" xlink:href="#font_4_82" transform="matrix(10.07712,0,0,-10.07712,40.406373,118.76605)"/>
<use data-text="u" xlink:href="#font_4_88" transform="matrix(10.07712,0,0,-10.07712,46.00925,118.76605)"/>
<use data-text="r" xlink:href="#font_4_85" transform="matrix(10.07712,0,0,-10.07712,51.61213,118.76605)"/>
<use data-text="c" xlink:href="#font_4_70" transform="matrix(10.07712,0,0,-10.07712,54.96781,118.76605)"/>
<use data-text="e" xlink:href="#font_4_72" transform="matrix(10.07712,0,0,-10.07712,60.006376,118.76605)"/>
<use data-text="M" xlink:href="#font_4_48" transform="matrix(10.07712,0,0,-10.07712,65.60925,118.76605)"/>
<use data-text="a" xlink:href="#font_4_68" transform="matrix(10.07712,0,0,-10.07712,74.003498,118.76605)"/>
<use data-text="n" xlink:href="#font_4_81" transform="matrix(10.07712,0,0,-10.07712,79.60638,118.76605)"/>
<use data-text="a" xlink:href="#font_4_68" transform="matrix(10.07712,0,0,-10.07712,85.20926,118.76605)"/>
<use data-text="g" xlink:href="#font_4_74" transform="matrix(10.07712,0,0,-10.07712,90.81214,118.76605)"/>
<use data-text="e" xlink:href="#font_4_72" transform="matrix(10.07712,0,0,-10.07712,96.41502,118.76605)"/>
<use data-text="r" xlink:href="#font_4_85" transform="matrix(10.07712,0,0,-10.07712,102.0179,118.76605)"/>
<use data-text="+" xlink:href="#font_4_14" transform="matrix(10.07712,0,0,-10.07712,7.917737,130.28276)"/>
<use data-text=" " xlink:href="#font_4_3" transform="matrix(10.07712,0,0,-10.07712,13.802775,130.28276)"/>
<use data-text="." xlink:href="#font_4_17" transform="matrix(10.07712,0,0,-10.07712,16.604216,130.28276)"/>
<use data-text="." xlink:href="#font_4_17" transform="matrix(10.07712,0,0,-10.07712,19.405655,130.28276)"/>
<use data-text="." xlink:href="#font_4_17" transform="matrix(10.07712,0,0,-10.07712,22.207095,130.28276)"/>
<path transform="matrix(.7197943,0,0,.7197943,.35989715,.35989715)" d="M281 11V19.74C283.25 20.06 284.92 21.97 284.93 24.23 284.92 26.49 283.25 28.41 281 28.72V50.36H288.08V61H329.93L329.96 60.02C329.96 58.75 330.3 57.8 330.86 57.2 331.42 56.56 332.24 56.19 333.59 56.19 334.97 56.19 335.82 56.64 336.43 57.3 337.01 57.99 337.33 58.94 337.33 60V61H379.18V50.36H386.26V28.7C384.11 28.29 382.55 26.42 382.55 24.23 382.55 22.05 384.11 20.18 386.26 19.77V11H281Z" fill="#005f4b"/>
<path transform="matrix(.7197943,0,0,.7197943,.35989715,.35989715)" d="M290.07 50.36H377.19V59.02H338.97C338.81 57.94 338.66 56.85 337.91 56.01 336.96 54.9 335.45 54.21 333.59 54.21 331.84 54.21 330.35 54.79 329.4 55.85 328.66 56.67 328.47 57.86 328.29 59.02H290.07V50.36ZM363.98 25.32V36.01H372.07V25.32H363.98ZM345.15 25.32V36.01H353.24V25.32H345.15ZM314.02 25.32V36.01H322.11V25.32H314.02ZM295.19 25.32V36.01H303.28V25.32H295.19ZM361.99 23.33H374.06V37.99H361.99V23.33ZM343.16 23.33H355.23V37.99H343.16V23.33ZM312.03 23.33H324.1V37.99H312.03V23.33ZM293.2 23.33H305.27V37.99H293.2V23.33Z" fill="#ffffff"/>
<path transform="matrix(.7197943,0,0,.7197943,.35989715,.35989715)" d="M281 96.76C281.35 93.72 283.73 91.33 286.73 91H318.64L328.5 100.95V134.79C328.33 138.12 325.73 140.79 322.45 141H286.73C283.77 140.68 281.41 138.37 281 135.38V96.76ZM284.88 134.48C284.88 135.69 285.72 136.72 286.88 136.96H322.53C323.66 136.7 324.47 135.67 324.47 134.48V103.27H316.5V95.09H286.88C285.81 95.36 285.04 96.3 284.98 97.41L284.88 134.48ZM293.45 107.01H315.45V111.15H293.45V107.01ZM293.45 114.89H315.45V119.03H293.45V114.89ZM293.45 122.77H315.45V126.96H293.45V122.77Z" fill="#00bef2"/>
<path transform="matrix(.7197943,0,0,.7197943,.35989715,.35989715)" stroke-width="1" stroke-linecap="butt" stroke-miterlimit="10" stroke-linejoin="miter" fill="none" stroke="#0000ff" d="M161 66.75 274.73 46.49"/>
<path transform="matrix(.7197943,0,0,.7197943,.35989715,.35989715)" d="M279.9 45.57 273.62 50.24 274.73 46.49 272.39 43.35 279.9 45.57Z" fill="#0000ff"/>
<path transform="matrix(.7197943,0,0,.7197943,.35989715,.35989715)" stroke-width="1" stroke-linecap="butt" stroke-miterlimit="10" stroke-linejoin="miter" fill="none" stroke="#0000ff" d="M279.9 45.57 273.62 50.24 274.73 46.49 272.39 43.35 279.9 45.57Z"/>
<path transform="matrix(.7197943,0,0,.7197943,.35989715,.35989715)" stroke-width="1" stroke-linecap="butt" stroke-miterlimit="10" stroke-linejoin="miter" fill="none" stroke="#0000ff" d="M161 93.51 274.71 111.3"/>
<path transform="matrix(.7197943,0,0,.7197943,.35989715,.35989715)" d="M279.9 112.11 272.44 114.49 274.71 111.3 273.52 107.57 279.9 112.11Z" fill="#0000ff"/>
<path transform="matrix(.7197943,0,0,.7197943,.35989715,.35989715)" stroke-width="1" stroke-linecap="butt" stroke-miterlimit="10" stroke-linejoin="miter" fill="none" stroke="#0000ff" d="M279.9 112.11 272.44 114.49 274.71 111.3 273.52 107.57 279.9 112.11Z"/>
</g>
</g>
</svg>
