<svg xmlns="http://www.w3.org/2000/svg" xmlns:xlink="http://www.w3.org/1999/xlink" xmlns:inkscape="http://www.inkscape.org/namespaces/inkscape" version="1.1" width="432.96" height="154.08" viewBox="0 0 432.96 154.08">
<defs>
<clipPath id="clip_1">
<path transform="matrix(.24,0,0,.24,0,0)" d="M0 0H1804.1666V640.28469H0Z" clip-rule="evenodd"/>
</clipPath>
<clipPath id="clip_2">
<path transform="matrix(.24,0,0,.24,0,0)" d="M0 0H1804.1666V634.30068H0Z" clip-rule="evenodd"/>
</clipPath>
<path id="font_3_75" d="M.06591797 0V.7158203H.1538086V.45898438C.19482422 .50651046 .24658203 .53027346 .30908204 .53027346 .3474935 .53027346 .38085938 .5227051 .4091797 .50756838 .4375 .49243165 .45776368 .47151695 .4699707 .44482423 .48217774 .4181315 .48828126 .37939454 .48828126 .32861329V0H.40039063V.32861329C.40039063 .3725586 .39086915 .40454103 .37182618 .42456056 .3527832 .44458009 .32584635 .45458985 .29101563 .45458985 .26497398 .45458985 .24047852 .4478353 .2175293 .43432618 .19458008 .42081706 .17822266 .4025065 .16845703 .37939454 .1586914 .35628257 .1538086 .3243815 .1538086 .2836914V0H.06591797Z"/>
<path id="font_3_68" d="M.40429688 .06402588C.37174479 .03633626 .34041343 .016789755 .31030274 .0053863527 .28019206-.0060170495 .24788411-.01171875 .2133789-.01171875 .15641277-.01171875 .11263021 .0022074383 .08203125 .030059815 .051432294 .05791219 .036132814 .09350077 .036132814 .13682556 .036132814 .16222637 .04191081 .18542989 .053466798 .20643616 .06502279 .22745259 .08015951 .24431356 .09887695 .25701905 .1175944 .26972453 .13867188 .2793325 .16210938 .2858429 .17936199 .29041038 .20540364 .29480998 .24023438 .29904176 .3111979 .30744425 .363444 .3174642 .39697267 .32910157 .3972982 .34109498 .39746095 .3487142 .39746095 .35195924 .39746095 .38763429 .38916017 .4127655 .3725586 .4273529 .35009767 .44713847 .31673179 .45703126 .27246095 .45703126 .2311198 .45703126 .20060222 .44978843 .1809082 .43530274 .16121419 .42081706 .14664714 .39518229 .13720703 .35839845L.05126953 .3701172C.05908203 .40701295 .0719401 .43680827 .08984375 .45950318 .1077474 .4821981 .1336263 .4996643 .16748047 .51190188 .20133464 .5241496 .24055989 .53027346 .28515626 .53027346 .3294271 .53027346 .36539714 .5250651 .3930664 .51464846 .4207357 .50423178 .44108073 .49112956 .45410157 .4753418 .4671224 .45955406 .47623698 .43961589 .4814453 .41552735 .484375 .40055339 .48583985 .37353517 .48583985 .33447267V.21728516C.48583985 .13557942 .48771159 .08390299 .49145509 .06225586 .49519859 .040608724 .5026042 .019856772 .5136719 0H.421875C.4127604 .018249512 .40690104 .039591474 .40429688 .06402588M.39697267 .2607422C.36507163 .24760945 .31722007 .2364502 .25341798 .2272644 .21728516 .22203572 .19173177 .21615093 .17675781 .20960999 .16178386 .20307923 .15022786 .19351705 .14208985 .18092346 .13395183 .16834004 .12988281 .15436809 .12988281 .13900757 .12988281 .115478519 .13875325 .09586588 .15649414 .08016968 .17423503 .06448364 .20019531 .056640626 .234375 .056640626 .26822917 .056640626 .29833985 .064081829 .32470704 .07896423 .35107423 .09384664 .37044273 .11420695 .3828125 .14004517 .3922526 .16000366 .39697267 .18944295 .39697267 .22836304V.2607422Z"/>
<path id="font_3_86" d="M.030761719 .15527344 .11767578 .16894531C.122558597 .13426717 .1361491 .107691448 .15844727 .08921814 .18074544 .070755008 .21191406 .061523439 .25195313 .061523439 .29231773 .061523439 .32226563 .06967672 .34179688 .08598328 .36132813 .10230001 .37109376 .12143453 .37109376 .14338684 .37109376 .16309102 .36246745 .17859395 .34521485 .18989563 .33317057 .1976471 .30322267 .20749919 .2553711 .2194519 .19091797 .23573812 .14624024 .24982707 .12133789 .26171876 .09643555 .27361045 .077555339 .29006449 .064697269 .31108094 .05183919 .33209739 .045410158 .35531108 .045410158 .38072206 .045410158 .40385438 .05069987 .4252777 .061279298 .44499208 .07185873 .46470643 .08626302 .4810791 .10449219 .4941101 .11816406 .5042114 .13680013 .5127614 .16040039 .51976016 .18400066 .526769 .20930989 .53027346 .23632813 .53027346 .27701823 .53027346 .31274415 .52437338 .34350587 .51257327 .37426759 .50078329 .39697267 .48480735 .4116211 .4646454 .42626954 .44449363 .4363607 .4175415 .44189454 .38378907L.35595704 .3720703C.35205079 .39876304 .34073893 .41959635 .32202149 .4345703 .30330406 .44954429 .27685548 .45703126 .24267578 .45703126 .2023112 .45703126 .17350261 .45038859 .15625 .43710328 .13899739 .42382813 .1303711 .40827943 .1303711 .39045716 .1303711 .37912498 .13395183 .3689219 .14111328 .35984803 .14827474 .35045878 .1595052 .34268699 .17480469 .3365326 .18359375 .33328758 .20947266 .32583619 .2524414 .31417848 .31461589 .29758708 .35799156 .28400675 .38256837 .2734375 .40714518 .26286827 .42643229 .24749756 .4404297 .22732544 .4544271 .2071635 .46142579 .18212383 .46142579 .15220642 .46142579 .12292989 .45288087 .09536234 .43579103 .069503787 .41870118 .043655397 .39404298 .02365621 .3618164 .009506226 .32958985-.0046437585 .2931315-.01171875 .2524414-.01171875 .1850586-.01171875 .13370769 .002319336 .09838867 .030395508 .063069667 .05847168 .040527345 .100097659 .030761719 .15527344Z"/>
<path id="font_3_80" d="M.06591797 0V.5185547H.14453125V.44628907C.1608073 .47153727 .18245442 .4918467 .20947266 .5072174 .23649089 .5225881 .2672526 .53027346 .3017578 .53027346 .34016929 .53027346 .37166343 .52233889 .39624024 .5064697 .42081706 .49061076 .43815104 .46843467 .4482422 .4399414 .4892578 .5001628 .54264327 .53027346 .60839846 .53027346 .65983077 .53027346 .69938156 .5160319 .7270508 .48754884 .75472006 .45906578 .7685547 .4152018 .7685547 .35595704V0H.68115237V.3270111C.68115237 .36220805 .678304 .38754273 .6726074 .40301515 .6669108 .4184977 .6565755 .43096415 .64160159 .44041444 .6266276 .44986473 .6090495 .45458985 .5888672 .45458985 .5524089 .45458985 .52213546 .44244895 .49804688 .4181671 .47395835 .39389549 .46191407 .3550364 .46191407 .30158998V0H.37402345V.33728028C.37402345 .37638346 .36686198 .40571086 .35253907 .42526246 .33821617 .44481407 .31477867 .45458985 .28222657 .45458985 .25748698 .45458985 .23461914 .44806925 .21362305 .43502809 .19262696 .42199708 .17740886 .40293376 .16796875 .37783814 .15852864 .3527527 .1538086 .31658427 .1538086 .2693329V0H.06591797Z"/>
<path id="font_3_72" d="M.42089845 .16699219 .51171877 .15576172C.49739585 .10270182 .47086589 .061523439 .4321289 .032226564 .39339195 .0029296876 .34391276-.01171875 .2836914-.01171875 .20784505-.01171875 .14770508 .01163737 .103271488 .05834961 .05883789 .10506185 .036621095 .17057292 .036621095 .2548828 .036621095 .3421224 .05908203 .40983073 .104003909 .4580078 .14892578 .5061849 .20719402 .53027346 .2788086 .53027346 .34814454 .53027346 .40478517 .5067088 .44873048 .45957948 .49267579 .41246034 .51464846 .34616599 .51464846 .2606964 .51464846 .25549827 .51448568 .247701 .51416018 .23730469H.1274414C.13069661 .1805013 .14680989 .13700359 .17578125 .10681152 .20475261 .07661947 .24088542 .061523439 .2841797 .061523439 .31640626 .061523439 .34391276 .0699056 .36669923 .08666992 .3894857 .10344442 .4075521 .1302185 .42089845 .16699219M.13232422 .31054688H.421875C.41796876 .3534546 .40690104 .38563539 .38867188 .40708924 .3606771 .4403839 .3243815 .45703126 .27978517 .45703126 .23942058 .45703126 .20548503 .44374085 .17797852 .41716004 .150472 .3905894 .1352539 .35505168 .13232422 .31054688Z"/>
<path id="font_3_69" d="M.14697266 0H.06542969V.7158203H.15332031V.45950318C.19042969 .50668337 .23779297 .53027346 .29541017 .53027346 .3273112 .53027346 .35750328 .5238444 .38598634 .5109863 .4144694 .49812828 .4379069 .48006187 .45629884 .4567871 .47469078 .43351237 .48909507 .4054362 .49951173 .3725586 .5099284 .339681 .5151367 .30452476 .5151367 .26708985 .5151367 .17822266 .49316407 .10953776 .44921876 .061035158 .40527345 .012532552 .35253907-.01171875 .29101563-.01171875 .2298177-.01171875 .18180339 .014160156 .14697266 .06591797V0M.1459961 .26316834C.1459961 .20129903 .15445964 .15659587 .17138672 .12905884 .19905599 .08403524 .23649089 .061523439 .2836914 .061523439 .32210288 .061523439 .355306 .078125 .38330079 .111328128 .41129557 .14453125 .42529298 .19401042 .42529298 .25976563 .42529298 .32713828 .41186524 .37685649 .38500978 .4089203 .3581543 .44099427 .3256836 .45703126 .28759767 .45703126 .2491862 .45703126 .21598308 .4404297 .18798828 .40722657 .15999349 .37402345 .1459961 .32600404 .1459961 .26316834Z"/>
<path id="font_3_85" d="M.064941409 0V.5185547H.14404297V.4404297C.16422527 .4770101 .18286133 .50112918 .19995117 .51278689 .21704102 .5244446 .23583985 .53027346 .25634767 .53027346 .28597007 .53027346 .31608073 .520874 .3466797 .5020752L.31640626 .42089845C.29492188 .43359376 .2734375 .4399414 .25195313 .4399414 .23274739 .4399414 .2154948 .43415324 .20019531 .4225769 .18489583 .41101075 .17399089 .3949636 .16748047 .37443543 .15771485 .3431549 .15283203 .3089396 .15283203 .27178956V0H.064941409Z"/>
<path id="font_4_54" d="M.036132814 .23242188 .17675781 .24609375C.18522136 .19872029 .20239258 .16392517 .22827149 .14170838 .2541504 .11950175 .2890625 .10839844 .3330078 .10839844 .37955729 .10839844 .41463218 .11827596 .43823243 .138031 .46183268 .15778606 .4736328 .18089295 .4736328 .20735169 .4736328 .22432964 .4686686 .23877461 .45874024 .25068666 .44881187 .26260887 .43147788 .27297975 .40673829 .28179933 .3898112 .28766886 .35123698 .29810588 .29101563 .31311036 .21354167 .33235679 .15917969 .3560079 .12792969 .38406373 .083984378 .4235331 .06201172 .47164408 .06201172 .5283966 .06201172 .56492617 .07234701 .5990906 .09301758 .6308899 .11368815 .6626994 .14347331 .68692019 .18237305 .70355227 .22127278 .7201945 .26822917 .7285156 .3232422 .7285156 .41308595 .7285156 .4807129 .70873007 .52612307 .66915896 .5715332 .62959799 .5953776 .5767924 .59765627 .5107422L.453125 .5048828C.4469401 .5416667 .43367515 .56811526 .41333009 .5842285 .39298503 .6003418 .36246745 .60839846 .32177735 .60839846 .27978517 .60839846 .24690755 .599767 .22314453 .5825043 .20784505 .5714366 .20019531 .5566203 .20019531 .5380554 .20019531 .52111819 .20735677 .5066274 .22167969 .49458314 .23990886 .47927348 .2841797 .4633026 .3544922 .44667054 .4248047 .43003846 .47680665 .41283164 .51049807 .39505006 .54418948 .37727867 .57055667 .35298158 .5895996 .3221588 .6086426 .29134623 .61816409 .25327049 .61816409 .20793152 .61816409 .16684468 .6067708 .12836202 .5839844 .09248352 .56119796 .056605024 .5289714 .029942831 .4873047 .012496948 .44563804-.004948934 .39371745-.013671875 .33154298-.013671875 .24104817-.013671875 .17154949 .007283529 .123046878 .049194337 .07454427 .09110514 .045572919 .15218099 .036132814 .23242188Z"/>
<path id="font_4_70" d="M.5239258 .36523438 .38867188 .3408203C.3841146 .36767579 .3737793 .38789878 .35766603 .40148927 .34155274 .41507975 .32063804 .421875 .29492188 .421875 .2607422 .421875 .23347982 .41011048 .21313477 .38658143 .19278972 .36305238 .18261719 .32370506 .18261719 .26853944 .18261719 .2071991 .19295247 .16386922 .21362305 .1385498 .23429363 .11324056 .26204429 .10058594 .296875 .10058594 .32291667 .10058594 .34423829 .10799154 .36083985 .122802738 .3774414 .13761394 .38916017 .16308594 .3959961 .19921875L.5307617 .17578125C.51676437 .11393229 .48990885 .067220058 .4501953 .03564453 .41048179 .0040690104 .35725913-.01171875 .29052735-.01171875 .21468099-.01171875 .1542155 .012207031 .10913086 .060058595 .06404623 .107910159 .041503908 .17415364 .041503908 .25878907 .041503908 .34440104 .0641276 .41105143 .109375 .45874024 .15462239 .506429 .21582031 .53027346 .29296876 .53027346 .35611979 .53027346 .4063314 .5166829 .44360353 .48950196 .48087565 .46232096 .5076497 .42089845 .5239258 .36523438Z"/>
<path id="font_4_75" d="M.2084961 .7158203V.4522705C.25276695 .50427249 .30566407 .53027346 .3671875 .53027346 .39876304 .53027346 .4272461 .52441409 .45263673 .5126953 .47802735 .50097659 .4971517 .4860026 .51000979 .46777345 .52286788 .44954429 .5316569 .42936198 .53637698 .40722657 .541097 .38509117 .54345706 .3507487 .54345706 .30419923V0H.40625V.27360536C.40625 .32790629 .40364585 .36237083 .3984375 .3769989 .39322917 .39163719 .3840332 .40326438 .3708496 .4118805 .35766603 .4204966 .34114585 .4248047 .32128907 .4248047 .2985026 .4248047 .27815757 .4192759 .2602539 .40821839 .24235027 .39716087 .22924805 .38049827 .22094727 .3582306 .21264649 .33596293 .2084961 .30303956 .2084961 .25946046V0H.07128906V.7158203H.2084961Z"/>
<path id="font_4_82" d="M.040039064 .26660157C.040039064 .31217448 .05126953 .35628257 .07373047 .39892579 .096191409 .441569 .12801107 .4741211 .16918946 .49658204 .21036785 .51904299 .25634767 .53027346 .3071289 .53027346 .38557945 .53027346 .44986979 .50480148 .5 .45385743 .5501302 .40291343 .5751953 .33854167 .5751953 .2607422 .5751953 .18229167 .54988607 .11726888 .49926759 .06567383 .44864909 .014078776 .38492839-.01171875 .30810548-.01171875 .26057945-.01171875 .21525066-.0009765625 .17211914 .020507813 .12898763 .041992189 .096191409 .07348633 .07373047 .114990238 .05126953 .15649414 .040039064 .20703125 .040039064 .26660157M.18066406 .25927735C.18066406 .20800781 .1928711 .16874187 .21728516 .14147949 .24169922 .114217128 .2718099 .10058594 .3076172 .10058594 .34342448 .10058594 .37345378 .114217128 .39770509 .14147949 .4219564 .16874187 .43408204 .20833333 .43408204 .2602539 .43408204 .3108724 .4219564 .34981285 .39770509 .3770752 .37345378 .40433757 .34342448 .41796876 .3076172 .41796876 .2718099 .41796876 .24169922 .40433757 .21728516 .3770752 .1928711 .34981285 .18066406 .31054688 .18066406 .25927735Z"/>
<path id="font_4_79" d="M.071777347 0V.7158203H.20898438V0H.071777347Z"/>
<path id="font_4_39" d="M.072265628 .7158203H.33642579C.3959961 .7158203 .44140626 .711263 .47265626 .70214846 .51464846 .6897786 .55061849 .66780599 .5805664 .63623049 .61051437 .60465499 .6333008 .5659993 .6489258 .5202637 .6645508 .47452799 .6723633 .4181315 .6723633 .35107423 .6723633 .29215495 .66503909 .2413737 .6503906 .19873047 .632487 .14664714 .6069336 .10449219 .57373049 .072265628 .54866537 .047851564 .5148112 .028808594 .47216798 .015136719 .44026695 .0050455729 .3976237 0 .34423829 0H.072265628V.7158203M.21679688 .59472659V.12109375H.32470704C.36507163 .12109375 .39420573 .1233724 .41210938 .12792969 .43554688 .13377889 .45499674 .14369202 .47045899 .15766907 .48592124 .1716563 .49853517 .19466655 .5083008 .22669983 .5180664 .25873313 .5229492 .30238853 .5229492 .35766603 .5229492 .4129435 .5180664 .4553782 .5083008 .4849701 .49853517 .51456198 .48486329 .5376485 .46728517 .55422976 .44970704 .5708211 .42740885 .58204147 .40039063 .5878906 .38020835 .59244796 .34065757 .59472659 .28173829 .59472659H.21679688Z"/>
<path id="font_4_72" d="M.3720703 .16503906 .50878909 .14160156C.49121095 .09163412 .4634603 .053588869 .4255371 .02746582 .38761393 .0013427734 .34016929-.01171875 .28320313-.01171875 .19303386-.01171875 .12630208 .017740885 .08300781 .076660159 .048828126 .12386068 .03173828 .18343099 .03173828 .2553711 .03173828 .3413086 .05419922 .40861003 .099121097 .4572754 .14404297 .50594076 .20084636 .53027346 .26953126 .53027346 .3466797 .53027346 .4075521 .50480148 .45214845 .45385743 .49674479 .40291343 .5180664 .32486979 .5161133 .21972656H.17236328C.17333985 .17903646 .18440755 .14737956 .2055664 .12475586 .22672527 .102132167 .25309245 .09082031 .28466798 .09082031 .30615235 .09082031 .32421876 .09667969 .3388672 .10839844 .35351563 .12011719 .36458335 .13899739 .3720703 .16503906M.3798828 .30371095C.37890626 .34326173 .36865235 .3733317 .3491211 .3939209 .32958985 .4145101 .3058268 .4248047 .27783204 .4248047 .24788411 .4248047 .22314453 .41394554 .20361328 .39222718 .18408203 .37049867 .17447917 .34099327 .17480469 .30371095H.3798828Z"/>
<path id="font_4_83" d="M.067871097 .5185547H.19580078V.4423828C.21240235 .46842448 .23486328 .48958335 .2631836 .5058594 .2915039 .52213546 .32291667 .53027346 .35742188 .53027346 .41764323 .53027346 .46875 .50667318 .5107422 .45947267 .5527344 .41227214 .57373049 .34651695 .57373049 .26220704 .57373049 .17561849 .5525716 .108317058 .5102539 .060302736 .4679362 .012288411 .41666667-.01171875 .3564453-.01171875 .32779948-.01171875 .3018392-.0060221354 .27856446 .0053710939 .2552897 .016764323 .23079427 .036295576 .20507813 .063964847V-.19726563H.067871097V.5185547M.20361328 .2682953C.20361328 .2101186 .21516927 .1671346 .23828125 .13934326 .26139323 .11155192 .28955079 .09765625 .3227539 .09765625 .35465495 .09765625 .3811849 .1104126 .40234376 .1359253 .4235026 .16143799 .43408204 .20328777 .43408204 .2614746 .43408204 .31575523 .4231771 .35605876 .4013672 .38238526 .37955729 .40871177 .35253907 .421875 .3203125 .421875 .28678385 .421875 .2589518 .4089559 .2368164 .38311769 .21468099 .35727946 .20361328 .31900535 .20361328 .2682953Z"/>
<path id="font_4_68" d="M.1743164 .35839845 .049804689 .38085938C.063802089 .4316508 .087890628 .46924845 .12207031 .49365235 .15625 .5180664 .20703125 .53027346 .27441407 .53027346 .33561198 .53027346 .3811849 .5230306 .4111328 .5085449 .44108073 .49405924 .4621582 .47566734 .47436524 .45336915 .48657228 .43107096 .49267579 .39013673 .49267579 .3305664L.49121095 .17041016C.49121095 .12483724 .4934082 .09122721 .49780274 .06958008 .50219729 .04793294 .5104167 .024739584 .52246096 0H.38671876C.38313804 .009114583 .3787435 .022623698 .37353517 .040527345 .3712565 .048665365 .3696289 .054036458 .36865235 .056640626 .34521485 .033854169 .32014976 .016764323 .29345704 .0053710939 .2667643-.0060221354 .23828125-.01171875 .20800781-.01171875 .15462239-.01171875 .11254883 .0027058919 .08178711 .031555177 .05102539 .06040446 .03564453 .09687296 .03564453 .1409607 .03564453 .1701355 .04264323 .19614665 .056640626 .21899414 .07063802 .2418518 .09025065 .25935874 .115478519 .2715149 .14070638 .28367106 .17708333 .2942861 .22460938 .30336 .28873698 .3153534 .33317057 .3265381 .35791017 .33691407V.35073854C.35791017 .37740074 .35139976 .39640809 .3383789 .40776063 .32535807 .41912333 .30078126 .4248047 .26464845 .4248047 .24023438 .4248047 .2211914 .41989137 .20751953 .4100647 .19384766 .4002482 .18277996 .38302613 .1743164 .35839845M.35791017 .24707031C.34033204 .24128215 .3125 .23436482 .27441407 .22631836 .23632813 .21828206 .21142578 .21040344 .19970703 .2026825 .18180339 .19013977 .17285156 .17421977 .17285156 .15492249 .17285156 .13594055 .18001302 .119532268 .19433594 .10569763 .20865886 .09187317 .22688802 .08496094 .24902344 .08496094 .27376304 .08496094 .29736329 .09300232 .31982423 .10908508 .33642579 .121302288 .34733073 .13626099 .35253907 .15396118 .35611979 .16553752 .35791017 .18756612 .35791017 .220047V.24707031Z"/>
<path id="font_4_85" d="M.203125 0H.06591797V.5185547H.19335938V.44482423C.21516927 .47965495 .2347819 .5026042 .25219728 .5136719 .26961265 .52473959 .28938804 .53027346 .31152345 .53027346 .34277345 .53027346 .37288413 .52164718 .40185548 .50439456L.359375 .38476563C.33626304 .3997396 .31477867 .40722657 .29492188 .40722657 .27571617 .40722657 .2594401 .40193687 .24609375 .39135743 .23274739 .38077799 .22224935 .36165367 .21459961 .33398438 .20694988 .3063151 .203125 .24837239 .203125 .16015625V0Z"/>
<path id="font_4_87" d="M.3095703 .5185547V.4091797H.21582031V.200531C.21582031 .15827434 .2167155 .13365174 .21850586 .12666321 .22029622 .11968485 .22436524 .11391703 .23071289 .10935974 .23706055 .10481262 .24479167 .10253906 .25390626 .10253906 .26660157 .10253906 .2849935 .106933597 .30908204 .115722659L.32080079 .008880615C.28889976-.004852295 .25276695-.01171875 .21240235-.01171875 .18766277-.01171875 .16536458-.0075683596 .14550781 .0007324219 .12565105 .009033203 .111083988 .01977539 .10180664 .032958986 .0925293 .046142579 .08610026 .063964847 .08251953 .08642578 .079589847 .102376308 .078125 .13460286 .078125 .18310547V.4091797H.015136719V.5185547H.078125V.6220703L.21582031 .703125V.5185547H.3095703Z"/>
<path id="font_4_80" d="M.061523439 .5185547H.18798828V.4477539C.23323567 .5027669 .28710938 .53027346 .34960938 .53027346 .3828125 .53027346 .4116211 .523407 .43603517 .5096741 .46044923 .49594117 .48046876 .47517396 .49609376 .44737245 .5188802 .47517396 .54345706 .49594117 .5698242 .5096741 .5961914 .523407 .62434896 .53027346 .6542969 .53027346 .6923828 .53027346 .7246094 .5225423 .75097659 .5070801 .77734377 .49161784 .7970378 .46891276 .8100586 .43896485 .8194987 .41682945 .82421877 .38102214 .82421877 .33154298V0H.6870117V.29605104C.6870117 .34742228 .6822917 .38058473 .67285159 .39553834 .66015627 .41504923 .640625 .4248047 .6142578 .4248047 .59505209 .4248047 .57698568 .4189504 .5600586 .40724183 .54313156 .39554344 .5309245 .37839256 .5234375 .35578919 .5159505 .333196 .51220706 .29751078 .51220706 .24873352V0H.375V.28385926C.375 .33425395 .3725586 .36676536 .36767579 .38139344 .36279298 .3960317 .3552246 .40692649 .3449707 .41407777 .3347168 .42122904 .32080079 .4248047 .30322267 .4248047 .2820638 .4248047 .26302085 .41911317 .24609375 .4077301 .22916667 .3963572 .21704102 .37993876 .2097168 .35847474 .20239258 .3370107 .19873047 .30140687 .19873047 .2516632V0H.061523439V.5185547Z"/>
<path id="font_4_81" d="M.54345706 0H.40625V.26434327C.40625 .32027183 .4033203 .3564453 .39746095 .37286378 .39160157 .38928224 .38208009 .40204368 .36889649 .41114808 .3557129 .42025248 .33984376 .4248047 .32128907 .4248047 .29752604 .4248047 .27620445 .41829936 .25732423 .4052887 .23844402 .3922882 .22550456 .37505595 .21850586 .35359193 .21150716 .33213807 .20800781 .2924703 .20800781 .23458863V0H.07080078V.5185547H.19824219V.4423828C.24348958 .50097659 .30045573 .53027346 .36914063 .53027346 .39941407 .53027346 .42708335 .524821 .45214845 .513916 .47721354 .50301107 .49617515 .48909507 .5090332 .47216798 .5218913 .45524089 .5308431 .43603517 .5358887 .41455079 .54093429 .3930664 .54345706 .3623047 .54345706 .32226563V0Z"/>
<path id="font_3_87" d="M.2578125 .07763672 .2705078 0C.24576824-.0045572917 .22363281-.0068359377 .20410156-.0068359377 .17220052-.0068359377 .14746094-.0017903646 .12988281 .008300781 .11230469 .018391928 .0999349 .031656904 .09277344 .048095704 .08561198 .06453451 .08203125 .099121097 .08203125 .15185547V.4501953H.017578125V.5185547H.08203125V.6473236L.1694336 .7001953V.5185547H.2578125V.4501953H.1694336V.14697266C.1694336 .121907558 .17097982 .10579427 .17407227 .09863281 .17716472 .09147135 .18221028 .08577474 .18920899 .08154297 .19620769 .077311199 .20621746 .07519531 .21923828 .07519531 .2290039 .07519531 .24186199 .07600912 .2578125 .07763672Z"/>
<path id="font_3_81" d="M.06591797 0V.5185547H.14501953V.4453125C.18310547 .5019531 .23811849 .53027346 .3100586 .53027346 .3413086 .53027346 .3700358 .5246582 .39624024 .51342776 .42244468 .50219729 .44205729 .48746745 .45507813 .46923829 .46809898 .45100913 .47721354 .42936198 .48242188 .40429688 .4856771 .38802085 .4873047 .35953776 .4873047 .31884767V0H.39941407V.31576539C.39941407 .35161338 .3959961 .37841798 .38916017 .3961792 .38232423 .41394044 .37019859 .42811585 .3527832 .43870545 .33536784 .44929505 .3149414 .45458985 .2915039 .45458985 .254069 .45458985 .22176107 .44269309 .19458008 .41889955 .1673991 .39511619 .1538086 .34998576 .1538086 .2835083V0H.06591797Z"/>
<path id="font_3_71" d="M.40234376 0V.06542969C.36946617 .0139973959 .3211263-.01171875 .25732423-.01171875 .21598308-.01171875 .17797852-.00032552085 .14331055 .022460938 .10864258 .045247396 .08178711 .077067058 .06274414 .11791992 .043701173 .15877278 .034179689 .20572917 .034179689 .25878907 .034179689 .31054688 .04280599 .35750328 .060058595 .3996582 .077311199 .44181315 .1031901 .4741211 .13769531 .49658204 .17220052 .51904299 .21077474 .53027346 .25341798 .53027346 .28466798 .53027346 .3125 .52368167 .33691407 .51049807 .36132813 .49731446 .3811849 .48014323 .39648438 .45898438V.7158203H.48388673V0H.40234376M.12451172 .2590332C.12451172 .1928711 .13850911 .14341228 .1665039 .11065674 .1944987 .07790121 .22753906 .061523439 .265625 .061523439 .30403648 .061523439 .33666993 .077168788 .3635254 .10845947 .39038087 .13976033 .4038086 .18752034 .4038086 .2517395 .4038086 .32243858 .39013673 .3743286 .36279298 .40740968 .33544923 .44049073 .3017578 .45703126 .26171876 .45703126 .22265625 .45703126 .19002278 .4411367 .16381836 .40934754 .13761394 .37756858 .12451172 .32746379 .12451172 .2590332Z"/>
<path id="font_4_88" d="M.41308595 0V.07763672C.39420573 .04996745 .36938478 .028157553 .33862306 .012207031 .30786134-.0037434896 .27539063-.01171875 .24121094-.01171875 .2063802-.01171875 .1751302-.0040690104 .14746094 .011230469 .119791667 .026529948 .09977213 .048014326 .087402347 .075683597 .075032558 .10335287 .068847659 .14160156 .068847659 .19042969V.5185547H.20605469V.28082276C.20605469 .20806885 .20857747 .16349285 .21362305 .14709473 .21866863 .13069661 .22786458 .1177063 .24121094 .10812378 .25455729 .09854126 .27148438 .09375 .2919922 .09375 .3154297 .09375 .33642579 .10016378 .35498048 .11299133 .37353517 .1258189 .38623048 .14173381 .3930664 .16073609 .39990235 .17973836 .4033203 .2262624 .4033203 .30030824V.5185547H.54052737V0H.41308595Z"/>
<path id="font_4_71" d="M.5473633 0H.41992188V.076171878C.39876304 .04654948 .3737793 .024495444 .3449707 .010009766 .3161621-.0044759118 .28710938-.01171875 .2578125-.01171875 .19824219-.01171875 .1472168 .012288411 .10473633 .060302736 .06225586 .108317058 .041015626 .17529297 .041015626 .26123048 .041015626 .3491211 .0616862 .41593424 .103027347 .46166993 .14436849 .5074056 .19661458 .53027346 .25976563 .53027346 .31770835 .53027346 .36783854 .5061849 .41015626 .4580078V.7158203H.5473633V0M.18115235 .2702484C.18115235 .21499126 .18880208 .17501323 .20410156 .15031433 .22623699 .1145579 .25716148 .09667969 .296875 .09667969 .32845054 .09667969 .355306 .110087078 .3774414 .13690186 .3995768 .16371663 .41064454 .20377605 .41064454 .25708009 .41064454 .316569 .39990235 .35939536 .37841798 .38555909 .3569336 .4117228 .3294271 .4248047 .29589845 .4248047 .26334635 .4248047 .23608399 .4118856 .21411133 .38604737 .19213867 .36020915 .18115235 .3216095 .18115235 .2702484Z"/>
<path id="font_4_38" d="M.5307617 .26367188 .67089846 .21972656C.64941409 .1411031 .6136882 .082707729 .5637207 .044540407 .51375326 .0063832604 .45035807-.0126953129 .37353517-.0126953129 .27848307-.0126953129 .20035808 .01981608 .13916016 .08483887 .07796224 .14987183 .04736328 .23877461 .04736328 .35154725 .04736328 .47085063 .078125 .563502 .13964844 .62950137 .20117188 .69551089 .2820638 .7285156 .38232423 .7285156 .4698893 .7285156 .5410156 .7025757 .5957031 .6506958 .6282552 .62002566 .65266928 .5759786 .6689453 .5185547L.5258789 .484375C.51741537 .5214844 .49975587 .55078127 .4729004 .5722656 .44604493 .59375 .41341148 .6044922 .375 .6044922 .3219401 .6044922 .27888999 .5854492 .24584961 .5473633 .21280925 .50927737 .19628906 .44759117 .19628906 .3623047 .19628906 .2718099 .21256511 .20735677 .24511719 .16894531 .27766929 .13053386 .31998698 .111328128 .3720703 .111328128 .41048179 .111328128 .44352214 .12357076 .4711914 .14805603 .4988607 .17255147 .51871749 .21109009 .5307617 .26367188Z"/>
<path id="font_4_86" d="M.0234375 .14746094 .16113281 .16894531C.16699219 .14241536 .1788737 .122273769 .19677735 .10852051 .21468099 .09476725 .2397461 .087890628 .27197267 .087890628 .30745445 .087890628 .33414714 .09439087 .35205079 .10739136 .36409507 .116495769 .3701172 .12868755 .3701172 .14396668 .3701172 .15437317 .36686198 .1629893 .36035157 .16981507 .35351563 .17631531 .33821617 .18232727 .31445313 .18785095 .20377605 .21222432 .1336263 .23449199 .104003909 .25465394 .06298828 .2826284 .04248047 .32149253 .04248047 .37124635 .04248047 .41612754 .060221357 .45385234 .095703128 .48442079 .13118489 .5149892 .18619792 .53027346 .2607422 .53027346 .33170573 .53027346 .3844401 .5187581 .4189453 .49572755 .45345054 .47269694 .47721354 .4386393 .49023438 .3935547L.36083985 .36914063C.355306 .3893229 .34480796 .40478517 .3293457 .41552735 .31388346 .42626954 .29182945 .43164063 .2631836 .43164063 .22705078 .43164063 .20117188 .42660014 .18554688 .41651917 .1751302 .40937806 .16992188 .40011598 .16992188 .3887329 .16992188 .37898765 .17447917 .37070213 .18359375 .36387635 .19596355 .35477195 .23868816 .3419291 .31176759 .3253479 .38484703 .3087667 .4358724 .28842674 .46484376 .264328 .4934896 .2398936 .5078125 .20585633 .5078125 .16221619 .5078125 .11465963 .48795573 .073781337 .4482422 .0395813 .40852867 .005381266 .34977214-.01171875 .27197267-.01171875 .20133464-.01171875 .14542644 .0025583904 .10424805 .03111267 .063069667 .059677125 .036132814 .09845988 .0234375 .14746094Z"/>
<path id="font_3_70" d="M.40429688 .19042969 .49072267 .17919922C.48128257 .11947632 .45711265 .07272339 .4182129 .03894043 .37931315 .005167643 .33154298-.01171875 .27490235-.01171875 .2039388-.01171875 .14689128 .011474609 .103759769 .057861329 .060628255 .10424805 .0390625 .17073567 .0390625 .25732423 .0390625 .3133138 .048339845 .3623047 .06689453 .40429688 .08544922 .44628907 .11368815 .4777832 .15161133 .4987793 .1895345 .5197754 .23079427 .53027346 .27539063 .53027346 .33170573 .53027346 .37776695 .51598617 .41357423 .4874115 .4493815 .45884706 .47233073 .4182841 .48242188 .36572267L.39697267 .35253907C.38883464 .38720704 .37443034 .4132894 .35375978 .43078614 .3330892 .44828288 .30810548 .45703126 .2788086 .45703126 .23453777 .45703126 .1985677 .4412384 .17089844 .4096527 .14322917 .37807719 .12939453 .32811485 .12939453 .25976563 .12939453 .19043987 .14274089 .1400655 .1694336 .10864258 .1961263 .07722982 .23095703 .061523439 .27392579 .061523439 .308431 .061523439 .3372396 .07206217 .36035157 .09313965 .38346354 .114217128 .39811198 .14664714 .40429688 .19042969Z"/>
<path id="font_3_76" d="M.06640625 .6142578V.7158203H.15429688V.6142578H.06640625M.06640625 0V.5185547H.15429688V0H.06640625Z"/>
<path id="font_3_74" d="M.049804689-.04296875 .1352539-.055664064C.13883464-.08203125 .14876302-.10123698 .16503906-.11328125 .18684896-.1295573 .21663411-.13769531 .25439454-.13769531 .29508464-.13769531 .3264974-.12953694 .3486328-.113220218 .37076823-.09691366 .3857422-.07407633 .3935547-.044708253 .39811198-.026774088 .40022788 .010904948 .39990235 .06832886 .36149089 .022776286 .3136393 0 .25634767 0 .1850586 0 .12988281 .025716147 .09082031 .07714844 .051757814 .12858074 .032226564 .19026692 .032226564 .26220704 .032226564 .3116862 .041178388 .35734049 .05908203 .39916993 .07698568 .44099937 .10294596 .47330729 .13696289 .49609376 .17097982 .5188802 .2109375 .53027346 .25683595 .53027346 .31803385 .53027346 .3684896 .5053711 .40820313 .4555664V.5185547H.4892578V.070007327C.4892578-.010772705 .48103843-.06801859 .4645996-.10173035 .4481608-.1354421 .42211915-.16206868 .3864746-.1816101 .35083009-.2011617 .30696617-.2109375 .2548828-.2109375 .19303386-.2109375 .1430664-.19698079 .10498047-.16906739 .06689453-.14115398 .048502607-.099121097 .049804689-.04296875M.122558597 .26853944C.122558597 .20067851 .1360677 .15116374 .16308594 .11999512 .19010417 .0888265 .22395833 .07324219 .26464845 .07324219 .30501304 .07324219 .3388672 .08874512 .36621095 .11975098 .3935547 .15075684 .40722657 .19938152 .40722657 .265625 .40722657 .3289388 .3931478 .3766683 .36499024 .40881349 .33683268 .44095866 .30289714 .45703126 .2631836 .45703126 .2241211 .45703126 .19091797 .4412028 .16357422 .4095459 .13623047 .377889 .122558597 .33088685 .122558597 .26853944Z"/>
<path id="font_3_55" d="M.25927735 0V.63134768H.0234375V.7158203H.5908203V.63134768H.3540039V0H.25927735Z"/>
<path id="font_3_82" d="M.033203126 .25927735C.033203126 .355306 .059895833 .42643229 .11328125 .47265626 .15787761 .5110677 .21223958 .53027346 .2763672 .53027346 .34765626 .53027346 .40592448 .5069173 .45117188 .46020509 .49641929 .41349284 .51904299 .34895835 .51904299 .26660157 .51904299 .1998698 .5090332 .14737956 .48901368 .10913086 .46899415 .070882167 .43986003 .041178388 .40161134 .020019532 .36336265-.0011393229 .3216146-.01171875 .2763672-.01171875 .20377605-.01171875 .1451009 .011555989 .1003418 .05810547 .055582685 .104654949 .033203126 .17171224 .033203126 .25927735M.123535159 .25952149C.123535159 .19335938 .13802083 .14381917 .16699219 .11090088 .19596355 .07798258 .23242188 .061523439 .2763672 .061523439 .31998698 .061523439 .35628257 .078063968 .3852539 .11114502 .41422526 .14422608 .42871095 .19465637 .42871095 .2624359 .42871095 .32632957 .4141439 .3747355 .38500978 .4076538 .35587565 .4405721 .31966148 .45703126 .2763672 .45703126 .23242188 .45703126 .19596355 .44065348 .16699219 .40789796 .13802083 .37514244 .123535159 .3256836 .123535159 .25952149Z"/>
<path id="font_3_83" d="M.06591797-.19921875V.5185547H.1459961V.45166017C.1648763 .4778646 .18619792 .4975179 .20996094 .5106201 .23372396 .52372238 .26253257 .53027346 .29638673 .53027346 .34065757 .53027346 .37972007 .5188802 .41357423 .49609376 .44742839 .47330729 .47298179 .4411621 .49023438 .3996582 .507487 .3581543 .5161133 .31266276 .5161133 .2631836 .5161133 .2101237 .5065918 .16235352 .48754884 .11987305 .46850587 .07739258 .44083659 .044840497 .40454103 .022216797 .36824546-.00040690104 .33007813-.01171875 .29003907-.01171875 .2607422-.01171875 .23445638-.005452474 .21118164 .007080078 .1879069 .019622803 .16878255 .035461427 .1538086 .054595949V-.19921875H.06591797M.14550781 .25708009C.14550781 .19042969 .15901692 .14117432 .18603516 .109313968 .21305339 .07745361 .24576824 .061523439 .2841797 .061523439 .3232422 .061523439 .35668946 .07802328 .38452149 .11102295 .41235353 .14402263 .42626954 .19514974 .42626954 .2644043 .42626954 .33040367 .41267906 .37982179 .38549806 .4126587 .35831706 .4454956 .32584635 .46191407 .28808595 .46191407 .25065104 .46191407 .2175293 .44443766 .1887207 .40948487 .15991211 .37453208 .14550781 .32373048 .14550781 .25708009Z"/>
<path id="font_4_44" d="M.068359378 0V.7158203H.21289063V0H.068359378Z"/>
<path id="font_3_20" d="M.3725586 0H.28466798V.5600586C.26350913 .5398763 .23575847 .51969406 .20141602 .49951173 .16707357 .47932945 .13623047 .46419273 .10888672 .45410157V.5390625C.15804036 .5621745 .20100911 .59016928 .23779297 .6230469 .2745768 .6559245 .3006185 .6878255 .31591798 .71875H.3725586V0Z"/>
<path id="font_3_17" d="M.09082031 0V.10058594H.19091797V0H.09082031Z"/>
<path id="font_3_13" d="M.03125 .58496096 .053710939 .6542969C.10546875 .63569137 .1430664 .61957809 .1665039 .60595706 .16031902 .6648763 .1570638 .7054036 .15673828 .72753909H.22753906C.2265625 .6953125 .22281902 .65494796 .2163086 .6064453 .24983724 .62372848 .2882487 .63967898 .33154298 .6542969L.3540039 .58496096C.31266276 .5708008 .2721354 .56136068 .23242188 .5566406 .25227867 .539388 .28027345 .5086263 .31640626 .46435548L.2578125 .42285157C.2389323 .44856773 .21663411 .4835612 .19091797 .52783206 .16682942 .4819336 .14567058 .4469401 .1274414 .42285157L.06982422 .46435548C.10758463 .51090499 .13460286 .5416667 .1508789 .5566406 .10888672 .56507369 .069010417 .57451376 .03125 .58496096Z"/>
<path id="font_3_19" d="M.041503908 .35327149C.041503908 .43784587 .05021159 .50591537 .06762695 .55747988 .08504232 .6090444 .11092123 .6488139 .14526367 .67678835 .17960613 .70476278 .22281902 .71875 .27490235 .71875 .3133138 .71875 .34700523 .711024 .37597657 .6955719 .4049479 .6801198 .4288737 .6578369 .4477539 .62872317 .46663413 .5996094 .4814453 .56414797 .4921875 .52233889 .5029297 .48053996 .5083008 .42418418 .5083008 .35327149 .5083008 .26934815 .49967448 .2016042 .48242188 .15003968 .46516929 .098475139 .43937174 .058624269 .4050293 .03048706 .37068687 .0023498536 .3273112-.01171875 .27490235-.01171875 .20589192-.01171875 .1516927 .013005574 .11230469 .062454225 .065104167 .12198385 .041503908 .21892293 .041503908 .35327149M.13183594 .35351563C.13183594 .23639934 .14558919 .15845235 .1730957 .11967468 .20060222 .08090719 .23453777 .061523439 .27490235 .061523439 .31526695 .061523439 .34920249 .08098856 .37670899 .11991882 .40421549 .15884908 .41796876 .23671468 .41796876 .35351563 .41796876 .47095744 .40421549 .5489807 .37670899 .58758547 .34920249 .6262004 .3149414 .6455078 .27392579 .6455078 .2335612 .6455078 .20133464 .62847396 .1772461 .5944061 .14697266 .5509288 .13183594 .47063194 .13183594 .35351563Z"/>
</defs>
<g clip-path="url(#clip_1)">
<path transform="matrix(.7180762,0,0,.7180762,0,0)" d="M0 0H603V214H0Z" fill="#ffffff"/>
</g>
<g clip-path="url(#clip_2)">
<path transform="matrix(.7180762,0,0,.7180762,.3590381,.3590381)" stroke-width="1" stroke-linecap="butt" stroke-miterlimit="10" stroke-linejoin="miter" fill="none" stroke="#ff3399" d="M128.71 31H241"/>
<path transform="matrix(.7180762,0,0,.7180762,.3590381,.3590381)" d="M121.71 31 125.21 27.5 128.71 31 125.21 34.5 121.71 31Z" fill="#ff3399"/>
<path transform="matrix(.7180762,0,0,.7180762,.3590381,.3590381)" stroke-width="1" stroke-linecap="butt" stroke-miterlimit="10" stroke-linejoin="miter" fill="none" stroke="#ff3399" d="M121.71 31 125.21 27.5 128.71 31 125.21 34.5 121.71 31Z"/>
<path transform="matrix(.7180762,0,0,.7180762,0,0)" d="M169 22H194V41H169Z" fill="#ffffff"/>
<use data-text="h" xlink:href="#font_3_75" transform="matrix(11.48922,0,0,-11.48922,121.07439,26.56882)"/>
<use data-text="a" xlink:href="#font_3_68" transform="matrix(11.48922,0,0,-11.48922,127.46239,26.56882)"/>
<use data-text="s" xlink:href="#font_3_86" transform="matrix(11.48922,0,0,-11.48922,133.85039,26.56882)"/>
<path transform="matrix(.7180762,0,0,.7180762,.3590381,.3590381)" stroke-width="1" stroke-linecap="butt" stroke-miterlimit="10" stroke-linejoin="miter" fill="none" stroke="#ff3399" d="M51 178.71V191H61V171"/>
<path transform="matrix(.7180762,0,0,.7180762,.3590381,.3590381)" stroke-width="1" stroke-linecap="butt" stroke-miterlimit="10" stroke-linejoin="miter" fill="none" stroke="#ff3399" d="M51 171.71 54.5 175.21 51 178.71 47.5 175.21 51 171.71Z"/>
<path transform="matrix(.7180762,0,0,.7180762,0,0)" d="M27 182H86V201H27Z" fill="#ffffff"/>
<use data-text="m" xlink:href="#font_3_80" transform="matrix(11.48922,0,0,-11.48922,19.500258,141.46102)"/>
<use data-text="e" xlink:href="#font_3_72" transform="matrix(11.48922,0,0,-11.48922,29.07078,141.46102)"/>
<use data-text="m" xlink:href="#font_3_80" transform="matrix(11.48922,0,0,-11.48922,35.458787,141.46102)"/>
<use data-text="b" xlink:href="#font_3_69" transform="matrix(11.48922,0,0,-11.48922,45.029306,141.46102)"/>
<use data-text="e" xlink:href="#font_3_72" transform="matrix(11.48922,0,0,-11.48922,51.417314,141.46102)"/>
<use data-text="r" xlink:href="#font_3_85" transform="matrix(11.48922,0,0,-11.48922,57.805326,141.46102)"/>
<path transform="matrix(.7180762,0,0,.7180762,.3590381,.3590381)" d="M1 11H121V51H1Z" fill="#fff2cc"/>
<path transform="matrix(.7180762,0,0,.7180762,.3590381,.3590381)" stroke-width="1" stroke-linecap="butt" stroke-miterlimit="4" stroke-linejoin="miter" fill="none" stroke="#ff3399" d="M1 11H121V51H1Z"/>
<use data-text="S" xlink:href="#font_4_54" transform="matrix(11.48922,0,0,-11.48922,24.650212,26.56882)"/>
<use data-text="c" xlink:href="#font_4_70" transform="matrix(11.48922,0,0,-11.48922,32.313524,26.56882)"/>
<use data-text="h" xlink:href="#font_4_75" transform="matrix(11.48922,0,0,-11.48922,38.701528,26.56882)"/>
<use data-text="o" xlink:href="#font_4_82" transform="matrix(11.48922,0,0,-11.48922,45.72144,26.56882)"/>
<use data-text="o" xlink:href="#font_4_82" transform="matrix(11.48922,0,0,-11.48922,52.741357,26.56882)"/>
<use data-text="l" xlink:href="#font_4_79" transform="matrix(11.48922,0,0,-11.48922,59.76127,26.56882)"/>
<path transform="matrix(.7180762,0,0,.7180762,.3590381,.3590381)" stroke-width="1" stroke-linecap="butt" stroke-miterlimit="10" stroke-linejoin="miter" fill="none" stroke="#ff3399" d="M301 51V171"/>
<path transform="matrix(.7180762,0,0,.7180762,.3590381,.3590381)" d="M241 11H361V51H241Z" fill="#fff2cc"/>
<path transform="matrix(.7180762,0,0,.7180762,.3590381,.3590381)" stroke-width="1" stroke-linecap="butt" stroke-miterlimit="4" stroke-linejoin="miter" fill="none" stroke="#ff3399" d="M241 11H361V51H241Z"/>
<use data-text="D" xlink:href="#font_4_39" transform="matrix(11.48922,0,0,-11.48922,184.22022,26.56882)"/>
<use data-text="e" xlink:href="#font_4_72" transform="matrix(11.48922,0,0,-11.48922,192.51543,26.56882)"/>
<use data-text="p" xlink:href="#font_4_83" transform="matrix(11.48922,0,0,-11.48922,198.90343,26.56882)"/>
<use data-text="a" xlink:href="#font_4_68" transform="matrix(11.48922,0,0,-11.48922,205.92336,26.56882)"/>
<use data-text="r" xlink:href="#font_4_85" transform="matrix(11.48922,0,0,-11.48922,212.31136,26.56882)"/>
<use data-text="t" xlink:href="#font_4_87" transform="matrix(11.48922,0,0,-11.48922,216.78066,26.56882)"/>
<use data-text="m" xlink:href="#font_4_80" transform="matrix(11.48922,0,0,-11.48922,220.60657,26.56882)"/>
<use data-text="e" xlink:href="#font_4_72" transform="matrix(11.48922,0,0,-11.48922,230.82048,26.56882)"/>
<use data-text="n" xlink:href="#font_4_81" transform="matrix(11.48922,0,0,-11.48922,237.20848,26.56882)"/>
<use data-text="t" xlink:href="#font_4_87" transform="matrix(11.48922,0,0,-11.48922,244.22841,26.56882)"/>
<path transform="matrix(.7180762,0,0,.7180762,.3590381,.3590381)" stroke-width="1" stroke-linecap="butt" stroke-miterlimit="10" stroke-linejoin="miter" fill="none" stroke="#ff3399" d="M121 191H241"/>
<path transform="matrix(.7180762,0,0,.7180762,0,0)" d="M155 182H208V201H155Z" fill="#ffffff"/>
<use data-text="a" xlink:href="#font_3_68" transform="matrix(11.48922,0,0,-11.48922,111.49255,141.46102)"/>
<use data-text="t" xlink:href="#font_3_87" transform="matrix(11.48922,0,0,-11.48922,117.880558,141.46102)"/>
<use data-text="t" xlink:href="#font_3_87" transform="matrix(11.48922,0,0,-11.48922,121.07456,141.46102)"/>
<use data-text="e" xlink:href="#font_3_72" transform="matrix(11.48922,0,0,-11.48922,124.26856,141.46102)"/>
<use data-text="n" xlink:href="#font_3_81" transform="matrix(11.48922,0,0,-11.48922,130.65657,141.46102)"/>
<use data-text="d" xlink:href="#font_3_71" transform="matrix(11.48922,0,0,-11.48922,137.04457,141.46102)"/>
<use data-text="s" xlink:href="#font_3_86" transform="matrix(11.48922,0,0,-11.48922,143.43257,141.46102)"/>
<path transform="matrix(.7180762,0,0,.7180762,.3590381,.3590381)" stroke-width="1" stroke-linecap="butt" stroke-miterlimit="10" stroke-linejoin="miter" fill="none" stroke="#ff3399" d="M61 171V58.71"/>
<path transform="matrix(.7180762,0,0,.7180762,.3590381,.3590381)" stroke-width="1" stroke-linecap="butt" stroke-miterlimit="10" stroke-linejoin="miter" fill="none" stroke="#ff3399" d="M61 51.71 64.5 55.21 61 58.71 57.5 55.21 61 51.71Z"/>
<path transform="matrix(.7180762,0,0,.7180762,0,0)" d="M32 102H91V121H32Z" fill="#ffffff"/>
<use data-text="m" xlink:href="#font_3_80" transform="matrix(11.48922,0,0,-11.48922,23.09064,84.014919)"/>
<use data-text="e" xlink:href="#font_3_72" transform="matrix(11.48922,0,0,-11.48922,32.66116,84.014919)"/>
<use data-text="m" xlink:href="#font_3_80" transform="matrix(11.48922,0,0,-11.48922,39.049169,84.014919)"/>
<use data-text="b" xlink:href="#font_3_69" transform="matrix(11.48922,0,0,-11.48922,48.619688,84.014919)"/>
<use data-text="e" xlink:href="#font_3_72" transform="matrix(11.48922,0,0,-11.48922,55.007696,84.014919)"/>
<use data-text="r" xlink:href="#font_3_85" transform="matrix(11.48922,0,0,-11.48922,61.395704,84.014919)"/>
<path transform="matrix(.7180762,0,0,.7180762,.3590381,.3590381)" d="M1 171H121V211H1Z" fill="#fff2cc"/>
<path transform="matrix(.7180762,0,0,.7180762,.3590381,.3590381)" stroke-width="1" stroke-linecap="butt" stroke-miterlimit="4" stroke-linejoin="miter" fill="none" stroke="#ff3399" d="M1 171H121V211H1Z"/>
<use data-text="S" xlink:href="#font_4_54" transform="matrix(11.48922,0,0,-11.48922,22.417443,141.46102)"/>
<use data-text="t" xlink:href="#font_4_87" transform="matrix(11.48922,0,0,-11.48922,30.080754,141.46102)"/>
<use data-text="u" xlink:href="#font_4_88" transform="matrix(11.48922,0,0,-11.48922,33.906663,141.46102)"/>
<use data-text="d" xlink:href="#font_4_71" transform="matrix(11.48922,0,0,-11.48922,40.926576,141.46102)"/>
<use data-text="e" xlink:href="#font_4_72" transform="matrix(11.48922,0,0,-11.48922,47.94649,141.46102)"/>
<use data-text="n" xlink:href="#font_4_81" transform="matrix(11.48922,0,0,-11.48922,54.3345,141.46102)"/>
<use data-text="t" xlink:href="#font_4_87" transform="matrix(11.48922,0,0,-11.48922,61.354413,141.46102)"/>
<path transform="matrix(.7180762,0,0,.7180762,.3590381,.3590381)" d="M241 171H361V211H241Z" fill="#fff2cc"/>
<path transform="matrix(.7180762,0,0,.7180762,.3590381,.3590381)" stroke-width="1" stroke-linecap="butt" stroke-miterlimit="4" stroke-linejoin="miter" fill="none" stroke="#ff3399" d="M241 171H361V211H241Z"/>
<use data-text="C" xlink:href="#font_4_38" transform="matrix(11.48922,0,0,-11.48922,196.34897,141.46102)"/>
<use data-text="o" xlink:href="#font_4_82" transform="matrix(11.48922,0,0,-11.48922,204.64418,141.46102)"/>
<use data-text="u" xlink:href="#font_4_88" transform="matrix(11.48922,0,0,-11.48922,211.66411,141.46102)"/>
<use data-text="r" xlink:href="#font_4_85" transform="matrix(11.48922,0,0,-11.48922,218.68402,141.46102)"/>
<use data-text="s" xlink:href="#font_4_86" transform="matrix(11.48922,0,0,-11.48922,223.15332,141.46102)"/>
<use data-text="e" xlink:href="#font_4_72" transform="matrix(11.48922,0,0,-11.48922,229.54132,141.46102)"/>
<path transform="matrix(.7180762,0,0,.7180762,.3590381,.3590381)" stroke-width="1" stroke-linecap="butt" stroke-miterlimit="10" stroke-linejoin="miter" fill="none" stroke="#ff3399" d="M481 191H361"/>
<path transform="matrix(.7180762,0,0,.7180762,0,0)" d="M393 182H450V201H393Z" fill="#ffffff"/>
<use data-text="t" xlink:href="#font_3_87" transform="matrix(11.48922,0,0,-11.48922,282.5518,141.46102)"/>
<use data-text="e" xlink:href="#font_3_72" transform="matrix(11.48922,0,0,-11.48922,285.7458,141.46102)"/>
<use data-text="a" xlink:href="#font_3_68" transform="matrix(11.48922,0,0,-11.48922,292.1338,141.46102)"/>
<use data-text="c" xlink:href="#font_3_70" transform="matrix(11.48922,0,0,-11.48922,298.5218,141.46102)"/>
<use data-text="h" xlink:href="#font_3_75" transform="matrix(11.48922,0,0,-11.48922,304.2664,141.46102)"/>
<use data-text="e" xlink:href="#font_3_72" transform="matrix(11.48922,0,0,-11.48922,310.6544,141.46102)"/>
<use data-text="s" xlink:href="#font_3_86" transform="matrix(11.48922,0,0,-11.48922,317.0424,141.46102)"/>
<path transform="matrix(.7180762,0,0,.7180762,.3590381,.3590381)" stroke-width="1" stroke-linecap="butt" stroke-miterlimit="10" stroke-linejoin="miter" fill="none" stroke="#ff3399" d="M521 171V41H368.71"/>
<path transform="matrix(.7180762,0,0,.7180762,.3590381,.3590381)" stroke-width="1" stroke-linecap="butt" stroke-miterlimit="10" stroke-linejoin="miter" fill="none" stroke="#ff3399" d="M361.71 41 365.21 37.5 368.71 41 365.21 44.5 361.71 41Z"/>
<path transform="matrix(.7180762,0,0,.7180762,0,0)" d="M466 32H547V51H466Z" fill="#ffffff"/>
<use data-text="a" xlink:href="#font_3_68" transform="matrix(11.48922,0,0,-11.48922,334.64598,33.749586)"/>
<use data-text="s" xlink:href="#font_3_86" transform="matrix(11.48922,0,0,-11.48922,341.03398,33.749586)"/>
<use data-text="s" xlink:href="#font_3_86" transform="matrix(11.48922,0,0,-11.48922,346.77857,33.749586)"/>
<use data-text="i" xlink:href="#font_3_76" transform="matrix(11.48922,0,0,-11.48922,352.5232,33.749586)"/>
<use data-text="g" xlink:href="#font_3_74" transform="matrix(11.48922,0,0,-11.48922,355.0738,33.749586)"/>
<use data-text="n" xlink:href="#font_3_81" transform="matrix(11.48922,0,0,-11.48922,361.4618,33.749586)"/>
<use data-text="e" xlink:href="#font_3_72" transform="matrix(11.48922,0,0,-11.48922,367.8498,33.749586)"/>
<use data-text="d" xlink:href="#font_3_71" transform="matrix(11.48922,0,0,-11.48922,374.2378,33.749586)"/>
<use data-text="T" xlink:href="#font_3_55" transform="matrix(11.48922,0,0,-11.48922,380.6258,33.749586)"/>
<use data-text="o" xlink:href="#font_3_82" transform="matrix(11.48922,0,0,-11.48922,386.3811,33.749586)"/>
<path transform="matrix(.7180762,0,0,.7180762,.3590381,.3590381)" stroke-width="1" stroke-linecap="butt" stroke-miterlimit="10" stroke-linejoin="miter" fill="none" stroke="#ff3399" d="M561 171V21H361"/>
<path transform="matrix(.7180762,0,0,.7180762,0,0)" d="M495 12H578V31H495Z" fill="#ffffff"/>
<use data-text="c" xlink:href="#font_3_70" transform="matrix(11.48922,0,0,-11.48922,355.23457,19.388058)"/>
<use data-text="h" xlink:href="#font_3_75" transform="matrix(11.48922,0,0,-11.48922,360.97917,19.388058)"/>
<use data-text="a" xlink:href="#font_3_68" transform="matrix(11.48922,0,0,-11.48922,367.36717,19.388058)"/>
<use data-text="i" xlink:href="#font_3_76" transform="matrix(11.48922,0,0,-11.48922,373.75517,19.388058)"/>
<use data-text="r" xlink:href="#font_3_85" transform="matrix(11.48922,0,0,-11.48922,376.3058,19.388058)"/>
<use data-text="p" xlink:href="#font_3_83" transform="matrix(11.48922,0,0,-11.48922,380.13169,19.388058)"/>
<use data-text="e" xlink:href="#font_3_72" transform="matrix(11.48922,0,0,-11.48922,386.51969,19.388058)"/>
<use data-text="r" xlink:href="#font_3_85" transform="matrix(11.48922,0,0,-11.48922,392.90769,19.388058)"/>
<use data-text="s" xlink:href="#font_3_86" transform="matrix(11.48922,0,0,-11.48922,396.7336,19.388058)"/>
<use data-text="o" xlink:href="#font_3_82" transform="matrix(11.48922,0,0,-11.48922,402.4782,19.388058)"/>
<use data-text="n" xlink:href="#font_3_81" transform="matrix(11.48922,0,0,-11.48922,408.8662,19.388058)"/>
<path transform="matrix(.7180762,0,0,.7180762,.3590381,.3590381)" d="M481 171H601V211H481Z" fill="#fff2cc"/>
<path transform="matrix(.7180762,0,0,.7180762,.3590381,.3590381)" stroke-width="1" stroke-linecap="butt" stroke-miterlimit="4" stroke-linejoin="miter" fill="none" stroke="#ff3399" d="M481 171H601V211H481Z"/>
<use data-text="I" xlink:href="#font_4_44" transform="matrix(11.48922,0,0,-11.48922,361.66358,141.46102)"/>
<use data-text="n" xlink:href="#font_4_81" transform="matrix(11.48922,0,0,-11.48922,364.85758,141.46102)"/>
<use data-text="s" xlink:href="#font_4_86" transform="matrix(11.48922,0,0,-11.48922,371.8775,141.46102)"/>
<use data-text="t" xlink:href="#font_4_87" transform="matrix(11.48922,0,0,-11.48922,378.2655,141.46102)"/>
<use data-text="r" xlink:href="#font_4_85" transform="matrix(11.48922,0,0,-11.48922,382.0914,141.46102)"/>
<use data-text="u" xlink:href="#font_4_88" transform="matrix(11.48922,0,0,-11.48922,386.56074,141.46102)"/>
<use data-text="c" xlink:href="#font_4_70" transform="matrix(11.48922,0,0,-11.48922,393.58064,141.46102)"/>
<use data-text="t" xlink:href="#font_4_87" transform="matrix(11.48922,0,0,-11.48922,399.96864,141.46102)"/>
<use data-text="o" xlink:href="#font_4_82" transform="matrix(11.48922,0,0,-11.48922,403.79457,141.46102)"/>
<use data-text="r" xlink:href="#font_4_85" transform="matrix(11.48922,0,0,-11.48922,410.81446,141.46102)"/>
<use data-text="1" xlink:href="#font_3_20" transform="matrix(11.48922,0,0,-11.48922,21.183249,55.29187)"/>
<use data-text="." xlink:href="#font_3_17" transform="matrix(11.48922,0,0,-11.48922,27.571255,55.29187)"/>
<use data-text="." xlink:href="#font_3_17" transform="matrix(11.48922,0,0,-11.48922,30.765259,55.29187)"/>
<use data-text="*" xlink:href="#font_3_13" transform="matrix(11.48922,0,0,-11.48922,33.959264,55.29187)"/>
<use data-text="1" xlink:href="#font_3_20" transform="matrix(11.48922,0,0,-11.48922,150.43697,33.749586)"/>
<use data-text="." xlink:href="#font_3_17" transform="matrix(11.48922,0,0,-11.48922,156.82497,33.749586)"/>
<use data-text="." xlink:href="#font_3_17" transform="matrix(11.48922,0,0,-11.48922,160.01898,33.749586)"/>
<use data-text="*" xlink:href="#font_3_13" transform="matrix(11.48922,0,0,-11.48922,163.21298,33.749586)"/>
<use data-text="0" xlink:href="#font_3_19" transform="matrix(11.48922,0,0,-11.48922,264.36427,12.207296)"/>
<use data-text="." xlink:href="#font_3_17" transform="matrix(11.48922,0,0,-11.48922,270.75227,12.207296)"/>
<use data-text="." xlink:href="#font_3_17" transform="matrix(11.48922,0,0,-11.48922,273.94627,12.207296)"/>
<use data-text="1" xlink:href="#font_3_20" transform="matrix(11.48922,0,0,-11.48922,277.14027,12.207296)"/>
<use data-text="1" xlink:href="#font_3_20" transform="matrix(11.48922,0,0,-11.48922,265.32917,40.930345)"/>
<use data-text="." xlink:href="#font_3_17" transform="matrix(11.48922,0,0,-11.48922,271.71717,40.930345)"/>
<use data-text="." xlink:href="#font_3_17" transform="matrix(11.48922,0,0,-11.48922,274.91117,40.930345)"/>
<use data-text="*" xlink:href="#font_3_13" transform="matrix(11.48922,0,0,-11.48922,278.10517,40.930345)"/>
<use data-text="0" xlink:href="#font_3_19" transform="matrix(11.48922,0,0,-11.48922,407.9795,119.91873)"/>
<use data-text="." xlink:href="#font_3_17" transform="matrix(11.48922,0,0,-11.48922,414.3675,119.91873)"/>
<use data-text="." xlink:href="#font_3_17" transform="matrix(11.48922,0,0,-11.48922,417.5615,119.91873)"/>
<use data-text="1" xlink:href="#font_3_20" transform="matrix(11.48922,0,0,-11.48922,420.7555,119.91873)"/>
<use data-text="1" xlink:href="#font_3_20" transform="matrix(11.48922,0,0,-11.48922,351.49833,119.91873)"/>
<use data-text="." xlink:href="#font_3_17" transform="matrix(11.48922,0,0,-11.48922,357.88633,119.91873)"/>
<use data-text="." xlink:href="#font_3_17" transform="matrix(11.48922,0,0,-11.48922,361.08033,119.91873)"/>
<use data-text="*" xlink:href="#font_3_13" transform="matrix(11.48922,0,0,-11.48922,364.27433,119.91873)"/>
<use data-text="*" xlink:href="#font_3_13" transform="matrix(11.48922,0,0,-11.48922,264.53257,148.64179)"/>
<use data-text="1" xlink:href="#font_3_20" transform="matrix(11.48922,0,0,-11.48922,322.77528,148.64179)"/>
<use data-text="." xlink:href="#font_3_17" transform="matrix(11.48922,0,0,-11.48922,329.16328,148.64179)"/>
<use data-text="." xlink:href="#font_3_17" transform="matrix(11.48922,0,0,-11.48922,332.35728,148.64179)"/>
<use data-text="*" xlink:href="#font_3_13" transform="matrix(11.48922,0,0,-11.48922,335.55128,148.64179)"/>
<use data-text="1" xlink:href="#font_3_20" transform="matrix(11.48922,0,0,-11.48922,193.52155,119.91873)"/>
<use data-text="." xlink:href="#font_3_17" transform="matrix(11.48922,0,0,-11.48922,199.90955,119.91873)"/>
<use data-text="." xlink:href="#font_3_17" transform="matrix(11.48922,0,0,-11.48922,203.10355,119.91873)"/>
<use data-text="*" xlink:href="#font_3_13" transform="matrix(11.48922,0,0,-11.48922,206.29755,119.91873)"/>
<use data-text="1" xlink:href="#font_3_20" transform="matrix(11.48922,0,0,-11.48922,206.12154,48.111108)"/>
<use data-text="*" xlink:href="#font_3_13" transform="matrix(11.48922,0,0,-11.48922,92.19426,148.64179)"/>
<use data-text="*" xlink:href="#font_3_13" transform="matrix(11.48922,0,0,-11.48922,164.00188,148.64179)"/>
<use data-text="*" xlink:href="#font_3_13" transform="matrix(11.48922,0,0,-11.48922,34.748159,119.91873)"/>
<use data-text="1" xlink:href="#font_3_20" transform="matrix(11.48922,0,0,-11.48922,91.22934,33.749586)"/>
</g>
</svg>
