<svg xmlns="http://www.w3.org/2000/svg" xmlns:xlink="http://www.w3.org/1999/xlink" xmlns:inkscape="http://www.inkscape.org/namespaces/inkscape" version="1.1" width="238.5" height="82.5" viewBox="0 0 238.5 82.5">
<defs>
<path id="font_1_1" d="M.4921875 0H.37890626L.1928711 .39831544 .13916016 .5263672V.20428467 0H.05810547V.6386719H.16992188L.34716798 .2613678 .4111328 .115234378V.45735169 .6386719H.4921875V0Z"/>
<path id="font_1_2" d="M.3930664 0 .39111329 .0660553C.36442057 .03963725 .33732096 .020558676 .30981446 .00881958 .28230796-.002919515 .25341798-.0087890629 .22314453-.0087890629 .19514974-.0087890629 .17122396-.005203247 .15136719 .0019683839 .13151042 .009140015 .11515299 .01900228 .10229492 .031555177 .08943685 .044108076 .07999674 .058863325 .07397461 .07582092 .06795248 .092778529 .064941409 .111200969 .064941409 .13108826 .064941409 .18032329 .08325195 .21887715 .11987305 .24674988 .15649414 .27463279 .21061199 .28857423 .28222657 .28857423H.38378907V.33139039C.38378907 .36026 .37451173 .38337199 .35595704 .40072633 .33740235 .41808067 .30908204 .4267578 .2709961 .4267578 .24332683 .4267578 .21606446 .4236196 .18920899 .41734315 .16235352 .41107688 .13460286 .4021708 .10595703 .390625V.46728517C.11669922 .47125245 .12866211 .47513835 .1418457 .47894288 .1550293 .4827474 .16894531 .48613487 .18359375 .48910523 .19824219 .49208579 .21354167 .4944814 .22949219 .4962921 .2454427 .498113 .261556 .49902345 .27783204 .49902345 .30745445 .49902345 .33414714 .49576823 .35791017 .4892578 .3816732 .4827474 .40177409 .472819 .4182129 .45947267 .4346517 .4461263 .44726563 .42936198 .4560547 .4091797 .46484376 .3889974 .46923829 .36523438 .46923829 .33789063V0H.3930664M.38378907 .22363281H.2758789C.25472007 .22363281 .23649089 .22150676 .2211914 .21725464 .20589192 .2130127 .19335938 .2069753 .18359375 .19914246 .17382813 .19130962 .16658528 .18192037 .16186524 .17097473 .15714519 .16003926 .15478516 .14771526 .15478516 .13400269 .15478516 .12453207 .15625 .115468349 .15917969 .10681152 .16210938 .09816488 .16682942 .09049479 .17333985 .08380127 .17985027 .07710775 .1883138 .07180277 .19873047 .06788635 .20914714 .06396993 .22184246 .06201172 .2368164 .06201172 .25634767 .06201172 .2787272 .067967738 .30395509 .07987976 .32918296 .091801967 .35579429 .11066183 .38378907 .13645935V.22363281Z"/>
<path id="font_1_3" d="M.42773438 0V.35205079C.42773438 .36735026 .4271647 .3798828 .4260254 .38964845 .42488609 .39941407 .4230957 .40714518 .4206543 .4128418 .4182129 .41853843 .41512046 .42252604 .41137696 .4248047 .40763346 .42708335 .40299479 .42822267 .39746095 .42822267 .39095054 .42822267 .38492839 .42626954 .37939454 .42236329 .3738607 .41845704 .36791993 .41210938 .36157228 .4033203 .3552246 .39453126 .34822593 .3828939 .34057618 .3684082 .33292643 .35392253 .32389323 .33610026 .31347657 .3149414V0H.23583985V.34277345C.23583985 .3606771 .23527019 .37516276 .23413086 .38623048 .23299153 .3972982 .23120117 .40592448 .22875977 .41210938 .22631836 .41829429 .22314453 .42252604 .21923828 .4248047 .21533203 .42708335 .21061199 .42822267 .20507813 .42822267 .19921875 .42822267 .19368489 .42659507 .18847656 .42333985 .18326824 .42008464 .17749024 .41422526 .17114258 .40576173 .16479492 .3972982 .15771485 .3857422 .14990235 .37109376 .14208985 .3564453 .1328125 .33772788 .12207031 .3149414V0H.043945314V.49023438H.10888672L.11279297 .39697267C.12125651 .41552735 .1294759 .4313151 .13745117 .44433595 .14542644 .45735679 .15364583 .46785484 .16210938 .47583009 .17057292 .48380534 .17960613 .4896647 .18920899 .4934082 .19881185 .4971517 .20947266 .49902345 .2211914 .49902345 .2475586 .49902345 .26757813 .49039714 .28125 .47314454 .29492188 .45589195 .3017578 .42919923 .3017578 .3930664 .3095703 .4099935 .31722007 .42504884 .32470704 .43823243 .332194 .45141603 .34025065 .46248374 .34887696 .47143556 .35750328 .48038737 .36702476 .4872233 .3774414 .49194337 .38785807 .49666343 .39990235 .49902345 .41357423 .49902345 .47509767 .49902345 .5058594 .45166017 .5058594 .3569336V0H.42773438Z"/>
<path id="font_1_4" d="M.4921875 .2709961C.4921875 .2589518 .49202476 .24886067 .49169923 .24072266 .4913737 .23258464 .4908854 .22493489 .49023438 .21777344H.1459961C.1459961 .16764324 .15999349 .12915039 .18798828 .10229492 .21598308 .07543945 .25634767 .06201172 .30908204 .06201172 .32340495 .06201172 .33772788 .06259155 .35205079 .06375122 .3663737 .06492106 .38020835 .06650289 .3935547 .068496707 .40690104 .070500697 .41967774 .07274882 .43188478 .07524109 .4440918 .07774353 .45540367 .0804952 .4658203 .083496097V.013671875C.44270835 .007019043 .4165853 .0016123453 .38745118-.0025482178 .35831706-.006708781 .328125-.0087890629 .296875-.0087890629 .2548828-.0087890629 .21875-.003092448 .18847656 .008300781 .15820313 .01969401 .13338216 .03621419 .11401367 .057861329 .09464518 .07950846 .080322269 .106038417 .07104492 .13745117 .061767579 .16886394 .057128908 .20442708 .057128908 .24414063 .057128908 .27864585 .062093099 .3112793 .072021488 .34204103 .08194987 .37280274 .09643555 .39982096 .115478519 .4230957 .13452149 .44637046 .15787761 .46484376 .18554688 .47851563 .21321614 .4921875 .2446289 .49902345 .27978517 .49902345 .31396485 .49902345 .34423829 .49365235 .37060548 .48291017 .39697267 .47216798 .41918946 .45694987 .43725587 .43725587 .45532228 .41756187 .46899415 .39363609 .47827149 .36547853 .48754884 .33732096 .4921875 .3058268 .4921875 .2709961M.4038086 .28320313C.40478517 .30501304 .40266929 .32495118 .39746095 .34301759 .3922526 .36108399 .38419596 .3766276 .37329103 .38964845 .36238609 .40266929 .34879557 .4128418 .33251954 .42016603 .3162435 .42749024 .29736329 .43115235 .2758789 .43115235 .25732423 .43115235 .24039714 .42757163 .22509766 .42041017 .20979817 .4132487 .19661458 .40315757 .18554688 .39013673 .17447917 .37711589 .16552735 .36149089 .1586914 .34326173 .15185547 .32503257 .1476237 .30501304 .1459961 .28320313H.4038086Z"/>
<path id="font_1_5" d="M.42089845 .2265625H.12890625V.30664063H.42089845V.2265625Z"/>
<path id="font_1_6" d="M.47314454 .0073242189C.4539388 .0022684735 .43408204-.0013529459 .41357423-.003540039 .3930664-.0057373049 .37223307-.0068359377 .35107423-.0068359377 .28955079-.0068359377 .24365235 .007080078 .2133789 .03491211 .18310547 .06274414 .16796875 .10546875 .16796875 .16308594V.4189453H.030761719V.49023438H.16796875V.62542727L.2529297 .64746096V.49023438H.47314454V.4189453H.2529297V.16992188C.2529297 .13476563 .26228843 .10847982 .28100587 .09106445 .2997233 .073649089 .3273112 .064941409 .36376954 .064941409 .37939454 .064941409 .39648438 .066197719 .41503907 .06871033 .43359376 .071233119 .45296226 .07518514 .47314454 .080566409V.0073242189Z"/>
<path id="font_1_7" d="M.09814453 .49023438H.17578125L.17822266 .40013124C.20719402 .43488059 .23575847 .4600474 .26391603 .4756317 .29207359 .4912262 .32047526 .49902345 .3491211 .49902345 .39990235 .49902345 .43839518 .48262535 .4645996 .4498291 .49080406 .41703288 .5029297 .3683268 .50097659 .30371095H.41503907C.41601563 .34650675 .40974937 .37754823 .39624024 .39683534 .3827311 .4161326 .36295573 .42578126 .33691407 .42578126 .32552085 .42578126 .31404624 .42375184 .30249024 .419693 .29093424 .41564433 .27905274 .40916444 .2668457 .4002533 .25463868 .39134217 .24169922 .37991334 .22802735 .3659668 .21435547 .35203044 .19970703 .33517457 .18408203 .31539918V0H.09814453V.49023438Z"/>
<path id="font_1_8" d="M.24511719 .41992188H.100097659V.49023438H.3310547V.07080078H.47705079V0H.083984378V.07080078H.24511719V.41992188M.27490235 .69628909C.28434245 .69628909 .2931315 .6945801 .30126954 .6911621 .30940757 .68774417 .31648765 .6829427 .32250978 .6767578 .3285319 .67057296 .33325196 .66349288 .33666993 .6555176 .3400879 .6475423 .34179688 .63883468 .34179688 .62939456 .34179688 .62027999 .3400879 .6116536 .33666993 .6035156 .33325196 .5953776 .3285319 .5882161 .32250978 .58203127 .31648765 .5758464 .30940757 .5710449 .30126954 .56762698 .2931315 .564209 .28434245 .5625 .27490235 .5625 .26546226 .5625 .2566732 .564209 .24853516 .56762698 .24039714 .5710449 .23331706 .5758464 .22729492 .58203127 .22127278 .5882161 .21655274 .5953776 .21313477 .6035156 .2097168 .6116536 .20800781 .62027999 .20800781 .62939456 .20800781 .63883468 .2097168 .6475423 .21313477 .6555176 .21655274 .66349288 .22127278 .67057296 .22729492 .6767578 .23331706 .6829427 .24039714 .68774417 .24853516 .6911621 .2566732 .6945801 .26546226 .69628909 .27490235 .69628909Z"/>
<path id="font_1_9" d="M.4970703 .25390626C.4970703 .21321614 .49145509 .17683919 .4802246 .14477539 .46899415 .112711589 .4530436 .0855306 .43237306 .06323242 .41170249 .040934247 .386556 .0238444 .3569336 .011962891 .3273112 .00008138021 .2939453-.005859375 .25683595-.005859375 .22786458-.005859375 .19824219-.003092448 .16796875 .0024414063 .13769531 .007975261 .1077474 .016764323 .078125 .028808594V.6904297H.16308594V.5001526L.15917969 .4091797C.18359375 .44205729 .2097168 .46525065 .23754883 .47875978 .26538087 .4922689 .2952474 .49902345 .32714845 .49902345 .35514323 .49902345 .37972007 .49316407 .4008789 .4814453 .42203776 .46972657 .43977867 .4532064 .45410157 .43188478 .46842448 .41056315 .47916667 .38484703 .48632813 .35473634 .4934896 .32462565 .4970703 .29101563 .4970703 .25390626M.41015626 .25C.41015626 .27571617 .40828453 .2993164 .40454103 .32080079 .40079753 .34228517 .39485679 .3606771 .38671876 .37597657 .37858073 .39127604 .36816407 .40323893 .35546876 .41186524 .34277345 .42049156 .32763673 .4248047 .3100586 .4248047 .2993164 .4248047 .28841148 .4230957 .27734376 .41967774 .26627604 .41625978 .25480143 .41056315 .24291992 .4025879 .2310384 .39461265 .21850586 .3840332 .20532227 .3708496 .19213867 .35766603 .17805989 .3413086 .16308594 .32177735V.083984378C.1796875 .07747396 .19661458 .07234701 .21386719 .068603519 .2311198 .06486002 .2475586 .06298828 .2631836 .06298828 .28271485 .06298828 .30135093 .06608073 .3190918 .072265628 .33683268 .07845052 .35245768 .088785808 .3659668 .103271488 .37947593 .117757167 .3902181 .13696289 .39819337 .16088867 .4061686 .18481446 .41015626 .21451824 .41015626 .25Z"/>
<path id="font_1_10" d="M.47216798 0H.3959961L.3930664 .07910156C.37841798 .06217448 .36450196 .048095704 .35131837 .036865236 .33813478 .025634766 .32503257 .016601563 .31201173 .009765625 .29899089 .0029296876 .28588868-.0018717448 .27270509-.004638672 .25952149-.007405599 .24560547-.0087890629 .23095703-.0087890629 .1805013-.0087890629 .14241536 .0060221354 .11669922 .03564453 .09098307 .06526693 .078125 .11002604 .078125 .16992188V.49023438H.16308594V.17675781C.16308594 .1015625 .19140625 .063964847 .24804688 .063964847 .25846354 .063964847 .26863609 .06551107 .27856446 .068603519 .28849284 .07169596 .29890953 .077067058 .30981446 .0847168 .3207194 .09236654 .33243815 .10270182 .3449707 .115722659 .35750328 .12874349 .37158204 .1451823 .38720704 .16503906V.49023438H.47216798V0Z"/>
<path id="font_1_11" d="M.4868164 0H.0859375V.07910156H.25V.54541018L.09716797 .46191407 .06591797 .5341797 .26904298 .64160159H.34423829V.07910156H.4868164V0Z"/>
<path id="font_1_12" d="M.4921875 0H.071777347V.076171878L.2368164 .24040222C.26383464 .26712547 .28580729 .29025779 .30273438 .3097992 .31966148 .3293508 .33284507 .34718833 .34228517 .36331178 .35172526 .3794454 .3580729 .39467875 .36132813 .40901185 .36458335 .42334495 .36621095 .43881736 .36621095 .45542909 .36621095 .47107444 .36409507 .48598228 .35986329 .5001526 .3556315 .51433309 .3491211 .5267995 .34033204 .5375519 .33154298 .5483144 .32014976 .55678817 .30615235 .562973 .29215495 .5691681 .27539063 .5722656 .25585938 .5722656 .22884114 .5722656 .20426433 .5661977 .1821289 .5540619 .15999349 .5419261 .13964844 .5261841 .12109375 .50683596L.07421875 .56318667C.09830729 .5886688 .12605794 .6090851 .1574707 .6244354 .18888347 .63978579 .22542317 .64746096 .26708985 .64746096 .29541017 .64746096 .32120768 .64322409 .34448243 .63475039 .36775718 .6262868 .38785807 .61406967 .40478517 .59809878 .42171226 .58213809 .43481446 .56259158 .4440918 .5394592 .45336915 .5163269 .4580078 .4902598 .4580078 .46125794 .4580078 .43682353 .4547526 .41417948 .4482422 .3933258 .44173179 .3724823 .43188478 .3517151 .41870118 .33102418 .40551759 .31033326 .38891603 .2889099 .36889649 .26675416 .34887696 .24460857 .3251953 .22033692 .29785157 .19393921L.1821289 .08105469H.4921875V0Z"/>
<path id="font_1_13" d="M.50878909 .22949219H.31689454V.030273438H.23291016V.22949219H.041015626V.30371095H.23291016V.5019531H.31689454V.30371095H.50878909V.22949219Z"/>
<path id="font_1_14" d="M.5048828 .24902344C.5048828 .2109375 .49951173 .17602539 .48876954 .14428711 .47802735 .11254883 .4625651 .085367839 .4423828 .06274414 .42220054 .04012044 .3976237 .022542319 .36865235 .010009766 .339681-.0025227864 .30680339-.0087890629 .27001954-.0087890629 .23486328-.0087890629 .20336914-.0033365887 .17553711 .0075683596 .14770508 .018473307 .12410482 .034505208 .10473633 .055664064 .085367839 .076822917 .07055664 .103027347 .060302736 .13427735 .050048829 .16552735 .044921876 .20149739 .044921876 .2421875 .044921876 .28027345 .05029297 .3150228 .061035158 .34643556 .071777347 .3778483 .087239589 .40486656 .107421878 .42749024 .12760417 .45011393 .15218099 .46769206 .18115235 .4802246 .2101237 .49275718 .2430013 .49902345 .27978517 .49902345 .3149414 .49902345 .34643556 .49357096 .37426759 .48266603 .4020996 .47176109 .42569987 .45581056 .44506837 .43481446 .46443687 .41381837 .47924806 .3876953 .48950196 .3564453 .49975587 .3251953 .5048828 .28938804 .5048828 .24902344M.41796876 .24511719C.41796876 .27539063 .41463218 .3018392 .40795899 .3244629 .4012858 .34708659 .3917643 .3659668 .37939454 .38110353 .36702476 .39624024 .3519694 .40763346 .33422853 .4152832 .31648765 .42293296 .29671226 .4267578 .27490235 .4267578 .24951172 .4267578 .2277832 .4217936 .2097168 .41186524 .19165039 .40193687 .17683919 .38867188 .1652832 .3720703 .15372722 .35546876 .14526367 .33618165 .13989258 .31420899 .13452149 .29223634 .13183594 .26920573 .13183594 .24511719 .13183594 .21484375 .13517253 .1883138 .1418457 .16552735 .14851888 .14274089 .15804036 .1237793 .17041016 .10864258 .18277996 .09350586 .1977539 .08211263 .21533203 .07446289 .23291016 .06681315 .25276695 .06298828 .27490235 .06298828 .30029298 .06298828 .32202149 .06795248 .3400879 .07788086 .3581543 .08780924 .37296549 .10107422 .38452149 .11767578 .39607749 .13427735 .40454103 .15356446 .4099121 .17553711 .4152832 .19750977 .41796876 .22070313 .41796876 .24511719Z"/>
<path id="font_1_15" d="M.4970703 .25390626C.4970703 .21028646 .4909668 .17220052 .47875978 .13964844 .46655274 .10709635 .44970704 .080078128 .42822267 .05859375 .40673829 .037109376 .38134767 .020996094 .35205079 .010253906 .3227539-.00048828127 .29101563-.005859375 .25683595-.005859375 .24121094-.005859375 .22566732-.0050455729 .21020508-.0034179688 .19474285-.0017903646 .17903646 .0009765625 .16308594 .0048828127V-.20019531H.078125V.49023438H.1538086L.15917969 .40820313C.18359375 .44173179 .20963542 .46525065 .23730469 .47875978 .26497398 .4922689 .29492188 .49902345 .32714845 .49902345 .35514323 .49902345 .37972007 .49316407 .4008789 .4814453 .42203776 .46972657 .43977867 .4532064 .45410157 .43188478 .46842448 .41056315 .47916667 .38484703 .48632813 .35473634 .4934896 .32462565 .4970703 .29101563 .4970703 .25390626M.41015626 .25C.41015626 .27571617 .40828453 .2993164 .40454103 .32080079 .40079753 .34228517 .39485679 .3606771 .38671876 .37597657 .37858073 .39127604 .36816407 .40323893 .35546876 .41186524 .34277345 .42049156 .32763673 .4248047 .3100586 .4248047 .2993164 .4248047 .28841148 .4230957 .27734376 .41967774 .26627604 .41625978 .25480143 .41056315 .24291992 .4025879 .2310384 .39461265 .21850586 .3840332 .20532227 .3708496 .19213867 .35766603 .17805989 .3413086 .16308594 .32177735V.083984378C.17871094 .07747396 .19514974 .07234701 .21240235 .068603519 .22965496 .06486002 .24658203 .06298828 .2631836 .06298828 .30908204 .06298828 .3450521 .0785319 .37109376 .10961914 .3971354 .14070638 .41015626 .1875 .41015626 .25Z"/>
<path id="font_1_16" d="M.078125 .49023438H.1538086L.15722656 .4111328C.17154949 .4280599 .18538411 .44213868 .19873047 .45336915 .21207683 .4645996 .22517903 .4736328 .23803711 .48046876 .25089518 .4873047 .2639974 .4921061 .27734376 .49487306 .2906901 .49763999 .30452476 .49902345 .31884767 .49902345 .36930339 .49902345 .4074707 .48413087 .4333496 .4543457 .45922853 .42456056 .47216798 .37972007 .47216798 .31982423V0H.38720704V.31298829C.38720704 .35139976 .38004557 .37980143 .36572267 .39819337 .35139976 .4165853 .33007813 .42578126 .3017578 .42578126 .29134117 .42578126 .2811686 .42423503 .27124024 .42114259 .26131187 .41805015 .25097657 .41267906 .24023438 .4050293 .22949219 .39737956 .21785482 .38704429 .20532227 .37402345 .19278972 .3610026 .17871094 .34472657 .16308594 .3251953V0H.078125V.49023438Z"/>
<path id="font_1_17" d="M.37158204-.20507813C.22151692-.06600952 .14648438 .08771769 .14648438 .25610353 .14648438 .29551188 .150472 .33483888 .15844727 .37408448 .16642253 .41333009 .1792806 .45265708 .19702149 .49206544 .21476238 .5314738 .23819988 .57088217 .26733399 .6102905 .2964681 .6496989 .3318685 .68878176 .37353517 .72753909L.42285157 .6772156C.29654948 .55248007 .23339844 .41422526 .23339844 .26245118 .23339844 .18688965 .24934896 .11425781 .28125 .044555665 .31315104-.025136313 .36035157-.090922039 .42285157-.15280152L.37158204-.20507813Z"/>
<path id="font_1_18" d="M.17822266 .72753909C.32828776 .58847048 .4033203 .4337667 .4033203 .26342774 .4033203 .22825115 .3997396 .19177246 .39257813 .1539917 .38541667 .11621094 .37320964 .077534999 .35595704 .037963869 .33870445-.0016072592 .31551109-.041748048 .28637696-.082458499 .25724284-.123168949 .22054036-.16404216 .17626953-.20507813L.12695313-.15475464C.19042969-.0918986 .23779297-.026275635 .26904298 .042114259 .30029298 .11051432 .31591798 .1821696 .31591798 .25708009 .31591798 .41210938 .2529297 .5515035 .12695313 .67526248L.17822266 .72753909Z"/>
<path id="font_1_19" d="M.4663086 .13378906C.4663086 .11653646 .4633789 .10107422 .45751954 .087402347 .45166017 .07373047 .4436849 .061604818 .43359376 .05102539 .4235026 .040445966 .41178385 .03141276 .3984375 .023925782 .38509117 .016438803 .3708496 .010253906 .3557129 .0053710939 .34057618 .00048828127 .32503257-.003092448 .30908204-.0053710939 .2931315-.0076497399 .2775065-.0087890629 .26220704-.0087890629 .2290039-.0087890629 .19848633-.0073242189 .1706543-.0043945314 .14282227-.0014648438 .1155599 .0032552083 .08886719 .009765625V.087890628C.11751302 .0797526 .1459961 .07356771 .1743164 .06933594 .20263672 .065104167 .23079427 .06298828 .25878907 .06298828 .29947917 .06298828 .32958985 .06852213 .3491211 .079589847 .36865235 .090657558 .37841798 .10644531 .37841798 .12695313 .37841798 .13574219 .37687174 .14363607 .3737793 .15063477 .37068687 .15763347 .36507163 .16430664 .3569336 .1706543 .34879557 .17700196 .33618165 .18359375 .3190918 .19042969 .30200196 .19726563 .27864585 .20507813 .24902344 .21386719 .22688802 .22037761 .2064616 .2277832 .18774414 .23608399 .16902669 .24438477 .15283203 .25423179 .13916016 .265625 .12548828 .27701823 .114746097 .2903646 .106933597 .30566407 .099121097 .32096354 .095214847 .33902995 .095214847 .35986329 .095214847 .37353517 .09838867 .38850913 .10473633 .40478517 .111083988 .4210612 .121907558 .4361979 .13720703 .4501953 .15250652 .46419273 .17317708 .47583009 .19921875 .48510743 .22526042 .49438478 .2578125 .49902345 .296875 .49902345 .31608073 .49902345 .33740235 .49796549 .36083985 .4958496 .38427735 .49373374 .4086914 .49007163 .43408204 .48486329V.4091797C.4073893 .4156901 .38208009 .42049156 .3581543 .42358399 .33422853 .42667643 .31347657 .42822267 .29589845 .42822267 .2747396 .42822267 .25691734 .42659507 .24243164 .42333985 .22794597 .42008464 .21622722 .41560874 .20727539 .4099121 .19832357 .40421549 .19189453 .39754234 .18798828 .38989259 .18408203 .38224284 .1821289 .37402345 .1821289 .36523438 .1821289 .3564453 .18383789 .34847007 .18725586 .3413086 .19067383 .33414714 .19702149 .32722984 .20629883 .32055665 .21557617 .31388346 .22851563 .3072103 .24511719 .3005371 .26171876 .29386393 .28336589 .2866211 .3100586 .2788086 .33902995 .27034507 .363444 .2614746 .38330079 .25219728 .40315757 .24291992 .41927085 .23258464 .43164063 .2211914 .4440104 .20979817 .45288087 .19694011 .45825196 .18261719 .46362306 .16829427 .4663086 .15201824 .4663086 .13378906Z"/>
<path id="font_1_20" d="M.51416018 .49023438 .34716798 .051757814C.32991538 .0071614587 .3120931-.03125 .29370118-.06347656 .27530924-.095703128 .25520835-.122151698 .23339844-.14282227 .21158855-.16349285 .18766277-.17871094 .1616211-.18847656 .13557942-.19824219 .10644531-.203125 .07421875-.203125 .06575521-.203125 .05810547-.20296224 .05126953-.20263672 .044433595-.2023112 .036946615-.20182292 .028808594-.20117188V-.12402344C.03597005-.125 .04378255-.12589519 .052246095-.12670899 .060709638-.12752278 .06966146-.12792969 .07910156-.12792969 .09472656-.12792969 .10929362-.12565105 .122802738-.12109375 .13631185-.11653646 .14908855-.10913086 .16113281-.09887695 .17317708-.08862305 .18473308-.07535807 .19580078-.05908203 .20686849-.04280599 .21761067-.023111979 .22802735 0L.032226564 .49023438H.12890625L.2529297 .16601563 .27783204 .08984375 .30615235 .16796875 .42089845 .49023438H.51416018Z"/>
<path id="font_1_21" d="M.24511719 .62060549H.100097659V.6904297H.3310547V.07080078H.47705079V0H.083984378V.07080078H.24511719V.62060549Z"/>
<path id="font_1_22" d="M0 0Z"/>
<path id="font_1_23" d="M.032226564 .49023438H.12890625L.24902344 .16601563 .27490235 .08691406 .3017578 .16796875 .42089845 .49023438H.51416018L.32177735 0H.2241211L.032226564 .49023438Z"/>
<path id="font_1_24" d="M.45898438 .018066407C.43684898 .009602864 .4141439 .0033365887 .39086915-.0007324219 .3675944-.004801432 .34358726-.0068359377 .31884767-.0068359377 .2413737-.0068359377 .181722 .014160156 .13989258 .056152345 .09806315 .09814453 .07714844 .1595052 .07714844 .24023438 .07714844 .27897135 .08317057 .3141276 .095214847 .34570313 .10725912 .37727867 .124186199 .40429688 .1459961 .4267578 .16780599 .44921876 .19384766 .46655274 .2241211 .47875978 .25439454 .4909668 .2877604 .4970703 .32421876 .4970703 .34960938 .4970703 .3733724 .49523927 .3955078 .49157716 .41764323 .4879252 .4388021 .48194377 .45898438 .4736328V.39257813C.43782554 .40381877 .41625978 .41199748 .3942871 .41711427 .37231446 .4222412 .34960938 .4248047 .32617188 .4248047 .30436198 .4248047 .2837728 .4206543 .2644043 .41235353 .24503581 .40405274 .22802735 .39208985 .2133789 .37646485 .19873047 .36083985 .18717449 .34179688 .17871094 .31933595 .17024739 .296875 .16601563 .27148438 .16601563 .24316406 .16601563 .18391927 .18041992 .13956706 .20922852 .11010742 .23803711 .08064779 .27799479 .06591797 .32910157 .06591797 .35221354 .06591797 .3745931 .06852213 .39624024 .07373047 .41788737 .078938808 .4388021 .086751308 .45898438 .09716797V.018066407Z"/>
</defs>
<g>
<path d="M4.5 6H72V74.676H4.5Z" fill="#fefece"/>
<path stroke-width="1.125" stroke-linecap="butt" stroke-miterlimit="4" stroke-linejoin="miter" fill="none" stroke="#a80036" d="M4.5 6H72V74.676H4.5Z"/>
<use data-text="N" xlink:href="#font_1_1" transform="matrix(9.531915,0,0,-9,27.75,18.741225)"/>
<use data-text="a" xlink:href="#font_1_2" transform="matrix(9.531915,0,0,-9,32.98302,18.741225)"/>
<use data-text="m" xlink:href="#font_1_3" transform="matrix(9.531915,0,0,-9,38.21604,18.741225)"/>
<use data-text="e" xlink:href="#font_1_4" transform="matrix(9.531915,0,0,-9,43.477659,18.741225)"/>
<path stroke-width="1.125" stroke-linecap="butt" stroke-miterlimit="4" stroke-linejoin="miter" fill="none" stroke="#a80036" d="M5.25 24.039H71.25"/>
<use data-text="-" xlink:href="#font_1_5" transform="matrix(8.170213,0,0,-8.25,9,35.280004)"/>
<use data-text="a" xlink:href="#font_1_2" transform="matrix(8.170213,0,0,-8.25,13.485447,35.280004)"/>
<use data-text="t" xlink:href="#font_1_6" transform="matrix(8.170213,0,0,-8.25,17.970894,35.280004)"/>
<use data-text="t" xlink:href="#font_1_6" transform="matrix(8.170213,0,0,-8.25,22.480853,35.280004)"/>
<use data-text="r" xlink:href="#font_1_7" transform="matrix(8.170213,0,0,-8.25,26.9663,35.280004)"/>
<use data-text="i" xlink:href="#font_1_8" transform="matrix(8.170213,0,0,-8.25,31.451746,35.280004)"/>
<use data-text="b" xlink:href="#font_1_9" transform="matrix(8.170213,0,0,-8.25,35.961706,35.280004)"/>
<use data-text="u" xlink:href="#font_1_10" transform="matrix(8.170213,0,0,-8.25,40.44715,35.280004)"/>
<use data-text="t" xlink:href="#font_1_6" transform="matrix(8.170213,0,0,-8.25,44.9326,35.280004)"/>
<use data-text="e" xlink:href="#font_1_4" transform="matrix(8.170213,0,0,-8.25,49.442556,35.280004)"/>
<use data-text="1" xlink:href="#font_1_11" transform="matrix(8.170213,0,0,-8.25,53.928,35.280004)"/>
<use data-text="-" xlink:href="#font_1_5" transform="matrix(8.170213,0,0,-8.25,9,44.939928)"/>
<use data-text="a" xlink:href="#font_1_2" transform="matrix(8.170213,0,0,-8.25,13.485447,44.939928)"/>
<use data-text="t" xlink:href="#font_1_6" transform="matrix(8.170213,0,0,-8.25,17.970894,44.939928)"/>
<use data-text="t" xlink:href="#font_1_6" transform="matrix(8.170213,0,0,-8.25,22.480853,44.939928)"/>
<use data-text="r" xlink:href="#font_1_7" transform="matrix(8.170213,0,0,-8.25,26.9663,44.939928)"/>
<use data-text="i" xlink:href="#font_1_8" transform="matrix(8.170213,0,0,-8.25,31.451746,44.939928)"/>
<use data-text="b" xlink:href="#font_1_9" transform="matrix(8.170213,0,0,-8.25,35.961706,44.939928)"/>
<use data-text="u" xlink:href="#font_1_10" transform="matrix(8.170213,0,0,-8.25,40.44715,44.939928)"/>
<use data-text="t" xlink:href="#font_1_6" transform="matrix(8.170213,0,0,-8.25,44.9326,44.939928)"/>
<use data-text="e" xlink:href="#font_1_4" transform="matrix(8.170213,0,0,-8.25,49.442556,44.939928)"/>
<use data-text="2" xlink:href="#font_1_12" transform="matrix(8.170213,0,0,-8.25,53.928,44.939928)"/>
<path stroke-width="1.125" stroke-linecap="butt" stroke-miterlimit="4" stroke-linejoin="miter" fill="none" stroke="#a80036" d="M5.25 49.359H71.25"/>
<use data-text="+" xlink:href="#font_1_13" transform="matrix(8.170213,0,0,-8.25,9,60.59985)"/>
<use data-text="o" xlink:href="#font_1_14" transform="matrix(8.170213,0,0,-8.25,13.485447,60.59985)"/>
<use data-text="p" xlink:href="#font_1_15" transform="matrix(8.170213,0,0,-8.25,17.970894,60.59985)"/>
<use data-text="e" xlink:href="#font_1_4" transform="matrix(8.170213,0,0,-8.25,22.480853,60.59985)"/>
<use data-text="r" xlink:href="#font_1_7" transform="matrix(8.170213,0,0,-8.25,26.9663,60.59985)"/>
<use data-text="a" xlink:href="#font_1_2" transform="matrix(8.170213,0,0,-8.25,31.451746,60.59985)"/>
<use data-text="t" xlink:href="#font_1_6" transform="matrix(8.170213,0,0,-8.25,35.961706,60.59985)"/>
<use data-text="i" xlink:href="#font_1_8" transform="matrix(8.170213,0,0,-8.25,40.44715,60.59985)"/>
<use data-text="o" xlink:href="#font_1_14" transform="matrix(8.170213,0,0,-8.25,44.9326,60.59985)"/>
<use data-text="n" xlink:href="#font_1_16" transform="matrix(8.170213,0,0,-8.25,49.442556,60.59985)"/>
<use data-text="1" xlink:href="#font_1_11" transform="matrix(8.170213,0,0,-8.25,53.928,60.59985)"/>
<use data-text="(" xlink:href="#font_1_17" transform="matrix(8.170213,0,0,-8.25,58.41345,60.59985)"/>
<use data-text=")" xlink:href="#font_1_18" transform="matrix(8.170213,0,0,-8.25,62.923406,60.59985)"/>
<use data-text="+" xlink:href="#font_1_13" transform="matrix(8.170213,0,0,-8.25,9,70.25978)"/>
<use data-text="o" xlink:href="#font_1_14" transform="matrix(8.170213,0,0,-8.25,13.485447,70.25978)"/>
<use data-text="p" xlink:href="#font_1_15" transform="matrix(8.170213,0,0,-8.25,17.970894,70.25978)"/>
<use data-text="e" xlink:href="#font_1_4" transform="matrix(8.170213,0,0,-8.25,22.480853,70.25978)"/>
<use data-text="r" xlink:href="#font_1_7" transform="matrix(8.170213,0,0,-8.25,26.9663,70.25978)"/>
<use data-text="a" xlink:href="#font_1_2" transform="matrix(8.170213,0,0,-8.25,31.451746,70.25978)"/>
<use data-text="t" xlink:href="#font_1_6" transform="matrix(8.170213,0,0,-8.25,35.961706,70.25978)"/>
<use data-text="i" xlink:href="#font_1_8" transform="matrix(8.170213,0,0,-8.25,40.44715,70.25978)"/>
<use data-text="o" xlink:href="#font_1_14" transform="matrix(8.170213,0,0,-8.25,44.9326,70.25978)"/>
<use data-text="n" xlink:href="#font_1_16" transform="matrix(8.170213,0,0,-8.25,49.442556,70.25978)"/>
<use data-text="2" xlink:href="#font_1_12" transform="matrix(8.170213,0,0,-8.25,53.928,70.25978)"/>
<use data-text="(" xlink:href="#font_1_17" transform="matrix(8.170213,0,0,-8.25,58.41345,70.25978)"/>
<use data-text=")" xlink:href="#font_1_18" transform="matrix(8.170213,0,0,-8.25,62.923406,70.25978)"/>
<path d="M98.625 25.5V37.5L72.211 40.5 98.625 43.5V55.832H229.875V33L222.375 25.5H98.625" fill="#fbfb77"/>
<path stroke-width=".75" stroke-linecap="butt" stroke-miterlimit="4" stroke-linejoin="miter" fill="none" stroke="#a80036" d="M98.625 25.5V37.5L72.211 40.5 98.625 43.5V55.832H229.875V33L222.375 25.5H98.625"/>
<path d="M222.375 25.5V33H229.875L222.375 25.5" fill="#fbfb77"/>
<path stroke-width=".75" stroke-linecap="butt" stroke-miterlimit="4" stroke-linejoin="miter" fill="none" stroke="#a80036" d="M222.375 25.5V33H229.875L222.375 25.5"/>
<use data-text="s" xlink:href="#font_1_19" transform="matrix(9.531915,0,0,-9.75,103.125,38.990476)"/>
<use data-text="y" xlink:href="#font_1_20" transform="matrix(9.531915,0,0,-9.75,108.358028,38.990476)"/>
<use data-text="m" xlink:href="#font_1_3" transform="matrix(9.531915,0,0,-9.75,113.59105,38.990476)"/>
<use data-text="b" xlink:href="#font_1_9" transform="matrix(9.531915,0,0,-9.75,118.85267,38.990476)"/>
<use data-text="o" xlink:href="#font_1_14" transform="matrix(9.531915,0,0,-9.75,124.08569,38.990476)"/>
<use data-text="l" xlink:href="#font_1_21" transform="matrix(9.531915,0,0,-9.75,129.31871,38.990476)"/>
<use data-text=" " xlink:href="#font_1_22" transform="matrix(9.531915,0,0,-9.75,134.58032,38.990476)"/>
<use data-text="-" xlink:href="#font_1_5" transform="matrix(9.531915,0,0,-9.75,139.81334,38.990476)"/>
<use data-text=" " xlink:href="#font_1_22" transform="matrix(9.531915,0,0,-9.75,145.04636,38.990476)"/>
<use data-text="m" xlink:href="#font_1_3" transform="matrix(9.531915,0,0,-9.75,150.30797,38.990476)"/>
<use data-text="e" xlink:href="#font_1_4" transform="matrix(9.531915,0,0,-9.75,155.54099,38.990476)"/>
<use data-text="a" xlink:href="#font_1_2" transform="matrix(9.531915,0,0,-9.75,160.774,38.990476)"/>
<use data-text="n" xlink:href="#font_1_16" transform="matrix(9.531915,0,0,-9.75,166.03562,38.990476)"/>
<use data-text="s" xlink:href="#font_1_19" transform="matrix(9.531915,0,0,-9.75,171.26863,38.990476)"/>
<use data-text=" " xlink:href="#font_1_22" transform="matrix(9.531915,0,0,-9.75,176.50165,38.990476)"/>
<use data-text="p" xlink:href="#font_1_15" transform="matrix(9.531915,0,0,-9.75,181.76326,38.990476)"/>
<use data-text="r" xlink:href="#font_1_7" transform="matrix(9.531915,0,0,-9.75,186.99628,38.990476)"/>
<use data-text="i" xlink:href="#font_1_8" transform="matrix(9.531915,0,0,-9.75,192.2293,38.990476)"/>
<use data-text="v" xlink:href="#font_1_23" transform="matrix(9.531915,0,0,-9.75,197.4909,38.990476)"/>
<use data-text="a" xlink:href="#font_1_2" transform="matrix(9.531915,0,0,-9.75,202.72393,38.990476)"/>
<use data-text="t" xlink:href="#font_1_6" transform="matrix(9.531915,0,0,-9.75,207.95694,38.990476)"/>
<use data-text="e" xlink:href="#font_1_4" transform="matrix(9.531915,0,0,-9.75,213.21855,38.990476)"/>
<use data-text="s" xlink:href="#font_1_19" transform="matrix(9.531915,0,0,-9.75,103.125,50.40675)"/>
<use data-text="y" xlink:href="#font_1_20" transform="matrix(9.531915,0,0,-9.75,108.358028,50.40675)"/>
<use data-text="m" xlink:href="#font_1_3" transform="matrix(9.531915,0,0,-9.75,113.59105,50.40675)"/>
<use data-text="b" xlink:href="#font_1_9" transform="matrix(9.531915,0,0,-9.75,118.85267,50.40675)"/>
<use data-text="o" xlink:href="#font_1_14" transform="matrix(9.531915,0,0,-9.75,124.08569,50.40675)"/>
<use data-text="l" xlink:href="#font_1_21" transform="matrix(9.531915,0,0,-9.75,129.31871,50.40675)"/>
<use data-text=" " xlink:href="#font_1_22" transform="matrix(9.531915,0,0,-9.75,134.58032,50.40675)"/>
<use data-text="+" xlink:href="#font_1_13" transform="matrix(9.531915,0,0,-9.75,139.81334,50.40675)"/>
<use data-text=" " xlink:href="#font_1_22" transform="matrix(9.531915,0,0,-9.75,145.04636,50.40675)"/>
<use data-text="m" xlink:href="#font_1_3" transform="matrix(9.531915,0,0,-9.75,150.30797,50.40675)"/>
<use data-text="e" xlink:href="#font_1_4" transform="matrix(9.531915,0,0,-9.75,155.54099,50.40675)"/>
<use data-text="a" xlink:href="#font_1_2" transform="matrix(9.531915,0,0,-9.75,160.774,50.40675)"/>
<use data-text="n" xlink:href="#font_1_16" transform="matrix(9.531915,0,0,-9.75,166.03562,50.40675)"/>
<use data-text="s" xlink:href="#font_1_19" transform="matrix(9.531915,0,0,-9.75,171.26863,50.40675)"/>
<use data-text=" " xlink:href="#font_1_22" transform="matrix(9.531915,0,0,-9.75,176.50165,50.40675)"/>
<use data-text="p" xlink:href="#font_1_15" transform="matrix(9.531915,0,0,-9.75,181.76326,50.40675)"/>
<use data-text="u" xlink:href="#font_1_10" transform="matrix(9.531915,0,0,-9.75,186.99628,50.40675)"/>
<use data-text="b" xlink:href="#font_1_9" transform="matrix(9.531915,0,0,-9.75,192.2293,50.40675)"/>
<use data-text="l" xlink:href="#font_1_21" transform="matrix(9.531915,0,0,-9.75,197.4909,50.40675)"/>
<use data-text="i" xlink:href="#font_1_8" transform="matrix(9.531915,0,0,-9.75,202.72393,50.40675)"/>
<use data-text="c" xlink:href="#font_1_24" transform="matrix(9.531915,0,0,-9.75,207.95694,50.40675)"/>
</g>
</svg>
