<?plantuml 1.2026.1?><svg xmlns="http://www.w3.org/2000/svg" xmlns:xlink="http://www.w3.org/1999/xlink" contentStyleType="text/css" data-diagram-type="CLASS" height="128px" preserveAspectRatio="none" style="width:294px;height:128px;background:#FFFFFF;" version="1.1" viewBox="0 0 294 128" width="294px" zoomAndPan="magnify"><defs/><g><!--class Name--><g class="entity" data-qualified-name="Name" data-source-line="2" id="ent0002"><rect fill="#F1F1F1" height="114.0469" rx="2.5" ry="2.5" style="stroke:#181818;stroke-width:0.5;" width="87.4893" x="7" y="7"/><text fill="#000000" font-family="sans-serif" font-size="14" lengthAdjust="spacing" textLength="37.3447" x="32.0723" y="26.5332">Name</text><line style="stroke:#181818;stroke-width:0.5;" x1="8" x2="93.4893" y1="34.6094" y2="34.6094"/><text fill="#000000" font-family="sans-serif" font-size="14" lengthAdjust="spacing" textLength="58.3721" x="13" y="53.1426">attribute1</text><text fill="#000000" font-family="sans-serif" font-size="14" lengthAdjust="spacing" textLength="58.3721" x="13" y="70.752">attribute2</text><line style="stroke:#181818;stroke-width:0.5;" x1="8" x2="93.4893" y1="77.8281" y2="77.8281"/><text fill="#000000" font-family="sans-serif" font-size="14" lengthAdjust="spacing" textLength="75.4893" x="13" y="96.3613">operation1()</text><text fill="#000000" font-family="sans-serif" font-size="14" font-style="italic" lengthAdjust="spacing" textLength="75.4893" x="13" y="113.9707">operation2()</text></g><g class="entity" data-qualified-name="GMN3" data-source-line="8" id="ent0004"><path d="M129.5,51 L129.5,60 L94.01,64 L129.5,68 L129.5,77.3516 A0,0 0 0 0 129.5,77.3516 L287.7681,77.3516 A0,0 0 0 0 287.7681,77.3516 L287.7681,61 L277.7681,51 L129.5,51 A0,0 0 0 0 129.5,51" fill="#FEFFDD" style="stroke:#181818;stroke-width:0.5;"/><path d="M277.7681,51 L277.7681,61 L287.7681,61 L277.7681,51" fill="#FEFFDD" style="stroke:#181818;stroke-width:0.5;"/><text fill="#000000" font-family="sans-serif" font-size="13" lengthAdjust="spacing" textLength="137.2681" x="135.5" y="69.4951">italic style means virtual</text></g><?plantuml-src PSan3i9G30FGdLDuXB4TEGHtI4D48wN_etmN2LMzEr2XCk31afy1OFIhGJqrxF2Uq93MS979i6pmYP3fmqph_gdVgTujXLvBTppjkCZGcA9SVt___TUjIwKX_JRo3AU4AngVOPXCIiF3axF42m00?></g></svg>