<?plantuml 1.2026.1?><svg xmlns="http://www.w3.org/2000/svg" xmlns:xlink="http://www.w3.org/1999/xlink" contentStyleType="text/css" data-diagram-type="CLASS" height="92px" preserveAspectRatio="none" style="width:306px;height:92px;background:#FFFFFF;" version="1.1" viewBox="0 0 306 92" width="306px" zoomAndPan="magnify"><defs/><g><!--class Name--><g class="entity" data-qualified-name="Name" data-source-line="2" id="ent0002"><rect fill="#F1F1F1" height="78.8281" rx="2.5" ry="2.5" style="stroke:#181818;stroke-width:0.5;" width="87.4893" x="7" y="7"/><text fill="#000000" font-family="sans-serif" font-size="14" font-style="italic" lengthAdjust="spacing" textLength="37.3447" x="32.0723" y="26.5332">Name</text><line style="stroke:#181818;stroke-width:0.5;" x1="8" x2="93.4893" y1="34.6094" y2="34.6094"/><line style="stroke:#181818;stroke-width:0.5;" x1="8" x2="93.4893" y1="42.6094" y2="42.6094"/><text fill="#000000" font-family="sans-serif" font-size="14" font-style="italic" lengthAdjust="spacing" textLength="75.4893" x="13" y="61.1426">operation1()</text><text fill="#000000" font-family="sans-serif" font-size="14" font-style="italic" lengthAdjust="spacing" textLength="75.4893" x="13" y="78.752">operation2()</text></g><g class="entity" data-qualified-name="GMN3" data-source-line="6" id="ent0004"><path d="M129.5,33.5 L129.5,42.5 L94.06,46.5 L129.5,50.5 L129.5,59.8516 A0,0 0 0 0 129.5,59.8516 L299.3335,59.8516 A0,0 0 0 0 299.3335,59.8516 L299.3335,43.5 L289.3335,33.5 L129.5,33.5 A0,0 0 0 0 129.5,33.5" fill="#FEFFDD" style="stroke:#181818;stroke-width:0.5;"/><path d="M289.3335,33.5 L289.3335,43.5 L299.3335,43.5 L289.3335,33.5" fill="#FEFFDD" style="stroke:#181818;stroke-width:0.5;"/><text fill="#000000" font-family="sans-serif" font-size="13" lengthAdjust="spacing" textLength="148.8335" x="135.5" y="51.9951">italic style means abstract</text></g><?plantuml-src VSqx2e1030JGtbDCgQMM7i8xn1WqiExA9es8T_U3MZh5mF2A0O191m5hvY35EK6zUIPsS20pT3GBjbkkR2_lI8jaSasnBgjVRnxVxux91Ld7oLkeKr26-He4ir2qx_u0?></g></svg>