<?plantuml 1.2026.1?><svg xmlns="http://www.w3.org/2000/svg" xmlns:xlink="http://www.w3.org/1999/xlink" contentStyleType="text/css" data-diagram-type="CLASS" height="132.5px" preserveAspectRatio="none" style="width:75px;height:132px;background:#FFFFFF;" version="1.1" viewBox="0 0 75 132" width="75px" zoomAndPan="magnify"><defs/><g><!--class ClassA--><g class="entity" data-qualified-name="ClassA" data-source-line="3" id="ent0002"><rect fill="#F1F1F1" height="21.8047" rx="1.25" ry="1.25" style="stroke:#181818;stroke-width:0.25;" width="25.1724" x="25" y="3.5"/><text fill="#000000" font-family="sans-serif" font-size="7" lengthAdjust="spacing" textLength="22.1724" x="26.5" y="13.2666">ClassA</text><line style="stroke:#181818;stroke-width:0.25;" x1="25.5" x2="49.6724" y1="17.3047" y2="17.3047"/><line style="stroke:#181818;stroke-width:0.25;" x1="25.5" x2="49.6724" y1="21.3047" y2="21.3047"/></g><!--class ClassB--><g class="entity" data-qualified-name="ClassB" data-source-line="3" id="ent0003"><rect fill="#F1F1F1" height="21.8047" rx="1.25" ry="1.25" style="stroke:#181818;stroke-width:0.25;" width="25.1724" x="3.5" y="55.5"/><text fill="#000000" font-family="sans-serif" font-size="7" lengthAdjust="spacing" textLength="22.1724" x="5" y="65.2666">ClassB</text><line style="stroke:#181818;stroke-width:0.25;" x1="4" x2="28.1724" y1="69.3047" y2="69.3047"/><line style="stroke:#181818;stroke-width:0.25;" x1="4" x2="28.1724" y1="73.3047" y2="73.3047"/></g><!--class ClassC--><g class="entity" data-qualified-name="ClassC" data-source-line="4" id="ent0005"><rect fill="#F1F1F1" height="21.8047" rx="1.25" ry="1.25" style="stroke:#181818;stroke-width:0.25;" width="25.5586" x="46.25" y="55.5"/><text fill="#000000" font-family="sans-serif" font-size="7" lengthAdjust="spacing" textLength="22.5586" x="47.75" y="65.2666">ClassC</text><line style="stroke:#181818;stroke-width:0.25;" x1="46.75" x2="71.3086" y1="69.3047" y2="69.3047"/><line style="stroke:#181818;stroke-width:0.25;" x1="46.75" x2="71.3086" y1="73.3047" y2="73.3047"/></g><!--class ClassD--><g class="entity" data-qualified-name="ClassD" data-source-line="5" id="ent0007"><rect fill="#F1F1F1" height="21.8047" rx="1.25" ry="1.25" style="stroke:#181818;stroke-width:0.25;" width="25.5586" x="24.75" y="107.5"/><text fill="#000000" font-family="sans-serif" font-size="7" lengthAdjust="spacing" textLength="22.5586" x="26.25" y="117.2666">ClassD</text><line style="stroke:#181818;stroke-width:0.25;" x1="25.25" x2="49.8086" y1="121.3047" y2="121.3047"/><line style="stroke:#181818;stroke-width:0.25;" x1="25.25" x2="49.8086" y1="125.3047" y2="125.3047"/></g><!--reverse link ClassA to ClassB--><g class="link" data-entity-1="ent0002" data-entity-2="ent0003" data-link-type="extension" data-source-line="3" id="lnk4"><path codeLine="3" d="M29.5495,33.8585 C25.8595,42.6135 24.135,46.695 20.45,55.445" fill="none" id="ClassA-backto-ClassB" style="stroke:#181818;stroke-width:0.5;"/><polygon fill="none" points="33.045,25.565,26.785,32.6933,32.314,35.0236,33.045,25.565" style="stroke:#181818;stroke-width:0.5;"/></g><!--reverse link ClassA to ClassC--><g class="link" data-entity-1="ent0002" data-entity-2="ent0005" data-link-type="extension" data-source-line="4" id="lnk6"><path codeLine="4" d="M45.4505,33.8585 C49.1405,42.6135 50.865,46.695 54.55,55.445" fill="none" id="ClassA-backto-ClassC" style="stroke:#181818;stroke-width:0.5;"/><polygon fill="none" points="41.955,25.565,42.686,35.0236,48.215,32.6933,41.955,25.565" style="stroke:#181818;stroke-width:0.5;"/></g><!--reverse link ClassB to ClassD--><g class="link" data-entity-1="ent0003" data-entity-2="ent0007" data-link-type="extension" data-source-line="5" id="lnk8"><path codeLine="5" d="M23.9505,85.8585 C27.6405,94.6135 29.365,98.695 33.05,107.445" fill="none" id="ClassB-backto-ClassD" style="stroke:#181818;stroke-width:0.5;"/><polygon fill="none" points="20.455,77.565,21.186,87.0236,26.715,84.6933,20.455,77.565" style="stroke:#181818;stroke-width:0.5;"/></g><!--reverse link ClassC to ClassD--><g class="link" data-entity-1="ent0005" data-entity-2="ent0007" data-link-type="extension" data-source-line="6" id="lnk9"><path codeLine="6" d="M51.0495,85.8585 C47.3595,94.6135 45.635,98.695 41.95,107.445" fill="none" id="ClassC-backto-ClassD" style="stroke:#181818;stroke-width:0.5;"/><polygon fill="none" points="54.545,77.565,48.285,84.6933,53.814,87.0236,54.545,77.565" style="stroke:#181818;stroke-width:0.5;"/></g><?plantuml-src AqvEp4bLCD0pvSh8J4bLICuiIiv9vNBEIImkTbImgT7LLG2pdJ25d252JaX2BX0XPsGX0000?></g></svg>