<?plantuml 1.2026.1?><svg xmlns="http://www.w3.org/2000/svg" xmlns:xlink="http://www.w3.org/1999/xlink" contentStyleType="text/css" data-diagram-type="CLASS" height="128px" preserveAspectRatio="none" style="width:287px;height:128px;background:#FFFFFF;" version="1.1" viewBox="0 0 287 128" width="287px" zoomAndPan="magnify"><defs/><g><!--class Name--><g class="entity" data-qualified-name="Name" data-source-line="2" id="ent0002"><rect fill="#F1F1F1" height="114.0469" rx="2.5" ry="2.5" style="stroke:#181818;stroke-width:0.5;" width="87.4893" x="7" y="7"/><text fill="#000000" font-family="sans-serif" font-size="14" lengthAdjust="spacing" textLength="37.3447" x="32.0723" y="26.5332">Name</text><line style="stroke:#181818;stroke-width:0.5;" x1="8" x2="93.4893" y1="34.6094" y2="34.6094"/><text fill="#000000" font-family="sans-serif" font-size="14" lengthAdjust="spacing" textLength="58.3721" x="13" y="53.1426">attribute1</text><text fill="#000000" font-family="sans-serif" font-size="14" lengthAdjust="spacing" text-decoration="underline" textLength="58.3721" x="13" y="70.752">attribute2</text><line style="stroke:#181818;stroke-width:0.5;" x1="8" x2="93.4893" y1="77.8281" y2="77.8281"/><text fill="#000000" font-family="sans-serif" font-size="14" lengthAdjust="spacing" textLength="75.4893" x="13" y="96.3613">operation1()</text><text fill="#000000" font-family="sans-serif" font-size="14" lengthAdjust="spacing" text-decoration="underline" textLength="75.4893" x="13" y="113.9707">operation2()</text></g><g class="entity" data-qualified-name="GMN3" data-source-line="8" id="ent0004"><path d="M129,51 L129,60 L94.11,64 L129,68 L129,77.3516 A0,0 0 0 0 129,77.3516 L280.0698,77.3516 A0,0 0 0 0 280.0698,77.3516 L280.0698,61 L270.0698,51 L129,51 A0,0 0 0 0 129,51" fill="#FEFFDD" style="stroke:#181818;stroke-width:0.5;"/><path d="M270.0698,51 L270.0698,61 L280.0698,61 L270.0698,51" fill="#FEFFDD" style="stroke:#181818;stroke-width:0.5;"/><text fill="#000000" font-family="sans-serif" font-size="13" lengthAdjust="spacing" textLength="130.0698" x="135" y="69.4951">underline means static</text></g><?plantuml-src PSin3i9030J0dbTiISgav17ymLnMnDB5XtnE5UNlX0GT1IvMyeuM02OTYQIUCY_xYvIbLjnb9jQZ-9n4k3wMOD-gjOQ4fkrdGxFoekzOhBzs_uEcmrUt8wq4uVgSueR5HdfM8sQALPnJl040?></g></svg>